<svg xmlns="http://www.w3.org/2000/svg" width="305.933" height="237.855" viewBox="0 0 305.933 237.855">
  <g id="Grupo_63746" data-name="Grupo 63746" transform="translate(4141.5 6115.597)">
    <g id="Grupo_63745" data-name="Grupo 63745" transform="translate(-4175.198 -6191.402)">
      <path id="Trazado_167261" data-name="Trazado 167261" d="M109.491,357.71l6.3-12.191-6.988-3.611a31.8,31.8,0,0,0,1.463-12.131l7.825-2.806-4.6-12.909-7.1,2.546a31.849,31.849,0,0,0-8.161-9.63l3.473-6.72-12.19-6.3-3.628,7.021a31.856,31.856,0,0,0-11.913-.608L71.6,291.879,58.411,295.6l2.665,9.535a31.81,31.81,0,0,0-8.079,7.4L44.611,308.2l-6.3,12.191,8.836,4.565a31.82,31.82,0,0,0-.82,7.962l-10.07,3.208L40.423,349.2l9.236-2.943a31.833,31.833,0,0,0,8.571,10.758l-3.934,8.333,12.378,5.878,3.829-8.111a31.869,31.869,0,0,0,11.482.792l2.786,8.744,13.075-4.166-2.884-9.053a31.816,31.816,0,0,0,6.92-5.659ZM86.776,346.388a16.6,16.6,0,1,1,5.875-22.734A16.6,16.6,0,0,1,86.776,346.388Z" transform="translate(-0.604 -63.415)" fill="#bbabf5"/>
      <path id="Trazado_167262" data-name="Trazado 167262" d="M412.426,139.482l.052-17.842-10.228-.03a41.328,41.328,0,0,0-5.509-14.9l7.387-7.89L391.147,86.611l-6.7,7.16a41.411,41.411,0,0,0-15.158-6.3l.029-9.837-17.842-.052-.03,10.276A41.393,41.393,0,0,0,337.3,94.232l-7.787-8.416L316.462,97.947l8.742,9.45a41.341,41.341,0,0,0-4.951,13.359l-12.274-.035-.052,17.842,12.932.037a41.4,41.4,0,0,0,3.778,9.7l-9.746,9.689,12.58,12.654,8.938-8.886a41.4,41.4,0,0,0,16.3,7.358l.395,11.975,17.81-.548-.384-11.657a41.43,41.43,0,0,0,13.753-5.9l8.412,8.462,12.654-12.579-8.711-8.761a41.335,41.335,0,0,0,4.647-10.655Zm-33,.386a21.59,21.59,0,1,1-6.7-29.789A21.589,21.589,0,0,1,379.427,139.869Z" transform="translate(-80.337 -0.523)" fill="#bbabf5"/>
      <g id="Grupo_61794" data-name="Grupo 61794" transform="translate(77.808 137.749)">
        <path id="Trazado_167263" data-name="Trazado 167263" d="M289.035,301.188l-189.75-.551a3.37,3.37,0,0,1-3.36-3.38L96.3,166.841a3.37,3.37,0,0,1,3.38-3.36l189.75.551a3.37,3.37,0,0,1,3.361,3.38l-.379,130.416A3.37,3.37,0,0,1,289.035,301.188Z" transform="translate(-95.924 -163.481)" fill="#dde0df"/>
        <path id="Trazado_167264" data-name="Trazado 167264" d="M106.034,283.776l.3-104.108a5.271,5.271,0,0,1,5.286-5.256l171.545.5a5.271,5.271,0,0,1,5.256,5.286l-.3,104.109Z" transform="translate(-98.891 -166.689)" fill="#472ea6"/>
        <path id="Trazado_167265" data-name="Trazado 167265" d="M251.462,358.1l7.813,27.991H204.754l7.813-27.991Z" transform="translate(-127.864 -220.6)" fill="#c6cdcb"/>
        <rect id="Rectángulo_35048" data-name="Rectángulo 35048" width="102.25" height="10.419" transform="translate(53.025 165.492)" fill="#dde0df"/>
        <path id="Trazado_167266" data-name="Trazado 167266" d="M245.133,341.5a3.069,3.069,0,1,1-3.069-3.07A3.07,3.07,0,0,1,245.133,341.5Z" transform="translate(-137.913 -214.827)" fill="#fff"/>
        <rect id="Rectángulo_35049" data-name="Rectángulo 35049" width="64.856" height="61.225" transform="translate(109.846 45.355)" fill="#459ad8" opacity="0.5" style="mix-blend-mode: multiply;isolation: isolate"/>
        <rect id="Rectángulo_35050" data-name="Rectángulo 35050" width="64.856" height="16.423" transform="translate(109.846 45.355)" fill="#2fbede"/>
        <rect id="Rectángulo_35051" data-name="Rectángulo 35051" width="54.583" height="2.561" transform="translate(114.295 65.476)" fill="#f3fcfd"/>
        <rect id="Rectángulo_35052" data-name="Rectángulo 35052" width="54.583" height="2.561" transform="translate(114.295 70.667)" fill="#f3fcfd"/>
        <rect id="Rectángulo_35053" data-name="Rectángulo 35053" width="54.583" height="2.561" transform="translate(114.295 75.681)" fill="#f3fcfd"/>
        <rect id="Rectángulo_35054" data-name="Rectángulo 35054" width="54.583" height="2.561" transform="translate(114.295 80.873)" fill="#f3fcfd"/>
        <rect id="Rectángulo_35055" data-name="Rectángulo 35055" width="24.82" height="2.561" transform="translate(114.295 86.785)" fill="#f3fcfd"/>
        <g id="Grupo_61787" data-name="Grupo 61787" transform="translate(118.208 50.547)">
          <path id="Trazado_167267" data-name="Trazado 167267" d="M267.17,235.025l-3.934,3.02,3.934,3.02" transform="translate(-263.237 -235.025)" fill="none" stroke="#fff" stroke-miterlimit="10" stroke-width="1.26"/>
          <path id="Trazado_167268" data-name="Trazado 167268" d="M273.631,235.025l3.934,3.02-3.934,3.02" transform="translate(-266.287 -235.025)" fill="none" stroke="#fff" stroke-miterlimit="10" stroke-width="1.26"/>
        </g>
        <rect id="Rectángulo_35056" data-name="Rectángulo 35056" width="64.856" height="20.381" transform="translate(109.846 17.8)" fill="#459ad8" opacity="0.5" style="mix-blend-mode: multiply;isolation: isolate"/>
        <rect id="Rectángulo_35057" data-name="Rectángulo 35057" width="54.583" height="2.561" transform="translate(114.295 21.607)" fill="#2fbede"/>
        <rect id="Rectángulo_35058" data-name="Rectángulo 35058" width="26.807" height="2.561" transform="translate(142.274 26.799)" fill="#f3fcfd"/>
        <rect id="Rectángulo_35059" data-name="Rectángulo 35059" width="26.451" height="2.561" transform="translate(114.295 26.799)" fill="#2fbede"/>
        <rect id="Rectángulo_35060" data-name="Rectángulo 35060" width="54.583" height="2.561" transform="translate(114.295 31.813)" fill="#f3fcfd"/>
        <path id="Trazado_167269" data-name="Trazado 167269" d="M125.5,188.675V213.12l4.427,4.291V213.12h56.59V188.675Z" transform="translate(-104.605 -170.875)" fill="#459ad8" opacity="0.7" style="mix-blend-mode: multiply;isolation: isolate"/>
        <g id="Grupo_61788" data-name="Grupo 61788" transform="translate(24.594 23.986)">
          <line id="Línea_234" data-name="Línea 234" x2="53.544" fill="none" stroke="#fff" stroke-miterlimit="10" stroke-width="0.632"/>
          <line id="Línea_235" data-name="Línea 235" x2="53.544" transform="translate(0 2.559)" fill="none" stroke="#fff" stroke-miterlimit="10" stroke-width="0.632"/>
          <line id="Línea_236" data-name="Línea 236" x2="53.544" transform="translate(0 5.119)" fill="none" stroke="#fff" stroke-miterlimit="10" stroke-width="0.632"/>
          <line id="Línea_237" data-name="Línea 237" x2="53.544" transform="translate(0 7.678)" fill="none" stroke="#fff" stroke-miterlimit="10" stroke-width="0.632"/>
          <line id="Línea_238" data-name="Línea 238" x2="28.704" transform="translate(0 10.246)" fill="none" stroke="#fff" stroke-miterlimit="10" stroke-width="0.463"/>
          <line id="Línea_239" data-name="Línea 239" x2="28.704" transform="translate(0 12.805)" fill="none" stroke="#fff" stroke-miterlimit="10" stroke-width="0.463"/>
        </g>
        <g id="Grupo_61793" data-name="Grupo 61793" transform="translate(19.666 51.793)">
          <g id="Grupo_61789" data-name="Grupo 61789">
            <rect id="Rectángulo_35061" data-name="Rectángulo 35061" width="75.891" height="2.004" fill="#2fbede"/>
            <rect id="Rectángulo_35062" data-name="Rectángulo 35062" width="64.939" height="2.004" transform="translate(0 3.816)" fill="#2fbede"/>
            <rect id="Rectángulo_35063" data-name="Rectángulo 35063" width="75.891" height="2.004" transform="translate(0 30.104)" fill="#2fbede"/>
            <rect id="Rectángulo_35064" data-name="Rectángulo 35064" width="36.206" height="2.004" transform="translate(0 7.631)" fill="#2fbede"/>
            <rect id="Rectángulo_35065" data-name="Rectángulo 35065" width="31.614" height="2.004" transform="translate(0 11.447)" fill="#2fbede"/>
            <rect id="Rectángulo_35066" data-name="Rectángulo 35066" width="17.943" height="2.004" transform="translate(18.086 16.968) rotate(180)" fill="#2fbede"/>
            <rect id="Rectángulo_35067" data-name="Rectángulo 35067" width="75.891" height="2.004" transform="translate(0 18.543)" fill="#2fbede"/>
            <rect id="Rectángulo_35068" data-name="Rectángulo 35068" width="64.939" height="2.004" transform="translate(0 22.358)" fill="#2fbede"/>
            <rect id="Rectángulo_35069" data-name="Rectángulo 35069" width="36.206" height="2.004" transform="translate(0 26.174)" fill="#2fbede"/>
          </g>
          <g id="Grupo_61790" data-name="Grupo 61790" transform="translate(20.41 7.564)">
            <rect id="Rectángulo_35070" data-name="Rectángulo 35070" width="37.423" height="2.004" transform="translate(18.058)" fill="#f3fcfd"/>
            <rect id="Rectángulo_35071" data-name="Rectángulo 35071" width="17.943" height="2.004" transform="translate(13.528 3.816)" fill="#f3fcfd"/>
            <rect id="Rectángulo_35072" data-name="Rectángulo 35072" width="31.614" height="2.004" transform="translate(31.614 9.337) rotate(180)" fill="#f3fcfd"/>
            <rect id="Rectángulo_35073" data-name="Rectángulo 35073" width="37.423" height="2.004" transform="translate(18.058 18.61)" fill="#f3fcfd"/>
          </g>
          <g id="Grupo_61791" data-name="Grupo 61791" transform="translate(0.482 37.465)">
            <rect id="Rectángulo_35074" data-name="Rectángulo 35074" width="52.024" height="2.004" fill="#2fbede"/>
            <rect id="Rectángulo_35075" data-name="Rectángulo 35075" width="44.516" height="2.004" transform="translate(0 3.815)" fill="#2fbede"/>
            <rect id="Rectángulo_35076" data-name="Rectángulo 35076" width="24.82" height="2.004" transform="translate(0 7.631)" fill="#2fbede"/>
            <rect id="Rectángulo_35077" data-name="Rectángulo 35077" width="21.672" height="2.004" transform="translate(0 11.447)" fill="#2fbede"/>
            <rect id="Rectángulo_35078" data-name="Rectángulo 35078" width="12.3" height="2.004" transform="translate(12.398 16.968) rotate(180)" fill="#2fbede"/>
          </g>
          <g id="Grupo_61792" data-name="Grupo 61792" transform="translate(14.473 45.028)">
            <rect id="Rectángulo_35079" data-name="Rectángulo 35079" width="25.654" height="2.004" transform="translate(12.379)" fill="#f3fcfd"/>
            <rect id="Rectángulo_35080" data-name="Rectángulo 35080" width="12.3" height="2.004" transform="translate(9.274 3.816)" fill="#f3fcfd"/>
            <rect id="Rectángulo_35081" data-name="Rectángulo 35081" width="21.672" height="2.004" transform="translate(21.672 9.337) rotate(180)" fill="#f3fcfd"/>
          </g>
        </g>
      </g>
      <g id="Grupo_61801" data-name="Grupo 61801" transform="translate(237.957 192.406)">
        <rect id="Rectángulo_35082" data-name="Rectángulo 35082" width="58.607" height="99.18" rx="7.39" fill="#0075c9"/>
        <rect id="Rectángulo_35083" data-name="Rectángulo 35083" width="48.26" height="81.183" transform="translate(5.048 6.148)" fill="#eafbfc"/>
        <g id="Grupo_61795" data-name="Grupo 61795" transform="translate(22.897 2.639)">
          <rect id="Rectángulo_35084" data-name="Rectángulo 35084" width="14.759" height="1.246" fill="#004870"/>
          <path id="Trazado_167270" data-name="Trazado 167270" d="M365.2,372.263a1.921,1.921,0,1,1-1.92-1.921A1.92,1.92,0,0,1,365.2,372.263Z" transform="translate(-356.871 -281.488)" fill="#004870"/>
        </g>
        <g id="Grupo_61798" data-name="Grupo 61798" transform="translate(8.89 12.479)">
          <g id="Grupo_61796" data-name="Grupo 61796">
            <rect id="Rectángulo_35085" data-name="Rectángulo 35085" width="31.731" height="1.914" fill="#73b3e1"/>
            <rect id="Rectángulo_35086" data-name="Rectángulo 35086" width="27.152" height="1.914" transform="translate(0 3.645)" fill="#73b3e1"/>
            <rect id="Rectángulo_35087" data-name="Rectángulo 35087" width="31.731" height="1.914" transform="translate(0 28.759)" fill="#73b3e1"/>
            <rect id="Rectángulo_35088" data-name="Rectángulo 35088" width="15.138" height="1.914" transform="translate(0 7.29)" fill="#73b3e1"/>
            <rect id="Rectángulo_35089" data-name="Rectángulo 35089" width="13.218" height="1.914" transform="translate(0 10.935)" fill="#73b3e1"/>
            <rect id="Rectángulo_35090" data-name="Rectángulo 35090" width="7.502" height="1.914" transform="translate(7.562 16.21) rotate(180)" fill="#73b3e1"/>
            <rect id="Rectángulo_35091" data-name="Rectángulo 35091" width="31.731" height="1.914" transform="translate(0 17.714)" fill="#73b3e1"/>
            <rect id="Rectángulo_35092" data-name="Rectángulo 35092" width="27.152" height="1.914" transform="translate(0 21.359)" fill="#73b3e1"/>
            <rect id="Rectángulo_35093" data-name="Rectángulo 35093" width="15.138" height="1.914" transform="translate(0 25.004)" fill="#73b3e1"/>
          </g>
          <g id="Grupo_61797" data-name="Grupo 61797" transform="translate(8.534 7.226)">
            <rect id="Rectángulo_35094" data-name="Rectángulo 35094" width="15.648" height="1.914" transform="translate(7.55)" fill="#1781ce"/>
            <rect id="Rectángulo_35095" data-name="Rectángulo 35095" width="7.502" height="1.914" transform="translate(5.656 3.645)" fill="#1781ce"/>
            <rect id="Rectángulo_35096" data-name="Rectángulo 35096" width="13.218" height="1.914" transform="translate(13.218 8.92) rotate(180)" fill="#1781ce"/>
            <rect id="Rectángulo_35097" data-name="Rectángulo 35097" width="15.648" height="1.914" transform="translate(7.55 17.779)" fill="#1781ce"/>
          </g>
        </g>
        <g id="Grupo_61799" data-name="Grupo 61799" transform="translate(9.367 47.467)">
          <rect id="Rectángulo_35098" data-name="Rectángulo 35098" width="40.086" height="34.469" fill="#fff"/>
          <rect id="Rectángulo_35099" data-name="Rectángulo 35099" width="40.086" height="7.196" fill="#73b3e1"/>
        </g>
        <path id="Trazado_167271" data-name="Trazado 167271" d="M367.882,335.012l.008-3.037-1.74,0a7.037,7.037,0,0,0-.937-2.536l1.257-1.343-2.209-2.076-1.141,1.218a7.043,7.043,0,0,0-2.579-1.071l0-1.674-3.037-.009,0,1.749a7.043,7.043,0,0,0-2.406,1.084l-1.325-1.432-2.221,2.064,1.488,1.608a7.021,7.021,0,0,0-.843,2.273l-2.088-.006-.009,3.036,2.2.006a7.057,7.057,0,0,0,.643,1.65l-1.658,1.648,2.141,2.153,1.52-1.512a7.058,7.058,0,0,0,2.774,1.252l.067,2.038,3.031-.093-.066-1.983a7.057,7.057,0,0,0,2.341-1l1.431,1.44,2.153-2.141-1.482-1.491a7.063,7.063,0,0,0,.791-1.813Zm-5.615.065a3.674,3.674,0,1,1-1.14-5.068A3.675,3.675,0,0,1,362.267,335.077Z" transform="translate(-330.671 -265.389)" fill="#73b3e1"/>
        <g id="Grupo_61800" data-name="Grupo 61800" transform="translate(41.002 49.673)">
          <path id="Trazado_167272" data-name="Trazado 167272" d="M382.448,311.15l-1.814,1.392,1.814,1.392" transform="translate(-380.634 -311.15)" fill="none" stroke="#fff" stroke-miterlimit="10" stroke-width="0.581"/>
          <path id="Trazado_167273" data-name="Trazado 167273" d="M385.428,311.15l1.814,1.392-1.814,1.392" transform="translate(-382.041 -311.15)" fill="none" stroke="#fff" stroke-miterlimit="10" stroke-width="0.581"/>
        </g>
      </g>
      <path id="Trazado_167274" data-name="Trazado 167274" d="M90.86,99.614l2.278-4.409L90.612,93.9a11.5,11.5,0,0,0,.528-4.387L93.97,88.5l-1.662-4.669-2.568.921a11.52,11.52,0,0,0-2.952-3.482l1.256-2.431-4.409-2.278L82.324,79.1a11.539,11.539,0,0,0-4.309-.22l-.858-3.071-4.77,1.345L73.35,80.6a11.486,11.486,0,0,0-2.921,2.677L67.4,81.709l-2.278,4.409,3.2,1.651a11.524,11.524,0,0,0-.3,2.88l-3.642,1.16,1.506,4.729,3.34-1.064a11.508,11.508,0,0,0,3.1,3.891L70.9,102.377l4.476,2.126,1.385-2.933a11.517,11.517,0,0,0,4.152.287l1.007,3.162,4.729-1.506L85.6,100.238a11.49,11.49,0,0,0,2.5-2.047Zm-8.215-4.095A6,6,0,1,1,84.77,87.3,6,6,0,0,1,82.645,95.519Z" transform="translate(-8.856)" fill="#2cffe2"/>
      <rect id="Rectángulo_35100" data-name="Rectángulo 35100" width="47.466" height="1.59" transform="matrix(1, 0.003, -0.003, 1, 108.848, 95.826)" fill="#0075c9"/>
      <rect id="Rectángulo_35101" data-name="Rectángulo 35101" width="24.252" height="1.59" transform="translate(108.607 99.701)" fill="#0075c9"/>
      <rect id="Rectángulo_35102" data-name="Rectángulo 35102" width="47.466" height="1.59" transform="matrix(1, 0.003, -0.003, 1, 108.857, 92.464)" fill="#0075c9"/>
      <g id="Grupo_61802" data-name="Grupo 61802" transform="translate(96.211 104.477)">
        <path id="Trazado_167275" data-name="Trazado 167275" d="M182.59,117.761l-48.526-.141-10.239,23.467" transform="translate(-122.516 -116.749)" fill="#fff" stroke="#004870" stroke-miterlimit="10" stroke-width="1.024"/>
        <path id="Trazado_167276" data-name="Trazado 167276" d="M123.678,152.038a.983.983,0,1,1-.057-1.389A.982.982,0,0,1,123.678,152.038Z" transform="translate(-121.972 -126.367)" fill="none" stroke="#004870" stroke-miterlimit="10" stroke-width="1"/>
        <path id="Trazado_167277" data-name="Trazado 167277" d="M208.5,117.918a.983.983,0,1,1-.27-1.364A.983.983,0,0,1,208.5,117.918Z" transform="translate(-146.838 -116.387)" fill="none" stroke="#004870" stroke-miterlimit="10" stroke-width="1"/>
      </g>
      <g id="Grupo_61806" data-name="Grupo 61806" transform="translate(282.007 229.386)">
        <g id="Grupo_61803" data-name="Grupo 61803" transform="translate(2.109 0.796)">
          <line id="Línea_240" data-name="Línea 240" x1="52.925" transform="translate(0 0.362)" fill="#004870"/>
          <rect id="Rectángulo_35103" data-name="Rectángulo 35103" width="52.924" height="0.723" transform="translate(0)" fill="#004870"/>
        </g>
        <g id="Grupo_61804" data-name="Grupo 61804">
          <path id="Trazado_167278" data-name="Trazado 167278" d="M387.264,294.342a1.158,1.158,0,1,1-1.158-1.158A1.158,1.158,0,0,1,387.264,294.342Z" transform="translate(-384.949 -293.184)" fill="none" stroke="#004870" stroke-miterlimit="10" stroke-width="1"/>
        </g>
        <g id="Grupo_61805" data-name="Grupo 61805" transform="translate(54.808)">
          <path id="Trazado_167279" data-name="Trazado 167279" d="M464.84,294.342a1.158,1.158,0,1,1-1.157-1.158A1.157,1.157,0,0,1,464.84,294.342Z" transform="translate(-462.525 -293.184)" fill="none" stroke="#004870" stroke-miterlimit="10" stroke-width="1"/>
        </g>
      </g>
      <path id="Trazado_167280" data-name="Trazado 167280" d="M462.844,351.652" transform="translate(-125.803 -80.958)" fill="#fff" stroke="#3c3c3b" stroke-miterlimit="10" stroke-width="1.024"/>
      <g id="Grupo_61807" data-name="Grupo 61807" transform="translate(167.936 84.672)">
        <rect id="Rectángulo_35104" data-name="Rectángulo 35104" width="45.332" height="45.332" transform="translate(3.003 2.329) rotate(0.166)" fill="#ea8088" opacity="0.25"/>
        <rect id="Rectángulo_35105" data-name="Rectángulo 35105" width="45.332" height="45.332" transform="translate(0.132 0) rotate(0.166)" fill="#ea8088"/>
        <text id="JAVA" transform="translate(9.402 26.158) rotate(0.166)" fill="#fff" font-size="9" font-family="SegoeUI, Segoe UI"><tspan x="0" y="0">JAVA</tspan></text>
      </g>
      <g id="Grupo_61808" data-name="Grupo 61808" transform="translate(45.487 109.37)">
        <rect id="Rectángulo_35106" data-name="Rectángulo 35106" width="45.332" height="45.332" transform="translate(2.878 2.321)" fill="#c59" opacity="0.25"/>
        <rect id="Rectángulo_35107" data-name="Rectángulo 35107" width="45.332" height="45.332" fill="#c59"/>
        <text id="HTML" transform="translate(7.921 26.607)" fill="#fff" font-size="10" font-family="SegoeUI, Segoe UI"><tspan x="0" y="0">HTML</tspan></text>
      </g>
      <g id="Grupo_61809" data-name="Grupo 61809" transform="translate(44.048 173.866)">
        <rect id="Rectángulo_35108" data-name="Rectángulo 35108" width="45.332" height="45.332" transform="translate(2.878 2.321)" fill="#6bcdb2" opacity="0.24"/>
        <rect id="Rectángulo_35109" data-name="Rectángulo 35109" width="45.332" height="45.332" fill="#35e9d0"/>
        <text id="CSS" transform="translate(11.25 26.607)" fill="#fff" font-size="10" font-family="SegoeUI, Segoe UI"><tspan x="0" y="0">CSS</tspan></text>
      </g>
      <g id="Grupo_61810" data-name="Grupo 61810" transform="translate(308.501 196.259)">
        <rect id="Rectángulo_35110" data-name="Rectángulo 35110" width="28.003" height="28.003" transform="translate(1.778 1.434)" fill="#8c78cf" opacity="0.26"/>
        <rect id="Rectángulo_35111" data-name="Rectángulo 35111" width="28.003" height="28.003" fill="#8c78cf"/>
        <text id="PHP" transform="translate(6.95 15.724)" fill="#fff" font-size="6" font-family="SegoeUI, Segoe UI"><tspan x="0" y="0">PHP</tspan></text>
      </g>
      <g id="Grupo_61811" data-name="Grupo 61811" transform="translate(308.318 237.667)">
        <rect id="Rectángulo_35112" data-name="Rectángulo 35112" width="28.003" height="28.003" transform="translate(1.778 1.434)" fill="#f4de5d" opacity="0.27"/>
        <rect id="Rectángulo_35113" data-name="Rectángulo 35113" width="28.003" height="28.003" fill="#f4b55b"/>
        <text id="C_" data-name="C++" transform="translate(6.949 17.766)" fill="#fff" font-size="7" font-family="SegoeUI, Segoe UI"><tspan x="0" y="0">C++</tspan></text>
      </g>
      <g id="Grupo_61812" data-name="Grupo 61812" transform="translate(34.198 131.352)">
        <path id="Trazado_167281" data-name="Trazado 167281" d="M40.577,155.818H34.2v66.218h3.7" transform="translate(-34.198 -154.835)" fill="none" stroke="#004870" stroke-miterlimit="10" stroke-width="1"/>
        <path id="Trazado_167282" data-name="Trazado 167282" d="M45.027,155.41a.983.983,0,1,1-.983-.983A.984.984,0,0,1,45.027,155.41Z" transform="translate(-36.799 -154.427)" fill="none" stroke="#004870" stroke-miterlimit="10" stroke-width="1"/>
        <circle id="Elipse_4204" data-name="Elipse 4204" cx="0.983" cy="0.983" r="0.983" transform="translate(3.442 66.218)" fill="none" stroke="#004870" stroke-miterlimit="10" stroke-width="1"/>
      </g>
      <g id="Grupo_61813" data-name="Grupo 61813" transform="translate(116.098 110.189)">
        <rect id="Rectángulo_35114" data-name="Rectángulo 35114" width="8.378" height="19.838" transform="matrix(1, 0.003, -0.003, 1, 0.058, 0)" fill="#0075c9"/>
        <rect id="Rectángulo_35115" data-name="Rectángulo 35115" width="8.378" height="16.257" transform="matrix(1, 0.003, -0.003, 1, 10.717, 3.612)" fill="#3391d4"/>
        <rect id="Rectángulo_35116" data-name="Rectángulo 35116" width="8.378" height="11.222" transform="matrix(1, 0.003, -0.003, 1, 21.372, 8.678)" fill="#459ad8"/>
      </g>
      <g id="Grupo_61817" data-name="Grupo 61817" transform="translate(278.105 270.694)">
        <g id="Grupo_61814" data-name="Grupo 61814" transform="translate(2.488 0.796)">
          <line id="Línea_241" data-name="Línea 241" x1="55.848" transform="translate(0 0.362)" fill="#004870"/>
          <rect id="Rectángulo_35117" data-name="Rectángulo 35117" width="55.847" height="0.723" transform="translate(0)" fill="#004870"/>
        </g>
        <g id="Grupo_61815" data-name="Grupo 61815" transform="translate(0 0)">
          <path id="Trazado_167283" data-name="Trazado 167283" d="M381.741,352.81a1.158,1.158,0,1,1-1.157-1.158A1.157,1.157,0,0,1,381.741,352.81Z" transform="translate(-379.426 -351.652)" fill="none" stroke="#004870" stroke-miterlimit="10" stroke-width="1"/>
        </g>
        <g id="Grupo_61816" data-name="Grupo 61816" transform="translate(58.111)">
          <circle id="Elipse_4205" data-name="Elipse 4205" cx="1.158" cy="1.158" r="1.158" fill="none" stroke="#004870" stroke-miterlimit="10" stroke-width="1"/>
        </g>
      </g>
      <g id="Grupo_61818" data-name="Grupo 61818" transform="translate(249.186 298.718)">
        <rect id="Rectángulo_35118" data-name="Rectángulo 35118" width="4.091" height="14.943" fill="#0075c9"/>
        <rect id="Rectángulo_35119" data-name="Rectángulo 35119" width="4.091" height="14.943" transform="translate(7.666)" fill="#3391d4"/>
        <rect id="Rectángulo_35120" data-name="Rectángulo 35120" width="4.091" height="14.943" transform="translate(15.817)" fill="#66acdf"/>
        <rect id="Rectángulo_35121" data-name="Rectángulo 35121" width="4.091" height="14.943" transform="translate(23.887)" fill="#99c8e9"/>
        <rect id="Rectángulo_35122" data-name="Rectángulo 35122" width="4.091" height="14.943" transform="translate(31.807)" fill="#bfdcf1"/>
      </g>
    </g>
  </g>
</svg>
