<svg xmlns="http://www.w3.org/2000/svg" width="261.548" height="261.549" viewBox="0 0 261.548 261.549">
  <g id="Grupo_63740" data-name="Grupo 63740" transform="translate(4154.274 7580.2)">
    <g id="Grupo_63739" data-name="Grupo 63739" transform="translate(-4179.274 -7605.2)">
      <path id="Trazado_166508" data-name="Trazado 166508" d="M295.032,201.437a20.56,20.56,0,0,0-7.531-12.351A28.872,28.872,0,0,0,271.98,183.4c-8.038-.7-16.353,1.012-24.247-1.284-6.6-1.917-11.4-6.776-15.528-12.258-2.014-2.677-3.841-5.5-5.965-8.089a46.666,46.666,0,0,0-6.83-6.727c-4.657-3.744-10.261-6.479-16.195-6.735-6.247-.269-11.856,2.888-16.052,7.553-4.777,5.311-6.624,12.546-10.3,18.6a18.278,18.278,0,0,1-7.635,7.194,28.418,28.418,0,0,1-9.826,2.377c-5.942.575-11.855.271-17.656,1.99a28.979,28.979,0,0,0-12.98,7.935c-8.133,8.711-9.9,23.151-6.565,34.46,2.028,6.878,6.743,11.845,11.6,16.683a44.384,44.384,0,0,1,6.472,7.644,32.3,32.3,0,0,1,3.82,10.451,94.093,94.093,0,0,0,2.509,10.5,22.043,22.043,0,0,0,5.284,8.477c4.485,4.489,11.086,5.8,17.076,5.892,22.748.36,31.662.77,49.315,4.638,8.334,1.828,22.514,4.77,32.942-1.286,7.187-4.176,11.2-11.989,13.177-20.065.6-2.45,1.044-4.97,1.473-7.5.621-2.751,1.217-5.512,1.989-8.23a44.337,44.337,0,0,1,4.273-10.278,59.424,59.424,0,0,1,7.123-9.107c4.891-5.545,9.962-11.026,13.131-17.9C294.807,213.086,296.082,207.233,295.032,201.437Z" transform="translate(-40.04 -51.631)" fill="#ff9fd1"/>
      <g id="Grupo_59816" data-name="Grupo 59816" transform="translate(61.507 55.647)">
        <g id="Grupo_59813" data-name="Grupo 59813" transform="translate(0 0)">
          <g id="Grupo_59806" data-name="Grupo 59806" transform="translate(135.238 12.834)">
            <path id="Trazado_166509" data-name="Trazado 166509" d="M331.211,116.488c-1.046-6.449-3.267-11.955-8.371-16.46-.931-.821-3.033.877-2.129,1.747,5.618,5.39,7.269,11.129,7.414,19.73a108.934,108.934,0,0,1-.421,10.972c-.265,3.136,2.919,2.972,3.234,1.019C331.561,129.627,331.824,120.261,331.211,116.488Z" transform="translate(-320.49 -99.81)" fill="#ff61ac"/>
            <path id="Trazado_166510" data-name="Trazado 166510" d="M325.021,104.948a15.315,15.315,0,0,0-1.561-2.123c-.8-.894-1.84-1.623-1.746-2.843-.847.308-1.615,1.275-1,1.865,5.618,5.39,7.269,11.129,7.415,19.73a108.955,108.955,0,0,1-.421,10.972,2.415,2.415,0,0,0,.563,2.011c1.441-3.181,1.344-7.352,1.4-10.625a38.362,38.362,0,0,0-1.906-13.44A27.728,27.728,0,0,0,325.021,104.948Z" transform="translate(-320.49 -99.883)" fill="#e5489a"/>
          </g>
          <path id="Trazado_166511" data-name="Trazado 166511" d="M275.735,97.088c-6.642-8.075-18.455-12.534-33.983-6.683-7.036,2.651-12.062,6.793-15.1,12.379-4.076,7.5-4.218,21.01-1.908,29.964q.38,1.708.844,3.4c2.053,7.438,5.844,14.2,12.222,19a26.624,26.624,0,0,0,20.862,4.864,27.234,27.234,0,0,0,17.591-12.233C285.63,133.151,287.128,110.936,275.735,97.088Z" transform="translate(-144.527 -81.919)" fill="#521e3f"/>
          <path id="Trazado_166512" data-name="Trazado 166512" d="M272.157,289.749a72.92,72.92,0,0,0-2.1-8.922c-1.084-3.648-3.606-6.348-4.953-9.889-.791-2.08-.349-5.058-1.133-7.147s-3-3.043-3.834-5.133c-.822-2.067-.263-5.286-1.171-7.316a92.643,92.643,0,0,0-5.282-10.245c-3.308-5.473-7.783-11.143-13.364-14.573-.539-.332-1.064-.627-1.579-.9-3.577-2.367-8.418-3.926-13.438-6.064-4.284-1.824-21.2-5.6-36.679-5.563a114.553,114.553,0,0,0-28.638,4.141c-9.53,2.59-12.421,2.847-21.123,10.546-3.418,3.025-6.825,6.074-10.365,8.943-1.787,1.447-4.88,1.425-6.753,2.751-2.444,1.735-3.706,4.768-6.373,6.2-7.694,4.119-16.319,4.421-21.272,12.088-2.133,3.3-4.14,10.341-4.155,14.278a10.687,10.687,0,0,0,4.033,8.113c4.729,3.988,11.9,4.378,17.787,4.1,8.552-.406,16.986-3,24.943-6,7.619-2.874,10.524-.2,10.189,5.686q-.441,7.777-.772,15.557c-.237,5.631-.354,11.266-.518,16.9-.181,6.211,2.364,11.255,8.915,12.25,15.684,2.38,67.188,8,74.162.826.732-.752,2.093-8.236,3.51-18.544.645-4.693,2.461-6.343,6.2-2.854a27.447,27.447,0,0,0,16.616,7.432,16.1,16.1,0,0,0,15.76-9.08C273.423,301.93,273.105,295.511,272.157,289.749Z" transform="translate(-88.706 -134.793)" fill="#d3d0ff"/>
          <g id="Grupo_59807" data-name="Grupo 59807" transform="translate(160.454 123.178)">
            <path id="Trazado_166513" data-name="Trazado 166513" d="M372.492,289.687a50.178,50.178,0,0,1-3.311,6.367,48.072,48.072,0,0,1-5.291,6.367c-.043.044.016.129.068.089a25.606,25.606,0,0,0,5.523-5.617c1.462-2.034,2.965-4.622,3.111-7.18a.054.054,0,0,0-.1-.026Z" transform="translate(-363.875 -289.66)" fill="#b1b1f2"/>
          </g>
          <path id="Trazado_166514" data-name="Trazado 166514" d="M231.136,245.071c-1.1-2.217-2.46-3.9-4.914-4.309-2.482-.414-5.121.5-7.383,1.468a31.167,31.167,0,0,0-11.633,8.191c-2.33,2.791,18.369,6.1,21.807,6.121C235.549,256.575,233.011,248.868,231.136,245.071Z" transform="translate(-137.734 -145.961)" fill="#ffa26e"/>
          <path id="Trazado_166515" data-name="Trazado 166515" d="M246.277,256.362c-.419-1.3-.745-3.068-2.514-3.273a6.229,6.229,0,0,0-2.258.237c-1.049.363-.727,1.059-.448,1.67.572,1.254,1.287,2.355,2.9,2.577C245.074,257.726,246.614,257.4,246.277,256.362Z" transform="translate(-151.872 -151.158)" fill="#fff"/>
          <path id="Trazado_166516" data-name="Trazado 166516" d="M229.734,256.542c-1.333-2.336-1.569-5.1-1.749-7.72-.006-.089-.14-.117-.163-.022a9.7,9.7,0,0,0-.23,1.748c-.69,1.813-3.139,1.254-4.429,2.45a4.642,4.642,0,0,0-1.43,4.189c.032.221.082.444.128.668,3.881.871,8.178,1.559,10.925,1.878A9.027,9.027,0,0,1,229.734,256.542Z" transform="translate(-143.871 -149.345)" fill="#f4905d"/>
          <path id="Trazado_166517" data-name="Trazado 166517" d="M267.73,217.037a82.74,82.74,0,0,0-12.693-.457c-8.147.3-11.728,7.363-5.169,13.391,8.324,7.648,22.816,8.588,29.28-1.167,2.255-3.4,2.771-8.744-4.337-10.649A48.586,48.586,0,0,0,267.73,217.037Z" transform="translate(-154.253 -135.85)" fill="#b1b1f2"/>
          <path id="Trazado_166518" data-name="Trazado 166518" d="M268.647,348.508a13.3,13.3,0,0,1-1.659.609c-4.966,1.421-10.43.223-15.205-1.36a68.383,68.383,0,0,1-12.032-5.494c-4.044-2.279-10.479-4.8-12.152,1.389-1.763,6.518,3.612,20.911-6.017,23.146-5.878,1.364-11.5-2.308-16.97-3.738a70.858,70.858,0,0,0-16.978-1.826,127.265,127.265,0,0,0-13.337.6c-4.018.376-8.173,1.462-12.217,1.127-6.035-.5-9.62-5.313-10.841-10.876a33.188,33.188,0,0,1-.2-11.063,57.177,57.177,0,0,1,1.285-6.691c.524-2.131,2.316-3.741,3.3-5.65a4.124,4.124,0,0,0,.317-3.479c-.737-1.347-2.186-2.19-3.034-3.5-2.009-3.1,1.033-6.859,1.257-10.077.414-5.948-6.063-7.391-10.635-7.089-5.652.374-10.985,2.419-16.434,3.778a169.577,169.577,0,0,1-18.662,3.985c-5.561.735-15.072,1.379-17.457-5.2a10.869,10.869,0,0,1-.356-1.226,24.462,24.462,0,0,0-.669,4.969,10.687,10.687,0,0,0,4.033,8.113c4.729,3.988,11.9,4.378,17.787,4.1,8.552-.406,16.986-3,24.943-6,7.619-2.874,10.524-.2,10.189,5.686q-.441,7.777-.772,15.557c-.237,5.631-.354,11.266-.518,16.9-.181,6.211,2.364,11.255,8.915,12.25,15.684,2.38,67.188,8,74.162.826.732-.752,2.093-8.236,3.51-18.544.645-4.693,2.461-6.343,6.2-2.854a27.448,27.448,0,0,0,16.616,7.432A16.053,16.053,0,0,0,268.647,348.508Z" transform="translate(-88.706 -172.696)" fill="#b1b1f2"/>
          <path id="Trazado_166519" data-name="Trazado 166519" d="M365.173,335.188a26.526,26.526,0,0,0-7.686-9.615c-5.391-4.363-12.387-6.458-18.757-8.942a64.074,64.074,0,0,1-10.6-4.89c-1.683-1.043-3.591-2.588-5.612-1.64-1.686.79-2.788,2.886-3.611,4.442a41.643,41.643,0,0,0-2.442,5.812c-1.746,5.032-2.788,7.52,1.012,10.589,2.467,1.991,6.768,5.3,8.534,7.236,3.164,3.464,5.858,7.326,9.11,10.717a28.227,28.227,0,0,0,18.12,8.878c6.7.429,13.484-3.68,14.548-10.658C368.4,343.117,366.772,338.776,365.173,335.188Z" transform="translate(-182.906 -174.918)" fill="#ffa26e"/>
          <path id="Trazado_166520" data-name="Trazado 166520" d="M366.109,351.63a16.94,16.94,0,0,1-7.485,2.446,22.074,22.074,0,0,1-20.542-8.714,54.038,54.038,0,0,1-11.154-23.334c-.8-3.847-1.415-8.578-3.523-12.167a3.071,3.071,0,0,0-.892.262c-1.686.79-2.788,2.886-3.611,4.442a41.645,41.645,0,0,0-2.442,5.812c-1.746,5.032-2.788,7.52,1.012,10.589,2.467,1.991,6.768,5.3,8.534,7.236,3.164,3.464,5.858,7.326,9.11,10.717a28.227,28.227,0,0,0,18.12,8.878A14.188,14.188,0,0,0,366.109,351.63Z" transform="translate(-182.906 -174.942)" fill="#f4905d"/>
          <path id="Trazado_166521" data-name="Trazado 166521" d="M151.7,267.91a196.224,196.224,0,0,1-28.282,4.8c-7.834.721-16.236.7-22.921,5.4a40.246,40.246,0,0,0-7.749,7.891c-2.214,2.755-4.263,5.906-4.832,9.453a7.6,7.6,0,0,0,2.637,7.3c2.391,1.724,5.461,2.393,8.338,2.762a80.765,80.765,0,0,0,8.141.549,29.79,29.79,0,0,0,10.989-1.949c4.023-1.434,31.461-12.491,34.167-15.114a15.445,15.445,0,0,0,3.979-7.623C157.873,274.066,155.853,266.846,151.7,267.91Z" transform="translate(-87.81 -157.329)" fill="#ffa26e"/>
          <path id="Trazado_166522" data-name="Trazado 166522" d="M152.188,297.527a12.227,12.227,0,0,0,1.79-2.235c-.181-.366-.366-.728-.56-1.084-3.192-5.85-14.453-9.383-25.4-1.5-2.335,1.68-4.281,3.849-6.508,5.661a43.686,43.686,0,0,1-9.771,5.663c-5.295,2.372-12.8,4.76-18.191,1.521-2.781-1.668-3.563-4.4-3.409-7.323a16.379,16.379,0,0,0-2.222,5.747,7.6,7.6,0,0,0,2.637,7.3c2.391,1.724,5.461,2.393,8.338,2.762a80.757,80.757,0,0,0,8.141.549,29.791,29.791,0,0,0,10.989-1.949C122.043,311.208,149.482,300.15,152.188,297.527Z" transform="translate(-87.81 -165.846)" fill="#f4905d"/>
          <path id="Trazado_166523" data-name="Trazado 166523" d="M313.938,272.973c-.443-1.895-1.074-3.647-2.9-4.568-2.46-1.24-7.481-1.644-8.294,1.757-.655,2.74,1.089,6.9,3.314,8.542,3.684,2.715,10.142,3.756,9.309-.523C315.023,276.423,314.337,274.685,313.938,272.973Z" transform="translate(-177.761 -157.203)" fill="#ffa26e"/>
          <path id="Trazado_166524" data-name="Trazado 166524" d="M276.145,276.1c-1.247-1.01-8.859-4.987-10.2-5.243-2.482-.476-3.619.344-6.089.326a133.177,133.177,0,0,1-16.743-5.954c-1.118-.586-1.763-1.93-2.135-2.262-2.278-2.041-8.3-3.328-11.338-3.575-.9-.075-3.2.682-5.658,1.806-6.856,3.129-10.089,6.122-13.961,15.465a29.184,29.184,0,0,0-2.492,9.121c-.2,2.97,1.31,4.753,4.672,4.5,2.973-.227,11.157-7.105,15.506-10.706,1.738-1.439,2.221-.948,3.457-.345l.845.409c.911.438.956.914.617,2.149a8.534,8.534,0,0,0-.438,3.086c.135,1.461,1.733,2.233,2.888,2.756,2.1.953,4.292,1.708,6.372,2.707,1.907.917,3.1-.361,4.579-1.472q.6-.448,1.193-.893a2.811,2.811,0,0,1,2.253-.35c.928.4,1.827.783,2.677,1.139,1.88.786,1.745,3.139.892,6.2-3.665,13.119,4.068,8.819,9.52,5.4a49.51,49.51,0,0,0,12.751-10.92C276.671,287.7,277.7,277.361,276.145,276.1Z" transform="translate(-137.94 -153.802)" fill="#3c68cd"/>
          <path id="Trazado_166525" data-name="Trazado 166525" d="M265.112,272.378c-.191-.079-2.023,3.5-2.382,5.284-.12.6,13.6,5.876,13.719,5.683a43.578,43.578,0,0,0,2.511-5.483C279,277.765,269.843,274.381,265.112,272.378Z" transform="translate(-161.063 -159.244)" fill="#2453b2"/>
          <path id="Trazado_166526" data-name="Trazado 166526" d="M275.029,293.147c1.3-3.69,1.157-7.631-1.963-10.357-2.642-2.307-6.589-2.772-9.95-2.539-4.116.286-7.481,2.257-10.674,4.736a52.293,52.293,0,0,1-5.494,4.116,8.141,8.141,0,0,1-7.635.5,12.283,12.283,0,0,1-3.294-1.858c-1.1-.889-.844-2.442-.606-3.635.437-2.189,1.251-4.241,1.422-6.488.26-3.4-1.945-6.283-4.71-7.992a13.749,13.749,0,0,0-18.907,3.917,46.518,46.518,0,0,0-3.193,6.484,29.184,29.184,0,0,0-2.492,9.121c-.2,2.97,1.31,4.753,4.672,4.5,2.973-.227,11.157-7.105,15.506-10.706,1.738-1.439,2.221-.948,3.457-.345l.845.409c.911.438.956.914.617,2.149a8.533,8.533,0,0,0-.438,3.086c.135,1.461,1.733,2.233,2.888,2.756,2.1.953,4.292,1.708,6.372,2.707,1.907.917,3.1-.361,4.579-1.472q.6-.448,1.193-.893a2.811,2.811,0,0,1,2.253-.35c.928.4,1.827.783,2.677,1.139,1.88.786,1.745,3.139.892,6.2-3.665,13.119,4.068,8.819,9.52,5.4A50.108,50.108,0,0,0,275.029,293.147Z" transform="translate(-137.94 -157.175)" fill="#2453b2"/>
          <path id="Trazado_166527" data-name="Trazado 166527" d="M280.4,211.4a21.689,21.689,0,0,1-.609-3.923c0-1.114.246-7.416.1-11.4-.055-1.431-.117-3.162-4.02-3.626-3.073-.365-17.167-.008-18.812.082-2.143.116-3,.988-3.027,2.992a46.9,46.9,0,0,1-.727,10.074c-.552,2.376-1.632,4.768-1.362,7.253.291,2.66,2.676,4.259,4.882,5.39a23.82,23.82,0,0,0,10.613,2.389,20.35,20.35,0,0,0,9.519-2A6.357,6.357,0,0,0,280.4,211.4Z" transform="translate(-156.527 -125.707)" fill="#e87f52"/>
          <path id="Trazado_166528" data-name="Trazado 166528" d="M262.953,214.681c-3.183-4.992-.743-11.7,1.97-16.306a19.85,19.85,0,0,1,5.548-6.079c-5.27-.006-12.284.181-13.414.243-2.143.116-3,.988-3.027,2.992a46.9,46.9,0,0,1-.727,10.074c-.552,2.376-1.632,4.768-1.362,7.253.291,2.66,2.676,4.259,4.882,5.39a23.82,23.82,0,0,0,10.613,2.389,20.349,20.349,0,0,0,9.519-2,8.108,8.108,0,0,0,.936-.575C272.377,219.768,266.2,219.774,262.953,214.681Z" transform="translate(-156.527 -125.707)" fill="#db6b45"/>
          <path id="Trazado_166529" data-name="Trazado 166529" d="M312.4,155.033c.235-2.537.846-11.452,1.421-13.309.85-2.746,4.2-2.81,6.624-2.606a18.431,18.431,0,0,1,4.553.927c2.637.944,4.085,1.628,3.985,3.906-.342,7.731-1.428,13.678-2.638,17.24-1,2.95-2.2,3.489-3.984,3.688a38.448,38.448,0,0,1-6.847-.547A3.486,3.486,0,0,1,312.1,160.9,27.941,27.941,0,0,1,312.4,155.033Z" transform="translate(-181.704 -103.407)" fill="#93426e"/>
          <path id="Trazado_166530" data-name="Trazado 166530" d="M315.512,164.331c.706.112,1.569.226,2.45.323,2.633.291,4.491-2.214,5.525-5.065a35.939,35.939,0,0,0,1.628-12.844,43.217,43.217,0,0,0-.549-6.834,19.064,19.064,0,0,0-4.124-.793c-2.424-.2-5.774-.14-6.624,2.606-.575,1.858-1.186,10.772-1.421,13.309a27.941,27.941,0,0,0-.3,5.863A3.486,3.486,0,0,0,315.512,164.331Z" transform="translate(-181.704 -103.407)" fill="#7c315d"/>
          <path id="Trazado_166531" data-name="Trazado 166531" d="M273.982,97.423c-5.433-1.988-14.469-2.452-22.22-.949-11.262,2.184-18.749,11.115-19.882,24.883a72.717,72.717,0,0,0,1.708,21.8c4.831,20.781,24.01,25.589,33.759,22.6a21.226,21.226,0,0,0,12.334-10.011c6.134-10.246,9.946-28.239,6.262-42.87C284.212,106,280.644,99.86,273.982,97.423Z" transform="translate(-148.057 -85.207)" fill="#ffa26e"/>
          <path id="Trazado_166532" data-name="Trazado 166532" d="M285.943,112.872c-1.73-6.875-5.3-13.013-11.96-15.45-5.433-1.988-14.469-2.452-22.22-.949-11.262,2.184-18.749,11.115-19.882,24.883a72.717,72.717,0,0,0,1.708,21.8c3.583,15.414,15.058,22.035,24.726,23.209-.424-.1-.85-.205-1.275-.332a26.812,26.812,0,0,1-10.538-5.8c-2.769-2.542-5.016-5.985-5.209-9.821-.18-3.57,2.067-6.614,4.94-8.461,5.1-3.283,11.986-3.523,17.863-3.427,3.621.059,7.244.352,10.86.552,3.4.188,7.313.116,10.722,1.011C287.677,131.372,288.125,121.533,285.943,112.872Z" transform="translate(-148.057 -85.207)" fill="#f4905d"/>
          <g id="Grupo_59808" data-name="Grupo 59808" transform="translate(78.069 2.589)">
            <path id="Trazado_166533" data-name="Trazado 166533" d="M275.927,89.355c-7.717-6.889-17.838-8.368-27.708-6.326-9.009,1.863-17.656,6.88-22.144,15.155a33.665,33.665,0,0,0-3.93,14.408c-.123,3.182.493,7.955,2.865,10.587.987,1.094,1.279.364,1.146-.684-.739-5.833.349-11.908,4-16.635,4.162-5.384,11.548-5.317,17.723-4.8,6.434.539,12.727,1.884,19.221,1.433,2.836-.2,6.828-.624,9.17-2.669a20.163,20.163,0,0,1,4.751,6.389,23.475,23.475,0,0,1,1.846,8.091c.144,1.558.66,1.783,1.036.18A26.088,26.088,0,0,0,275.927,89.355Z" transform="translate(-222.13 -82.182)" fill="#521e3f"/>
          </g>
          <path id="Trazado_166534" data-name="Trazado 166534" d="M274.435,88.383a3.933,3.933,0,0,0-2.708-1.6,47.784,47.784,0,0,0-6.942.2,7,7,0,0,0-1.763.473c-.577.252-.324.442.02.671,4.1,2.717,4.337,10.386,4.379,14.981,0,.656.527.836,1.321.814l8.12-.234c1.055-.03,1.166-.191,1.207-.926C278.349,97.618,277.391,92.337,274.435,88.383Z" transform="translate(-161.042 -81.497)" fill="#1b4c9b"/>
          <path id="Trazado_166535" data-name="Trazado 166535" d="M269.646,98.552a9.548,9.548,0,0,1,.337-6.565c.938-2.066,2.854-2.826,4.953-2.891q-.24-.364-.5-.713a3.933,3.933,0,0,0-2.708-1.6,47.784,47.784,0,0,0-6.942.2,7,7,0,0,0-1.763.473c-.577.252-.324.442.02.671,4.1,2.717,4.337,10.386,4.379,14.981,0,.656.527.836,1.321.814l4.418-.127A11.4,11.4,0,0,1,269.646,98.552Z" transform="translate(-161.042 -81.497)" fill="#103e82"/>
          <path id="Trazado_166536" data-name="Trazado 166536" d="M229.612,157.023c-.235-2.538-.846-11.454-1.421-13.31-.851-2.746-4.2-2.81-6.625-2.606a18.489,18.489,0,0,0-4.553.926c-2.636.944-4.086,1.629-3.984,3.907.342,7.731,1.428,13.677,2.639,17.239,1,2.951,2.2,3.49,3.984,3.688a38.418,38.418,0,0,0,6.846-.546,3.488,3.488,0,0,0,3.418-3.437A27.961,27.961,0,0,0,229.612,157.023Z" transform="translate(-140.248 -104.24)" fill="#93426e"/>
          <path id="Trazado_166537" data-name="Trazado 166537" d="M233.2,143.714c-.747-2.412-3.422-2.754-5.7-2.664,2.579,3.026,2.98,7.881,3.178,11.66.589,11.262-1.634,13.034-5.688,14.181a43.471,43.471,0,0,0,6.522-.569,3.488,3.488,0,0,0,3.418-3.437,27.963,27.963,0,0,0-.3-5.862C234.386,154.485,233.775,145.57,233.2,143.714Z" transform="translate(-145.257 -104.241)" fill="#7c315d"/>
          <path id="Trazado_166538" data-name="Trazado 166538" d="M218.483,148.174c-1.523-2.854-5.611-3.647-5.38.691a64.638,64.638,0,0,0,2.595,16.319c1.515,4.457,4.124,1.01,4.62-1.044C221.288,160.128,220.236,151.456,218.483,148.174Z" transform="translate(-140.276 -106.245)" fill="#d3d0ff"/>
          <path id="Trazado_166539" data-name="Trazado 166539" d="M218.712,148.176c-1.226-2.3-4.113-3.254-5.071-1.276,1.607-1.15,3.627.18,4.488,2.455a37.6,37.6,0,0,1,1.441,6.314,16.306,16.306,0,0,1-.206,8.438,5.1,5.1,0,0,1-1.15,1.9c-.871.907-1.754-.384-2.161-.973-.137-.2-.253-.41-.374-.619.082.266.163.524.247.769,1.515,4.457,4.124,1.01,4.62-1.044C221.517,160.13,220.465,151.459,218.712,148.176Z" transform="translate(-140.506 -106.248)" fill="#b1b1f2"/>
          <path id="Trazado_166540" data-name="Trazado 166540" d="M279.93,107.478a97.568,97.568,0,0,0-10.7-.717c-9.244-.169-27.794.724-35.109,3.373-1.88.68-5.531,2.641-6.566,6.47-1.225,4.532-.9,12.293-.009,17.479,1.21,7.034,5.661,8.526,9.148,9.145,10.439,1.856,34.73,1.829,49.3-.073a9.753,9.753,0,0,0,8.325-8.136,89.214,89.214,0,0,0,.252-16.8C294.141,109.976,288.9,108.633,279.93,107.478Z" transform="translate(-145.996 -89.879)" fill="#3c68cd"/>
          <path id="Trazado_166541" data-name="Trazado 166541" d="M296.606,116.668a7.666,7.666,0,0,0-4.676-4.954c-6.859-2.917-29.311-2.028-41.3-.736-4.969.536-8.279,1.6-10.135,3.649-2.627,2.9-2.1,17.139-.871,20.592,1.753,4.908,6.4,5.056,10.007,5.272,9.1.545,34.881.686,41.973-1.621,4.058-1.318,5.485-2.944,5.8-10.148C297.58,124.629,297.346,119.025,296.606,116.668Z" transform="translate(-150.963 -91.146)" fill="#1b4c9b"/>
          <path id="Trazado_166542" data-name="Trazado 166542" d="M284.634,89.725c-2.72-3.538-6.456-5.914-10.4-7.954a34.109,34.109,0,0,0-14.381-3.986c-9.47-.449-19.852,1.766-27.441,7.654-1.813,1.406-4.929,3.919-5.289,6.549a3.626,3.626,0,0,0,2.55,3.294,14.466,14.466,0,0,0,4.435-.953,23.022,23.022,0,0,0,2.46-1.731,41.256,41.256,0,0,1,14.546-7.38,25.006,25.006,0,0,1,17.391,1.7,54.366,54.366,0,0,1,6.326,3.548,24.264,24.264,0,0,0,4.569,2.541,7.339,7.339,0,0,0,2.549.218,4.419,4.419,0,0,0,2.456-.943A2.24,2.24,0,0,0,284.634,89.725Z" transform="translate(-146.148 -77.728)" fill="#00afcc"/>
          <path id="Trazado_166543" data-name="Trazado 166543" d="M271.587,90.581c-5.29-3.024-10.927-4.56-17.041-3.709A38.268,38.268,0,0,0,239.053,92.9c-2.136,1.407-4.7,3.424-7.422,2.989-1.119-.18-2.034-1.026-3.218-1.034a3.667,3.667,0,0,0-1.119.156,4.274,4.274,0,0,0-.167.7,3.626,3.626,0,0,0,2.55,3.294,14.465,14.465,0,0,0,4.435-.953,23.025,23.025,0,0,0,2.46-1.731,41.256,41.256,0,0,1,14.546-7.38,25.007,25.007,0,0,1,17.391,1.7,54.369,54.369,0,0,1,6.326,3.548,24.266,24.266,0,0,0,4.569,2.541,7.338,7.338,0,0,0,2.549.218,5.116,5.116,0,0,0,2.173-.713C279.758,97.451,275.322,92.716,271.587,90.581Z" transform="translate(-146.148 -81.46)" fill="#0295a5"/>
          <path id="Trazado_166544" data-name="Trazado 166544" d="M220.03,102.949c-2.373,2.332-6.1,8.07-8.15,14.591a37.454,37.454,0,0,0-1.253,15.956,9.568,9.568,0,0,0,1.018,3.458c.436.751,1.63.813,2.738.634s2.128-.6,2.228-1.9a25.744,25.744,0,0,0-.231-4.162c-.241-2.686-1.577-4.88-1.556-7.649.071-9.589,4.371-14.827,7.933-18.866C223.4,104.289,221.306,101.695,220.03,102.949Z" transform="translate(-139.103 -88.149)" fill="#ff61ac"/>
          <path id="Trazado_166545" data-name="Trazado 166545" d="M227.548,266.664a33.032,33.032,0,0,0-7.614-5.866,39.254,39.254,0,0,0-9.244-3.987c-4.291-1.161-10.244-2.6-15.3-.067-4.226,2.114-7.587,6.237-10.066,10.161-2.436,3.854-4.3,8.388-4.139,13.015a10.721,10.721,0,0,0,.883,3.923s0,0,0,.008.02.036.029.056a10.764,10.764,0,0,0,.993,1.757l.037.055c.069.1.137.2.21.3a15.885,15.885,0,0,0,4.234,4.145c2.6,1.7,12.148,1.751,16.864,1.847a5.57,5.57,0,0,0,4.479-2.531,6.17,6.17,0,0,0,3.148-.895,5.21,5.21,0,0,0,2.449-3.914c.151-.013.3-.028.45-.054,2.108-.376,3.123-2.382,3.677-4.287.307-1.055.48-2.817-.243-3.384-.241-.188-3.311.166-5.343-1.209a20.291,20.291,0,0,1-3.323-3.152,14.58,14.58,0,0,1-2.835-3.917c-.659-1.633-.128-2.313,1.329-1.875a35.33,35.33,0,0,1,10.077,4.825c2.523,1.76,5.156,3.669,8.346,3.734,1.81.039,3.725-1.038,3.859-3C230.657,270.012,229.038,268.26,227.548,266.664Z" transform="translate(-126.908 -152.109)" fill="#ffa26e"/>
          <path id="Trazado_166546" data-name="Trazado 166546" d="M311.083,294.5c-.172-1.623-1.333-3.1-2.237-4.389a33.694,33.694,0,0,0-3.364-4.529c-2.507-2.542-6.4-2.539-9.728-2.655a54.756,54.756,0,0,0-10.143.336c-2.654.4-4.586,1.459-4.7,4.349-.083,2.031,1.787,3.04,3.482,3.5,4.041,1.087,8.67.182,12.632,1.3,1.739.493,1.853,1.124,1.464,2.546a8.424,8.424,0,0,1-.354,1.03c-.639,1.523-2.086,2.027-3.158,2.485-1.269.543-2.76,1.144-3.765,1.469a5.465,5.465,0,0,1-4.415-.093,24.187,24.187,0,0,0-3.007-1.825,10.709,10.709,0,0,0-7.436-.027c-.976.361-1.845,1.022-1.738,2.031-.778.613-.9,1.561-.538,2.853.819,2.9,2.039,6.4,3.957,8.757.067.081.137.155.207.23a6.286,6.286,0,0,0,2.546,3.413c1.62,1.246,3.434,2.292,5.151,3.4s3.7,2.5,5.769,2.86a14.993,14.993,0,0,0,8.1-.724c1.229-.561,2.3-2.444,2.761-3.627a9.039,9.039,0,0,0,.306-.937,11.858,11.858,0,0,0,2.678-2,5.789,5.789,0,0,0,1.4-4.583,15.494,15.494,0,0,0,3.184-3.911c1.1-2.041.742-4.75-.283-6.886A6.962,6.962,0,0,0,311.083,294.5Z" transform="translate(-165.732 -163.627)" fill="#ffa26e"/>
          <path id="Trazado_166547" data-name="Trazado 166547" d="M284.091,182.689a28.723,28.723,0,0,1-14.265.508c-3.437-.634-5.19,1.669-4.443,4.587a9.458,9.458,0,0,0,4.259,5.8c6.876,4.321,14.1,1.144,16.5-1.766a10.817,10.817,0,0,0,2.391-5.076C289.034,183.565,286.671,181.864,284.091,182.689Z" transform="translate(-162.103 -121.597)" fill="#7c2d0e"/>
          <path id="Trazado_166548" data-name="Trazado 166548" d="M274.307,197.75a12.034,12.034,0,0,0,5.766,1.473,12.573,12.573,0,0,0,7.044-2.2c1.439-1.02,1.087-2-.606-2.569a16.371,16.371,0,0,0-11.846.6C272.266,196.165,272.717,196.9,274.307,197.75Z" transform="translate(-165.36 -126.264)" fill="#ff61ac"/>
          <path id="Trazado_166549" data-name="Trazado 166549" d="M285.064,174.658a1.819,1.819,0,0,0,.555-.516c.416-.642-1.111-.685-1.395-.2A.572.572,0,0,0,285.064,174.658Z" transform="translate(-170.041 -117.884)" fill="#7c2d0e"/>
          <path id="Trazado_166550" data-name="Trazado 166550" d="M289.243,174.418a1.483,1.483,0,0,1-.46-.4c-.343-.495.92-.527,1.154-.151A.46.46,0,0,1,289.243,174.418Z" transform="translate(-171.949 -117.884)" fill="#7c2d0e"/>
          <path id="Trazado_166551" data-name="Trazado 166551" d="M259.412,280.042a4.605,4.605,0,0,0-2.25-1.4,2.172,2.172,0,0,0-2.658,2.926c.406,1.395,1.7,2.826,3.258,2.705a2.936,2.936,0,0,0,2.016-1.352A2.245,2.245,0,0,0,259.412,280.042Z" transform="translate(-157.56 -161.843)" fill="#fff"/>
          <path id="Trazado_166552" data-name="Trazado 166552" d="M288.369,287.514a2.643,2.643,0,0,0,.382,3.559c1.239.929,3.88.341,4.79-.743a2.189,2.189,0,0,0,.426-2.145c-.289-.834-.251-1.093-1.89-1.452C290.873,286.471,289.127,286.423,288.369,287.514Z" transform="translate(-171.587 -165.19)" fill="#fff"/>
          <path id="Trazado_166553" data-name="Trazado 166553" d="M294.625,318.449c-2.565.017-5.133-.017-7.7.038a5.267,5.267,0,0,1-2.27-.151c-.879-.414-7.332-5.215-7.852-5.693-1.575-1.45-2.245-2.572.528-4.266a10.233,10.233,0,0,0-.979.309c-.976.361-1.845,1.022-1.738,2.031-.778.613-.9,1.561-.538,2.853.819,2.9,2.039,6.4,3.957,8.757.067.081.137.155.207.23a6.287,6.287,0,0,0,2.546,3.414c1.62,1.246,3.434,2.292,5.151,3.4a20.357,20.357,0,0,0,5.017,2.683A65.456,65.456,0,0,1,282,325.583c-1.576-1.808,1.274-1.8,3.754-1.479,2.165.284,4.343.426,6.514.636.324.03,1.027-.039.042-.285-3.158-.788-6.377-1.135-9.586-1.637a8.054,8.054,0,0,1-3.795-1.739,16.781,16.781,0,0,1-3.215-5.1c-.891-2.2-.4-2.059,1.211-1.094,1.552.931,6.174,3.6,6.716,3.882a5.459,5.459,0,0,0,2.661.635,69.353,69.353,0,0,0,8.356-.64C295.6,318.647,295.584,318.444,294.625,318.449Z" transform="translate(-165.732 -174.32)" fill="#f4905d"/>
          <path id="Trazado_166554" data-name="Trazado 166554" d="M218.388,286.75c-.241-.188-3.311.166-5.343-1.209a20.284,20.284,0,0,1-3.323-3.153,15.766,15.766,0,0,1-2.7-3.627,9.942,9.942,0,0,0,1.113,2.426,22.953,22.953,0,0,0,3.47,4.606c1.431,1.45,3.194,1.871,4.884,2.845,1.617.933-.391,3.232-1.162,3.991-1.253,1.234-5.994.272-9.153-1.315a99.931,99.931,0,0,1-8.839-5.343.114.114,0,0,0-.138.178,41.622,41.622,0,0,0,11.036,7.225,23.414,23.414,0,0,0,3.13,1.187,5.729,5.729,0,0,1,.495.338c1.329,1.036-.12,2.542-1.047,3.056-1.74.962-4.855.218-7.134-.505a48.552,48.552,0,0,1-7.113-3.026.147.147,0,0,0-.149.255,28.329,28.329,0,0,0,7.839,4.074c1.565.516,2.551,1.695.5,2.291a8.362,8.362,0,0,1-1.248.31,26.567,26.567,0,0,1-15.959-4.387c-4.119-2.8-5.516-7.2-5.9-11.782a17.7,17.7,0,0,0-.457,4.544,10.721,10.721,0,0,0,.883,3.923s0,0,0,.008.02.036.029.056a10.766,10.766,0,0,0,.993,1.757l.037.055c.069.1.137.2.21.3a15.883,15.883,0,0,0,4.234,4.145c1.869,1.22,7.348,1.593,12.028,1.739h0l.109,0c.4.012.793.022,1.176.033.049,0,.1,0,.145,0,.389.01.769.017,1.137.024l.1,0c.393.007.771.013,1.131.022l1.034.019a4.228,4.228,0,0,0,.707-.051c.031,0,.061-.005.092-.011a4.767,4.767,0,0,0,.6-.145c.059-.018.119-.035.176-.056.162-.058.32-.123.473-.193.09-.042.178-.086.266-.131.068-.038.134-.077.2-.115a5.794,5.794,0,0,0,1.967-1.829,6.169,6.169,0,0,0,3.148-.894,5.21,5.21,0,0,0,2.449-3.915c.151-.013.3-.028.45-.054,2.108-.376,3.123-2.382,3.677-4.287C218.938,289.08,219.111,287.318,218.388,286.75Z" transform="translate(-126.908 -161.918)" fill="#f4905d"/>
          <g id="Grupo_59809" data-name="Grupo 59809" transform="translate(145.238 98.361)">
            <path id="Trazado_166555" data-name="Trazado 166555" d="M346.8,247a45.016,45.016,0,0,1-9.08,22,.1.1,0,0,0,.144.142c3.112-2.533,5.007-6.03,6.542-9.674A29.292,29.292,0,0,0,346.883,247a.041.041,0,0,0-.082,0Z" transform="translate(-337.696 -246.961)" fill="#b1b1f2"/>
          </g>
          <g id="Grupo_59810" data-name="Grupo 59810" transform="translate(57.204 92.171)">
            <path id="Trazado_166556" data-name="Trazado 166556" d="M186.907,236.347c-1.183,4.635-.616,9.728.2,14.381.015.09.141.06.148-.02.356-4.748-.238-9.581-.245-14.347a.052.052,0,0,0-.1-.013Z" transform="translate(-186.23 -236.31)" fill="#b1b1f2"/>
          </g>
          <g id="Grupo_59811" data-name="Grupo 59811" transform="translate(84.373 148.46)">
            <path id="Trazado_166557" data-name="Trazado 166557" d="M232.988,333.234c6.138,5.854,15.89,12.286,24.582,8.222.1-.049.03-.216-.078-.184-9.193,2.691-17.285-3.107-24.451-8.109-.042-.029-.088.036-.053.07Z" transform="translate(-232.976 -333.157)" fill="#b1b1f2"/>
          </g>
          <g id="Grupo_59812" data-name="Grupo 59812" transform="translate(107.985 157.239)">
            <path id="Trazado_166558" data-name="Trazado 166558" d="M273.637,349.508a4.069,4.069,0,0,0,4.275-1.083.1.1,0,0,0-.117-.15,9.933,9.933,0,0,1-4.146,1.138.049.049,0,0,0-.012.1Z" transform="translate(-273.601 -348.262)" fill="#b1b1f2"/>
          </g>
          <path id="Trazado_166559" data-name="Trazado 166559" d="M292.61,111.714c-6.859-2.917-29.311-2.028-41.3-.736-4.969.536-8.279,1.6-10.135,3.649a5.145,5.145,0,0,0-.942,1.888,19.81,19.81,0,0,1,5.351-2.308,63.981,63.981,0,0,1,12.672-1.659,236.953,236.953,0,0,1,25.281-.224c4.308.2,10.1.377,11.658,5.248a28.22,28.22,0,0,1,.822,9.073,34.549,34.549,0,0,1-1.478,9.986,9.737,9.737,0,0,1-.718,1.656c2.891-1.3,3.991-3.362,4.262-9.565.176-4.094-.058-9.7-.8-12.054A7.666,7.666,0,0,0,292.61,111.714Z" transform="translate(-151.643 -91.146)" fill="#103e82"/>
          <path id="Trazado_166560" data-name="Trazado 166560" d="M236.692,148.069c10.439,1.856,34.73,1.828,49.3-.073a10.054,10.054,0,0,0,6.667-4.011c-2.313,1.932-5.758,2.46-7.026,2.707a77.843,77.843,0,0,1-9.171.886,232.275,232.275,0,0,1-29.908.339c-4.317-.24-9.238-.514-13.113-2.621-3.546-1.927-4.611-5.932-5.187-9.639a50.546,50.546,0,0,1-.345-11.079,18.916,18.916,0,0,1,1.326-6.28,8.156,8.156,0,0,0-1.679,3.146c-1.225,4.532-.9,12.293-.009,17.479C228.755,145.958,233.206,147.451,236.692,148.069Z" transform="translate(-145.996 -94.719)" fill="#1b4c9b"/>
          <path id="Trazado_166561" data-name="Trazado 166561" d="M222.9,103.149c.223,2.947-2.456,5.837-4.028,8.107a23.642,23.642,0,0,0-3.783,9.288,21.261,21.261,0,0,0,.5,9.009,12.789,12.789,0,0,1,.474,4.835,3.617,3.617,0,0,1-2.944,3.111,3.321,3.321,0,0,0,2.446.314c1.108-.18,2.128-.6,2.228-1.9a25.736,25.736,0,0,0-.231-4.162c-.241-2.686-1.577-4.88-1.556-7.649.071-9.589,4.371-14.827,7.933-18.866C224.328,104.8,223.722,103.694,222.9,103.149Z" transform="translate(-140.289 -88.374)" fill="#e5489a"/>
        </g>
        <g id="Grupo_59815" data-name="Grupo 59815" transform="translate(32.263 26.091)">
          <path id="Trazado_166562" data-name="Trazado 166562" d="M303.677,139.9c1.137,1.484.4,1.4-.87,1.454-12.05.532-24.132.5-36.192.6-.132,0-3.47.356-.2-.947a258.933,258.933,0,0,1,27.332-9.436c1.932-.527,1.774-.431,2.893.553a37.505,37.505,0,0,1,3.087,3.168C301.074,136.8,302.447,138.3,303.677,139.9ZM173.724,150.073c-9.485-2.083-19.065-3.749-28.6-5.615-2.822-.552-1.614.9-1.166,1.977.978,2.355,1.979,4.708,3.118,6.986.847,1.693.979,1.544,2.86,1.328,7.994-.916,15.974-2.137,23.9-3.527C176.9,150.683,174.991,150.353,173.724,150.073Zm106.762-25.943c-1.709-.588-3.516-.974-5.272-1.411a2.253,2.253,0,0,0-2.518.772c-2.631,3.4-5.082,6.968-7.516,10.512-1.491,2.166-.635,1.526.667.74,4.945-2.987,10.12-5.626,14.916-8.844C282.212,124.923,281.948,124.633,280.486,124.131ZM167.38,130.785c-1.3.513-2.594,1.032-3.9,1.531-1.99.762-1.591,1.006-.209,1.749,3.565,1.919,7.23,3.672,10.866,5.455,1.7.833,1.729.667.763-.834-1.58-2.454-3.284-4.832-5.053-7.154C168.972,130.379,168.617,130.3,167.38,130.785Zm105.78,24.3c-2.317-1.9-4.7-3.736-7.16-5.443-.883-.611-1.285-.48-.818.563,1.668,3.733,3.3,7.5,5.1,11.167.948,1.931,1.105,1.759,1.883-.067.508-1.192,1.034-2.38,1.554-3.566C274.6,155.721,274.32,156.035,273.16,155.085Zm-96.549.18c-3.272,2.5-6.429,5.143-9.525,7.856-1.338,1.172-1.076,1.5.319,1.4,1.025-.074,2.063-.141,3.069-.307,1.434-.238,1.968-.547,3.173-2.289,1.392-2.01,2.758-4.034,3.99-6.145C179.08,153.308,177.271,154.761,176.611,155.265Z" transform="translate(-143.319 -122.619)" fill="#ffd079"/>
          <g id="Grupo_59814" data-name="Grupo 59814" transform="translate(1.264 0.537)">
            <path id="Trazado_166563" data-name="Trazado 166563" d="M360.82,179.267c-.133.041-.264.084-.4.113-1.637.35-2.673-1.816-3.417-2.917-1.186-1.748-2.3-3.544-3.409-5.341-.2-.321-.388-.652-.579-.983,1.663,3.722,3.291,7.474,5.085,11.132.948,1.931,1.105,1.759,1.883-.067Q360.394,180.233,360.82,179.267Z" transform="translate(-232.398 -143.056)" fill="#eab763"/>
            <path id="Trazado_166564" data-name="Trazado 166564" d="M387.537,143.606c-.345-.385-.7-.771-1.053-1.155.32.77.635,1.541.995,2.3.527,1.11,1.5,3.265-.3,3.605a52.247,52.247,0,0,1-6.3.565c-7.4.477-14.809.763-22.215,1.082-1.892.082-3.787.154-5.678.271a6.93,6.93,0,0,0,1.432,0c12.06-.108,24.141-.071,36.192-.6,1.275-.056,2.008.03.87-1.454C390.253,146.608,388.88,145.1,387.537,143.606Z" transform="translate(-232.388 -131.461)" fill="#eab763"/>
            <path id="Trazado_166565" data-name="Trazado 166565" d="M365.847,127.573q-1.992,1.526-4,3.029c-1.484,1.112-2.956,2.265-4.44,3.4,4.356-2.541,8.828-4.907,13.011-7.715,1.45-.975,1.186-1.266-.276-1.768-1.133-.39-2.311-.689-3.488-.975a2.573,2.573,0,0,1,.947,1.695C367.685,126.287,366.584,127.009,365.847,127.573Z" transform="translate(-234.239 -123.542)" fill="#eab763"/>
            <path id="Trazado_166566" data-name="Trazado 166566" d="M194.734,178.15c-.063.048-.125.1-.188.147-.731,2.046-3.8,5.559-4.267,6.059a17.757,17.757,0,0,1-3.685,2.97c.673-.053,1.346-.117,2-.227,1.434-.238,1.968-.547,3.173-2.289,1.392-2.01,2.758-4.034,3.99-6.145C197.2,176.194,195.393,177.646,194.734,178.15Z" transform="translate(-162.705 -146.041)" fill="#eab763"/>
            <path id="Trazado_166567" data-name="Trazado 166567" d="M184.936,144.154a58.082,58.082,0,0,1-4.978-3.366,3.342,3.342,0,0,1-1.444-2.088,1.587,1.587,0,0,1,0-.392c-.5.194-.99.389-1.487.579-1.99.762-1.591,1.005-.209,1.749,3.565,1.919,7.23,3.672,10.866,5.455a4.989,4.989,0,0,0,1.222.494C187.573,145.787,186.248,144.982,184.936,144.154Z" transform="translate(-158.124 -129.726)" fill="#eab763"/>
            <path id="Trazado_166568" data-name="Trazado 166568" d="M175.868,169.2c-5.43.606-10.881.885-16.35,1.223-1.682.1-3.365.156-5.048.094a13.668,13.668,0,0,1-5.247-.936,11.658,11.658,0,0,1-3.73-3.442c.784,1.858,1.6,3.705,2.5,5.506.847,1.692.979,1.544,2.86,1.328,7.994-.916,15.974-2.137,23.9-3.527A10.482,10.482,0,0,0,175.868,169.2Z" transform="translate(-145.493 -141.382)" fill="#eab763"/>
          </g>
        </g>
      </g>
      <g id="Grupo_59830" data-name="Grupo 59830" transform="translate(25 103.247)">
        <g id="Grupo_59819" data-name="Grupo 59819" transform="translate(1.189)">
          <g id="Grupo_59817" data-name="Grupo 59817" transform="translate(0 15.083)">
            <path id="Trazado_166569" data-name="Trazado 166569" d="M27.187,191.209c-.628,1.229.994,5.079,1.965,4.9,2.316-.432,12.1-4.186,13.96-5.66.96-.761-1.28-4.521-2.181-4.793C38.55,184.937,28.106,189.411,27.187,191.209Z" transform="translate(-27.046 -185.577)" fill="#d3d0ff"/>
            <path id="Trazado_166570" data-name="Trazado 166570" d="M27.536,195.142c.425,1.355,1.239,2.7,1.82,2.586,2.316-.432,12.1-4.186,13.96-5.66.48-.381.16-1.51-.391-2.578a12.167,12.167,0,0,0-3.095.16C35.925,190.286,30.024,191.561,27.536,195.142Z" transform="translate(-27.251 -187.198)" fill="#b1b1f2"/>
          </g>
          <g id="Grupo_59818" data-name="Grupo 59818" transform="translate(34.196)">
            <path id="Trazado_166571" data-name="Trazado 166571" d="M99.4,159.672c1.327.378,3.034,4.192,2.239,4.778-1.9,1.4-11.317,5.987-13.664,6.34-1.212.183-2.431-4.021-2.015-4.864C87.064,163.7,97.462,159.117,99.4,159.672Z" transform="translate(-85.881 -159.625)" fill="#d3d0ff"/>
            <path id="Trazado_166572" data-name="Trazado 166572" d="M101.341,162.545c.7,1.236,1.125,2.744.649,3.1-1.9,1.4-11.317,5.987-13.664,6.34-.605.091-1.213-.913-1.617-2.045a12.143,12.143,0,0,1,2.229-2.153C92.066,165.364,97.026,161.921,101.341,162.545Z" transform="translate(-86.227 -160.817)" fill="#b1b1f2"/>
          </g>
        </g>
        <path id="Trazado_166573" data-name="Trazado 166573" d="M81.918,167.25c-3.025-2.538-5.555-3.853-10.022-2.746-2.128.528-6.415,3.06-10.352,6.343a6.724,6.724,0,0,0-2.513,3.945,32.183,32.183,0,0,1-12.863,5.592,6.726,6.726,0,0,0-4.6-.858c-5.085.637-9.862,2.042-11.7,3.237-3.858,2.509-4.624,5.256-4.833,9.2-.366,6.874,2.552,15.231,7.223,25.424a29.758,29.758,0,0,0,3.881,6.581c6.355,7.723,14.151,5.211,15.662-5.454.471-3.318.757-7.349.921-11.168,2.747-5.21,15.46-11.138,21.53-9.379,2.909,2.492,6.059,5.042,8.811,6.966,8.826,6.174,15.982,2.189,14.675-7.726a29.763,29.763,0,0,0-2.162-7.328C91.311,179.509,87.193,171.674,81.918,167.25Z" transform="translate(-25 -161.503)" fill="#00adca"/>
        <path id="Trazado_166574" data-name="Trazado 166574" d="M83.834,172.619c.2.257.409.513.609.766,2.886,3.648,4.688,8,6.328,12.307,2.059,5.411,4.121,11.377,4.123,17.227,0,2.248-.491,5.007-3.137,5.329-4.574.559-9.21-3.665-12.491-6.3-2.71-2.176-5.258-4.627-8.954-4.038a36.817,36.817,0,0,0-11.15,4.154c-2.331,1.239-5.559,2.949-7.319,4.948-1.835,2.084-1.791,4.438-2.181,7.139-.542,3.752-.418,16.447-6.953,14.709-2.371-.632-4.267-2.855-5.751-4.669a45.392,45.392,0,0,1-5.193-8.395c-3.209-6.366-5.086-13.3-6.734-20.222-.349,6.865,2.564,15.205,7.224,25.374a29.759,29.759,0,0,0,3.881,6.581c6.355,7.723,14.151,5.211,15.662-5.454.471-3.318.757-7.349.921-11.168,2.747-5.21,15.46-11.138,21.53-9.379,2.909,2.492,6.059,5.042,8.811,6.966,8.826,6.174,15.982,2.189,14.675-7.726a29.763,29.763,0,0,0-2.162-7.328C91.841,184.362,88.219,177.225,83.834,172.619Z" transform="translate(-25.001 -165.067)" fill="#0091a0"/>
        <g id="Grupo_59820" data-name="Grupo 59820" transform="translate(3.621 22.43)">
          <path id="Trazado_166575" data-name="Trazado 166575" d="M53.1,207.816c-.441-1.933-.958-4.071-2.436-5.542a10.92,10.92,0,0,0-12.847-3.156c-5.346,2.323-8.178,8.966-5.662,14.361a14.359,14.359,0,0,0,1.569,2.624c1.553,1.927,2.489,2.2,4.609,3.363A10.885,10.885,0,0,0,53.1,207.816Z" transform="translate(-31.231 -198.217)" fill="#0091a0"/>
        </g>
        <g id="Grupo_59821" data-name="Grupo 59821" transform="translate(38.19 7.451)">
          <path id="Trazado_166576" data-name="Trazado 166576" d="M93.2,190.423c-1.112-1.641-2.324-3.479-2.39-5.562a10.923,10.923,0,0,1,6.461-11.544c5.347-2.323,12.136.142,14.362,5.662a14.348,14.348,0,0,1,.846,2.937c.349,2.45-.088,3.322-.686,5.664A10.884,10.884,0,0,1,93.2,190.423Z" transform="translate(-90.707 -172.445)" fill="#0091a0"/>
        </g>
        <path id="Trazado_166577" data-name="Trazado 166577" d="M104.5,182.723a3.121,3.121,0,1,0-4.107-1.619,3.15,3.15,0,0,0,4.107,1.619Z" transform="translate(-56.468 -166.795)" fill="#00adca"/>
        <path id="Trazado_166578" data-name="Trazado 166578" d="M112.547,201.245a3.121,3.121,0,1,0-4.107-1.619,3.149,3.149,0,0,0,4.107,1.619Z" transform="translate(-59.837 -174.552)" fill="#ffd079"/>
        <path id="Trazado_166579" data-name="Trazado 166579" d="M100.88,191.9a3.121,3.121,0,1,0-1.618,4.107,3.149,3.149,0,0,0,1.618-4.107Z" transform="translate(-54.274 -172.358)" fill="#ff61ac"/>
        <path id="Trazado_166580" data-name="Trazado 166580" d="M119.4,183.854a3.121,3.121,0,1,0-1.62,4.109,3.15,3.15,0,0,0,1.62-4.109Z" transform="translate(-62.031 -168.989)" fill="#ffa26e"/>
        <g id="Grupo_59824" data-name="Grupo 59824" transform="translate(6.812 25.615)">
          <g id="Grupo_59822" data-name="Grupo 59822" transform="translate(2.426)">
            <path id="Trazado_166581" data-name="Trazado 166581" d="M40.942,206.416l.6,1.389c.425.978,2.54,2.584,3.989,1.981,1.431-.648,1.7-3.29,1.275-4.268l-.6-1.39C45.6,202.739,40.339,205.027,40.942,206.416Z" transform="translate(-40.894 -203.696)" fill="#ffd079"/>
            <path id="Trazado_166582" data-name="Trazado 166582" d="M55.009,223.4l-.6-1.389c-.425-.978-2.541-2.585-3.99-1.981-1.431.647-1.7,3.29-1.275,4.268l.6,1.389C50.347,227.078,55.612,224.791,55.009,223.4Z" transform="translate(-44.271 -210.482)" fill="#ffd079"/>
          </g>
          <g id="Grupo_59823" data-name="Grupo 59823" transform="translate(0 2.427)">
            <path id="Trazado_166583" data-name="Trazado 166583" d="M39.439,221.985l1.389-.6c.978-.426,2.585-2.539,1.981-3.99-.648-1.43-3.289-1.7-4.268-1.275l-1.389.6C35.762,217.324,38.049,222.588,39.439,221.985Z" transform="translate(-36.72 -211.248)" fill="#ffd079"/>
            <path id="Trazado_166584" data-name="Trazado 166584" d="M56.425,207.919l-1.39.6c-.978.425-2.584,2.54-1.981,3.989.649,1.432,3.29,1.7,4.268,1.276l1.389-.6C60.1,212.58,57.814,207.316,56.425,207.919Z" transform="translate(-43.505 -207.871)" fill="#ffd079"/>
          </g>
        </g>
        <path id="Trazado_166585" data-name="Trazado 166585" d="M76.47,231.546a6.164,6.164,0,1,0-8.11-3.2,6.221,6.221,0,0,0,8.11,3.2Z" transform="translate(-42.949 -184.8)" fill="#00adca"/>
        <path id="Trazado_166586" data-name="Trazado 166586" d="M97.884,222.244a6.165,6.165,0,1,0-8.11-3.2,6.222,6.222,0,0,0,8.11,3.2Z" transform="translate(-51.917 -180.904)" fill="#00adca"/>
        <g id="Grupo_59825" data-name="Grupo 59825" transform="translate(26.858 36.886)">
          <path id="Trazado_166587" data-name="Trazado 166587" d="M77.1,231.16a4.214,4.214,0,1,0-5.544-2.186A4.253,4.253,0,0,0,77.1,231.16Z" transform="translate(-71.21 -223.088)" fill="#d3d0ff"/>
          <path id="Trazado_166588" data-name="Trazado 166588" d="M74.914,230.967c-2.6-.261-3.631-3.566-2.551-5.713a4.211,4.211,0,1,0,6.919,1.215,4.11,4.11,0,0,0-.942-1.345A3.716,3.716,0,0,1,74.914,230.967Z" transform="translate(-71.21 -223.94)" fill="#b1b1f2"/>
        </g>
        <g id="Grupo_59826" data-name="Grupo 59826" transform="translate(39.303 31.479)">
          <path id="Trazado_166589" data-name="Trazado 166589" d="M98.509,221.858a4.214,4.214,0,1,0-5.545-2.186,4.255,4.255,0,0,0,5.545,2.186Z" transform="translate(-92.623 -213.786)" fill="#d3d0ff"/>
          <path id="Trazado_166590" data-name="Trazado 166590" d="M96.328,221.665c-2.6-.26-3.631-3.566-2.55-5.713a4.211,4.211,0,1,0,6.918,1.214,4.141,4.141,0,0,0-.941-1.344A3.716,3.716,0,0,1,96.328,221.665Z" transform="translate(-92.623 -214.638)" fill="#b1b1f2"/>
        </g>
        <g id="Grupo_59829" data-name="Grupo 59829" transform="translate(30.464 28.451)">
          <g id="Grupo_59827" data-name="Grupo 59827" transform="translate(0 1.703)">
            <path id="Trazado_166591" data-name="Trazado 166591" d="M78.679,213.716l1.029-.447a.917.917,0,0,0-.731-1.681l-1.029.446a.917.917,0,0,0,.731,1.682Z" transform="translate(-77.414 -211.506)" fill="#d3d0ff"/>
          </g>
          <g id="Grupo_59828" data-name="Grupo 59828" transform="translate(3.921)">
            <path id="Trazado_166592" data-name="Trazado 166592" d="M85.424,210.786l1.028-.446a.917.917,0,0,0-.731-1.681l-1.028.446a.917.917,0,0,0,.73,1.682Z" transform="translate(-84.16 -208.575)" fill="#d3d0ff"/>
          </g>
        </g>
        <path id="Trazado_166593" data-name="Trazado 166593" d="M77.877,192.937c.421-1.178-2.016-6.993-3.6-10.431a32.221,32.221,0,0,1-12.842,5.581c1.434,3.5,4.02,9.251,5.169,9.746C68.088,198.475,77.333,194.458,77.877,192.937Z" transform="translate(-40.259 -169.207)" fill="#d3d0ff"/>
        <path id="Trazado_166594" data-name="Trazado 166594" d="M77.792,192.983c.333-.931-1.8-6.277-3.543-10.053a33.215,33.215,0,0,1-12.134,5.275c1.572,3.848,4.023,9.054,4.93,9.447.463.2,2.609-.306,5.674-1.637S77.622,193.458,77.792,192.983Z" transform="translate(-40.543 -169.385)" fill="#ffa26e"/>
      </g>
      <g id="Grupo_59839" data-name="Grupo 59839" transform="translate(184.91 25.001)">
        <g id="Grupo_59832" data-name="Grupo 59832" transform="translate(24.906)">
          <g id="Grupo_59831" data-name="Grupo 59831">
            <path id="Trazado_166595" data-name="Trazado 166595" d="M362.9,35.836c.491-1.225,1.18-2.757.942-4.12a3.211,3.211,0,0,0-1.738-2.224,101.585,101.585,0,0,0-10.848-4.35,3.208,3.208,0,0,0-2.792.406c-1.114.821-1.675,2.4-2.165,3.629-.387.968-1.935,4.829-2.324,5.795-.492,1.225-1.18,2.757-.943,4.119a3.213,3.213,0,0,0,1.738,2.225,101.862,101.862,0,0,0,10.847,4.351,3.216,3.216,0,0,0,2.793-.407c1.114-.821,1.675-2.4,2.166-3.629C360.959,40.664,362.508,36.8,362.9,35.836Z" transform="translate(-342.98 -25.001)" fill="#93426e"/>
            <path id="Trazado_166596" data-name="Trazado 166596" d="M360.573,41.631c.131-.329.4-1,.708-1.77-1.977,4.642-3.633,5.017-6.346,3.944q-1.244-.493-2.489-.985c-1.745-.692-3.491-1.385-5.214-2.128a4.109,4.109,0,0,1-2.271-1.726,3.154,3.154,0,0,1,.121-2.292c.484-1.526,1.094-3.016,1.69-4.5.569-1.416,1.162-2.824,1.8-4.211a5.832,5.832,0,0,1,1.311-1.973,2.971,2.971,0,0,1,2.026-.651c-.266-.088-.488-.155-.651-.2a3.208,3.208,0,0,0-2.792.406c-1.114.821-1.675,2.4-2.165,3.629-.387.968-1.935,4.829-2.324,5.795-.492,1.225-1.18,2.757-.943,4.119a3.213,3.213,0,0,0,1.738,2.225,101.862,101.862,0,0,0,10.847,4.351,3.216,3.216,0,0,0,2.793-.407C359.52,44.44,360.081,42.857,360.573,41.631Z" transform="translate(-342.98 -25.001)" fill="#7c315d"/>
          </g>
        </g>
        <g id="Grupo_59834" data-name="Grupo 59834" transform="translate(0 10.184)">
          <g id="Grupo_59833" data-name="Grupo 59833">
            <path id="Trazado_166597" data-name="Trazado 166597" d="M320.045,53.358c.491-1.225,1.18-2.757.942-4.119a3.212,3.212,0,0,0-1.737-2.225A101.614,101.614,0,0,0,308.4,42.663a3.215,3.215,0,0,0-2.794.408c-1.114.82-1.674,2.4-2.165,3.629-.387.967-1.937,4.828-2.324,5.794-.491,1.225-1.181,2.757-.942,4.12a3.211,3.211,0,0,0,1.738,2.223,101.614,101.614,0,0,0,10.847,4.351,3.212,3.212,0,0,0,2.792-.406c1.114-.821,1.675-2.4,2.167-3.63C318.107,58.186,319.656,54.324,320.045,53.358Z" transform="translate(-300.128 -42.522)" fill="#93426e"/>
            <path id="Trazado_166598" data-name="Trazado 166598" d="M317.721,59.152c.131-.33.4-1,.71-1.772-1.978,4.642-3.633,5.016-6.347,3.944q-1.245-.492-2.489-.984c-1.745-.693-3.491-1.385-5.214-2.128a4.1,4.1,0,0,1-2.271-1.728,3.136,3.136,0,0,1,.12-2.291c.486-1.526,1.094-3.016,1.69-4.5.568-1.415,1.163-2.823,1.8-4.211a5.8,5.8,0,0,1,1.312-1.973,2.968,2.968,0,0,1,2.024-.651c-.267-.087-.488-.155-.649-.2a3.215,3.215,0,0,0-2.794.408c-1.114.82-1.674,2.4-2.165,3.629-.387.967-1.937,4.828-2.324,5.794-.491,1.225-1.181,2.757-.942,4.12a3.211,3.211,0,0,0,1.738,2.223,101.614,101.614,0,0,0,10.847,4.351,3.212,3.212,0,0,0,2.792-.406C316.668,61.961,317.229,60.378,317.721,59.152Z" transform="translate(-300.128 -42.522)" fill="#7c315d"/>
          </g>
        </g>
        <g id="Grupo_59836" data-name="Grupo 59836" transform="translate(17.936 17.378)">
          <g id="Grupo_59835" data-name="Grupo 59835">
            <path id="Trazado_166599" data-name="Trazado 166599" d="M350.9,65.735c.492-1.225,1.181-2.757.942-4.119a3.214,3.214,0,0,0-1.737-2.225,101.716,101.716,0,0,0-10.848-4.35,3.215,3.215,0,0,0-2.794.408c-1.113.82-1.674,2.4-2.164,3.629-.387.967-1.935,4.828-2.324,5.794-.493,1.225-1.18,2.757-.943,4.12a3.218,3.218,0,0,0,1.738,2.224,101.882,101.882,0,0,0,10.847,4.35,3.212,3.212,0,0,0,2.793-.406c1.115-.821,1.675-2.4,2.166-3.63C348.967,70.563,350.516,66.7,350.9,65.735Z" transform="translate(-330.988 -54.899)" fill="#93426e"/>
            <path id="Trazado_166600" data-name="Trazado 166600" d="M348.58,71.529l.71-1.771c-1.977,4.642-3.633,5.017-6.346,3.944q-1.245-.492-2.491-.984c-1.744-.692-3.49-1.385-5.214-2.128a4.1,4.1,0,0,1-2.271-1.727,3.142,3.142,0,0,1,.12-2.291c.485-1.527,1.094-3.017,1.69-4.5.569-1.416,1.162-2.824,1.8-4.212a5.839,5.839,0,0,1,1.311-1.973,2.979,2.979,0,0,1,2.025-.651c-.267-.086-.488-.155-.65-.2a3.215,3.215,0,0,0-2.794.408c-1.113.82-1.674,2.4-2.164,3.629-.387.967-1.935,4.828-2.324,5.794-.493,1.225-1.18,2.757-.943,4.12a3.218,3.218,0,0,0,1.738,2.224,101.882,101.882,0,0,0,10.847,4.35,3.212,3.212,0,0,0,2.793-.406C347.529,74.338,348.09,72.755,348.58,71.529Z" transform="translate(-330.988 -54.899)" fill="#7c315d"/>
          </g>
        </g>
        <g id="Grupo_59838" data-name="Grupo 59838" transform="translate(35.889 24.578)">
          <g id="Grupo_59837" data-name="Grupo 59837">
            <path id="Trazado_166601" data-name="Trazado 166601" d="M381.792,78.124c.492-1.224,1.181-2.757.943-4.119A3.215,3.215,0,0,0,381,71.78a101.469,101.469,0,0,0-10.847-4.35,3.212,3.212,0,0,0-2.793.408c-1.114.82-1.674,2.4-2.164,3.629-.387.967-1.937,4.828-2.324,5.794-.492,1.226-1.182,2.758-.943,4.121a3.212,3.212,0,0,0,1.738,2.223,101.978,101.978,0,0,0,10.847,4.351,3.215,3.215,0,0,0,2.793-.407c1.114-.821,1.675-2.4,2.166-3.63C379.855,82.951,381.4,79.09,381.792,78.124Z" transform="translate(-361.876 -67.288)" fill="#93426e"/>
            <path id="Trazado_166602" data-name="Trazado 166602" d="M379.469,83.917c.131-.329.4-1,.71-1.77-1.977,4.642-3.633,5.015-6.347,3.944q-1.245-.493-2.491-.985c-1.744-.692-3.49-1.384-5.214-2.128a4.1,4.1,0,0,1-2.271-1.726,3.147,3.147,0,0,1,.121-2.292c.485-1.526,1.093-3.016,1.689-4.5.568-1.416,1.164-2.823,1.8-4.211a5.824,5.824,0,0,1,1.312-1.973,2.966,2.966,0,0,1,2.024-.65c-.267-.088-.487-.155-.65-.2a3.212,3.212,0,0,0-2.793.408c-1.114.82-1.674,2.4-2.164,3.629-.387.967-1.937,4.828-2.324,5.794-.492,1.226-1.182,2.758-.943,4.121a3.212,3.212,0,0,0,1.738,2.223,101.978,101.978,0,0,0,10.847,4.351,3.215,3.215,0,0,0,2.793-.407C378.416,86.727,378.977,85.144,379.469,83.917Z" transform="translate(-361.876 -67.288)" fill="#7c315d"/>
          </g>
        </g>
        <path id="Trazado_166603" data-name="Trazado 166603" d="M354.467,40.764l5.888-4.233,1.331,7.129Z" transform="translate(-322.884 -29.829)" fill="#fff"/>
        <path id="Trazado_166604" data-name="Trazado 166604" d="M353.244,67.761l-5.888,4.233-1.332-7.129Z" transform="translate(-319.348 -41.695)" fill="#fff"/>
        <path id="Trazado_166605" data-name="Trazado 166605" d="M317.833,62.462,313.6,56.574l7.129-1.331Z" transform="translate(-305.77 -37.666)" fill="#fff"/>
        <path id="Trazado_166606" data-name="Trazado 166606" d="M377.609,76.832l4.233,5.889-7.129,1.331Z" transform="translate(-331.363 -46.707)" fill="#fff"/>
      </g>
      <g id="Grupo_59844" data-name="Grupo 59844" transform="translate(25 199.401)">
        <path id="Trazado_166607" data-name="Trazado 166607" d="M119.339,415.979c-7.032-1.768-16.668,5.488-15.646,13.816a14.128,14.128,0,0,0,3.1,6.889c1.114,1.431,1.393,1.892,1.306-.172a21.518,21.518,0,0,1,.426-5.04c.824,3.348,3.089,6.4,5.424,8.822,1.623,1.69,1.3.773,1.122-.466a12.621,12.621,0,0,1,.19-4.272c1.315,2.677,3.872,4.777,6.282,6.347a21.034,21.034,0,0,0,7.475,3.24c2.672.474,2.539.5,2.413-2.091a20.994,20.994,0,0,0-2.291-7.856c-1.261-2.587-3.027-5.384-5.52-7.02a12.717,12.717,0,0,1,4.154.311c1.241.326,1.953.488.571-1.2a20.3,20.3,0,0,0-7.945-6.3,21.618,21.618,0,0,1,4.969.187c2.251.368,1.458-.22.42-1.259A14.143,14.143,0,0,0,119.339,415.979Z" transform="translate(-57.924 -363.024)" fill="#ff6200"/>
        <path id="Trazado_166608" data-name="Trazado 166608" d="M104.468,399.273c-1.477-1.315-3.788-2.006-6.423.018-.938.72-7.47,6.488-8.3,7.33-2.334,2.364-1.935,4.742-.813,6.371a43.877,43.877,0,0,0,5.463,5.872,5.9,5.9,0,0,0,3.168,1.1c4.178.161,12.4-7.1,12.757-11.263a5.9,5.9,0,0,0-.7-3.281A43.877,43.877,0,0,0,104.468,399.273Z" transform="translate(-51.399 -355.614)" fill="#93426e"/>
        <path id="Trazado_166609" data-name="Trazado 166609" d="M110.018,409.951a4.817,4.817,0,0,0,.3-1.25,5.9,5.9,0,0,0-.7-3.281,43.877,43.877,0,0,0-5.151-6.147c-1.477-1.315-3.788-2.006-6.423.018-.938.72-7.47,6.488-8.3,7.33-2.334,2.364-1.935,4.742-.813,6.371a43.877,43.877,0,0,0,5.463,5.872,5.9,5.9,0,0,0,3.168,1.1,4.5,4.5,0,0,0,.9-.068,3.99,3.99,0,0,1-2.616-1.733c-1.321-1.981,1.952-4.99,3.169-6.178a25.06,25.06,0,0,1,6.384-4.713c1.557-.75,3.422-.879,4.258.88A4.249,4.249,0,0,1,110.018,409.951Z" transform="translate(-51.399 -355.614)" fill="#7c315d"/>
        <path id="Trazado_166610" data-name="Trazado 166610" d="M55,334.5c-8.85-6.288-18.962-10.146-27.671-9.331-1.355.126-1.408.138-1.713,1.512-1.895,8.573.736,19.006,5.834,28.614,6.284,11.842,17.115,21.922,28.294,28.967,6.588,4.155,23.785-11.07,20.5-18.1C74.609,354.141,65.978,342.3,55,334.5Z" transform="translate(-25 -325.061)" fill="#ffd079"/>
        <path id="Trazado_166611" data-name="Trazado 166611" d="M49.17,332.68a75.964,75.964,0,0,1,16.018,14.2c4.085,4.786,8.092,10.282,10.531,16.114a14.942,14.942,0,0,1,1.212,8.952c-.685,3.08-3.129,5.967-5.561,7.86a11.59,11.59,0,0,1-8.672,2.324c-3.166-.415-5.876-2.241-8.349-4.139A99.461,99.461,0,0,1,39.341,363.3a94.715,94.715,0,0,1-8.249-11.08A64.931,64.931,0,0,0,34,358.486c6.284,11.842,17.115,21.922,28.294,28.967,6.588,4.155,23.785-11.07,20.5-18.1-5.632-12.023-14.263-23.862-25.241-31.664A60.613,60.613,0,0,0,49.17,332.68Z" transform="translate(-27.551 -328.252)" fill="#eab763"/>
        <path id="Trazado_166612" data-name="Trazado 166612" d="M76.908,397.628c1.448,1.74,1.1,2.608.751,3.283a20.275,20.275,0,0,0-1.518,3.353,6.816,6.816,0,0,0,.383,2.683c.854,3.061,7.2,17.208,9,21.305,1.747,3.973,2.085,4.616-1.676,1.11-4.175-3.889-18.783-21.22-20.136-23.041-1.1-1.479-2.986-3.589-2.827-5.429a33.259,33.259,0,0,1,1.659-6.814c.57-1.856,1.19-3.685,1.835-5.5C64.979,386.876,73.314,393.306,76.908,397.628Zm12.046-10.634c1.548,1.651,2.452,1.411,3.164,1.15a20.378,20.378,0,0,1,3.516-1.091,6.827,6.827,0,0,1,2.614.713c2.932,1.227,16.185,9.275,20.026,11.567,3.727,2.226,4.322,2.64,1.311-1.526-3.343-4.625-18.732-21.266-20.371-22.834-1.333-1.275-3.192-3.407-5.039-3.479a33.282,33.282,0,0,0-6.966.8c-1.912.337-3.8.725-5.686,1.14C79.763,373.824,85.111,382.89,88.954,386.994Z" transform="translate(-40.024 -344.502)" fill="#00c3c0"/>
        <g id="Grupo_59840" data-name="Grupo 59840" transform="translate(26.231 30.82)">
          <path id="Trazado_166613" data-name="Trazado 166613" d="M133.11,402.1c.627.374,1.162.695,1.609.955-1.5-1.264-3.032-2.483-4.554-3.685-3.906-3.088-7.906-6.057-11.961-8.945-2.656-1.893-5.588-4.627-9.068-3.633a9.027,9.027,0,0,1-3.493.739c-1.927-.261-3.629-2.219-4.892-3.565a43.926,43.926,0,0,1-4.453-5.877c1.03,2.96,4.665,8.656,7.49,11.672,1.548,1.651,2.452,1.411,3.164,1.15a20.367,20.367,0,0,1,3.516-1.091,6.824,6.824,0,0,1,2.614.713C116.016,391.758,129.269,399.805,133.11,402.1Z" transform="translate(-81.09 -378.087)" fill="#0295a5"/>
          <path id="Trazado_166614" data-name="Trazado 166614" d="M75.411,406.338c1.18,1.422,2.912,3.352,2.933,5.3a9.05,9.05,0,0,1-1.166,3.373c-1.418,3.331.932,6.578,2.481,9.448,2.364,4.381,4.816,8.717,7.4,12.976,1,1.659,2.024,3.331,3.092,4.976-.2-.477-.454-1.048-.747-1.715-1.8-4.1-8.145-18.244-9-21.305a6.816,6.816,0,0,1-.383-2.683,20.275,20.275,0,0,1,1.518-3.353c.347-.675.7-1.543-.751-3.283-2.642-3.176-7.843-7.488-10.654-8.877A44.047,44.047,0,0,1,75.411,406.338Z" transform="translate(-70.131 -387.763)" fill="#0295a5"/>
        </g>
        <g id="Grupo_59842" data-name="Grupo 59842" transform="translate(12.521 14.517)">
          <g id="Grupo_59841" data-name="Grupo 59841">
            <path id="Trazado_166615" data-name="Trazado 166615" d="M53.859,371.32a10.913,10.913,0,0,0,8.153-.554,10.6,10.6,0,0,0,5.527-7.157A11.228,11.228,0,0,0,67,356.267a12.551,12.551,0,0,0-1.748-2.579,10.763,10.763,0,0,0-4.718-3.113,10.889,10.889,0,0,0-8.131.552,10.509,10.509,0,0,0-5.8,8.6,11.67,11.67,0,0,0,7.263,11.591Z" transform="translate(-46.542 -350.037)" fill="#93426e"/>
          </g>
          <path id="Trazado_166616" data-name="Trazado 166616" d="M67.539,365.7A11.228,11.228,0,0,0,67,358.356a12.552,12.552,0,0,0-1.748-2.579c-.238-.267-.487-.514-.742-.753,3,3.934,2.649,7.729.9,10.641-3.085,5.154-9.359,8.407-15.364,2.183a10.322,10.322,0,0,1-2.821-8.807,11.929,11.929,0,0,0-.629,2.777,10.755,10.755,0,0,0,15.416,11.037A10.6,10.6,0,0,0,67.539,365.7Z" transform="translate(-46.542 -352.125)" fill="#7c315d"/>
          <path id="Trazado_166617" data-name="Trazado 166617" d="M54.094,364.7a5.462,5.462,0,0,0,5.555.871,7.577,7.577,0,0,0,4.142-4.147,5.826,5.826,0,0,0-2.077-7.48c-2.2-1.371-5.343-1.2-7.762,1.77C51.854,358.283,51.2,362.207,54.094,364.7Z" transform="translate(-48.888 -351.326)" fill="#ba6397"/>
        </g>
        <path id="Trazado_166618" data-name="Trazado 166618" d="M37.632,326.128a30.424,30.424,0,0,0-10.3-.958c-1.355.126-1.408.138-1.713,1.512a29.516,29.516,0,0,0-.446,9.239c.256,2.607,2.61,3.064,4.962,2.263a15.311,15.311,0,0,0,8.839-8.418C39.8,327.883,39.523,326.61,37.632,326.128Z" transform="translate(-25.002 -325.062)" fill="#ff61ac"/>
        <path id="Trazado_166619" data-name="Trazado 166619" d="M38.973,330.307c.826-1.882.551-3.155-1.34-3.637-.443-.112-.886-.218-1.328-.313a3.772,3.772,0,0,1,.664,3.364,7.282,7.282,0,0,1-4.736,4.95,5.509,5.509,0,0,1-5.474-1.318,5.417,5.417,0,0,1-1.536-3.812,31.288,31.288,0,0,0-.051,6.923c.256,2.607,2.61,3.064,4.962,2.263A15.311,15.311,0,0,0,38.973,330.307Z" transform="translate(-25.002 -325.603)" fill="#e5489a"/>
        <path id="Trazado_166620" data-name="Trazado 166620" d="M125.8,419.982a14.144,14.144,0,0,0-6.454-3.935,8.686,8.686,0,0,0-.936-.173,37.823,37.823,0,0,1,4.393,2.785c1.52,1.143.926,1.266-.37,1.295a22.43,22.43,0,0,0-2.891.268c-1.394.214-1.017.657-.058,1.128a21.874,21.874,0,0,1,6.263,4.8c1.509,1.6.925,1.249-.416,1.093a10.917,10.917,0,0,0-2.206-.042c-1.425.13-1.411.522-.5,1.38a23.155,23.155,0,0,1,6.883,11.287c1.065,4.414.365,4.452-3.424,3.023a23.158,23.158,0,0,1-10.347-8.228c-.738-1.011-1.126-1.074-1.431.325a10.713,10.713,0,0,0-.232,2.195c-.011,1.35.267,1.973-1.136.278a21.886,21.886,0,0,1-3.992-6.811c-.348-1.01-.74-1.438-1.126-.08a22.239,22.239,0,0,0-.623,2.835c-.19,1.283-.385,1.857-1.332.206a38.252,38.252,0,0,1-2.233-4.736c.008.327.027.655.067.985a14.128,14.128,0,0,0,3.1,6.889c1.114,1.431,1.393,1.892,1.306-.172a21.517,21.517,0,0,1,.426-5.04c.824,3.348,3.089,6.4,5.424,8.822,1.623,1.69,1.3.773,1.122-.466a12.621,12.621,0,0,1,.19-4.272c1.315,2.677,3.871,4.777,6.282,6.347a21.034,21.034,0,0,0,7.475,3.24c2.672.474,2.539.5,2.413-2.091a20.994,20.994,0,0,0-2.291-7.856c-1.261-2.587-3.027-5.384-5.52-7.02a12.717,12.717,0,0,1,4.154.311c1.241.325,1.953.488.571-1.2a20.3,20.3,0,0,0-7.945-6.3,21.62,21.62,0,0,1,4.969.187C127.631,421.609,126.837,421.021,125.8,419.982Z" transform="translate(-57.93 -363.092)" fill="#ff813b"/>
        <path id="Trazado_166621" data-name="Trazado 166621" d="M32.2,352.175c2.922,3.662,5.547,6.988,3.958,8.21a14.28,14.28,0,0,0-4.036,5.251c-.635,1.3-1.464,2.036-2.182-.521-1.253-4.464-1.008-9.942.306-12.93C30.9,350.69,31.3,351.05,32.2,352.175ZM50,336.456c3.272,3.353,6.248,6.368,7.658,4.944a14.253,14.253,0,0,1,5.71-3.355c1.365-.47,2.2-1.2-.248-2.232-4.274-1.8-9.74-2.231-12.868-1.3C48.689,334.986,49,335.425,50,336.456Z" transform="translate(-26.724 -328.82)" fill="#00c3c0"/>
        <g id="Grupo_59843" data-name="Grupo 59843" transform="translate(4.518 6.791)">
          <path id="Trazado_166622" data-name="Trazado 166622" d="M64.535,337.59c3.272,3.353,6.248,6.368,7.658,4.944a14.252,14.252,0,0,1,5.71-3.355,2.453,2.453,0,0,0,1.23-.731,8.07,8.07,0,0,0-2.207.154c-1.713.373-3.214,1.7-4.935,1.917-2.926.373-5.866-1.562-8.169-3.773A5.154,5.154,0,0,0,64.535,337.59Z" transform="translate(-45.776 -336.745)" fill="#0295a5"/>
          <path id="Trazado_166623" data-name="Trazado 166623" d="M33.652,378.119a14.279,14.279,0,0,1,4.036-5.251c1.59-1.222-1.035-4.548-3.958-8.21a5.041,5.041,0,0,0-.749-.812c1.91,2.56,3.465,5.716,2.732,8.573-.431,1.68-1.933,3.006-2.514,4.659a8.084,8.084,0,0,0-.425,2.171A2.434,2.434,0,0,0,33.652,378.119Z" transform="translate(-32.774 -348.094)" fill="#0295a5"/>
        </g>
      </g>
      <g id="Grupo_59848" data-name="Grupo 59848" transform="translate(25 51.273)">
        <path id="Trazado_166624" data-name="Trazado 166624" d="M77.67,85.525a10.579,10.579,0,0,0-8.448,1.18,25.711,25.711,0,0,0,.374-3.236A8.3,8.3,0,0,0,67.5,77.2c-3.729-3.794-25.137-8.454-30.1-6.554a8.3,8.3,0,0,0-4.519,4.832A48.208,48.208,0,0,0,31.3,80.622q-.971,3.36-1.895,6.733c-1.178,4.321-2.242,8.673-3.107,13.068-.543,2.761-1.344,5.546-1.3,8.382.161,10.478,33.392,17.717,37.9,8.251a21.042,21.042,0,0,0,1.366-4.03c.056.042.112.088.167.128A11.485,11.485,0,0,0,73.4,114.61c6.261-1.462,10.626-6.9,12.078-12.979C86.952,95.476,84.275,87.432,77.67,85.525Zm-3.589,24.966a9.559,9.559,0,0,1-6.262.095c-2.127-.776-2.181-3.566-1.827-5.216.688-3.2,1.284-6.422,1.814-9.653.475-2.894.968-4.72,2.643-5.852a7.532,7.532,0,0,1,5.781-1.217c5.387,1.074,6.785,7.712,5.867,12.247A13,13,0,0,1,74.081,110.491Z" transform="translate(-25 -70.203)" fill="#ffd079"/>
        <path id="Trazado_166625" data-name="Trazado 166625" d="M47.149,76c6.669,3.187,18.108,5.7,25.586,5.627,3.83-.034,3.555-1.933.491-3.6-5.369-2.931-19.127-5.9-25.031-5.382C44.432,72.977,44.427,74.7,47.149,76Z" transform="translate(-33.469 -71.201)" fill="#7c2d0e"/>
        <path id="Trazado_166626" data-name="Trazado 166626" d="M48.214,76.58a7.639,7.639,0,0,0-1.752.332,5.971,5.971,0,0,0,1.205.74c6.669,3.187,18.108,5.7,25.586,5.627a6.91,6.91,0,0,0,1.616-.177,7.659,7.659,0,0,0-1.623-1.14C67.877,79.031,54.119,76.058,48.214,76.58Z" transform="translate(-33.988 -72.849)" fill="#6b210a"/>
        <path id="Trazado_166627" data-name="Trazado 166627" d="M73.4,116.555c6.261-1.462,10.626-6.9,12.078-12.979A15.478,15.478,0,0,0,83.6,92.043c.2.48.389.969.554,1.47,1.4,4.257.67,9.018-1.14,13.022-1.667,3.684-4.374,7.193-8.339,8.328a12.13,12.13,0,0,1-8.569-.5c-3.727-2.03-3.748-.552-4.6,1.44s-1.572,3.514-4.162,4.425c-2.975,1.048-7.035.6-10.132.274-6.3-.668-12.829-2.242-17.929-6.2-2.732-2.119-2.322-5.4-1.817-8.422.6-3.579,4.349-23.918,6.911-31.041a10.552,10.552,0,0,0-1.506,2.571A48.208,48.208,0,0,0,31.3,82.567q-.971,3.36-1.895,6.733c-1.178,4.321-2.242,8.673-3.107,13.068-.543,2.761-1.344,5.546-1.3,8.382.161,10.478,33.392,17.717,37.9,8.251a21.043,21.043,0,0,0,1.366-4.03c.056.042.112.088.167.128A11.485,11.485,0,0,0,73.4,116.555Z" transform="translate(-25 -72.148)" fill="#eab763"/>
        <path id="Trazado_166628" data-name="Trazado 166628" d="M93.9,118.348a4.348,4.348,0,0,0,1.273,3.209,6.157,6.157,0,0,1-.324-3.867c.688-3.2,1.284-6.422,1.814-9.653.475-2.894.968-4.72,2.643-5.852a7.532,7.532,0,0,1,5.781-1.216c4.467.89,6.189,5.6,6.125,9.774a15.233,15.233,0,0,0-.943-6.685,7.194,7.194,0,0,0-8.957-4.087c-3.4,1.034-4.631,2.836-5.676,7.255A62.6,62.6,0,0,0,93.9,118.348Z" transform="translate(-53.852 -82.524)" fill="#eab763"/>
        <g id="Grupo_59847" data-name="Grupo 59847" transform="translate(12.356 17.941)">
          <path id="Trazado_166629" data-name="Trazado 166629" d="M49.727,113.118a5.373,5.373,0,0,0-2.015,3.348,7.381,7.381,0,0,1-1.445-4.091c-.206-4.661,3.52-8.658,7.605-10.29a12.884,12.884,0,0,1,7.345-.77c2.546.593,3.627,2.6,2.349,5.5-1.216,2.76-4.047,3.892-6.835,4.312C54.338,111.483,51.741,111.623,49.727,113.118Zm16.461-7.237a6.237,6.237,0,0,0-1.179-2.059,7.149,7.149,0,0,1-4.087,7.429c-2.535,1.223-5.361.994-8.014,1.77a6.909,6.909,0,0,0-3.077,1.688,4.243,4.243,0,0,0-.7.965c-.961,1.813-.1,2.7,1.416,3.467,3.188,1.616,7.27.5,10.19-1.427C64.5,115.233,67.826,110.547,66.188,105.882Z" transform="translate(-46.259 -101.072)" fill="#7c2d0e"/>
          <g id="Grupo_59845" data-name="Grupo 59845" transform="translate(1.53 0.114)">
            <path id="Trazado_166630" data-name="Trazado 166630" d="M50.83,113.2c2.014-1.495,4.611-1.635,7-1.995,2.788-.419,5.618-1.552,6.835-4.311,1.279-2.9.2-4.9-2.349-5.5-.239-.056-.485-.094-.731-.13,1.808.556,3.169,1.828,2.491,4.127-.642,2.172-2.6,3.29-4.628,3.865-3.2.9-7.6.779-9.7,3.805a4.908,4.908,0,0,0-.846,3.093A5.259,5.259,0,0,1,50.83,113.2Z" transform="translate(-48.892 -101.268)" fill="#6b210a"/>
          </g>
          <g id="Grupo_59846" data-name="Grupo 59846" transform="translate(2.465 3.122)">
            <path id="Trazado_166631" data-name="Trazado 166631" d="M62.511,119.963c3.762-2.481,7.091-7.166,5.453-11.832a6.335,6.335,0,0,0-.885-1.687,13.19,13.19,0,0,1,.412,3.116A11.538,11.538,0,0,1,66.317,114a11.831,11.831,0,0,1-5.2,5.327,11.323,11.323,0,0,1-6.886,1.221,2.964,2.964,0,0,1-2.443-1.513,3.169,3.169,0,0,1,.829-2.881,5.226,5.226,0,0,0-1.011.8,4.244,4.244,0,0,0-.7.965c-.961,1.813-.1,2.7,1.416,3.467C55.509,123.006,59.591,121.889,62.511,119.963Z" transform="translate(-50.5 -106.444)" fill="#6b210a"/>
          </g>
        </g>
      </g>
      <g id="Grupo_59849" data-name="Grupo 59849" transform="translate(251.168 25.001)">
        <path id="Trazado_166632" data-name="Trazado 166632" d="M447.81,44.782c-3.047,1.512-8.438,4.155-12.476,5.946-2.222.985-3,1.813-1.6-1.846,2.645-6.919,6.773-17.146,8.667-21.818.942-2.325.193-2.282-1.733-1.794-8.194,2.078-19.016,4.7-23.76,5.858-2.4.584-2.4.962-2.416,2.688-.1,12.413-.418,26.38-.352,38.825.013,2.412.443,2.306,2.244,1.42,2.688-1.322,7.351-3.646,11.369-5.649,2.136-1.065,2.085-.313,1.873,1.628-1.314,12.008-2.39,24.074-3.237,36.124-.13,1.866-.1,2.757.873.1,4.078-11.138,18.377-50.211,22.047-60.277C449.858,44.461,449.25,44.066,447.81,44.782Z" transform="translate(-414.126 -25.001)" fill="#ff813b"/>
        <path id="Trazado_166633" data-name="Trazado 166633" d="M457,46.249c-3.047,1.512-8.438,4.155-12.477,5.946-2.222.985-3,1.813-1.6-1.846,2.645-6.919,6.774-17.146,8.667-21.818,0-.009.006-.017.01-.027-2.335,3.62-4.266,7.578-6.259,11.365q-3.539,6.725-6.753,13.619c-1.555,3.321-.75,3.092,2.213,1.927q5.407-2.128,10.751-4.411c3.9-1.659,3.333-1.128,2.331,1.815-1.914,5.619-3.733,11.272-5.577,16.908-3.579,10.936-7.112,21.889-10.442,32.9-.608,2.012-1.21,4.03-1.79,6.054.106-.248.228-.557.374-.956,4.078-11.138,18.378-50.211,22.047-60.277C459.05,45.928,458.442,45.533,457,46.249Z" transform="translate(-423.318 -26.468)" fill="#ff6200"/>
        <path id="Trazado_166634" data-name="Trazado 166634" d="M437.3,64.054c-3.943,1.279-7.866,2.668-11.764,4.091-1.045.381-1.526.849-1.21-1.3.7-4.744,2.683-20.722,3.142-26.071.1-1.219.08-1.913-1.368-1.669a39.658,39.658,0,0,0-3.994.865c-1.273.353-1.6.84-1.611,1.737-.172,10.206-.376,20.416-.383,30.624,0,2.488.565,2.044,1.833,1.516,2.091-.872,8.916-3.913,12.145-5.36,1.372-.614,1.286-.3,1.139.933-.249,2.075-.717,5.754-.956,7.73-.424,3.5-.879,7.008-1.271,10.518-.319,2.859-.083,2.825.521.066,1.656-7.576,3.692-15.08,5.281-22.673C439.11,63.607,438.954,63.519,437.3,64.054Z" transform="translate(-416.634 -30.887)" fill="#ffd079"/>
      </g>
      <g id="Grupo_59850" data-name="Grupo 59850" transform="translate(248.537 175.29)">
        <path id="Trazado_166635" data-name="Trazado 166635" d="M436.75,288.009c-.688-.889-2.371-.1-3.194.109-2.206.553-4.41,1.122-6.618,1.668q-2.36-2.078-4.7-4.175c-.607-.542-2.059-2.385-3.065-1.973-1.037.425-.808,2.218-.868,3.089-.156,2.261-.3,4.524-.456,6.786q-2.717,1.608-5.444,3.195c-.791.464-2.942,1.212-2.8,2.427.12.991,1.992,1.376,2.687,1.655,2.093.843,4.194,1.673,6.286,2.52q.677,3.026,1.332,6.057c.217.994.263,3.024,1.377,3.484.944.389,2.089-1.531,2.513-2.037,1.426-1.7,2.84-3.416,4.267-5.115,2.046.193,4.089.4,6.133.6,1.048.1,2.923.69,3.73-.258.642-.754-.865-2.494-1.193-3.017-1.168-1.865-2.349-3.724-3.513-5.59.849-1.967,1.712-3.928,2.571-5.891C436.133,290.776,437.417,288.874,436.75,288.009Z" transform="translate(-409.6 -283.578)" fill="#ff61ac"/>
        <path id="Trazado_166636" data-name="Trazado 166636" d="M436.779,295.1c-6.9,9.273-8.758,11.931-11.7,16.265-2.64,3.881-2.76,2.832-3.254-1.456-.438-3.816-1.156-4.436-4.517-4.714-1.74-.144-4.106-.212-6.9-.528a8.932,8.932,0,0,0,2.224.947c2.093.843,4.194,1.673,6.286,2.52q.677,3.026,1.332,6.057c.217.995.263,3.024,1.377,3.484.945.389,2.089-1.532,2.513-2.037,1.426-1.7,2.84-3.416,4.267-5.115,2.046.193,4.089.4,6.133.6,1.048.1,2.923.69,3.73-.258.642-.754-.865-2.494-1.193-3.017-1.168-1.865-2.349-3.724-3.513-5.59.849-1.967,1.712-3.928,2.571-5.891C436.265,296.072,436.535,295.607,436.779,295.1Z" transform="translate(-409.938 -288.403)" fill="#e5489a"/>
      </g>
      <g id="Grupo_59851" data-name="Grupo 59851" transform="translate(146.067 25.309)">
        <path id="Trazado_166637" data-name="Trazado 166637" d="M257.785,38.075c.019-.974-1.548-1.355-2.216-1.662-1.79-.826-3.587-1.64-5.375-2.47-.309-1.791-.607-3.583-.907-5.376-.116-.7-.094-2.729-1-3-.931-.276-1.751,1.058-2.264,1.615-1.334,1.443-2.658,2.894-4,4.335-1.8-.261-3.607-.532-5.412-.8-.786-.117-2.645-.781-3.205.119-.459.735.6,2.012.914,2.578.955,1.706,1.923,3.409,2.875,5.118q-1.188,2.411-2.393,4.814c-.393.79-1.466,2.184-.962,3.1.425.775,2.242.1,2.8-.01,1.888-.375,3.774-.763,5.662-1.135q1.915,1.863,3.815,3.738c.65.64,1.6,2.054,2.659,1.854.842-.16.771-2.155.834-2.686.225-1.894.437-3.79.665-5.684,1.643-.867,3.29-1.722,4.937-2.579C255.865,39.608,257.766,39.021,257.785,38.075Z" transform="translate(-233.298 -25.531)" fill="#3c68cd"/>
        <path id="Trazado_166638" data-name="Trazado 166638" d="M256.374,43.784c-9.7,2.511-12.4,3.3-16.743,4.622-3.891,1.186-3.4.412-1.405-2.752,1.777-2.814,1.63-3.623-.488-5.637-1.1-1.044-2.657-2.375-4.37-4.1a7.774,7.774,0,0,0,.987,1.848c.955,1.706,1.923,3.409,2.875,5.118q-1.188,2.411-2.393,4.814c-.393.79-1.466,2.184-.962,3.1.425.775,2.242.1,2.8-.01,1.888-.375,3.774-.763,5.662-1.135q1.915,1.863,3.815,3.738c.65.64,1.6,2.054,2.659,1.854.842-.16.771-2.155.834-2.686.225-1.894.437-3.79.665-5.684,1.643-.867,3.29-1.722,4.937-2.579C255.5,44.161,255.933,43.994,256.374,43.784Z" transform="translate(-233.327 -29.879)" fill="#1b4c9b"/>
      </g>
      <g id="Grupo_59852" data-name="Grupo 59852" transform="translate(105.239 259.273)">
        <path id="Trazado_166639" data-name="Trazado 166639" d="M170.521,459.374l74.424-7.666c8.947-.921,7.518-14.8-1.43-13.875L169.092,445.5c-8.948.921-7.519,14.8,1.429,13.875Z" transform="translate(-163.052 -432.141)" fill="#7c2d0e"/>
        <rect id="Rectngulo_34888" data-name="Rectngulo 34888" width="7.029" height="5.813" transform="matrix(0.995, -0.102, 0.102, 0.995, 27.949, 15.189)" fill="#ff61ac"/>
        <rect id="Rectngulo_34889" data-name="Rectngulo 34889" width="7.029" height="5.812" transform="translate(11.652 16.868) rotate(-5.877)" fill="#ff61ac"/>
        <rect id="Rectngulo_34890" data-name="Rectngulo 34890" width="7.029" height="5.813" transform="translate(44.246 13.511) rotate(-5.886)" fill="#ff61ac"/>
        <rect id="Rectngulo_34891" data-name="Rectngulo 34891" width="7.03" height="5.812" transform="translate(19.8 16.029) rotate(-5.886)" fill="#ff61ac"/>
        <rect id="Rectngulo_34892" data-name="Rectngulo 34892" width="7.029" height="5.812" transform="translate(36.098 14.35) rotate(-5.877)" fill="#ff61ac"/>
        <path id="Trazado_166640" data-name="Trazado 166640" d="M176.477,457.3l-4.039.417a2.916,2.916,0,0,0,.6,5.781l4.039-.416Z" transform="translate(-165.982 -440.312)" fill="#ff61ac"/>
        <rect id="Rectngulo_34893" data-name="Rectngulo 34893" width="7.03" height="5.812" transform="translate(52.394 12.673) rotate(-5.885)" fill="#ff61ac"/>
        <path id="Trazado_166641" data-name="Trazado 166641" d="M299.3,444.812l-4.04.417.6,5.781,4.039-.416a2.916,2.916,0,0,0-.595-5.783Z" transform="translate(-218.417 -435.074)" fill="#fff"/>
        <rect id="Rectngulo_34894" data-name="Rectngulo 34894" width="7.029" height="5.812" transform="matrix(0.995, -0.102, 0.102, 0.995, 60.543, 11.832)" fill="#fff"/>
        <rect id="Rectngulo_34895" data-name="Rectngulo 34895" width="7.029" height="5.812" transform="translate(68.692 10.994) rotate(-5.877)" fill="#fff"/>
        <text id="Uploading..." transform="translate(11.874 3.404) rotate(-5.88)" fill="#7c2d0e" font-size="2" font-family="Montserrat-ExtraBold, Montserrat" font-weight="800"><tspan x="-6.353" y="0">Uploading...</tspan></text>
      </g>
      <path id="Trazado_166642" data-name="Trazado 166642" d="M442.685,344.138c-2.961.825-5.928,1.627-8.889,2.455-1.625.456-3.279.9-4.918,1.4-2.334.707-3.234,1.069-.656-1.29q4.928-4.513,9.667-9.235c2.5-2.49,2.653-2.585-.311-.834-6.368,3.763-12.622,7.769-18.734,11.932-1.774,1.209-1.543,1.575-1.132,3.248.391,1.59,1.281,4.446-.571,7.631-1.094,1.881-.707,2,1.4,1.432,7.923-2.149,15.9-4.16,23.918-5.944,2.815-.628,2.822-.688-.029-.58-4.055.155-8.11.421-12.16.7-2.732.192-2.435.036.008-1.491,4.3-2.686,8.633-5.376,12.746-8.323C445.538,343.44,445.581,343.33,442.685,344.138Z" transform="translate(-163.972 -130.007)" fill="#00afcc"/>
      <path id="Trazado_166643" data-name="Trazado 166643" d="M96.6,41.653a170.362,170.362,0,0,0-13.03-12.314c-.563-.477-.584-.406-.194.226,2.527,4.106,4.876,8.34,7.547,12.354.378.567.439.671-.235.274-7.314-4.306-14.58-8.712-22.037-12.765-.81-.44-.874-.332-.213.326,4.513,4.5,13.626,13.141,19.213,18.687,1.958,1.944.949,1.19-.567.684C81.021,47.1,70.3,43.472,68.377,43c-1.157-.285-1.189-.209-.1.288,4.413,2.012,8.785,4.119,13.18,6.17,4.486,2.094,8.965,4.331,13.6,6.1.45.173.5.2.328-.269a20.338,20.338,0,0,1-1.467-6.51A8.554,8.554,0,0,1,96.6,42.231C96.877,41.938,96.878,41.94,96.6,41.653Z" transform="translate(-17.792 -1.687)" fill="#3c68cd"/>
      <g id="Grupo_59877" data-name="Grupo 59877" transform="translate(31.466 26.412)">
        <g id="Grupo_59853" data-name="Grupo 59853" transform="translate(62.966 199.169)">
          <path id="Trazado_166644" data-name="Trazado 166644" d="M151.259,372.657a3.52,3.52,0,0,0-3.448-2.553,3.408,3.408,0,0,0-2.37.982,3.351,3.351,0,0,0,0,4.738l.678.524a3.409,3.409,0,0,0,.421.206,3.331,3.331,0,0,0,3.858-.619A3.416,3.416,0,0,0,151.259,372.657Z" transform="translate(-144.46 -370.103)" fill="#00adca"/>
          <path id="Trazado_166645" data-name="Trazado 166645" d="M150.4,376.879a3.416,3.416,0,0,0,.86-3.278c-.013-.05-.03-.1-.045-.146a3.312,3.312,0,0,1-2.783,2.9,3.127,3.127,0,0,1-3.265-1.933,3.16,3.16,0,0,1-.007-2.063,3.343,3.343,0,0,0,.283,4.41l.678.524a3.379,3.379,0,0,0,.421.206,3.331,3.331,0,0,0,3.858-.619Z" transform="translate(-144.46 -371.047)" fill="#0091a0"/>
        </g>
        <g id="Grupo_59854" data-name="Grupo 59854" transform="translate(247.057 65.501)">
          <path id="Trazado_166646" data-name="Trazado 166646" d="M467.841,143.449a3.324,3.324,0,1,1-3.325-3.325A3.356,3.356,0,0,1,467.841,143.449Z" transform="translate(-461.192 -140.124)" fill="#00adca"/>
          <path id="Trazado_166647" data-name="Trazado 166647" d="M467.841,144.553a3.264,3.264,0,0,0-.185-1.069,3.174,3.174,0,0,1-2.556,3.11c-2.443.6-3.446-1.8-3.369-3.833a3.279,3.279,0,0,0-.539,1.791,3.324,3.324,0,0,0,6.648,0Z" transform="translate(-461.192 -141.229)" fill="#0091a0"/>
        </g>
        <g id="Grupo_59855" data-name="Grupo 59855" transform="translate(4.599 8.241)">
          <path id="Trazado_166648" data-name="Trazado 166648" d="M48.306,41.738l-.3-.058a3.217,3.217,0,0,0-3.9,3.9c.019.1.038.2.057.3.49,2.543,3.94,3.166,5.622,1.484S50.849,42.228,48.306,41.738Z" transform="translate(-44.038 -41.608)" fill="#00adca"/>
          <path id="Trazado_166649" data-name="Trazado 166649" d="M50.445,44.277A3.269,3.269,0,0,1,49.9,45.9,3.5,3.5,0,0,1,47.4,47.4,2.528,2.528,0,0,1,44.94,46.14a2.788,2.788,0,0,1-.077-2.764,3.35,3.35,0,0,0-.752,2.944c.019.1.038.2.057.3.49,2.543,3.94,3.166,5.622,1.484A3.57,3.57,0,0,0,50.445,44.277Z" transform="translate(-44.038 -42.348)" fill="#0091a0"/>
        </g>
        <g id="Grupo_59857" data-name="Grupo 59857" transform="translate(74.482 50.421)">
          <g id="Grupo_59856" data-name="Grupo 59856">
            <path id="Trazado_166650" data-name="Trazado 166650" d="M166.777,120.792a3.343,3.343,0,0,1-1.468-.856l-.018-.024a.3.3,0,0,0-.04-.037,3.336,3.336,0,1,1,4.718-4.719l.522.675a.416.416,0,0,1,.043.074,3.3,3.3,0,0,1,.454,1.679q-.06.442-.119.884a3.329,3.329,0,0,1-4.092,2.324Z" transform="translate(-164.273 -114.18)" fill="#00adca"/>
            <path id="Trazado_166651" data-name="Trazado 166651" d="M165.524,123.4c-.126-.163-.252-.326-.376-.488l-.02-.024Z" transform="translate(-164.631 -117.825)" fill="#00adca"/>
          </g>
          <path id="Trazado_166652" data-name="Trazado 166652" d="M165.291,120.173l.018.024a3.327,3.327,0,0,0,5.561-1.468q.058-.442.119-.884a3.309,3.309,0,0,0-.27-1.31c-.053,1.712-.951,3.322-3,2.96-2.509-.444-2.686-2.942-1.615-4.691-.059.029-.12.058-.177.092a3.335,3.335,0,0,0-.675,5.24A.3.3,0,0,1,165.291,120.173Zm-.521-.673.02.024c.124.163.251.325.376.488Z" transform="translate(-164.273 -114.441)" fill="#0091a0"/>
        </g>
        <g id="Grupo_59858" data-name="Grupo 59858" transform="translate(168.395 231.474)">
          <path id="Trazado_166653" data-name="Trazado 166653" d="M332.553,429.035a3.351,3.351,0,1,0-3.35,3.351A3.382,3.382,0,0,0,332.553,429.035Z" transform="translate(-325.852 -425.684)" fill="#00adca"/>
          <path id="Trazado_166654" data-name="Trazado 166654" d="M332.553,429.509a3.284,3.284,0,0,0-.3-1.367,3.2,3.2,0,0,1-2.636,2.942,2.363,2.363,0,0,1-2.561-1.186,3.125,3.125,0,0,1,.181-3.082,3.344,3.344,0,1,0,5.318,2.694Z" transform="translate(-325.852 -426.158)" fill="#0091a0"/>
        </g>
        <g id="Grupo_59859" data-name="Grupo 59859" transform="translate(0 78.615)">
          <path id="Trazado_166655" data-name="Trazado 166655" d="M42.924,165.242a3.519,3.519,0,0,0-3.448-2.553,3.408,3.408,0,0,0-2.369.982,3.35,3.35,0,0,0,0,4.739l.678.524a3.516,3.516,0,0,0,.421.206,3.331,3.331,0,0,0,3.858-.619A3.416,3.416,0,0,0,42.924,165.242Z" transform="translate(-36.125 -162.687)" fill="#ff813b"/>
          <path id="Trazado_166656" data-name="Trazado 166656" d="M42.064,169.464a3.416,3.416,0,0,0,.86-3.278c-.013-.05-.03-.1-.045-.146a3.311,3.311,0,0,1-2.783,2.9,3.127,3.127,0,0,1-3.265-1.933,3.158,3.158,0,0,1-.007-2.062,3.342,3.342,0,0,0,.284,4.41l.678.524a3.525,3.525,0,0,0,.421.206,3.332,3.332,0,0,0,3.858-.619Z" transform="translate(-36.125 -163.632)" fill="#ff6200"/>
        </g>
        <g id="Grupo_59860" data-name="Grupo 59860" transform="translate(201.971 218.534)">
          <path id="Trazado_166657" data-name="Trazado 166657" d="M390.268,406.746a3.324,3.324,0,1,1-3.325-3.324A3.356,3.356,0,0,1,390.268,406.746Z" transform="translate(-383.62 -403.422)" fill="#ff813b"/>
          <path id="Trazado_166658" data-name="Trazado 166658" d="M390.268,407.85a3.241,3.241,0,0,0-.185-1.068,3.175,3.175,0,0,1-2.555,3.109c-2.443.6-3.446-1.8-3.369-3.833a3.275,3.275,0,0,0-.539,1.791,3.324,3.324,0,1,0,6.648,0Z" transform="translate(-383.62 -404.526)" fill="#ff6200"/>
        </g>
        <g id="Grupo_59861" data-name="Grupo 59861" transform="translate(18.015 163.542)">
          <path id="Trazado_166659" data-name="Trazado 166659" d="M71.389,308.938l-.3-.058a3.217,3.217,0,0,0-3.9,3.9c.019.1.038.2.057.3.49,2.543,3.94,3.166,5.622,1.484S73.932,309.427,71.389,308.938Z" transform="translate(-67.121 -308.807)" fill="#ff813b"/>
          <path id="Trazado_166660" data-name="Trazado 166660" d="M73.528,311.476a3.266,3.266,0,0,1-.544,1.626,3.506,3.506,0,0,1-2.5,1.493,2.529,2.529,0,0,1-2.461-1.255,2.788,2.788,0,0,1-.077-2.764,3.349,3.349,0,0,0-.752,2.945c.019.1.038.2.057.3.49,2.543,3.939,3.166,5.622,1.484A3.57,3.57,0,0,0,73.528,311.476Z" transform="translate(-67.121 -309.547)" fill="#ff6200"/>
        </g>
        <g id="Grupo_59863" data-name="Grupo 59863" transform="translate(167.456)">
          <g id="Grupo_59862" data-name="Grupo 59862">
            <path id="Trazado_166661" data-name="Trazado 166661" d="M326.74,34.041a3.338,3.338,0,0,1-1.468-.856l-.018-.024a.306.306,0,0,0-.04-.037,3.336,3.336,0,1,1,4.718-4.718c.173.226.348.45.522.675a.425.425,0,0,1,.043.074,3.312,3.312,0,0,1,.454,1.679q-.06.441-.12.883a3.328,3.328,0,0,1-4.092,2.324Z" transform="translate(-324.237 -27.429)" fill="#ff813b"/>
            <path id="Trazado_166662" data-name="Trazado 166662" d="M325.487,36.645c-.125-.162-.251-.325-.376-.488l-.019-.024Z" transform="translate(-324.595 -31.074)" fill="#ff813b"/>
          </g>
          <path id="Trazado_166663" data-name="Trazado 166663" d="M325.254,33.422l.018.024a3.327,3.327,0,0,0,5.56-1.468q.06-.442.12-.883a3.319,3.319,0,0,0-.27-1.31c-.053,1.711-.951,3.322-3,2.959-2.509-.443-2.687-2.941-1.615-4.691-.06.03-.12.059-.177.092a3.335,3.335,0,0,0-.676,5.24A.306.306,0,0,1,325.254,33.422Zm-.52-.673.019.024c.125.163.251.326.376.488Z" transform="translate(-324.237 -27.69)" fill="#ff6200"/>
        </g>
        <g id="Grupo_59864" data-name="Grupo 59864" transform="translate(219.35 54.456)">
          <path id="Trazado_166664" data-name="Trazado 166664" d="M420.223,124.471a3.351,3.351,0,1,0-3.35,3.351A3.381,3.381,0,0,0,420.223,124.471Z" transform="translate(-413.521 -121.121)" fill="#ff813b"/>
          <path id="Trazado_166665" data-name="Trazado 166665" d="M420.223,124.944a3.274,3.274,0,0,0-.3-1.366,3.2,3.2,0,0,1-2.636,2.941,2.363,2.363,0,0,1-2.561-1.187,3.124,3.124,0,0,1,.181-3.082,3.344,3.344,0,1,0,5.318,2.693Z" transform="translate(-413.521 -121.594)" fill="#ff6200"/>
        </g>
        <g id="Grupo_59865" data-name="Grupo 59865" transform="translate(243.485 207.208)">
          <path id="Trazado_166666" data-name="Trazado 166666" d="M461.846,386.489a3.52,3.52,0,0,0-3.448-2.553,3.408,3.408,0,0,0-2.369.982,3.349,3.349,0,0,0,0,4.739l.678.524a3.339,3.339,0,0,0,.421.206,3.333,3.333,0,0,0,3.859-.619A3.416,3.416,0,0,0,461.846,386.489Z" transform="translate(-455.047 -383.934)" fill="#93426e"/>
          <path id="Trazado_166667" data-name="Trazado 166667" d="M460.987,390.711a3.416,3.416,0,0,0,.86-3.278c-.013-.05-.03-.1-.046-.146a3.312,3.312,0,0,1-2.782,2.9,3.128,3.128,0,0,1-3.266-1.933,3.164,3.164,0,0,1-.006-2.063,3.34,3.34,0,0,0,.284,4.41l.678.524a3.339,3.339,0,0,0,.421.206,3.332,3.332,0,0,0,3.859-.619Z" transform="translate(-455.047 -384.879)" fill="#6d2351"/>
        </g>
        <g id="Grupo_59866" data-name="Grupo 59866" transform="translate(140.61 16.155)">
          <path id="Trazado_166668" data-name="Trazado 166668" d="M284.695,58.548a3.324,3.324,0,1,1-3.324-3.325A3.355,3.355,0,0,1,284.695,58.548Z" transform="translate(-278.047 -55.223)" fill="#93426e"/>
          <path id="Trazado_166669" data-name="Trazado 166669" d="M284.695,59.652a3.211,3.211,0,0,0-.185-1.069,3.175,3.175,0,0,1-2.554,3.11c-2.444.6-3.447-1.8-3.369-3.833a3.269,3.269,0,0,0-.539,1.791,3.324,3.324,0,1,0,6.648,0Z" transform="translate(-278.047 -56.328)" fill="#6d2351"/>
        </g>
        <g id="Grupo_59867" data-name="Grupo 59867" transform="translate(2.476 223.635)">
          <path id="Trazado_166670" data-name="Trazado 166670" d="M44.653,412.328l-.3-.057a3.217,3.217,0,0,0-3.9,3.9q.028.148.057.3c.489,2.543,3.939,3.166,5.622,1.483S47.2,412.817,44.653,412.328Z" transform="translate(-40.384 -412.198)" fill="#93426e"/>
          <path id="Trazado_166671" data-name="Trazado 166671" d="M46.791,414.867a3.265,3.265,0,0,1-.543,1.626,3.505,3.505,0,0,1-2.5,1.493,2.527,2.527,0,0,1-2.461-1.255,2.788,2.788,0,0,1-.077-2.764,3.35,3.35,0,0,0-.751,2.945q.028.148.057.3c.489,2.543,3.939,3.166,5.622,1.483A3.567,3.567,0,0,0,46.791,414.867Z" transform="translate(-40.385 -412.938)" fill="#6d2351"/>
        </g>
        <g id="Grupo_59869" data-name="Grupo 59869" transform="translate(239.809 76.218)">
          <g id="Grupo_59868" data-name="Grupo 59868">
            <path id="Trazado_166672" data-name="Trazado 166672" d="M451.226,165.175a3.337,3.337,0,0,1-1.468-.856l-.018-.024a.268.268,0,0,0-.04-.037,3.336,3.336,0,1,1,4.718-4.718q.261.337.522.675a.39.39,0,0,1,.044.074,3.309,3.309,0,0,1,.454,1.679c-.039.295-.08.589-.118.884a3.329,3.329,0,0,1-4.092,2.324Z" transform="translate(-448.722 -158.563)" fill="#93426e"/>
            <path id="Trazado_166673" data-name="Trazado 166673" d="M449.973,167.779l-.376-.488-.019-.024Z" transform="translate(-449.081 -162.208)" fill="#93426e"/>
          </g>
          <path id="Trazado_166674" data-name="Trazado 166674" d="M449.74,164.556l.018.024a3.327,3.327,0,0,0,5.561-1.468c.039-.295.079-.589.118-.884a3.293,3.293,0,0,0-.27-1.31c-.053,1.711-.951,3.321-3,2.959-2.508-.443-2.686-2.941-1.614-4.691-.06.03-.12.059-.177.092a3.335,3.335,0,0,0-.675,5.24A.27.27,0,0,1,449.74,164.556Zm-.52-.673.019.024.376.488Z" transform="translate(-448.722 -158.824)" fill="#6d2351"/>
        </g>
        <g id="Grupo_59870" data-name="Grupo 59870" transform="translate(36.972 126.751)">
          <path id="Trazado_166675" data-name="Trazado 166675" d="M106.437,248.856a3.351,3.351,0,1,0-3.351,3.351A3.382,3.382,0,0,0,106.437,248.856Z" transform="translate(-99.736 -245.506)" fill="#93426e"/>
          <path id="Trazado_166676" data-name="Trazado 166676" d="M106.437,249.329a3.277,3.277,0,0,0-.3-1.366,3.2,3.2,0,0,1-2.636,2.942,2.362,2.362,0,0,1-2.56-1.187,3.124,3.124,0,0,1,.181-3.082,3.344,3.344,0,1,0,5.318,2.693Z" transform="translate(-99.736 -245.979)" fill="#6d2351"/>
        </g>
        <g id="Grupo_59871" data-name="Grupo 59871" transform="translate(73.289 210.457)">
          <path id="Trazado_166677" data-name="Trazado 166677" d="M169.02,392.079a3.517,3.517,0,0,0-3.448-2.553,3.407,3.407,0,0,0-2.369.98,3.351,3.351,0,0,0,0,4.74l.678.523a3.517,3.517,0,0,0,.421.207,3.33,3.33,0,0,0,3.858-.62A3.413,3.413,0,0,0,169.02,392.079Z" transform="translate(-162.221 -389.524)" fill="#ff61ac"/>
          <path id="Trazado_166678" data-name="Trazado 166678" d="M168.16,396.3a3.413,3.413,0,0,0,.86-3.277c-.013-.051-.03-.1-.045-.146a3.31,3.31,0,0,1-2.783,2.9,3.126,3.126,0,0,1-3.265-1.933,3.161,3.161,0,0,1-.007-2.062,3.342,3.342,0,0,0,.284,4.41l.678.523a3.521,3.521,0,0,0,.421.207,3.33,3.33,0,0,0,3.858-.62Z" transform="translate(-162.221 -390.469)" fill="#e5489a"/>
        </g>
        <g id="Grupo_59872" data-name="Grupo 59872" transform="translate(233.376 138.955)">
          <path id="Trazado_166679" data-name="Trazado 166679" d="M444.3,269.828a3.324,3.324,0,1,1-3.324-3.324A3.355,3.355,0,0,1,444.3,269.828Z" transform="translate(-437.653 -266.504)" fill="#ff61ac"/>
          <path id="Trazado_166680" data-name="Trazado 166680" d="M444.3,270.932a3.243,3.243,0,0,0-.185-1.068,3.175,3.175,0,0,1-2.555,3.109c-2.443.6-3.446-1.8-3.369-3.833a3.276,3.276,0,0,0-.539,1.791,3.324,3.324,0,1,0,6.648,0Z" transform="translate(-437.653 -267.608)" fill="#e5489a"/>
        </g>
        <g id="Grupo_59873" data-name="Grupo 59873" transform="translate(206.636 12.116)">
          <path id="Trazado_166681" data-name="Trazado 166681" d="M395.914,48.4l-.3-.058a3.216,3.216,0,0,0-3.9,3.9q.027.148.057.3c.489,2.543,3.939,3.166,5.621,1.484S398.457,48.893,395.914,48.4Z" transform="translate(-391.646 -48.274)" fill="#ff61ac"/>
          <path id="Trazado_166682" data-name="Trazado 166682" d="M398.053,50.942a3.26,3.26,0,0,1-.544,1.625,3.5,3.5,0,0,1-2.5,1.493,2.527,2.527,0,0,1-2.461-1.255,2.788,2.788,0,0,1-.077-2.764,3.348,3.348,0,0,0-.751,2.944c.018.1.037.2.057.3.489,2.543,3.939,3.166,5.621,1.484A3.565,3.565,0,0,0,398.053,50.942Z" transform="translate(-391.647 -49.014)" fill="#e5489a"/>
        </g>
        <g id="Grupo_59875" data-name="Grupo 59875" transform="translate(178.268 221.35)">
          <g id="Grupo_59874" data-name="Grupo 59874" transform="translate(0 0)">
            <path id="Trazado_166683" data-name="Trazado 166683" d="M345.342,414.879a3.331,3.331,0,0,1-1.468-.855l-.019-.025a.3.3,0,0,0-.04-.037,3.336,3.336,0,1,1,4.718-4.718q.262.337.523.675a.419.419,0,0,1,.043.074,3.307,3.307,0,0,1,.454,1.679c-.039.294-.08.589-.118.883a3.327,3.327,0,0,1-4.092,2.324Z" transform="translate(-342.838 -408.267)" fill="#ff61ac"/>
            <path id="Trazado_166684" data-name="Trazado 166684" d="M344.089,417.483c-.125-.162-.251-.324-.376-.488-.007-.008-.013-.016-.019-.024Z" transform="translate(-343.197 -411.912)" fill="#ff61ac"/>
          </g>
          <path id="Trazado_166685" data-name="Trazado 166685" d="M343.856,414.26l.019.025a3.327,3.327,0,0,0,5.56-1.469c.039-.294.079-.589.118-.883a3.3,3.3,0,0,0-.27-1.309c-.053,1.711-.951,3.322-3,2.959-2.509-.444-2.686-2.941-1.614-4.692-.06.03-.12.059-.177.092a3.335,3.335,0,0,0-.675,5.24A.308.308,0,0,1,343.856,414.26Zm-.52-.673c.006.008.012.016.019.024.125.164.251.326.376.488Z" transform="translate(-342.838 -408.528)" fill="#e5489a"/>
        </g>
        <g id="Grupo_59876" data-name="Grupo 59876" transform="translate(70.044 66.803)">
          <path id="Trazado_166686" data-name="Trazado 166686" d="M163.338,145.715a3.351,3.351,0,1,0-3.35,3.351A3.382,3.382,0,0,0,163.338,145.715Z" transform="translate(-156.637 -142.364)" fill="#ff61ac"/>
          <path id="Trazado_166687" data-name="Trazado 166687" d="M163.338,146.188a3.279,3.279,0,0,0-.3-1.366,3.2,3.2,0,0,1-2.636,2.942,2.362,2.362,0,0,1-2.56-1.187,3.123,3.123,0,0,1,.18-3.082,3.345,3.345,0,1,0,5.318,2.694Z" transform="translate(-156.637 -142.837)" fill="#e5489a"/>
        </g>
      </g>
    </g>
  </g>
</svg>
