<svg xmlns="http://www.w3.org/2000/svg" xmlns:xlink="http://www.w3.org/1999/xlink" width="190" height="160" viewBox="0 0 190 160">
  <defs>
    <clipPath id="clip-path">
      <rect id="Rect치ngulo_35215" data-name="Rect치ngulo 35215" width="190" height="160" transform="translate(285 7468)" fill="none" stroke="#707070" stroke-width="1"/>
    </clipPath>
  </defs>
  <g id="Enmascarar_grupo_60" data-name="Enmascarar grupo 60" transform="translate(-285 -7468)" clip-path="url(#clip-path)">
    <g id="Grupo_62457" data-name="Grupo 62457">
      <path id="Rect치ngulo_35214" data-name="Rect치ngulo 35214" d="M21,0H169a21,21,0,0,1,21,21v88a0,0,0,0,1,0,0H0a0,0,0,0,1,0,0V21A21,21,0,0,1,21,0Z" transform="translate(285 7518.704)" fill="#bbabf5" opacity="0.3"/>
      <g id="Grupo_62458" data-name="Grupo 62458" transform="translate(-3727.55 6932.065)">
        <path id="Trazado_167672" data-name="Trazado 167672" d="M4042.874,695.638l-4.559-.064q-.01-29.316.018-58.632c0-1.469-.424-1.776-1.79-1.729-2.971.1-2.973.032-2.973-2.991,0-3.4.03-6.8-.02-10.2-.012-.835.2-1.071,1.045-1.059,1.2.017,2.857.564,3.5-.239.6-.76.193-2.341.2-3.561q.147-18.3,16.385-26.734c.753-.392,1.56-.68,2.5-1.084-4.823-3.853-7.324-8.72-6.9-14.841a16.082,16.082,0,0,1,5.324-10.981,16.642,16.642,0,0,1,23.008.364c5.732,5.545,7.971,17.447-1.9,25.488a29.738,29.738,0,0,1,8.423,4.883c.329.273.567.139.835-.068a31.83,31.83,0,0,1,10.291-5.279c-5.617-4.516-8.417-10.154-7.879-17.192a18.385,18.385,0,0,1,6.215-12.474,18.948,18.948,0,0,1,25.412-.088,18.5,18.5,0,0,1,6.358,15.142c-.286,6.006-3.088,10.765-7.927,14.609a31.3,31.3,0,0,1,10.3,5.285c.441.342.714.173,1.056-.107a28.242,28.242,0,0,1,8.314-4.717c-5.309-4.363-7.783-9.782-6.649-16.559a15.887,15.887,0,0,1,6.069-10.139,16.521,16.521,0,0,1,22.344,1.586,16.194,16.194,0,0,1,4.538,13.067,16.678,16.678,0,0,1-6.911,12.008,30.891,30.891,0,0,1,6.4,3.333c8.187,5.825,12.327,13.777,12.51,23.806.022,1.224.031,2.449-.007,3.672-.02.642.18.891.848.86,1.041-.048,2.086.018,3.128-.025.592-.025.775.161.771.762q-.034,6.393,0,12.787c0,.643-.269.745-.81.728-.951-.031-1.908.042-2.855-.024-.808-.056-1.176.154-1.088,1.035.072.718.015,1.449.015,2.175l-.021,57.135-4.795-.035q.006-29.236.007-58.473c0-2.095.268-1.826-1.777-1.826q-62.544-.008-125.087-.041c-1.449,0-1.668.439-1.665,1.741q.06,29.3.025,58.609A.467.467,0,0,0,4042.874,695.638Zm64.433-65.113h66.1c3.009,0,3.009,0,3.011-3.071,0-1.747,0-1.747-1.746-1.747H4041.517c-3.235,0-3.169,0-3.26,3.288-.036,1.282.369,1.557,1.587,1.555Q4073.576,630.5,4107.307,630.526Zm14.311-57.113a14.262,14.262,0,1,0-14.322,14.2A14.333,14.333,0,0,0,4121.618,573.412Zm-57.234,47.579c2.855,0,5.71-.027,8.564.017.816.013,1.112-.208,1.09-1.059a30.726,30.726,0,0,1,7.458-21.423c.423-.5.435-.8-.106-1.2a30.033,30.033,0,0,0-4.282-2.619c-.64-.32-.884-.233-1.153.478-1.626,4.3-4.935,6.732-9.049,6.748s-7.493-2.444-9.084-6.711c-.294-.789-.582-.8-1.249-.469a24.536,24.536,0,0,0-8.569,6.974c-4.317,5.5-5.261,11.88-4.916,18.611.036.7.444.654.91.653,1.722-.005,3.445-.048,5.165.014.827.03,1.089-.19,1.076-1.047-.05-3.262-.038-6.526-.01-9.789.01-1.121-.495-2.6.2-3.271.748-.725,2.241-.114,3.4-.245,1-.113,1.194.313,1.183,1.228-.046,3.942.012,7.886-.043,11.828-.014.992.211,1.335,1.266,1.3C4058.945,620.939,4061.666,620.992,4064.384,620.991Zm85.865,0c2.812,0,5.623-.034,8.433.02.858.017,1.073-.257,1.063-1.077-.042-3.219-.018-6.439-.018-9.659,0-3.674,0-3.638,3.676-3.632.931,0,1.111.3,1.1,1.159-.042,4.036,0,8.072-.034,12.108-.006.773.107,1.143,1.016,1.1,1.719-.077,3.447-.067,5.167,0,.825.031.993-.288.969-1.023-.047-1.45,0-2.9-.024-4.353a23.851,23.851,0,0,0-16.479-22.056c-1.758-.549-1.755-.549-1.562,1.357.466,4.6.912,9.2,1.409,13.8a2.347,2.347,0,0,1-.794,2.15q-2.849,2.727-5.583,5.572c-.578.6-.921.624-1.51.013-1.823-1.895-3.678-3.761-5.583-5.571a2.439,2.439,0,0,1-.8-2.273c.521-4.777.963-9.562,1.476-14.34.1-.944-.134-1.214-1.064-.926a25.789,25.789,0,0,0-7.724,3.908c-.571.42-.62.746-.147,1.3a31.737,31.737,0,0,1,2.228,2.914,30.31,30.31,0,0,1,5.187,17.988c-.031,1.265.349,1.588,1.575,1.545C4144.9,620.925,4147.574,620.991,4150.25,620.994Zm-2.458-33.381a11.876,11.876,0,1,0-11.864-11.971A11.862,11.862,0,0,0,4147.792,587.613Zm-80.887-23.755a11.878,11.878,0,1,0,11.874,11.826A11.867,11.867,0,0,0,4066.905,563.858Zm23.8,50.024c0,2,.043,3.992-.019,5.985-.029.912.288,1.153,1.165,1.139,2.764-.046,5.531-.012,8.3-.011,1.584,0,1.6-.006,1.122-1.534-2.412-7.74-4.849-15.472-7.229-23.221-.325-1.06-.69-1.135-1.6-.6-9.31,5.494-13.8,13.661-13.671,24.434.008.7.228.952.939.935,1.722-.042,3.447-.062,5.167,0,.875.031,1.06-.32,1.051-1.11-.035-3.219-.019-6.439-.02-9.658,0-3.836,0-3.816,3.883-3.587.718.042.934.288.924.974C4090.687,609.71,4090.706,611.8,4090.7,613.882Zm38.1,0c0,2.038.013,4.077-.008,6.116-.006.625.066,1.032.862,1.013,1.811-.043,3.623-.032,5.435,0,.66.011.843-.25.853-.88.159-10.235-3.919-18.236-12.562-23.811-2.209-1.425-2.256-1.374-3.049,1.147-2.321,7.381-4.618,14.769-6.961,22.142-.351,1.105-.2,1.469,1.064,1.423,2.759-.1,5.526-.075,8.288-.009,1.007.024,1.319-.25,1.3-1.282-.06-3.986-.008-7.973-.039-11.959-.006-.79.177-1.18,1.047-1.123a21.075,21.075,0,0,0,2.716,0c.855-.055,1.083.3,1.065,1.107C4128.768,609.8,4128.8,611.839,4128.8,613.878Zm-24.809-1.659c.812,2.577,1.7,5.516,2.682,8.422.216.639,1.275.533,1.446-.169.919-3.766,3.018-7.22,2.271-11.42-.91-5.122-1.36-10.326-2.018-15.493-.077-.6-.055-1.187-1.043-1.184-1.04,0-.89.675-.99,1.24-.126.713-.188,1.437-.279,2.156Zm41.684-5.493c-.691,1.558.8,2.331,1.762,3.348a.519.519,0,0,0,.6.162,4.446,4.446,0,0,0,1.961-3.143q-.658-6.757-1.331-13.513c-.051-.515.04-1.123-.795-1.158-.937-.039-.838.65-.895,1.2C4146.544,597.9,4146.125,602.178,4145.673,606.726Zm-78.748-9.594a4.763,4.763,0,0,0,4.471-3.312c.184-.644.112-1-.658-1.109a26.105,26.105,0,0,0-7.677,0c-.721.109-.9.338-.69,1.055A4.719,4.719,0,0,0,4066.925,597.132Zm33.411,3.364.321-.016c.229-1.767.469-3.533.683-5.3.332-2.751.175-2.857-2.51-2-.526.169-.73.278-.519.9C4099.028,596.205,4099.667,598.356,4100.336,600.5Zm13.714-.012h.316c.678-2.154,1.323-4.319,2.052-6.455.245-.716-.168-.8-.617-.847-.89-.088-1.743-.795-2.673-.18-.04.026-.009.173,0,.262Q4113.589,596.874,4114.05,600.484Z" fill="#050405"/>
        <path id="Trazado_167673" data-name="Trazado 167673" d="M4068.535,911.622q0-29.3-.025-58.609c0-1.3.216-1.743,1.665-1.741q62.544.07,125.087.041c2.044,0,1.776-.269,1.776,1.826q.007,29.236-.006,58.473c-2.175.017-4.35.048-6.524.048q-60.444,0-120.888,0C4069.259,911.657,4068.9,911.634,4068.535,911.622Zm64.261-3.171q28.972,0,57.942.032c1.334,0,1.622-.356,1.618-1.649q-.073-24.622-.005-49.244c0-1.192-.281-1.5-1.489-1.5q-58.078.051-116.156,0c-1.233,0-1.482.348-1.479,1.516q.059,24.622,0,49.244c0,1.315.321,1.637,1.631,1.634Q4103.826,908.413,4132.8,908.451Z" transform="translate(-25.437 -216.07)" fill="#cd9d6b"/>
        <path id="Trazado_167674" data-name="Trazado 167674" d="M4119.874,821.238q-33.732,0-67.463.026c-1.219,0-1.623-.273-1.588-1.555.091-3.286.025-3.288,3.26-3.288h133.158c1.747,0,1.747,0,1.746,1.747,0,3.071,0,3.071-3.01,3.071Z" transform="translate(-12.566 -190.713)" fill="#ab7445"/>
        <path id="Trazado_167675" data-name="Trazado 167675" d="M4280.665,586.106a14.263,14.263,0,1,1-14.208-14.352A14.263,14.263,0,0,1,4280.665,586.106Z" transform="translate(-159.046 -12.694)" fill="#eccdb2"/>
        <path id="Trazado_167676" data-name="Trazado 167676" d="M4089.688,728.441c-2.719,0-5.439-.052-8.156.026-1.054.031-1.28-.312-1.266-1.3.055-3.942,0-7.886.043-11.828.011-.915-.185-1.341-1.183-1.228-1.156.131-2.65-.48-3.4.245-.69.669-.186,2.15-.2,3.271-.028,3.263-.04,6.527.01,9.789.013.857-.249,1.077-1.076,1.047-1.719-.062-3.443-.02-5.165-.014-.466,0-.874.046-.91-.653-.346-6.732.6-13.115,4.916-18.611a24.536,24.536,0,0,1,8.569-6.974c.667-.328.955-.32,1.249.469,1.591,4.267,4.967,6.726,9.084,6.711s7.423-2.45,9.049-6.748c.269-.711.513-.8,1.153-.477a30.044,30.044,0,0,1,4.282,2.619c.542.4.53.7.106,1.2a30.726,30.726,0,0,0-7.458,21.423c.022.851-.273,1.072-1.09,1.059C4095.4,728.414,4092.543,728.441,4089.688,728.441Z" transform="translate(-25.304 -107.449)" fill="#e3e5ea"/>
        <path id="Trazado_167677" data-name="Trazado 167677" d="M4415.658,725.017c-2.675,0-5.353-.067-8.025.027-1.226.043-1.606-.281-1.575-1.545a30.309,30.309,0,0,0-5.187-17.988,31.737,31.737,0,0,0-2.228-2.914c-.473-.556-.424-.881.147-1.3a25.789,25.789,0,0,1,7.724-3.908c.931-.288,1.165-.018,1.064.926-.512,4.778-.954,9.563-1.476,14.34a2.439,2.439,0,0,0,.8,2.273c1.905,1.811,3.76,3.677,5.583,5.571.588.612.932.588,1.51-.013q2.734-2.842,5.583-5.573a2.347,2.347,0,0,0,.794-2.15c-.5-4.6-.943-9.2-1.409-13.8-.193-1.906-.2-1.906,1.563-1.357a23.851,23.851,0,0,1,16.479,22.056c.021,1.451-.023,2.9.024,4.353.024.734-.144,1.053-.969,1.023-1.72-.064-3.448-.074-5.167,0-.909.041-1.022-.329-1.016-1.1.033-4.036-.008-8.072.034-12.108.009-.856-.171-1.157-1.1-1.159-3.676-.006-3.676-.042-3.676,3.632,0,3.22-.023,6.44.018,9.659.01.82-.205,1.094-1.063,1.077C4421.281,724.984,4418.469,725.018,4415.658,725.017Z" transform="translate(-265.408 -104.025)" fill="#e1e4e8"/>
        <path id="Trazado_167678" data-name="Trazado 167678" d="M4421.252,613.13a11.876,11.876,0,1,1,11.911-11.784A11.884,11.884,0,0,1,4421.252,613.13Z" transform="translate(-273.46 -25.517)" fill="#eccdb2"/>
        <path id="Trazado_167679" data-name="Trazado 167679" d="M4124.2,589.365a11.878,11.878,0,1,1-11.9,11.791A11.886,11.886,0,0,1,4124.2,589.365Z" transform="translate(-57.299 -25.507)" fill="#eccdb2"/>
        <path id="Trazado_167680" data-name="Trazado 167680" d="M4211.486,723.409c0-2.086-.018-4.172.012-6.257.01-.687-.206-.932-.924-.974-3.884-.229-3.884-.249-3.883,3.587,0,3.219-.016,6.439.02,9.658.009.79-.176,1.141-1.051,1.11-1.721-.06-3.446-.041-5.167,0-.711.017-.931-.23-.939-.935-.13-10.773,4.36-18.94,13.671-24.434.905-.534,1.271-.46,1.6.6,2.38,7.75,4.816,15.482,7.229,23.221.476,1.528.462,1.535-1.122,1.534-2.765,0-5.531-.035-8.3.011-.876.015-1.193-.226-1.165-1.139C4211.528,727.4,4211.484,725.4,4211.486,723.409Z" transform="translate(-120.782 -109.528)" fill="#50bce2"/>
        <path id="Trazado_167681" data-name="Trazado 167681" d="M4341.56,723.566c0-2.039-.031-4.078.016-6.115.018-.809-.21-1.162-1.065-1.107a21.075,21.075,0,0,1-2.716,0c-.871-.057-1.054.333-1.047,1.123.031,3.986-.021,7.973.039,11.959.015,1.033-.3,1.306-1.3,1.282-2.761-.067-5.528-.091-8.288.009-1.267.046-1.416-.318-1.064-1.423,2.343-7.374,4.64-14.762,6.961-22.142.793-2.521.839-2.572,3.049-1.147,8.643,5.574,12.721,13.576,12.562,23.811-.01.631-.193.892-.853.88-1.812-.031-3.624-.042-5.435,0-.8.019-.868-.388-.862-1.013C4341.573,727.643,4341.56,725.6,4341.56,723.566Z" transform="translate(-212.762 -109.688)" fill="#50bce2"/>
        <path id="Trazado_167682" data-name="Trazado 167682" d="M4292.138,713.9c.723-5.754,1.4-11.1,2.068-16.448.09-.719.153-1.443.28-2.156.1-.564-.051-1.236.989-1.24.988,0,.966.579,1.043,1.184.658,5.167,1.108,10.371,2.018,15.493.747,4.2-1.352,7.654-2.271,11.42-.171.7-1.23.808-1.446.169C4293.837,719.417,4292.95,716.478,4292.138,713.9Z" transform="translate(-188.149 -101.681)" fill="#f5e2a4"/>
        <path id="Trazado_167683" data-name="Trazado 167683" d="M4444.688,708.529c.452-4.548.871-8.827,1.308-13.1.056-.55-.042-1.239.895-1.2.834.035.744.643.795,1.158q.675,6.755,1.331,13.513a4.446,4.446,0,0,1-1.961,3.143.519.519,0,0,1-.6-.162C4445.484,710.86,4444,710.086,4444.688,708.529Z" transform="translate(-299.016 -101.802)" fill="#ee7e6c"/>
        <path id="Trazado_167684" data-name="Trazado 167684" d="M4143.693,698.955a4.718,4.718,0,0,1-4.554-3.364c-.206-.716-.032-.945.69-1.054a26.105,26.105,0,0,1,7.677,0c.77.111.842.465.658,1.109A4.764,4.764,0,0,1,4143.693,698.955Z" transform="translate(-76.768 -101.823)" fill="#eccdb2"/>
        <path id="Trazado_167685" data-name="Trazado 167685" d="M4273.1,703.056c-.669-2.14-1.308-4.29-2.026-6.413-.211-.624-.007-.732.52-.9,2.685-.86,2.841-.754,2.51,2-.213,1.769-.454,3.535-.683,5.3Z" transform="translate(-172.76 -102.56)" fill="#eccdb2"/>
        <path id="Trazado_167686" data-name="Trazado 167686" d="M4326.557,703.176q-.46-3.61-.919-7.219c-.012-.089-.043-.235,0-.262.93-.615,1.783.092,2.673.18.449.044.862.131.617.847-.729,2.136-1.374,4.3-2.052,6.455Z" transform="translate(-212.507 -102.692)" fill="#eccdb2"/>
        <path id="Trazado_167687" data-name="Trazado 167687" d="M4145.388,921.311q-28.972,0-57.942.031c-1.311,0-1.635-.319-1.631-1.634q.073-24.622,0-49.244c0-1.168.246-1.518,1.479-1.516q58.078.055,116.156,0c1.208,0,1.492.309,1.489,1.5q-.062,24.622.005,49.244c0,1.294-.284,1.653-1.619,1.649Q4174.358,921.273,4145.388,921.311Zm.041-47.613a21.445,21.445,0,1,0,21.4,21.424A21.526,21.526,0,0,0,4145.428,873.7Zm-15.162,0c-7.7,0-14.995.013-22.287-.018-.844,0-.9.427-1.02,1.067A18.935,18.935,0,0,1,4091.7,890c-.884.168-1.08.521-1.067,1.329.04,2.537.057,5.077-.007,7.614-.024.942.332,1.184,1.2,1.349a18.914,18.914,0,0,1,15.086,15.1c.18,1,.517,1.218,1.46,1.213,6.752-.04,13.5-.022,20.257-.023h1.658c-7.205-5.6-11.044-12.6-11.054-21.431S4123.091,879.325,4130.266,873.7Zm30.348,42.893c7.535,0,14.786-.007,22.038.012.7,0,1-.166,1.145-.936a18.859,18.859,0,0,1,15.141-15.368c.913-.183,1.2-.566,1.188-1.438-.034-2.494-.047-4.989.007-7.481.02-.9-.248-1.223-1.165-1.393a18.885,18.885,0,0,1-15.122-15.072c-.177-.969-.467-1.247-1.441-1.241-6.891.043-13.782.021-20.674.031-.28,0-.643-.18-.836.216C4174.848,884,4175.351,905.9,4160.614,916.59Zm39.5-37.053c0-1.586-.034-3.172.015-4.756.025-.789-.158-1.121-1.038-1.108-3.17.05-6.341.039-9.511,0-.848-.01-1.161.2-.911,1.087a14.307,14.307,0,0,0,10.554,10.471c.829.233.907-.15.9-.806C4200.1,882.8,4200.112,881.168,4200.112,879.537Zm0,31.231c0-1.677-.019-3.354.009-5.031.011-.686-.208-.834-.885-.7-4.9.987-9.7,5.788-10.6,10.6-.138.737.054.966.8.961,3.262-.026,6.525-.031,9.788,0,.737.008.924-.261.907-.947C4200.087,914.032,4200.113,912.4,4200.112,910.768Zm-109.466-.036c0,1.586.053,3.175-.02,4.757-.042.925.3,1.135,1.162,1.122,3.126-.045,6.253-.053,9.378,0,1.022.019,1.14-.342.892-1.2a14.238,14.238,0,0,0-10.243-10.283c-.873-.259-1.232-.185-1.185.845C4090.7,907.558,4090.649,909.147,4090.646,910.733Zm0-31.18c0,1.54.068,3.085-.022,4.62-.069,1.169.337,1.249,1.32.947a14.244,14.244,0,0,0,10.109-10.244c.246-.856.135-1.22-.891-1.2-3.17.056-6.341.038-9.512,0-.755-.009-1.045.194-1.02.986C4090.685,876.289,4090.648,877.922,4090.649,879.552Z" transform="translate(-38.027 -228.932)" fill="#040402"/>
        <path id="Trazado_167688" data-name="Trazado 167688" d="M4247.268,886.388a21.445,21.445,0,1,1-21.488,21.463A21.539,21.539,0,0,1,4247.268,886.388Zm2.381,4.883c-1.636.03-3.3-.491-4.9.271-.542.974-.173,2.023-.223,3.034-.037.744-.256,1.054-1.027,1.03-1.577-.05-3.156-.013-4.732-.072-.35-.013-.616-.081-.754.31-.473.258-.306.713-.309,1.092-.015,2.036-.027,4.073,0,6.109a7.158,7.158,0,0,0,7.154,7.185c1.176.025,2.353,0,3.529.006,2.988,0,3.885,1.015,3.6,3.965-.056.59-.25.768-.819.76-2.126-.026-4.253,0-6.38-.023a1.9,1.9,0,0,1-1.964-1.195c-.333-1.185-1.088-1.225-2.033-1.166a9.9,9.9,0,0,1-1.763-.007c-1.191-.14-1.484.3-1.2,1.447.8,3.289,3.018,5.01,6.156,5.779a3.025,3.025,0,0,1,.549,1.862c.028.817-.3,1.682.222,2.456,1.007.779,2.17.174,3.243.365,1.249.223,1.86-.174,1.646-1.561-.109-.708.026-1.451-.03-2.172-.059-.749.172-1.031.965-1,1.675.056,3.355-.026,5.03.034.855.031,1.191-.173,1.158-1.106-.073-2.038,0-4.079-.031-6.119a7.145,7.145,0,0,0-7.1-7.114c-1.5-.031-2.991-.022-4.487,0a2.425,2.425,0,0,1-2.141-1.117c-.7-.923-.447-1.884-.536-2.845-.055-.6.216-.776.79-.769,2.13.026,4.26,0,6.39.021a1.9,1.9,0,0,1,1.956,1.214c.338,1.2,1.11,1.206,2.052,1.15a10.46,10.46,0,0,1,1.9.011c1.134.141,1.291-.367,1.079-1.332-.682-3.121-2.733-4.883-5.647-5.824-1.017-.357-1.082-1.149-1.086-2.084C4249.9,893,4250.243,892.079,4249.648,891.271Z" transform="translate(-139.866 -241.622)" fill="#f7d36f"/>
        <path id="Trazado_167689" data-name="Trazado 167689" d="M4143.121,886.336c-7.175,5.628-11.037,12.615-11.028,21.459s3.849,15.831,11.054,21.431h-1.658c-6.752,0-13.5-.017-20.257.023-.943.005-1.28-.211-1.46-1.213a18.914,18.914,0,0,0-15.085-15.1c-.873-.165-1.229-.407-1.2-1.349.064-2.537.047-5.076.007-7.614-.013-.808.184-1.161,1.067-1.329a18.935,18.935,0,0,0,15.257-15.256c.121-.64.176-1.071,1.02-1.067C4128.126,886.349,4135.419,886.336,4143.121,886.336Z" transform="translate(-50.882 -241.571)" fill="#b2da7e"/>
        <path id="Trazado_167690" data-name="Trazado 167690" d="M4360.411,929.187c14.737-10.686,14.234-32.591.28-42.671.193-.4.556-.215.836-.215,6.892-.011,13.783.012,20.674-.031.974-.006,1.264.272,1.441,1.241a18.885,18.885,0,0,0,15.122,15.072c.917.17,1.184.5,1.164,1.392-.054,2.493-.041,4.988-.007,7.481.012.872-.274,1.255-1.187,1.438a18.86,18.86,0,0,0-15.141,15.368c-.145.769-.441.938-1.145.936C4375.2,929.18,4367.946,929.187,4360.411,929.187Z" transform="translate(-237.824 -241.529)" fill="#b2da7e"/>
        <path id="Trazado_167691" data-name="Trazado 167691" d="M4474.619,892.161c0,1.631-.015,3.262.007,4.892.009.656-.069,1.039-.9.806a14.307,14.307,0,0,1-10.554-10.471c-.25-.884.063-1.1.911-1.087,3.17.036,6.341.046,9.511,0,.88-.014,1.063.319,1.038,1.108C4474.585,888.989,4474.619,890.575,4474.619,892.161Z" transform="translate(-312.534 -241.555)" fill="#9dce67"/>
        <path id="Trazado_167692" data-name="Trazado 167692" d="M4474.64,1007.054c0,1.631-.025,3.264.013,4.894.017.686-.171.954-.908.947-3.262-.035-6.525-.03-9.788,0-.743.006-.935-.224-.8-.961.9-4.817,5.705-9.618,10.6-10.6.677-.136.9.011.885.7C4474.62,1003.7,4474.64,1005.376,4474.64,1007.054Z" transform="translate(-312.554 -325.216)" fill="#9dce67"/>
        <path id="Trazado_167693" data-name="Trazado 167693" d="M4103.492,1007.042c0-1.586.055-3.174-.018-4.757-.047-1.03.313-1.1,1.185-.845a14.237,14.237,0,0,1,10.243,10.283c.249.861.13,1.222-.892,1.2-3.125-.057-6.252-.049-9.378,0-.865.013-1.2-.2-1.162-1.122C4103.543,1010.217,4103.491,1008.628,4103.492,1007.042Z" transform="translate(-50.872 -325.241)" fill="#9dce67"/>
        <path id="Trazado_167694" data-name="Trazado 167694" d="M4103.484,892.174c0-1.631.036-3.263-.016-4.892-.025-.792.265-1,1.02-.986,3.17.037,6.342.055,9.512,0,1.026-.018,1.137.346.891,1.2a14.243,14.243,0,0,1-10.108,10.244c-.983.3-1.389.222-1.319-.947C4103.554,895.258,4103.485,893.714,4103.484,892.174Z" transform="translate(-50.863 -241.553)" fill="#9dce67"/>
        <path id="Trazado_167695" data-name="Trazado 167695" d="M4275.767,932.449c-3.137-.77-5.355-2.49-6.155-5.779-.279-1.149.013-1.588,1.205-1.447a9.9,9.9,0,0,0,1.763.007c.944-.059,1.7-.02,2.032,1.166a1.9,1.9,0,0,0,1.965,1.195c2.126.024,4.253,0,6.38.023.57.007.763-.171.819-.76.282-2.95-.614-3.962-3.6-3.965-1.176,0-2.354.019-3.529-.006a7.157,7.157,0,0,1-7.153-7.185c-.025-2.036-.014-4.073,0-6.109,0-.379-.165-.835.308-1.092.9.016,1.8.077,2.7.038,1.334-.057,3.218.6,3.858-.271.668-.906.165-2.675.174-4.068,1.6-.763,3.261-.242,4.9-.272,0,1.13.083,2.27-.032,3.389-.118,1.153.381,1.43,1.375,1.284,2.914.941,4.965,2.7,5.647,5.824.211.965.055,1.472-1.08,1.332a10.459,10.459,0,0,0-1.9-.011c-.942.057-1.713.047-2.052-1.15a1.9,1.9,0,0,0-1.956-1.214c-2.13-.019-4.261,0-6.391-.021-.574-.007-.845.169-.79.769.089.961-.165,1.923.536,2.845a2.425,2.425,0,0,0,2.141,1.117c1.5-.02,2.992-.029,4.487,0a7.146,7.146,0,0,1,7.1,7.114c.034,2.039-.042,4.081.03,6.119.033.933-.3,1.137-1.158,1.106-1.675-.06-3.355.022-5.03-.034-.792-.027-1.023.255-.965,1,.056.721-.079,1.464.03,2.172.213,1.387-.4,1.784-1.646,1.561-1.073-.191-2.236.414-3.243-.365.017-1.172.012-2.346.059-3.518C4276.622,932.622,4276.461,932.284,4275.767,932.449Z" transform="translate(-171.652 -254.274)" fill="#090703"/>
        <path id="Trazado_167696" data-name="Trazado 167696" d="M4277.431,905.31c-.009,1.392.494,3.162-.174,4.068-.64.868-2.523.214-3.858.271-.9.038-1.8-.022-2.7-.038.138-.391.4-.323.754-.31,1.576.059,3.156.022,4.732.072.771.025.99-.286,1.027-1.03C4277.258,907.333,4276.889,906.284,4277.431,905.31Z" transform="translate(-172.546 -255.389)" fill="#f5e2a4"/>
        <path id="Trazado_167697" data-name="Trazado 167697" d="M4314.614,908.984c-.994.146-1.493-.131-1.375-1.284.115-1.119.03-2.258.032-3.389.595.808.251,1.73.256,2.589C4313.532,907.836,4313.6,908.627,4314.614,908.984Z" transform="translate(-203.489 -254.663)" fill="#f5e2a4"/>
        <path id="Trazado_167698" data-name="Trazado 167698" d="M4292.6,1008.925c.694-.166.855.173.83.8-.047,1.172-.042,2.346-.059,3.518-.522-.775-.194-1.639-.222-2.456A3.022,3.022,0,0,0,4292.6,1008.925Z" transform="translate(-188.484 -330.749)" fill="#f5e2a4"/>
      </g>
    </g>
  </g>
</svg>
