<svg xmlns="http://www.w3.org/2000/svg" xmlns:xlink="http://www.w3.org/1999/xlink" width="343" height="241.674" viewBox="0 0 343 241.674">
  <defs>
    <clipPath id="clip-path">
      <path id="Trazado_167615" data-name="Trazado 167615" d="M393.266,470.285H411.51c15.686,0,28.519,13.885,28.519,30.856S427.2,532,411.51,532h-268.3c-25.4,0-46.18-22.483-46.18-49.964s20.78-49.965,46.18-49.965c10.738,0,20.452-9.508,20.452-21.127s-8.786-21.126-19.525-21.126H133.092c-11.165,0-20.3-9.884-20.3-21.965s9.135-21.965,20.3-21.965H164.56c4.348,0,7.9-3.848,7.9-8.551s-3.556-8.552-7.9-8.552h-5.238a5.707,5.707,0,0,1-5.455-5.9h0a5.708,5.708,0,0,1,5.455-5.9h32.621c7.239,0,8.045,9.253,26.332,9.253h39.3c3.914,0,7.117,3.466,7.117,7.7h0c0,4.235-3.2,7.7-7.117,7.7h-6.836c-5.672,0-10.312,5.022-10.312,11.159s4.641,11.157,10.312,11.157h10.287c27.778,0,31.7,7.855,36.566,23.477s33.911,16.881,33.911,16.881h34.548c8.548,0,15.542,7.567,15.542,16.816s-6.994,16.815-15.542,16.815h-1.778c-8.222,0-14.949,7.278-14.949,16.174S385.044,470.285,393.266,470.285Zm-249.251-141.5a5.92,5.92,0,1,0-5.454-5.9A5.691,5.691,0,0,0,144.015,328.783Z" transform="translate(-97.029 -316.98)" fill="none" clip-rule="evenodd"/>
    </clipPath>
    <linearGradient id="linear-gradient" x1="0.5" y1="1.628" x2="0.5" y2="-0.366" gradientUnits="objectBoundingBox">
      <stop offset="0" stop-color="#bbabf5"/>
      <stop offset="0.892" stop-color="#eef8fe"/>
      <stop offset="1" stop-color="#fff"/>
    </linearGradient>
  </defs>
  <g id="Grupo_62448" data-name="Grupo 62448" transform="translate(-97.029 -186.257)">
    <g id="Grupo_62447" data-name="Grupo 62447" transform="translate(97.029 212.865)">
      <g id="Grupo_62446" data-name="Grupo 62446" transform="translate(0)" clip-path="url(#clip-path)">
        <rect id="Rectángulo_35193" data-name="Rectángulo 35193" width="343" height="215.018" transform="translate(0 0)" fill="url(#linear-gradient)"/>
      </g>
    </g>
    <path id="Trazado_167616" data-name="Trazado 167616" d="M424.1,659.208s51.65-31.176,56.285-33.229,12.2,4.844-.267,14.142-47.7,33.776-47.7,33.776Z" transform="translate(-260.5 -349.928)" fill="#f8ac88"/>
    <path id="Trazado_167617" data-name="Trazado 167617" d="M462.085,767.065s55.757-23.039,60.648-24.37,11.326,6.626-2.394,13.941S468.1,782.841,468.1,782.841Z" transform="translate(-290.749 -443.059)" fill="#f8ac88"/>
    <path id="Trazado_167618" data-name="Trazado 167618" d="M509.4,890.3s45.326-17.549,49.275-18.4,8.763,7.668-2.456,13.621-42.65,21.032-42.65,21.032Z" transform="translate(-328.431 -546.032)" fill="#f8ac88"/>
    <path id="Trazado_167619" data-name="Trazado 167619" d="M570.275,906.307c2.942-1.423,6.446-3.124,10.122-4.917,18.7-13.514,23.941-21.054,25.181-24.879L598.1,880.2c-4.529,3.786-13.323,10.211-27.387,16.861-.075,3.54.18,6.494-.438,9.246" transform="translate(-376.918 -549.754)" fill="#eb8b63"/>
    <path id="Trazado_167620" data-name="Trazado 167620" d="M557.41,1024.16l2.619-1.265Z" transform="translate(-366.671 -666.342)" fill="#beab9e"/>
    <path id="Trazado_167621" data-name="Trazado 167621" d="M557.41,1024.16l2.619-1.265Z" transform="translate(-366.671 -666.342)" fill="#eb8b63"/>
    <path id="Trazado_167622" data-name="Trazado 167622" d="M554.363,922.008l2.619-1.265c.619-2.752.364-5.705.438-9.246,14.065-6.65,22.859-13.075,27.387-16.861l-31.223,15.407a39.771,39.771,0,0,1,.928,8.54c0,1.2-.055,2.344-.149,3.425" transform="translate(-363.624 -564.19)" fill="#dd7246"/>
    <path id="Trazado_167623" data-name="Trazado 167623" d="M327.624,697.8l-4.692-59.185s5.743-18.988,7.19-21.691c5.693-3.677,44.407-19.235,44.407-19.235,13.307,9.72-22.1,21.068-31.134,26.4l.13,12.881Z" transform="translate(-179.921 -327.684)" fill="#fbc19b"/>
    <rect id="Rectángulo_35194" data-name="Rectángulo 35194" width="132.04" height="182.45" transform="translate(180.549 196.138)" fill="#eb9553"/>
    <path id="Trazado_167624" data-name="Trazado 167624" d="M507.347,417.251V234.8h132.04Z" transform="translate(-326.799 -38.662)" fill="#f8a76d"/>
    <path id="Trazado_167625" data-name="Trazado 167625" d="M1169.079,520.666h0m-.013,0h0Zm-.014,0h0Zm-.014,0h0Zm-.013,0h0Zm-.014,0h0Zm-.013,0h0Zm-.014,0h0Zm-.013,0h0Zm-.014,0h0Zm-.013,0h0Z" transform="translate(-853.728 -266.341)" fill="#838587"/>
    <path id="Trazado_167626" data-name="Trazado 167626" d="M547.537,277.855H658.468a3.232,3.232,0,0,1,3.223,3.223V436.122a3.232,3.232,0,0,1-3.223,3.223H547.537a3.232,3.232,0,0,1-3.223-3.223V281.078a3.232,3.232,0,0,1,3.223-3.223" transform="translate(-356.241 -72.953)" fill="#fff" fill-rule="evenodd"/>
    <path id="Trazado_167627" data-name="Trazado 167627" d="M350.385,808.009s10.311-20.593-8.052-42.3a97.611,97.611,0,0,0,1.772-14.117s20.544.494,18.754-12.266c-3.443-.418-7.613.107-12.4-.341-9.3-.869-19.771-1.681-23.7,5.908a169.847,169.847,0,0,0-10.974,25.552c-7.772,24.895-14.87,95.922-14.87,95.922h54.041Z" transform="translate(-162.382 -439.789)" fill="#fbc19b"/>
    <path id="Trazado_167628" data-name="Trazado 167628" d="M513.607,803.759h0m-.059,0h0Zm-.13,0c-.2,0-.3,0-.3,0S513.221,803.759,513.418,803.759Zm0,0h0Z" transform="translate(-331.392 -491.809)" fill="#687895"/>
    <path id="Trazado_167629" data-name="Trazado 167629" d="M484.57,870.88h11.6l-4.567-58.949a35.558,35.558,0,0,0,2.885-14.541c0-7.772-2.285-17.854-10.938-28.185q.273-1.531.492-2.9c.269-1.667.481-3.147.649-4.444a68.027,68.027,0,0,0,.631-6.921s.107,0,.3,0h.2c3.1-.025,19.437-.688,18.306-11.936,0-.009,0-.02,0-.029s0-.029,0-.045,0,0,0,0,0-.013,0-.02,0-.014,0-.022,0-.025,0-.036v-.009l-.008-.064c-.008-.067-.017-.133-.026-.2,0-.008,0-.016,0-.024l-.723-.085c.247,2.832-.591,10.947-18.319,10.946q-1.978,0-4.244-.14a11.042,11.042,0,0,0,2.6,1.967l-1.853,13.574-3.314.707a35.683,35.683,0,0,1,13.239,20.892,21.7,21.7,0,0,1-6.9,21.726Z" transform="translate(-303.604 -442.997)" fill="#eaad82"/>
    <rect id="Rectángulo_35195" data-name="Rectángulo 35195" width="61.892" height="21.496" transform="translate(135.527 404.383)" fill="#0094d9"/>
    <rect id="Rectángulo_35196" data-name="Rectángulo 35196" width="30.946" height="21.496" transform="translate(166.473 404.383)" fill="#0078ae"/>
    <path id="Trazado_167630" data-name="Trazado 167630" d="M721.467,189.189a3.474,3.474,0,1,1-3.474,3.474,3.474,3.474,0,0,1,3.474-3.474m-21.632,3.474H711.6c0-3.538,4.416-6.406,9.863-6.406s9.863,2.868,9.863,6.406H743.1a6.8,6.8,0,0,1,6.781,6.781v9.464H693.054v-9.464A6.8,6.8,0,0,1,699.835,192.663Z" transform="translate(-474.705)" fill="#0078ae" fill-rule="evenodd"/>
    <rect id="Rectángulo_35197" data-name="Rectángulo 35197" width="56.826" height="2.971" transform="translate(218.349 205.938)" fill="#00517f"/>
    <path id="Trazado_167631" data-name="Trazado 167631" d="M785.12,618.706h46.266a1.593,1.593,0,0,1,1.589,1.588h0a1.593,1.593,0,0,1-1.589,1.589H785.12a1.593,1.593,0,0,1-1.589-1.589h0a1.593,1.593,0,0,1,1.589-1.588m0,19.847h46.266a1.593,1.593,0,0,1,1.589,1.589h0a1.593,1.593,0,0,1-1.589,1.588H785.12a1.593,1.593,0,0,1-1.589-1.588h0A1.593,1.593,0,0,1,785.12,638.553Zm0,8.9h46.266a1.593,1.593,0,0,1,1.589,1.589h0a1.593,1.593,0,0,1-1.589,1.588H785.12a1.593,1.593,0,0,1-1.589-1.588h0A1.593,1.593,0,0,1,785.12,647.449Zm0,19.847h46.266a1.593,1.593,0,0,1,1.589,1.589h0a1.593,1.593,0,0,1-1.589,1.588H785.12a1.593,1.593,0,0,1-1.589-1.588h0A1.593,1.593,0,0,1,785.12,667.3Zm0,8.9h46.266a1.593,1.593,0,0,1,1.589,1.589h0a1.593,1.593,0,0,1-1.589,1.588H785.12a1.593,1.593,0,0,1-1.589-1.588h0A1.593,1.593,0,0,1,785.12,676.192Zm0-66.382h46.266a1.593,1.593,0,0,1,1.589,1.588h0a1.593,1.593,0,0,1-1.589,1.588H785.12a1.593,1.593,0,0,1-1.589-1.588h0A1.593,1.593,0,0,1,785.12,609.81Z" transform="translate(-546.766 -337.34)" fill="#bae5fa" fill-rule="evenodd"/>
    <path id="Trazado_167632" data-name="Trazado 167632" d="M1043.154,812.117c-2.236-33.026-24.291-56.462-43.75-88.847,12.278-5.319,23.881,3.743,28.363,14.513a10.533,10.533,0,0,0,7.644,6.294l-.863-39.725-16.589-19.689c-2.9-6.615,1.8-14.36,10.248-10.152,0,0,19.467,18.48,20.993,23.466l3.165,11.679c-1.863-4.249,14.224-8.784,13.766,5.774.155-6.724,11.1-5.912,12.134,2.492,1.361-3.05,7.216-1.684,8.852,5.465,2.654,11.594,2.491,42.932-1.142,51.869-3.974,9.775.264,18.593,1.951,36.861Z" transform="translate(-718.698 -387.918)" fill="#fbc19b"/>
    <path id="Trazado_167633" data-name="Trazado 167633" d="M1160.306,864.271a10.3,10.3,0,0,0,3.256,1.246l-.863-39.725s2.69,16.787,4.82,23.96,4.772,16.256,4.776,20.958-10.307,2.461-10.307,2.461Z" transform="translate(-846.849 -509.359)" fill="#eaad82"/>
    <path id="Trazado_167634" data-name="Trazado 167634" d="M1040,990.04c-7.188-24.506-24.75-44.941-40.592-71.307,0,0,19.221,22.284,29.981,40.554s14.235,30.486,14.235,30.486-1.634.125-3.624.267" transform="translate(-718.698 -583.382)" fill="#fcd8c0"/>
    <rect id="Rectángulo_35198" data-name="Rectángulo 35198" width="13.164" height="77.363" transform="translate(287.382 290.373) rotate(-18.796)" fill="#efe810"/>
    <rect id="Rectángulo_35199" data-name="Rectángulo 35199" width="5.901" height="77.363" transform="translate(290.821 289.202) rotate(-18.795)" fill="#f0d412"/>
    <path id="Trazado_167635" data-name="Trazado 167635" d="M1154.668,1040.966l12.463-4.241,2.6,7.652a6.582,6.582,0,1,1-12.462,4.242Z" transform="translate(-842.358 -677.357)" fill="#ff7961" fill-rule="evenodd"/>
    <path id="Trazado_167636" data-name="Trazado 167636" d="M1168.071,1076.8c-3.4,1.113-6.919-.2-7.853-2.942l-2.365-6.947,4.14.893s1.174,4.857,2.86,6.994a6.041,6.041,0,0,0,3.217,2" transform="translate(-844.895 -701.402)" fill="#ef6148" fill-rule="evenodd"/>
    <rect id="Rectángulo_35200" data-name="Rectángulo 35200" width="13.164" height="4.19" transform="matrix(0.947, -0.322, 0.322, 0.947, 312.31, 363.609)" fill="#d6e8f6"/>
    <path id="Trazado_167637" data-name="Trazado 167637" d="M1032.2,638.92l1.5-15.039,10.964,10.8Z" transform="translate(-744.817 -348.546)" fill="#fff2df" fill-rule="evenodd"/>
    <path id="Trazado_167638" data-name="Trazado 167638" d="M1037.313,628.467l.457-4.586,3.286,3.235Z" transform="translate(-748.891 -348.546)" fill="#00517f" fill-rule="evenodd"/>
    <path id="Trazado_167639" data-name="Trazado 167639" d="M1033.7,623.881l1.94,13.869-3.438,1.17Z" transform="translate(-744.817 -348.546)" fill="#e4d7c6" fill-rule="evenodd"/>
    <path id="Trazado_167640" data-name="Trazado 167640" d="M1037.769,623.881l.589,4.209-1.045.377Z" transform="translate(-748.891 -348.546)" fill="#00517f" fill-rule="evenodd"/>
    <rect id="Rectángulo_35201" data-name="Rectángulo 35201" width="3.632" height="4.191" transform="translate(312.31 363.61) rotate(-18.797)" fill="#b7d2e7"/>
    <rect id="Rectángulo_35202" data-name="Rectángulo 35202" width="3.632" height="4.19" transform="matrix(0.947, -0.322, 0.322, 0.947, 321.334, 360.538)" fill="#b7d2e7"/>
    <rect id="Rectángulo_35203" data-name="Rectángulo 35203" width="3.632" height="77.363" transform="translate(296.404 287.303) rotate(-18.8)" fill="#fbaa27"/>
    <rect id="Rectángulo_35204" data-name="Rectángulo 35204" width="3.632" height="77.363" transform="translate(296.404 287.303) rotate(-18.8)" fill="none" stroke="#eaad82" stroke-miterlimit="2.613" stroke-width="0.216"/>
    <path id="Trazado_167641" data-name="Trazado 167641" d="M1111.662,710.36l-7.866-.913-16.59-19.689c-1.667-3.8-.82-7.982,1.807-10.045-.166,1.055-.14,2.565,1.912,7.217s17.1,20.361,17.1,20.361l5.132-.315Z" transform="translate(-787.945 -393.014)" fill="#fbc19b"/>
    <rect id="Rectángulo_35205" data-name="Rectángulo 35205" width="61.892" height="21.16" transform="translate(312.85 404.383)" fill="#0094d9"/>
    <path id="Trazado_167642" data-name="Trazado 167642" d="M763.787,346.458a17.6,17.6,0,1,1-17.6,17.6,17.6,17.6,0,0,1,17.6-17.6" transform="translate(-517.025 -127.592)" fill="#ef5b72" fill-rule="evenodd"/>
    <path id="Trazado_167643" data-name="Trazado 167643" d="M767.775,375.61h7.566v-7.566a3.147,3.147,0,0,1,3.138-3.138h0a3.147,3.147,0,0,1,3.138,3.138v7.566h7.566a3.147,3.147,0,0,1,3.138,3.138h0a3.147,3.147,0,0,1-3.138,3.138h-7.566v7.565a3.148,3.148,0,0,1-3.138,3.139h0a3.147,3.147,0,0,1-3.138-3.139v-7.565h-7.566a3.148,3.148,0,0,1-3.138-3.138h0a3.147,3.147,0,0,1,3.138-3.138" transform="translate(-531.718 -142.285)" fill="#fff" fill-rule="evenodd"/>
    <rect id="Rectángulo_35206" data-name="Rectángulo 35206" width="74.957" height="14.107" transform="translate(305.006 413.776)" fill="#fff"/>
    <path id="Trazado_167644" data-name="Trazado 167644" d="M248.06,1304.022h74.957v14.107c-13.039-.5-31.033.031-46.258-.023-6.289-.022-11.323.234-16.123-.1a35.536,35.536,0,0,1-12.576-2.76Z" transform="translate(-120.289 -890.246)" fill="#fff" fill-rule="evenodd"/>
    <rect id="Rectángulo_35207" data-name="Rectángulo 35207" width="36.255" height="14.107" transform="translate(166.473 413.776)" fill="#e5f5fc"/>
    <path id="Trazado_167645" data-name="Trazado 167645" d="M647.455,588.278H634.864a2.887,2.887,0,0,0-2.882,2.882v12.592a2.891,2.891,0,0,0,2.882,2.882h12.592a2.887,2.887,0,0,0,2.882-2.882V591.16a2.887,2.887,0,0,0-2.882-2.882m-12.592-1.151h12.592a4.044,4.044,0,0,1,4.033,4.033v12.592a4.043,4.043,0,0,1-4.033,4.032H634.864a4.047,4.047,0,0,1-4.033-4.032V591.16a4.022,4.022,0,0,1,1.184-2.847l0,0A4.018,4.018,0,0,1,634.864,587.127Z" transform="translate(-425.147 -319.274)" fill="#bae5fa"/>
    <path id="Trazado_167646" data-name="Trazado 167646" d="M648.416,601.946a1.534,1.534,0,0,1,2.169-2.169c.945.945,2.918,3.239,4.154,4.695L666.2,593.009a1.534,1.534,0,0,1,2.169,2.168l-12.638,12.638,0,0-.1.094a1.528,1.528,0,0,1-2.151-.2c-.01-.012-3.63-4.335-5.057-5.763" transform="translate(-438.795 -323.601)" fill="#0094d9"/>
    <path id="Trazado_167647" data-name="Trazado 167647" d="M647.455,730.3H634.864a2.888,2.888,0,0,0-2.882,2.882v12.592a2.891,2.891,0,0,0,2.882,2.882h12.592a2.888,2.888,0,0,0,2.882-2.882V733.187a2.887,2.887,0,0,0-2.882-2.882m-12.592-1.151h12.592a4.043,4.043,0,0,1,4.033,4.033v12.592a4.043,4.043,0,0,1-4.033,4.033H634.864a4.047,4.047,0,0,1-4.033-4.033V733.187a4.019,4.019,0,0,1,1.184-2.846l0,0A4.021,4.021,0,0,1,634.864,729.154Z" transform="translate(-425.147 -432.391)" fill="#bae5fa"/>
    <path id="Trazado_167648" data-name="Trazado 167648" d="M648.416,743.973a1.533,1.533,0,0,1,2.169-2.168c.945.945,2.918,3.239,4.154,4.695L666.2,735.036a1.534,1.534,0,0,1,2.169,2.169l-12.638,12.638,0,0-.1.095a1.528,1.528,0,0,1-2.151-.2c-.01-.012-3.63-4.335-5.057-5.763" transform="translate(-438.795 -436.719)" fill="#0094d9"/>
    <path id="Trazado_167649" data-name="Trazado 167649" d="M647.455,872.332H634.864a2.888,2.888,0,0,0-2.882,2.883v12.592a2.891,2.891,0,0,0,2.882,2.882h12.592a2.888,2.888,0,0,0,2.882-2.882V875.215a2.888,2.888,0,0,0-2.882-2.883m-12.592-1.15h12.592a4.043,4.043,0,0,1,4.033,4.033v12.592a4.045,4.045,0,0,1-4.033,4.032H634.864a4.048,4.048,0,0,1-4.033-4.032V875.215a4.019,4.019,0,0,1,1.184-2.846l0,0A4.02,4.02,0,0,1,634.864,871.182Z" transform="translate(-425.147 -545.51)" fill="#bae5fa"/>
    <path id="Trazado_167650" data-name="Trazado 167650" d="M648.416,886a1.533,1.533,0,0,1,2.169-2.168c.945.945,2.918,3.239,4.154,4.695L666.2,877.063a1.534,1.534,0,0,1,2.169,2.169L655.732,891.87l0,0-.1.094a1.527,1.527,0,0,1-2.151-.2c-.01-.012-3.63-4.334-5.057-5.763" transform="translate(-438.795 -549.836)" fill="#0094d9"/>
  </g>
</svg>
