<svg xmlns="http://www.w3.org/2000/svg" width="85.5" height="85.51" viewBox="0 0 85.5 85.51">
  <g id="Grupo_57738" data-name="Grupo 57738" transform="translate(-2622.678 -593.128)">
    <path id="Trazado_165242" data-name="Trazado 165242" d="M2748.169,595.982c.2-2.847.2-2.848,3-2.849,1.3,0,2.6-.013,3.894,0,1.167.014,1.705.528,1.706,1.675q.012,15.434,0,30.869a1.46,1.46,0,0,1-1.636,1.649c-1.488.021-2.976.008-4.464.008-2.107,0-2.339-.211-2.5-2.358-.236.134-.437.251-.642.363-2.354,1.289-4.692,2.607-7.073,3.843-.549.285-.8.519-.794,1.172.04,3.1.022,6.205.017,9.308,0,1.453-.475,1.92-1.944,1.92q-26.547,0-53.094,0c-1.506,0-1.96-.464-1.96-2q0-12.965,0-25.93c0-1.575.433-2,2.054-2q10.305,0,20.611.012a2.124,2.124,0,0,0,1.666-.683c3.92-3.96,7.881-7.879,11.8-11.839a10.268,10.268,0,0,1,7.662-3.171c6.839.026,13.677.008,20.516.008Zm-37.8,15.517a5.229,5.229,0,0,0,.676.147c2.976.005,5.952.02,8.927-.015a1.6,1.6,0,0,0,.959-.482c1.521-1.478,3.006-2.993,4.512-4.486.807-.8,1.613-.9,2.25-.3s.571,1.5-.241,2.321q-2.472,2.5-4.964,4.975c-1.566,1.567-3.152,3.116-4.693,4.707a2.552,2.552,0,0,0-.41,3.151,2.374,2.374,0,0,0,2.654,1.212,3.968,3.968,0,0,0,1.676-.977c3.544-3.485,7.048-7.01,10.564-10.522,1.049-1.047,1.34-1.027,2.659-.428a5.658,5.658,0,0,0,2.531.627,9.812,9.812,0,0,0,2.862-.848,1.481,1.481,0,0,1,1.989.5,1.38,1.38,0,0,1-.565,1.954,4.582,4.582,0,0,1-1.275.621c-.709.178-.817.6-.812,1.246.027,3.514.011,7.028.015,10.542,0,.294.037.589.062.961a27.564,27.564,0,0,0,7.839-4.767,1.717,1.717,0,0,0,.656-1.462c-.022-6.775-.014-13.55-.014-20.325v-.972c-.279-.017-.461-.037-.644-.037q-10.78,0-21.56,0a6.8,6.8,0,0,0-4.94,2.086c-1.794,1.787-3.575,3.588-5.378,5.367C2713.993,607.982,2712.264,609.648,2710.364,611.5Zm-24.8,27.16h51.219V614.4c-.769-.206-1.488-.452-2.228-.574a1.384,1.384,0,0,0-1.04.236c-1.2,1.122-2.352,2.3-3.508,3.474a1.265,1.265,0,0,0-.4.611,3.138,3.138,0,0,0,2.778,3.477c1.179.151,1.586.6,1.591,1.8q.013,3.181,0,6.363c0,1.258-.373,1.655-1.661,1.839a2.821,2.821,0,0,0-2.595,2.594c-.18,1.284-.578,1.659-1.837,1.659q-16.714.005-33.429,0c-1.223,0-1.644-.385-1.812-1.583a2.831,2.831,0,0,0-2.714-2.682c-1.131-.155-1.54-.6-1.547-1.75-.012-2.121-.008-4.242,0-6.363,0-1.322.348-1.7,1.7-1.888a2.879,2.879,0,0,0,2.518-2.361c.317-1.74.512-1.9,2.3-1.9q9.544,0,19.089-.008a1.727,1.727,0,0,0,1.068-.2c.81-.772,1.532-1.637,2.359-2.546h-31.854Zm41.476-18.32c-1.351,1.4-2.5,2.708-3.771,3.888a5.439,5.439,0,0,1-8.8-2.191c-.209-.6-.229-1.46-.643-1.73-.469-.307-1.284-.086-1.948-.093-.253,0-.507,0-.76,0-4.97,0-9.94.007-14.91-.008-.563,0-.912.1-1.14.707a5.219,5.219,0,0,1-3.218,3.156.832.832,0,0,0-.623.98c.029,1.012.041,2.027,0,3.038a.951.951,0,0,0,.722,1.11,5.071,5.071,0,0,1,3.042,2.96,1.222,1.222,0,0,0,1.391.89q13.248-.037,26.5-.017c1.171,0,2.344.035,3.512-.025a1.1,1.1,0,0,0,.8-.54,6.184,6.184,0,0,1,3.417-3.383,1,1,0,0,0,.5-.734c.051-1.326.023-2.655.023-4.029A6.15,6.15,0,0,1,2727.036,620.34Zm24.11-24.31v28.4h2.725v-28.4Z" transform="translate(-48.6)" fill="#12263f"/>
    <path id="Trazado_165243" data-name="Trazado 165243" d="M2634.079,893.694c0,.729.018,1.385,0,2.039a1.438,1.438,0,0,1-1.6,1.587q-4.083.029-8.167,0a1.453,1.453,0,0,1-1.626-1.656q-.012-15.431,0-30.862c0-1.148.539-1.666,1.707-1.672q3.988-.021,7.977,0c1.2.006,1.694.527,1.711,1.765.011.816,0,1.632,0,2.488,1.366.164,2.651.289,3.926.477a32.946,32.946,0,0,1,9.139,2.773,11.266,11.266,0,0,0,5.047,1.07c4.051-.06,8.1-.022,12.155-.018a5.727,5.727,0,0,1,6.111,4.941,3.632,3.632,0,0,0,.147.386c.4-.162.794-.314,1.183-.482q9.015-3.9,18.03-7.806a4.869,4.869,0,0,1,6.853,3.444,4.758,4.758,0,0,1-2.5,5.175q-9.6,5.39-19.221,10.751-6.048,3.383-12.092,6.773a7.533,7.533,0,0,1-4.469.991q-11.249-1.03-22.5-2.058C2635.331,893.747,2634.768,893.733,2634.079,893.694Zm.071-23.352v20.406c.246.041.429.083.615.1,7.878.721,15.754,1.474,23.638,2.118a5.764,5.764,0,0,0,3.082-.654c10.416-5.753,20.79-11.579,31.173-17.391a1.938,1.938,0,0,0,1.047-2.673,2.089,2.089,0,0,0-2.856-.871q-10.409,4.507-20.806,9.04a2.178,2.178,0,0,0-.766.526,6.229,6.229,0,0,1-5.052,2.161c-4.685-.035-9.37-.011-14.055-.013a4.434,4.434,0,0,1-.853-.025,1.342,1.342,0,0,1-1.2-1.274,1.326,1.326,0,0,1,1.059-1.482,3.827,3.827,0,0,1,1.036-.068q7.028-.006,14.055-.006a5.449,5.449,0,0,0,1.226-.084,2.844,2.844,0,0,0-.674-5.607c-3.989-.022-7.979-.084-11.965.018a16.413,16.413,0,0,1-7.436-1.559A29.512,29.512,0,0,0,2634.15,870.342Zm-2.939-4.281H2625.6V894.4h5.613Z" transform="translate(0 -218.697)" fill="#12263f"/>
    <path id="Trazado_165244" data-name="Trazado 165244" d="M2828.408,635.835c1.9-1.851,3.629-3.517,5.338-5.2,1.8-1.779,3.583-3.58,5.378-5.367a6.8,6.8,0,0,1,4.939-2.086q10.78-.017,21.56,0c.183,0,.365.02.644.037v.972c0,6.775-.008,13.55.014,20.325a1.717,1.717,0,0,1-.656,1.462,27.571,27.571,0,0,1-7.839,4.767c-.025-.372-.061-.667-.062-.961,0-3.514.012-7.028-.015-10.542-.005-.648.1-1.068.812-1.246a4.58,4.58,0,0,0,1.275-.621,1.379,1.379,0,0,0,.565-1.954,1.481,1.481,0,0,0-1.989-.5,9.811,9.811,0,0,1-2.861.848,5.659,5.659,0,0,1-2.531-.627c-1.319-.6-1.61-.62-2.659.428-3.517,3.512-7.021,7.037-10.564,10.522a3.97,3.97,0,0,1-1.676.977,2.375,2.375,0,0,1-2.654-1.212,2.553,2.553,0,0,1,.411-3.151c1.541-1.592,3.127-3.14,4.693-4.708,1.656-1.657,3.316-3.31,4.964-4.975.812-.82.892-1.713.241-2.321s-1.443-.5-2.25.3c-1.507,1.493-2.991,3.008-4.512,4.486a1.6,1.6,0,0,1-.959.482c-2.976.036-5.952.021-8.928.015A5.23,5.23,0,0,1,2828.408,635.835Z" transform="translate(-166.644 -24.336)" fill="#da8c8d"/>
    <path id="Trazado_165245" data-name="Trazado 165245" d="M2697.855,726.831V702.77h31.854c-.827.909-1.549,1.773-2.359,2.546a1.726,1.726,0,0,1-1.068.2q-9.544.016-19.089.008c-1.788,0-1.983.161-2.3,1.9a2.879,2.879,0,0,1-2.518,2.361c-1.354.192-1.7.566-1.7,1.888-.005,2.121-.009,4.242,0,6.363.006,1.149.416,1.594,1.547,1.75a2.83,2.83,0,0,1,2.714,2.681c.167,1.2.588,1.582,1.812,1.583q16.714.007,33.429,0c1.26,0,1.658-.375,1.837-1.659a2.821,2.821,0,0,1,2.6-2.594c1.288-.184,1.656-.58,1.661-1.839q.012-3.182,0-6.363c0-1.2-.412-1.652-1.591-1.8a3.137,3.137,0,0,1-2.777-3.477,1.263,1.263,0,0,1,.4-.611c1.156-1.172,2.3-2.352,3.508-3.474a1.384,1.384,0,0,1,1.04-.236c.74.122,1.459.368,2.228.574v24.259Z" transform="translate(-60.895 -88.171)" fill="#009480"/>
    <path id="Trazado_165246" data-name="Trazado 165246" d="M2763.446,735.52a6.15,6.15,0,0,0,4.088,3.979c0,1.374.027,2.7-.023,4.029a1,1,0,0,1-.5.734,6.183,6.183,0,0,0-3.417,3.383,1.1,1.1,0,0,1-.8.54c-1.168.06-2.341.025-3.512.025q-13.249,0-26.5.017a1.222,1.222,0,0,1-1.391-.89,5.071,5.071,0,0,0-3.042-2.96.951.951,0,0,1-.722-1.11c.044-1.011.032-2.026,0-3.038a.831.831,0,0,1,.622-.98,5.22,5.22,0,0,0,3.218-3.156c.228-.608.577-.708,1.14-.707,4.97.015,9.94.008,14.911.008.253,0,.506,0,.76,0,.664.007,1.479-.214,1.948.093.414.271.434,1.134.643,1.73a5.439,5.439,0,0,0,8.8,2.191C2760.944,738.227,2762.095,736.921,2763.446,735.52Z" transform="translate(-85.01 -115.18)" fill="#2cffe2"/>
    <path id="Trazado_165247" data-name="Trazado 165247" d="M3043.066,608.4h2.725v28.4h-2.725Z" transform="translate(-340.52 -12.368)" fill="#bbabf5"/>
    <path id="Trazado_165248" data-name="Trazado 165248" d="M2683.063,901.133a29.509,29.509,0,0,1,11.269,2.662,16.411,16.411,0,0,0,7.436,1.559c3.986-.1,7.977-.04,11.965-.018a2.844,2.844,0,0,1,.674,5.607,5.445,5.445,0,0,1-1.226.084q-7.028.008-14.055.006a3.817,3.817,0,0,0-1.036.068,1.325,1.325,0,0,0-1.059,1.482,1.343,1.343,0,0,0,1.2,1.275,4.444,4.444,0,0,0,.853.025c4.685,0,9.37-.022,14.055.013a6.23,6.23,0,0,0,5.052-2.161,2.18,2.18,0,0,1,.766-.526q10.4-4.532,20.806-9.04a2.089,2.089,0,0,1,2.856.871,1.937,1.937,0,0,1-1.047,2.673c-10.382,5.813-20.757,11.639-31.173,17.391a5.764,5.764,0,0,1-3.082.654c-7.884-.644-15.76-1.4-23.638-2.118-.185-.017-.368-.059-.615-.1Z" transform="translate(-48.913 -249.488)" fill="#f9e9bb"/>
    <path id="Trazado_165249" data-name="Trazado 165249" d="M2643.662,878.6v28.335h-5.613V878.6Z" transform="translate(-12.451 -231.234)" fill="#fd8f25"/>
  </g>
</svg>
