<svg xmlns="http://www.w3.org/2000/svg" width="295" height="223.593" viewBox="0 0 295 223.593">
  <g id="Grupo_57797" data-name="Grupo 57797" transform="translate(-33.167 -72.21)">
    <g id="Grupo_57751" data-name="Grupo 57751" transform="translate(45.239 77.703)">
      <path id="Trazado_165333" data-name="Trazado 165333" d="M136.661,105.944c2.182,8.392-1.6,17-3.295,20.266a1.452,1.452,0,0,1-2.1.546c-3.077-2.028-10.569-7.7-12.751-16.093s1.6-17,3.294-20.266a1.451,1.451,0,0,1,2.1-.546C126.987,91.879,134.479,97.553,136.661,105.944Z" transform="translate(-103.188 -89.606)" fill="#35e9d0"/>
      <path id="Trazado_165334" data-name="Trazado 165334" d="M194.99,157.049c-4.461,7.565-15,10.006-19.068,10.683a1.46,1.46,0,0,1-1.715-1.418c-.047-3.41.355-11.534,4.633-18.789s11.192-11.538,14.2-13.148a1.46,1.46,0,0,1,2.071.815C196.487,139.083,199.451,149.484,194.99,157.049Z" transform="translate(-141.744 -120.122)" fill="#35e9d0"/>
      <path id="Trazado_165335" data-name="Trazado 165335" d="M226.9,231.739c-6.688,7.569-19.227,7.891-23.675,7.748a1.445,1.445,0,0,1-1.383-1.693c.628-3.642,2.769-12.79,9.2-20.067s15.245-10.529,18.781-11.6a1.445,1.445,0,0,1,1.85,1.164C232.365,211.686,233.589,224.17,226.9,231.739Z" transform="translate(-160.643 -169.293)" fill="#35e9d0"/>
      <path id="Trazado_165336" data-name="Trazado 165336" d="M272.377,304.158c-6.322,8.811-19.736,10.462-24.37,10.771a1.447,1.447,0,0,1-1.547-1.554c.259-3.859,1.514-13.884,7.6-22.363s15.179-12.878,18.752-14.359a1.448,1.448,0,0,1,1.968.968C275.968,282.112,278.7,295.348,272.377,304.158Z" transform="translate(-191.183 -217.516)" fill="#35e9d0"/>
      <path id="Trazado_165337" data-name="Trazado 165337" d="M90.122,220.381c7.247,4.961,17.824,2.706,21.8,1.594a1.46,1.46,0,0,0,.953-2.011c-1.4-3.109-5.21-10.3-12.16-15.054S85.686,199.2,82.28,199.02a1.459,1.459,0,0,0-1.53,1.616C81.151,204.743,82.876,215.42,90.122,220.381Z" transform="translate(-77.793 -164.472)" fill="#35e9d0"/>
      <path id="Trazado_165338" data-name="Trazado 165338" d="M90.787,317.034c9.968,1.619,19.874-6.075,23.225-9A1.443,1.443,0,0,0,114,305.84c-2.8-2.423-10.246-8.138-19.826-9.693s-18.454,1.509-21.874,2.921a1.443,1.443,0,0,0-.7,2.076C73.857,304.983,80.818,315.415,90.787,317.034Z" transform="translate(-71.402 -230.639)" fill="#35e9d0"/>
      <path id="Trazado_165339" data-name="Trazado 165339" d="M132.612,416.234c10.845.069,20.069-9.809,23.044-13.375a1.448,1.448,0,0,0-.347-2.166c-3.273-2.06-12.119-6.942-22.554-7.008s-19.343,4.7-22.641,6.721a1.448,1.448,0,0,0-.374,2.161C112.67,406.171,121.768,416.165,132.612,416.234Z" transform="translate(-97.409 -297.673)" fill="#35e9d0"/>
      <path id="Trazado_165340" data-name="Trazado 165340" d="M156.662,194.83c-1.5,2.194,8.71,33.193,20,53.27,12.237,24.144,31.4,45.757,32.632,46.832a2.167,2.167,0,0,0,2.858-.014,2.121,2.121,0,0,0,.17-.164,2.218,2.218,0,0,0-.076-3.066c-.173-.171-19.3-21.15-31.716-45.655-13.168-23.415-19.863-50.182-19.921-50.438C160.177,193.827,157.907,192.71,156.662,194.83Z" transform="translate(-129.64 -160.815)" fill="#35e9d0"/>
    </g>
    <g id="Grupo_57752" data-name="Grupo 57752" transform="translate(239.75 72.21)">
      <path id="Trazado_165341" data-name="Trazado 165341" d="M849.868,88.547c-2.182,8.392,1.6,17,3.295,20.266a1.452,1.452,0,0,0,2.1.546c3.077-2.028,10.569-7.7,12.751-16.093s-1.6-17-3.295-20.266a1.451,1.451,0,0,0-2.1-.546C859.542,74.483,852.051,80.156,849.868,88.547Z" transform="translate(-798.13 -72.21)" fill="#35e9d0"/>
      <path id="Trazado_165342" data-name="Trazado 165342" d="M783.553,139.652c4.461,7.565,15,10.006,19.068,10.683a1.46,1.46,0,0,0,1.716-1.417c.047-3.41-.355-11.534-4.633-18.789s-11.192-11.538-14.2-13.148a1.46,1.46,0,0,0-2.071.815C782.056,121.686,779.092,132.088,783.553,139.652Z" transform="translate(-751.586 -102.725)" fill="#35e9d0"/>
      <path id="Trazado_165343" data-name="Trazado 165343" d="M735.912,214.342c6.688,7.569,19.227,7.892,23.675,7.748a1.444,1.444,0,0,0,1.382-1.692c-.628-3.642-2.769-12.79-9.2-20.068s-15.245-10.529-18.781-11.6a1.445,1.445,0,0,0-1.85,1.164C730.449,194.289,729.225,206.773,735.912,214.342Z" transform="translate(-716.958 -151.896)" fill="#35e9d0"/>
      <path id="Trazado_165344" data-name="Trazado 165344" d="M691.458,286.762c6.323,8.811,19.737,10.462,24.371,10.771a1.448,1.448,0,0,0,1.547-1.554c-.259-3.859-1.514-13.884-7.6-22.362s-15.179-12.878-18.752-14.359a1.448,1.448,0,0,0-1.968.968C687.867,264.715,685.136,277.951,691.458,286.762Z" transform="translate(-687.439 -200.12)" fill="#35e9d0"/>
      <path id="Trazado_165345" data-name="Trazado 165345" d="M868.681,202.984c-7.247,4.961-17.825,2.706-21.8,1.594a1.459,1.459,0,0,1-.953-2.011c1.4-3.109,5.21-10.3,12.16-15.054s15.028-5.707,18.434-5.891a1.46,1.46,0,0,1,1.53,1.616C877.652,187.346,875.928,198.023,868.681,202.984Z" transform="translate(-795.797 -147.075)" fill="#35e9d0"/>
      <path id="Trazado_165346" data-name="Trazado 165346" d="M844.507,299.638c-9.968,1.619-19.874-6.075-23.225-9a1.443,1.443,0,0,1,.007-2.191c2.8-2.422,10.246-8.137,19.825-9.693s18.454,1.508,21.874,2.921a1.443,1.443,0,0,1,.7,2.076C861.438,287.587,854.476,298.019,844.507,299.638Z" transform="translate(-778.68 -213.242)" fill="#35e9d0"/>
      <path id="Trazado_165347" data-name="Trazado 165347" d="M795.146,398.837c-10.844.069-20.069-9.809-23.044-13.375a1.448,1.448,0,0,1,.347-2.165c3.273-2.06,12.119-6.942,22.554-7.008s19.343,4.7,22.642,6.721a1.448,1.448,0,0,1,.374,2.161C815.088,388.774,805.99,398.768,795.146,398.837Z" transform="translate(-745.136 -280.277)" fill="#35e9d0"/>
      <path id="Trazado_165348" data-name="Trazado 165348" d="M749.853,177.434c1.5,2.194-8.71,33.193-20,53.27-12.237,24.144-31.4,45.757-32.632,46.832a2.168,2.168,0,0,1-2.858-.014,2.288,2.288,0,0,1-.17-.164,2.217,2.217,0,0,1,.076-3.067c.172-.172,19.3-21.15,31.716-45.655,13.167-23.414,19.863-50.182,19.921-50.438C746.337,176.43,748.608,175.314,749.853,177.434Z" transform="translate(-691.662 -143.418)" fill="#35e9d0"/>
    </g>
    <g id="Grupo_57761" data-name="Grupo 57761" transform="translate(33.167 201.152)">
      <g id="Grupo_57753" data-name="Grupo 57753" transform="translate(8.306)">
        <path id="Trazado_165349" data-name="Trazado 165349" d="M72.437,491.9c1.475,5.793-1.16,11.713-2.343,13.961a1,1,0,0,1-1.45.369c-2.115-1.409-7.26-5.347-8.735-11.141s1.16-11.713,2.343-13.961a1,1,0,0,1,1.449-.369C65.816,482.164,70.961,486.1,72.437,491.9Z" transform="translate(-59.472 -480.584)" fill="#2cffe2"/>
      </g>
      <g id="Grupo_57754" data-name="Grupo 57754" transform="translate(22.084 10.727)">
        <path id="Trazado_165350" data-name="Trazado 165350" d="M116.4,529.7c-1.778,5.788-8.453,9.115-11.074,10.221a1.006,1.006,0,0,1-1.377-.675,23.249,23.249,0,0,1,7.508-24.436,1.007,1.007,0,0,1,1.519.214C114.528,517.414,118.183,523.914,116.4,529.7Z" transform="translate(-103.11 -514.557)" fill="#2cffe2"/>
      </g>
      <g id="Grupo_57755" data-name="Grupo 57755" transform="translate(34.947 24.427)">
        <path id="Trazado_165351" data-name="Trazado 165351" d="M158.49,573.954c-.787,6.919-7.745,12.057-10.314,13.734a1,1,0,0,1-1.45-.41,26.277,26.277,0,0,1,3.294-28.95,1,1,0,0,1,1.505-.074C153.652,560.465,159.277,567.035,158.49,573.954Z" transform="translate(-143.848 -557.946)" fill="#2cffe2"/>
      </g>
      <g id="Grupo_57756" data-name="Grupo 57756" transform="translate(52.221 40.077)">
        <path id="Trazado_165352" data-name="Trazado 165352" d="M216.649,626.517c-4.577,5.913-13.861,6.715-17.062,6.812a1,1,0,0,1-1.027-1.11,28.012,28.012,0,0,1,19.075-24.643,1,1,0,0,1,1.332.716C219.676,611.416,221.227,620.6,216.649,626.517Z" transform="translate(-198.555 -607.511)" fill="#2cffe2"/>
      </g>
      <g id="Grupo_57757" data-name="Grupo 57757" transform="translate(0 32.949)">
        <path id="Trazado_165353" data-name="Trazado 165353" d="M43.988,598.116c5.864,1.511,12.189-2.439,14.5-4.1a1.006,1.006,0,0,0,.145-1.527,25.806,25.806,0,0,0-11.422-6.9,25.81,25.81,0,0,0-13.333.519,1.006,1.006,0,0,0-.611,1.407C34.495,590.091,38.124,596.606,43.988,598.116Z" transform="translate(-33.167 -584.937)" fill="#2cffe2"/>
      </g>
      <g id="Grupo_57758" data-name="Grupo 57758" transform="translate(12.482 55.95)">
        <path id="Trazado_165354" data-name="Trazado 165354" d="M89.547,672.626c6.767-1.643,11-9.186,12.342-11.944a1,1,0,0,0-.587-1.388,29.191,29.191,0,0,0-15.2-.847,29.187,29.187,0,0,0-13.117,7.721,1,1,0,0,0,.114,1.5C75.561,669.506,82.78,674.269,89.547,672.626Z" transform="translate(-72.699 -657.785)" fill="#2cffe2"/>
      </g>
      <g id="Grupo_57759" data-name="Grupo 57759" transform="translate(27.34 64.979)">
        <path id="Trazado_165355" data-name="Trazado 165355" d="M138.776,704.409c5.962-4.513,6.865-13.787,7-16.987a1,1,0,0,0-1.1-1.039,31.127,31.127,0,0,0-15.281,5.629,31.129,31.129,0,0,0-9.568,13.177,1,1,0,0,0,.7,1.339C123.643,707.271,132.814,708.921,138.776,704.409Z" transform="translate(-119.757 -686.379)" fill="#2cffe2"/>
      </g>
      <g id="Grupo_57760" data-name="Grupo 57760" transform="translate(16.482 22.823)">
        <path id="Trazado_165356" data-name="Trazado 165356" d="M149.281,600.717a1.6,1.6,0,0,1-.686,1.017c-2.017,1.293-25.3-1.541-39.7-13.825-15.341-10.351-23.758-31.186-23.527-33.279,0,0-.049-1.742,1.434-1.764,1.054-.016,1.4,1.279,1.632,2.1.756,2.685,8.184,21.016,22.289,30.545,13.123,11.189,33.278,13.784,36.432,13.536a1.679,1.679,0,0,1,.235-.087A1.51,1.51,0,0,1,149.26,600,1.493,1.493,0,0,1,149.281,600.717Z" transform="translate(-85.367 -552.867)" fill="#2cffe2"/>
      </g>
    </g>
    <g id="Grupo_57770" data-name="Grupo 57770" transform="translate(253.339 201.732)">
      <g id="Grupo_57762" data-name="Grupo 57762" transform="translate(53.556)">
        <path id="Trazado_165357" data-name="Trazado 165357" d="M900.387,493.457c-1.187,5.534,1.518,11.04,2.718,13.125a.948.948,0,0,0,1.385.3c1.95-1.409,6.676-5.32,7.864-10.854s-1.518-11.039-2.718-13.124a.947.947,0,0,0-1.384-.3C906.3,484.012,901.575,487.923,900.387,493.457Z" transform="translate(-900.093 -482.42)" fill="#2cffe2"/>
      </g>
      <g id="Grupo_57763" data-name="Grupo 57763" transform="translate(40.447 10.835)">
        <path id="Trazado_165358" data-name="Trazado 165358" d="M859.154,531.218c1.89,5.412,8.325,8.319,10.844,9.273a.953.953,0,0,0,1.279-.689,22.012,22.012,0,0,0-7.98-22.849.953.953,0,0,0-1.43.258C860.489,519.525,857.264,525.806,859.154,531.218Z" transform="translate(-858.575 -516.735)" fill="#2cffe2"/>
      </g>
      <g id="Grupo_57764" data-name="Grupo 57764" transform="translate(27.977 24.184)">
        <path id="Trazado_165359" data-name="Trazado 165359" d="M819.21,574.434c.993,6.518,7.76,11.129,10.251,12.623a.943.943,0,0,0,1.357-.44,24.877,24.877,0,0,0-4.156-27.271.943.943,0,0,0-1.427-.015C823.3,561.5,818.217,567.916,819.21,574.434Z" transform="translate(-819.083 -559.013)" fill="#2cffe2"/>
      </g>
      <g id="Grupo_57765" data-name="Grupo 57765" transform="translate(5.771 40.058)">
        <path id="Trazado_165360" data-name="Trazado 165360" d="M752.147,627.222c4.542,5.429,13.354,5.855,16.386,5.832a.945.945,0,0,0,.932-1.086,26.522,26.522,0,0,0-18.931-22.629.945.945,0,0,0-1.234.726C748.742,613.043,747.6,621.792,752.147,627.222Z" transform="translate(-748.753 -609.288)" fill="#2cffe2"/>
      </g>
      <g id="Grupo_57766" data-name="Grupo 57766" transform="translate(50.68 31.035)">
        <path id="Trazado_165361" data-name="Trazado 165361" d="M905.291,593.277c-5.494,1.639-11.62-1.871-13.868-3.354a.953.953,0,0,1-.192-1.44,22.013,22.013,0,0,1,23.192-6.921.952.952,0,0,1,.629,1.309C913.984,585.344,910.784,591.637,905.291,593.277Z" transform="translate(-890.985 -580.711)" fill="#2cffe2"/>
      </g>
      <g id="Grupo_57767" data-name="Grupo 57767" transform="translate(36.141 53.622)">
        <path id="Trazado_165362" data-name="Trazado 165362" d="M857.157,666.222c-6.461-1.311-10.736-8.3-12.106-10.857a.943.943,0,0,1,.506-1.334,24.877,24.877,0,0,1,27.034,5.487.943.943,0,0,1-.054,1.425C870.277,662.768,863.618,667.534,857.157,666.222Z" transform="translate(-844.938 -652.246)" fill="#2cffe2"/>
      </g>
      <g id="Grupo_57768" data-name="Grupo 57768" transform="translate(25.456 62.924)">
        <path id="Trazado_165363" data-name="Trazado 165363" d="M818.328,698.551c-5.8-4.055-6.989-12.8-7.229-15.82a.945.945,0,0,1,1-1.023,26.522,26.522,0,0,1,24.183,16.9.945.945,0,0,1-.616,1.292C832.748,700.716,824.131,702.606,818.328,698.551Z" transform="translate(-811.096 -681.707)" fill="#2cffe2"/>
      </g>
      <g id="Grupo_57769" data-name="Grupo 57769" transform="translate(0 21.806)">
        <path id="Trazado_165364" data-name="Trazado 165364" d="M730.52,599a1.518,1.518,0,0,0,.685.938c1.955,1.151,23.885-2.366,37.059-14.5,14.142-10.344,21.357-30.358,21.064-32.329,0,0-.016-1.65-1.42-1.618-1,.023-1.278,1.26-1.469,2.041-.618,2.568-6.988,20.176-19.991,29.7-12.014,11.057-30.989,14.235-33.982,14.114a1.57,1.57,0,0,0-.226-.074,1.43,1.43,0,0,0-1.727,1.054A1.414,1.414,0,0,0,730.52,599Z" transform="translate(-730.475 -551.482)" fill="#2cffe2"/>
      </g>
    </g>
    <g id="Grupo_57771" data-name="Grupo 57771" transform="translate(65.429 286.455)" style="mix-blend-mode: multiply;isolation: isolate">
      <rect id="Rectángulo_34560" data-name="Rectángulo 34560" width="226.876" height="9.348" rx="4.674" transform="translate(0 0)" fill="#ded4db"/>
    </g>
    <g id="Grupo_57773" data-name="Grupo 57773" transform="translate(59.524 163.932)">
      <path id="Trazado_165365" data-name="Trazado 165365" d="M117.055,440.917l33.119,86.8a6.249,6.249,0,0,0,7.555,3.772l-37.551-98.421A6.251,6.251,0,0,0,117.055,440.917Z" transform="translate(-116.643 -410.853)" fill="#381132"/>
      <g id="Grupo_57772" data-name="Grupo 57772" transform="translate(18.811 0)">
        <path id="Trazado_165366" data-name="Trazado 165366" d="M255.526,461.641a6.27,6.27,0,0,0,3.624-8.1l-33.119-86.8a6.274,6.274,0,0,0-8.1-3.627l-41.713,15.915,37.591,98.525Z" transform="translate(-176.221 -362.702)" fill="#381132"/>
      </g>
      <path id="Trazado_165367" data-name="Trazado 165367" d="M127.792,420.307l37.551,98.421.02.051.521-.2,14.777-5.638L143.07,414.417l-14.777,5.638-.521.2Z" transform="translate(-124.258 -398.088)" fill="#fff"/>
      <path id="Trazado_165368" data-name="Trazado 165368" d="M263.1,556.023l-21.256-55.712a2.3,2.3,0,0,0-2.962-1.326l-8.613,3.286a2.294,2.294,0,0,0-1.324,2.961L250.2,560.944a2.294,2.294,0,0,0,2.959,1.326l8.613-3.286A2.3,2.3,0,0,0,263.1,556.023Z" transform="translate(-193.382 -455.851)" fill="#fff"/>
      <path id="Trazado_165369" data-name="Trazado 165369" d="M217.226,435.787l-6.857-17.972a2.294,2.294,0,0,0-2.962-1.326l-8.614,3.286a2.294,2.294,0,0,0-1.323,2.961l6.857,17.972a2.294,2.294,0,0,0,2.959,1.327l8.614-3.286A2.3,2.3,0,0,0,217.226,435.787Z" transform="translate(-171.845 -399.402)" fill="#fff"/>
    </g>
    <g id="Grupo_57774" data-name="Grupo 57774" transform="translate(90.121 178.229)">
      <path id="Trazado_165370" data-name="Trazado 165370" d="M293.37,512.492a6.272,6.272,0,0,0,5.348-7.076l-12.8-92.023a6.274,6.274,0,0,0-7.076-5.348l-59.886,8.331a6.273,6.273,0,0,0-5.348,7.076l12.8,92.023a6.273,6.273,0,0,0,7.076,5.348Z" transform="translate(-213.545 -407.984)" fill="#e14442"/>
      <rect id="Rectángulo_34561" data-name="Rectángulo 34561" width="20.496" height="20.135" rx="10.067" transform="matrix(0.99, -0.138, 0.138, 0.99, 36.895, 11.003)" fill="#b8364f"/>
      <path id="Rectángulo_34562" data-name="Rectángulo 34562" d="M3.376,0h0A3.376,3.376,0,0,1,6.753,3.376V16.758a3.376,3.376,0,0,1-3.376,3.376h0A3.377,3.377,0,0,1,0,16.758V3.376A3.376,3.376,0,0,1,3.376,0Z" transform="translate(23.437 12.875) rotate(-7.92)" fill="#b8364f"/>
      <rect id="Rectángulo_34563" data-name="Rectángulo 34563" width="6.753" height="20.135" rx="3.377" transform="translate(33.312 83.854) rotate(-7.92)" fill="#b8364f"/>
      <path id="Rectángulo_34564" data-name="Rectángulo 34564" d="M3.376,0h0A3.377,3.377,0,0,1,6.753,3.377v13.38a3.377,3.377,0,0,1-3.377,3.377h0A3.377,3.377,0,0,1,0,16.756V3.376A3.376,3.376,0,0,1,3.376,0Z" transform="translate(30.02 60.196) rotate(-7.92)" fill="#b8364f"/>
      <rect id="Rectángulo_34565" data-name="Rectángulo 34565" width="6.753" height="20.132" rx="3.377" transform="translate(26.729 36.535) rotate(-7.92)" fill="#b8364f"/>
      <path id="Trazado_165371" data-name="Trazado 165371" d="M263.589,451.9a1.668,1.668,0,0,0-1.421,1.882l2.566,18.444a1.668,1.668,0,1,0,3.3-.46l-2.566-18.444A1.668,1.668,0,0,0,263.589,451.9Z" transform="translate(-246.805 -438.025)" fill="#b8364f"/>
      <path id="Trazado_165372" data-name="Trazado 165372" d="M280.717,562.917l-2.566-18.445a1.668,1.668,0,1,0-3.3.46l2.566,18.445a1.668,1.668,0,1,0,3.3-.46Z" transform="translate(-255.481 -500.392)" fill="#b8364f"/>
      <path id="Trazado_165373" data-name="Trazado 165373" d="M250.067,503.438l-6.58-47.3a1.669,1.669,0,0,0-3.306.46l6.58,47.3a1.669,1.669,0,0,0,3.306-.46Z" transform="translate(-231.76 -439.949)" fill="#b8364f"/>
    </g>
    <g id="Grupo_57778" data-name="Grupo 57778" transform="translate(172.717 127.15)">
      <g id="Grupo_57775" data-name="Grupo 57775" transform="translate(28.703)">
        <path id="Trazado_165374" data-name="Trazado 165374" d="M610.313,248.418,566.286,359.687a3.487,3.487,0,0,0,1.961,4.525L614.1,382.354a3.489,3.489,0,0,0,4.527-1.96l44.027-111.269a3.489,3.489,0,0,0-1.96-4.527l-45.849-18.14A3.49,3.49,0,0,0,610.313,248.418Z" transform="translate(-566.041 -246.213)" fill="#230e70"/>
        <path id="Trazado_165375" data-name="Trazado 165375" d="M695.522,284.047a13.143,13.143,0,0,1-14.708,6.369,1.94,1.94,0,0,0-2.283,1.169l-11.172,28.233a1.14,1.14,0,0,0,1.517,1.463c6.089-2.667,14.158-2.76,21.984.336s13.647,8.687,16.264,14.8a1.137,1.137,0,0,0,2.1-.03L720.4,308.151a1.942,1.942,0,0,0-.865-2.414,13.138,13.138,0,0,1-6.369-14.706A1.938,1.938,0,0,0,712,288.748l-14.062-5.566A1.942,1.942,0,0,0,695.522,284.047Z" transform="translate(-635.314 -271.416)" fill="#fff"/>
        <path id="Trazado_165376" data-name="Trazado 165376" d="M615.222,470.184a1.14,1.14,0,0,0-1.043.72l-11.163,28.213a1.943,1.943,0,0,0,.865,2.415,13.137,13.137,0,0,1,6.367,14.706,1.939,1.939,0,0,0,1.17,2.283l14.062,5.566a1.943,1.943,0,0,0,2.415-.865,13.14,13.14,0,0,1,14.707-6.369,1.939,1.939,0,0,0,2.283-1.167l11.162-28.215a1.138,1.138,0,0,0-1.514-1.462c-6.09,2.668-14.157,2.76-21.984-.336s-13.647-8.686-16.263-14.8A1.14,1.14,0,0,0,615.222,470.184Z" transform="translate(-591.248 -399.466)" fill="#fff"/>
        <path id="Trazado_165377" data-name="Trazado 165377" d="M672.941,426.567a2.817,2.817,0,0,0-1.054-3.837,8.568,8.568,0,0,0-11.745,3.234l-3.425-1.354a2.814,2.814,0,0,0-2.07,5.234l3.417,1.35a8.351,8.351,0,0,0,5.982,10.28c3.46,1.368,7.462-.358,11.9-5.133,3.214-3.463,5.135-3.953,5.956-3.631a3.712,3.712,0,0,1,2.217,1.631c.39.877.238,2.247-.44,3.96-.47,1.19-1.287,2.7-2.513,3.153a3.519,3.519,0,0,1-2.536-.239,2.814,2.814,0,0,0-2.756,4.908,8.568,8.568,0,0,0,11.747-3.236l3.424,1.356a2.814,2.814,0,1,0,2.07-5.234L689.7,437.66a8.352,8.352,0,0,0-5.982-10.278c-3.461-1.37-7.464.356-11.9,5.131-3.214,3.463-5.134,3.955-5.954,3.631a3.707,3.707,0,0,1-2.22-1.631c-.39-.877-.236-2.247.442-3.961.469-1.19,1.285-2.7,2.511-3.153a3.527,3.527,0,0,1,2.537.239A2.814,2.814,0,0,0,672.941,426.567Z" transform="translate(-625.452 -366.234)" fill="#fff"/>
      </g>
      <g id="Grupo_57776" data-name="Grupo 57776" transform="translate(27.548 0.869)">
        <path id="Trazado_165378" data-name="Trazado 165378" d="M590.832,251.627,562.484,367.883a3.487,3.487,0,0,0,2.562,4.214l47.9,11.682a3.486,3.486,0,0,0,4.214-2.562l28.349-116.256a3.488,3.488,0,0,0-2.563-4.216l-47.9-11.68A3.486,3.486,0,0,0,590.832,251.627Z" transform="translate(-562.383 -248.965)" fill="#351e8d"/>
        <path id="Trazado_165379" data-name="Trazado 165379" d="M657.11,280.493a13.139,13.139,0,0,1-13.695,8.326,1.937,1.937,0,0,0-2.1,1.47l-7.194,29.5a1.14,1.14,0,0,0,1.7,1.241c5.665-3.477,13.645-4.677,21.823-2.683s14.709,6.733,18.14,12.427a1.139,1.139,0,0,0,2.082-.317l7.193-29.5a1.942,1.942,0,0,0-1.189-2.272,13.141,13.141,0,0,1-8.326-13.695,1.938,1.938,0,0,0-1.47-2.1l-14.694-3.581A1.94,1.94,0,0,0,657.11,280.493Z" transform="translate(-611.448 -269.687)" fill="#fff"/>
        <path id="Trazado_165380" data-name="Trazado 165380" d="M600.843,481.127a1.134,1.134,0,0,0-.935.854l-7.189,29.478a1.942,1.942,0,0,0,1.189,2.272,13.136,13.136,0,0,1,8.324,13.7,1.939,1.939,0,0,0,1.472,2.1l14.694,3.583a1.939,1.939,0,0,0,2.273-1.187,13.14,13.14,0,0,1,13.695-8.326,1.936,1.936,0,0,0,2.1-1.472l7.187-29.477a1.138,1.138,0,0,0-1.7-1.24c-5.666,3.475-13.647,4.676-21.822,2.682s-14.709-6.732-18.14-12.426A1.137,1.137,0,0,0,600.843,481.127Z" transform="translate(-583.103 -407.814)" fill="#fff"/>
        <path id="Trazado_165381" data-name="Trazado 165381" d="M644.87,429.172a2.819,2.819,0,0,0-1.569-3.657,8.57,8.57,0,0,0-11.192,4.816l-3.577-.872a2.814,2.814,0,1,0-1.333,5.468l3.568.87a8.352,8.352,0,0,0,7.338,9.361c3.616.881,7.342-1.377,11.079-6.714,2.709-3.871,4.543-4.621,5.4-4.415a3.723,3.723,0,0,1,2.421,1.312c.5.816.542,2.193.106,3.984-.3,1.241-.9,2.851-2.057,3.467a3.515,3.515,0,0,1-2.543.111,2.814,2.814,0,0,0-2.055,5.239,8.566,8.566,0,0,0,11.19-4.814l3.578.872a2.814,2.814,0,1,0,1.332-5.467l-3.567-.87a8.353,8.353,0,0,0-7.336-9.362c-3.616-.881-7.344,1.377-11.082,6.715-2.708,3.871-4.542,4.621-5.4,4.414a3.7,3.7,0,0,1-2.421-1.312c-.5-.816-.542-2.194-.106-3.983.3-1.243.9-2.853,2.055-3.469a3.512,3.512,0,0,1,2.545-.109A2.818,2.818,0,0,0,644.87,429.172Z" transform="translate(-605.264 -369.372)" fill="#fff"/>
      </g>
      <g id="Grupo_57777" data-name="Grupo 57777" transform="translate(27.144 3.925)">
        <path id="Trazado_165382" data-name="Trazado 165382" d="M573.45,261.77,561.123,380.8a3.487,3.487,0,0,0,3.111,3.828l49.045,5.078a3.485,3.485,0,0,0,3.828-3.11L629.434,267.57a3.49,3.49,0,0,0-3.111-3.83l-49.045-5.078A3.486,3.486,0,0,0,573.45,261.77Z" transform="translate(-561.105 -258.642)" fill="#472ea6"/>
        <path id="Trazado_165383" data-name="Trazado 165383" d="M619.885,283.474a13.136,13.136,0,0,1-12.438,10.1,1.942,1.942,0,0,0-1.883,1.742l-3.127,30.205a1.139,1.139,0,0,0,1.854,1c5.143-4.213,12.887-6.484,21.258-5.615s15.486,4.675,19.657,9.852a1.139,1.139,0,0,0,2.019-.6l3.127-30.2a1.943,1.943,0,0,0-1.485-2.091,13.14,13.14,0,0,1-10.106-12.44,1.94,1.94,0,0,0-1.742-1.881l-15.044-1.557A1.943,1.943,0,0,0,619.885,283.474Z" transform="translate(-589.382 -274.61)" fill="#fff"/>
        <path id="Trazado_165384" data-name="Trazado 165384" d="M588.381,494.74a1.137,1.137,0,0,0-.81.973l-3.125,30.181a1.941,1.941,0,0,0,1.486,2.091,13.139,13.139,0,0,1,10.1,12.44,1.939,1.939,0,0,0,1.743,1.881l15.042,1.557a1.941,1.941,0,0,0,2.091-1.484,13.14,13.14,0,0,1,12.44-10.105,1.941,1.941,0,0,0,1.881-1.742l3.125-30.18a1.139,1.139,0,0,0-1.854-1c-5.143,4.212-12.885,6.483-21.259,5.615s-15.485-4.675-19.655-9.852A1.139,1.139,0,0,0,588.381,494.74Z" transform="translate(-577.069 -420.161)" fill="#fff"/>
        <path id="Trazado_165385" data-name="Trazado 165385" d="M618.023,435.186a2.817,2.817,0,0,0-2.051-3.412,8.571,8.571,0,0,0-10.434,6.29l-3.662-.381a2.815,2.815,0,1,0-.58,5.6l3.653.377a8.352,8.352,0,0,0,8.538,8.28c3.7.385,7.087-2.36,10.065-8.155,2.159-4.2,3.876-5.193,4.754-5.1a3.712,3.712,0,0,1,2.578.972c.611.739.835,2.1.645,3.932-.132,1.272-.511,2.948-1.568,3.715a3.506,3.506,0,0,1-2.506.453,2.815,2.815,0,0,0-1.326,5.472,8.572,8.572,0,0,0,10.435-6.29l3.664.38a2.815,2.815,0,0,0,.578-5.6l-3.654-.377a8.35,8.35,0,0,0-8.536-8.281c-3.7-.384-7.089,2.361-10.068,8.155-2.159,4.2-3.876,5.192-4.754,5.1a3.708,3.708,0,0,1-2.576-.972c-.613-.739-.835-2.1-.646-3.932.131-1.272.509-2.948,1.567-3.713a3.5,3.5,0,0,1,2.506-.454A2.814,2.814,0,0,0,618.023,435.186Z" transform="translate(-586.878 -376.959)" fill="#fff"/>
      </g>
      <path id="Trazado_165386" data-name="Trazado 165386" d="M581.443,500.907H479.513a4.376,4.376,0,0,0-4.377,4.375V580.09a4.378,4.378,0,0,0,4.377,4.377h101.93a10.192,10.192,0,0,0,10.193-10.193V511.1A10.192,10.192,0,0,0,581.443,500.907Z" transform="translate(-475.136 -420.489)" fill="#bbabf5"/>
      <path id="Rectángulo_34566" data-name="Rectángulo 34566" d="M11.65,0h18.34a11.65,11.65,0,0,1,11.65,11.65v0A11.649,11.649,0,0,1,29.991,23.3H11.65A11.65,11.65,0,0,1,0,11.65v0A11.65,11.65,0,0,1,11.65,0Z" transform="translate(79.976 110.548)" fill="#7e69c6"/>
      <path id="Trazado_165387" data-name="Trazado 165387" d="M750.941,609.3a7.556,7.556,0,1,0,7.557,7.555A7.556,7.556,0,0,0,750.941,609.3Z" transform="translate(-658.686 -494.655)" fill="#472ea6"/>
    </g>
    <g id="Grupo_57780" data-name="Grupo 57780" transform="translate(126.226 83.952)">
      <path id="Trazado_165388" data-name="Trazado 165388" d="M430.73,115.273c-.378-4.952-3.387-5.861-7.906-5.874H335.143c-3.784.132-5.622,1.937-6.269,5.159l-.028,2.71v9.453l-.95,0v11.348h.95v5.677l-.95,0v40.389h.95c0,137.287-.007,121.817.016,127.141.629,3.6,2.786,5.119,5.972,5.3l90.305,0c3.249-.4,5.237-2.167,5.592-5.735V164.612h.95V143.744h-.95Zm-1.367,195.5c-.282,2.837-1.77,4.12-4.309,4.436l-90.181,0c-2.532-.146-4.155-1.258-4.646-4.057-.022-5.162-.016,13.923-.016-193.876l.027-2.574c.507-2.524,1.858-3.827,4.927-3.935h87.656c1.747.005,6.144-.629,6.541,4.56Z" transform="translate(-327.895 -109.399)" fill="#381132"/>
      <path id="Trazado_165389" data-name="Trazado 165389" d="M427.788,113.693H340.132c-3.042.107-4.416,1.388-4.927,3.935l-.027,2.574c0,193.8-.068,174.715.015,193.876.491,2.8,2.136,3.912,4.646,4.057l90.181,0c2.477-.308,4.018-1.5,4.309-4.436V118.253C433.938,113.139,429.663,113.7,427.788,113.693Zm-31.522,198.6-.012.146-.041.148-.068.135-.092.119-.112.1-.13.077-.144.052-.155.023H374.166l-.232-.006-.151-.034-.139-.061-.123-.087-.1-.107-.083-.125-.058-.14-.031-.152V301.2l.027-.154.055-.142.08-.127.1-.11.121-.089.137-.065.15-.038.179-.009h21.4l.156.019.145.049.131.074.115.1.094.116.07.133.045.147.016.158Zm33.87-17.024-.015.158-.045.146L430,295.7l-.093.117-.115.1-.13.074-.146.048-.157.02H340.412l-.367-.009-.15-.038-.137-.065-.121-.089-.1-.11-.08-.127-.055-.142-.027-.153c0-3.115,0-169.9,0-172.845l.031-.152.058-.141.083-.125.1-.107.123-.086.139-.062.151-.034.652-.006h88.667l.155.023.144.052.129.077.112.1.092.119.068.135.041.149.012.249Z" transform="translate(-332.86 -112.327)" fill="#381132"/>
      <path id="Trazado_165390" data-name="Trazado 165390" d="M440.68,143.366l-.013-.056-.022-.051-.032-.045-.039-.039-.046-.031-.052-.021-.056-.011H352.592l-.057.01-.052.021-.047.03-.04.038-.033.045-.024.05-.014.055c0,.752,0,170.686,0,171.353l.008.057.017.054.028.048.036.042.043.035.049.026.054.016.058.006h87.714l.112,0,.055-.015.05-.025.044-.034.037-.041.028-.048.019-.053.009-.057C440.682,313.2,440.684,145.064,440.68,143.366Z" transform="translate(-344.609 -132.467)" fill="#f4b55b"/>
      <path id="Trazado_165391" data-name="Trazado 165391" d="M439.227,139.807l-.068-.135-.092-.119-.112-.1-.129-.077-.144-.052-.155-.023H349.86l-.652.006-.151.034-.139.062-.123.086-.1.107-.083.125-.058.141-.031.152c-.006,2.943,0,169.733,0,172.845l.027.153.055.142.08.127.1.11.121.089.137.065.15.038.367.009h88.951l.157-.02.146-.048.13-.074.115-.1.093-.117.072-.134.045-.146.016-.158V140.205l-.012-.249Zm-1.149,172.3-.009.057-.019.053-.028.048-.037.041-.044.034-.05.025-.055.015-.112,0H350.01l-.058-.006-.054-.016-.049-.026-.043-.035-.036-.042-.028-.048-.017-.054-.008-.057c0-.672,0-170.6,0-171.353l.014-.055.024-.051.033-.045.04-.038.047-.03.052-.021.057-.01h87.827l.056.011.052.021.046.031.04.039.032.045.022.051.013.056C438.08,142.455,438.078,310.592,438.078,312.112Z" transform="translate(-342.005 -129.86)" fill="#fff"/>
      <path id="Trazado_165392" data-name="Trazado 165392" d="M480.177,708.815l-.02-.037-.025-.03-.059-.032-.052-.006H459.743l-.105.009-.063.029-.034.042-.017.062v10.166l.028.067.047.047.053.017.153,0h20.227l.07-.015.044-.031.029-.045.009-.028,0-.054V708.883Z" transform="translate(-417.962 -519.48)" fill="#381132"/>
      <path id="Trazado_165393" data-name="Trazado 165393" d="M478.754,705.746l-.07-.133-.094-.116-.115-.1-.131-.074-.145-.049-.156-.019h-21.4l-.179.009-.15.038-.137.065-.121.089-.1.11-.08.127-.055.142-.027.154v11.177l.031.152.058.14.083.125.1.107.123.087.139.061.151.034.232.006h21.347l.155-.023.144-.052.13-.077.112-.1.092-.119.068-.135.041-.148.012-.146V706.05l-.016-.158Zm-1.119,10.869,0,.054-.009.028-.029.045-.044.032-.07.016H457.252l-.153,0-.053-.016-.047-.047-.011-.01-.017-.057V706.49l.017-.062.033-.042.063-.029.011,0,.095,0h20.278l.052.007.059.032.012.007.013.023.02.037.005.009.006.059Z" transform="translate(-415.409 -517.117)" fill="#4576c5"/>
      <g id="Grupo_57779" data-name="Grupo 57779" transform="translate(40.08 4.051)">
        <path id="Trazado_165394" data-name="Trazado 165394" d="M560.366,124.215l.137.212.174.182.2.147.231.107.252.063.267.013.261-.038.242-.086.218-.128.19-.165.156-.2.118-.225.074-.247.026-.265-.026-.264-.074-.247-.118-.225-.156-.2-.19-.165-.218-.128-.242-.085-.261-.038-.267.013-.252.063-.231.108-.2.147-.174.182-.137.212-.1.236-.051.256v.268l.051.257Zm.561-.763.025-.127.048-.117.068-.106.086-.091.1-.073.114-.053.125-.031.135-.007.13.019.12.042.109.063.094.083.078.1.058.111.037.122.013.133-.013.133-.037.122-.058.112-.078.1-.094.083-.109.063-.12.043-.13.019-.135-.007-.125-.031-.114-.053-.1-.074-.086-.091-.068-.105-.048-.117-.025-.128Z" transform="translate(-526.943 -122.235)" fill="#fff"/>
        <path id="Trazado_165395" data-name="Trazado 165395" d="M547.2,125.369l.068.1.086.091.1.073.114.053.125.031.135.007.13-.02.12-.042.108-.064.095-.082.078-.1.058-.111.037-.122.013-.133-.013-.133-.037-.122-.058-.112-.078-.1-.095-.082-.108-.064-.12-.042-.13-.019-.135.007-.125.031-.114.053-.1.073-.086.091-.068.105-.048.117-.025.128v.136l.025.128Zm.369-.558.027-.066.043-.056.057-.043.065-.027.07-.009.071.009.066.027.056.043.044.056.027.066.009.07-.009.07-.027.066-.044.056-.056.043-.066.027-.071.01-.07-.01-.065-.027-.057-.043-.043-.056-.027-.066-.009-.07Z" transform="translate(-517.986 -123.703)" fill="#381132"/>
        <path id="Trazado_165396" data-name="Trazado 165396" d="M545.137,124.215l.138.212.174.182.2.147.231.107.252.063.268.013.261-.038.242-.086.218-.128.19-.165.157-.2.118-.225.074-.247.026-.265-.026-.264-.074-.247-.118-.225-.157-.2-.19-.165-.218-.128-.242-.085-.261-.038-.268.013-.252.063-.231.108-.2.147-.174.182-.138.212-.1.236-.05.256v.268l.05.257Zm.528-.7.025-.128.048-.117.068-.105.087-.091.1-.073.114-.053.125-.031.135-.007.13.019.12.042.108.064.095.082.078.1.058.112.037.122.013.133-.013.133-.037.122-.058.111-.078.1-.095.082-.108.064-.12.042-.13.02-.135-.007-.125-.031-.114-.053-.1-.073-.087-.091-.068-.1-.048-.117-.025-.128Z" transform="translate(-516.523 -122.235)" fill="#fff"/>
        <path id="Trazado_165397" data-name="Trazado 165397" d="M548.537,125.509l.043.056.057.043.065.027.07.01.071-.01.066-.027.056-.043.044-.056.027-.066.009-.07-.009-.071-.027-.066-.044-.056-.056-.043-.066-.027-.071-.009-.07.009-.065.027-.057.043-.043.056-.027.066-.009.071.009.07Z" transform="translate(-518.925 -124.195)" fill="#381132"/>
        <path id="Trazado_165398" data-name="Trazado 165398" d="M563.871,125.293l.043.056.057.043.065.028.07.009.07-.009.066-.028.056-.043.043-.056.027-.066.009-.07-.009-.07-.027-.065-.043-.057-.056-.043-.066-.027-.07-.01-.07.01-.065.027-.057.043-.043.057-.028.065-.009.07.009.07Z" transform="translate(-529.417 -124.047)" fill="#381132"/>
        <path id="Trazado_165399" data-name="Trazado 165399" d="M562.536,125.153l.068.105.087.091.1.074.114.053.125.031.135.007.13-.019.12-.043.109-.063.094-.083.078-.1.058-.112.037-.122.013-.133-.013-.133-.037-.122-.058-.111-.078-.1-.094-.083-.109-.063-.12-.042-.13-.019-.135.007-.125.031-.114.053-.1.073-.087.091-.068.106-.048.117-.025.127v.136l.025.128Zm.369-.557.028-.066.043-.057.057-.043.065-.027.07-.009.07.009.066.027.056.043.044.057.027.066.009.07-.009.07-.027.066-.044.056-.056.043-.066.027-.07.009-.07-.009-.065-.027-.057-.043-.043-.056-.028-.066-.009-.07Z" transform="translate(-528.479 -123.556)" fill="#381132"/>
        <path id="Trazado_165400" data-name="Trazado 165400" d="M454.856,124.609l.037.084.051.074.064.063.075.05.085.035.091.019h22.758l.092-.016.086-.033.076-.048.066-.061.053-.073.039-.082.023-.09.005-.077v-1.759l-.012-.094-.029-.087-.044-.079-.058-.069-.07-.056-.08-.043-.088-.027-.095-.01H455.324l-.1.007-.089.025-.081.041-.072.055-.059.067-.047.078-.031.086-.014.094v1.762l0,.073Z" transform="translate(-454.832 -122.23)" fill="#fff"/>
      </g>
    </g>
    <g id="Grupo_57782" data-name="Grupo 57782" transform="translate(149.518 229.233)">
      <path id="Trazado_165401" data-name="Trazado 165401" d="M456.852,573.45a3.932,3.932,0,0,0-3.932-3.932H405.6a3.933,3.933,0,0,0-3.931,3.932v15.229a3.933,3.933,0,0,0,3.931,3.931H452.92a3.932,3.932,0,0,0,3.932-3.931Z" transform="translate(-401.664 -569.518)" fill="#4576c5"/>
      <g id="Grupo_57781" data-name="Grupo 57781" transform="translate(10.337 5.079)">
        <path id="Trazado_165402" data-name="Trazado 165402" d="M440.038,585.6c3.307,0,5.21,1.626,5.21,4.508,0,3.03-1.9,4.785-5.21,4.785h-1.926a.42.42,0,0,0-.42.42v2.8a.42.42,0,0,1-.42.42h-2.45a.42.42,0,0,1-.42-.42V586.025a.42.42,0,0,1,.42-.42Zm-2.346,6.287a.42.42,0,0,0,.42.42h1.76c1.441,0,2.273-.72,2.273-2.088,0-1.349-.832-2.032-2.273-2.032h-1.76a.42.42,0,0,0-.42.42Z" transform="translate(-434.403 -585.605)" fill="#fff"/>
        <path id="Trazado_165403" data-name="Trazado 165403" d="M471.449,596.421l-.732,1.852a.42.42,0,0,1-.391.265h-2.457a.42.42,0,0,1-.386-.586l5.218-12.094a.42.42,0,0,1,.386-.254h2.827a.421.421,0,0,1,.387.257l5.1,12.094a.42.42,0,0,1-.387.583h-2.59a.42.42,0,0,1-.392-.268l-.716-1.847a.42.42,0,0,0-.391-.268H471.84A.42.42,0,0,0,471.449,596.421Zm2.556-6.544-1.264,3.21a.42.42,0,0,0,.391.574h2.5a.42.42,0,0,0,.392-.571l-1.24-3.21A.42.42,0,0,0,474.005,589.877Z" transform="translate(-457.015 -585.605)" fill="#fff"/>
        <path id="Trazado_165404" data-name="Trazado 165404" d="M516.9,598.538h-2.431a.42.42,0,0,1-.42-.42v-3.557a.42.42,0,0,0-.05-.2l-4.4-8.137a.42.42,0,0,1,.369-.62h2.337a.42.42,0,0,1,.367.216l2.631,4.748a.42.42,0,0,0,.737,0l2.565-4.741a.42.42,0,0,1,.369-.22h2.337a.42.42,0,0,1,.37.618l-4.312,8.047a.42.42,0,0,0-.05.2v3.65A.42.42,0,0,1,516.9,598.538Z" transform="translate(-485.823 -585.605)" fill="#fff"/>
      </g>
    </g>
    <g id="Grupo_57788" data-name="Grupo 57788" transform="translate(138.513 103.818)">
      <g id="Grupo_57783" data-name="Grupo 57783" transform="translate(0 0)">
        <rect id="Rectángulo_34567" data-name="Rectángulo 34567" width="79.212" height="9.672" fill="#381132"/>
        <rect id="Rectángulo_34568" data-name="Rectángulo 34568" width="72.057" height="3.348" transform="translate(3.577 3.162)" fill="#4c2d47"/>
      </g>
      <g id="Grupo_57787" data-name="Grupo 57787" transform="translate(4.362 4.836)">
        <path id="Trazado_165405" data-name="Trazado 165405" d="M380.622,187.633l.03,107.6h0l1.923-1.121a.3.3,0,0,1,.3,0l1.771,1.032a.3.3,0,0,0,.3,0l1.769-1.032a.3.3,0,0,1,.3,0l1.768,1.032a.3.3,0,0,0,.3,0l1.768-1.032a.3.3,0,0,1,.305,0l1.768,1.032a.3.3,0,0,0,.3,0l1.768-1.032a.3.3,0,0,1,.305,0l1.768,1.032a.3.3,0,0,0,.3,0l1.767-1.032a.3.3,0,0,1,.305,0l1.768,1.032a.3.3,0,0,0,.3,0l1.768-1.032a.3.3,0,0,1,.305,0l1.768,1.032a.3.3,0,0,0,.3,0l1.768-1.032a.3.3,0,0,1,.3,0l1.768,1.032a.3.3,0,0,0,.3,0l1.768-1.032a.3.3,0,0,1,.3,0l1.767,1.032a.3.3,0,0,0,.3,0l1.768-1.032a.3.3,0,0,1,.3,0l1.767,1.032a.3.3,0,0,0,.3,0l1.767-1.032a.3.3,0,0,1,.305,0l1.767,1.032a.3.3,0,0,0,.305,0l1.767-1.032a.3.3,0,0,1,.3,0l1.766,1.032a.3.3,0,0,0,.3,0l1.767-1.032a.3.3,0,0,1,.3,0l1.766,1.032a.3.3,0,0,0,.3,0l1.766-1.032a.3.3,0,0,1,.305,0l1.767,1.032a.3.3,0,0,0,.305,0l1.766-1.032a.3.3,0,0,1,.3,0l1.765,1.031a.3.3,0,0,0,.305,0l1.766-1.031a.3.3,0,0,1,.3,0l1.767,1.032a.3.3,0,0,0,.3,0l1.767-1.032a.3.3,0,0,1,.3,0l1.767,1.032a.3.3,0,0,0,.305,0l1.767-1.032a.3.3,0,0,1,.3,0l1.919,1.121v-107.6Z" transform="translate(-380.622 -187.633)" fill="#d5c9d1" style="mix-blend-mode: multiply;isolation: isolate"/>
        <path id="Trazado_165406" data-name="Trazado 165406" d="M380.622,187.633l.03,99.811h0l1.923-1.121a.3.3,0,0,1,.3,0l1.771,1.032a.3.3,0,0,0,.3,0l1.769-1.032a.3.3,0,0,1,.3,0l1.768,1.032a.3.3,0,0,0,.3,0l1.768-1.032a.3.3,0,0,1,.305,0l1.768,1.032a.3.3,0,0,0,.3,0l1.768-1.032a.3.3,0,0,1,.305,0l1.768,1.032a.3.3,0,0,0,.3,0l1.767-1.032a.3.3,0,0,1,.305,0l1.768,1.032a.3.3,0,0,0,.3,0l1.768-1.032a.3.3,0,0,1,.305,0l1.768,1.032a.3.3,0,0,0,.3,0l1.768-1.032a.3.3,0,0,1,.3,0l1.768,1.032a.3.3,0,0,0,.3,0l1.768-1.032a.3.3,0,0,1,.3,0l1.767,1.032a.3.3,0,0,0,.3,0l1.768-1.032a.3.3,0,0,1,.3,0l1.767,1.032a.3.3,0,0,0,.3,0l1.767-1.032a.3.3,0,0,1,.305,0l1.767,1.032a.3.3,0,0,0,.305,0l1.767-1.032a.3.3,0,0,1,.3,0l1.766,1.032a.3.3,0,0,0,.3,0l1.767-1.032a.3.3,0,0,1,.3,0l1.766,1.032a.3.3,0,0,0,.3,0l1.766-1.032a.3.3,0,0,1,.305,0l1.767,1.032a.3.3,0,0,0,.305,0l1.766-1.032a.3.3,0,0,1,.3,0l1.765,1.031a.3.3,0,0,0,.305,0l1.766-1.032a.3.3,0,0,1,.3,0l1.767,1.032a.3.3,0,0,0,.3,0l1.767-1.032a.3.3,0,0,1,.3,0l1.767,1.032a.3.3,0,0,0,.305,0l1.767-1.032a.3.3,0,0,1,.3,0l1.919,1.121V187.633Z" transform="translate(-380.622 -187.633)" fill="#fff"/>
        <g id="Grupo_57786" data-name="Grupo 57786" transform="translate(3.659 4.503)">
          <g id="Grupo_57784" data-name="Grupo 57784" transform="translate(34.904 77.695)">
            <path id="Trazado_165407" data-name="Trazado 165407" d="M503.829,457.708V453.06h-1.075v-1.191h2.558v5.839Z" transform="translate(-502.754 -450.636)" fill="#381132"/>
            <path id="Trazado_165408" data-name="Trazado 165408" d="M514.349,457.138l.566-1.033a2.11,2.11,0,0,0,1.224.375c.933,0,1.383-.591,1.366-1.549a1.6,1.6,0,0,1-1.391.625,1.767,1.767,0,0,1-1.883-1.883,1.972,1.972,0,0,1,2.182-2.016c1.566,0,2.516,1.108,2.516,2.9,0,1.858-1.058,3.066-2.7,3.066A3.875,3.875,0,0,1,514.349,457.138Zm3-3.482a.79.79,0,0,0-.875-.816.782.782,0,0,0-.866.841.746.746,0,0,0,.841.791A.8.8,0,0,0,517.347,453.656Z" transform="translate(-510.608 -450.491)" fill="#381132"/>
            <path id="Trazado_165409" data-name="Trazado 165409" d="M532.509,466.859a.7.7,0,1,1-1.391,0,.7.7,0,0,1,1.391,0Z" transform="translate(-522.162 -460.42)" fill="#381132"/>
            <path id="Trazado_165410" data-name="Trazado 165410" d="M537.435,457.138l.566-1.033a2.111,2.111,0,0,0,1.225.375c.933,0,1.383-.591,1.366-1.549a1.6,1.6,0,0,1-1.391.625,1.767,1.767,0,0,1-1.882-1.883,1.972,1.972,0,0,1,2.182-2.016c1.566,0,2.516,1.108,2.516,2.9,0,1.858-1.058,3.066-2.7,3.066A3.877,3.877,0,0,1,537.435,457.138Zm3-3.482a.872.872,0,0,0-1.741.025.746.746,0,0,0,.841.791A.8.8,0,0,0,540.434,453.656Z" transform="translate(-526.405 -450.491)" fill="#381132"/>
            <path id="Trazado_165411" data-name="Trazado 165411" d="M554.112,457.138l.566-1.033a2.11,2.11,0,0,0,1.224.375c.933,0,1.383-.591,1.366-1.549a1.6,1.6,0,0,1-1.391.625,1.767,1.767,0,0,1-1.882-1.883,1.972,1.972,0,0,1,2.182-2.016c1.566,0,2.516,1.108,2.516,2.9,0,1.858-1.058,3.066-2.7,3.066A3.874,3.874,0,0,1,554.112,457.138Zm3-3.482a.872.872,0,0,0-1.741.025.746.746,0,0,0,.841.791A.8.8,0,0,0,557.11,453.656Z" transform="translate(-537.816 -450.491)" fill="#381132"/>
            <path id="Trazado_165412" data-name="Trazado 165412" d="M579.548,455.061v1.258h-1.1v-1.291a4.194,4.194,0,0,1-2-.875l.575-1.141a3.635,3.635,0,0,0,2.108.875c.466,0,.758-.175.758-.508,0-1.033-3.082-.416-3.082-2.482a1.759,1.759,0,0,1,1.641-1.7v-1.233h1.1v1.191a4.421,4.421,0,0,1,1.883.633l-.558,1.158a4.348,4.348,0,0,0-1.866-.608c-.383,0-.641.142-.641.425,0,1.008,3.082.434,3.082,2.541C581.447,454.337,580.639,454.936,579.548,455.061Z" transform="translate(-553.18 -447.964)" fill="#381132"/>
          </g>
          <rect id="Rectángulo_34569" data-name="Rectángulo 34569" width="21.481" height="3.376" transform="translate(0 19.291)" fill="#4576c5"/>
          <rect id="Rectángulo_34570" data-name="Rectángulo 34570" width="21.481" height="3.376" transform="translate(0 24.819)" fill="#4576c5"/>
          <rect id="Rectángulo_34571" data-name="Rectángulo 34571" width="12.676" height="3.376" transform="translate(0 30.346)" fill="#4576c5"/>
          <rect id="Rectángulo_34572" data-name="Rectángulo 34572" width="22.787" height="3.376" transform="translate(0 41.478)" fill="#4576c5"/>
          <rect id="Rectángulo_34573" data-name="Rectángulo 34573" width="16.691" height="3.376" transform="translate(0 46.415)" fill="#4576c5"/>
          <rect id="Rectángulo_34574" data-name="Rectángulo 34574" width="15.487" height="3.376" transform="translate(47.684 46.415)" fill="#4576c5"/>
          <rect id="Rectángulo_34575" data-name="Rectángulo 34575" width="12.676" height="3.376" transform="translate(0 51.353)" fill="#4576c5"/>
          <rect id="Rectángulo_34576" data-name="Rectángulo 34576" width="22.787" height="3.376" transform="translate(0 56.29)" fill="#4576c5"/>
          <rect id="Rectángulo_34577" data-name="Rectángulo 34577" width="16.691" height="3.376" transform="translate(0 61.227)" fill="#4576c5"/>
          <rect id="Rectángulo_34578" data-name="Rectángulo 34578" width="12.676" height="3.376" transform="translate(0 66.164)" fill="#4576c5"/>
          <rect id="Rectángulo_34579" data-name="Rectángulo 34579" width="14.611" height="5.498" transform="translate(0 78.928)" fill="#4576c5"/>
          <rect id="Rectángulo_34580" data-name="Rectángulo 34580" width="10.254" height="3.376" transform="translate(52.916 51.353)" fill="#4576c5"/>
          <rect id="Rectángulo_34581" data-name="Rectángulo 34581" width="9.199" height="3.376" transform="translate(53.971 41.478)" fill="#4576c5"/>
          <rect id="Rectángulo_34582" data-name="Rectángulo 34582" width="15.487" height="3.376" transform="translate(47.684 61.227)" fill="#4576c5"/>
          <rect id="Rectángulo_34583" data-name="Rectángulo 34583" width="10.254" height="3.376" transform="translate(52.916 66.164)" fill="#4576c5"/>
          <rect id="Rectángulo_34584" data-name="Rectángulo 34584" width="12.406" height="3.376" transform="translate(50.764 56.29)" fill="#4576c5"/>
          <rect id="Rectángulo_34585" data-name="Rectángulo 34585" width="13.672" height="3.376" transform="translate(49.498 30.346)" fill="#4576c5"/>
          <rect id="Rectángulo_34586" data-name="Rectángulo 34586" width="10.296" height="3.376" transform="translate(24.559 19.291)" fill="#4576c5"/>
          <rect id="Rectángulo_34587" data-name="Rectángulo 34587" width="10.296" height="3.376" transform="translate(24.559 24.819)" fill="#4576c5"/>
          <rect id="Rectángulo_34588" data-name="Rectángulo 34588" width="6.393" height="3.376" transform="translate(37.915 24.819)" fill="#4576c5"/>
          <rect id="Rectángulo_34589" data-name="Rectángulo 34589" width="16.837" height="3.376" transform="translate(37.915 19.291)" fill="#4576c5"/>
          <rect id="Rectángulo_34590" data-name="Rectángulo 34590" width="4.684" height="3.376" transform="translate(58.486 19.291)" fill="#4576c5"/>
          <rect id="Rectángulo_34591" data-name="Rectángulo 34591" width="63.17" height="0.338" transform="translate(0 37.806)" fill="#4576c5"/>
          <rect id="Rectángulo_34592" data-name="Rectángulo 34592" width="63.17" height="0.338" transform="translate(0 73.004)" fill="#4576c5"/>
          <rect id="Rectángulo_34593" data-name="Rectángulo 34593" width="26.922" height="3.376" transform="translate(18.124 11.087)" fill="#4576c5"/>
          <g id="Grupo_57785" data-name="Grupo 57785" transform="translate(25.601)">
            <path id="Trazado_165413" data-name="Trazado 165413" d="M475.207,201.9c.909,0,1.487.393,1.487,1.013a.887.887,0,0,1-.349.721.183.183,0,0,0,.014.307,1,1,0,0,1,.474.888c0,.689-.6,1.123-1.557,1.123h-1.8a.184.184,0,0,1-.184-.184V202.08a.184.184,0,0,1,.184-.184Zm-.891,1.436a.184.184,0,0,0,.184.184h.649c.3,0,.492-.162.492-.422s-.191-.411-.492-.411H474.5a.184.184,0,0,0-.184.184Zm0,1.638a.184.184,0,0,0,.184.184h.649c.382,0,.619-.168.619-.457,0-.272-.237-.44-.619-.44H474.5a.184.184,0,0,0-.184.184Z" transform="translate(-473.292 -201.896)" fill="#381132"/>
            <path id="Trazado_165414" data-name="Trazado 165414" d="M486.4,205.763V202.08a.184.184,0,0,1,.184-.184h.662a.184.184,0,0,1,.184.184v3.683a.184.184,0,0,1-.184.184h-.662A.184.184,0,0,1,486.4,205.763Z" transform="translate(-482.259 -201.896)" fill="#381132"/>
            <path id="Trazado_165415" data-name="Trazado 165415" d="M494.975,205.269v.494a.184.184,0,0,1-.184.184H492.41a.184.184,0,0,1-.184-.184V202.08a.184.184,0,0,1,.184-.184h.662a.184.184,0,0,1,.184.184V204.9a.184.184,0,0,0,.184.184h1.35A.184.184,0,0,1,494.975,205.269Z" transform="translate(-486.248 -201.896)" fill="#381132"/>
            <path id="Trazado_165416" data-name="Trazado 165416" d="M505.239,205.269v.494a.184.184,0,0,1-.184.184h-2.381a.184.184,0,0,1-.184-.184V202.08a.184.184,0,0,1,.184-.184h.662a.184.184,0,0,1,.184.184V204.9a.184.184,0,0,0,.184.184h1.351A.184.184,0,0,1,505.239,205.269Z" transform="translate(-493.271 -201.896)" fill="#381132"/>
          </g>
          <rect id="Rectángulo_34594" data-name="Rectángulo 34594" width="34.349" height="3.376" transform="translate(14.411 6.403)" fill="#4576c5"/>
        </g>
      </g>
    </g>
    <g id="Grupo_57796" data-name="Grupo 57796" transform="translate(88.3 256.32)">
      <g id="Grupo_57791" data-name="Grupo 57791" transform="translate(0)">
        <g id="Grupo_57789" data-name="Grupo 57789">
          <path id="Trazado_165417" data-name="Trazado 165417" d="M225.706,690.088a.515.515,0,0,1-.015-1.029c.111,0,.222-.009.331-.016a.52.52,0,0,1,.541.49.515.515,0,0,1-.489.54c-.116.007-.233.011-.351.016Zm-1.367-.013h-.025c-.118-.007-.236-.013-.353-.022a.515.515,0,0,1,.071-1.027c.111.009.22.016.331.02a.515.515,0,0,1-.024,1.029Zm3.07-.127a.515.515,0,0,1-.067-1.025c.109-.014.22-.029.329-.047a.515.515,0,1,1,.156,1.018c-.118.018-.234.033-.349.049A.366.366,0,0,1,227.409,689.948Zm-4.771-.042a.446.446,0,0,1-.077-.007c-.116-.018-.231-.035-.347-.056a.514.514,0,1,1,.174-1.013c.109.018.22.036.329.051a.515.515,0,0,1-.078,1.025Zm6.452-.267a.515.515,0,0,1-.12-1.016c.109-.025.215-.051.325-.08a.515.515,0,0,1,.258,1c-.116.029-.229.058-.342.085A.557.557,0,0,1,229.089,689.639Zm-8.126-.073a.542.542,0,0,1-.129-.018c-.113-.029-.228-.06-.34-.091a.515.515,0,0,1,.276-.992c.107.031.214.06.32.086a.515.515,0,0,1-.127,1.014Zm9.767-.4a.516.516,0,0,1-.169-1c.1-.035.209-.073.311-.111a.515.515,0,0,1,.36.965l-.333.12A.564.564,0,0,1,230.73,689.161Zm-11.4-.1a.49.49,0,0,1-.176-.034c-.113-.039-.222-.082-.331-.124a.514.514,0,1,1,.375-.958c.1.04.207.08.311.117a.515.515,0,0,1-.18,1Zm12.983-.541a.515.515,0,0,1-.218-.98c.1-.047.2-.093.3-.142a.515.515,0,1,1,.456.923c-.107.051-.211.1-.318.151A.5.5,0,0,1,232.313,688.516Zm-14.555-.136a.523.523,0,0,1-.227-.051c-.107-.051-.211-.1-.316-.158a.515.515,0,0,1,.473-.916c.1.051.2.1.3.149a.514.514,0,0,1-.227.976Zm16.065-.665a.514.514,0,0,1-.264-.956c.093-.058.189-.113.282-.173a.515.515,0,1,1,.544.874c-.1.062-.2.122-.3.182A.5.5,0,0,1,233.823,687.716Zm-17.561-.164a.519.519,0,0,1-.274-.078c-.1-.062-.2-.124-.3-.189a.514.514,0,0,1,.56-.862l.282.18a.514.514,0,0,1-.273.949Zm18.982-.785a.515.515,0,0,1-.309-.927c.089-.064.178-.131.264-.2a.515.515,0,1,1,.631.814c-.093.071-.187.142-.28.211A.51.51,0,0,1,235.244,686.767Zm-20.387-.191a.509.509,0,0,1-.314-.109c-.093-.071-.184-.142-.278-.218a.515.515,0,0,1,.647-.8l.26.207a.514.514,0,0,1-.315.92Zm21.7-.9a.514.514,0,0,1-.345-.9c.08-.073.16-.146.24-.224a.515.515,0,0,1,.712.745c-.087.082-.171.162-.26.24A.505.505,0,0,1,236.56,685.68Zm-23-.216a.509.509,0,0,1-.356-.142c-.085-.08-.169-.162-.254-.245a.515.515,0,0,1,.722-.733c.08.078.16.156.24.231a.515.515,0,0,1-.353.889Zm24.2-1a.515.515,0,0,1-.382-.858c.074-.082.147-.167.218-.251a.518.518,0,0,1,.727-.053.512.512,0,0,1,.053.725c-.075.089-.153.178-.231.265A.519.519,0,0,1,237.762,684.466Zm-25.383-.24a.511.511,0,0,1-.389-.177c-.078-.089-.153-.18-.227-.269a.514.514,0,1,1,.791-.658c.071.086.142.171.213.253a.515.515,0,0,1-.389.852Zm26.457-1.092a.513.513,0,0,1-.416-.816c.064-.091.131-.18.193-.271a.515.515,0,0,1,.845.589c-.067.1-.136.191-.2.287A.516.516,0,0,1,238.836,683.134Zm-27.507-.258a.506.506,0,0,1-.42-.22c-.069-.1-.134-.191-.2-.289a.515.515,0,0,1,.856-.573c.06.091.124.182.187.273a.514.514,0,0,1-.126.716A.5.5,0,0,1,211.33,682.876Zm28.442-1.174a.521.521,0,0,1-.258-.068.513.513,0,0,1-.187-.7c.056-.1.111-.193.165-.291a.515.515,0,0,1,.9.5c-.058.1-.116.2-.176.307A.509.509,0,0,1,239.772,681.7Zm-29.347-.273a.514.514,0,0,1-.451-.265l-.167-.307a.514.514,0,1,1,.907-.485c.053.1.1.194.158.291a.514.514,0,0,1-.2.7A.5.5,0,0,1,210.425,681.429Zm30.132-1.245a.493.493,0,0,1-.209-.046.512.512,0,0,1-.258-.68c.044-.1.089-.2.133-.3a.515.515,0,1,1,.948.4c-.047.109-.1.216-.142.322A.517.517,0,0,1,240.557,680.184Zm-30.888-.286a.515.515,0,0,1-.474-.311c-.047-.107-.091-.214-.135-.322a.514.514,0,1,1,.951-.391l.129.306a.516.516,0,0,1-.471.719Zm31.515-1.308a.522.522,0,0,1-.164-.026.516.516,0,0,1-.322-.654c.035-.1.069-.209.1-.313a.515.515,0,1,1,.982.307c-.035.113-.071.227-.111.338A.51.51,0,0,1,241.184,678.589Zm-32.112-.293a.514.514,0,0,1-.49-.36c-.035-.111-.071-.225-.1-.336a.516.516,0,1,1,.99-.291c.031.107.062.214.1.318a.515.515,0,0,1-.336.647A.539.539,0,0,1,209.072,678.3Zm32.575-1.352a.494.494,0,0,1-.113-.013.515.515,0,0,1-.389-.616c.025-.106.049-.215.071-.325a.514.514,0,0,1,1.007.207c-.025.115-.049.231-.073.344A.516.516,0,0,1,241.646,676.944Zm-33-.3a.515.515,0,0,1-.5-.409q-.037-.174-.067-.347a.514.514,0,1,1,1.012-.187c.02.106.04.215.063.322a.514.514,0,0,1-.4.609A.447.447,0,0,1,208.642,676.642Zm33.3-1.383a.6.6,0,0,1-.062,0,.513.513,0,0,1-.449-.571c.013-.111.025-.22.036-.331a.515.515,0,1,1,1.025.1c-.011.115-.025.234-.038.349A.517.517,0,0,1,241.938,675.259Zm-33.556-.307a.512.512,0,0,1-.511-.46c-.013-.117-.025-.235-.033-.351a.515.515,0,0,1,1.027-.087c.009.111.018.223.029.332a.514.514,0,0,1-.458.565A.419.419,0,0,1,208.382,674.952Zm33.676-1.4h-.011a.517.517,0,0,1-.5-.525c0-.111,0-.22,0-.331v-.069a.516.516,0,0,1,1.032,0v.069c0,.118,0,.233,0,.351A.517.517,0,0,1,242.058,673.554Zm-33.764-.325a.5.5,0,0,1-.513-.5V672.7c0-.107,0-.211,0-.318a.515.515,0,0,1,1.03.018c0,.1,0,.2,0,.3A.53.53,0,0,1,208.293,673.23ZM242,671.777a.516.516,0,0,1-.513-.471c-.009-.109-.02-.22-.031-.331a.515.515,0,0,1,1.025-.1c.011.116.022.234.033.349a.52.52,0,0,1-.469.558Zm-33.624-.238-.051,0a.517.517,0,0,1-.463-.562c.011-.118.025-.236.04-.351a.52.52,0,0,1,.571-.451.513.513,0,0,1,.449.571c-.011.111-.024.22-.036.331A.513.513,0,0,1,208.376,671.54Zm33.393-1.456a.513.513,0,0,1-.5-.418c-.02-.111-.042-.218-.065-.327a.515.515,0,0,1,1.009-.209c.022.113.046.229.069.345a.513.513,0,0,1-.411.6A.494.494,0,0,1,241.769,670.084Zm-33.14-.236a.541.541,0,0,1-.1-.009.514.514,0,0,1-.4-.607c.025-.116.047-.232.074-.345a.515.515,0,1,1,1,.224c-.025.107-.047.216-.069.325A.515.515,0,0,1,208.629,669.848Zm32.742-1.425a.513.513,0,0,1-.494-.369c-.031-.107-.062-.211-.1-.318a.515.515,0,0,1,.983-.311c.034.113.069.224.1.338a.514.514,0,0,1-.494.66Zm-32.319-.229a.54.54,0,0,1-.153-.024.515.515,0,0,1-.338-.645c.036-.113.071-.225.109-.336a.514.514,0,0,1,.976.325c-.033.107-.069.211-.1.318A.515.515,0,0,1,209.052,668.193Zm31.752-1.383a.514.514,0,0,1-.476-.32c-.042-.1-.085-.2-.129-.3a.515.515,0,0,1,.945-.409c.045.106.091.213.136.322a.517.517,0,0,1-.476.711Zm-31.161-.224a.507.507,0,0,1-.2-.042.514.514,0,0,1-.272-.674c.047-.109.093-.218.143-.325a.514.514,0,1,1,.938.422l-.133.3A.514.514,0,0,1,209.643,666.586Zm30.434-1.32a.512.512,0,0,1-.453-.273l-.16-.289a.515.515,0,0,1,.9-.5c.058.1.113.207.169.309a.512.512,0,0,1-.211.7A.5.5,0,0,1,240.077,665.266Zm-29.682-.216a.507.507,0,0,1-.249-.067.514.514,0,0,1-.2-.7l.173-.307a.515.515,0,0,1,.891.516c-.056.1-.109.191-.162.289A.514.514,0,0,1,210.394,665.05Zm28.8-1.247a.518.518,0,0,1-.427-.227c-.063-.093-.124-.184-.189-.276a.514.514,0,0,1,.843-.589c.066.093.133.191.2.287a.514.514,0,0,1-.138.714A.5.5,0,0,1,239.2,663.8Zm-27.9-.207a.513.513,0,0,1-.422-.807c.067-.1.135-.193.2-.289a.515.515,0,0,1,.834.605c-.065.089-.129.18-.191.269A.519.519,0,0,1,211.3,663.6Zm26.875-1.163a.522.522,0,0,1-.4-.184q-.107-.13-.213-.254a.515.515,0,1,1,.778-.674c.078.089.153.178.227.269a.515.515,0,0,1-.067.725A.51.51,0,0,1,238.172,662.433Zm-25.83-.191a.511.511,0,0,1-.333-.122.517.517,0,0,1-.058-.727c.078-.089.153-.178.233-.267a.515.515,0,1,1,.767.687c-.073.082-.147.164-.218.249A.514.514,0,0,1,212.342,662.242Zm24.674-1.067a.51.51,0,0,1-.36-.147c-.08-.078-.16-.156-.241-.231a.514.514,0,1,1,.707-.746c.087.08.171.162.255.244a.515.515,0,0,1-.362.88Zm-23.5-.173a.515.515,0,0,1-.356-.887c.084-.082.171-.162.258-.242a.515.515,0,1,1,.694.76c-.08.073-.16.149-.24.224A.516.516,0,0,1,213.518,661Zm22.219-.963a.5.5,0,0,1-.32-.113c-.087-.069-.173-.138-.262-.2a.515.515,0,0,1,.627-.816c.093.071.187.144.278.218a.514.514,0,0,1-.322.915Zm-20.925-.156a.513.513,0,0,1-.316-.92l.278-.214a.516.516,0,0,1,.618.825c-.089.066-.178.133-.265.2A.508.508,0,0,1,214.812,659.883Zm19.54-.845a.521.521,0,0,1-.28-.085c-.093-.06-.185-.12-.28-.177a.514.514,0,1,1,.542-.874c.1.063.2.124.3.189a.515.515,0,0,1-.28.947ZM216.21,658.9a.514.514,0,0,1-.273-.949c.1-.063.2-.124.3-.184a.515.515,0,1,1,.529.883q-.143.087-.28.173A.519.519,0,0,1,216.21,658.9Zm16.661-.723a.507.507,0,0,1-.234-.056c-.1-.051-.2-.1-.3-.149a.514.514,0,1,1,.449-.924c.107.051.213.1.318.158a.514.514,0,0,1-.236.972Zm-15.169-.111a.514.514,0,0,1-.229-.976l.318-.153a.515.515,0,0,1,.436.933c-.1.047-.2.094-.3.142A.49.49,0,0,1,217.7,658.069Zm13.608-.591a.512.512,0,0,1-.187-.036c-.1-.04-.207-.08-.311-.118a.514.514,0,0,1,.356-.965c.111.04.22.082.331.125a.515.515,0,0,1-.189.994Zm-12.041-.087a.514.514,0,0,1-.18-1c.109-.042.22-.082.332-.12a.514.514,0,1,1,.338.971l-.309.112A.535.535,0,0,1,219.269,657.391Zm10.418-.451a.48.48,0,0,1-.136-.02c-.106-.029-.213-.058-.322-.085a.515.515,0,0,1,.256-1c.114.029.227.06.34.091a.515.515,0,0,1-.138,1.012Zm-8.791-.065a.514.514,0,0,1-.129-1.012c.113-.031.227-.058.342-.086a.515.515,0,0,1,.24,1c-.109.025-.215.051-.322.08A.53.53,0,0,1,220.9,656.875Zm7.124-.307a.4.4,0,0,1-.087-.008c-.109-.018-.218-.036-.326-.051a.515.515,0,1,1,.151-1.018c.115.018.233.036.349.056a.515.515,0,0,1-.087,1.023Zm-5.449-.04a.514.514,0,0,1-.078-1.023c.116-.018.231-.035.347-.051a.515.515,0,0,1,.14,1.021l-.329.047A.527.527,0,0,1,222.571,656.528Zm3.753-.162h-.036l-.331-.02a.514.514,0,1,1,.049-1.027c.116,0,.234.013.351.02a.514.514,0,0,1-.033,1.027Zm-2.052-.013a.515.515,0,0,1-.027-1.029c.118-.007.233-.012.351-.016a.515.515,0,1,1,.033,1.029c-.111,0-.22.009-.331.016Z" transform="translate(-207.78 -655.308)" fill="#4576c5"/>
        </g>
        <g id="Grupo_57790" data-name="Grupo 57790" transform="translate(0.513 0.507)">
          <circle id="Elipse_4160" data-name="Elipse 4160" cx="16.883" cy="16.883" r="16.883" fill="#fff"/>
        </g>
        <path id="Trazado_165418" data-name="Trazado 165418" d="M245.02,677.227a15.3,15.3,0,1,1-15.3-15.3A15.3,15.3,0,0,1,245.02,677.227Z" transform="translate(-212.323 -659.836)" fill="#4576c5"/>
      </g>
      <g id="Grupo_57795" data-name="Grupo 57795" transform="translate(11.487 5.536)">
        <g id="Grupo_57792" data-name="Grupo 57792" transform="translate(0 2.352)">
          <path id="Trazado_165419" data-name="Trazado 165419" d="M250.071,690.642a.618.618,0,0,1-.065,0c-3.771-.282-5.845-2.019-5.845-4.893,0-2.517,1.581-5.453,6.036-5.453a6.451,6.451,0,0,1,5.1,2.1.873.873,0,0,1-1.325,1.136,4.7,4.7,0,0,0-3.771-1.492c-3.873,0-4.291,2.594-4.291,3.708,0,.7,0,2.837,4.229,3.155a.873.873,0,0,1-.064,1.743Z" transform="translate(-244.161 -680.291)" fill="#fff"/>
        </g>
        <g id="Grupo_57793" data-name="Grupo 57793" transform="translate(0.478 10.958)">
          <path id="Trazado_165420" data-name="Trazado 165420" d="M250.979,717.9a6.452,6.452,0,0,1-5.1-2.1.873.873,0,0,1,1.325-1.136,4.7,4.7,0,0,0,3.77,1.492c3.873,0,4.291-2.595,4.291-3.708,0-.7,0-2.837-4.228-3.155a.872.872,0,1,1,.129-1.738c3.769.282,5.845,2.019,5.845,4.893C257.015,714.958,255.435,717.9,250.979,717.9Z" transform="translate(-245.674 -707.545)" fill="#fff"/>
        </g>
        <g id="Grupo_57794" data-name="Grupo 57794" transform="translate(5.036)">
          <path id="Trazado_165421" data-name="Trazado 165421" d="M260.984,696.549a.874.874,0,0,1-.874-.874V673.715a.873.873,0,1,1,1.745,0v21.961A.872.872,0,0,1,260.984,696.549Z" transform="translate(-260.11 -672.841)" fill="#fff"/>
        </g>
      </g>
    </g>
  </g>
</svg>
