<svg xmlns="http://www.w3.org/2000/svg" width="79.872" height="81" viewBox="0 0 79.872 81">
  <g id="Grupo_57740" data-name="Grupo 57740" transform="translate(-2181.115 -38.73)">
    <path id="Trazado_165250" data-name="Trazado 165250" d="M2240.874,95.09c.879.225,1.148.549,1.149,1.47,0,5.64.028,11.28-.008,16.919a6.139,6.139,0,0,1-6.3,6.246q-24.113.012-48.226,0a6.177,6.177,0,0,1-6.358-6.2c0-.144,0-.289,0-.434q0-33.874-.007-67.748a6.27,6.27,0,0,1,6.468-6.613q12.327.017,24.655.005,11.6,0,23.209,0a6.206,6.206,0,0,1,6.577,6.565c.006,1.8,0,3.6,0,5.443.337-.077.343-.327.419-.5.684-1.565,1.371-3.13,2.033-4.7a2.478,2.478,0,0,1,2.363-1.7.557.557,0,0,0,.577-.417c.255-.623.519-1.244.8-1.854a4.842,4.842,0,0,1,8.931,3.732c-.243.653-.528,1.292-.816,1.927-.135.3-.125.471.217.6a1.221,1.221,0,0,1,.895,1.327c-.035.373.216.443.454.546.707.305,1.421.594,2.125.906a1.275,1.275,0,0,1,.78,1.916q-4.73,11.012-9.473,22.019c-.363.842-1.036,1.158-1.719.846a1.3,1.3,0,0,1-.521-1.855q4.374-10.181,8.765-20.355c.227-.525.242-.834-.375-.98a1.53,1.53,0,0,1-.468-.189c-.477-.307-.672-.118-.876.359-1.748,4.095-3.525,8.178-5.29,12.266q-4.964,11.5-9.923,23c-.1.241-.177.494-.265.742a40.514,40.514,0,0,0-1.757,3.938c-1.159,2.662-2.281,5.34-3.418,8.012q-1.15,2.6-2.3,5.211a3.093,3.093,0,0,1-.72,1.064q-3.541,3.3-7.057,6.63a2.69,2.69,0,0,1-3.16.7,2.731,2.731,0,0,1-1.654-2.788q.031-4.7-.011-9.4a4.213,4.213,0,0,1,.367-1.743q5.877-13.58,11.738-27.166c1.115-2.584,2.2-5.179,3.3-7.768q1.751-3.992,3.5-7.987a1.267,1.267,0,0,0,.067-.494c0-3.9.015-7.8-.006-11.7A3.652,3.652,0,0,0,2237,41.4a6.123,6.123,0,0,0-2.641-.15c-.263-.018-.526-.052-.789-.052q-22.85,0-45.7,0c-2.832,0-4.281,1.45-4.281,4.265q0,33.551,0,67.1c0,.386-.01.772.011,1.157a3.691,3.691,0,0,0,3.332,3.506,9.772,9.772,0,0,0,1.011.036q22.777,0,45.554,0c.287,0,.574-.034.861-.052,3.481.511,5.314-1.507,5.242-4.5-.129-5.365-.038-10.736-.035-16.1C2239.566,95.578,2239.909,95.19,2240.874,95.09Zm12.02-48.9c.985.561.985.561,1.417-.447.179-.418.374-.831.529-1.258a2.383,2.383,0,0,0-4.251-2.1c-.366.644-.6,1.359-.922,2.032-.139.3-.047.432.232.544C2250.9,45.363,2251.9,45.78,2252.894,46.19Zm-29.787,61.964c-.012,1.008-.027,2.016-.033,3.024,0,.159-.05.355.14.449.217.107.362-.05.5-.18q1-.933,2-1.871,1.932-1.822,3.87-3.657a11.708,11.708,0,0,0-2.868-1.242,29.921,29.921,0,0,0-3.306-1.532c-.325-.152-.35.1-.348.333Q2223.085,105.817,2223.107,108.154Zm28.611-59.691c-1.474-.649-2.954-1.281-4.417-1.955-.468-.215-.58.035-.726.374q-2.777,6.462-5.564,12.919-1.9,4.4-3.8,8.809c-.125.29-.378.6.149.807,1.562.624,3.06,1.4,4.653,1.95.631.407,1.372.581,2.021.942.517.287.75.208.988-.366,1.082-2.6,2.217-5.175,3.333-7.76q3-6.958,6.018-13.911c.2-.458.168-.677-.322-.855C2253.26,49.131,2252.494,48.785,2251.718,48.464ZM2240.891,73.7c-1.405-.625-2.821-1.229-4.211-1.886-.564-.267-.8-.173-1.052.421q-4.505,10.525-9.065,21.027-1.445,3.348-2.882,6.7c-.117.273-.263.525.155.7,1.486.614,2.966,1.244,4.447,1.868.678.3,1.352.618,2.037.907.925.39.92.377,1.323-.557q4.524-10.48,9.055-20.957,1.389-3.216,2.775-6.434c.131-.306.325-.629-.172-.822C2242.493,74.347,2241.693,74.018,2240.891,73.7Z" transform="translate(0 0)" fill="#050507"/>
    <path id="Trazado_165251" data-name="Trazado 165251" d="M2550.284,393.875c1.137-2.672,2.259-5.35,3.418-8.012a40.578,40.578,0,0,1,1.757-3.938,2.978,2.978,0,0,1,.211,1.259c-.008,1.817,0,3.634,0,5.451-.966.1-1.308.487-1.309,1.514,0,5.368-.094,10.739.035,16.1.072,3-1.76,5.015-5.242,4.5a3.806,3.806,0,0,1,.371-.774,5,5,0,0,0,.95-3.238c.028-4.108-.126-8.216.077-12.323A.576.576,0,0,0,2550.284,393.875Z" transform="translate(-314.798 -293.545)" fill="#c4e8f5"/>
    <path id="Trazado_165252" data-name="Trazado 165252" d="M2250.1,114.915a.577.577,0,0,1,.271.548c-.2,4.106-.05,8.215-.078,12.323a4.993,4.993,0,0,1-.949,3.238,3.794,3.794,0,0,0-.371.774c-.287.018-.574.052-.861.052q-22.778,0-45.555,0a9.772,9.772,0,0,1-1.011-.036,3.692,3.692,0,0,1-3.332-3.506c-.021-.385-.01-.771-.01-1.157q0-33.551,0-67.1c0-2.815,1.449-4.265,4.281-4.265q22.85,0,45.7,0c.263,0,.526.034.789.052a3.811,3.811,0,0,0,.372.773,4.925,4.925,0,0,1,.948,3.237c-.02,6.129-.009,12.258-.009,18.387a2.13,2.13,0,0,0,.328,1.423c-1.1,2.59-2.189,5.185-3.3,7.768q-5.86,13.587-11.738,27.166a4.2,4.2,0,0,0-.367,1.743q.034,4.7.011,9.4a2.731,2.731,0,0,0,1.653,2.788,2.69,2.69,0,0,0,3.16-.7q3.508-3.337,7.058-6.63a3.093,3.093,0,0,0,.72-1.064C2248.568,118.387,2249.338,116.652,2250.1,114.915Zm-18.094-47.4c.2.876.522,1.2,1.349,1.214,1.807.021,3.615.035,5.421-.014a2.064,2.064,0,0,0,2.148-2.221q.042-2.023.005-4.048a2.14,2.14,0,0,0-2.312-2.3q-12.542-.012-25.085,0a2.19,2.19,0,0,0-2.369,2.407c-.011,1.157,0,2.313,0,3.47,0,1.94.781,2.717,2.714,2.717q6.47,0,12.94,0c1.314,0,1.469-.1,1.91-1.25Zm-5.8,8.778h18.652a5.649,5.649,0,0,0,.794-.023,1.243,1.243,0,0,0,1.058-1.2,1.216,1.216,0,0,0-1.093-1.225,6.726,6.726,0,0,0-.794-.024q-18.651,0-37.3,0a6.7,6.7,0,0,0-.722.021,1.226,1.226,0,0,0-1.134,1.193,1.241,1.241,0,0,0,1.1,1.234,6.151,6.151,0,0,0,.794.021Zm-.027,7.724h18.792a4,4,0,0,0,.721-.022,1.133,1.133,0,0,0,1.005-1.146,1.119,1.119,0,0,0-.917-1.215,3.333,3.333,0,0,0-.789-.056q-18.793,0-37.585,0a4.684,4.684,0,0,0-.649.025,1.207,1.207,0,0,0,.052,2.408c.215.02.433.008.65.008Zm-4.376,5.294h-14.233c-.241,0-.483-.009-.722.015a1.225,1.225,0,0,0,0,2.449c.215.019.433.009.65.009h28.61c.193,0,.387.009.578-.009a1.239,1.239,0,0,0,1.177-1.228,1.224,1.224,0,0,0-1.178-1.222c-.263-.024-.53-.013-.794-.013Zm-2.365,34.2a6.58,6.58,0,0,0,5.732-3.976,1.222,1.222,0,0,0-.521-1.5,1.163,1.163,0,0,0-1.556.279c-.212.26-.367.564-.56.84a3.63,3.63,0,0,1-4.413,1.7,5.179,5.179,0,0,1-1.822-1,17.638,17.638,0,0,0-2.265-1.667,6.681,6.681,0,0,0-9.328,3.358c-.335.881-.1,1.609.611,1.881.694.265,1.3-.072,1.674-.933a4.18,4.18,0,0,1,6.437-1.764c.544.4,1.05.844,1.587,1.252A7.356,7.356,0,0,0,2219.439,123.513Zm-4.8-24h3.9c1.229,0,2.458.012,3.687-.006a1.207,1.207,0,0,0,1.282-1.188,1.228,1.228,0,0,0-1.229-1.25c-.143-.013-.289-.008-.433-.008q-7.229,0-14.459,0a3.941,3.941,0,0,0-.72.045,1.194,1.194,0,0,0-.839,1.779,1.326,1.326,0,0,0,1.289.63C2209.623,99.511,2212.129,99.516,2214.635,99.515Z" transform="translate(-14.618 -14.585)" fill="#e7f4fc"/>
    <path id="Trazado_165253" data-name="Trazado 165253" d="M2479.214,297.258c-1.482-.624-2.961-1.254-4.447-1.868-.419-.173-.273-.425-.155-.7q1.443-3.349,2.882-6.7,4.538-10.511,9.065-21.027c.254-.594.487-.688,1.052-.421,1.39.657,2.806,1.261,4.211,1.886-.779,1.8-1.563,3.6-2.335,5.4-.4.939-.768,1.894-1.178,2.83-.655,1.494-1.354,2.97-2,4.469-.914,2.13-1.738,4.3-2.7,6.4-1.028,2.241-1.948,4.527-2.956,6.775A12.184,12.184,0,0,1,2479.214,297.258Z" transform="translate(-250.931 -194.734)" fill="#472ea6"/>
    <path id="Trazado_165254" data-name="Trazado 165254" d="M2572.649,116.882c-1.592-.551-3.091-1.326-4.653-1.95-.528-.211-.274-.517-.15-.807q1.9-4.407,3.8-8.809,2.785-6.458,5.564-12.919c.146-.34.258-.59.726-.374,1.462.673,2.943,1.306,4.417,1.955a.66.66,0,0,1-.016.215c-1.333,3.046-2.7,6.076-4,9.137-1.287,3.039-2.556,6.085-3.907,9.1A38.472,38.472,0,0,0,2572.649,116.882Z" transform="translate(-330.638 -45.513)" fill="#bbabf5"/>
    <path id="Trazado_165255" data-name="Trazado 165255" d="M2507.154,309.245a12.183,12.183,0,0,0,1.439-2.946c1.008-2.248,1.928-4.534,2.956-6.775.966-2.105,1.79-4.275,2.7-6.4.644-1.5,1.342-2.975,2-4.469.41-.936.776-1.891,1.178-2.83.772-1.8,1.556-3.6,2.334-5.4.8.322,1.6.652,2.408.965.5.193.3.516.172.822q-1.384,3.219-2.775,6.434-4.527,10.479-9.054,20.957c-.4.934-.4.947-1.323.557C2508.506,309.864,2507.833,309.549,2507.154,309.245Z" transform="translate(-278.872 -206.722)" fill="#301a85"/>
    <path id="Trazado_165256" data-name="Trazado 165256" d="M2550.786,79.549a2.131,2.131,0,0,1-.328-1.423c0-6.129-.01-12.258.009-18.387a4.924,4.924,0,0,0-.948-3.237,3.824,3.824,0,0,1-.372-.773,6.123,6.123,0,0,1,2.641.15,3.652,3.652,0,0,1,2.556,3.487c.021,3.9.009,7.8.007,11.7a1.267,1.267,0,0,1-.067.494Q2552.544,75.56,2550.786,79.549Z" transform="translate(-314.79 -14.477)" fill="#c4e8f5"/>
    <path id="Trazado_165257" data-name="Trazado 165257" d="M2602.056,128.912a38.515,38.515,0,0,1,1.785-4.456c1.352-3.012,2.621-6.058,3.907-9.1,1.3-3.061,2.664-6.092,4-9.137a.66.66,0,0,0,.016-.215c.776.321,1.543.667,2.331.954.49.179.522.4.322.855q-3.029,6.947-6.018,13.911c-1.115,2.585-2.25,5.161-3.332,7.76-.239.574-.471.653-.989.366C2603.428,129.493,2602.687,129.319,2602.056,128.912Z" transform="translate(-360.044 -57.543)" fill="#8778be"/>
    <path id="Trazado_165258" data-name="Trazado 165258" d="M2474.755,494.579a11.7,11.7,0,0,1,2.867,1.242q-1.943,1.838-3.869,3.657-1,.94-2,1.871c-.139.129-.284.287-.5.18-.19-.094-.141-.29-.14-.449.007-1.008.021-2.016.033-3.024a.641.641,0,0,0,.428-.233c.9-.889,1.773-1.8,2.748-2.612A.919.919,0,0,0,2474.755,494.579Z" transform="translate(-248.038 -389.901)" fill="#5a499a"/>
    <path id="Trazado_165259" data-name="Trazado 165259" d="M2657.81,60.862c-1-.411-1.995-.827-3-1.229-.279-.112-.371-.248-.232-.544.317-.673.557-1.388.922-2.032a2.265,2.265,0,0,1,3.457-.634,6.325,6.325,0,0,1-.756,3.16A2.047,2.047,0,0,0,2657.81,60.862Z" transform="translate(-404.916 -14.672)" fill="#c2b6ee"/>
    <path id="Trazado_165260" data-name="Trazado 165260" d="M2474.729,485.247a.92.92,0,0,1-.433.632c-.976.809-1.85,1.723-2.749,2.612a.641.641,0,0,1-.428.233q-.022-2.338-.044-4.675c0-.235.022-.485.348-.333A29.964,29.964,0,0,1,2474.729,485.247Z" transform="translate(-248.012 -380.569)" fill="#6b58b2"/>
    <path id="Trazado_165261" data-name="Trazado 165261" d="M2305.334,93.257c-.441,1.152-.6,1.25-1.911,1.249q-6.47,0-12.94,0c-1.933,0-2.712-.777-2.714-2.717,0-1.157-.009-2.313,0-3.47a2.19,2.19,0,0,1,2.37-2.407q12.542-.013,25.085,0a2.14,2.14,0,0,1,2.312,2.3q.036,2.024-.005,4.048a2.064,2.064,0,0,1-2.148,2.221c-1.806.049-3.615.035-5.421.014-.827-.01-1.149-.339-1.349-1.214.185-.911.526-1.2,1.43-1.229.306-.009.612-.022.917-.033,1.223.016,2.446.027,3.669.052.378.008.506-.165.5-.525-.012-.889-.009-1.778,0-2.667,0-.306-.072-.524-.433-.514-1.2.034-2.4-.082-3.595.063a.583.583,0,0,0-.139-.035q-10.12-.009-20.239-.021c-.41,0-.476.19-.47.532a22.883,22.883,0,0,1-.01,2.312c-.058.695.216.833.854.83,4.192-.024,8.385-.015,12.577-.009C2304.76,92.038,2305.042,92.259,2305.334,93.257Z" transform="translate(-91.221 -40.35)" fill="#050607"/>
    <path id="Trazado_165262" data-name="Trazado 165262" d="M2270.3,182.97H2251.65a6.15,6.15,0,0,1-.794-.021,1.241,1.241,0,0,1-1.1-1.234,1.227,1.227,0,0,1,1.134-1.193,6.707,6.707,0,0,1,.722-.021q18.652,0,37.3,0a6.717,6.717,0,0,1,.794.024,1.216,1.216,0,0,1,1.094,1.225,1.243,1.243,0,0,1-1.058,1.2,5.653,5.653,0,0,1-.794.023Z" transform="translate(-58.713 -121.26)" fill="#070708"/>
    <path id="Trazado_165263" data-name="Trazado 165263" d="M2270.279,236.521h-18.72c-.217,0-.435.011-.65-.008a1.207,1.207,0,0,1-.051-2.408,4.68,4.68,0,0,1,.649-.025q18.792,0,37.585,0a3.337,3.337,0,0,1,.79.056,1.12,1.12,0,0,1,.917,1.215,1.133,1.133,0,0,1-1.006,1.146,4,4,0,0,1-.721.022Z" transform="translate(-58.717 -167.087)" fill="#070708"/>
    <path id="Trazado_165264" data-name="Trazado 165264" d="M2325.575,106.6c-.306.011-.611.024-.917.033-.9.026-1.246.318-1.431,1.229l-3.28-.024c-.292-1-.574-1.22-1.659-1.221-4.192-.006-8.385-.016-12.577.009-.638,0-.911-.135-.854-.83a22.955,22.955,0,0,0,.01-2.312c-.006-.342.06-.532.47-.532q10.119.02,20.239.021a.586.586,0,0,1,.139.035A14.3,14.3,0,0,1,2325.575,106.6Z" transform="translate(-105.835 -54.93)" fill="#2cffe2"/>
    <path id="Trazado_165265" data-name="Trazado 165265" d="M2265.908,287.538H2280c.265,0,.531-.01.794.013a1.225,1.225,0,0,1,1.179,1.222,1.239,1.239,0,0,1-1.177,1.228c-.191.017-.385.009-.577.009H2251.6c-.217,0-.435.011-.65-.009a1.225,1.225,0,0,1,0-2.449c.239-.023.481-.015.722-.015Z" transform="translate(-58.722 -212.811)" fill="#060708"/>
    <path id="Trazado_165266" data-name="Trazado 165266" d="M2256.987,487.742a7.355,7.355,0,0,1-4.424-1.534c-.537-.407-1.042-.856-1.587-1.252a4.18,4.18,0,0,0-6.437,1.764c-.374.86-.98,1.2-1.674.933-.71-.272-.947-1-.612-1.881a6.681,6.681,0,0,1,9.328-3.358,17.619,17.619,0,0,1,2.265,1.667,5.185,5.185,0,0,0,1.822,1,3.63,3.63,0,0,0,4.413-1.7c.193-.276.348-.58.56-.84a1.163,1.163,0,0,1,1.556-.279,1.222,1.222,0,0,1,.521,1.5A6.579,6.579,0,0,1,2256.987,487.742Z" transform="translate(-52.166 -378.815)" fill="#070708"/>
    <path id="Trazado_165267" data-name="Trazado 165267" d="M2258.736,343.577c-2.506,0-5.012,0-7.518,0a1.326,1.326,0,0,1-1.289-.63,1.194,1.194,0,0,1,.839-1.779,3.937,3.937,0,0,1,.719-.045q7.229,0,14.459,0c.144,0,.29-.005.433.008a1.228,1.228,0,0,1,1.229,1.25,1.207,1.207,0,0,1-1.282,1.188c-1.229.019-2.458.006-3.687.006Z" transform="translate(-58.719 -258.647)" fill="#080809"/>
    <path id="Trazado_165268" data-name="Trazado 165268" d="M2448.108,106.492a14.3,14.3,0,0,0,.141-3.591c1.2-.145,2.4-.028,3.6-.062.361-.01.435.208.433.514-.007.889-.01,1.778,0,2.667.005.359-.123.532-.5.525C2450.554,106.518,2449.331,106.508,2448.108,106.492Z" transform="translate(-228.367 -54.822)" fill="#1bcbb3"/>
  </g>
</svg>
