<svg xmlns="http://www.w3.org/2000/svg" width="322.268" height="393.098" viewBox="0 0 322.268 393.098">
  <g id="Grupo_63738" data-name="Grupo 63738" transform="translate(11798.134 1893.321)">
    <path id="Trazado_165307" data-name="Trazado 165307" d="M522.135,2029.95v186.989c0,9.776,8.6,17.7,19.223,17.7h73.08l29.23,19.753c.724.488,1.908,1.291,2.631,1.779l35.654,24.094a2.533,2.533,0,0,0,2.63,0l35.658-24.094c.72-.488,1.9-1.291,2.628-1.779l29.231-19.753h73.08c10.619,0,19.223-7.928,19.223-17.7V2029.95Z" transform="translate(-12320.269 -3780.861)" fill="#bbabf5" opacity="0.25"/>
    <rect id="Rectángulo_34550" data-name="Rectángulo 34550" width="295" height="330" rx="22" transform="translate(-11784 -1893.321)" fill="#f6f6f6"/>
    <text id="Es_el_medio_por_el_cual_se_determina_el_lugar_de_origen_de_las_mercancías_donde_se_han_producido_o_fabricado._Las_normas_de_origen_garantizan_que_la_preferencia_se_destine_a_los_países_con_los_cuales_se_tiene_un_acuerdo_comercial." data-name="Es el medio por el cual se determina el lugar de origen de las mercancías donde se han producido o fabricado. Las normas de origen garantizan que la preferencia se destine a los países con los cuales se tiene un acuerdo comercial." transform="translate(-11765 -1744.124)" fill="#12263f" font-size="16" font-family="Roboto-Regular, Roboto"><tspan x="0" y="17">Es el medio por el cual se determina </tspan><tspan x="0" y="41">el lugar de origen de las mercancías </tspan><tspan x="0" y="65">donde se han producido o </tspan><tspan x="0" y="89">fabricado. Las normas de origen </tspan><tspan x="0" y="113">garantizan que la preferencia se </tspan><tspan x="0" y="137">destine a los países con los cuales </tspan><tspan x="0" y="161">se tiene un acuerdo comercial.</tspan></text>
    <path id="Rectángulo_34551" data-name="Rectángulo 34551" d="M22,0H273a22,22,0,0,1,22,22V34a0,0,0,0,1,0,0H0a0,0,0,0,1,0,0V22A22,22,0,0,1,22,0Z" transform="translate(-11784.5 -1893.321)" fill="#bbabf5"/>
    <text id="Concepto" transform="translate(-11736.5 -1888.321)" fill="#12263f" font-size="20" font-family="Roboto-BoldItalic, Roboto" font-weight="700" font-style="italic" opacity="0.85"><tspan x="-42.031" y="21">Concepto</tspan></text>
  </g>
</svg>
