<svg xmlns="http://www.w3.org/2000/svg" xmlns:xlink="http://www.w3.org/1999/xlink" width="160.667" height="148.263" viewBox="0 0 160.667 148.263">
  <defs>
    <clipPath id="clip-path">
      <circle id="Elipse_4674" data-name="Elipse 4674" cx="40.894" cy="40.894" r="40.894" transform="translate(0 57.833) rotate(-45)" fill="none"/>
    </clipPath>
  </defs>
  <g id="Grupo_63738" data-name="Grupo 63738" transform="translate(-879.622 -520.63)">
    <g id="Grupo_63593" data-name="Grupo 63593" transform="translate(1021.472 630.152)">
      <path id="Trazado_169820" data-name="Trazado 169820" d="M1060.336,652.735h-8.51a.84.84,0,0,1,0-1.679h8.51a.84.84,0,1,1,0,1.679Z" transform="translate(-1048.937 -651.056)" fill="#fff"/>
      <g id="Grupo_63592" data-name="Grupo 63592" transform="translate(0 5.591)">
        <path id="Trazado_169821" data-name="Trazado 169821" d="M1066.524,659.393h-17.138a.84.84,0,0,1,0-1.679h17.138a.84.84,0,0,1,0,1.679Z" transform="translate(-1048.546 -657.714)" fill="#fff"/>
      </g>
    </g>
    <g id="Grupo_63595" data-name="Grupo 63595" transform="translate(910.868 660.286)">
      <path id="Trazado_169822" data-name="Trazado 169822" d="M958.323,695.827H934.194a.84.84,0,1,1,0-1.679h24.129a.84.84,0,0,1,0,1.679Z" transform="translate(-919.48 -688.097)" fill="#fff"/>
      <g id="Grupo_63594" data-name="Grupo 63594" transform="translate(6.782 0)">
        <path id="Trazado_169823" data-name="Trazado 169823" d="M950.235,688.621H925.749a.84.84,0,0,1,0-1.679h24.486a.84.84,0,0,1,0,1.679Z" transform="translate(-924.909 -686.942)" fill="#fff"/>
      </g>
      <path id="Trazado_169824" data-name="Trazado 169824" d="M924.567,695.827h-6.9a.84.84,0,0,1,0-1.679h6.9a.84.84,0,0,1,0,1.679Z" transform="translate(-916.832 -688.097)" fill="#fff"/>
    </g>
    <g id="Grupo_63597" data-name="Grupo 63597" transform="translate(1004.163 542.195)">
      <path id="Trazado_169825" data-name="Trazado 169825" d="M1039.969,562.29h-.007l-8.294-.076a.84.84,0,1,1,.014-1.68l8.294.076a.84.84,0,0,1-.007,1.679Z" transform="translate(-1028.399 -548.591)" fill="#fff"/>
      <path id="Trazado_169826" data-name="Trazado 169826" d="M1041.3,548.1h-.008l-12.529-.114a.84.84,0,0,1,.007-1.679h.008l12.529.114a.84.84,0,0,1-.008,1.679Z" transform="translate(-1027.934 -546.311)" fill="#fff"/>
      <g id="Grupo_63596" data-name="Grupo 63596" transform="translate(6.644 6.479)">
        <path id="Trazado_169827" data-name="Trazado 169827" d="M1053.39,555.858h-.008l-16.7-.152a.84.84,0,0,1,.007-1.679h.008l16.7.152a.84.84,0,0,1-.008,1.679Z" transform="translate(-1035.846 -554.027)" fill="#fff"/>
      </g>
    </g>
    <g id="Grupo_63598" data-name="Grupo 63598" transform="translate(906.96 560.068)">
      <rect id="Rectángulo_35727" data-name="Rectángulo 35727" width="12.911" height="87.886" transform="translate(9.681 0) rotate(6.324)" fill="#909ec0"/>
      <rect id="Rectángulo_35728" data-name="Rectángulo 35728" width="4.304" height="87.886" transform="translate(26.078 1.817) rotate(6.325)" fill="#909ec0"/>
      <rect id="Rectángulo_35729" data-name="Rectángulo 35729" width="6.884" height="87.886" transform="matrix(0.994, 0.11, -0.11, 0.994, 34.206, 2.718)" fill="#909ec0"/>
      <rect id="Rectángulo_35730" data-name="Rectángulo 35730" width="3.442" height="87.886" transform="matrix(0.994, 0.11, -0.11, 0.994, 43.474, 3.745)" fill="#909ec0"/>
      <rect id="Rectángulo_35731" data-name="Rectángulo 35731" width="3.442" height="87.886" transform="translate(51.316 4.614) rotate(6.325)" fill="#909ec0"/>
      <rect id="Rectángulo_35732" data-name="Rectángulo 35732" width="12.623" height="87.886" transform="translate(58.801 5.444) rotate(6.324)" fill="#909ec0"/>
      <rect id="Rectángulo_35733" data-name="Rectángulo 35733" width="2.94" height="87.886" transform="matrix(0.994, 0.11, -0.11, 0.994, 73.059, 7.024)" fill="#909ec0"/>
      <rect id="Rectángulo_35734" data-name="Rectángulo 35734" width="6.526" height="87.886" transform="translate(77.692 7.538) rotate(6.324)" fill="#909ec0"/>
      <rect id="Rectángulo_35735" data-name="Rectángulo 35735" width="3.263" height="87.886" transform="matrix(0.994, 0.11, -0.11, 0.994, 86.247, 8.486)" fill="#909ec0"/>
      <rect id="Rectángulo_35736" data-name="Rectángulo 35736" width="7.566" height="87.886" transform="translate(93.055 9.24) rotate(6.324)" fill="#909ec0"/>
      <rect id="Rectángulo_35737" data-name="Rectángulo 35737" width="3.783" height="87.886" transform="translate(104.336 10.491) rotate(6.324)" fill="#909ec0"/>
      <rect id="Rectángulo_35738" data-name="Rectángulo 35738" width="6.294" height="87.886" transform="matrix(0.994, 0.11, -0.11, 0.994, 111.429, 11.277)" fill="#909ec0"/>
    </g>
    <g id="Grupo_63599" data-name="Grupo 63599" transform="translate(929.667 574.383)">
      <rect id="Rectángulo_35739" data-name="Rectángulo 35739" width="14.565" height="96.342" rx="4.67" transform="translate(0 5.615) rotate(-22.675)" fill="#8bb4ee"/>
      <path id="Trazado_169828" data-name="Trazado 169828" d="M950.667,586.385l-1.292.54,33.578,80.366a3.921,3.921,0,0,1-2.107,5.13l-4.911,2.051.54,1.292a3.922,3.922,0,0,0,5.13,2.107l6.2-2.591a3.921,3.921,0,0,0,2.106-5.13L955.8,588.492A3.921,3.921,0,0,0,950.667,586.385Z" transform="translate(-940.847 -584.873)" fill="#7ca1ce"/>
      <rect id="Rectángulo_35740" data-name="Rectángulo 35740" width="14.565" height="24.462" transform="translate(11.875 34.038) rotate(-22.676)" fill="#f6f19d"/>
      <rect id="Rectángulo_35741" data-name="Rectángulo 35741" width="5.322" height="24.462" transform="matrix(0.923, -0.386, 0.386, 0.923, 20.404, 30.474)" fill="#f6d42e"/>
      <path id="Trazado_169829" data-name="Trazado 169829" d="M978.545,678.844a4.757,4.757,0,0,1-4.389-2.917l-34.117-81.659a4.75,4.75,0,0,1,2.552-6.213l6.2-2.592a4.753,4.753,0,0,1,6.212,2.553l34.118,81.658a4.749,4.749,0,0,1-2.552,6.213l-6.2,2.591A4.708,4.708,0,0,1,978.545,678.844ZM950.623,586.75a3.077,3.077,0,0,0-1.192.241l-6.2,2.592a3.091,3.091,0,0,0-1.662,4.046l34.117,81.658a3.1,3.1,0,0,0,4.047,1.662l6.2-2.591a3.094,3.094,0,0,0,1.662-4.047l-34.118-81.658a3.1,3.1,0,0,0-2.854-1.9Z" transform="translate(-939.291 -584.715)" fill="#6e7392"/>
    </g>
    <g id="Grupo_63600" data-name="Grupo 63600" transform="translate(879.622 520.63)" opacity="0.8">
      <circle id="Elipse_4673" data-name="Elipse 4673" cx="40.894" cy="40.894" r="40.894" transform="translate(0 57.833) rotate(-45)" fill="#ecf6fe"/>
    </g>
    <path id="Trazado_169830" data-name="Trazado 169830" d="M910.822,588.16a2.193,2.193,0,0,1-2.161-1.835,31.145,31.145,0,0,1,25.584-35.792,2.194,2.194,0,0,1,.72,4.328,26.723,26.723,0,0,0-21.976,30.745,2.193,2.193,0,0,1-1.8,2.524A2.219,2.219,0,0,1,910.822,588.16Z" transform="translate(-4.586 -4.788)" fill="#fff"/>
    <g id="Grupo_63603" data-name="Grupo 63603" transform="translate(879.622 520.63)" opacity="0.8">
      <g id="Grupo_63602" data-name="Grupo 63602" clip-path="url(#clip-path)">
        <g id="Grupo_63601" data-name="Grupo 63601" transform="translate(27.338 39.438)">
          <rect id="Rectángulo_35742" data-name="Rectángulo 35742" width="12.911" height="87.886" transform="translate(9.681) rotate(6.324)" fill="#909ec0"/>
          <rect id="Rectángulo_35743" data-name="Rectángulo 35743" width="4.304" height="87.886" transform="translate(26.078 1.817) rotate(6.325)" fill="#909ec0"/>
          <rect id="Rectángulo_35744" data-name="Rectángulo 35744" width="6.884" height="87.886" transform="matrix(0.994, 0.11, -0.11, 0.994, 34.206, 2.718)" fill="#909ec0"/>
          <rect id="Rectángulo_35745" data-name="Rectángulo 35745" width="3.442" height="87.886" transform="matrix(0.994, 0.11, -0.11, 0.994, 43.474, 3.745)" fill="#909ec0"/>
          <rect id="Rectángulo_35746" data-name="Rectángulo 35746" width="3.442" height="87.886" transform="translate(51.316 4.614) rotate(6.325)" fill="#909ec0"/>
          <rect id="Rectángulo_35747" data-name="Rectángulo 35747" width="12.623" height="87.886" transform="translate(58.801 5.444) rotate(6.324)" fill="#909ec0"/>
          <rect id="Rectángulo_35748" data-name="Rectángulo 35748" width="2.94" height="87.886" transform="matrix(0.994, 0.11, -0.11, 0.994, 73.059, 7.024)" fill="#909ec0"/>
          <rect id="Rectángulo_35749" data-name="Rectángulo 35749" width="6.526" height="87.886" transform="translate(77.692 7.538) rotate(6.324)" fill="#909ec0"/>
          <rect id="Rectángulo_35750" data-name="Rectángulo 35750" width="3.263" height="87.886" transform="matrix(0.994, 0.11, -0.11, 0.994, 86.247, 8.486)" fill="#909ec0"/>
          <rect id="Rectángulo_35751" data-name="Rectángulo 35751" width="7.566" height="87.886" transform="translate(93.055 9.24) rotate(6.324)" fill="#909ec0"/>
          <rect id="Rectángulo_35752" data-name="Rectángulo 35752" width="3.783" height="87.886" transform="translate(104.336 10.491) rotate(6.324)" fill="#909ec0"/>
          <rect id="Rectángulo_35753" data-name="Rectángulo 35753" width="6.294" height="87.886" transform="matrix(0.994, 0.11, -0.11, 0.994, 111.429, 11.277)" fill="#909ec0"/>
        </g>
      </g>
    </g>
    <path id="Trazado_169831" data-name="Trazado 169831" d="M984.97,582.689a40.9,40.9,0,0,0-31.25-40.513,40.889,40.889,0,0,1-32.742,73.476,40.888,40.888,0,0,0,63.992-32.963Z" transform="translate(-6.628 -3.453)" fill="#c2e7fe" opacity="0.5"/>
    <path id="Trazado_169832" data-name="Trazado 169832" d="M940.305,624.265c-.275,0-.548,0-.825-.008a42.925,42.925,0,1,1,.825.008Zm-.033-81.787a38.823,38.823,0,0,0-.714,77.64c.248,0,.5.006.745.006a38.869,38.869,0,0,0,38.806-38.089l2.07.039-2.07-.039a38.868,38.868,0,0,0-38.083-39.55C940.775,542.48,940.523,542.477,940.272,542.477Z" transform="translate(-2.838 -2.838)" fill="#6e7392"/>
  </g>
</svg>
