<svg xmlns="http://www.w3.org/2000/svg" xmlns:xlink="http://www.w3.org/1999/xlink" width="322.271" height="393.098" viewBox="0 0 322.271 393.098">
  <defs>
    <clipPath id="clip-path">
      <rect id="Rectángulo_34557" data-name="Rectángulo 34557" width="85" height="80" transform="translate(740 9545)" fill="#fff" stroke="#707070" stroke-width="1"/>
    </clipPath>
  </defs>
  <g id="Grupo_63739" data-name="Grupo 63739" transform="translate(11389 1893.321)">
    <path id="Trazado_165308" data-name="Trazado 165308" d="M522.135,2029.95v186.989c0,9.776,8.6,17.7,19.223,17.7h73.081l29.23,19.753c.724.488,1.908,1.291,2.631,1.779l35.654,24.094a2.533,2.533,0,0,0,2.63,0l35.659-24.094c.72-.488,1.9-1.291,2.628-1.779l29.231-19.753h73.081c10.619,0,19.223-7.928,19.223-17.7V2029.95Z" transform="translate(-11911.135 -3780.861)" fill="#2cffe2" opacity="0.25"/>
    <rect id="Rectángulo_34552" data-name="Rectángulo 34552" width="295" height="330" rx="22" transform="translate(-11375 -1893.321)" fill="#f6f6f6"/>
    <text id="Las_normas_tienen_como_objetivo_principal_el_impedir_que_los_bienes_producidos_en_otros_países_y_que_no_son_miembros_de_acuerdos_comerciales_reciban_las_preferencias_acordadas_dentro_del_mismo_acuerdo." data-name="Las normas tienen como objetivo principal el impedir que los bienes producidos en otros países y que no son miembros de acuerdos comerciales, reciban las preferencias acordadas dentro del mismo acuerdo." transform="translate(-11351 -1744.124)" fill="#12263f" font-size="16" font-family="Roboto-Regular, Roboto"><tspan x="0" y="17">Las normas tienen como objetivo </tspan><tspan x="0" y="41">principal el impedir que los bienes </tspan><tspan x="0" y="65">producidos en otros países y que </tspan><tspan x="0" y="89">no son miembros de acuerdos </tspan><tspan x="0" y="113">comerciales, reciban las </tspan><tspan x="0" y="137">preferencias acordadas dentro del </tspan><tspan x="0" y="161">mismo acuerdo.</tspan></text>
    <path id="Rectángulo_34553" data-name="Rectángulo 34553" d="M22,0H273a22,22,0,0,1,22,22V34a0,0,0,0,1,0,0H0a0,0,0,0,1,0,0V22A22,22,0,0,1,22,0Z" transform="translate(-11375 -1893.321)" fill="#2cffe2"/>
    <text id="Objetivo" transform="translate(-11328 -1888.321)" fill="#12263f" font-size="20" font-family="Roboto-BoldItalic, Roboto" font-weight="700" font-style="italic" opacity="0.85"><tspan x="-36.475" y="21">Objetivo</tspan></text>
    <g id="Enmascarar_grupo_52" data-name="Enmascarar grupo 52" transform="translate(-12010 -11387.321)" clip-path="url(#clip-path)">
      <g id="Grupo_57748" data-name="Grupo 57748" transform="translate(-20.396 10195.479)">
        <path id="Trazado_165310" data-name="Trazado 165310" d="M773.807-610.115q0-16.94,0-33.88c0-3.527,1.793-5.314,5.328-5.314q17.634,0,35.268-.015a3,3,0,0,1,2.314.945q7.131,7.185,14.317,14.315a3.013,3.013,0,0,1,.951,2.314q-.028,27.8-.015,55.6c0,3.417-1.823,5.236-5.243,5.236H779.05c-3.421,0-5.241-1.816-5.242-5.235Q773.805-593.134,773.807-610.115Zm39.809-36.114h-.847q-16.94,0-33.881,0c-1.5,0-2.01.51-2.01,2.015q0,34.085,0,68.17c0,1.553.5,2.045,2.062,2.045q23.961,0,47.923,0c1.546,0,2.039-.5,2.039-2.066q0-26.982,0-53.964c0-.286-.028-.571-.046-.9h-1q-6,0-12,0c-1.785,0-2.239-.449-2.24-2.206q0-6,0-12Zm3.1,2.5v9.689h9.713Z" transform="translate(0 0)" fill="#0ac7ad"/>
        <path id="Trazado_165311" data-name="Trazado 165311" d="M852.851-478.45a48.683,48.683,0,0,1-1.8,5.8,17.8,17.8,0,0,1-14.291,10.827c-.732.113-1.065.31-.98,1.1a14.7,14.7,0,0,1,.009,1.958c-.029,1.074-.638,1.745-1.545,1.727a1.542,1.542,0,0,1-1.486-1.7c-.018-.707-.043-1.418,0-2.122.041-.61-.157-.852-.788-.929a17.8,17.8,0,0,1-11.433-6.026,17.317,17.317,0,0,1-4.414-9.555c-.115-.922-.433-1.207-1.312-1.105a11.952,11.952,0,0,1-1.876,0,1.54,1.54,0,0,1-1.622-1.491A1.533,1.533,0,0,1,812.9-481.5a17.964,17.964,0,0,1,2.2,0c.637.042.888-.153.982-.823a18.06,18.06,0,0,1,8.616-13.306,16.7,16.7,0,0,1,7.17-2.537c.771-.084.948-.382.9-1.072a18.157,18.157,0,0,1,0-2.04,1.55,1.55,0,0,1,1.54-1.659,1.544,1.544,0,0,1,1.482,1.633,21.84,21.84,0,0,1,0,2.2c-.037.609.154.83.791.92a18.083,18.083,0,0,1,13.238,8.452,16.818,16.818,0,0,1,2.65,7.384c.07.649.3.9.96.846a18.627,18.627,0,0,1,2.04-.007c1.077.031,1.762.633,1.767,1.522s-.687,1.5-1.76,1.521c-.87.018-1.741.013-2.612.021C852.808-478.45,852.757-478.419,852.851-478.45Zm-27.742-1.509a9.148,9.148,0,0,0,9.212,9.143,9.152,9.152,0,0,0,9.118-9.156,9.136,9.136,0,0,0-9.172-9.179A9.136,9.136,0,0,0,825.109-479.959Zm10.733,15.126c7.08-.489,13.205-6.8,13.563-13.576h-2.942c-1.176,5.942-4.719,9.437-10.621,10.629Zm-3.148-2.95c-5.933-1.214-9.458-4.729-10.616-10.64h-2.911c.231,6.777,6.659,13.244,13.527,13.561ZM835.8-495.1c0,.866-.022,1.732.021,2.595.008.155.262.374.443.43.595.185,1.227.257,1.812.465a12.123,12.123,0,0,1,8.224,9.327c.06.268.269.7.437.713.882.072,1.772.034,2.662.034C849.031-488.552,842.56-494.841,835.8-495.1Zm-3.056,0c-6.715.24-13.221,6.5-13.6,13.572.728,0,1.454-.03,2.176.009.581.032.784-.153.97-.753a18.945,18.945,0,0,1,1.66-4.213,11.772,11.772,0,0,1,8.09-5.553c.257-.052.661-.291.676-.47C832.786-493.36,832.747-494.227,832.747-495.093Z" transform="translate(-31.385 -122.472)" fill="#0ac7ad"/>
        <path id="Trazado_165312" data-name="Trazado 165312" d="M876.785-590c-2.422,0-4.845.024-7.266-.02a2.506,2.506,0,0,1-1.424-.445,1.454,1.454,0,0,1,.464-2.461,3.033,3.033,0,0,1,1.04-.149q7.185-.013,14.37,0a3.706,3.706,0,0,1,.57.027,1.553,1.553,0,0,1,1.388,1.556,1.5,1.5,0,0,1-1.467,1.474c-1,.053-2.013.021-3.02.022Q879.112-590,876.785-590Z" transform="translate(-78.469 -47.057)" fill="#0ac7ad"/>
        <path id="Trazado_165313" data-name="Trazado 165313" d="M876.807-552.349c-2.34,0-4.68,0-7.019,0a4.268,4.268,0,0,1-.971-.082,1.45,1.45,0,0,1-1.119-1.509,1.424,1.424,0,0,1,1.161-1.4,3.756,3.756,0,0,1,.892-.06q7.1,0,14.2,0a4.545,4.545,0,0,1,.813.044,1.506,1.506,0,0,1,1.249,1.5,1.513,1.513,0,0,1-1.213,1.446,4.512,4.512,0,0,1-.892.063Q880.357-552.344,876.807-552.349Z" transform="translate(-78.554 -78.583)" fill="#0ac7ad"/>
        <path id="Trazado_165314" data-name="Trazado 165314" d="M833.092-591.375a1.587,1.587,0,0,1-1.548,1.476,1.585,1.585,0,0,1-1.5-1.523,1.579,1.579,0,0,1,1.589-1.517A1.588,1.588,0,0,1,833.092-591.375Z" transform="translate(-47.052 -47.176)" fill="#0ac7ad"/>
        <path id="Trazado_165315" data-name="Trazado 165315" d="M833.091-553.814a1.537,1.537,0,0,1-1.5,1.511,1.532,1.532,0,0,1-1.556-1.531,1.555,1.555,0,0,1,1.537-1.475A1.544,1.544,0,0,1,833.091-553.814Z" transform="translate(-47.048 -78.661)" fill="#0ac7ad"/>
        <path id="Trazado_165316" data-name="Trazado 165316" d="M920.595-387.65a6.119,6.119,0,0,1-6.119-6.119,6.169,6.169,0,0,1,6.14-6.116,6.168,6.168,0,0,1,6.078,6.1A6.119,6.119,0,0,1,920.595-387.65Zm3.054-6.069a3.12,3.12,0,0,0-3.049-3.1,3.126,3.126,0,0,0-3.079,2.986,3.113,3.113,0,0,0,3.006,3.138A3.115,3.115,0,0,0,923.649-393.719Z" transform="translate(-117.696 -208.702)" fill="#0ac7ad"/>
      </g>
    </g>
  </g>
</svg>
