<svg xmlns="http://www.w3.org/2000/svg" width="85" height="84.915" viewBox="0 0 85 84.915">
  <g id="Grupo_57741" data-name="Grupo 57741" transform="translate(-2916.608 170.555)">
    <path id="Trazado_165269" data-name="Trazado 165269" d="M2916.608-123.861q0-17.415,0-34.829c0-2.329,1.1-3.42,3.441-3.422,1.771,0,3.542-.019,5.312.011.512.009.694-.119.718-.659.071-1.616.205-3.23.322-4.845a2.977,2.977,0,0,1,3.463-2.937c4.489.329,8.981.622,13.472.923q13.247.887,26.494,1.768c2.826.188,5.652.383,8.478.565a2.928,2.928,0,0,1,2.935,3.317q-1.087,16.275-2.187,32.548-.87,13.02-1.724,26.04-.387,5.828-.786,11.656a2.959,2.959,0,0,1-3.231,2.718c-3.028-.2-6.057-.385-9.083-.607a1.3,1.3,0,0,0-1.132.43c-1.581,1.6-3.194,3.172-4.767,4.782a2.342,2.342,0,0,1-1.806.763q-18.288-.024-36.575-.012c-2.208,0-3.341-1.149-3.341-3.38Q2916.608-106.446,2916.608-123.861Zm47.356,22.319c1.414.016,2.831-.013,4.241.065.759.042.9-.214.9-.925q-.03-28.07-.015-56.141c0-.152,0-.3,0-.455.013-.452-.225-.641-.655-.637l-5.077.044-7.25-.043c-1.133-.007-1.322-.15-1.646-1.247.338-1.053.572-1.23,1.687-1.231q6.146,0,12.294,0a2.9,2.9,0,0,1,3.124,3.123q.007,29.255.014,58.509a2,2,0,0,1-.662,1.536c-1.448,1.413-2.877,2.846-4.307,4.278-.181.181-.447.317-.471.667,2.3.158,4.571.315,6.837.469,1.021.07,1.055.046,1.125-1q.877-13.058,1.747-26.115.8-11.923,1.6-23.845.646-9.689,1.293-19.379c.042-.613-.072-.923-.777-.967q-9.768-.617-19.531-1.286-9.462-.634-18.924-1.275c-3.23-.217-6.461-.423-9.691-.64-.49-.033-.9-.053-.934.639-.07,1.49-.16,2.981-.309,4.465-.068.683.129.835.8.832,6.425-.028,12.85-.018,19.276-.017,1.128,0,1.393.2,1.683,1.221-.249,1.064-.493,1.258-1.628,1.258q-14.266,0-28.533,0c-1.061,0-1.078.017-1.078,1.051q0,34.717,0,69.434c0,.951.029.986.979.986q17.53,0,35.059.013c.529,0,.682-.135.678-.67-.025-3.086-.012-6.172-.012-9.258q0-3.409,3.393-3.421C2960.78-101.5,2962.372-101.526,2963.964-101.542ZM2958.3-90.4l8.687-8.588c-2.648,0-5.372,0-8.1,0-.407,0-.592.215-.592.617C2958.3-95.651,2958.3-92.927,2958.3-90.4Z" transform="translate(0)" fill="#0b0b09"/>
    <path id="Trazado_165270" data-name="Trazado 165270" d="M3357.345,55.705a2.022,2.022,0,0,1-.723-1.8c.025-5.109.011-10.218.023-15.328,0-.5-.049-.787-.669-.918a3.137,3.137,0,0,1-2.431-3.169,3.2,3.2,0,0,1,2.361-3.384c.653-.153.774-.443.734-1.021a3.721,3.721,0,0,1,1.408-3.633c.225-.159.175-.4.177-.622.007-.784-.015-1.569.021-2.352a4.03,4.03,0,0,1,7.988-.083,9.349,9.349,0,0,1,.018.986,3.119,3.119,0,0,0,.854,2.791,3.3,3.3,0,0,1,.706,2.856c-.048.631.094.873.811.868a3.389,3.389,0,0,1,3.58,3.64q.008,7.285,0,14.569a3.418,3.418,0,0,1-3.8,3.638c-.578-.038-.6.187-.6.628.011,3.491.006,6.981,0,10.472a5.748,5.748,0,0,1-1.475,4.473c-.227.219-.189.51-.214.783a10.18,10.18,0,0,1-2.655,6.07c-.856.941-1.577.956-2.416.034a10.117,10.117,0,0,1-2.667-5.906,2.034,2.034,0,0,0-.449-1.169,6.2,6.2,0,0,1-1.289-3.962c-.015-.581-.009-1.164,0-1.745.008-1.063.247-1.357,1.3-1.616,1.055.358,1.194.555,1.2,1.7,0,.679-.02,1.36.011,2.038a2.758,2.758,0,0,0,2.416,2.822l.316.074a.814.814,0,0,0,.608,0l.295-.03a.993.993,0,0,0,.7-.2.071.071,0,0,0,.077-.035.6.6,0,0,0,.516-.281.085.085,0,0,0,.082-.058.6.6,0,0,0,.463-.44l.188-.245a.333.333,0,0,0,.175-.3l.017-.017.073-.194v0a.473.473,0,0,0,.142-.457c.032-.453.09-.906.091-1.36q.014-12.6.016-25.193c0-.126-.009-.254,0-.379.035-.365-.132-.487-.487-.482-1.744.025-3.489.034-5.233.049l-.2-.009a.087.087,0,0,0-.109.034.19.19,0,0,0-.177.2c.028,2.012-.1,4.026.074,6.036v3.354c-.146,2.426-.1,4.852-.04,7.279-.013.081-.027.161-.041.242a.876.876,0,0,0-.32.479.092.092,0,0,0-.081.063l-.655.247a.077.077,0,0,0-.111.027l-.485-.025A.072.072,0,0,0,3357.345,55.705Zm7.926-26.518c.014-.019.043-.043.039-.056a.745.745,0,0,0-.059-.12l-.06-.243a.645.645,0,0,0-.707-.44c-.707.009-1.414.025-2.121.039-.6-.008-1.2-.023-1.806-.024a1.627,1.627,0,0,0-1.384,2.412.366.366,0,0,0,.385.169,27.276,27.276,0,0,0,2.781-.07,8.558,8.558,0,0,0,2.894-.109A3.426,3.426,0,0,0,3365.271,29.187Zm-2.929,4.271q-2.727,0-5.455,0a.823.823,0,0,0-.887.915.847.847,0,0,0,.949.935q2.918-.024,5.835-.045c1.036.007,2.072.019,3.108.021,1.588,0,1.917.324,1.917,1.9,0,4,0,7.991.008,11.986,0,.744.343,1.111.946,1.107s.955-.39.965-1.108c.015-1.062.005-2.124.005-3.186q0-5.652,0-11.3c0-.888-.281-1.3-1.023-1.3C3366.584,33.366,3364.461,33.316,3362.342,33.458Zm-.1-7.613c1.5,0,1.5,0,1.5-1.5a5.653,5.653,0,0,0-.017-.678,1.532,1.532,0,0,0-1.485-1.344,1.47,1.47,0,0,0-1.5,1.3,4.82,4.82,0,0,0-.031.678C3360.7,25.847,3360.7,25.847,3362.245,25.845Zm-.261,44.286c-1.007-.024-1.03-.015-.663.859.236.562.386,1.5.934,1.484.518-.012.7-.943.924-1.518.354-.89.329-.9-.593-.828C3362.386,70.145,3362.184,70.131,3361.984,70.131Z" transform="translate(-370.599 -161.577)" fill="#0b0b0b"/>
    <path id="Trazado_165271" data-name="Trazado 165271" d="M3383.661,154.545c.013-.081.027-.161.041-.242.214-.173.147-.416.148-.635q.011-3.035.008-6.071c0-.2.055-.409-.117-.573V143.67c.171-.163.116-.375.116-.57q0-2.834-.014-5.668a.087.087,0,0,1,.109-.034l.2.009c1.745-.015,3.489-.024,5.233-.049.355-.005.522.117.487.482-.012.125,0,.253,0,.379q-.006,12.6-.017,25.193c0,.453-.059.906-.091,1.36l-.133.035q0-12.774-.01-25.547c0-1.656,0-1.656-1.68-1.653-1.05,0-1.052,0-1.052,1.047q0,12.736,0,25.472a6.768,6.768,0,0,1-.186,1.162c-.107.607-.7,1.013-.586,1.666a2.758,2.758,0,0,1-2.416-2.822c-.03-.678-.009-1.359-.01-2.038,0-1.143-.143-1.34-1.2-1.7q0-2.517,0-5.034a.077.077,0,0,1,.11-.027c.269.051.542.114.655-.247a.092.092,0,0,1,.081-.063A.353.353,0,0,0,3383.661,154.545Z" transform="translate(-395.154 -261.165)" fill="#bbabf5"/>
    <path id="Trazado_165272" data-name="Trazado 165272" d="M3378.58,255.426a.072.072,0,0,1,.109.044C3378.624,255.525,3378.591,255.5,3378.58,255.426Z" transform="translate(-391.834 -361.297)" fill="#bfb965"/>
    <path id="Trazado_165273" data-name="Trazado 165273" d="M2968.335-106.9c.324,1.1.513,1.24,1.645,1.247l7.25.043a1.381,1.381,0,0,1,.31,1.113q-.006,27.123,0,54.246a14.179,14.179,0,0,0,.3,2.691c-1.592.015-3.184.038-4.776.045q-3.387.015-3.393,3.421c0,3.086-.013,6.172.012,9.258,0,.535-.149.671-.678.67q-17.529-.023-35.059-.013c-.95,0-.979-.035-.979-.986q0-34.717,0-69.434c0-1.034.017-1.05,1.078-1.051q14.266,0,28.533,0c1.135,0,1.379-.193,1.628-1.258Zm-24.791,62.409a14.493,14.493,0,0,0,1.224,1.953,2.975,2.975,0,0,0,4.533.474,3.35,3.35,0,0,0,.4-.349c.173-.188.306-.188.5-.006a4.658,4.658,0,0,0,3.293,1.126c1.82.031,3.64.015,5.46.016,1.264,0,2.529.023,3.792-.019a1.253,1.253,0,0,0,1.085-1.938,1.273,1.273,0,0,0-1.244-.55c-2.958.01-5.916.019-8.874.007-1.488-.006-2.036-.385-2.423-1.674a1.123,1.123,0,0,0-1.1-.959,1.28,1.28,0,0,0-1.32.824c-.118.279-.212.57-.351.838-.54,1.044-1.321,1.119-2.057.184a7.471,7.471,0,0,1-1.22-2.671c-.385-1.364-.543-2.773-.8-4.162a1.15,1.15,0,0,0-1.837-.8,1.408,1.408,0,0,0-.65,1.288,23.459,23.459,0,0,1-.459,4.139,34.358,34.358,0,0,1-1.974,5.877c-.3.758-.139,1.26.445,1.547a1.361,1.361,0,0,0,1.785-.526,4.439,4.439,0,0,0,.31-.69C2942.541-41.83,2943.018-43.1,2943.545-44.491Zm14.336-30.282h16.39a5.559,5.559,0,0,0,.833-.024,1.235,1.235,0,0,0,1.078-1.263,1.256,1.256,0,0,0-1.133-1.218,4.206,4.206,0,0,0-.531-.01h-33.084a4.648,4.648,0,0,0-.531.009,1.249,1.249,0,0,0-1.152,1.2,1.243,1.243,0,0,0,1.132,1.291,5.967,5.967,0,0,0,.758.017Q2949.761-74.772,2957.881-74.774Zm.153-11.192q-8.234,0-16.467,0a4.315,4.315,0,0,0-.757.029,1.171,1.171,0,0,0-1.051,1.119,1.143,1.143,0,0,0,.852,1.274,2.624,2.624,0,0,0,.821.092q16.467.005,32.935,0a3.3,3.3,0,0,0,.9-.073,1.151,1.151,0,0,0,.9-1.31,1.162,1.162,0,0,0-1.064-1.106,4.566,4.566,0,0,0-.757-.025Zm-.055,19.863h15.783c.4,0,.811.02,1.213-.011a1.223,1.223,0,0,0,1.208-1.216,1.227,1.227,0,0,0-1.154-1.269,6.429,6.429,0,0,0-.833-.02h-21.322q-5.729,0-11.458,0c-1.066,0-1.649.439-1.667,1.235-.02.833.562,1.274,1.689,1.28h16.542Zm-.051-26.046q5.191,0,10.382,0a5.763,5.763,0,0,0,.831-.03,1.133,1.133,0,0,0,1.046-1.191,1.15,1.15,0,0,0-1.008-1.23,3.711,3.711,0,0,0-.754-.041q-10.457,0-20.915,0a3.39,3.39,0,0,0-.828.056,1.125,1.125,0,0,0-.929,1.211,1.133,1.133,0,0,0,1.037,1.194,5.075,5.075,0,0,0,.756.03Q2952.737-92.146,2957.928-92.148Z" transform="translate(-13.876 -53.98)" fill="#fd8f25" opacity="0.25"/>
    <path id="Trazado_165274" data-name="Trazado 165274" d="M3021.215-146.857l-4.128-.012c-.29-1.025-.555-1.221-1.683-1.221-6.425,0-12.851-.011-19.276.017-.673,0-.87-.15-.8-.832.148-1.484.239-2.975.308-4.465.032-.692.444-.672.935-.639,3.23.217,6.46.423,9.69.64q9.463.635,18.924,1.275,9.765.654,19.531,1.286c.706.044.82.354.778.967q-.662,9.688-1.293,19.379-.8,11.923-1.6,23.845-.873,13.058-1.747,26.115c-.07,1.043-.1,1.066-1.125,1-2.266-.154-4.532-.311-6.837-.469.023-.351.29-.486.471-.667,1.43-1.432,2.859-2.865,4.307-4.278a2,2,0,0,0,.662-1.536q-.019-29.254-.014-58.509a2.9,2.9,0,0,0-3.125-3.123q-6.147-.016-12.294,0C3021.787-148.087,3021.553-147.91,3021.215-146.857Z" transform="translate(-66.757 -14.023)" fill="#fd8f25"/>
    <path id="Trazado_165275" data-name="Trazado 165275" d="M3225.119-40.538a14.178,14.178,0,0,1-.3-2.691q-.01-27.123,0-54.246a1.382,1.382,0,0,0-.309-1.113l5.077-.044c.43,0,.668.186.655.637,0,.152,0,.3,0,.455q0,28.07.016,56.141c0,.711-.138.967-.9.925C3227.95-40.552,3226.534-40.523,3225.119-40.538Z" transform="translate(-261.155 -61.004)" fill="#fd8f25" opacity="0.42"/>
    <path id="Trazado_165276" data-name="Trazado 165276" d="M3191.229,309.382c0-2.522,0-5.246,0-7.97,0-.4.185-.617.592-.617,2.725,0,5.449,0,8.1,0Z" transform="translate(-232.926 -399.786)" fill="#f7e7be"/>
    <path id="Trazado_165277" data-name="Trazado 165277" d="M3406.294,168.34c-.114-.653.479-1.06.586-1.666a6.721,6.721,0,0,0,.186-1.162q0-12.736,0-25.472c0-1.045,0-1.045,1.052-1.047,1.68,0,1.68,0,1.68,1.653q0,12.774.01,25.547,0,.211-.009.422v0l-.073.194-.017.017c-.195.022-.2.153-.174.3l-.188.245a.445.445,0,0,0-.463.44.085.085,0,0,1-.082.058.431.431,0,0,0-.516.281.071.071,0,0,1-.078.035c-.256-.017-.544-.15-.7.2l-.295.03a.433.433,0,0,0-.607,0Z" transform="translate(-415.328 -262.551)" fill="#472ea6"/>
    <path id="Trazado_165278" data-name="Trazado 165278" d="M3411.4,108.4c2.119-.142,4.242-.093,6.364-.085.743,0,1.022.413,1.023,1.3q.01,5.652,0,11.3c0,1.062.01,2.124-.005,3.186-.01.718-.364,1.1-.965,1.108s-.943-.363-.945-1.107c-.01-4-.006-7.991-.008-11.986,0-1.576-.33-1.9-1.917-1.9-1.036,0-2.072-.014-3.108-.021a.642.642,0,0,1-.453-.747A9.525,9.525,0,0,0,3411.4,108.4Z" transform="translate(-419.652 -236.516)" fill="#472ea6"/>
    <path id="Trazado_165279" data-name="Trazado 165279" d="M3376.063,108.926a9.586,9.586,0,0,1-.01,1.053.642.642,0,0,0,.453.747q-2.918.022-5.835.045a.847.847,0,0,1-.949-.935.823.823,0,0,1,.887-.915Q3373.336,108.919,3376.063,108.926Z" transform="translate(-384.32 -237.045)" fill="#bbabf5"/>
    <path id="Trazado_165280" data-name="Trazado 165280" d="M3402.246,39.126c-1.546,0-1.547,0-1.539-1.54a4.82,4.82,0,0,1,.032-.678,1.469,1.469,0,0,1,1.5-1.3,1.533,1.533,0,0,1,1.485,1.344,5.756,5.756,0,0,1,.017.678C3403.75,39.124,3403.75,39.124,3402.246,39.126Z" transform="translate(-410.601 -174.859)" fill="#2cffe2"/>
    <path id="Trazado_165281" data-name="Trazado 165281" d="M3392.643,77.778a27.279,27.279,0,0,1-2.781.07.366.366,0,0,1-.385-.169,1.626,1.626,0,0,1,1.384-2.412c.6,0,1.2.015,1.806.024Z" transform="translate(-400.903 -208.5)" fill="#2cffe2"/>
    <path id="Trazado_165282" data-name="Trazado 165282" d="M3411.471,77.693q.012-1.243.024-2.487c.707-.013,1.414-.029,2.121-.039a.645.645,0,0,1,.708.44,2.918,2.918,0,0,0,.042,1.977A8.557,8.557,0,0,1,3411.471,77.693Z" transform="translate(-419.731 -208.416)" fill="#1dddc3"/>
    <path id="Trazado_165283" data-name="Trazado 165283" d="M3404.218,350.328c.2,0,.4.014.6,0,.921-.077.947-.063.593.828-.229.575-.405,1.506-.924,1.518-.548.012-.7-.922-.934-1.484C3403.189,350.313,3403.211,350.3,3404.218,350.328Z" transform="translate(-412.833 -441.774)" fill="#55aef7"/>
    <path id="Trazado_165284" data-name="Trazado 165284" d="M3390.161,201.022c.171.164.116.377.116.573q0,3.035-.008,6.071c0,.219.066.463-.148.635C3390.058,205.874,3390.015,203.448,3390.161,201.022Z" transform="translate(-401.573 -315.163)" fill="#bfb965"/>
    <path id="Trazado_165285" data-name="Trazado 165285" d="M3390.291,137.844q.008,2.834.014,5.668c0,.195.055.408-.116.57-.174-2.01-.046-4.024-.074-6.036A.19.19,0,0,1,3390.291,137.844Z" transform="translate(-401.6 -261.577)" fill="#bfb965"/>
    <path id="Trazado_165286" data-name="Trazado 165286" d="M3429.451,80.04a2.921,2.921,0,0,1-.042-1.977l.06.243.02.176A3.426,3.426,0,0,1,3429.451,80.04Z" transform="translate(-434.818 -210.872)" fill="#fbf184"/>
    <path id="Trazado_165287" data-name="Trazado 165287" d="M3423.436,326.389a.445.445,0,0,1,.463-.44A.6.6,0,0,1,3423.436,326.389Z" transform="translate(-429.88 -421.123)" fill="#bfb965"/>
    <path id="Trazado_165288" data-name="Trazado 165288" d="M3414.4,331.291c.151-.349.44-.216.7-.2A.992.992,0,0,1,3414.4,331.291Z" transform="translate(-422.217 -425.452)" fill="#bfb965"/>
    <path id="Trazado_165289" data-name="Trazado 165289" d="M3383.876,254.131c-.113.361-.386.3-.655.247Z" transform="translate(-395.77 -360.209)" fill="#bfb965"/>
    <path id="Trazado_165290" data-name="Trazado 165290" d="M3388.391,250.563a.352.352,0,0,1-.32.479A.877.877,0,0,1,3388.391,250.563Z" transform="translate(-399.884 -357.182)" fill="#bfb965"/>
    <path id="Trazado_165291" data-name="Trazado 165291" d="M3419.5,329.425a.431.431,0,0,1,.516-.281A.6.6,0,0,1,3419.5,329.425Z" transform="translate(-426.538 -423.821)" fill="#bfb965"/>
    <path id="Trazado_165292" data-name="Trazado 165292" d="M3408.46,332.1a.434.434,0,0,1,.608,0A.814.814,0,0,1,3408.46,332.1Z" transform="translate(-417.177 -426.238)" fill="#bfb965"/>
    <path id="Trazado_165293" data-name="Trazado 165293" d="M3429.472,318.379q0-.211.009-.422l.133-.035A.474.474,0,0,1,3429.472,318.379Z" transform="translate(-434.999 -414.315)" fill="#bfb965"/>
    <path id="Trazado_165294" data-name="Trazado 165294" d="M3427.667,322.645c-.025-.149-.021-.28.174-.3A.334.334,0,0,1,3427.667,322.645Z" transform="translate(-433.459 -418.065)" fill="#bfb965"/>
    <path id="Trazado_165295" data-name="Trazado 165295" d="M3430.669,79.837l-.02-.176a.745.745,0,0,1,.059.12C3430.712,79.794,3430.683,79.818,3430.669,79.837Z" transform="translate(-435.998 -212.227)" fill="#f8ed6e"/>
    <path id="Trazado_165296" data-name="Trazado 165296" d="M3392.311,137.628l-.2-.009Z" transform="translate(-403.307 -261.386)" fill="#bfb965"/>
    <path id="Trazado_165297" data-name="Trazado 165297" d="M3428.985,321.148l.073-.194Z" transform="translate(-434.586 -416.886)" fill="#bfb965"/>
    <path id="Trazado_165298" data-name="Trazado 165298" d="M2979.295,259.931c-.527,1.393-1,2.661-1.487,3.927a4.463,4.463,0,0,1-.31.69,1.361,1.361,0,0,1-1.785.526c-.584-.287-.748-.789-.445-1.547a34.358,34.358,0,0,0,1.974-5.877,23.436,23.436,0,0,0,.459-4.139,1.407,1.407,0,0,1,.651-1.288,1.15,1.15,0,0,1,1.837.8c.259,1.389.418,2.8.8,4.162a7.463,7.463,0,0,0,1.22,2.671c.736.934,1.517.86,2.057-.184.139-.268.233-.559.351-.838a1.28,1.28,0,0,1,1.32-.824,1.124,1.124,0,0,1,1.1.959c.387,1.289.935,1.668,2.423,1.674,2.958.012,5.916,0,8.874-.007a1.273,1.273,0,0,1,1.244.55,1.253,1.253,0,0,1-1.085,1.938c-1.263.042-2.528.019-3.792.019-1.82,0-3.641.015-5.46-.016a4.659,4.659,0,0,1-3.293-1.126c-.192-.182-.325-.182-.5.006a3.333,3.333,0,0,1-.4.349,2.975,2.975,0,0,1-4.533-.474A14.541,14.541,0,0,1,2979.295,259.931Z" transform="translate(-49.627 -358.403)" fill="#0d0c0b"/>
    <path id="Trazado_165299" data-name="Trazado 165299" d="M2995.772,90.7h-16.239a5.968,5.968,0,0,1-.758-.017,1.249,1.249,0,0,1,.019-2.49,4.65,4.65,0,0,1,.531-.009h33.084a4.2,4.2,0,0,1,.531.01,1.255,1.255,0,0,1,1.132,1.218A1.234,1.234,0,0,1,3013,90.675a5.555,5.555,0,0,1-.833.024Z" transform="translate(-51.768 -219.453)" fill="#11100f"/>
    <path id="Trazado_165300" data-name="Trazado 165300" d="M2995.927,31.042h16.316a4.567,4.567,0,0,1,.757.025,1.235,1.235,0,0,1,.16,2.416,3.3,3.3,0,0,1-.9.073q-16.467.006-32.935,0a2.625,2.625,0,0,1-.821-.092,1.143,1.143,0,0,1-.852-1.274,1.171,1.171,0,0,1,1.051-1.119,4.315,4.315,0,0,1,.757-.029Q2987.694,31.041,2995.927,31.042Z" transform="translate(-51.77 -170.988)" fill="#121210"/>
    <path id="Trazado_165301" data-name="Trazado 165301" d="M2995.847,147.816h-16.542c-1.127-.006-1.709-.447-1.689-1.28.019-.8.6-1.234,1.668-1.235q5.728,0,11.458,0h21.322a6.431,6.431,0,0,1,.833.02,1.244,1.244,0,0,1-.053,2.485c-.4.031-.809.011-1.214.011Z" transform="translate(-51.745 -267.898)" fill="#121210"/>
    <path id="Trazado_165302" data-name="Trazado 165302" d="M3029.345-23.6q-5.191,0-10.381,0a5.074,5.074,0,0,1-.756-.03,1.133,1.133,0,0,1-1.037-1.194,1.125,1.125,0,0,1,.929-1.211,3.39,3.39,0,0,1,.828-.056q10.458,0,20.915,0a3.711,3.711,0,0,1,.754.041,1.15,1.15,0,0,1,1.008,1.23,1.133,1.133,0,0,1-1.046,1.191,5.764,5.764,0,0,1-.831.03Q3034.535-23.6,3029.345-23.6Z" transform="translate(-85.294 -122.527)" fill="#0d0c0b"/>
  </g>
</svg>
