<svg xmlns="http://www.w3.org/2000/svg" width="451" height="390.84" viewBox="0 0 451 390.84">
  <g id="Grupo_63727" data-name="Grupo 63727" transform="translate(-890 -1234.58)">
    <g id="Grupo_56770" data-name="Grupo 56770" transform="translate(-79.088 -514.116)">
      <g id="Grupo_56769" data-name="Grupo 56769" transform="translate(969.088 1748.696)">
        <g id="Grupo_56670" data-name="Grupo 56670" transform="translate(0 224.711)">
          <g id="Grupo_56669" data-name="Grupo 56669">
            <g id="Grupo_56656" data-name="Grupo 56656" transform="translate(0 42.569)">
              <path id="Trazado_125972" data-name="Trazado 125972" d="M969.088,1991.465l16.147,9.323,4.111,2.372,4.111,2.374,22.916,13.229,47.409-27.553-22.729-13.122-4.111-2.374-4.111-2.374-16.331-9.428Z" transform="translate(-969.088 -1963.912)" fill="#bbe1f6"/>
            </g>
            <g id="Grupo_56668" data-name="Grupo 56668" transform="translate(6.25)">
              <g id="Grupo_56665" data-name="Grupo 56665">
                <g id="Grupo_56661" data-name="Grupo 56661">
                  <g id="Grupo_56660" data-name="Grupo 56660" style="isolation: isolate">
                    <g id="Grupo_56657" data-name="Grupo 56657" transform="translate(40.909 23.618)">
                      <path id="Trazado_125973" data-name="Trazado 125973" d="M1007.06,2019.5l41.018-23.837.133-47.008-41.018,23.837Z" transform="translate(-1007.06 -1948.653)" fill="#e5b888"/>
                    </g>
                    <g id="Grupo_56658" data-name="Grupo 56658" transform="translate(0.134)">
                      <path id="Trazado_125974" data-name="Trazado 125974" d="M974.228,1953.473l13.97,8.066,3.557,2.052,3.557,2.054,19.826,11.446,41.017-23.838L1036.49,1941.9l-3.557-2.054-3.557-2.054-14.129-8.156Z" transform="translate(-974.228 -1929.635)" fill="#eccda8"/>
                    </g>
                    <g id="Grupo_56659" data-name="Grupo 56659" transform="translate(0 23.838)">
                      <path id="Trazado_125975" data-name="Trazado 125975" d="M974.12,1995.836l15.367,8.872,7.113,4.106,18.429,10.64.134-47.007L996.6,1961.73l-7.113-4.106-15.233-8.794Z" transform="translate(-974.12 -1948.829)" fill="#d3a47c"/>
                    </g>
                  </g>
                </g>
                <g id="Grupo_56664" data-name="Grupo 56664" transform="translate(46.112 29.921)">
                  <g id="Grupo_56662" data-name="Grupo 56662" transform="translate(17.285)">
                    <path id="Trazado_125976" data-name="Trazado 125976" d="M1025.168,1975.724l16-9.237v-12.76l-16,9.237Z" transform="translate(-1025.168 -1953.727)" fill="#fff"/>
                    <path id="Trazado_125977" data-name="Trazado 125977" d="M1026.721,1965.286l12.595-7.272v-2.344l-12.595,7.272Z" transform="translate(-1024.792 -1953.257)" fill="#3f3e3d"/>
                    <path id="Trazado_125978" data-name="Trazado 125978" d="M1026.721,1971.509l12.595-7.272v-4.687l-12.595,7.272Z" transform="translate(-1024.792 -1952.318)" fill="#eccda8"/>
                  </g>
                  <g id="Grupo_56663" data-name="Grupo 56663" transform="translate(0 44.475)">
                    <path id="Trazado_125979" data-name="Trazado 125979" d="M1018.832,1996.976l3.512-2.027v-5.41l-3.512,2.028Z" transform="translate(-1009.416 -1989.539)" fill="#fff"/>
                    <path id="Trazado_125980" data-name="Trazado 125980" d="M1015.036,1999.163l3.464-2v-5.41l-3.464,2Z" transform="translate(-1010.334 -1989.003)" fill="#fff"/>
                    <path id="Trazado_125981" data-name="Trazado 125981" d="M1011.25,2001.431l3.464-2v-5.41l-3.464,2Z" transform="translate(-1011.25 -1988.454)" fill="#fff"/>
                  </g>
                </g>
              </g>
              <g id="Grupo_56666" data-name="Grupo 56666" transform="translate(14.103 8.156)">
                <path id="Trazado_125982" data-name="Trazado 125982" d="M985.476,1959.95l3.557,2.052,3.557,2.054,41.178-23.745-3.557-2.054-3.557-2.054Z" transform="translate(-985.476 -1936.203)" fill="#c98e60"/>
              </g>
              <g id="Grupo_56667" data-name="Grupo 56667" transform="translate(14.072 31.866)">
                <path id="Trazado_125983" data-name="Trazado 125983" d="M985.451,1955.294v47.084l7.113,4.106V1959.4Z" transform="translate(-985.451 -1955.294)" fill="#aa7145"/>
              </g>
            </g>
          </g>
        </g>
        <g id="Grupo_56696" data-name="Grupo 56696" transform="translate(109.762)">
          <g id="Grupo_56695" data-name="Grupo 56695">
            <g id="Grupo_56694" data-name="Grupo 56694">
              <g id="Grupo_56692" data-name="Grupo 56692" transform="translate(0 3.947)">
                <path id="Trazado_125984" data-name="Trazado 125984" d="M1096.436,1787.095s9.162,6.545,9.942,36.694v9.914l21.86,17.8s-3.647,2.514-3.647,6.631l-25.019-10.87-13.957-43.373Z" transform="translate(-1050.66 -1743.353)" fill="#f1a389"/>
                <path id="Trazado_125985" data-name="Trazado 125985" d="M1092.7,1786.45s9.56,4.42,11.214,19.311l1.3,7.9h-9.05Z" transform="translate(-1048.946 -1743.51)" fill="#ee7d11"/>
                <g id="Grupo_56679" data-name="Grupo 56679">
                  <g id="Grupo_56678" data-name="Grupo 56678">
                    <g id="Grupo_56677" data-name="Grupo 56677">
                      <path id="Trazado_125986" data-name="Trazado 125986" d="M1059.826,1812.992c1.319,3.922,3.713,5.747,9.945,6.55,11.88,1.527,24.646-.975,31.957-10.555.485-.631.927-1.283,1.34-1.94,2.962-4.761,4.015-10.081,2.853-14.335-1.117-4.083-4.255-7.176-9.678-7.875-.647-.083-1.3-.14-1.966-.177a39.6,39.6,0,0,0-17.888,3.557c-5.956,2.639-9.207,4.734-12.7,9.308C1060.214,1802.081,1058.621,1809.44,1059.826,1812.992Z" transform="translate(-1056.995 -1743.955)" fill="#fd8f25"/>
                      <path id="Trazado_125987" data-name="Trazado 125987" d="M1082.686,1785.068a3.6,3.6,0,0,1-.057-.4c.009.051.016.1.023.152C1082.665,1784.9,1082.676,1784.986,1082.686,1785.068Z" transform="translate(-1051.382 -1743.94)" fill="#e09980"/>
                      <path id="Trazado_125988" data-name="Trazado 125988" d="M1099.828,1855.974s-10.372,15.62-21.462,19.554-1.669-17.885-1.669-17.885Z" transform="translate(-1053.72 -1726.69)" fill="#257b96"/>
                      <g id="Grupo_56675" data-name="Grupo 56675" transform="translate(0.674 127.576)">
                        <g id="Grupo_56672" data-name="Grupo 56672" transform="translate(23.227 6.298)">
                          <g id="Grupo_56671" data-name="Grupo 56671">
                            <path id="Trazado_125989" data-name="Trazado 125989" d="M1079.4,1954.766a22.93,22.93,0,0,1,.935-5.62c.523-4.386.846-9.775,2.013-9.564,2.716.489.14,2.208,9.455,11.756,1.35,1.161,12.224,10.5,14.932,12.509a2.281,2.281,0,0,1,.822,3.274,2.864,2.864,0,0,1-2.146,1.45,21.15,21.15,0,0,1-15.407-4.622,31.112,31.112,0,0,0-3.681-2.582.739.739,0,0,0-.736,0l-.466.263-5.708-2.838-.036-3.865A.528.528,0,0,1,1079.4,1954.766Z" transform="translate(-1076.071 -1840.339)" fill="#1e2028"/>
                            <path id="Trazado_125990" data-name="Trazado 125990" d="M1078.583,1935.436c-.132,5.164.668,21.4,1.006,29.9.082,2.028.137,3.615.145,4.506,2.941,1.663,9.01,1.535,14.041.376.484-.113,6.034-62.149,6.034-62.149l4.124-48.4c-3.141,2.23-7.605,6.141-10.6,7.612a14.989,14.989,0,0,1-3.023,1.031c-4.466,1.088-10.559,1.282-13.6,1.959.751,12.215,1.711,29.738,3.532,38.818C1080.246,1909.09,1079.128,1914.1,1078.583,1935.436Z" transform="translate(-1076.714 -1859.67)" fill="#39508e"/>
                          </g>
                        </g>
                        <path id="Trazado_125991" data-name="Trazado 125991" d="M1065.1,1958.549c-1.008,5.479-3.2,8.844-5.471,14.545-1.223,3.07-.194,9.872,1.94,12.692,2.227,2.942,6.346.169,8.572-2.145a11.937,11.937,0,0,0,3.265-8.272l.194-2.954a13.085,13.085,0,0,1,1.186-4.58c.9-1.962,1.706-5.583-.992-10.255C1069.641,1950.395,1065.1,1958.549,1065.1,1958.549Z" transform="translate(-1057.747 -1830.402)" fill="#1e2028"/>
                        <path id="Trazado_125992" data-name="Trazado 125992" d="M1078.588,1930.445c-.132,5.163.668,21.4,1.006,29.9,1.03-17.55,3.177-41.732,4.018-50.942a73.09,73.09,0,0,0,.3-7.628l-.332-24.532,11-8.953c-4.467,1.089-14.819-3.685-17.856-3.009.751,12.217-.974,13.112.846,22.194C1077.564,1887.473,1079.133,1909.112,1078.588,1930.445Z" transform="translate(-1053.491 -1852.031)" fill="#28427c"/>
                        <path id="Trazado_125993" data-name="Trazado 125993" d="M1062.905,1872.522c3.687,3.424,13.233,2.453,18.947,2.675,1.447.057-1.4,2.208.041,2.117,5.425-.338,15-3.88,19.17-6.287,3.871-2.235,6.157-5.021,6.89-7.915.472-1.855,1.74-6.051.941-7.876-.093-.214-1.76-.427-1.872-.638-4.425.51-11.24,3.511-18.892,3.925a163.344,163.344,0,0,1-24.291-.225c-1.4-.143-5.247-.6-5.287-.5A14.442,14.442,0,0,0,1062.905,1872.522Z" transform="translate(-1058.011 -1854.599)" fill="#39508e"/>
                        <g id="Grupo_56674" data-name="Grupo 56674" transform="translate(0.125 9.212)">
                          <g id="Grupo_56673" data-name="Grupo 56673">
                            <path id="Trazado_125994" data-name="Trazado 125994" d="M1061.391,1984.825c3.134,1.771,11.274,1.634,16.632.4.517-.119,3.975-75.586,3.975-75.586l6.266-47.542c-3.346,2.375-7.663,2.534-10.853,4.1a15.984,15.984,0,0,1-3.219,1.1c-4.757,1.16-12.844-5.948-16.079-5.227.478,7.784,1.274,18.682,2.168,26.427C1060.859,1893.5,1061.382,1983.878,1061.391,1984.825Z" transform="translate(-1058.112 -1862.016)" fill="#39508e"/>
                          </g>
                        </g>
                      </g>
                      <path id="Trazado_125995" data-name="Trazado 125995" d="M1057.786,1878.962c4.713.266,11.3.329,15.426.251a140.8,140.8,0,0,0,30.7-3.724c3.369-.828,5.868-1.464,5.868-1.464s-1.456-33.157-1.413-35.343l.886-16.311c1.105-7.755.151-18.258-1.194-25.976l-1.664-5.163c0-.005-.161-.506-.161-.506l-6.5,2.628-38.939,13.385s.031,3.422.09,3.734c.114.658.338,1.972.6,3.744,1.064,7.182-1.149,35.118-1.467,37.162C1057.885,1865.1,1056.919,1878.91,1057.786,1878.962Z" transform="translate(-1057.469 -1742.475)" fill="#fd8f25"/>
                      <g id="Grupo_56676" data-name="Grupo 56676" transform="translate(13.375)">
                        <path id="Trazado_125996" data-name="Trazado 125996" d="M1084.139,1791.773a13.763,13.763,0,0,1-6.447-2.952c-.161-.138-.319-.278-.472-.424a19.276,19.276,0,0,1-1.79-1.675,2.321,2.321,0,0,1-.276-1.067c-.2-1.121-1.193-2.228-1.707-3.241l-.16-.317c-.067-.105-.133-.21-.211-.314-.754-.729-2.007-1.642-1.407-2.849-.039-.111-.088-.219-.137-.325-.2-.431-.382-.867-.552-1.312-.035-.092-.069-.184-.108-.273-.6-.531-1.739-2.128-.8-3.132a2.092,2.092,0,0,1-.016-.25c-.005-.17,0-.374,0-.594,0-.109,0-.222,0-.334-.351-1.238-2.517-.9-1.592-2.608a2.775,2.775,0,0,1,.067-.294c.247-.863.863-1.566,1.105-2.438a8.6,8.6,0,0,0,.1-1.84c.005-.1.012-.2.015-.308-1.105-.921,3.71-1.211,4.4-1.47.114-.044-4.107-.086-3.988-.132.348-1.152,1.547-1.837,1.745-3.382-.011-.1-.022-.209-.03-.313a2.249,2.249,0,0,1,.338-1.48c.233-.343-.5-.588-.158-.816a20.368,20.368,0,0,1,2.14-1.283c.655-.324,1.355-.26,1.936-.53.392-.184.616-1.057,1.062-1.387a7.668,7.668,0,0,1,1.857-.78c.211-.077.425-.158.642-.239.967-1.2,2.106.4,2.692-.705a1.537,1.537,0,0,1,.265-.082,4.813,4.813,0,0,1,.554-.005,2.579,2.579,0,0,0,.3-.01c.237-.05.473-.089.708-.122.118-.015.235-.029.351-.041,1.91-1.369,2.366.114,3.753.276.118.03.232.058.348.089s.221.06.332.091a2.407,2.407,0,0,0,.366.022c.456-.435.8-.5,1.084-.386a.9.9,0,0,1,.259.163c.1.59.653.819,1.216,1.017.093.034.188.066.282.1a5.023,5.023,0,0,1,2.248.005c-.1.57-.11.664.04.98.03.061.067.13.112.212.419-.394,1.331-1.648,2.545-.063a2.383,2.383,0,0,0,.251-.1c.082-.039.163-.082.241-.128a.467.467,0,0,1,.022-.256c.032-.059.1-.088.21-.069,1.367.23,1.139,1.6,1.792,2.509.07.066.138.128.2.193s.132.129.194.195a2.1,2.1,0,0,0,.229.219,1.982,1.982,0,0,1,1.607,2.49c.047.116.1.224.151.33a10.621,10.621,0,0,0,1.4,1.966,2.529,2.529,0,0,0,.322.072,4.017,4.017,0,0,1,.828.157c.64.258.887,1.017,1.057,1.686a4.871,4.871,0,0,1,.219,1.453c-.083,1.632-1.914,2.265-.832,4.168a2.251,2.251,0,0,1-.184.216,1.606,1.606,0,0,1-.94.487C1079.187,1774.077,1084.149,1787.713,1084.139,1791.773Z" transform="translate(-1068.238 -1751.874)" fill="#492221"/>
                        <path id="Trazado_125997" data-name="Trazado 125997" d="M1076.9,1775.951c-.033.839-.079,2-.129,3.321-.009.189-.015.38-.024.576-.019.453-.037.922-.053,1.4-.031.76-.061,1.542-.092,2.326q-.023.516-.041,1.031c-.005.165-.012.33-.019.494-.1,2.693-.2,5.216-.256,6.6,7.509,8.459,13.287,7.319,13.748,1.915.017-.19.027-.383.03-.581,0-.13.005-.26.011-.389.006-.184.016-.368.03-.55.2-3.034.341-7.235.466-10.39.033-.863.068-1.647.1-2.307.144-2.869.733-1.143.6-4.246Z" transform="translate(-1066.291 -1746.243)" fill="#f1a389"/>
                        <path id="Trazado_125998" data-name="Trazado 125998" d="M1076.711,1778.738c-.009.189-.015.38-.023.576-.019.453-.037.922-.054,1.4-.031.76-.061,1.542-.092,2.326a21.8,21.8,0,0,0,13.474,9.071c.006-.184.016-.368.03-.55.2-3.034.341-7.236.466-10.39.033-.863.068-1.647.1-2.307-1.7-.933-2.872-1.509-2.872-1.509Z" transform="translate(-1066.23 -1745.709)" fill="#d87c65"/>
                        <path id="Trazado_125999" data-name="Trazado 125999" d="M1097.714,1787.365c-2.287,3.309-3.553,4.1-7.853,4.28-6.844.284-13.025-6.273-13.986-12.576a9.5,9.5,0,0,0-.509-1.838c-.753-2.042-.327-5.611.96-6.859a1.864,1.864,0,0,1,.211-.176c1.34-1.646,1.682.521,2.818,1.094.086.1.164.2.242.3.155.215.316.453.477.715a6.26,6.26,0,0,0,1.315.406,5.206,5.206,0,0,0-.606-2.285c-.508-1.171.815-2.412,1.483-3.2.874-1.028.555-1.75,2.141-1.826,1.443-.07,2.865-.4,4.311-.472,1.3-.06,2.32,1.678,3.584,1.921,1.5.288,2.879-1.328,4.155-.478.159.107.368.011.543-.067.892-.4,2.407-.926,3.307-.6.542.2.871,1.647,1.433,1.642.06,0,.11.059.155.169a4.544,4.544,0,0,1,.185,1.171,56.662,56.662,0,0,1-.108,6.749C1101.507,1778.836,1099.78,1784.378,1097.714,1787.365Z" transform="translate(-1066.604 -1748.714)" fill="#f1a389"/>
                      </g>
                    </g>
                  </g>
                </g>
                <g id="Grupo_56691" data-name="Grupo 56691" transform="translate(22.996 52.869)">
                  <g id="Grupo_56688" data-name="Grupo 56688">
                    <g id="Grupo_56684" data-name="Grupo 56684">
                      <g id="Grupo_56683" data-name="Grupo 56683" style="isolation: isolate">
                        <g id="Grupo_56680" data-name="Grupo 56680" transform="translate(35.271 20.364)">
                          <path id="Trazado_126000" data-name="Trazado 126000" d="M1104.386,1871.923l35.365-20.552.115-40.53-35.366,20.552Z" transform="translate(-1104.386 -1810.841)" fill="#e5b888"/>
                        </g>
                        <g id="Grupo_56681" data-name="Grupo 56681" transform="translate(0.115)">
                          <path id="Trazado_126001" data-name="Trazado 126001" d="M1076.078,1815l12.045,6.954,3.066,1.769,3.066,1.771,17.094,9.869,35.365-20.553-16.955-9.788-3.067-1.771-3.067-1.771-12.182-7.032Z" transform="translate(-1076.078 -1794.445)" fill="#eccda8"/>
                        </g>
                        <g id="Grupo_56682" data-name="Grupo 56682" transform="translate(0 20.553)">
                          <path id="Trazado_126002" data-name="Trazado 126002" d="M1075.986,1851.523l13.249,7.649,6.133,3.541,15.89,9.173.115-40.529-16.005-9.24-6.133-3.54-13.134-7.583Z" transform="translate(-1075.986 -1810.994)" fill="#d3a47c"/>
                        </g>
                      </g>
                    </g>
                    <g id="Grupo_56687" data-name="Grupo 56687" transform="translate(39.638 26.662)">
                      <g id="Grupo_56685" data-name="Grupo 56685" transform="translate(15.604)">
                        <path id="Trazado_126003" data-name="Trazado 126003" d="M1120.467,1833.671l12.916-7.457v-10.3l-12.916,7.457Z" transform="translate(-1120.467 -1815.913)" fill="#fff"/>
                        <path id="Trazado_126004" data-name="Trazado 126004" d="M1121.721,1825.244l10.168-5.87v-1.892l-10.168,5.871Z" transform="translate(-1120.163 -1815.533)" fill="#3f3e3d"/>
                        <path id="Trazado_126005" data-name="Trazado 126005" d="M1121.721,1830.268l10.168-5.871v-3.784l-10.168,5.87Z" transform="translate(-1120.163 -1814.776)" fill="#eccda8"/>
                      </g>
                      <g id="Grupo_56686" data-name="Grupo 56686" transform="translate(0 38.242)">
                        <path id="Trazado_126006" data-name="Trazado 126006" d="M1114.023,1852.71l2.835-1.637v-4.368l-2.835,1.637Z" transform="translate(-1106.421 -1846.705)" fill="#fff"/>
                        <path id="Trazado_126007" data-name="Trazado 126007" d="M1110.958,1854.475l2.8-1.614v-4.368l-2.8,1.615Z" transform="translate(-1107.163 -1846.273)" fill="#fff"/>
                        <path id="Trazado_126008" data-name="Trazado 126008" d="M1107.9,1856.306l2.8-1.615v-4.368l-2.8,1.615Z" transform="translate(-1107.902 -1845.83)" fill="#fff"/>
                      </g>
                    </g>
                  </g>
                  <g id="Grupo_56689" data-name="Grupo 56689" transform="translate(12.16 7.032)">
                    <path id="Trazado_126009" data-name="Trazado 126009" d="M1085.777,1820.582l3.066,1.769,3.067,1.771,35.5-20.473-3.066-1.771-3.067-1.771Z" transform="translate(-1085.777 -1800.107)" fill="#c98e60"/>
                  </g>
                  <g id="Grupo_56690" data-name="Grupo 56690" transform="translate(12.133 27.475)">
                    <path id="Trazado_126010" data-name="Trazado 126010" d="M1085.755,1816.567v40.6l6.133,3.541v-40.6Z" transform="translate(-1085.755 -1816.567)" fill="#aa7145"/>
                  </g>
                </g>
                <path id="Trazado_126011" data-name="Trazado 126011" d="M1066.026,1856.636c4.437,4.461,12.748,9.139,18.055,12.387,5.835,3.58,19.88,9.734,28.747,10.325-1.349-4.248-1.123-2.689-.466-5.239l-36.32-26.892c.18-3.312.45-13.958.715-17.261.3-3.727.624-7.458.884-11.181.286-3.883.5-7.765.539-11.653a27.038,27.038,0,0,0-.953-7.856c-.976-3.075-3.03-6.237-6.662-5.969-4.437.322-8.179,3.933-9.878,9.527a16.006,16.006,0,0,0-.626,5.857l.046,12.351.014,4.589q.484,7.63.982,15.257C1061.572,1848.207,1060.555,1851.135,1066.026,1856.636Z" transform="translate(-1056.853 -1741.857)" fill="#f1a389"/>
                <path id="Trazado_126012" data-name="Trazado 126012" d="M1059.155,1823.455l20.187-2.6c.329-4.47.571-8.939.62-13.416a31.153,31.153,0,0,0-1.1-9.045c-1.124-3.539-3.488-7.181-7.669-6.872-5.109.37-9.416,4.529-11.374,10.969a18.432,18.432,0,0,0-.72,6.743Z" transform="translate(-1057.086 -1742.286)" fill="#ee7d11"/>
                <path id="Trazado_126013" data-name="Trazado 126013" d="M1101.588,1858.312l4.617-2.323a.959.959,0,0,1,1.133,1.419l-1.493,2.328a105.811,105.811,0,0,0,8.875-6.584c2.11-2.027,2.38,5.917-.512,8.936s-7.865,4.354-15.909,1.865S1101.588,1858.312,1101.588,1858.312Z" transform="translate(-1048.289 -1727.452)" fill="#f1a389"/>
              </g>
              <g id="Grupo_56693" data-name="Grupo 56693" transform="translate(14.283)">
                <path id="Trazado_126014" data-name="Trazado 126014" d="M1103.726,1763.783c-.02.316-.047.487-.047.487s-7.271,13.2-11.252,10.844a11.334,11.334,0,0,0-1.129-.57c-1.437-.655-3.531-1.046-5.949-1.873-5.046-1.733-11.287-4-14.393-4.915-1.232-.373-1.987-.588-1.987-.588.015-.1.03-.2.053-.313a34.17,34.17,0,0,1,2.072-7.536,21.078,21.078,0,0,1,1.965-3.685c3.042-4.509,8.158-7.722,16.924-6.771,7.419.81,10.879,4.329,12.465,7.808A15.343,15.343,0,0,1,1103.726,1763.783Z" transform="translate(-1068.97 -1748.696)" fill="#fd8f25"/>
                <path id="Trazado_126015" data-name="Trazado 126015" d="M1112.31,1770.82c-.2,1.632-1.407,3.112-3.606,4.149l-1.448.682c-5.123,2.413-13.743,1.519-19.261-2.007l-4.945-3.164c.133-.142.266-.283.425-.44.354-.356.76-.758,1.243-1.2a76.394,76.394,0,0,1,6.354-5.118,25.844,25.844,0,0,1,8.966-4.579c.238.134.469.276.7.425l4.247,2.716,3.017,1.934C1111.143,1766.23,1112.6,1768.656,1112.31,1770.82Z" transform="translate(-1065.564 -1746.169)" fill="#fd8f25"/>
                <path id="Trazado_126016" data-name="Trazado 126016" d="M1104.658,1762.283c-5.721.929-14.564,4.251-20.266,6.556a76.394,76.394,0,0,1,6.354-5.118,25.843,25.843,0,0,1,8.965-4.579c.238.134.469.276.7.425Z" transform="translate(-1065.239 -1746.169)" fill="#ee7d11"/>
              </g>
            </g>
          </g>
          <path id="Trazado_126017" data-name="Trazado 126017" d="M1128.353,1851.733a9.771,9.771,0,0,0,3.766-2.546c2.083-2.237,5.212-6.278,1.284-6.874-5.474-.83-10.472,3.166-10.031,7.766C1123.641,1852.906,1126.323,1852.481,1128.353,1851.733Z" transform="translate(-1041.533 -1726.075)" fill="#f1a389"/>
        </g>
        <g id="Grupo_56720" data-name="Grupo 56720" transform="translate(77.141 80.781)">
          <g id="Grupo_56698" data-name="Grupo 56698" transform="translate(86.649 209.598)">
            <g id="Grupo_56697" data-name="Grupo 56697">
              <path id="Trazado_126018" data-name="Trazado 126018" d="M1110.187,1982.511v97.626l-4.607,2.835-4.607-2.835v-97.626Z" transform="translate(-1100.973 -1982.511)" fill="#c9d4da"/>
            </g>
            <path id="Trazado_126019" data-name="Trazado 126019" d="M1109.289,1982.511v97.626l-4.607,2.835V1982.511Z" transform="translate(-1100.075 -1982.511)" fill="#adb6be"/>
          </g>
          <g id="Grupo_56700" data-name="Grupo 56700" transform="translate(10.647 166.388)">
            <g id="Grupo_56699" data-name="Grupo 56699">
              <path id="Trazado_126020" data-name="Trazado 126020" d="M1048.989,1947.718v97.625l-4.607,2.835-4.607-2.835v-97.625Z" transform="translate(-1039.775 -1947.718)" fill="#c9d4da"/>
            </g>
            <path id="Trazado_126021" data-name="Trazado 126021" d="M1048.092,1947.718v97.625l-4.607,2.835v-100.46Z" transform="translate(-1038.878 -1947.718)" fill="#adb6be"/>
          </g>
          <g id="Grupo_56702" data-name="Grupo 56702" transform="translate(229.795 126.515)">
            <g id="Grupo_56701" data-name="Grupo 56701">
              <path id="Trazado_126022" data-name="Trazado 126022" d="M1225.448,1915.612v97.626l-4.607,2.835-4.607-2.835v-97.626Z" transform="translate(-1216.234 -1915.612)" fill="#c9d4da"/>
            </g>
            <path id="Trazado_126023" data-name="Trazado 126023" d="M1224.551,1915.612v97.626l-4.607,2.835v-100.46Z" transform="translate(-1215.337 -1915.612)" fill="#adb6be"/>
          </g>
          <g id="Grupo_56704" data-name="Grupo 56704" transform="translate(352.539 55.306)">
            <g id="Grupo_56703" data-name="Grupo 56703">
              <path id="Trazado_126024" data-name="Trazado 126024" d="M1324.282,1858.274V1955.9l-4.607,2.835-4.607-2.835v-97.626Z" transform="translate(-1315.068 -1858.274)" fill="#c9d4da"/>
            </g>
            <path id="Trazado_126025" data-name="Trazado 126025" d="M1323.385,1858.274V1955.9l-4.607,2.835V1858.274Z" transform="translate(-1314.171 -1858.274)" fill="#adb6be"/>
          </g>
          <g id="Grupo_56709" data-name="Grupo 56709" transform="translate(0 9.241)">
            <g id="Grupo_56708" data-name="Grupo 56708" style="isolation: isolate">
              <g id="Grupo_56705" data-name="Grupo 56705" transform="translate(0 173.155)">
                <path id="Trazado_126026" data-name="Trazado 126026" d="M1031.2,1960.608l.018,6.324,73.928,42.962-.018-6.324Z" transform="translate(-1031.202 -1960.608)" fill="#2b393f"/>
              </g>
              <g id="Grupo_56706" data-name="Grupo 56706" transform="translate(73.928 42.962)">
                <path id="Trazado_126027" data-name="Trazado 126027" d="M1090.729,2028.931l.018,6.324L1390.66,1862.1l-.018-6.324Z" transform="translate(-1090.729 -1855.776)" fill="#1f262b"/>
              </g>
              <g id="Grupo_56707" data-name="Grupo 56707">
                <path id="Trazado_126028" data-name="Trazado 126028" d="M1031.2,1994.337l73.928,42.962,299.913-173.155-73.928-42.962Z" transform="translate(-1031.202 -1821.182)" fill="#3b4951"/>
              </g>
            </g>
          </g>
          <g id="Grupo_56714" data-name="Grupo 56714" transform="translate(66.216 38.466)">
            <g id="Grupo_56713" data-name="Grupo 56713" style="isolation: isolate">
              <g id="Grupo_56710" data-name="Grupo 56710" transform="translate(0 173.155)">
                <path id="Trazado_126029" data-name="Trazado 126029" d="M1084.52,1984.139l.018,9.427,7.671,4.687-.018-9.427Z" transform="translate(-1084.52 -1984.139)" fill="#2b393f"/>
              </g>
              <g id="Grupo_56711" data-name="Grupo 56711" transform="translate(7.671 4.687)">
                <path id="Trazado_126030" data-name="Trazado 126030" d="M1090.7,2021.643l.018,9.427,299.913-173.155-.018-9.427Z" transform="translate(-1090.697 -1848.488)" fill="#1f262b"/>
              </g>
              <g id="Grupo_56712" data-name="Grupo 56712">
                <path id="Trazado_126031" data-name="Trazado 126031" d="M1084.52,2017.869l7.671,4.687L1392.1,1849.4l-7.671-4.687Z" transform="translate(-1084.52 -1844.714)" fill="#5f6a72"/>
              </g>
            </g>
          </g>
          <g id="Grupo_56719" data-name="Grupo 56719">
            <g id="Grupo_56718" data-name="Grupo 56718" style="isolation: isolate">
              <g id="Grupo_56715" data-name="Grupo 56715" transform="translate(0 173.155)">
                <path id="Trazado_126032" data-name="Trazado 126032" d="M1031.2,1953.167l.018,9.427,7.671,4.687-.018-9.427Z" transform="translate(-1031.202 -1953.167)" fill="#2b393f"/>
              </g>
              <g id="Grupo_56716" data-name="Grupo 56716" transform="translate(7.671 4.687)">
                <path id="Trazado_126033" data-name="Trazado 126033" d="M1037.379,1990.67l.018,9.427,299.913-173.155-.018-9.427Z" transform="translate(-1037.379 -1817.515)" fill="#1f262b"/>
              </g>
              <g id="Grupo_56717" data-name="Grupo 56717">
                <path id="Trazado_126034" data-name="Trazado 126034" d="M1031.2,1986.9l7.671,4.687,299.913-173.155-7.671-4.687Z" transform="translate(-1031.202 -1813.741)" fill="#5f6a72"/>
              </g>
            </g>
          </g>
        </g>
        <g id="Grupo_56768" data-name="Grupo 56768" transform="translate(213.911 59.691)">
          <g id="Grupo_56751" data-name="Grupo 56751" transform="translate(76.234)">
            <g id="Grupo_56735" data-name="Grupo 56735" transform="translate(43.463)">
              <g id="Grupo_56734" data-name="Grupo 56734">
                <g id="Grupo_56721" data-name="Grupo 56721" transform="translate(0 40.536)">
                  <path id="Trazado_126035" data-name="Trazado 126035" d="M1237.71,1855.636l15.376,8.877,3.915,2.259,3.915,2.261,21.822,12.6,45.145-26.237-21.644-12.5-3.914-2.261-3.915-2.261-15.551-8.977Z" transform="translate(-1237.71 -1829.399)" fill="#2b393f"/>
                </g>
                <g id="Grupo_56733" data-name="Grupo 56733" transform="translate(5.952)">
                  <g id="Grupo_56730" data-name="Grupo 56730">
                    <g id="Grupo_56726" data-name="Grupo 56726">
                      <g id="Grupo_56725" data-name="Grupo 56725" style="isolation: isolate">
                        <g id="Grupo_56722" data-name="Grupo 56722" transform="translate(38.955 22.49)">
                          <path id="Trazado_126036" data-name="Trazado 126036" d="M1273.869,1882.33l39.059-22.7.127-44.762-39.059,22.7Z" transform="translate(-1273.869 -1814.869)" fill="#e5b888"/>
                        </g>
                        <g id="Grupo_56723" data-name="Grupo 56723" transform="translate(0.127)">
                          <path id="Trazado_126037" data-name="Trazado 126037" d="M1242.6,1819.458l13.3,7.681,3.386,1.954,3.387,1.956,18.879,10.9,39.058-22.7-18.725-10.811-3.387-1.956-3.387-1.956-13.454-7.767Z" transform="translate(-1242.605 -1796.76)" fill="#eccda8"/>
                        </g>
                        <g id="Grupo_56724" data-name="Grupo 56724" transform="translate(0 22.699)">
                          <path id="Trazado_126038" data-name="Trazado 126038" d="M1242.5,1859.8l14.632,8.448,6.774,3.91,17.549,10.131.127-44.762-17.676-10.205-6.774-3.91-14.505-8.375Z" transform="translate(-1242.503 -1815.037)" fill="#d3a47c"/>
                        </g>
                      </g>
                    </g>
                    <g id="Grupo_56729" data-name="Grupo 56729" transform="translate(43.91 28.491)">
                      <g id="Grupo_56727" data-name="Grupo 56727" transform="translate(16.459)">
                        <path id="Trazado_126039" data-name="Trazado 126039" d="M1291.112,1840.647l15.235-8.8V1819.7l-15.235,8.8Z" transform="translate(-1291.112 -1819.701)" fill="#fff"/>
                        <path id="Trazado_126040" data-name="Trazado 126040" d="M1292.591,1830.708l11.993-6.924v-2.232l-11.993,6.925Z" transform="translate(-1290.754 -1819.253)" fill="#3f3e3d"/>
                        <path id="Trazado_126041" data-name="Trazado 126041" d="M1292.591,1836.634l11.993-6.925v-4.464l-11.993,6.925Z" transform="translate(-1290.754 -1818.359)" fill="#eccda8"/>
                      </g>
                      <g id="Grupo_56728" data-name="Grupo 56728" transform="translate(0 42.351)">
                        <path id="Trazado_126042" data-name="Trazado 126042" d="M1285.079,1860.885l3.345-1.931V1853.8l-3.345,1.931Z" transform="translate(-1276.112 -1853.802)" fill="#fff"/>
                        <path id="Trazado_126043" data-name="Trazado 126043" d="M1281.464,1862.967l3.3-1.9v-5.152l-3.3,1.9Z" transform="translate(-1276.987 -1853.292)" fill="#fff"/>
                        <path id="Trazado_126044" data-name="Trazado 126044" d="M1277.859,1865.127l3.3-1.9v-5.152l-3.3,1.9Z" transform="translate(-1277.859 -1852.77)" fill="#fff"/>
                      </g>
                    </g>
                  </g>
                  <g id="Grupo_56731" data-name="Grupo 56731" transform="translate(13.43 7.767)">
                    <path id="Trazado_126045" data-name="Trazado 126045" d="M1253.316,1825.626l3.386,1.954,3.387,1.956,39.212-22.611-3.387-1.956-3.387-1.956Z" transform="translate(-1253.316 -1803.013)" fill="#c98e60"/>
                  </g>
                  <g id="Grupo_56732" data-name="Grupo 56732" transform="translate(13.4 30.344)">
                    <path id="Trazado_126046" data-name="Trazado 126046" d="M1253.292,1821.193v44.836l6.773,3.91V1825.1Z" transform="translate(-1253.292 -1821.193)" fill="#aa7145"/>
                  </g>
                </g>
              </g>
            </g>
            <g id="Grupo_56750" data-name="Grupo 56750" transform="translate(0 25.289)">
              <g id="Grupo_56749" data-name="Grupo 56749">
                <g id="Grupo_56736" data-name="Grupo 56736" transform="translate(0 40.536)">
                  <path id="Trazado_126047" data-name="Trazado 126047" d="M1202.714,1876l15.376,8.878,3.914,2.258,3.915,2.261,21.822,12.6,45.145-26.237-21.644-12.5-3.915-2.261-3.915-2.261-15.551-8.977Z" transform="translate(-1202.714 -1849.762)" fill="#2b393f"/>
                </g>
                <g id="Grupo_56748" data-name="Grupo 56748" transform="translate(5.952)">
                  <g id="Grupo_56745" data-name="Grupo 56745">
                    <g id="Grupo_56741" data-name="Grupo 56741">
                      <g id="Grupo_56740" data-name="Grupo 56740" style="isolation: isolate">
                        <g id="Grupo_56737" data-name="Grupo 56737" transform="translate(38.955 22.491)">
                          <path id="Trazado_126048" data-name="Trazado 126048" d="M1238.873,1902.693l39.059-22.7.127-44.762L1239,1857.93Z" transform="translate(-1238.873 -1835.232)" fill="#e5b888"/>
                        </g>
                        <g id="Grupo_56738" data-name="Grupo 56738" transform="translate(0.127)">
                          <path id="Trazado_126049" data-name="Trazado 126049" d="M1207.609,1839.821l13.3,7.68,3.387,1.954,3.387,1.956,18.879,10.9,39.058-22.7L1266.9,1828.8l-3.387-1.956-3.387-1.956-13.454-7.767Z" transform="translate(-1207.609 -1817.122)" fill="#eccda8"/>
                        </g>
                        <g id="Grupo_56739" data-name="Grupo 56739" transform="translate(0 22.699)">
                          <path id="Trazado_126050" data-name="Trazado 126050" d="M1207.506,1880.161l14.633,8.448,6.773,3.91,17.549,10.131.127-44.762-17.676-10.205-6.773-3.91-14.505-8.374Z" transform="translate(-1207.506 -1835.4)" fill="#d3a47c"/>
                        </g>
                      </g>
                    </g>
                    <g id="Grupo_56744" data-name="Grupo 56744" transform="translate(43.91 28.492)">
                      <g id="Grupo_56742" data-name="Grupo 56742" transform="translate(16.459)">
                        <path id="Trazado_126051" data-name="Trazado 126051" d="M1256.115,1861.01l15.235-8.8v-12.15l-15.235,8.8Z" transform="translate(-1256.115 -1840.064)" fill="#fff"/>
                        <path id="Trazado_126052" data-name="Trazado 126052" d="M1257.594,1851.071l11.993-6.924v-2.232l-11.993,6.924Z" transform="translate(-1255.758 -1839.616)" fill="#3f3e3d"/>
                        <path id="Trazado_126053" data-name="Trazado 126053" d="M1257.594,1857l11.993-6.924v-4.464l-11.993,6.925Z" transform="translate(-1255.758 -1838.722)" fill="#eccda8"/>
                      </g>
                      <g id="Grupo_56743" data-name="Grupo 56743" transform="translate(0 42.351)">
                        <path id="Trazado_126054" data-name="Trazado 126054" d="M1250.083,1881.248l3.344-1.931v-5.152l-3.344,1.931Z" transform="translate(-1241.116 -1874.165)" fill="#fff"/>
                        <path id="Trazado_126055" data-name="Trazado 126055" d="M1246.468,1883.329l3.3-1.9v-5.152l-3.3,1.9Z" transform="translate(-1241.99 -1873.655)" fill="#fff"/>
                        <path id="Trazado_126056" data-name="Trazado 126056" d="M1242.863,1885.489l3.3-1.9v-5.152l-3.3,1.9Z" transform="translate(-1242.863 -1873.132)" fill="#fff"/>
                      </g>
                    </g>
                  </g>
                  <g id="Grupo_56746" data-name="Grupo 56746" transform="translate(13.43 7.767)">
                    <path id="Trazado_126057" data-name="Trazado 126057" d="M1218.32,1845.989l3.387,1.954,3.387,1.956,39.212-22.611-3.387-1.956-3.387-1.956Z" transform="translate(-1218.32 -1823.376)" fill="#c98e60"/>
                  </g>
                  <g id="Grupo_56747" data-name="Grupo 56747" transform="translate(13.4 30.344)">
                    <path id="Trazado_126058" data-name="Trazado 126058" d="M1218.3,1841.555v44.836l6.773,3.91v-44.836Z" transform="translate(-1218.296 -1841.555)" fill="#aa7145"/>
                  </g>
                </g>
              </g>
            </g>
          </g>
          <g id="Grupo_56767" data-name="Grupo 56767" transform="translate(0 69.097)">
            <g id="Grupo_56766" data-name="Grupo 56766">
              <g id="Grupo_56765" data-name="Grupo 56765">
                <g id="Grupo_56752" data-name="Grupo 56752" transform="translate(0 40.536)">
                  <path id="Trazado_126059" data-name="Trazado 126059" d="M1141.33,1911.273l15.376,8.878,3.914,2.258,3.914,2.261,21.822,12.6,45.145-26.237-21.644-12.5-3.915-2.261-3.915-2.261-15.551-8.977Z" transform="translate(-1141.33 -1885.037)" fill="#2b393f"/>
                </g>
                <g id="Grupo_56764" data-name="Grupo 56764" transform="translate(5.952)">
                  <g id="Grupo_56761" data-name="Grupo 56761">
                    <g id="Grupo_56757" data-name="Grupo 56757">
                      <g id="Grupo_56756" data-name="Grupo 56756" style="isolation: isolate">
                        <g id="Grupo_56753" data-name="Grupo 56753" transform="translate(38.955 22.49)">
                          <path id="Trazado_126060" data-name="Trazado 126060" d="M1177.489,1937.967l39.059-22.7.127-44.763-39.059,22.7Z" transform="translate(-1177.489 -1870.506)" fill="#e5b888"/>
                        </g>
                        <g id="Grupo_56754" data-name="Grupo 56754" transform="translate(0.127)">
                          <path id="Trazado_126061" data-name="Trazado 126061" d="M1146.225,1875.1l13.3,7.681,3.387,1.954,3.387,1.956,18.879,10.9,39.058-22.7-18.725-10.811-3.387-1.956-3.387-1.956-13.454-7.767Z" transform="translate(-1146.225 -1852.396)" fill="#eccda8"/>
                        </g>
                        <g id="Grupo_56755" data-name="Grupo 56755" transform="translate(0 22.699)">
                          <path id="Trazado_126062" data-name="Trazado 126062" d="M1146.122,1915.436l14.633,8.448,6.773,3.91,17.549,10.131.127-44.762-17.677-10.205-6.773-3.91-14.505-8.375Z" transform="translate(-1146.122 -1870.674)" fill="#d3a47c"/>
                        </g>
                      </g>
                    </g>
                    <g id="Grupo_56760" data-name="Grupo 56760" transform="translate(43.91 28.492)">
                      <g id="Grupo_56758" data-name="Grupo 56758" transform="translate(16.459)">
                        <path id="Trazado_126063" data-name="Trazado 126063" d="M1194.732,1896.284l15.235-8.8v-12.15l-15.235,8.8Z" transform="translate(-1194.732 -1875.338)" fill="#fff"/>
                        <path id="Trazado_126064" data-name="Trazado 126064" d="M1196.21,1886.345l11.993-6.924v-2.232l-11.993,6.925Z" transform="translate(-1194.374 -1874.89)" fill="#3f3e3d"/>
                        <path id="Trazado_126065" data-name="Trazado 126065" d="M1196.21,1892.271l11.993-6.924v-4.464l-11.993,6.925Z" transform="translate(-1194.374 -1873.996)" fill="#eccda8"/>
                      </g>
                      <g id="Grupo_56759" data-name="Grupo 56759" transform="translate(0 42.351)">
                        <path id="Trazado_126066" data-name="Trazado 126066" d="M1188.7,1916.522l3.344-1.931v-5.152l-3.344,1.931Z" transform="translate(-1179.732 -1909.439)" fill="#fff"/>
                        <path id="Trazado_126067" data-name="Trazado 126067" d="M1185.084,1918.6l3.3-1.9v-5.152l-3.3,1.9Z" transform="translate(-1180.606 -1908.929)" fill="#fff"/>
                        <path id="Trazado_126068" data-name="Trazado 126068" d="M1181.479,1920.764l3.3-1.9v-5.152l-3.3,1.9Z" transform="translate(-1181.479 -1908.407)" fill="#fff"/>
                      </g>
                    </g>
                  </g>
                  <g id="Grupo_56762" data-name="Grupo 56762" transform="translate(13.43 7.767)">
                    <path id="Trazado_126069" data-name="Trazado 126069" d="M1156.936,1881.263l3.387,1.954,3.387,1.956,39.212-22.611-3.387-1.956-3.387-1.956Z" transform="translate(-1156.936 -1858.65)" fill="#c98e60"/>
                  </g>
                  <g id="Grupo_56763" data-name="Grupo 56763" transform="translate(13.4 30.344)">
                    <path id="Trazado_126070" data-name="Trazado 126070" d="M1156.912,1876.83v44.836l6.774,3.91V1880.74Z" transform="translate(-1156.912 -1876.83)" fill="#aa7145"/>
                  </g>
                </g>
              </g>
            </g>
          </g>
        </g>
      </g>
    </g>
  </g>
</svg>
