<svg xmlns="http://www.w3.org/2000/svg" width="160" height="160" viewBox="0 0 160 160">
  <g id="Grupo_63741" data-name="Grupo 63741" transform="translate(11039 -3675.679)">
    <g id="Elipse_4182" data-name="Elipse 4182" transform="translate(-11039 3675.679)" fill="#fff" stroke="#472ea6" stroke-width="4">
      <circle cx="80" cy="80" r="80" stroke="none"/>
      <circle cx="80" cy="80" r="78" fill="none"/>
    </g>
    <g id="Grupo_59802" data-name="Grupo 59802" transform="translate(-11523.318 3001.069)">
      <path id="Trazado_166501" data-name="Trazado 166501" d="M572.611,781.677l-1.771-6.3c-1.349.182-2.827.415-4.312.578A51.158,51.158,0,0,1,540.5,772.1a3.193,3.193,0,0,0-1.913-.151c-5.129,1.324-10.233,2.744-15.359,4.077a5.165,5.165,0,0,1-6.686-3.987,6.579,6.579,0,0,1,.178-2.768c1.191-4.62,2.481-9.215,3.673-13.834a2.811,2.811,0,0,0-.2-1.775c-6.111-12.679-4.844-24.677,3.274-36.049.949-1.33,2.115-1.576,3.178-.8,1.079.784,1.131,2.035.187,3.366-7.365,10.39-8.3,21.239-2.267,32.557a3.457,3.457,0,0,1,.247,2.708c-1.339,4.932-2.651,9.87-3.969,14.807-.392,1.468.133,2.008,1.6,1.617,5.334-1.427,10.669-2.85,15.995-4.309a4.047,4.047,0,0,1,2.931.231A46.559,46.559,0,0,0,570,771.167c.755-.143,1.13-.378,1.13-1.281a12.5,12.5,0,0,1,6.828-11.74c4.648-2.517,9.255-2.094,13.645.82.154.1.316.192.693.42,1.244-1.628,2.608-3.179,3.713-4.9,7.682-11.946,6.425-26.259-3.281-36.8-7.262-7.887-16.457-11.926-27-13.043a45.6,45.6,0,0,0-24.094,3.834c-.137.062-.274.124-.415.177a2.112,2.112,0,1,1-1.669-3.872,46.345,46.345,0,0,1,12.775-3.944c11.47-1.815,22.435-.268,32.629,5.411,9.213,5.133,16.03,12.455,18.952,22.8,3.236,11.457.66,21.817-6.771,30.955-1.413,1.738-2.249,3.039-.893,5.153a6.576,6.576,0,0,1,.721,3.153,58.045,58.045,0,0,1,.014,7.547,39.855,39.855,0,0,1-1.293,5.657l-.334.016c.326.239.653.476.978.717a21.035,21.035,0,0,1,8.911,17.15c.059,2.179.026,4.362.009,6.542a2.205,2.205,0,0,1-2.515,2.481q-18.666.009-37.332,0c-1.44,0-2.43-.7-2.432-1.955-.007-4.049-.44-8.133.605-12.124a21.043,21.043,0,0,1,8.487-12.243C572.3,781.933,572.527,781.742,572.611,781.677Zm28.37,22.442c0-1.76.055-3.411-.01-5.057a16.626,16.626,0,0,0-7.528-13.667,1.2,1.2,0,0,0-1.669.037,12.809,12.809,0,0,1-15.255.068,1.418,1.418,0,0,0-1.955,0c-6.537,4.582-8.013,11.133-7.291,18.614Zm-8.156-31.834h-.02c0-1.165.075-2.336-.013-3.494a8.725,8.725,0,0,0-8.575-7.983,8.575,8.575,0,0,0-8.763,7.732,46.065,46.065,0,0,0-.014,7.318,8.563,8.563,0,0,0,8.859,7.866,8.683,8.683,0,0,0,8.518-8.281C592.872,774.392,592.824,773.337,592.824,772.285Z" fill="#472ea6"/>
      <path id="Trazado_166502" data-name="Trazado 166502" d="M702.348,816.669c-4.549,0-9.1.008-13.646-.005-1.42,0-2.282-.7-2.406-1.861a2.038,2.038,0,0,1,1.688-2.3,6.959,6.959,0,0,1,1.236-.067q13.138,0,26.276,0c1.992,0,2.983.7,3,2.1.013,1.42-.975,2.139-2.948,2.139Q708.945,816.671,702.348,816.669Z" transform="translate(-131.598 -86.983)" fill="#472ea6"/>
      <path id="Trazado_166503" data-name="Trazado 166503" d="M702.457,910.845q-6.588,0-13.176,0a8.969,8.969,0,0,1-1.236-.043,2.094,2.094,0,0,1-.208-4.092,5.29,5.29,0,0,1,1.228-.1q13.345-.009,26.69-.005a6.182,6.182,0,0,1,.787.024,2.114,2.114,0,0,1,1.941,2.225,2.054,2.054,0,0,1-2.062,1.976c-1.162.046-2.327.018-3.491.019Q707.694,910.847,702.457,910.845Z" transform="translate(-131.595 -159.91)" fill="#472ea6"/>
      <path id="Trazado_166504" data-name="Trazado 166504" d="M702.38,863.728q-6.757,0-13.514,0c-1.628,0-2.534-.73-2.568-2.034-.035-1.372.893-2.2,2.534-2.2q13.57-.01,27.14,0c1.576,0,2.509.806,2.525,2.109s-.924,2.12-2.492,2.123Q709.194,863.737,702.38,863.728Z" transform="translate(-131.61 -123.423)" fill="#472ea6"/>
      <path id="Trazado_166505" data-name="Trazado 166505" d="M605.765,812.481a6.975,6.975,0,0,1,6.279,4.284,7.1,7.1,0,0,1-1.135,8c-.673.805-1.52,1.478-2.118,2.33a10.03,10.03,0,0,0-1.314,2.668,2.229,2.229,0,0,1-2.333,1.833,2.131,2.131,0,0,1-1.883-2.272,6.249,6.249,0,0,1,1.481-3.932c.949-1.207,2.041-2.3,3.025-3.48a3.148,3.148,0,0,0-3.945-4.776,3.222,3.222,0,0,0-1.624,2.556c-.2,1.6-1.062,2.425-2.339,2.289-1.313-.14-1.993-1.2-1.832-2.843A7.472,7.472,0,0,1,605.765,812.481Z" transform="translate(-63.23 -87.019)" fill="#472ea6"/>
      <path id="Trazado_166506" data-name="Trazado 166506" d="M581.165,744.521a2.118,2.118,0,0,1-2.054,2.1,2.115,2.115,0,1,1,.035-4.229A2.109,2.109,0,0,1,581.165,744.521Z" transform="translate(-46.929 -32.734)" fill="#472ea6"/>
      <path id="Trazado_166507" data-name="Trazado 166507" d="M625.541,908.876a2.108,2.108,0,0,1-2.1,2.039,2.07,2.07,0,0,1-2.093-2.147,2.1,2.1,0,1,1,4.2.108Z" transform="translate(-81.306 -160.002)" fill="#472ea6"/>
    </g>
  </g>
</svg>
