<svg xmlns="http://www.w3.org/2000/svg" xmlns:xlink="http://www.w3.org/1999/xlink" width="400" height="231" viewBox="0 0 400 231">
  <defs>
    <clipPath id="clip-path">
      <rect id="Rectángulo_35847" data-name="Rectángulo 35847" width="400" height="231" transform="translate(631 5130)" fill="#fff" stroke="#707070" stroke-width="1"/>
    </clipPath>
  </defs>
  <g id="Grupo_63744" data-name="Grupo 63744" transform="translate(4188 6658)">
    <g id="Enmascarar_grupo_71" data-name="Enmascarar grupo 71" transform="translate(-4819 -11788)" clip-path="url(#clip-path)">
      <g id="Grupo_63743" data-name="Grupo 63743" transform="translate(-225.203 4233.016)">
        <rect id="Rectángulo_35776" data-name="Rectángulo 35776" width="399.998" height="365.537" transform="translate(856.205 782.447)" fill="#c3cbe9"/>
        <path id="Trazado_170486" data-name="Trazado 170486" d="M1052.118,968.595v-4.909h-17.684v78.344h30.683V968.595Z" transform="translate(-37.518 -38.152)" fill="#a2b3dd"/>
        <rect id="Rectángulo_35777" data-name="Rectángulo 35777" width="2.079" height="42.802" transform="translate(1079.5 912.253)" fill="#a2b3dd"/>
        <path id="Trazado_170487" data-name="Trazado 170487" d="M1141.465,1066.814V987.6l-3.967-9.593h-34.272l-4,9.593v79.213Z" transform="translate(-51.157 -41.167)" fill="#a2b3dd"/>
        <rect id="Rectángulo_35778" data-name="Rectángulo 35778" width="56.113" height="75.334" transform="translate(1047.105 1025.647)" fill="#a2b3dd"/>
        <rect id="Rectángulo_35779" data-name="Rectángulo 35779" width="59.533" height="4.393" transform="translate(1045.396 1023.94)" fill="#a2b3dd"/>
        <rect id="Rectángulo_35780" data-name="Rectángulo 35780" width="2.519" height="110.21" transform="translate(969.013 897.747)" fill="#a2b3dd"/>
        <rect id="Rectángulo_35781" data-name="Rectángulo 35781" width="22.197" height="12.186" transform="translate(959.174 914.801)" fill="#a2b3dd"/>
        <rect id="Rectángulo_35782" data-name="Rectángulo 35782" width="31.128" height="127.627" transform="translate(954.708 926.297)" fill="#a2b3dd"/>
        <rect id="Rectángulo_35783" data-name="Rectángulo 35783" width="31.128" height="13.629" transform="translate(954.708 926.297)" fill="#a2b3dd"/>
        <rect id="Rectángulo_35784" data-name="Rectángulo 35784" width="38.603" height="161.64" transform="translate(950.971 939.342)" fill="#a2b3dd"/>
        <rect id="Rectángulo_35785" data-name="Rectángulo 35785" width="40.088" height="2.255" transform="translate(950.229 938.72)" fill="#a2b3dd"/>
        <rect id="Rectángulo_35786" data-name="Rectángulo 35786" width="33.961" height="2.255" transform="translate(953.293 925.172)" fill="#a2b3dd"/>
        <rect id="Rectángulo_35787" data-name="Rectángulo 35787" width="21.646" height="11.881" transform="translate(1160.338 926.342)" fill="#a2b3dd"/>
        <path id="Trazado_170488" data-name="Trazado 170488" d="M1268.941,991.63l-4.9-12.72H1236.2l-4.9,12.72Z" transform="translate(-78.959 -41.357)" fill="#a2b3dd"/>
        <rect id="Rectángulo_35788" data-name="Rectángulo 35788" width="37.645" height="150.708" transform="translate(1152.338 950.273)" fill="#a2b3dd"/>
        <rect id="Rectángulo_35789" data-name="Rectángulo 35789" width="41.466" height="133.259" transform="translate(1010.134 967.722)" fill="#a2b3dd"/>
        <path id="Trazado_170489" data-name="Trazado 170489" d="M1048.142,1098.584V1039.5l-3.228-7.8H1017.03l-3.257,7.8v59.082Z" transform="translate(-33.169 -52.469)" fill="#a2b3dd"/>
        <rect id="Rectángulo_35790" data-name="Rectángulo 35790" width="36.492" height="54.767" transform="translate(979.543 1046.214)" fill="#a2b3dd"/>
        <rect id="Rectángulo_35791" data-name="Rectángulo 35791" width="38.714" height="3.574" transform="translate(978.431 1044.825)" fill="#a2b3dd"/>
        <path id="Trazado_170490" data-name="Trazado 170490" d="M1200.027,1132.88h-37.645V947.627l37.645-13.65Z" transform="translate(-64.452 -31.899)" fill="#a2b3dd"/>
        <path id="Trazado_170491" data-name="Trazado 170491" d="M1160.628,943.146v4.875l40.415-14.655v-4.875Z" transform="translate(-64.083 -30.744)" fill="#a2b3dd"/>
        <path id="Trazado_170492" data-name="Trazado 170492" d="M1160.625,943.148v1.569l40.419-14.655v-1.571Z" transform="translate(-64.082 -30.744)" fill="#a2b3dd"/>
        <path id="Trazado_170493" data-name="Trazado 170493" d="M923.118,1034.172H885.474v-74.35l37.645-13.652Z" transform="translate(-6.162 -34.465)" fill="#a2b3dd"/>
        <path id="Trazado_170494" data-name="Trazado 170494" d="M883.719,955.341v4.875l40.416-14.655v-4.873Z" transform="translate(-5.792 -33.311)" fill="#a2b3dd"/>
        <path id="Trazado_170495" data-name="Trazado 170495" d="M883.717,955.343v1.569l40.418-14.655v-1.569Z" transform="translate(-5.792 -33.311)" fill="#a2b3dd"/>
        <rect id="Rectángulo_35792" data-name="Rectángulo 35792" width="48.175" height="108.005" transform="translate(868.587 992.976)" fill="#a2b3dd"/>
        <path id="Trazado_170496" data-name="Trazado 170496" d="M952.931,1034.893v-5.617H932.695v123.665H967.8V1034.893Z" transform="translate(-16.102 -51.959)" fill="#a2b3dd"/>
        <path id="Trazado_170497" data-name="Trazado 170497" d="M856.2,1147.383l20.132,0-.057-138.847v-5.663l-20.074,0Z" transform="translate(0 -46.401)" fill="#a2b3dd"/>
        <path id="Trazado_170498" data-name="Trazado 170498" d="M1353.409,1014.5h-31.665l-3.761,9.014v68.223h35.426Z" transform="translate(-97.206 -48.849)" fill="#a2b3dd"/>
        <rect id="Rectángulo_35793" data-name="Rectángulo 35793" width="36.652" height="57.977" transform="translate(1219.551 1043.004)" fill="#a2b3dd"/>
        <rect id="Rectángulo_35794" data-name="Rectángulo 35794" width="37.935" height="4.127" transform="translate(1218.268 1041.398)" fill="#a2b3dd"/>
        <path id="Trazado_170499" data-name="Trazado 170499" d="M1236.495,1099.6v-57.724l-3.154-7.627H1206.1l-3.182,7.627V1099.6Z" transform="translate(-72.984 -53.006)" fill="#a2b3dd"/>
        <rect id="Rectángulo_35795" data-name="Rectángulo 35795" width="35.653" height="54.29" transform="translate(1128.894 1046.692)" fill="#a2b3dd"/>
        <rect id="Rectángulo_35796" data-name="Rectángulo 35796" width="37.825" height="3.492" transform="translate(1127.809 1045.333)" fill="#a2b3dd"/>
        <path id="Trazado_170500" data-name="Trazado 170500" d="M1287.7,1001l0-5.93,21.364,0v5.978l.061,144.688-37.067.007-.06-144.736Z" transform="translate(-87.525 -44.759)" fill="#a2b3dd"/>
        <rect id="Rectángulo_35797" data-name="Rectángulo 35797" width="21.789" height="1.615" transform="matrix(0.002, -1, 1, 0.002, 1192.005, 959.735)" fill="#a2b3dd"/>
        <rect id="Rectángulo_35798" data-name="Rectángulo 35798" width="4.284" height="6.796" transform="translate(959.174 929.714)" fill="#fff"/>
        <rect id="Rectángulo_35799" data-name="Rectángulo 35799" width="4.284" height="6.795" transform="translate(886.629 935.322)" fill="#fff"/>
        <rect id="Rectángulo_35800" data-name="Rectángulo 35800" width="4.284" height="6.795" transform="translate(898.134 946.057)" fill="#fff"/>
        <rect id="Rectángulo_35801" data-name="Rectángulo 35801" width="4.284" height="6.796" transform="translate(886.629 973.919)" fill="#fff"/>
        <rect id="Rectángulo_35802" data-name="Rectángulo 35802" width="4.284" height="6.796" transform="translate(906.158 974.448)" fill="#fff"/>
        <rect id="Rectángulo_35803" data-name="Rectángulo 35803" width="4.284" height="6.796" transform="translate(886.629 1022.738)" fill="#fff"/>
        <rect id="Rectángulo_35804" data-name="Rectángulo 35804" width="4.284" height="6.796" transform="translate(977.087 929.714)" fill="#fff"/>
        <rect id="Rectángulo_35805" data-name="Rectángulo 35805" width="4.284" height="6.796" transform="translate(959.174 955.372)" fill="#fff"/>
        <rect id="Rectángulo_35806" data-name="Rectángulo 35806" width="4.284" height="6.795" transform="translate(1005.85 946.914)" fill="#fff"/>
        <rect id="Rectángulo_35807" data-name="Rectángulo 35807" width="4.283" height="6.795" transform="translate(926.948 1010.522)" fill="#fff"/>
        <rect id="Rectángulo_35808" data-name="Rectángulo 35808" width="4.283" height="6.796" transform="translate(1018.702 977.846)" fill="#fff"/>
        <rect id="Rectángulo_35809" data-name="Rectángulo 35809" width="4.284" height="6.796" transform="translate(1161.369 957.219)" fill="#fff"/>
        <rect id="Rectángulo_35810" data-name="Rectángulo 35810" width="4.284" height="6.796" transform="translate(1161.747 1009.245)" fill="#fff"/>
        <rect id="Rectángulo_35811" data-name="Rectángulo 35811" width="4.284" height="6.796" transform="translate(1176.289 1009.245)" fill="#fff"/>
        <rect id="Rectángulo_35812" data-name="Rectángulo 35812" width="4.284" height="6.796" transform="translate(985.836 1007.123)" fill="#fff"/>
        <rect id="Rectángulo_35813" data-name="Rectángulo 35813" width="4.283" height="6.796" transform="translate(996.916 1007.123)" fill="#fff"/>
        <rect id="Rectángulo_35814" data-name="Rectángulo 35814" width="4.283" height="6.796" transform="translate(996.916 1032.354)" fill="#fff"/>
        <rect id="Rectángulo_35815" data-name="Rectángulo 35815" width="4.284" height="6.796" transform="translate(1007.992 1020.162)" fill="#fff"/>
        <rect id="Rectángulo_35816" data-name="Rectángulo 35816" width="4.232" height="3.102" transform="translate(968.157 918.552)" fill="#fff"/>
        <rect id="Rectángulo_35817" data-name="Rectángulo 35817" width="8.164" height="3.101" transform="translate(1053.168 957.219)" fill="#fff"/>
        <rect id="Rectángulo_35818" data-name="Rectángulo 35818" width="8.164" height="3.102" transform="translate(1065.105 963.786)" fill="#fff"/>
        <rect id="Rectángulo_35819" data-name="Rectángulo 35819" width="8.164" height="3.102" transform="translate(1065.105 991.445)" fill="#fff"/>
        <rect id="Rectángulo_35820" data-name="Rectángulo 35820" width="8.164" height="3.102" transform="translate(1078.965 991.445)" fill="#fff"/>
        <rect id="Rectángulo_35821" data-name="Rectángulo 35821" width="8.164" height="3.102" transform="translate(1190.786 979.693)" fill="#fff"/>
        <rect id="Rectángulo_35822" data-name="Rectángulo 35822" width="8.164" height="3.102" transform="translate(1208.363 979.693)" fill="#fff"/>
        <rect id="Rectángulo_35823" data-name="Rectángulo 35823" width="8.164" height="3.101" transform="translate(1208.363 996.028)" fill="#fff"/>
        <rect id="Rectángulo_35824" data-name="Rectángulo 35824" width="8.164" height="3.102" transform="translate(1053.168 1000.776)" fill="#fff"/>
        <rect id="Rectángulo_35825" data-name="Rectángulo 35825" width="5.446" height="5.46" transform="translate(866.226 969.818)" fill="#fff"/>
        <rect id="Rectángulo_35826" data-name="Rectángulo 35826" width="5.446" height="5.46" transform="translate(866.226 996.977)" fill="#fff"/>
        <rect id="Rectángulo_35827" data-name="Rectángulo 35827" width="5.271" height="5.46" transform="translate(856.203 986.299)" fill="#fff"/>
        <rect id="Rectángulo_35828" data-name="Rectángulo 35828" width="5.447" height="5.46" transform="translate(1104.928 929.553)" fill="#fff"/>
        <rect id="Rectángulo_35829" data-name="Rectángulo 35829" width="5.447" height="5.46" transform="translate(1224.874 1009.912)" fill="#fff"/>
        <rect id="Rectángulo_35830" data-name="Rectángulo 35830" width="5.447" height="5.46" transform="translate(1249.462 1009.912)" fill="#fff"/>
        <rect id="Rectángulo_35831" data-name="Rectángulo 35831" width="5.447" height="5.46" transform="translate(1249.462 1033.404)" fill="#fff"/>
        <rect id="Rectángulo_35832" data-name="Rectángulo 35832" width="5.447" height="5.46" transform="translate(1239.131 1021.21)" fill="#fff"/>
        <rect id="Rectángulo_35833" data-name="Rectángulo 35833" width="5.447" height="5.46" transform="translate(1104.928 954.489)" fill="#fff"/>
        <rect id="Rectángulo_35834" data-name="Rectángulo 35834" width="5.446" height="5.46" transform="translate(1122.362 939.847)" fill="#fff"/>
        <rect id="Rectángulo_35835" data-name="Rectángulo 35835" width="5.446" height="5.46" transform="translate(1122.362 967.722)" fill="#fff"/>
        <rect id="Rectángulo_35836" data-name="Rectángulo 35836" width="5.447" height="5.46" transform="translate(1104.928 967.722)" fill="#fff"/>
        <rect id="Rectángulo_35837" data-name="Rectángulo 35837" width="5.447" height="5.459" transform="translate(1104.928 1009.942)" fill="#fff"/>
        <rect id="Rectángulo_35838" data-name="Rectángulo 35838" width="5.446" height="5.46" transform="translate(1122.362 1030.674)" fill="#fff"/>
        <path id="Trazado_170501" data-name="Trazado 170501" d="M1065.382,782.448c-27.1,22.926-62.55,52.616-97.2,81.647-41.4,34.686-83.943,70.331-111.977,94.179v-16.04c27.808-23.575,66.445-55.937,104.122-87.509,30.1-25.222,60.81-50.951,86.107-72.278Z" transform="translate(-0.001 -0.001)" fill="#d1d8ef"/>
        <path id="Trazado_170502" data-name="Trazado 170502" d="M1127.669,782.448c-34.112,28.834-83.256,70.076-131.273,110.369-52.427,44-106.2,89.125-140.19,117.932V977.474c33.6-28.372,79.22-66.652,123.859-104.112,38.053-31.938,76.812-64.469,108.2-90.914Z" transform="translate(-0.001 -0.001)" fill="#d1d8ef"/>
        <path id="Trazado_170503" data-name="Trazado 170503" d="M1273.717,830.362c.837-.724,1.655-1.42,2.455-2.1v33.359c-33.933,28.777-88.854,74.865-142.364,119.775-69.277,58.138-140.906,118.244-166.127,140.049l-16.613-19.21c23.885-20.648,88.854-75.2,154.254-130.1q6.082-5.095,12.154-10.2C1179.18,910.166,1242.738,856.816,1273.717,830.362Z" transform="translate(-19.969 -9.646)" fill="#c3cbe9"/>
        <path id="Trazado_170504" data-name="Trazado 170504" d="M1314.748,830.362c.837-.724,1.655-1.42,2.455-2.1v33.292c-17.959,15.136-41.45,34.761-68.656,57.479-26.1,21.789-55.674,46.483-86.229,72.128l-15.965-19.022-.366-.433c30.575-25.663,60.171-50.368,86.276-72.174C1267.221,870.344,1296.036,846.28,1314.748,830.362Z" transform="translate(-61.001 -9.646)" fill="#d1d8ef"/>
        <rect id="Rectángulo_35839" data-name="Rectángulo 35839" width="27.938" height="318.539" transform="translate(986.692 782.442)" fill="#94a5d5"/>
        <rect id="Rectángulo_35840" data-name="Rectángulo 35840" width="27.938" height="318.539" transform="translate(1166.097 782.442)" fill="#94a5d5"/>
        <path id="Trazado_170505" data-name="Trazado 170505" d="M1201.767,1181.553c-.311-1.046-.632-2.087-.974-3.118-.133-.4-.272-.8-.4-1.2-.894-2.584-1.866-5.113-2.885-7.564l-.092-.205c-.181-.441-.386-.875-.6-1.31-1.255-2.571-2.921-5.107-4.418-8a4.029,4.029,0,0,0-1.341-1.672,5.493,5.493,0,0,0-3.03-.67q-19.368.135-38.725.265c-3.8.024-5.849,1.226-7.546,4.7q-.951,1.947-1.8,4.142c-.163.416-.326.844-.483,1.273a81.7,81.7,0,0,0-2.439,7.986c-.072.278-.144.556-.211.834-.362,1.483-.685,3.007-.991,4.548Z" transform="translate(-58.862 -79.016)" fill="#e96866"/>
        <path id="Trazado_170506" data-name="Trazado 170506" d="M1201.058,1183.332c-10.607,1.853-21.648,1.847-32.291,1.4-6.906-.291-13.8-.821-20.682-1.407a93.857,93.857,0,0,1-11-1.424c.066-.278.139-.556.211-.834,10.486,2.035,21.509,2.275,32.049,2.662a172.914,172.914,0,0,0,31.311-1.6C1200.786,1182.529,1200.925,1182.927,1201.058,1183.332Z" transform="translate(-59.126 -83.912)" fill="#303f50"/>
        <path id="Trazado_170507" data-name="Trazado 170507" d="M1167.047,958.458c1.913.987,3.808,1.252,4.761,3.449.713,1.641.488,3.446.613,5.177.01.147.163.246.206.055a9.88,9.88,0,0,0-.362-5.511c-.928-2.4-2.883-3.006-5.194-3.572C1166.95,958.027,1166.953,958.409,1167.047,958.458Z" transform="translate(-65.419 -36.967)" fill="#263443"/>
        <path id="Trazado_170508" data-name="Trazado 170508" d="M1152.36,987.461c-4.979-1-9.123-4.967-6.748-10.378.04-.09-.022-.551-.153-.366-3.583,5.081,1.717,10.933,6.9,11.328C1152.552,988.06,1152.552,987.5,1152.36,987.461Z" transform="translate(-60.643 -40.886)" fill="#263443"/>
        <path id="Trazado_170509" data-name="Trazado 170509" d="M1187.055,1003.851a16.681,16.681,0,0,0,4.884-.356c1.258-.257,2.364-.339,3.188.932a5.957,5.957,0,0,1,.614,3.711,28.244,28.244,0,0,1-2.614,9.916,18.1,18.1,0,0,1-6.156,7.5c-3.764,2.423-9.944,3.745-14.4,3.49-5.589-.322-11.088.524-16.675,1.033-2.219.2-4.784.208-6.263-1.459-1.994-2.247-.785-6.185-2.808-8.406a17.049,17.049,0,0,0-1.762-1.435,6.518,6.518,0,0,1-2.3-4.842c-.03-2.331,1.6-3.69,2.132-5.752.619-2.421.554-4.961,1.037-7.407.532-2.7,4.2-2.031,6.493-1.918a58.748,58.748,0,0,1,8.99,1.423c2.284.473,4.569.936,6.89,1.186,2.255.243,4.462.088,6.726.278C1179.09,1002.089,1183,1003.5,1187.055,1003.851Z" transform="translate(-60.323 -45.524)" fill="#263443"/>
        <path id="Trazado_170510" data-name="Trazado 170510" d="M1213.378,1088.169c2.385,8.006,4.442,15.9,6.622,23.76,1.094,3.917,2.182,7.823,3.33,11.639.576,1.9,1.183,3.781,1.784,5.6a51.844,51.844,0,0,0,1.874,4.9c.144.314.287.592.359.729l0,.05a5.3,5.3,0,0,0-.553-.526,5.96,5.96,0,0,0-1.057-.7,6.709,6.709,0,0,0-2.662-.752c-.157-.011-.315-.016-.471-.016l-.26,0c-.159,0-.317.017-.475.036a6.643,6.643,0,0,0-.763.139c-.111.028-.22.059-.328.1l-.22.073c-.13.043-.319.132-.39.163-.755.382-.673.458-.6.39a9.552,9.552,0,0,0,1.341-1.281c.545-.6,1.119-1.292,1.691-2.012,2.305-2.918,4.615-6.234,6.863-9.568,4.529-6.7,8.944-13.639,13.6-20.487l0-.006a4.831,4.831,0,0,1,8.473,4.532c-3.137,7.731-6.607,15.322-10.518,22.839a128.805,128.805,0,0,1-6.544,11.282c-.642.952-1.31,1.908-2.082,2.905a25.237,25.237,0,0,1-2.905,3.224,12.277,12.277,0,0,1-3.149,2.128c-.186.091-.5.212-.751.3l-.4.138-.517.141a8.183,8.183,0,0,1-1.142.208c-.223.024-.446.042-.669.052l-.356.009q-.283,0-.568-.023a8.614,8.614,0,0,1-3.4-.98,9.494,9.494,0,0,1-1.692-1.141,11.85,11.85,0,0,1-1.608-1.657c-.367-.456-.642-.849-.887-1.217-.487-.733-.844-1.361-1.173-1.965a64.228,64.228,0,0,1-2.957-6.5c-.833-2.061-1.553-4.1-2.254-6.123-1.4-4.049-2.661-8.069-3.836-12.1-2.362-8.033-4.461-16.141-6.317-24.111l-.011-.046a8.056,8.056,0,0,1,15.567-4.127Z" transform="translate(-71.865 -63.145)" fill="#fac5ad"/>
        <path id="Trazado_170511" data-name="Trazado 170511" d="M1192.9,1064a1.9,1.9,0,0,1,.283,1.9c-.541,1.795-2.342,2.941-3.18,4.569a42.082,42.082,0,0,1-9.041,11.269c-5.08,4.248-9.8,4.02-15.368,1.677-3.934-1.653-6.792-6.183-9.013-9.6-1.319-2.032-7.561-10.481-4.35-12.064,4.041-1.992,9.139-1.43,12.677-4.442,2.317-1.972,2.852-4.662,3.283-7.517l.011-.152c.175-1.779.175-3.53.372-5.082l8.811.5-.1.124-.021.053c-.43.954-.457,5.255.312,8.988.02.073.028.161.049.249l.02.074a9.962,9.962,0,0,0,2.2,4.916c2.312,2.2,5.825,2.293,8.751,2.968C1189.859,1062.717,1192.008,1062.942,1192.9,1064Z" transform="translate(-62.124 -55.175)" fill="#fac5ad"/>
        <path id="Trazado_170512" data-name="Trazado 170512" d="M1181.884,1045.054l-.1.124-.021.053c-.43.954-.457,5.255.312,8.988.02.073.027.161.049.249l.02.074a35.243,35.243,0,0,1-4.484-1.569,14.966,14.966,0,0,1-4.756-3.1l-.2-.235c.175-1.779.175-3.53.372-5.082Z" transform="translate(-66.624 -55.175)" fill="#ed977d"/>
        <path id="Trazado_170513" data-name="Trazado 170513" d="M1150.956,1015.894a3.52,3.52,0,0,0-2.714.707,3.363,3.363,0,0,0-1.034,2.24,7.187,7.187,0,0,0,1.344,4.953,4.934,4.934,0,0,0,2.14,1.8l.182.014.053-.117c.2-2.018.407-4.035.6-6.052Z" transform="translate(-61.249 -49.133)" fill="#fac5ad"/>
        <path id="Trazado_170514" data-name="Trazado 170514" d="M1196.9,1011.046c-.843,14.673-7.423,26.912-23.728,25.993-16.665-.939-22.709-12.52-22.32-27.211s11.027-26.7,23.728-25.992C1189.251,984.645,1198.065,990.8,1196.9,1011.046Z" transform="translate(-62.021 -42.388)" fill="#fac5ad"/>
        <path id="Trazado_170515" data-name="Trazado 170515" d="M1201.541,999.575a39.414,39.414,0,0,1-.562,4.346c-.393,2.549-1.463,5.417-4.2,6.335a3.052,3.052,0,0,1-3.641-1.412,3.366,3.366,0,0,1-.318-1.169c-.134-1.082.28-2.361.069-3.359a22.566,22.566,0,0,1-7.375,4.433,4.282,4.282,0,0,1-2,.283c-1.813-.3-1.187-1.577-1.213-2.832q-2.394,1.676-4.874,3.226c-1.2.748-2.624,1.5-3.96,1.041a3.33,3.33,0,0,1-1.96-3.2,9.773,9.773,0,0,1,1.067-3.826l-7.035,3.138a21.829,21.829,0,0,0-5.359,3.018c-1.36,1.153-2.574,2.684-4.633,1.986-1.169-.4-1.371-1.4-2.129-2.237a4.833,4.833,0,0,0-2.712-1.3c-.627-.035-1.727-.434-3.315,1.461.415-.495-1-5.413-1.092-6.3-.2-1.963-.1-3.944-.25-5.882-.265-3.341.236-7.237,3-9.494,1.818-1.484,4.29-1.956,6.146-3.392,1.438-1.112,2.413-2.733,3.832-3.869,3.149-2.518,7.644-2.121,11.641-1.6a21.055,21.055,0,0,0,4.318.463c1.12-.093,2.254-.5,3.4-.584a10.166,10.166,0,0,1,8.127,2.2,7.977,7.977,0,0,0,1.723,1.291,9.236,9.236,0,0,0,3.4.339,7.84,7.84,0,0,1,7.17,7.72,7.46,7.46,0,0,0,.019,1.583,8.04,8.04,0,0,0,1.532,2.653A8.091,8.091,0,0,1,1201.541,999.575Z" transform="translate(-61.001 -41.29)" fill="#263443"/>
        <path id="Trazado_170516" data-name="Trazado 170516" d="M1197.007,1067.608c-4.917,2.275-3.848,8.249-3.011,12.746.411,2.2.526,4.49,1.024,6.674a47.573,47.573,0,0,0,2.138,5.6,49.032,49.032,0,0,1,2.673,12.959c.254,3.167-.139,6.414.266,9.532a34.073,34.073,0,0,0,2.762,8.834,176.206,176.206,0,0,0,8.459,17.218c1.462,2.606,3.206,5.361,6.017,6.376a8.564,8.564,0,0,0,6.674-.688,20.86,20.86,0,0,0,5.357-4.3c8.065-8.357,13.522-18.469,18.467-28.82a1.874,1.874,0,0,0,.266-1.036,1.807,1.807,0,0,0-.381-.775,29.957,29.957,0,0,0-9.434-8.495,1.631,1.631,0,0,0-1.192-.3,1.648,1.648,0,0,0-.751.594c-4.07,4.813-6.738,11.228-10.158,16.589-1.308,2.05-1.141-1.965-2.223-2.559a1.791,1.791,0,0,0-1.929.162,9.8,9.8,0,0,1-.7-3.558c-.572-6.946-3.243-13.241-4.734-19.975-.621-2.8-.47-5.855-.792-8.706a21.568,21.568,0,0,0-6.8-13.62C1205.755,1069.183,1201.38,1065.584,1197.007,1067.608Z" transform="translate(-70.955 -59.904)" fill="#bbabf5"/>
        <path id="Trazado_170517" data-name="Trazado 170517" d="M1140.7,1137.585c2.115-7.706,4.266-12.5,4.266-19.619,0-5.779-1.184-18.874-1.5-26.226a175.206,175.206,0,0,1-.144-22c.214-3.108,2.643-4.494,5.334-5.532a26.823,26.823,0,0,1,4.9-1.291c1.542-.264,2.992-.991,4.529-1.289a2.557,2.557,0,0,1,1.411,0c.727.286.87.977,1.227,1.567.489.808,1.116,1.556,1.676,2.319,1.157,1.577,2.323,3.15,3.511,4.7a119.338,119.338,0,0,0,7.661,9.171c.9.965,2.185,1.993,3.407,1.485,1.726-.716,2.253-4.191,2.755-5.774.918-2.894,1.449-5.89,2.165-8.835a2.732,2.732,0,0,1,.772-1.57,2.655,2.655,0,0,1,2.218-.2c1.994.432,4.652,1.375,6.135,2.875,4.04,4.089,4.422,8.914,4.609,14.531.493,14.781-3.675,31.04-2.241,43.893.52,4.669,2.061,8.974,3.53,13.337a3.069,3.069,0,0,1-.89,2.792c-.759.851-2.035.853-3.127,1.182-16.072,4.846-33.253,3.687-49.082-.9C1140.848,1141.33,1140,1140.129,1140.7,1137.585Z" transform="translate(-59.839 -58.747)" fill="#fff"/>
        <path id="Trazado_170518" data-name="Trazado 170518" d="M1140.559,1136.475c.568-2.537,1.173-5.064,1.905-7.557a43,43,0,0,0,2.054-12.131c0-5.779-1.183-18.874-1.5-26.226a175.179,175.179,0,0,1-.145-22c.214-3.108,2.785-4.992,5.476-6.031,3-1.158,6.192-.849,8.97-2.53,2.4-1.454,4.548-3.692,7.456-4.075-.254.574-.531,1.138-.771,1.719-1.521,3.672-1.311,7.527-1.123,11.4.215,4.451.4,8.9.509,13.358q.339,13.376-.007,26.758-.329,12.708-1.276,25.389c-.207,2.774-.436,5.549-.855,8.3a18.7,18.7,0,0,1-.679,3.8c-.426,1.077-1.138,1.129-2.352,1.09a97.486,97.486,0,0,1-17.925-2.256c-.75-.167-1.622-.452-1.844-1.187C1137.814,1142.187,1140.092,1138.558,1140.559,1136.475Z" transform="translate(-59.39 -57.568)" fill="#bbabf5"/>
        <path id="Trazado_170519" data-name="Trazado 170519" d="M1193.534,1119.146c-3.257.467-5.883-.662-9-1.331a12.1,12.1,0,0,0-8.111,1.019c-.116.056-.11.568.032.545,3.036-.52,5.571-1.132,8.641-.384,2.906.709,5.474,1.765,8.442.744C1193.692,1119.686,1193.688,1119.123,1193.534,1119.146Z" transform="translate(-67.39 -70.536)" fill="#e9e5f3"/>
        <path id="Trazado_170520" data-name="Trazado 170520" d="M1146.682,979.316a7.231,7.231,0,0,1-.826-.98c-2.274-3.25-.151-8.954,4.43-7.972a6.136,6.136,0,0,1-2.433-4.907,4.993,4.993,0,0,1,3.006-4.448,5.141,5.141,0,0,1,5.571,1.765,11.7,11.7,0,0,1,2.013-4.022,4.044,4.044,0,0,1,4.249-.9,5.171,5.171,0,0,1,3.339,3.163,10.708,10.708,0,0,1,.456,3.614,6.488,6.488,0,0,1,6.343,2.391,7.338,7.338,0,0,1,1.026,6.784c-.771,2.217-2.662,3.742-4.3,5.3a15.424,15.424,0,0,1-5.952,3.042,19.938,19.938,0,0,1-12.988-.415A11.46,11.46,0,0,1,1146.682,979.316Z" transform="translate(-60.78 -36.87)" fill="#263443"/>
        <path id="Trazado_170521" data-name="Trazado 170521" d="M1159.049,1009.673c2.621-3,7.6-2.77,9.577-6.821a6.846,6.846,0,0,0,.531-2.773c.527-4.5.266-6.938,4.087-9.152.166-.1.143-.824-.047-.764a7.286,7.286,0,0,0-4.885,6.97c-.036,2.1.858,3.576-.632,5.86a11.23,11.23,0,0,1-3.978,3.182c-1.845.992-3.723,1.266-4.771,3.182C1158.891,1009.434,1158.929,1009.81,1159.049,1009.673Z" transform="translate(-63.722 -43.725)" fill="#1e2e3a"/>
        <path id="Trazado_170522" data-name="Trazado 170522" d="M1151.337,1005.487c-1.187-3.719-2.91-8.361-.146-11.937,1.416-1.833,3.13-2.008,5.043-2.955,2.351-1.164,3.586-2.891,4.792-5.173.09-.169-.057-.936-.219-.665a13.407,13.407,0,0,1-3.526,4.445,28.244,28.244,0,0,1-3.563,1.57,6.966,6.966,0,0,0-3.523,3.565c-1.671,3.741-.394,7.785.926,11.413C1151.238,1006.07,1151.393,1005.664,1151.337,1005.487Z" transform="translate(-61.719 -42.576)" fill="#1e2e3a"/>
        <path id="Trazado_170523" data-name="Trazado 170523" d="M1159.993,965.541c-.825,2.5.676,6.646,3.89,5.845.219-.054.251-.6.043-.688-2.041-.9-4.009-2.276-3.527-4.8C1160.457,965.6,1160.171,965,1159.993,965.541Z" transform="translate(-63.902 -38.497)" fill="#1e2e3a"/>
        <path id="Trazado_170524" data-name="Trazado 170524" d="M1151.7,965.28c-1.007.067-1.017,1.8-.887,2.493a3.3,3.3,0,0,0,2.35,2.582c.3.087.245-.537.138-.668-.455-.558-.989-1.044-1.426-1.613-.6-.784-.43-1.241-.022-2.047C1151.919,965.889,1151.974,965.262,1151.7,965.28Z" transform="translate(-62.003 -38.488)" fill="#1e2e3a"/>
        <path id="Trazado_170525" data-name="Trazado 170525" d="M1150.669,979.917a3.545,3.545,0,0,1,2.506-3.281c1.278-.379,2.242.156,3.473.331.317.045.2-.744.107-.872-1.16-1.54-3.581-1.375-4.971-.208a4.555,4.555,0,0,0-1.495,4.136C1150.344,980.476,1150.661,980.272,1150.669,979.917Z" transform="translate(-61.898 -40.529)" fill="#1e2e3a"/>
        <path id="Trazado_170526" data-name="Trazado 170526" d="M1167.826,980.483c5.937-.437,11.516,3.279,17.217.665.1-.046.075-.508-.024-.486-3.117.692-5.288,1.1-8.453.294-2.935-.744-5.711-1.393-8.741-.85C1167.721,980.124,1167.73,980.489,1167.826,980.483Z" transform="translate(-65.582 -41.567)" fill="#1e2e3a"/>
        <path id="Trazado_170527" data-name="Trazado 170527" d="M1180.9,1004.969c4.735-2.339,4.49-8.225,3.452-12.626-.128-.543-.37.171-.32.43.842,4.345,1.033,9.247-3.172,11.878C1180.774,1004.7,1180.792,1005.021,1180.9,1004.969Z" transform="translate(-68.33 -44.143)" fill="#1e2e3a"/>
        <path id="Trazado_170528" data-name="Trazado 170528" d="M1192.839,1007.97c4.458-2.776,6.354-10.321,1.217-13.523-.219-.137-.236.575-.085.7,4.388,3.817,2.53,9.044-1.2,12.474C1192.7,1007.686,1192.729,1008.038,1192.839,1007.97Z" transform="translate(-70.841 -44.624)" fill="#1e2e3a"/>
        <path id="Trazado_170529" data-name="Trazado 170529" d="M1209.852,1010.32a9.517,9.517,0,0,0,.612-11.331c-.432-.659-1.023-1.154-1.492-1.772-1.4-1.851-1.438-4.184-.994-6.442.017-.081-.059-.5-.152-.271a8.067,8.067,0,0,0-.676,4.822,5.407,5.407,0,0,0,.98,1.968c.621.868,1.436,1.469,2,2.416,1.661,2.785,1.343,7.487-.393,10.183C1209.672,1010,1209.721,1010.488,1209.852,1010.32Z" transform="translate(-73.845 -43.784)" fill="#1e2e3a"/>
        <path id="Trazado_170530" data-name="Trazado 170530" d="M1181.359,1014.243a12.807,12.807,0,0,0,9.318-6.625c.051-.1.005-.651-.148-.462a19.645,19.645,0,0,1-9.2,6.647C1181.22,1013.843,1181.23,1014.259,1181.359,1014.243Z" transform="translate(-68.424 -47.295)" fill="#1e2e3a"/>
        <path id="Trazado_170531" data-name="Trazado 170531" d="M1155.763,1013.089c-1.977-3.61-.818-6.405,1.969-8.92.071-.065.067-.418-.075-.366-3.723,1.37-4.245,6.842-2.038,9.64C1155.752,1013.61,1155.812,1013.179,1155.763,1013.089Z" transform="translate(-62.752 -46.596)" fill="#1e2e3a"/>
        <path id="Trazado_170532" data-name="Trazado 170532" d="M1213.892,999.729c4.236,4.857,2.7,11.123-2.878,13.7-.191.088-.154.77.088.682a8.779,8.779,0,0,0,2.834-14.624Z" transform="translate(-74.664 -45.69)" fill="#263443"/>
        <path id="Trazado_170533" data-name="Trazado 170533" d="M1145.453,1008.914a9.745,9.745,0,0,0,.052-4.167c-.224-1.285-.734-2.552-.854-3.852-.373-4.024,1.19-5.215,3.625-7.19.067-.054.077-.371-.041-.318-6.949,3.109-2.3,9.9-2.985,15.356C1145.232,1008.881,1145.386,1009.184,1145.453,1008.914Z" transform="translate(-60.657 -44.403)" fill="#263443"/>
        <path id="Trazado_170534" data-name="Trazado 170534" d="M1184.45,1027.432a2.906,2.906,0,0,1,1.016-.192,2.246,2.246,0,0,1,.775.132,1.328,1.328,0,0,1,.99,1.211,1.379,1.379,0,0,1-.1.5,1.445,1.445,0,0,1-.761.812,2.786,2.786,0,0,1-1.189.231,4.5,4.5,0,0,1-.531-.032.353.353,0,1,0-.084.7,5.282,5.282,0,0,0,.615.038,3.5,3.5,0,0,0,1.493-.3,2.161,2.161,0,0,0,1.117-1.2,2.105,2.105,0,0,0,.146-.753,2.034,2.034,0,0,0-1.457-1.876,2.962,2.962,0,0,0-1.016-.174,3.6,3.6,0,0,0-1.266.237.354.354,0,0,0,.25.662Z" transform="translate(-68.997 -51.382)" fill="#ed977d"/>
        <path id="Trazado_170535" data-name="Trazado 170535" d="M1188.756,1036.632c.676-.032,1.282.086.913.992a5.614,5.614,0,0,1-1.529,2.346,5.212,5.212,0,0,1-3.385,1.265c-1.931-.033-4.562-.973-5.478-3.209-.252-.617-.708-1.708.353-1.663,1.812.077,3.62.234,5.432.309.9.038,1.811.058,2.717.036C1188.039,1036.7,1188.407,1036.648,1188.756,1036.632Z" transform="translate(-67.941 -53.451)" fill="#263443"/>
        <path id="Trazado_170536" data-name="Trazado 170536" d="M1179.757,1038.674c-.107,0-.2-.025-.3-.032.967,2.132,3.515,3.041,5.4,3.074a4.931,4.931,0,0,0,2.2-.522C1185.165,1039.014,1182.81,1038.689,1179.757,1038.674Z" transform="translate(-68.045 -53.931)" fill="#eb7276"/>
        <path id="Trazado_170537" data-name="Trazado 170537" d="M1186.423,1038.007a14.119,14.119,0,0,0,3.253-.409c.341-.876-.252-1-.92-.966-.348.016-.716.071-.977.077-.906.022-1.812,0-2.717-.036-1.812-.076-3.62-.233-5.432-.309-.756-.032-.74.51-.579,1.048A28.77,28.77,0,0,0,1186.423,1038.007Z" transform="translate(-67.942 -53.451)" fill="#fff"/>
        <path id="Trazado_170538" data-name="Trazado 170538" d="M1174.021,1024.294a1.727,1.727,0,1,1-1.676-2.084A1.911,1.911,0,0,1,1174.021,1024.294Z" transform="translate(-66.189 -50.472)" fill="#263443"/>
        <path id="Trazado_170539" data-name="Trazado 170539" d="M1172.3,1023.5a.572.572,0,1,1-.555-.691A.63.63,0,0,1,1172.3,1023.5Z" transform="translate(-66.305 -50.598)" fill="#fff"/>
        <path id="Trazado_170540" data-name="Trazado 170540" d="M1201.432,1024.51a1.727,1.727,0,1,1-1.676-2.084A1.912,1.912,0,0,1,1201.432,1024.51Z" transform="translate(-71.959 -50.518)" fill="#263443"/>
        <path id="Trazado_170541" data-name="Trazado 170541" d="M1199.715,1023.719a.572.572,0,1,1-.555-.69A.634.634,0,0,1,1199.715,1023.719Z" transform="translate(-72.074 -50.644)" fill="#fff"/>
        <path id="Trazado_170542" data-name="Trazado 170542" d="M1197.541,1016.931a7.384,7.384,0,0,1,1.732,0,13.98,13.98,0,0,1,1.649.266,15.117,15.117,0,0,1,1.608.442,5.934,5.934,0,0,1,1.559.747.316.316,0,0,1-.358.521l-.022-.016a5.523,5.523,0,0,0-1.392-.59,14.334,14.334,0,0,0-1.543-.36,9.669,9.669,0,0,0-3.083-.136l-.019,0a.443.443,0,0,1-.142-.874Z" transform="translate(-71.773 -49.35)" fill="#263443"/>
        <path id="Trazado_170543" data-name="Trazado 170543" d="M1173.425,1017.639a9.665,9.665,0,0,0-3.084-.025,14.107,14.107,0,0,0-1.558.279,5.414,5.414,0,0,0-1.42.516l-.023.013a.315.315,0,0,1-.331-.537,5.947,5.947,0,0,1,1.595-.666,14.952,14.952,0,0,1,1.628-.356,14.16,14.16,0,0,1,1.661-.18,7.4,7.4,0,0,1,1.727.093.443.443,0,0,1-.167.869l-.009,0Z" transform="translate(-65.395 -49.306)" fill="#263443"/>
        <path id="Trazado_170544" data-name="Trazado 170544" d="M1267.589,1101.335c2.574-2.583,5.377-4.877,8.029-7.37a4.679,4.679,0,0,0,1.191-1.49c.3-.7-.033-1.379-.856-1.342a2.44,2.44,0,0,0-.884.265c-1.24.557-3.733,2.356-4.81,2.866,1.016-1.411,3.346-3.639,4.293-5.095.527-.811,1.712-2.169,1.375-3.163-.469-1.386-1.982-.685-2.7.039a25.643,25.643,0,0,0-2.286,2.721c-.755.983-2.113,3.031-3.152,4.25.624-1.495,1.927-3.874,2.556-5.368.309-.734.6-1.475.861-2.228a2.391,2.391,0,0,0,.1-1.971c-.532-.912-1.478-.417-2.024.164a35.464,35.464,0,0,0-2.462,3.379c.268-.816.465-3.038-.577-3.452-.833-.332-1.815.509-2.179,1.206-1.415,2.708-2.469,5.509-3.782,8.257a16.413,16.413,0,0,0,.153-2.943,6.5,6.5,0,0,0-.528-2.435c-.218-.475-.588-.985-1.111-.972a1.007,1.007,0,0,0-.785.5,2.958,2.958,0,0,0-.329.909c-.464,1.907-.868,3.841-1.39,5.731-.474,1.717-.564,3.481-.93,5.221a19.584,19.584,0,0,0-.849,2.582c-.067,1.239,1.7,1.982,2.582,2.5a29.693,29.693,0,0,0,4.976,2.347,1,1,0,0,0,.6.084.944.944,0,0,0,.395-.271c1.431-1.392,2.665-3.03,4.071-4.464Z" transform="translate(-83.845 -63.257)" fill="#fac5ad"/>
        <path id="Trazado_170545" data-name="Trazado 170545" d="M1261.964,1096.9a9.659,9.659,0,0,1-.889,6.526c-.023.053,0,.376.087.263,1.469-1.838,1.53-4.761.891-6.917C1262.006,1096.614,1261.946,1096.825,1261.964,1096.9Z" transform="translate(-85.225 -66.155)" fill="#f6aa90"/>
        <path id="Trazado_170546" data-name="Trazado 170546" d="M1264.786,1103.063a14.515,14.515,0,0,1,1.316-.814c.474-.251.988-.4,1.456-.668.08-.045.087-.441-.023-.433a5.026,5.026,0,0,0-2.788,1.551C1264.684,1102.761,1264.7,1103.123,1264.786,1103.063Z" transform="translate(-85.992 -67.089)" fill="#f6aa90"/>
        <path id="Trazado_170547" data-name="Trazado 170547" d="M1254.787,1107.937c.861.658,1.994,1.646,3.122,1.713.124.007.073-.322.02-.371a18.6,18.6,0,0,0-3.089-1.828C1254.706,1107.371,1254.677,1107.853,1254.787,1107.937Z" transform="translate(-83.889 -68.414)" fill="#f6aa90"/>
        <path id="Trazado_170548" data-name="Trazado 170548" d="M1269.206,1088.673c-.612,1.449-1.234,2.9-1.79,4.372l.052.148a18.072,18.072,0,0,0,1.884-4.266C1269.38,1088.835,1269.292,1088.468,1269.206,1088.673Z" transform="translate(-86.562 -64.45)" fill="#f6aa90"/>
        <path id="Trazado_170549" data-name="Trazado 170549" d="M1182.171,972.668a30.923,30.923,0,0,0-18.366,1.9,25.085,25.085,0,0,0-11.695,11.063,44.091,44.091,0,0,0-4.724,14.878,2.851,2.851,0,0,0,2.278,3.283,2.713,2.713,0,0,0,.441.037,2.787,2.787,0,0,0,2.713-2.409,38.434,38.434,0,0,1,4.052-12.919,19.506,19.506,0,0,1,9.024-8.635,25.969,25.969,0,0,1,11.263-2.065,3.7,3.7,0,0,1,.62-.2,10.093,10.093,0,0,1,9,2.164l.03.013A5.414,5.414,0,0,0,1189,981.1c1.176.433,1.829.113,2.92.207a6.875,6.875,0,0,1,2.746.73,9.232,9.232,0,0,1,2.2,1.746l.2.131C1193.41,977.548,1188.805,974.07,1182.171,972.668Z" transform="translate(-61.288 -39.912)" fill="#ec7974"/>
        <path id="Trazado_170550" data-name="Trazado 170550" d="M1157.786,990.429a5.212,5.212,0,0,0-1.609-1.225,15.8,15.8,0,0,0-3.342-1.456.716.716,0,0,0-.409-.058c-.212.055-.326.278-.413.478-2.2,5.06-4.36,10.227-5.208,15.7-.242,1.562,1.238,2.967,2.738,3.219a2.711,2.711,0,0,0,.441.037c3,0,2.807-2.795,3.577-6.25a26.606,26.606,0,0,1,1.855-5.289,46.929,46.929,0,0,1,2.4-4.592A.52.52,0,0,0,1157.786,990.429Z" transform="translate(-61.167 -43.203)" fill="#e96866"/>
        <path id="Trazado_170551" data-name="Trazado 170551" d="M1140.954,1024.041c.434,2.733,1.46,4.835,4.225,5.885a7.9,7.9,0,0,0,8.594-2.48c2.025-2.529,2.219-5.909,2.165-9.052-.044-2.557-.279-5.311-2.037-7.24a8.065,8.065,0,0,0-8.913-2.009c-4.71,1.913-4.642,10.252-4.11,14.364C1140.9,1023.69,1140.926,1023.867,1140.954,1024.041Z" transform="translate(-59.873 -47.6)" fill="#ec7974"/>
        <path id="Trazado_170552" data-name="Trazado 170552" d="M1145.179,1030.075c.116.044.234.078.351.115l.133,0c4.541.176,5.96-6.265,6.239-9.82.423-5.388-2.082-10.594-6.854-11.1l-.062.022c-4.71,1.913-4.642,10.252-4.11,14.364q.035.27.077.531C1141.388,1026.922,1142.414,1029.025,1145.179,1030.075Z" transform="translate(-59.873 -47.748)" fill="#ef8983"/>
        <path id="Trazado_170553" data-name="Trazado 170553" d="M1138.136,1024.1a7.528,7.528,0,0,0,3.692,4.873,5.216,5.216,0,0,0,6.247-1.97c1.449-2.091,1.55-4.915,1.472-7.544-.063-2.139-.268-4.445-1.574-6.08a5.353,5.353,0,0,0-8.872.232C1137.089,1016.642,1137.1,1020.629,1138.136,1024.1Z" transform="translate(-59.203 -48.142)" fill="#ec7974"/>
        <path id="Trazado_170554" data-name="Trazado 170554" d="M1143.434,1024.64c5.854,5.34,14.9,9.093,23.729,10.575a.905.905,0,0,0,.3-1.786c-8.532-1.42-17.338-5.115-22.8-10.126a.906.906,0,1,0-1.222,1.337Z" transform="translate(-60.401 -50.652)" fill="#e96866"/>
        <path id="Trazado_170555" data-name="Trazado 170555" d="M1172.231,1037.324a1.082,1.082,0,0,0,.1.868,1.128,1.128,0,0,0,.61.318,23.931,23.931,0,0,0,4.659.835.952.952,0,0,0,.579-.08.9.9,0,0,0,.326-.606c.106-.482.456-1.7.055-2.118a1,1,0,0,0-.523-.215,30.7,30.7,0,0,0-4.729-.8c-1-.04-.935,1.01-1.071,1.75Z" transform="translate(-66.516 -53.276)" fill="#e96866"/>
        <path id="Trazado_170556" data-name="Trazado 170556" d="M1201.776,997.174c.7-2.3,1.13-5.143.289-7.48-1.4-3.9-7.118-2.375-8.071-6.449-.077-.332-.279-.028-.275.162a3.56,3.56,0,0,0,2.348,3.381c1.073.5,2.283.644,3.365,1.129,1.525.684,2.417,3.115,2.65,4.7a12.921,12.921,0,0,1-.508,4.307C1201.537,997.083,1201.68,997.489,1201.776,997.174Z" transform="translate(-71.048 -42.238)" fill="#1e2e3a"/>
        <path id="Trazado_170557" data-name="Trazado 170557" d="M1160.579,994.591c1.3-1.609,2.3-3.4,3.527-5.055a17.634,17.634,0,0,1,4.228-3.887c.1-.068.117-.57-.032-.533-3.913.962-5.9,6.071-7.82,9.109C1160.427,994.313,1160.463,994.735,1160.579,994.591Z" transform="translate(-64.047 -42.663)" fill="#1e2e3a"/>
        <path id="Trazado_170558" data-name="Trazado 170558" d="M1205.122,1132.335q1.037,3.655,2.38,7.215c.6,1.6,2.386,5.726-.423,6.228-4.6.824-9.2,1.646-13.856,2.069-1.762.159-3.838.091-3.845-1.975-.009-2.492.033-5.009.146-7.5.234-5.144.8-10.264,1.34-15.384.392-3.734.773-7.47,1-11.218.219-3.651.8-7.166,1.325-10.793a86.889,86.889,0,0,0-1.166-31.787,11.055,11.055,0,0,0-.97-2.882c-.975-1.775-2.76-2.794-4.093-4.249a8.659,8.659,0,0,1-1.622-2.466c-.124-.294-.546-2.635-.627-2.669l2.975,1.313a13.9,13.9,0,0,1,3.508,1.976c1.259,1.076,2.185,2.636,3.74,3.207,1.851.681,4.224.978,5.672,2.444,4.04,4.089,5.317,9.674,5.5,15.289a86.049,86.049,0,0,1-.755,13.238c-1.34,11.023-3.937,22.161-1.432,33.235Q1204.457,1130,1205.122,1132.335Z" transform="translate(-69.152 -57.779)" fill="#bbabf5"/>
        <path id="Trazado_170559" data-name="Trazado 170559" d="M1149.87,1085.155c-2.076,7.922-4.383,15.489-6.649,23.124l-3.38,11.375-1.619,5.641c-.511,1.858-1.022,3.739-1.423,5.469l-.282,1.251-.089.486-.049.243c-.014.027-.047.352-.014-.137a4.9,4.9,0,0,0-.345-1.858,3.831,3.831,0,0,0-.354-.7,3.552,3.552,0,0,0-.336-.466c-.421-.474-.583-.5-.573-.481a4.592,4.592,0,0,0,1.236.627,23.413,23.413,0,0,0,2.244.708,86.4,86.4,0,0,0,10.915,1.9c3.814.479,7.7.834,11.609,1.124,3.91.321,7.837.545,11.8.8h.01a4.712,4.712,0,0,1-.01,9.405c-8.013.5-16.088.751-24.32.5a90.937,90.937,0,0,1-12.745-1.214c-1.128-.209-2.286-.46-3.525-.817a18.466,18.466,0,0,1-4.221-1.762,10.859,10.859,0,0,1-2.845-2.4,8.87,8.87,0,0,1-1.446-2.445,8.626,8.626,0,0,1-.584-3.321,7.593,7.593,0,0,1,.057-.879l.054-.5.115-.992.261-1.684c.361-2.176.772-4.168,1.189-6.181l1.3-5.937q1.325-5.894,2.751-11.705l2.838-11.6c.966-3.84,1.9-7.693,2.794-11.436l.013-.056a8.054,8.054,0,1,1,15.668,3.738Z" transform="translate(-56.134 -61.596)" fill="#fac5ad"/>
        <path id="Trazado_170560" data-name="Trazado 170560" d="M1142.662,1066.268c-2.015.234-3.7,1.575-5.23,3.384-4.114,4.855-7.709,10.883-8.485,17.3-.9,7.408-3.727,14.372-5.471,21.614a143.989,143.989,0,0,0-2.616,16.149c-.458,3.719-.85,7.769,1.12,10.957a11.909,11.909,0,0,0,3.56,3.488,26.405,26.405,0,0,0,8.437,3.592,66.251,66.251,0,0,0,11.8,1.529c5.4.344,10.8,1.531,16.23,1.011,3.441-.329,3.076-1.49,3.051-4.661q-.034-4.469-.291-8.93a1.982,1.982,0,0,0-.676-1.682,2.092,2.092,0,0,0-1.3-.121,34.091,34.091,0,0,1-7.594-.309c-3.415-.395-6.82-.837-10.231-1.254a.964.964,0,0,1-.444-.131c-.343-.244-.22-.766-.178-1.186a2.2,2.2,0,0,0-2.773-2.348c-.055-1.612,1.92-2.007,1.718-3.534-.164-1.243-1.134-2.157-1.375-3.4a10.264,10.264,0,0,1,.692-4.866q2.934-9.463,5.867-18.925c1.734-5.6,3.561-10.665,2.811-16.719-.42-3.4-1.937-8.976-5.429-10.439A6.31,6.31,0,0,0,1142.662,1066.268Z" transform="translate(-55.633 -59.739)" fill="#bbabf5"/>
        <path id="Trazado_170561" data-name="Trazado 170561" d="M1187.505,1159.3a35.728,35.728,0,0,0,9.792.254c1.434-.189,3.519-.37,4.772-1.149,1.071-.665.452-2.159-.72-2.3.809-.2,2.089-.422,2.4-1.333.3-.879-.892-2.156-1.832-1.752a2.868,2.868,0,0,0,1.419-1.14,1.464,1.464,0,0,0-.142-1.718,2.273,2.273,0,0,0-1.622-.445c1.2-1.266.878-2.631-.952-2.6a22.133,22.133,0,0,0-4.521.676h-.166l-.1-.133a7.037,7.037,0,0,0-1.031-1.907,2.738,2.738,0,0,0-1.581-1.025,3.287,3.287,0,0,0-1.231.132q-2.957.709-5.865,1.614a18.264,18.264,0,0,0-2.66.916,7.616,7.616,0,0,1-2.4.857c-.778.1-1.253.161-1.6.924-.447.992-.083,2.446.006,3.509a29.83,29.83,0,0,0,.767,4.677,1.006,1.006,0,0,0,.262.542.957.957,0,0,0,.445.178C1183.094,1158.531,1185.292,1158.977,1187.505,1159.3Z" transform="translate(-68 -76.258)" fill="#fac5ad"/>
        <path id="Trazado_170562" data-name="Trazado 170562" d="M1204.433,1155.681c-1.617.09-3.2.677-4.81.911-1.637.237-3.284.257-4.929.4-.129.012-.126.343,0,.356,2.974.324,7.1,0,9.75-1.506Z" transform="translate(-71.233 -78.568)" fill="#f6aa90"/>
        <path id="Trazado_170563" data-name="Trazado 170563" d="M1196.609,1160.845c2.269.276,5.449.337,7.528-.76.085-.045.092-.373-.025-.35a47.321,47.321,0,0,1-7.5.732C1196.477,1160.472,1196.479,1160.829,1196.609,1160.845Z" transform="translate(-71.636 -79.421)" fill="#f6aa90"/>
        <path id="Trazado_170564" data-name="Trazado 170564" d="M1204.411,1151.365c-1.411.225-2.793.573-4.195.86a23.134,23.134,0,0,0-3.83.85c-.1.039-.09.337.025.351a13.509,13.509,0,0,0,4.244-.641,21.234,21.234,0,0,0,3.779-1.091C1204.52,1151.658,1204.518,1151.348,1204.411,1151.365Z" transform="translate(-71.596 -77.659)" fill="#f6aa90"/>
        <path id="Trazado_170565" data-name="Trazado 170565" d="M1197.62,1149.09c-2.232.461-4.518.663-6.74,1.16v.189a29.347,29.347,0,0,0,6.739-1.244Z" transform="translate(-70.451 -77.181)" fill="#f6aa90"/>
        <path id="Trazado_170566" data-name="Trazado 170566" d="M1196.894,1067.014a65.419,65.419,0,0,1,4.962,9.468,21.34,21.34,0,0,1,1.53,3.988c.193,1.124.681.9-.141,1.746-.7.719-3.159.584-3.962.645-.344.026-.237.775-.055.921,2.789,2.226,4.289,3.117,3.409,6.993-.611,2.691-2.119,5.453-3.07,8.061a132.53,132.53,0,0,0-5.016,16.311c-.065.289.213,1,.373.438,1.247-4.374,2.474-8.732,3.968-13.031.911-2.621,1.885-5.219,2.881-7.809.68-1.768,2.455-4.562,2.508-6.434.015-.521.273-1,.024-1.5-.481-.956-1.951-1.405-2.657-2.153q-2.047-.855-.692-1.01,1.664-.185,3.307-.509a.267.267,0,0,0,.189-.225c.347-1.566-.967-3.778-1.493-5.17a60.319,60.319,0,0,0-5.8-11.474C1196.959,1065.957,1196.768,1066.81,1196.894,1067.014Z" transform="translate(-71.221 -59.733)" fill="#4b5fa7"/>
        <path id="Trazado_170567" data-name="Trazado 170567" d="M1161.053,1062.389c-.7,3.237-1.233,6.509-1.75,9.78-.256,1.618-1.8,5.553-.846,7.124.421.7,1.266.7,1.99,1.044,4.038,1.911.982,2.763-1.2,5.153a.808.808,0,0,0,0,.9c3.01,2.905,3.884,8.565,4.842,12.507,1.035,4.262,1.713,8.57,2.54,12.871.093.489.4.146.36-.2a109.968,109.968,0,0,0-3.242-16.142,51.83,51.83,0,0,0-2.2-6.828c-1.44-3.366-1.372-3.543,2.43-6.073a.683.683,0,0,0,0-.927c-1.039-.819-2.455-1.292-3.427-2.11q-2.263-.128-1.525-2.661.19-1.333.392-2.666c.582-3.857,1.29-7.691,1.883-11.545C1161.333,1062.441,1161.131,1062.025,1161.053,1062.389Z" transform="translate(-63.561 -58.899)" fill="#4b5fa7"/>
        <path id="Trazado_170568" data-name="Trazado 170568" d="M1162.97,1136.1a52.106,52.106,0,0,0-8.143-1.078c-2.464-.243-2.981-.088-4.314-2.3-.144-.238-.011-.356-.276-.684a27.232,27.232,0,0,0-2.355-1.685c-.269-1.017.576-.722.8-1.585.129-.49.1-1.01.2-1.477-.051.259-.805-8.48-.565-4.621a18.573,18.573,0,0,1,.649-6.727,121.339,121.339,0,0,0,3.113-17.357c.038-.374-.27-.823-.348-.231-.943,7.226-2.755,14.092-4.143,21.206-.705,3.609.874,7.323-1.01,10.619-.1.17-.192.759.1.815,3.147.607,2.793,3.318,5.184,4.514,2.71,1.356,8.235,1,11.115.8Z" transform="translate(-61.104 -66.44)" fill="#4b5fa7"/>
        <path id="Trazado_170569" data-name="Trazado 170569" d="M1207.973,1131.04c.754-8.08.93-16.237,1.461-24.335.5-7.567,1.324-15.142,1.59-22.72.009-.241-.2-.385-.244-.071a340.5,340.5,0,0,0-2.864,47.111Z" transform="translate(-74.035 -63.423)" fill="#4b5fa7"/>
        <path id="Trazado_170570" data-name="Trazado 170570" d="M1225.97,1135.163c-2.911,3.685-8.764,9.427-7.526,14.727.021.089.066.2.166.213,1.937.34,3.745-3.293,4.537-4.671a35.68,35.68,0,0,0,3.239-7.8c.028-.1-.055-.514-.159-.284-.874,1.932-1.531,3.954-2.47,5.858a25.52,25.52,0,0,1-1.774,3.1c-.743,1.085-1.168,2.259-2.4,1.664-1.8-.866,1.558-5.444,2.406-6.645,1.326-1.877,2.757-3.685,4.145-5.515C1226.253,1135.654,1226.152,1134.933,1225.97,1135.163Z" transform="translate(-76.217 -74.239)" fill="#4b5fa7"/>
        <path id="Trazado_170571" data-name="Trazado 170571" d="M1229.208,1138.429a38.5,38.5,0,0,0-3.84,16.726c0,.274.259.46.291.084a53.711,53.711,0,0,1,3.727-16.393C1229.444,1138.707,1229.344,1138.141,1229.208,1138.429Z" transform="translate(-77.71 -74.919)" fill="#4b5fa7"/>
        <path id="Trazado_170572" data-name="Trazado 170572" d="M1140.568,1139.554a52.242,52.242,0,0,0-9.622,2.706c-.763.321-1.99.912-1.525,2,.589,1.385,3.25.567,4.232.311a26.466,26.466,0,0,0,7.87-3.92l-.021-.205c-1.515.771-3.027,1.578-4.567,2.3-1.306.609-3.989,1.981-5.585,1.726q-1.072.5-.917-.628-.615-1.382,1.4-1.281c.863-.309,1.736-.6,2.607-.887,2.038-.681,4.1-1.285,6.131-2Z" transform="translate(-57.492 -75.173)" fill="#4b5fa7"/>
        <path id="Trazado_170573" data-name="Trazado 170573" d="M1142.477,1142.214c-2.74,2.988-6.455,5.483-7.943,9.4-.035.092.035.606.137.426,2.05-3.661,5.219-6.237,7.874-9.42C1142.616,1142.536,1142.537,1142.149,1142.477,1142.214Z" transform="translate(-58.588 -75.732)" fill="#4b5fa7"/>
        <path id="Trazado_170574" data-name="Trazado 170574" d="M968.148,1093.979c5.1,6.589,9.853,13.191,14.71,19.719,2.428,3.25,4.845,6.492,7.286,9.628,1.221,1.563,2.462,3.092,3.674,4.563a51.282,51.282,0,0,0,3.509,3.889c.247.241.48.448.6.549l.021.044a5.227,5.227,0,0,0-.7-.29,5.866,5.866,0,0,0-1.235-.27,6.711,6.711,0,0,0-2.747.26c-.15.046-.3.1-.444.155l-.24.1c-.146.062-.289.13-.43.2a6.851,6.851,0,0,0-.659.4c-.093.066-.184.135-.271.207l-.179.147c-.1.088-.249.238-.3.292-.565.627-.459.668-.413.577a9.382,9.382,0,0,0,.786-1.675c.293-.751.577-1.6.849-2.481,1.094-3.543,2.05-7.459,2.941-11.37,1.8-7.859,3.411-15.907,5.275-23.951l0-.008a4.819,4.819,0,0,1,9.513,1.166c-.136,8.321-.633,16.631-1.566,25.032a128.206,128.206,0,0,1-2.027,12.848c-.255,1.116-.532,2.247-.891,3.452a25.173,25.173,0,0,1-1.542,4.045,12.247,12.247,0,0,1-2.163,3.112c-.141.151-.39.379-.59.554l-.324.272-.431.318a8.011,8.011,0,0,1-.988.6c-.2.1-.4.2-.6.289l-.328.137c-.176.066-.355.128-.536.183a8.593,8.593,0,0,1-3.513.313,9.583,9.583,0,0,1-1.985-.454,11.934,11.934,0,0,1-2.091-.962c-.506-.294-.9-.56-1.264-.813-.716-.506-1.275-.962-1.8-1.406a63.78,63.78,0,0,1-5.091-4.986c-1.516-1.617-2.919-3.252-4.3-4.885-2.76-3.261-5.379-6.547-7.923-9.873-5.088-6.623-9.958-13.411-14.554-20.156l-.026-.039a8.035,8.035,0,0,1,13-9.442Z" transform="translate(-20.536 -64.925)" fill="#fac5ad"/>
        <path id="Trazado_170575" data-name="Trazado 170575" d="M945.409,1080.845c-3.756,3.886-.61,9.057,1.787,12.939,1.174,1.9,2.1,3.987,3.353,5.839a47.556,47.556,0,0,0,4,4.439,48.9,48.9,0,0,1,7.15,11.094c1.376,2.853,2.179,6.015,3.678,8.77a34.048,34.048,0,0,0,5.747,7.224,175.882,175.882,0,0,0,14.066,12.97c2.3,1.9,4.911,3.834,7.892,3.766a8.546,8.546,0,0,0,5.961-3.039,20.808,20.808,0,0,0,3.437-5.925c4.495-10.675,5.931-22.046,6.806-33.454a1.874,1.874,0,0,0-.125-1.06,1.826,1.826,0,0,0-.634-.584,29.885,29.885,0,0,0-11.833-4.506,1.628,1.628,0,0,0-1.218.146,1.646,1.646,0,0,0-.486.823c-2.054,5.942-2.227,12.869-3.479,19.088-.478,2.378-1.769-1.417-2.99-1.581a1.782,1.782,0,0,0-1.735.844,9.778,9.778,0,0,1-1.931-3.058c-3.031-6.255-6.54-10.473-10.35-16.2-1.585-2.382-3.786-5.953-5.111-8.49a25.284,25.284,0,0,0-11.194-10.641C954.428,1078.376,948.659,1077.482,945.409,1080.845Z" transform="translate(-18.412 -62.338)" fill="#472ea6"/>
        <path id="Trazado_170576" data-name="Trazado 170576" d="M1028.054,1073.577a2.642,2.642,0,0,0-.725.565c-.951.968-2.624,3.537-3.443,4.4.433-1.684,1.806-4.591,2.164-6.284.2-.951.809-2.634.141-3.443-.941-1.12-2.1.084-2.5,1.016a25.571,25.571,0,0,0-1.148,3.349c-.348,1.185-.875,3.584-1.4,5.089.037-1.618.395-4.3.442-5.908.027-.8.027-1.589,0-2.39a2.385,2.385,0,0,0-.612-1.862c-.828-.658-1.525.14-1.825.875a34.808,34.808,0,0,0-1.072,4.027c-.046-.847-.668-2.991-1.778-3-.9-.009-1.506,1.129-1.6,1.91-.339,3.029-.31,6.011-.546,9.041a15.857,15.857,0,0,0-.913-2.795,6.625,6.625,0,0,0-1.373-2.08,1.386,1.386,0,0,0-1.383-.5,1.02,1.02,0,0,0-.546.752,2.989,2.989,0,0,0,.019.959c.253,1.938.574,3.885.771,5.833.178,1.768.724,3.443,1.016,5.193a19.967,19.967,0,0,0,.131,2.7,1.459,1.459,0,0,0,.725.808l.01.009a8.619,8.619,0,0,0,2.578.583c.423.066.856.132,1.289.189a29.544,29.544,0,0,0,4.176.207,1.062,1.062,0,0,0,.593-.132,1.009,1.009,0,0,0,.264-.395c.837-1.815,1.392-3.782,2.182-5.617.085-.207.17-.4.263-.6,1.459-3.33,3.246-6.472,4.817-9.746a4.628,4.628,0,0,0,.564-1.815C1029.362,1073.766,1028.807,1073.248,1028.054,1073.577Z" transform="translate(-32.354 -60.083)" fill="#fac5ad"/>
        <path id="Trazado_170577" data-name="Trazado 170577" d="M1016.087,1085.475a9.579,9.579,0,0,1,1.55,6.405c-.005.089.075.332.13.128a8,8,0,0,0-1.629-6.749Z" transform="translate(-33.656 -63.744)" fill="#f6aa90"/>
        <path id="Trazado_170578" data-name="Trazado 170578" d="M1020.816,1089.974a11.536,11.536,0,0,1,.9-1.216c.35-.406.765-.74,1.12-1.138.057-.065.083-.487-.043-.424a5.4,5.4,0,0,0-2.061,2.483C1020.7,1089.742,1020.741,1090.089,1020.816,1089.974Z" transform="translate(-34.631 -64.15)" fill="#f6aa90"/>
        <path id="Trazado_170579" data-name="Trazado 170579" d="M1013.109,1098.382a6.819,6.819,0,0,0,3.516.468c.1-.026.113-.329.019-.369a15.651,15.651,0,0,0-3.537-.6C1012.971,1097.859,1012.963,1098.339,1013.109,1098.382Z" transform="translate(-33.007 -66.401)" fill="#f6aa90"/>
        <path id="Trazado_170580" data-name="Trazado 170580" d="M1020.082,1075.21c-.032,1.549-.092,3.1-.1,4.649,0,.083.066.132.084.024a21.277,21.277,0,0,0,.2-4.674C1020.252,1074.965,1020.087,1074.958,1020.082,1075.21Z" transform="translate(-34.475 -61.589)" fill="#f6aa90"/>
        <path id="Trazado_170581" data-name="Trazado 170581" d="M997.334,1133.412c-1.345,4.4-4.8,12.022-1.779,16.434l.1.058c1.744-.347,2.131-3.463,2.433-4.92a35.037,35.037,0,0,0,.441-9.648c-.021-.274-.189-.139-.2.063-.062,1.75-.017,3.5-.111,5.248a28.184,28.184,0,0,1-.3,3.095q-.2.975-.406,1.95-.154,3.263-1.589.884c-1.842-1.915-.459-5.288.2-7.674.472-1.709.982-3.409,1.476-5.111C997.672,1133.561,997.477,1132.946,997.334,1133.412Z" transform="translate(-29.081 -73.845)" fill="#4b5fa7"/>
        <path id="Trazado_170582" data-name="Trazado 170582" d="M1001.314,1135.656a38.216,38.216,0,0,0,2.443,17.028c.131.318.268-.251.229-.386a53.56,53.56,0,0,1-2.429-16.565C1001.565,1135.482,1001.336,1135.311,1001.314,1135.656Z" transform="translate(-30.525 -74.312)" fill="#4b5fa7"/>
        <path id="Trazado_170583" data-name="Trazado 170583" d="M946.864,1018.057a16.678,16.678,0,0,0,4.871-.355c1.254-.257,2.357-.338,3.179.931a5.943,5.943,0,0,1,.614,3.7,28.167,28.167,0,0,1-2.608,9.889,18.047,18.047,0,0,1-6.14,7.481c-3.755,2.417-9.918,3.737-14.361,3.481-5.575-.321-11.059.524-16.631,1.031-2.214.2-4.772.207-6.247-1.455-1.989-2.241-.783-6.168-2.8-8.385a17.02,17.02,0,0,0-1.757-1.431,6.5,6.5,0,0,1-2.292-4.829c-.031-2.324,1.6-3.68,2.126-5.737.617-2.414.553-4.948,1.034-7.387.531-2.694,4.186-2.026,6.475-1.913a58.74,58.74,0,0,1,8.967,1.419c2.278.472,4.556.935,6.871,1.183,2.25.242,4.451.087,6.708.276C938.92,1016.3,942.818,1017.71,946.864,1018.057Z" transform="translate(-9.786 -48.517)" fill="#263443"/>
        <path id="Trazado_170584" data-name="Trazado 170584" d="M952.693,1078.048a1.9,1.9,0,0,1,.282,1.9c-.54,1.789-2.336,2.932-3.172,4.556a41.966,41.966,0,0,1-9.018,11.239c-5.067,4.238-9.771,4.01-15.327,1.673-3.924-1.648-6.775-6.166-8.99-9.579-1.316-2.027-7.54-10.454-4.338-12.033,4.03-1.986,9.115-1.426,12.644-4.43,2.311-1.968,2.845-4.65,3.274-7.5l.011-.152c.174-1.776.175-3.52.372-5.069l8.786.5-.1.123-.021.054c-.429.951-.456,5.241.311,8.962.02.074.028.162.049.249l.019.075a9.944,9.944,0,0,0,2.194,4.9c2.306,2.2,5.81,2.288,8.727,2.96C949.661,1076.77,951.8,1076.993,952.693,1078.048Z" transform="translate(-11.582 -58.143)" fill="#fac5ad"/>
        <path id="Trazado_170585" data-name="Trazado 170585" d="M941.705,1059.153l-.1.123-.021.054c-.429.951-.456,5.241.311,8.962.02.074.028.162.049.249l.019.075a35.226,35.226,0,0,1-4.472-1.565,14.933,14.933,0,0,1-4.743-3.1l-.2-.234c.174-1.776.175-3.52.372-5.069Z" transform="translate(-16.071 -58.143)" fill="#ed977d"/>
        <path id="Trazado_170586" data-name="Trazado 170586" d="M910.859,1030.068a3.513,3.513,0,0,0-2.708.706,3.355,3.355,0,0,0-1.031,2.233,7.175,7.175,0,0,0,1.341,4.941,4.93,4.93,0,0,0,2.134,1.791l.182.013.052-.116c.2-2.012.406-4.024.6-6.036Z" transform="translate(-10.709 -52.117)" fill="#fac5ad"/>
        <path id="Trazado_170587" data-name="Trazado 170587" d="M956.684,1025.234c-.842,14.635-7.4,26.842-23.667,25.924-16.621-.937-22.65-12.487-22.262-27.14s11-26.626,23.667-25.926C949.054,998.9,957.845,1005.037,956.684,1025.234Z" transform="translate(-11.48 -45.389)" fill="#fac5ad"/>
        <path id="Trazado_170588" data-name="Trazado 170588" d="M962.827,1014.105c-1.044,3.312-4.483,5.5-7.184,7.374.129-1.3-1.2-2.348-2.495-2.481-2.034-.209-3.84.636-5.8,1.06a32.365,32.365,0,0,1-18.641-1.5,2.3,2.3,0,0,0-.965-.233,2.219,2.219,0,0,0-1.165.586l-5.811,4.569c-1.456,1.145-3.3,2.893-5.33,2.2-1.165-.395-1.367-1.4-2.122-2.23a4.815,4.815,0,0,0-2.7-1.295c-.625-.035-1.723-.433-3.306,1.457.414-.493-1-5.4-1.09-6.284-.194-1.957-.095-3.934-.248-5.866-.265-3.333.234-7.219,2.99-9.47,1.812-1.481,4.278-1.951,6.13-3.382,1.435-1.109,2.406-2.726,3.823-3.859,3.141-2.511,7.624-2.115,11.611-1.592a40.163,40.163,0,0,0,8.85.024c2.55-.229,5.291-.9,7.847-.733a2.792,2.792,0,0,1,2.008.789c1.084,1.292-.414,3.018-.9,4.255a34.49,34.49,0,0,1,9.059.725,7.662,7.662,0,0,1,3.557,1.512,3.065,3.065,0,0,1,.92,3.514c-.667,1.314-2.2,1.528-3.486,1.79a10.333,10.333,0,0,1,3.538,3,7.356,7.356,0,0,1,1.2,4.689A6.765,6.765,0,0,1,962.827,1014.105Z" transform="translate(-10.463 -44.202)" fill="#263443"/>
        <path id="Trazado_170589" data-name="Trazado 170589" d="M900.631,1151.444c2.109-7.687,4.253-12.465,4.253-19.568,0-5.765-1.179-18.826-1.5-26.158a174.766,174.766,0,0,1-.144-21.948c.214-3.1,3.02-4.183,5.7-5.219a27.794,27.794,0,0,1,5.062-.9c1.537-.262,2.428-1.674,3.96-1.971a2.543,2.543,0,0,1,1.407,0c1.119.44,1.589,2.308,2.564,3.067,4.658,3.63,11.865,6.032,17.436,2.823,1.225-.706,1.958-2.284,3.139-2.874,2.4-1.2,6.249,1.246,7.9,2.918,4.029,4.079,4.816,8.681,5,14.282.492,14.742-3.666,30.959-2.236,43.778.519,4.657,2.057,8.95,3.522,13.3a3.059,3.059,0,0,1-.888,2.784c-.757.851-2.03.853-3.119,1.181-16.031,4.832-33.167,3.677-48.954-.9C900.777,1155.179,899.933,1153.982,900.631,1151.444Z" transform="translate(-9.304 -61.706)" fill="#fff"/>
        <path id="Trazado_170590" data-name="Trazado 170590" d="M900.488,1150.336c.567-2.53,1.171-5.051,1.9-7.538a42.85,42.85,0,0,0,2.047-12.1c0-5.765-1.18-18.826-1.5-26.158a174.766,174.766,0,0,1-.144-21.948c.214-3.1,2.777-4.978,5.462-6.014,3-1.156,6.176-.847,8.947-2.523,2.367-2.4,3.855-4.066,7.436-4.066-.253.574-.529,1.137-.769,1.715-1.517,3.662-1.307,7.507-1.12,11.373.216,4.44.4,8.88.508,13.323q.339,13.342-.007,26.69-.328,12.674-1.273,25.322c-.207,2.766-.435,5.534-.853,8.278a18.533,18.533,0,0,1-.677,3.794c-.424,1.074-1.135,1.125-2.346,1.086a97.161,97.161,0,0,1-17.877-2.249c-.749-.167-1.619-.451-1.84-1.184C897.751,1156.033,900.023,1152.414,900.488,1150.336Z" transform="translate(-8.856 -60.53)" fill="#472ea6"/>
        <path id="Trazado_170591" data-name="Trazado 170591" d="M911.239,1019.69c-1.184-3.709-2.9-8.339-.146-11.906,1.412-1.828,3.122-2,5.03-2.947,2.345-1.161,3.576-2.884,4.78-5.159.089-.17-.057-.934-.219-.665a13.354,13.354,0,0,1-3.516,4.435,28.261,28.261,0,0,1-3.553,1.566,6.95,6.95,0,0,0-3.515,3.554c-1.667,3.732-.393,7.766.924,11.384C911.14,1020.271,911.295,1019.864,911.239,1019.69Z" transform="translate(-11.178 -45.577)" fill="#1e2e3a"/>
        <path id="Trazado_170592" data-name="Trazado 170592" d="M927.684,994.749c5.922-.434,11.486,3.271,17.172.663.1-.045.074-.507-.024-.485-3.108.691-5.275,1.095-8.431.294-2.927-.743-5.7-1.389-8.718-.849C927.58,994.391,927.589,994.756,927.684,994.749Z" transform="translate(-15.031 -44.57)" fill="#1e2e3a"/>
        <path id="Trazado_170593" data-name="Trazado 170593" d="M915.627,1025.168c-3.678-6.365,2.4-12.281,6.228-16.778.059-.069.034-.451-.074-.365-4.646,3.673-10.4,11.655-6.3,17.5C915.6,1025.684,915.684,1025.266,915.627,1025.168Z" transform="translate(-12.183 -47.483)" fill="#1e2e3a"/>
        <path id="Trazado_170594" data-name="Trazado 170594" d="M944.266,1041.577a2.91,2.91,0,0,1,1.014-.191,2.249,2.249,0,0,1,.773.131,1.324,1.324,0,0,1,.988,1.208,1.383,1.383,0,0,1-.1.5,1.441,1.441,0,0,1-.759.81,2.784,2.784,0,0,1-1.184.231,4.332,4.332,0,0,1-.531-.032.353.353,0,1,0-.084.7,5.3,5.3,0,0,0,.616.038,3.477,3.477,0,0,0,1.487-.3,2.149,2.149,0,0,0,1.114-1.194,2.082,2.082,0,0,0,.145-.752,2.028,2.028,0,0,0-1.452-1.871,2.971,2.971,0,0,0-1.014-.173,3.612,3.612,0,0,0-1.262.236.352.352,0,1,0,.248.66Z" transform="translate(-18.437 -54.36)" fill="#ed977d"/>
        <path id="Trazado_170595" data-name="Trazado 170595" d="M948.56,1050.753c.674-.031,1.28.085.911.989a5.585,5.585,0,0,1-1.526,2.34,5.2,5.2,0,0,1-3.376,1.262c-1.926-.032-4.551-.971-5.463-3.2-.252-.615-.707-1.7.351-1.659,1.808.077,3.61.234,5.418.309.9.039,1.806.058,2.71.037C947.846,1050.824,948.212,1050.769,948.56,1050.753Z" transform="translate(-17.385 -56.424)" fill="#263443"/>
        <path id="Trazado_170596" data-name="Trazado 170596" d="M939.585,1052.789c-.107,0-.2-.024-.3-.031.965,2.125,3.506,3.033,5.39,3.065a4.9,4.9,0,0,0,2.2-.52C944.979,1053.128,942.63,1052.8,939.585,1052.789Z" transform="translate(-17.489 -56.902)" fill="#eb7276"/>
        <path id="Trazado_170597" data-name="Trazado 170597" d="M946.233,1052.124a13.982,13.982,0,0,0,3.244-.408c.34-.873-.25-.992-.917-.962-.348.016-.714.071-.975.077-.9.021-1.807,0-2.71-.037-1.808-.075-3.61-.232-5.418-.309-.753-.031-.738.509-.577,1.045A28.666,28.666,0,0,0,946.233,1052.124Z" transform="translate(-17.385 -56.424)" fill="#fff"/>
        <path id="Trazado_170598" data-name="Trazado 170598" d="M933.863,1038.447a1.722,1.722,0,1,1-1.671-2.079A1.905,1.905,0,0,1,933.863,1038.447Z" transform="translate(-15.637 -53.452)" fill="#263443"/>
        <path id="Trazado_170599" data-name="Trazado 170599" d="M932.152,1037.657a.571.571,0,1,1-.553-.689A.631.631,0,0,1,932.152,1037.657Z" transform="translate(-15.752 -53.579)" fill="#fff"/>
        <path id="Trazado_170600" data-name="Trazado 170600" d="M961.2,1038.664a1.722,1.722,0,1,1-1.671-2.08A1.9,1.9,0,0,1,961.2,1038.664Z" transform="translate(-21.392 -53.498)" fill="#263443"/>
        <path id="Trazado_170601" data-name="Trazado 170601" d="M959.491,1037.873a.57.57,0,1,1-.553-.688A.629.629,0,0,1,959.491,1037.873Z" transform="translate(-21.507 -53.624)" fill="#fff"/>
        <path id="Trazado_170602" data-name="Trazado 170602" d="M957.323,1031.1a7.339,7.339,0,0,1,1.726,0,14.3,14.3,0,0,1,1.646.265,14.938,14.938,0,0,1,1.6.441,5.952,5.952,0,0,1,1.555.745.315.315,0,0,1-.357.519l-.023-.015a5.431,5.431,0,0,0-1.388-.587,14.065,14.065,0,0,0-1.538-.36,9.693,9.693,0,0,0-3.075-.137l-.019,0a.441.441,0,0,1-.142-.871Z" transform="translate(-21.206 -52.333)" fill="#263443"/>
        <path id="Trazado_170603" data-name="Trazado 170603" d="M933.269,1031.81a9.638,9.638,0,0,0-3.075-.026,14.034,14.034,0,0,0-1.554.279,5.409,5.409,0,0,0-1.416.514l-.023.014a.315.315,0,0,1-.331-.537,5.882,5.882,0,0,1,1.592-.663,14.747,14.747,0,0,1,1.624-.355,13.888,13.888,0,0,1,1.656-.179,7.327,7.327,0,0,1,1.723.093.441.441,0,0,1-.167.866h-.009Z" transform="translate(-14.845 -52.289)" fill="#263443"/>
        <path id="Trazado_170604" data-name="Trazado 170604" d="M951.626,996.186c.262.011.92.049,1.182.062.666.035,1.016.107,1.68.159.171.013.983.108,1.383.181a20.719,20.719,0,0,0-13.879-9.632,30.84,30.84,0,0,0-18.318,1.9,25.018,25.018,0,0,0-11.665,11.034,43.993,43.993,0,0,0-4.711,14.839A2.845,2.845,0,0,0,909.57,1018a2.71,2.71,0,0,0,.441.036,2.78,2.78,0,0,0,2.7-2.4,38.331,38.331,0,0,1,4.041-12.885,19.461,19.461,0,0,1,9-8.613,25.891,25.891,0,0,1,11.234-2.06,3.636,3.636,0,0,1,.618-.2,16.463,16.463,0,0,1,4.337-.263,25.046,25.046,0,0,1,4.994-.474c1.01.065,2.094.114,2.668.947.386.56.319,1.167-.062,2.26-.224.642-.674,1.137-.94,1.884C949.632,996.236,950.6,996.142,951.626,996.186Z" transform="translate(-10.748 -42.92)" fill="#ec7974"/>
        <path id="Trazado_170605" data-name="Trazado 170605" d="M917.671,1004.67a5.2,5.2,0,0,0-1.6-1.222,15.8,15.8,0,0,0-3.333-1.453.728.728,0,0,0-.408-.058c-.212.054-.325.277-.412.477-2.195,5.047-4.349,10.2-5.194,15.661-.241,1.557,1.236,2.958,2.731,3.21a2.707,2.707,0,0,0,.44.036c2.993,0,2.8-2.787,3.568-6.234a26.617,26.617,0,0,1,1.85-5.275,47.024,47.024,0,0,1,2.4-4.58A.517.517,0,0,0,917.671,1004.67Z" transform="translate(-10.628 -46.202)" fill="#e96866"/>
        <path id="Trazado_170606" data-name="Trazado 170606" d="M900.883,1038.2c.433,2.725,1.457,4.821,4.214,5.869a7.886,7.886,0,0,0,8.572-2.472c2.02-2.523,2.214-5.894,2.159-9.03-.043-2.55-.278-5.3-2.031-7.221a8.045,8.045,0,0,0-8.891-2c-4.7,1.907-4.63,10.225-4.1,14.326C900.83,1037.845,900.855,1038.021,900.883,1038.2Z" transform="translate(-9.338 -50.588)" fill="#ec7974"/>
        <path id="Trazado_170607" data-name="Trazado 170607" d="M905.1,1044.213c.115.044.233.078.35.115l.133,0c4.529.177,5.944-6.248,6.224-9.8.422-5.374-2.077-10.566-6.836-11.066l-.062.022c-4.7,1.907-4.63,10.225-4.1,14.326.023.18.048.356.076.531C901.316,1041.068,902.339,1043.164,905.1,1044.213Z" transform="translate(-9.338 -50.736)" fill="#ef8983"/>
        <path id="Trazado_170608" data-name="Trazado 170608" d="M898.073,1038.259a7.509,7.509,0,0,0,3.682,4.859,5.2,5.2,0,0,0,6.23-1.965c1.446-2.085,1.547-4.9,1.469-7.525-.063-2.133-.267-4.434-1.571-6.065a5.339,5.339,0,0,0-8.848.232C897.027,1030.816,897.04,1034.792,898.073,1038.259Z" transform="translate(-8.669 -51.128)" fill="#ec7974"/>
        <path id="Trazado_170609" data-name="Trazado 170609" d="M903.357,1038.793c5.839,5.327,14.862,9.069,23.667,10.548a.9.9,0,1,0,.3-1.781c-8.51-1.416-17.292-5.1-22.745-10.1a.9.9,0,1,0-1.219,1.333Z" transform="translate(-9.864 -53.632)" fill="#e96866"/>
        <path id="Trazado_170610" data-name="Trazado 170610" d="M932.078,1051.443a1.078,1.078,0,0,0,.1.865,1.117,1.117,0,0,0,.609.317,23.9,23.9,0,0,0,4.647.833.94.94,0,0,0,.578-.08.9.9,0,0,0,.324-.6c.106-.481.455-1.692.056-2.112a1,1,0,0,0-.522-.215,30.82,30.82,0,0,0-4.716-.8c-.994-.039-.933,1.008-1.068,1.746Z" transform="translate(-15.963 -56.248)" fill="#e96866"/>
        <path id="Trazado_170611" data-name="Trazado 170611" d="M964.882,1146.211q1.035,3.647,2.375,7.2c.6,1.6,2.38,5.71-.422,6.213-4.586.82-9.179,1.642-13.819,2.062-1.758.159-3.828.091-3.835-1.969-.009-2.486.033-5,.146-7.483.233-5.132.8-10.239,1.337-15.345.392-3.724.771-7.451.995-11.189.219-3.643.8-7.148,1.322-10.766a86.7,86.7,0,0,0-1.163-31.7,11.062,11.062,0,0,0-.968-2.875c-.973-1.77-2.753-2.786-4.083-4.238a8.624,8.624,0,0,1-1.618-2.46c-.272-.865-.353-1.786-.631-2.648a33.632,33.632,0,0,0,3.474.831c1.885.435,3.94.978,5.061,2.557,1.049,1.478.928,2.717,2.683,3.409,1.612.636,3.357.805,4.641,2.106,4.03,4.079,5.3,9.649,5.49,15.251a85.876,85.876,0,0,1-.753,13.2c-1.337,10.994-3.926,22.1-1.428,33.149Q964.22,1143.877,964.882,1146.211Z" transform="translate(-18.59 -60.744)" fill="#472ea6"/>
        <path id="Trazado_170612" data-name="Trazado 170612" d="M909.776,1099.149c-2.071,7.9-4.371,15.45-6.632,23.064l-3.371,11.347-1.615,5.626c-.509,1.853-1.018,3.73-1.419,5.455l-.281,1.248-.09.485-.048.242c-.014.027-.046.351-.014-.137a4.91,4.91,0,0,0-.343-1.853,3.915,3.915,0,0,0-.354-.7,3.531,3.531,0,0,0-.336-.464c-.42-.472-.581-.5-.572-.479a4.572,4.572,0,0,0,1.233.625,23.262,23.262,0,0,0,2.239.707,86.251,86.251,0,0,0,10.886,1.895c3.8.477,7.682.832,11.58,1.12,3.9.321,7.817.544,11.768.8h.01a4.7,4.7,0,0,1-.01,9.381c-7.993.5-16.046.75-24.257.5a90.815,90.815,0,0,1-12.712-1.211c-1.124-.208-2.279-.459-3.515-.816a18.432,18.432,0,0,1-4.21-1.758,10.772,10.772,0,0,1-2.837-2.388,8.875,8.875,0,0,1-1.442-2.44,8.591,8.591,0,0,1-.583-3.311,7.5,7.5,0,0,1,.058-.877l.053-.494.114-.99.261-1.679c.36-2.171.77-4.158,1.185-6.166l1.3-5.921q1.323-5.88,2.743-11.675l2.831-11.565c.965-3.831,1.9-7.673,2.787-11.406l.013-.056a8.033,8.033,0,1,1,15.627,3.727Z" transform="translate(-5.608 -64.548)" fill="#fac5ad"/>
        <path id="Trazado_170613" data-name="Trazado 170613" d="M902.586,1080.313c-2.009.233-3.688,1.57-5.217,3.375-4.1,4.841-7.689,10.854-8.464,17.255-.894,7.39-3.716,14.335-5.455,21.556a143.683,143.683,0,0,0-2.609,16.108c-.457,3.708-.848,7.749,1.117,10.927a11.885,11.885,0,0,0,3.552,3.479,26.376,26.376,0,0,0,8.415,3.584,66.139,66.139,0,0,0,11.771,1.524c5.386.343,10.773,1.528,16.188,1.009,3.433-.329,3.067-1.487,3.043-4.649q-.035-4.457-.29-8.907a1.976,1.976,0,0,0-.674-1.677,2.077,2.077,0,0,0-1.3-.121,33.992,33.992,0,0,1-7.573-.307c-3.407-.394-6.8-.835-10.205-1.252a.937.937,0,0,1-.442-.13c-.343-.244-.22-.764-.178-1.183a2.2,2.2,0,0,0-2.765-2.342c-.055-1.609,1.914-2,1.713-3.525-.164-1.24-1.131-2.151-1.371-3.389a10.243,10.243,0,0,1,.689-4.854q2.926-9.437,5.851-18.876c1.73-5.587,3.552-10.636,2.8-16.675-.419-3.39-1.931-8.953-5.415-10.412A6.291,6.291,0,0,0,902.586,1080.313Z" transform="translate(-5.108 -62.695)" fill="#472ea6"/>
        <path id="Trazado_170614" data-name="Trazado 170614" d="M956.677,1081.056a65.253,65.253,0,0,1,4.949,9.443,21.319,21.319,0,0,1,1.526,3.978c.193,1.12.679.9-.141,1.741-.7.719-3.152.583-3.951.644-.343.026-.237.774-.055.918,2.782,2.221,4.278,3.11,3.4,6.974-.609,2.685-2.114,5.44-3.062,8.04a132.179,132.179,0,0,0-5,16.269c-.065.287.212.994.371.437,1.243-4.362,2.468-8.71,3.958-13,.909-2.613,1.88-5.205,2.874-7.788.677-1.763,2.448-4.55,2.5-6.417.015-.52.272-1,.023-1.493-.478-.954-1.945-1.4-2.649-2.147q-2.042-.853-.692-1.008,1.661-.184,3.3-.508a.266.266,0,0,0,.188-.225c.346-1.561-.965-3.767-1.49-5.156a60.111,60.111,0,0,0-5.78-11.444C956.742,1080,956.552,1080.853,956.677,1081.056Z" transform="translate(-20.656 -62.689)" fill="#4b5fa7"/>
        <path id="Trazado_170615" data-name="Trazado 170615" d="M920.929,1076.443c-.7,3.228-1.229,6.492-1.746,9.754-.256,1.615-1.79,5.54-.844,7.105.419.694,1.262.7,1.984,1.042,4.028,1.906.98,2.755-1.192,5.14a.807.807,0,0,0,0,.9c3,2.9,3.874,8.542,4.829,12.474,1.033,4.251,1.709,8.548,2.534,12.838.093.487.4.145.359-.2a109.839,109.839,0,0,0-3.234-16.1,51.7,51.7,0,0,0-2.194-6.811c-1.435-3.356-1.368-3.534,2.425-6.057a.681.681,0,0,0,0-.924c-1.037-.817-2.449-1.289-3.418-2.1q-2.257-.129-1.521-2.654.188-1.331.392-2.66c.58-3.846,1.286-7.671,1.878-11.515C921.208,1076.494,921.008,1076.08,920.929,1076.443Z" transform="translate(-13.016 -61.858)" fill="#4b5fa7"/>
        <path id="Trazado_170616" data-name="Trazado 170616" d="M922.841,1149.959a52.227,52.227,0,0,0-8.122-1.075c-2.458-.242-2.974-.087-4.3-2.3-.144-.238-.011-.355-.275-.681a27.354,27.354,0,0,0-2.349-1.682c-.271-1.02.583-.713.8-1.58.121-.488.1-1.008.2-1.473-.051.258-.8-8.459-.563-4.609a18.515,18.515,0,0,1,.647-6.71,121.015,121.015,0,0,0,3.105-17.311c.038-.373-.269-.822-.347-.231-.941,7.208-2.747,14.055-4.132,21.151-.7,3.6.872,7.3-1.007,10.591-.1.171-.191.758.1.814,3.138.6,2.785,3.31,5.17,4.5,2.7,1.352,8.214,1,11.085.8Z" transform="translate(-10.565 -69.378)" fill="#4b5fa7"/>
        <path id="Trazado_170617" data-name="Trazado 170617" d="M967.654,1144.9c.047-15.754,2.457-31.224,3.042-46.918.009-.24-.2-.382-.243-.07-1.17,8.516-1.8,17.185-2.451,25.757-.531,7.046-1.033,14.2-.4,21.247Z" transform="translate(-23.387 -66.37)" fill="#4b5fa7"/>
        <path id="Trazado_170618" data-name="Trazado 170618" d="M900.5,1153.407a52.087,52.087,0,0,0-9.6,2.7c-.761.32-1.985.909-1.521,2,.587,1.382,3.242.564,4.221.309a26.366,26.366,0,0,0,7.85-3.91l-.021-.2c-1.512.769-3.019,1.575-4.555,2.29-1.3.607-3.978,1.975-5.571,1.722q-1.068.5-.914-.627-.613-1.379,1.393-1.277c.861-.309,1.732-.6,2.6-.886,2.034-.679,4.094-1.281,6.115-2Z" transform="translate(-6.962 -78.089)" fill="#4b5fa7"/>
        <path id="Trazado_170619" data-name="Trazado 170619" d="M902.4,1156.06c-2.733,2.981-6.439,5.468-7.923,9.379-.035.092.035.6.136.425,2.044-3.651,5.206-6.22,7.852-9.4C902.539,1156.382,902.461,1156,902.4,1156.06Z" transform="translate(-8.055 -78.646)" fill="#4b5fa7"/>
        <path id="Trazado_170620" data-name="Trazado 170620" d="M963.389,1007.141c-6.678.344-12.874-2.784-19.428-2.484-.119.005-.118.427,0,.447,6.12,1.032,13.231,3.646,19.427,2.39C963.485,1007.475,963.479,1007.137,963.389,1007.141Z" transform="translate(-18.455 -46.773)" fill="#1e2e3a"/>
        <path id="Trazado_170621" data-name="Trazado 170621" d="M933.476,1012.218c6.712,4.561,16.407,5.474,23.977,2.694.169-.062.143-.689,0-.659-8.888,1.859-15.45,1.015-23.965-2.126Z" transform="translate(-16.266 -48.349)" fill="#1e2e3a"/>
        <path id="Trazado_170622" data-name="Trazado 170622" d="M970.972,1022.939a6.626,6.626,0,0,0,4.274-6.35c-.024-.287-.264-.543-.343-.119a8.032,8.032,0,0,1-4.024,5.608C970.683,1022.193,970.715,1023.04,970.972,1022.939Z" transform="translate(-24.113 -49.216)" fill="#1e2e3a"/>
        <path id="Trazado_170623" data-name="Trazado 170623" d="M921.367,1026.417c1.288-.808,2.166-2.557,2.9-3.849a18.033,18.033,0,0,0,1.873-4.272c.038-.145-.057-.791-.245-.441-.808,1.5-1.4,3.076-2.276,4.544-.744,1.246-1.7,2.385-2.339,3.685C921.252,1026.134,921.242,1026.495,921.367,1026.417Z" transform="translate(-13.695 -49.534)" fill="#1e2e3a"/>
        <path id="Trazado_170624" data-name="Trazado 170624" d="M926.294,1002.755c1.822-.039,3.611-.532,5.429-.687s3.629-.061,5.444-.082c.136,0,.116-.452,0-.493-3.278-1.148-7.723-.58-10.9.778C926.162,1002.314,926.162,1002.757,926.294,1002.755Z" transform="translate(-14.733 -45.981)" fill="#1e2e3a"/>
        <path id="Trazado_170625" data-name="Trazado 170625" d="M976.051,1175.354l19.066-2.146v4.692H976.051Z" transform="translate(-25.228 -82.258)" fill="#354054"/>
        <rect id="Rectángulo_35841" data-name="Rectángulo 35841" width="38.907" height="4.692" transform="translate(969.888 1090.95)" fill="#263443"/>
        <path id="Trazado_170626" data-name="Trazado 170626" d="M1049.145,1178.14h33.833a5.011,5.011,0,0,0-4.725-3.935h-24.382a5.011,5.011,0,0,0-4.726,3.935Z" transform="translate(-40.615 -82.467)" fill="#263443"/>
        <path id="Trazado_170627" data-name="Trazado 170627" d="M1014.151,1147.9h79.7a3.669,3.669,0,0,0,3.554-2.753l12.221-47.356a3.671,3.671,0,0,0-3.554-4.588h-79.7a3.671,3.671,0,0,0-3.554,2.753L1010.6,1143.31A3.671,3.671,0,0,0,1014.151,1147.9Z" transform="translate(-32.475 -65.416)" fill="#263443"/>
        <path id="Trazado_170628" data-name="Trazado 170628" d="M1010.6,1143.31l12.221-47.356a3.671,3.671,0,0,1,3.554-2.753h79.7a3.668,3.668,0,0,1,3.558,2.781,3.643,3.643,0,0,0-1.555-.348h-79.7a3.669,3.669,0,0,0-3.554,2.753l-12.221,47.356a3.638,3.638,0,0,0,0,1.807A3.67,3.67,0,0,1,1010.6,1143.31Z" transform="translate(-32.475 -65.416)" fill="#354054"/>
        <path id="Trazado_170629" data-name="Trazado 170629" d="M1069.073,1123.091a5.976,5.976,0,1,0,5.976-5.976A5.976,5.976,0,0,0,1069.073,1123.091Z" transform="translate(-44.81 -70.45)" fill="#354054"/>
        <path id="Trazado_170630" data-name="Trazado 170630" d="M1101.115,1147.091q-.554,1.857-1.055,3.729a.51.51,0,1,0,.985.264q.5-1.859,1.047-3.7a.51.51,0,1,0-.977-.291Z" transform="translate(-51.329 -76.683)" fill="#1f2b39"/>
        <path id="Trazado_170631" data-name="Trazado 170631" d="M1096.909,1147.092q-.554,1.856-1.055,3.729a.51.51,0,0,0,.986.264q.5-1.859,1.046-3.7a.51.51,0,1,0-.977-.291Z" transform="translate(-50.444 -76.683)" fill="#1f2b39"/>
        <path id="Trazado_170632" data-name="Trazado 170632" d="M1092.7,1147.092q-.553,1.856-1.055,3.729a.51.51,0,0,0,.986.264q.5-1.859,1.047-3.7a.51.51,0,0,0-.978-.291Z" transform="translate(-49.558 -76.683)" fill="#1f2b39"/>
        <path id="Trazado_170633" data-name="Trazado 170633" d="M1047.2,1147.092q-.553,1.856-1.054,3.729a.51.51,0,1,0,.985.264q.5-1.859,1.047-3.7a.51.51,0,0,0-.978-.291Z" transform="translate(-39.98 -76.683)" fill="#1f2b39"/>
        <path id="Trazado_170634" data-name="Trazado 170634" d="M1042.994,1147.092q-.553,1.856-1.055,3.729a.51.51,0,0,0,.985.264q.5-1.859,1.047-3.7a.51.51,0,1,0-.977-.291Z" transform="translate(-39.094 -76.683)" fill="#1f2b39"/>
        <path id="Trazado_170635" data-name="Trazado 170635" d="M1038.788,1147.092q-.554,1.856-1.055,3.729a.51.51,0,0,0,.986.264q.5-1.859,1.046-3.7a.51.51,0,1,0-.977-.291Z" transform="translate(-38.209 -76.683)" fill="#1f2b39"/>
        <rect id="Rectángulo_35842" data-name="Rectángulo 35842" width="13.505" height="11.577" transform="translate(1018.694 1081.126)" fill="#263443"/>
        <path id="Trazado_170636" data-name="Trazado 170636" d="M953.673,1177.836l-.082-.022c-.482-.142-.337-.706-.16-1.038a6.891,6.891,0,0,1,3.427-2.882,10.136,10.136,0,0,1,5.544-.512c2.328.44,5.063,1.724,5.68,4,.132.486-.794.544-1.338.535-3.092-.043-6.185.011-9.277.014-.672,0-1.343,0-2.014-.021A8.726,8.726,0,0,1,953.673,1177.836Z" transform="translate(-20.432 -82.258)" fill="#263443"/>
        <path id="Trazado_170637" data-name="Trazado 170637" d="M968.07,1178.446l.012.037c.132.486-.794.544-1.338.535-3.092-.043-6.185.011-9.277.014-.672,0-1.343,0-2.014-.021a8.726,8.726,0,0,1-1.78-.073l-.082-.022a.434.434,0,0,1-.325-.47Z" transform="translate(-20.432 -83.36)" fill="#354054"/>
        <path id="Trazado_170638" data-name="Trazado 170638" d="M967.852,1176.641a4.657,4.657,0,0,0-3.128-2.121c-.122-.005-.1.36-.021.408.52.317,1.091.539,1.608.873a9.134,9.134,0,0,1,1.443,1.237C967.9,1177.181,967.911,1176.73,967.852,1176.641Z" transform="translate(-22.826 -82.534)" fill="#1f2b39"/>
        <path id="Trazado_170639" data-name="Trazado 170639" d="M1183.844,1175.354l19.066-2.146v4.692h-19.066Z" transform="translate(-68.97 -82.258)" fill="#354054"/>
        <rect id="Rectángulo_35843" data-name="Rectángulo 35843" width="38.907" height="4.692" transform="translate(1133.94 1090.95)" fill="#263443"/>
        <path id="Trazado_170640" data-name="Trazado 170640" d="M1256.939,1178.14h33.834a5.012,5.012,0,0,0-4.726-3.935h-24.383A5.01,5.01,0,0,0,1256.939,1178.14Z" transform="translate(-84.356 -82.467)" fill="#263443"/>
        <path id="Trazado_170641" data-name="Trazado 170641" d="M1221.944,1147.9h79.7a3.67,3.67,0,0,0,3.554-2.753l12.221-47.356a3.671,3.671,0,0,0-3.554-4.588h-79.7a3.669,3.669,0,0,0-3.554,2.753l-12.221,47.356A3.67,3.67,0,0,0,1221.944,1147.9Z" transform="translate(-76.217 -65.416)" fill="#263443"/>
        <path id="Trazado_170642" data-name="Trazado 170642" d="M1218.389,1143.31l12.221-47.356a3.67,3.67,0,0,1,3.554-2.753h79.7a3.667,3.667,0,0,1,3.558,2.781,3.642,3.642,0,0,0-1.555-.348h-79.7a3.671,3.671,0,0,0-3.555,2.753l-12.22,47.356a3.639,3.639,0,0,0,0,1.807A3.67,3.67,0,0,1,1218.389,1143.31Z" transform="translate(-76.217 -65.416)" fill="#354054"/>
        <path id="Trazado_170643" data-name="Trazado 170643" d="M1276.867,1123.091a5.976,5.976,0,1,0,5.976-5.976A5.976,5.976,0,0,0,1276.867,1123.091Z" transform="translate(-88.551 -70.45)" fill="#354054"/>
        <path id="Trazado_170644" data-name="Trazado 170644" d="M1308.908,1147.092q-.553,1.856-1.054,3.729a.51.51,0,0,0,.986.264q.5-1.859,1.046-3.7a.51.51,0,1,0-.977-.291Z" transform="translate(-95.071 -76.683)" fill="#1f2b39"/>
        <path id="Trazado_170645" data-name="Trazado 170645" d="M1304.7,1147.091q-.554,1.857-1.055,3.729a.51.51,0,0,0,.986.264q.5-1.859,1.047-3.7a.51.51,0,0,0-.978-.291Z" transform="translate(-94.185 -76.683)" fill="#1f2b39"/>
        <path id="Trazado_170646" data-name="Trazado 170646" d="M1300.5,1147.092q-.553,1.856-1.055,3.729a.51.51,0,0,0,.986.264q.5-1.859,1.047-3.7a.51.51,0,0,0-.978-.291Z" transform="translate(-93.3 -76.683)" fill="#1f2b39"/>
        <path id="Trazado_170647" data-name="Trazado 170647" d="M1254.993,1147.091q-.553,1.857-1.055,3.729a.51.51,0,0,0,.986.264q.5-1.859,1.047-3.7a.51.51,0,1,0-.977-.291Z" transform="translate(-83.721 -76.683)" fill="#1f2b39"/>
        <path id="Trazado_170648" data-name="Trazado 170648" d="M1250.787,1147.092q-.553,1.856-1.054,3.729a.51.51,0,0,0,.986.264q.5-1.859,1.046-3.7a.51.51,0,0,0-.978-.291Z" transform="translate(-82.836 -76.683)" fill="#1f2b39"/>
        <path id="Trazado_170649" data-name="Trazado 170649" d="M1246.582,1147.092q-.553,1.856-1.055,3.729a.51.51,0,0,0,.986.264q.5-1.859,1.047-3.7a.51.51,0,0,0-.978-.291Z" transform="translate(-81.95 -76.683)" fill="#1f2b39"/>
        <rect id="Rectángulo_35844" data-name="Rectángulo 35844" width="13.505" height="11.577" transform="translate(1182.747 1081.126)" fill="#263443"/>
        <path id="Trazado_170650" data-name="Trazado 170650" d="M1161.466,1177.836l-.082-.022c-.481-.142-.336-.706-.159-1.038a6.89,6.89,0,0,1,3.427-2.882,10.136,10.136,0,0,1,5.544-.512c2.329.44,5.063,1.724,5.68,4,.132.486-.794.544-1.338.535-3.092-.043-6.185.011-9.276.014-.671,0-1.343,0-2.014-.021A8.735,8.735,0,0,1,1161.466,1177.836Z" transform="translate(-64.173 -82.258)" fill="#263443"/>
        <path id="Trazado_170651" data-name="Trazado 170651" d="M1175.863,1178.446l.013.037c.132.486-.794.544-1.338.535-3.092-.043-6.185.011-9.277.014-.671,0-1.343,0-2.014-.021a8.734,8.734,0,0,1-1.78-.073l-.082-.022a.434.434,0,0,1-.324-.47Z" transform="translate(-64.173 -83.36)" fill="#354054"/>
        <path id="Trazado_170652" data-name="Trazado 170652" d="M1175.646,1176.641a4.659,4.659,0,0,0-3.128-2.121c-.122-.005-.1.36-.021.408.52.317,1.09.539,1.608.873a9.137,9.137,0,0,1,1.443,1.237C1175.693,1177.181,1175.705,1176.73,1175.646,1176.641Z" transform="translate(-66.567 -82.534)" fill="#1f2b39"/>
        <rect id="Rectángulo_35845" data-name="Rectángulo 35845" width="399.998" height="52.54" transform="translate(856.205 1095.443)" fill="#e9e5f3"/>
        <rect id="Rectángulo_35846" data-name="Rectángulo 35846" width="399.998" height="13.641" transform="translate(856.205 1095.443)" fill="#fff"/>
        <path id="Trazado_170653" data-name="Trazado 170653" d="M963.794,1169.147a.922.922,0,0,0,.48-.179,1.04,1.04,0,0,0,.433-.668,2.8,2.8,0,0,0-1.232-1.759c-.189-.151-.377-.291-.537-.424a18.788,18.788,0,0,0-2.013-1.316,26.806,26.806,0,0,0-5.983-2.569,15.086,15.086,0,0,0-5.88-.7c-.3.027-.611.056-.931.1a73.625,73.625,0,0,0-7.366,1.478.954.954,0,0,0-.424.178.835.835,0,0,0-.216.5,23.928,23.928,0,0,0-.367,4.177v.066c-.009.941-.225,2.211.292,3.048.4.65.884.677,1.665.725a8.427,8.427,0,0,1,2.455.63,19.217,19.217,0,0,0,4.064.8c.545.075,1.091.169,1.618.282.357.085.723.159,1.082.235a50.741,50.741,0,0,0,5.475.837,3.44,3.44,0,0,0,1.2-.028.97.97,0,0,0,.771-.734c.057-.508-.48-.9-.969-1.176a15.721,15.721,0,0,0-3.274-1.28h-.009c-.414-.121-.827-.225-1.232-.338a11.045,11.045,0,0,1,1.843.131h.01a11.213,11.213,0,0,1,1.815.414,20.541,20.541,0,0,1,3.707,1.664c.9.527,2.446,1.731,3.378.639a1.1,1.1,0,0,0,.075-1.165,2.483,2.483,0,0,0-.32-.583,1.191,1.191,0,0,0,1.345-1.054C964.847,1170.257,964.264,1169.777,963.794,1169.147Z" transform="translate(-17.577 -79.79)" fill="#fac5ad"/>
        <path id="Trazado_170654" data-name="Trazado 170654" d="M966.764,1173.129a15.406,15.406,0,0,0-7.3-3.814l-.013.213a39.4,39.4,0,0,1,7.293,3.673Z" transform="translate(-21.735 -81.438)" fill="#f6aa90"/>
        <path id="Trazado_170655" data-name="Trazado 170655" d="M967.2,1169.46a17.792,17.792,0,0,0-7.427-4.134c-.108-.028-.12.31-.023.35a32.99,32.99,0,0,1,3.852,1.806,34.6,34.6,0,0,0,3.575,2.086Z" transform="translate(-21.784 -80.598)" fill="#f6aa90"/>
      </g>
    </g>
  </g>
</svg>
