<svg xmlns="http://www.w3.org/2000/svg" width="294" height="214.698" viewBox="0 0 294 214.698">
  <g id="Grupo_58134" data-name="Grupo 58134" transform="translate(-2895.479 -1348.541)">
    <g id="Grupo_58104" data-name="Grupo 58104" transform="translate(2895.478 1490.167)">
      <path id="Trazado_165933" data-name="Trazado 165933" d="M2916.889,1509.85a9.2,9.2,0,1,1-2.943-12.672A9.209,9.209,0,0,1,2916.889,1509.85Z" transform="translate(-2895.605 -1494.412)" fill="#e57c0a"/>
      <path id="Trazado_165934" data-name="Trazado 165934" d="M2916.693,1509.73a8.959,8.959,0,1,1-2.867-12.34A8.97,8.97,0,0,1,2916.693,1509.73Z" transform="translate(-2895.613 -1494.419)" fill="#e57c0a"/>
      <path id="Trazado_165935" data-name="Trazado 165935" d="M2913.043,1498.856a7.315,7.315,0,1,1-10.077,2.34A7.316,7.316,0,0,1,2913.043,1498.856Z" transform="translate(-2895.662 -1494.469)" fill="#fff"/>
      <path id="Trazado_165936" data-name="Trazado 165936" d="M2915.039,1508.722a6.935,6.935,0,1,1-2.218-9.552A6.942,6.942,0,0,1,2915.039,1508.722Z" transform="translate(-2895.673 -1494.48)" fill="#fff"/>
      <g id="Grupo_58099" data-name="Grupo 58099" transform="translate(6.963 4.059)">
        <path id="Trazado_165937" data-name="Trazado 165937" d="M2905.747,1510.3l-.656,1.054a.37.37,0,1,0,.627.391l.656-1.054a.37.37,0,1,0-.627-.391Z" transform="translate(-2902.717 -1498.884)" fill="#e57c0a"/>
        <path id="Trazado_165938" data-name="Trazado 165938" d="M2914.278,1508.323a.37.37,0,0,0,.119.509l1.054.657a.37.37,0,1,0,.391-.628l-1.054-.656A.37.37,0,0,0,2914.278,1508.323Z" transform="translate(-2902.981 -1498.827)" fill="#e57c0a"/>
        <path id="Trazado_165939" data-name="Trazado 165939" d="M2912.958,1498.725l-.656,1.054a.37.37,0,1,0,.628.391l.656-1.054a.37.37,0,1,0-.628-.391Z" transform="translate(-2902.925 -1498.551)" fill="#e57c0a"/>
        <path id="Trazado_165940" data-name="Trazado 165940" d="M2902.7,1501.111a.371.371,0,0,0,.118.51l1.054.656a.37.37,0,1,0,.391-.628l-1.054-.656A.371.371,0,0,0,2902.7,1501.111Z" transform="translate(-2902.647 -1498.619)" fill="#e57c0a"/>
      </g>
      <g id="Grupo_58100" data-name="Grupo 58100" transform="translate(6.447)">
        <rect id="Rectángulo_34756" data-name="Rectángulo 34756" width="2.103" height="1.889" rx="0.223" transform="translate(0 1.093) rotate(-31.312)" fill="#e57c0a"/>
      </g>
      <g id="Grupo_58101" data-name="Grupo 58101" transform="translate(1.758 8.383)">
        <rect id="Rectángulo_34757" data-name="Rectángulo 34757" width="2.103" height="1.889" rx="0.223" transform="translate(0 2.094) rotate(-84.837)" fill="#e57c0a"/>
      </g>
      <g id="Grupo_58102" data-name="Grupo 58102" transform="translate(0 0.927)">
        <rect id="Rectángulo_34758" data-name="Rectángulo 34758" width="2.56" height="1.469" rx="0.217" transform="matrix(0.529, -0.849, 0.849, 0.529, 2.334, 4.035)" fill="#e57c0a"/>
        <path id="Trazado_165941" data-name="Trazado 165941" d="M2899.795,1499.944a2.3,2.3,0,1,1,.769-1.232l.482.3a2.846,2.846,0,1,0-.767,1.233Z" transform="translate(-2895.478 -1495.326)" fill="#e57c0a"/>
        <path id="Trazado_165942" data-name="Trazado 165942" d="M2901.112,1500.109q.2-.318.417-.614l-1.283-.8-.624,1,1.267.79Q2900.995,1500.3,2901.112,1500.109Z" transform="translate(-2895.598 -1495.423)" fill="#e57c0a"/>
      </g>
      <g id="Grupo_58103" data-name="Grupo 58103" transform="translate(10.867 5.651)">
        <path id="Trazado_165943" data-name="Trazado 165943" d="M2909.687,1504.658a.674.674,0,1,1-.929.216A.674.674,0,0,1,2909.687,1504.658Z" transform="translate(-2906.726 -1500.316)" fill="#e57c0a"/>
        <path id="Trazado_165944" data-name="Trazado 165944" d="M2906.668,1500.19l2.813,4.8a.254.254,0,0,1-.438.256C2909.033,1505.228,2909.139,1505.453,2906.668,1500.19Z" transform="translate(-2906.668 -1500.19)" fill="#e57c0a"/>
        <path id="Trazado_165945" data-name="Trazado 165945" d="M2914.907,1504.651l-5.5.839a.254.254,0,1,1-.077-.5C2909.352,1504.985,2909.1,1505,2914.907,1504.651Z" transform="translate(-2906.739 -1500.319)" fill="#e57c0a"/>
        <path id="Trazado_165946" data-name="Trazado 165946" d="M2909.488,1505.009a.275.275,0,1,1-.38.087A.275.275,0,0,1,2909.488,1505.009Z" transform="translate(-2906.737 -1500.328)" fill="#e57c0a"/>
      </g>
    </g>
    <path id="Trazado_165947" data-name="Trazado 165947" d="M3166.188,1536.447a.623.623,0,0,0,.655.081,8.977,8.977,0,0,1,4.2-.208l2,5.175a8.954,8.954,0,0,1-3.25,2.669.627.627,0,0,0-.431.5l-.673,4.309a.626.626,0,0,0,.257.608,8.962,8.962,0,0,1,2.281,3.533l-3.483,4.319a8.968,8.968,0,0,1-3.936-1.48.628.628,0,0,0-.649-.123l-4.068,1.571a.629.629,0,0,0-.4.527,8.962,8.962,0,0,1-1.92,3.742l-5.481-.857a8.965,8.965,0,0,1-.687-4.149.624.624,0,0,0-.218-.623l-3.4-2.738a.625.625,0,0,0-.656-.081,8.971,8.971,0,0,1-4.2.209l-2-5.176a8.967,8.967,0,0,1,3.25-2.669.625.625,0,0,0,.431-.5l.673-4.309a.626.626,0,0,0-.258-.608,8.958,8.958,0,0,1-2.281-3.533l3.482-4.319a8.958,8.958,0,0,1,3.936,1.48.628.628,0,0,0,.65.123l4.068-1.571a.628.628,0,0,0,.4-.527,8.972,8.972,0,0,1,1.919-3.742l5.482.857a8.982,8.982,0,0,1,.687,4.149.623.623,0,0,0,.218.623Zm-11.567,3.331a5.464,5.464,0,1,0,7.066,3.129A5.465,5.465,0,0,0,3154.621,1539.778Zm-1.262-3.269a8.968,8.968,0,1,0,11.6,5.135A8.97,8.97,0,0,0,3153.359,1536.509Z" transform="translate(-7.054 -5.177)" fill="#5d5aae"/>
    <path id="Trazado_165948" data-name="Trazado 165948" d="M3193.231,1516.61a.639.639,0,0,0,.474.477,9.116,9.116,0,0,1,3.5,2.473l-1.652,5.4a9.139,9.139,0,0,1-4.28.1.636.636,0,0,0-.66.13l-3.248,3.028a.637.637,0,0,0-.175.649,9.112,9.112,0,0,1-.394,4.262l-5.5,1.271a9.146,9.146,0,0,1-2.223-3.659.635.635,0,0,0-.442-.506l-4.246-1.3a.636.636,0,0,0-.65.173,9.139,9.139,0,0,1-3.889,1.79l-3.853-4.13a9.133,9.133,0,0,1,2.058-3.755.638.638,0,0,0,.218-.636l-1-4.327a.636.636,0,0,0-.474-.476,9.139,9.139,0,0,1-3.5-2.473l1.651-5.4a9.141,9.141,0,0,1,4.281-.1.637.637,0,0,0,.659-.129l3.247-3.028a.637.637,0,0,0,.176-.65,9.116,9.116,0,0,1,.394-4.262l5.5-1.27a9.126,9.126,0,0,1,2.222,3.658.639.639,0,0,0,.443.507l4.246,1.3a.638.638,0,0,0,.65-.172,9.123,9.123,0,0,1,3.889-1.791l3.853,4.131a9.135,9.135,0,0,1-2.058,3.754.638.638,0,0,0-.217.636Zm-11.358-4.6a5.563,5.563,0,1,0,3.693,6.946A5.563,5.563,0,0,0,3181.873,1512.009Zm1.043-3.412a9.13,9.13,0,1,0,6.062,11.4A9.13,9.13,0,0,0,3182.917,1508.6Z" transform="translate(-7.722 -4.375)" fill="#f7971e"/>
    <path id="Trazado_165949" data-name="Trazado 165949" d="M3138.726,1474.807a1.194,1.194,0,0,0,1.043-.707c.907-2.036,4.039-4.51,5.776-5.578l9.379,4.929c.1,2.037-.156,6.02-1.319,7.921a1.2,1.2,0,0,0,.01,1.261l4.447,7.041a1.2,1.2,0,0,0,1.135.55c2.216-.232,5.924,1.243,7.719,2.213l.422,10.587c-1.712,1.11-5.292,2.876-7.519,2.819a1.194,1.194,0,0,0-1.088.638l-3.874,7.373a1.2,1.2,0,0,0,.09,1.258c1.31,1.8,1.887,5.752,1.943,7.792l-8.958,5.658c-1.817-.927-5.136-3.146-6.2-5.1a1.194,1.194,0,0,0-1.1-.622l-8.322.331a1.194,1.194,0,0,0-1.043.708c-.907,2.036-4.039,4.509-5.777,5.578l-9.378-4.929c-.106-2.037.155-6.02,1.317-7.922a1.2,1.2,0,0,0-.009-1.261l-4.447-7.042a1.2,1.2,0,0,0-1.135-.55c-2.216.233-5.924-1.242-7.719-2.213l-.421-10.587c1.712-1.109,5.292-2.875,7.519-2.819a1.194,1.194,0,0,0,1.088-.638l3.874-7.372a1.194,1.194,0,0,0-.091-1.258c-1.309-1.8-1.886-5.752-1.942-7.792l8.957-5.658c1.818.927,5.136,3.145,6.2,5.1a1.193,1.193,0,0,0,1.1.622Zm-12.443,19.326a10.435,10.435,0,1,0,14.091-4.382A10.435,10.435,0,0,0,3126.283,1494.134Zm-5.923-3.113a17.126,17.126,0,1,0,23.127-7.193A17.126,17.126,0,0,0,3120.36,1491.021Z" transform="translate(-6.004 -3.459)" fill="#fffbf3"/>
    <g id="Grupo_58108" data-name="Grupo 58108" transform="translate(2906.726 1443.562)">
      <g id="Grupo_58105" data-name="Grupo 58105" transform="translate(7.397 54.374)">
        <path id="Trazado_165950" data-name="Trazado 165950" d="M2917.738,1557.471s-.368,3.9-1.315,4.617-2.209,3.366-1.577,4.8a1.6,1.6,0,0,0,1.04.851,2.728,2.728,0,0,0,3.312-1.618,8.5,8.5,0,0,0,.65-2.975,11.111,11.111,0,0,1,1.089-4.78Z" transform="translate(-2914.676 -1503.96)" fill="#f9c38a"/>
        <path id="Trazado_165951" data-name="Trazado 165951" d="M2932.793,1559.115a34.2,34.2,0,0,1,.055,5.214c-.129.686-.852,2.095-.521,2.74a1.7,1.7,0,0,0,.71.806l8.588.144c.467.008.158-.306-.219-.594a17.16,17.16,0,0,0-3.088-1.778c-.128-.064-.6-.374-.765-.482a6.029,6.029,0,0,1-1.229-1.13c-.617-.715-.67-4.181-.67-4.181Z" transform="translate(-2915.182 -1504.007)" fill="#f9c38a"/>
        <path id="Trazado_165952" data-name="Trazado 165952" d="M2939.476,1505.219s1.082,6.39.372,10.58-4.118,43.019-4.118,43.019l-3.788.222s-.793-16.219-.652-18.475a36.156,36.156,0,0,1,1.266-6.031l-.377-13.1,4.778-17.2Z" transform="translate(-2915.155 -1502.425)" fill="#9683dd"/>
        <path id="Trazado_165953" data-name="Trazado 165953" d="M2927.944,1503.821s-2.982,4.673-3.692,8.539.521,15.751-.844,20.819c-.74,2.743-3.542,6.979-3.968,10.524s-2.1,12.83-2.1,12.83l3.786.781,8.8-23.188,6.9-20.96,1.769-10.794Z" transform="translate(-2914.753 -1502.371)" fill="#bbabf5"/>
        <path id="Trazado_165954" data-name="Trazado 165954" d="M2919.456,1565.6a4.168,4.168,0,0,1-4.151-1.805,4.3,4.3,0,0,0-.459,3.27,2.179,2.179,0,0,0,2.046,1.012,2.2,2.2,0,0,0,2.009-1.167A7.391,7.391,0,0,0,2919.456,1565.6Z" transform="translate(-2914.676 -1504.142)" fill="#353535"/>
        <path id="Trazado_165955" data-name="Trazado 165955" d="M2937.552,1565.337a7.481,7.481,0,0,1-4.889-.2,4.254,4.254,0,0,0-.394,2.128c.209.633.505.828.767.835,2.074.056,7.6.083,9.18.1a.271.271,0,0,0,.2-.443C2942.026,1567.274,2937.721,1565.445,2937.552,1565.337Z" transform="translate(-2915.182 -1504.181)" fill="#353535"/>
      </g>
      <path id="Trazado_165956" data-name="Trazado 165956" d="M2939.289,1469.1c-.671-4.373-4.628-7.518-8.766-5.4a9.812,9.812,0,0,0-2.833,2.271c-1.768,2.269-2.2,5.08-4.07,7.261-1.615,1.881-5.927,1.527-7.941,2.973a8.715,8.715,0,0,0-3.425,7.144c0,3.469.784,7.153,3.472,9.347a11.084,11.084,0,0,0,9.853,1.811,15.86,15.86,0,0,0,8.277-6,30.265,30.265,0,0,0,4.553-9.16A23.7,23.7,0,0,0,2939.289,1469.1Z" transform="translate(-2907.209 -1446.863)" fill="#353535"/>
      <path id="Trazado_165957" data-name="Trazado 165957" d="M2924,1474.556s-5.08-9.067-6.316-10.995-4.455-9.585-4.57-9.887,2.217-3.926,1.7-4.05-1.1,1.91-1.652,1.667-2.177-5.142-2.494-4.9c-.593.455.874,3.039.558,3.2s-1.272-2.843-1.892-2.754,1.179,2.755,1.005,2.99-2.04-2.276-2.378-1.741c-.184.291,1.717,2.193,1.352,2.372s-2.056-1.05-2.235-.7,1.564.838,2.085,1.793,1.408,1.367,1.777,3.136.919,8.166,2.806,11.357,6.04,10.256,6.04,10.256Z" transform="translate(-2907.06 -1446.383)" fill="#f9c38a"/>
      <g id="Grupo_58106" data-name="Grupo 58106" transform="translate(25.681 32.859)">
        <path id="Trazado_165958" data-name="Trazado 165958" d="M2939.1,1486.478l-4.072,2.34s7.728,10.173,8.172,10.637l3.252-2.876Z" transform="translate(-2933.547 -1480.398)" fill="#f9c38a"/>
        <path id="Trazado_165959" data-name="Trazado 165959" d="M2935.678,1480.217s3.16.6,7.1,10.357l-5.415,2.9-3.86-5.993Z" transform="translate(-2933.503 -1480.217)" fill="#e6e6e6"/>
        <path id="Trazado_165960" data-name="Trazado 165960" d="M2946.1,1480.879s-.715-.2-1.894.81c-1.456,1.254-1.538,10.876-1.156,14.24l.383,3.364a6.19,6.19,0,0,0,3.667-4.655c.7-3.613.966-13.007.966-13.007Z" transform="translate(-2933.772 -1480.236)" fill="#f9c38a"/>
      </g>
      <path id="Trazado_165961" data-name="Trazado 165961" d="M2930.358,1479.191s-3.98-.254-5.555,1.46,3.493,15.263,3.78,17.443-2.35,6.527-2.35,6.527,10.955,5.122,13.627,3.357c0,0-.428-17.472-.715-19.029s-2.673-7.89-3.246-8.513S2930.358,1479.191,2930.358,1479.191Z" transform="translate(-2907.563 -1447.328)" fill="#fffbf3"/>
      <path id="Trazado_165962" data-name="Trazado 165962" d="M2931.854,1473.722l-.058.316a30.055,30.055,0,0,1-1.322,4.995c-.559,1.053,1.909,4.409,4.285,4,.707-.121-.6-3.084-.535-3.4.121-.6.284-1.42.45-2.26.094-.474.189-.955.279-1.407.255-1.283.461-2.333.461-2.333Z" transform="translate(-2907.732 -1447.169)" fill="#f9c38a"/>
      <path id="Trazado_165963" data-name="Trazado 165963" d="M2931.834,1474.039l.058-.317,3.559-.088s-.207,1.05-.461,2.333l-.277,1.4a3.334,3.334,0,0,1-1.7-.85,4.485,4.485,0,0,1-1.288-1.911C2931.77,1474.38,2931.807,1474.187,2931.834,1474.039Z" transform="translate(-2907.771 -1447.169)" fill="#e5ac7a"/>
      <path id="Trazado_165964" data-name="Trazado 165964" d="M2934.248,1465.41a3.213,3.213,0,0,0-2.73,1.164c-1.052,1.358-2.185,5.555.427,7.837s5.194-.3,5.577-3.04S2938.054,1465.312,2934.248,1465.41Z" transform="translate(-2907.731 -1446.931)" fill="#f9c38a"/>
      <path id="Trazado_165965" data-name="Trazado 165965" d="M2938.489,1471.463c-.312.6-.835.94-1.169.749s-.351-.838-.04-1.443.835-.94,1.169-.748S2938.8,1470.858,2938.489,1471.463Z" transform="translate(-2907.925 -1447.063)" fill="#f9c38a"/>
      <path id="Trazado_165966" data-name="Trazado 165966" d="M2934.389,1464.947s-2.241,3.992-3.845,4.177-1.814,2.306-1.814,2.306.573-4.888,2.161-5.831A5.91,5.91,0,0,1,2934.389,1464.947Z" transform="translate(-2907.684 -1446.917)" fill="#353535"/>
      <path id="Trazado_165967" data-name="Trazado 165967" d="M2930.981,1470.249c.13.709-.132,1.359-.587,1.452s-.927-.406-1.058-1.115.132-1.36.586-1.453S2930.85,1469.54,2930.981,1470.249Z" transform="translate(-2907.701 -1447.039)" fill="#f9c38a"/>
      <path id="Trazado_165968" data-name="Trazado 165968" d="M2922.935,1472.366s5.619,6.03,6.454,8.461-.815,5.906-3.093,6.058-7.348-10.7-7.348-10.7Z" transform="translate(-2907.402 -1447.132)" fill="#fffbf3"/>
      <g id="Grupo_58107" data-name="Grupo 58107" transform="translate(34.694 34.311)">
        <path id="Trazado_165969" data-name="Trazado 165969" d="M2951.344,1481.713h-3.886a4.035,4.035,0,0,0-3.942,4.123v58.4h11.77v-58.4A4.035,4.035,0,0,0,2951.344,1481.713Z" transform="translate(-2942.805 -1481.713)" fill="#bbabf5"/>
        <rect id="Rectángulo_34759" data-name="Rectángulo 34759" width="4.568" height="62.523" transform="translate(4.311)" fill="#472ea6"/>
        <path id="Trazado_165970" data-name="Trazado 165970" d="M2949.342,1568.232h0a1.715,1.715,0,0,0,1.655-1.386l1.329-6.183h-5.882l1.238,6.16A1.717,1.717,0,0,0,2949.342,1568.232Z" transform="translate(-2942.889 -1483.989)" fill="#dc4437"/>
        <path id="Trazado_165971" data-name="Trazado 165971" d="M2946.359,1560.242h5.883l3.043-14.15h-11.77Z" transform="translate(-2942.805 -1483.569)" fill="#fffbf3"/>
        <path id="Trazado_165972" data-name="Trazado 165972" d="M2952.987,1481.713h-7.173a2.353,2.353,0,0,0-2.3,2.4v8.56h11.77v-8.56A2.352,2.352,0,0,0,2952.987,1481.713Z" transform="translate(-2942.805 -1481.713)" fill="#dc4437"/>
        <path id="Rectángulo_34760" data-name="Rectángulo 34760" d="M.615,0h11.96a.615.615,0,0,1,.615.615V1.967a.614.614,0,0,1-.614.614H.615A.615.615,0,0,1,0,1.967V.615A.615.615,0,0,1,.615,0Z" transform="translate(13.19 13.545) rotate(180)" fill="#fffbf3"/>
      </g>
    </g>
    <path id="Trazado_165973" data-name="Trazado 165973" d="M3028.367,1384.937l-1.873.454-1.258-2.3-2.842.4-1.3-1.6-1.025.519,1.735,2.14,2.694-.376,1.308,2.394,2.818-.684Z" transform="translate(-3.592 -0.961)" fill="#50bfa5"/>
    <path id="Trazado_165974" data-name="Trazado 165974" d="M3154.834,1429.8l-3.145.556-1.716-2.678.648-.416,1.439,2.246,3.239-.573,1.464,3.388,2.1-.645.165.755-2.7.829Z" transform="translate(-7.338 -2.27)" fill="#dc4437"/>
    <path id="Trazado_165975" data-name="Trazado 165975" d="M2907.438,1526.513l-.6-3.137,2.655-1.753.424.642-2.226,1.47.617,3.23-3.368,1.51.674,2.093-.753.175-.865-2.688Z" transform="translate(-0.246 -4.99)" fill="#748828"/>
    <path id="Trazado_165976" data-name="Trazado 165976" d="M3053.012,1385.018l-1.156-2.734-2.906-.6a.408.408,0,0,1-.185-.708l2.242-1.943-.331-2.949a.408.408,0,0,1,.616-.394l2.542,1.532,2.7-1.226a.409.409,0,0,1,.566.464l-.672,2.89,2,2.192a.407.407,0,0,1-.266.681l-2.956.254-1.466,2.58A.408.408,0,0,1,3053.012,1385.018Z" transform="translate(-4.416 -0.781)" fill="#f7cc7f"/>
    <path id="Trazado_165977" data-name="Trazado 165977" d="M3138.115,1375.576l2.361-.068,1.052-2.744,3.289.441.471-1.9.486.165-.571,2.3-3.342-.448-1.029,2.684-2.7.078Z" transform="translate(-6.996 -0.656)" fill="#fffbf3"/>
    <g id="Grupo_58109" data-name="Grupo 58109" transform="translate(2937.083 1436.516)">
      <path id="Trazado_165978" data-name="Trazado 165978" d="M2941.71,1439.3l-.542,2.459-2.85-.905.244-.77,2.008.637.352-1.6Z" transform="translate(-2938.318 -1439.128)" fill="#dc4437"/>
    </g>
    <g id="Grupo_58110" data-name="Grupo 58110" transform="translate(2903.969 1561.082)">
      <path id="Trazado_165979" data-name="Trazado 165979" d="M3174.054,1567.392H2905.29a1.056,1.056,0,0,0-1.066.965,1.032,1.032,0,0,0,1.03,1.1h268.8a1.032,1.032,0,0,0,1.032-1.032h0A1.033,1.033,0,0,0,3174.054,1567.392Z" transform="translate(-2904.222 -1567.392)" fill="#efbe5e"/>
    </g>
    <path id="Trazado_165980" data-name="Trazado 165980" d="M3105.235,1376.361l-2.47.638-1.209-3.12-2.5,1.049-1.079-3.136-2.3.091-.976-2.354-1.444.428-.146-.734,1.921-.57,1.019,2.458,2.327-.092,1.02,2.963,2.475-1.039,1.237,3.192,2.4-.619,1.4,2.474-.51.429Z" transform="translate(-5.698 -0.58)" fill="#fffbf3"/>
    <path id="Trazado_165981" data-name="Trazado 165981" d="M2899.321,1467.625l1.371.34-.021,1.614,1.5.722-.158,1.876,1.849.279-.083,2.067,1.685.471.215,1.748-.439.054-.179-1.455-1.738-.486.081-2.021-1.867-.282.167-1.986-1.478-.713.021-1.545-1.031-.255Z" transform="translate(-0.108 -3.434)" fill="#dc4437"/>
    <g id="Grupo_58114" data-name="Grupo 58114" transform="translate(2959.67 1372.957)">
      <rect id="Rectángulo_34761" data-name="Rectángulo 34761" width="173.81" height="132.654" rx="10.281" transform="translate(0 57.627)" fill="#e6e6e6"/>
      <path id="Rectángulo_34762" data-name="Rectángulo 34762" d="M8.385,0H158.815A8.384,8.384,0,0,1,167.2,8.384V117.158a8.384,8.384,0,0,1-8.384,8.384H8.384A8.384,8.384,0,0,1,0,117.159V8.385A8.385,8.385,0,0,1,8.385,0Z" transform="translate(3.808 60.742)" fill="#12263f"/>
      <path id="Trazado_165982" data-name="Trazado 165982" d="M2961.576,1561.384v4.5c0,1.927,4.142,3.489,9.251,3.489h177.63c5.108,0,9.25-1.563,9.25-3.489v-4.5Z" transform="translate(-2961.576 -1379.094)" fill="#12263f"/>
      <rect id="Rectángulo_34763" data-name="Rectángulo 34763" width="144.577" height="107.723" transform="translate(15.334 65.084)" fill="#e6e6e6"/>
      <rect id="Rectángulo_34764" data-name="Rectángulo 34764" width="132.085" height="94.087" transform="translate(20.276 73.622)" fill="#f7971e"/>
      <rect id="Rectángulo_34765" data-name="Rectángulo 34765" width="123.963" height="101.187" transform="translate(19.925 66.522)" fill="#ffd800"/>
      <rect id="Rectángulo_34766" data-name="Rectángulo 34766" width="117.578" height="8.237" transform="translate(22.359 71.084)" fill="#efbe5e"/>
      <rect id="Rectángulo_34767" data-name="Rectángulo 34767" width="102.817" height="158.545" transform="translate(20.276)" fill="#fffbf3"/>
      <rect id="Rectángulo_34768" data-name="Rectángulo 34768" width="94.881" height="8.311" transform="translate(22.987 68.973)" fill="#efbe5e"/>
      <g id="Grupo_58111" data-name="Grupo 58111" transform="translate(27.85 85.023)">
        <rect id="Rectángulo_34769" data-name="Rectángulo 34769" width="40.477" height="1.773" fill="#e6e6e6"/>
        <rect id="Rectángulo_34770" data-name="Rectángulo 34770" width="37.672" height="1.773" transform="translate(49.267)" fill="#e6e6e6"/>
        <rect id="Rectángulo_34771" data-name="Rectángulo 34771" width="40.477" height="1.772" transform="translate(0 4.482)" fill="#e6e6e6"/>
        <rect id="Rectángulo_34772" data-name="Rectángulo 34772" width="37.672" height="1.772" transform="translate(49.267 4.482)" fill="#e6e6e6"/>
        <rect id="Rectángulo_34773" data-name="Rectángulo 34773" width="40.477" height="1.773" transform="translate(0 8.964)" fill="#e6e6e6"/>
        <rect id="Rectángulo_34774" data-name="Rectángulo 34774" width="37.672" height="1.773" transform="translate(49.267 8.964)" fill="#e6e6e6"/>
        <rect id="Rectángulo_34775" data-name="Rectángulo 34775" width="40.477" height="1.773" transform="translate(0 13.446)" fill="#e6e6e6"/>
        <rect id="Rectángulo_34776" data-name="Rectángulo 34776" width="37.672" height="1.773" transform="translate(49.267 13.446)" fill="#e6e6e6"/>
        <rect id="Rectángulo_34777" data-name="Rectángulo 34777" width="37.672" height="1.772" transform="translate(49.267 17.929)" fill="#e6e6e6"/>
        <rect id="Rectángulo_34778" data-name="Rectángulo 34778" width="40.477" height="1.772" transform="translate(0 17.929)" fill="#e6e6e6"/>
        <rect id="Rectángulo_34779" data-name="Rectángulo 34779" width="40.477" height="1.773" transform="translate(0 22.411)" fill="#e6e6e6"/>
        <rect id="Rectángulo_34780" data-name="Rectángulo 34780" width="37.672" height="1.773" transform="translate(49.267 22.411)" fill="#e6e6e6"/>
        <rect id="Rectángulo_34781" data-name="Rectángulo 34781" width="40.477" height="1.773" transform="translate(0 26.893)" fill="#e6e6e6"/>
        <rect id="Rectángulo_34782" data-name="Rectángulo 34782" width="37.672" height="1.773" transform="translate(49.267 26.893)" fill="#e6e6e6"/>
        <rect id="Rectángulo_34783" data-name="Rectángulo 34783" width="40.477" height="1.773" transform="translate(0 31.375)" fill="#e6e6e6"/>
        <rect id="Rectángulo_34784" data-name="Rectángulo 34784" width="37.672" height="1.773" transform="translate(49.267 31.375)" fill="#e6e6e6"/>
        <rect id="Rectángulo_34785" data-name="Rectángulo 34785" width="40.477" height="1.773" transform="translate(0 35.857)" fill="#e6e6e6"/>
        <rect id="Rectángulo_34786" data-name="Rectángulo 34786" width="37.672" height="1.773" transform="translate(49.267 35.857)" fill="#e6e6e6"/>
        <rect id="Rectángulo_34787" data-name="Rectángulo 34787" width="40.477" height="1.772" transform="translate(0 40.339)" fill="#e6e6e6"/>
        <rect id="Rectángulo_34788" data-name="Rectángulo 34788" width="37.672" height="1.772" transform="translate(49.267 40.339)" fill="#e6e6e6"/>
        <rect id="Rectángulo_34789" data-name="Rectángulo 34789" width="37.672" height="1.773" transform="translate(49.267 44.821)" fill="#e6e6e6"/>
        <rect id="Rectángulo_34790" data-name="Rectángulo 34790" width="40.477" height="1.773" transform="translate(0 44.821)" fill="#e6e6e6"/>
        <rect id="Rectángulo_34791" data-name="Rectángulo 34791" width="40.477" height="1.773" transform="translate(0 49.304)" fill="#e6e6e6"/>
        <rect id="Rectángulo_34792" data-name="Rectángulo 34792" width="37.672" height="1.773" transform="translate(49.267 49.304)" fill="#e6e6e6"/>
        <rect id="Rectángulo_34793" data-name="Rectángulo 34793" width="37.672" height="1.772" transform="translate(49.267 53.786)" fill="#e6e6e6"/>
        <rect id="Rectángulo_34794" data-name="Rectángulo 34794" width="40.477" height="1.772" transform="translate(0 53.786)" fill="#e6e6e6"/>
      </g>
      <g id="Grupo_58112" data-name="Grupo 58112" transform="translate(81.95 8.783)">
        <rect id="Rectángulo_34795" data-name="Rectángulo 34795" width="31.947" height="1.773" fill="#e6e6e6"/>
        <rect id="Rectángulo_34796" data-name="Rectángulo 34796" width="31.947" height="1.772" transform="translate(0 4.482)" fill="#e6e6e6"/>
        <rect id="Rectángulo_34797" data-name="Rectángulo 34797" width="31.947" height="1.772" transform="translate(0 8.964)" fill="#e6e6e6"/>
        <rect id="Rectángulo_34798" data-name="Rectángulo 34798" width="31.947" height="1.772" transform="translate(0 13.446)" fill="#e6e6e6"/>
        <rect id="Rectángulo_34799" data-name="Rectángulo 34799" width="31.947" height="1.772" transform="translate(0 17.929)" fill="#e6e6e6"/>
      </g>
      <g id="Grupo_58113" data-name="Grupo 58113" transform="translate(82.092 34.363)">
        <rect id="Rectángulo_34800" data-name="Rectángulo 34800" width="31.947" height="1.773" fill="#e6e6e6"/>
        <rect id="Rectángulo_34801" data-name="Rectángulo 34801" width="31.947" height="1.772" transform="translate(0 4.482)" fill="#e6e6e6"/>
        <rect id="Rectángulo_34802" data-name="Rectángulo 34802" width="31.947" height="1.772" transform="translate(0 8.964)" fill="#e6e6e6"/>
        <rect id="Rectángulo_34803" data-name="Rectángulo 34803" width="31.947" height="1.772" transform="translate(0 13.446)" fill="#e6e6e6"/>
        <rect id="Rectángulo_34804" data-name="Rectángulo 34804" width="31.947" height="1.772" transform="translate(0 17.929)" fill="#e6e6e6"/>
      </g>
      <rect id="Rectángulo_34805" data-name="Rectángulo 34805" width="43.655" height="54.086" transform="translate(29.844 9.211)" fill="#e6e6e6"/>
    </g>
    <g id="Grupo_58122" data-name="Grupo 58122" transform="translate(2914.289 1368.17)">
      <path id="Trazado_165983" data-name="Trazado 165983" d="M2941.431,1393.028c-12.61,5.081-12.658,23.135-.056,28.388a10.23,10.23,0,0,1,5.177,4.911l3.768,7.55a4.462,4.462,0,0,0,5.659,2.146l4.777-1.925a4.461,4.461,0,0,0,2.59-5.47c-2.533-8.1-4.054-10.9-2.194-15.181C2966.592,1400.927,2954.045,1387.946,2941.431,1393.028Z" transform="translate(-2915.341 -1369.42)" fill="#fffbf3"/>
      <g id="Grupo_58115" data-name="Grupo 58115" transform="translate(23.628 31.304)">
        <path id="Trazado_165984" data-name="Trazado 165984" d="M2950.785,1427.927c-2.433-6.88-5.3-14.076-6.178-16.1-7.412,2.092-6.328-6.456-2.146-4.014a6.716,6.716,0,0,1,2.548,3.128,19.873,19.873,0,0,0,6.685-3.682c-.509-1.716-.976-3-.739-4.224.358-1.85,2.391-2.786,3.627-1.338a2.689,2.689,0,0,1,.608,2.026c-.191,1.506-1.5,2.766-2.659,3.783,1.65,5.533,3.464,11.074,5.4,16.5l-.688.247c-1.9-5.337-3.69-10.787-5.32-16.23a20.618,20.618,0,0,1-6.61,3.592c1.118,2.592,3.88,9.613,6.164,16.073Zm-10.115-16.973c.826.57,2.014.636,3.628.2a5.946,5.946,0,0,0-2.208-2.708C2939.841,1407.128,2939.282,1410,2940.671,1410.954Zm11-7.782a8.143,8.143,0,0,0,.627,3.556c.935-.85,2.01-1.892,2.164-3.1.107-.847-.458-1.884-1.3-1.909C2953.07,1401.716,2951.813,1402.451,2951.673,1403.172Z" transform="translate(-2939.177 -1400.987)" fill="#ffd800"/>
      </g>
      <path id="Trazado_165985" data-name="Trazado 165985" d="M2946.88,1426.989c.033.062.071.121.1.184l3.768,7.55a4.462,4.462,0,0,0,5.659,2.146l4.777-1.925a4.461,4.461,0,0,0,2.59-5.47c-1.127-3.6-2.052-6.155-2.57-8.259Z" transform="translate(-2915.771 -1370.266)" fill="#472ea6"/>
      <g id="Grupo_58116" data-name="Grupo 58116" transform="translate(9.175 11.108)">
        <path id="Trazado_165986" data-name="Trazado 165986" d="M2930.172,1388.892l-5.512-6.271a1.463,1.463,0,0,1,2.2-1.933l5.512,6.272a1.463,1.463,0,1,1-2.2,1.932Z" transform="translate(-2924.295 -1380.191)" fill="#ffd800"/>
      </g>
      <g id="Grupo_58117" data-name="Grupo 58117" transform="translate(0 36.095)">
        <path id="Trazado_165987" data-name="Trazado 165987" d="M2925.205,1408.834l-8.7,1.161a1.463,1.463,0,1,1-.387-2.9l8.7-1.162a1.463,1.463,0,0,1,.387,2.9Z" transform="translate(-2914.848 -1405.92)" fill="#ffd800"/>
      </g>
      <g id="Grupo_58118" data-name="Grupo 58118" transform="translate(7.073 57.463)">
        <path id="Trazado_165988" data-name="Trazado 165988" d="M2922.8,1437.523a1.463,1.463,0,0,1-.439-2.022,47.781,47.781,0,0,1,5.606-7.125,1.463,1.463,0,1,1,2.117,2.02,44.875,44.875,0,0,0-5.263,6.688A1.463,1.463,0,0,1,2922.8,1437.523Z" transform="translate(-2922.13 -1427.922)" fill="#ffd800"/>
      </g>
      <g id="Grupo_58119" data-name="Grupo 58119" transform="translate(33.91)">
        <path id="Trazado_165989" data-name="Trazado 165989" d="M2951.9,1383.462a1.463,1.463,0,0,1-1.4-1.522,55.631,55.631,0,0,0-.719-11.481,1.463,1.463,0,1,1,2.886-.485,58.621,58.621,0,0,1,.756,12.086A1.464,1.464,0,0,1,2951.9,1383.462Z" transform="translate(-2949.764 -1368.753)" fill="#ffd800"/>
      </g>
      <g id="Grupo_58120" data-name="Grupo 58120" transform="translate(47.103 16.877)">
        <path id="Trazado_165990" data-name="Trazado 165990" d="M2963.537,1392.969a1.464,1.464,0,0,1,.557-1.993l8.274-4.657a1.463,1.463,0,0,1,1.436,2.55l-8.274,4.658A1.463,1.463,0,0,1,2963.537,1392.969Z" transform="translate(-2963.349 -1386.131)" fill="#ffd800"/>
      </g>
      <g id="Grupo_58121" data-name="Grupo 58121" transform="translate(55.988 39.648)">
        <path id="Trazado_165991" data-name="Trazado 165991" d="M2983.653,1413.995a1.432,1.432,0,0,1-.4.033,45.906,45.906,0,0,1-9.681-1.575,1.463,1.463,0,1,1,.777-2.821,42.953,42.953,0,0,0,9.062,1.474,1.463,1.463,0,0,1,.241,2.889Z" transform="translate(-2972.498 -1409.579)" fill="#ffd800"/>
      </g>
    </g>
    <g id="Grupo_58126" data-name="Grupo 58126" transform="translate(2980.927 1358.222)">
      <path id="Rectángulo_34806" data-name="Rectángulo 34806" d="M5.03,0H87.752a5.03,5.03,0,0,1,5.03,5.03v0a5.03,5.03,0,0,1-5.03,5.03H5.031A5.031,5.031,0,0,1,0,5.03v0A5.03,5.03,0,0,1,5.03,0Z" fill="#e6e6e6"/>
      <g id="Grupo_58123" data-name="Grupo 58123" transform="translate(3.771 1.298)">
        <path id="Trazado_165992" data-name="Trazado 165992" d="M3054.587,1367.275H2989.51a2.166,2.166,0,0,1-2.164-2.163v-3.1a2.166,2.166,0,0,1,2.164-2.163h65.077a2.165,2.165,0,0,1,2.164,2.163v3.1A2.165,2.165,0,0,1,3054.587,1367.275Zm-65.077-6.83a1.566,1.566,0,0,0-1.565,1.564v3.1a1.567,1.567,0,0,0,1.565,1.564h65.077a1.566,1.566,0,0,0,1.565-1.564v-3.1a1.565,1.565,0,0,0-1.565-1.564Z" transform="translate(-2987.346 -1359.846)" fill="#8e8e8e"/>
      </g>
      <g id="Grupo_58124" data-name="Grupo 58124" transform="translate(79.797 0.808)">
        <path id="Trazado_165993" data-name="Trazado 165993" d="M3068.235,1364.552a2.605,2.605,0,1,1,2.606-2.6A2.608,2.608,0,0,1,3068.235,1364.552Zm0-4.611a2.006,2.006,0,1,0,2.006,2.006A2.008,2.008,0,0,0,3068.235,1359.941Z" transform="translate(-3065.63 -1359.342)" fill="#8e8e8e"/>
      </g>
      <g id="Grupo_58125" data-name="Grupo 58125" transform="translate(83.426 5.003)">
        <path id="Trazado_165994" data-name="Trazado 165994" d="M3071.755,1367.265l-2.33-3.126a.3.3,0,0,1,.46-.38l.02.022,2.621,2.91a.482.482,0,0,1-.716.645l-.028-.034Z" transform="translate(-3069.366 -1363.661)" fill="#8e8e8e"/>
      </g>
    </g>
    <g id="Grupo_58127" data-name="Grupo 58127" transform="translate(3113.531 1367.123)">
      <path id="Trazado_165995" data-name="Trazado 165995" d="M3128.028,1370.161a4.193,4.193,0,1,1-5.539-2.122A4.193,4.193,0,0,1,3128.028,1370.161Z" transform="translate(-3120.004 -1367.675)" fill="#e57c0a"/>
      <path id="Trazado_165996" data-name="Trazado 165996" d="M3122.493,1373.5a2.242,2.242,0,1,0,4.1-1.827Z" transform="translate(-3120.076 -1367.79)" fill="#efefef"/>
    </g>
    <g id="Grupo_58129" data-name="Grupo 58129" transform="translate(3073.073 1458.789)">
      <path id="Trazado_165997" data-name="Trazado 165997" d="M3081.063,1506.575a3.582,3.582,0,0,1,1.753-.223,26.8,26.8,0,0,0,2.065-2.508s5.469-7.143,5.75-7.54l1.725-9.243,5.181-.04s-2.165,9.982-2.376,10.475-8.878,9.218-9.614,10.013c0,0-.474,1.29-.8,2.087a6.529,6.529,0,0,1-1.158,1.589,6.956,6.956,0,0,1-1.331,1.341c-.72.557-.339-.311-.339-.311s1.112-1.278.982-1.355c-.1-.058-.661.678-1.449,1.3-.2.16-.4.319-.59.462-.487.376-.9.176-.464-.3a5.658,5.658,0,0,1,.637-.609,4.612,4.612,0,0,0,.557-.608,5.953,5.953,0,0,0,.571-.63c-.032-.009-.023-.132-.245.032a14.086,14.086,0,0,1-1.139,1c-.237.147-.71.483-.71.483a5.326,5.326,0,0,1-.872.331c-.238-.221.236-.635.589-.791a3.771,3.771,0,0,1,.669-.554s.844-.923.7-1.052a13.393,13.393,0,0,0-1.333.841c-.625.367-1.332.634-1.439.521-.183-.194.459-.677.459-.677s.471-.313.618-.429c.173-.136.652-.585.652-.585s1.581-1.643,1.432-1.754a1.3,1.3,0,0,0-.78-.2c-.138.066-.313.32-.451.386a.442.442,0,0,1-.507-.13c-.115-.165.4-.74.4-.74A2.3,2.3,0,0,1,3081.063,1506.575Z" transform="translate(-3078.345 -1462.782)" fill="#e5ac7a"/>
      <path id="Trazado_165998" data-name="Trazado 165998" d="M3089.723,1555.216s-.047,3.189-.046,3.2c.068.4.567,1.405.567,1.773,0,1.383-6.283-1.173-4.875-1.786.127-.056.8-.475.837-.946.064-.726.228-2.192.228-2.192Z" transform="translate(-3078.542 -1464.748)" fill="#f9c38a"/>
      <path id="Trazado_165999" data-name="Trazado 165999" d="M3085.236,1558.477s1.475.423,2.231.529,1.752-.785,2.286-.545c.588.265.528,2.872.528,2.872s-7.543.108-10.1-.037C3079.26,1561.243,3082.22,1559.463,3085.236,1558.477Z" transform="translate(-3078.394 -1464.84)" fill="#fffbf3"/>
      <path id="Trazado_166000" data-name="Trazado 166000" d="M3104.121,1555.216s.185,3.189.186,3.2c.068.4.335,1.405.335,1.773,0,1.383-6.283-1.173-4.875-1.786.127-.056.992-.789,1.034-1.259.065-.726.031-1.879.031-1.879Z" transform="translate(-3078.957 -1464.748)" fill="#f9c38a"/>
      <path id="Trazado_166001" data-name="Trazado 166001" d="M3099.624,1558.477s1.475.423,2.23.529,1.751-.785,2.286-.545c.588.265.573,2.835.573,2.835s-8.426.089-10.48,0C3093.31,1561.256,3096.607,1559.463,3099.624,1558.477Z" transform="translate(-3078.799 -1464.84)" fill="#fffbf3"/>
      <path id="Trazado_166002" data-name="Trazado 166002" d="M3093.758,1507.815l-2.656,1.123-5.588,26.128.226,19.587,4.48.1s2.083-17.133,2.083-18.461,9.65-23.237,9.65-23.237Z" transform="translate(-3078.552 -1463.381)" fill="#2f1b7b"/>
      <path id="Trazado_166003" data-name="Trazado 166003" d="M3096.114,1509.27s1.958,20.13,1.958,23.525,1.586,22.385,1.586,22.385l4.491-.025s.324-5.789.805-14.306c.076-1.333-.1-4.025,0-5.406.7-9.931,2.08-19.281,1.421-22.986a7.188,7.188,0,0,0-.7-2.55C3102.739,1506.928,3096.114,1509.27,3096.114,1509.27Z" transform="translate(-3078.857 -1463.398)" fill="#472ea6"/>
      <path id="Trazado_166004" data-name="Trazado 166004" d="M3090.475,1492.518l5.433-.356s.268-4.755.268-7.023c0-2.752.858-6.81.523-6.733a6.636,6.636,0,0,0-3.317,2.089C3090.774,1484.049,3090.475,1492.518,3090.475,1492.518Z" transform="translate(-3078.695 -1462.533)" fill="#2bd3bc"/>
      <path id="Trazado_166005" data-name="Trazado 166005" d="M3103.344,1478.292s3.1.422,3.914,1.009a10.808,10.808,0,0,1,1.938,2.138s-3.8,17.606-3.811,20.569c-.006,2.292.823,7.92.823,7.92s-11.5.71-15.85-.972a84.659,84.659,0,0,0,1.375-8.451c0-1.758,1.644-17.74,2.018-18.856a4.267,4.267,0,0,1,3.061-3.281A31.645,31.645,0,0,1,3103.344,1478.292Z" transform="translate(-3078.692 -1462.526)" fill="#35e9d0"/>
      <path id="Trazado_166006" data-name="Trazado 166006" d="M3102.724,1473.407l.767,4.916s-2.8,5.854-4.472,5.346c-1.4-.426-.54-5.606-.54-5.606a13.84,13.84,0,0,0,.535-4.174C3098.785,1472.5,3102.724,1473.407,3102.724,1473.407Z" transform="translate(-3078.918 -1462.381)" fill="#f9c38a"/>
      <path id="Trazado_166007" data-name="Trazado 166007" d="M3099.035,1473.89c-.229-1.392,3.71-.483,3.71-.483l.064.408a2.269,2.269,0,0,1-.427.685,5.254,5.254,0,0,1-3.445,1.516A7.358,7.358,0,0,0,3099.035,1473.89Z" transform="translate(-3078.939 -1462.381)" fill="#e5ac7a"/>
      <g id="Grupo_58128" data-name="Grupo 58128" transform="translate(17.726)">
        <path id="Trazado_166008" data-name="Trazado 166008" d="M3103.324,1466.208c.112-.04.893,5.6-.59,7.151s-4.371,2.059-5.406.837c-1.146-1.352-1.089-7.412,1.216-9.008S3103.324,1466.208,3103.324,1466.208Z" transform="translate(-3096.597 -1462.137)" fill="#f9c38a"/>
        <path id="Trazado_166009" data-name="Trazado 166009" d="M3099.445,1462.1a6.433,6.433,0,0,1,3.361,1.864c.808.092,1.908.527,3.043,2.356a4.493,4.493,0,0,1-1.26,5.96,3.528,3.528,0,0,0-1.6,2.627l-.255-.724a3.982,3.982,0,0,1-.2-1.72,3.273,3.273,0,0,1,.263-1.034c.39-.816-.84-1.358-1.185-2.037-.265-.522-.279-1.719-.7-2.583l-.5-.659a3.238,3.238,0,0,0-2.282-.626C3097,1465.766,3097.16,1461.643,3099.445,1462.1Z" transform="translate(-3096.622 -1462.062)" fill="#353535"/>
        <path id="Trazado_166010" data-name="Trazado 166010" d="M3101.806,1470.6c-.011.689.31,1.251.719,1.258s.749-.545.761-1.233-.31-1.251-.719-1.258S3101.818,1469.916,3101.806,1470.6Z" transform="translate(-3096.748 -1462.273)" fill="#f9c38a"/>
      </g>
      <path id="Trazado_166011" data-name="Trazado 166011" d="M3095.3,1496.678l-.075.419a.4.4,0,0,1-.468.323l-8.885-1.506a.4.4,0,0,1-.33-.458l.074-.42a.406.406,0,0,1,.469-.323l8.885,1.507A.4.4,0,0,1,3095.3,1496.678Z" transform="translate(-3078.553 -1463.003)" fill="#353535"/>
      <path id="Trazado_166012" data-name="Trazado 166012" d="M3107.983,1480.631c-1.042-.03-1.965,6.7-1.3,7.367s.787,8.956.787,8.956l-9.835-.239v0c-.191-.125-2.252-1.481-2.546-1.776a2.418,2.418,0,0,0-2.208.271c-.4.427.884.078,1.236.312s-.264.815-.264.815-2.493.354-2.979-.151-1.784-1.36-1.96-.855c-.09.26.579,1.05.956,1.381-.47-.345-1.034-.712-1.228-.648-.353.117-.206.557-.015.687s2.171,1.608,2.479,1.711,4.9.213,5.7.385c0,0,12.969,2.891,13.706,2.711.647-.158,1.295-4.223,1.295-7.336S3111.24,1480.723,3107.983,1480.631Z" transform="translate(-3078.636 -1462.598)" fill="#f9c38a"/>
      <path id="Trazado_166013" data-name="Trazado 166013" d="M3107.129,1479.049a7.953,7.953,0,0,1,3.687,2.472c1.7,1.874,2.779,12.376,2.779,12.376l-5.885.931-.469-5.079-1.573-2.324Z" transform="translate(-3079.133 -1462.552)" fill="#35e9d0"/>
    </g>
    <g id="Grupo_58130" data-name="Grupo 58130" transform="translate(2996.051 1392.709)">
      <path id="Trazado_166014" data-name="Trazado 166014" d="M3007.554,1418.611l-3.726,11.284h-4.791l12.189-35.875h5.589l12.243,35.875h-4.95l-3.832-11.284Zm11.763-3.62-3.513-10.326c-.8-2.342-1.331-4.471-1.863-6.547h-.107c-.532,2.129-1.118,4.311-1.809,6.493l-3.514,10.38Z" transform="translate(-2999.037 -1394.02)" fill="#fd8f25"/>
    </g>
    <path id="Trazado_166015" data-name="Trazado 166015" d="M3167.979,1473.871l-1.619-1.418-2.087.53a.3.3,0,0,1-.345-.4l.849-1.979-1.149-1.82a.3.3,0,0,1,.277-.453l2.144.2,1.376-1.655a.3.3,0,0,1,.516.123l.477,2.1,2,.8a.3.3,0,0,1,.042.528l-1.849,1.1-.14,2.148A.3.3,0,0,1,3167.979,1473.871Z" transform="translate(-7.73 -3.409)" fill="#dc4437"/>
    <path id="Trazado_166016" data-name="Trazado 166016" d="M2928.693,1365.619l-1.619-1.418-2.087.53a.3.3,0,0,1-.345-.4l.849-1.978-1.149-1.821a.3.3,0,0,1,.277-.453l2.143.2,1.376-1.655a.3.3,0,0,1,.517.123l.476,2.1,2,.8a.3.3,0,0,1,.042.528l-1.849,1.1-.14,2.148A.3.3,0,0,1,2928.693,1365.619Z" transform="translate(-0.831 -0.287)" fill="#2cffe2"/>
    <path id="Trazado_166017" data-name="Trazado 166017" d="M2973.28,1367.386l-1.62-1.418-2.086.53a.3.3,0,0,1-.345-.4l.848-1.979-1.149-1.82a.3.3,0,0,1,.278-.453l2.144.2,1.376-1.655a.3.3,0,0,1,.516.123l.477,2.1,2,.8a.3.3,0,0,1,.042.528l-1.849,1.1-.14,2.148A.3.3,0,0,1,2973.28,1367.386Z" transform="translate(-2.116 -0.338)" fill="#fd8f25"/>
    <g id="Grupo_58133" data-name="Grupo 58133" transform="translate(3103.26 1385.047)">
      <g id="Grupo_58132" data-name="Grupo 58132">
        <path id="Trazado_166018" data-name="Trazado 166018" d="M3114.971,1413.731c5.894,2.426,7.792-2.875,7.644-2.734a15.491,15.491,0,0,1,1.566-.786c2.363-1.158,2.292-5.244,2.239-7.954,3.389-2.064,4.239-6.017,1.914-8.432.716-2.686.867-4.376-1.531-5.737-1.816-3.166-6.9-2.092-9.374.391a7.011,7.011,0,0,0-1.957,4.942,6.668,6.668,0,0,0-3.765,7.638C3107.787,1404.289,3108.956,1411.255,3114.971,1413.731Z" transform="translate(-3109.428 -1386.131)" fill="#353535"/>
        <path id="Trazado_166019" data-name="Trazado 166019" d="M3137.014,1423.423c-.473-.467-1.306-.881-1.258-.95.2-.278,2.257,1.851,2.122,1.252-.075-.334-1.549-2.073-2.073-2.139-.507-.063-3.79-.581-3.79-.581l-7.586-5.043s-.376-5.964,1.233-9.983a7.789,7.789,0,0,0-3.913-.512c-1.033,4.076-2.143,10.941-.8,12.942.564.841,10.425,4.1,10.425,4.1a23.486,23.486,0,0,0,2.531.828c.3.019,1.132-.051,1.539.013.922.143,2.063,1.513,2.14,1.356A1.8,1.8,0,0,0,3137.014,1423.423Z" transform="translate(-3109.742 -1386.687)" fill="#e5ac7a"/>
        <path id="Trazado_166020" data-name="Trazado 166020" d="M3126.444,1405.377a26.557,26.557,0,0,0-1.446-2.364,5.526,5.526,0,0,0-2.648-1.985s-.639.013-1.372.05a.6.6,0,0,1-.138.244c-.276.208-1.855-.06-2.876.635-3.419,2.941-2.474,17.2-2.2,21.7l8.537.037s.564-9.626,2.68-12.115C3128.449,1409.844,3127.5,1407.332,3126.444,1405.377Z" transform="translate(-3109.601 -1386.561)" fill="#fffbf3"/>
        <path id="Trazado_166021" data-name="Trazado 166021" d="M3129.115,1456.247a28.4,28.4,0,0,1,2.248-4.3c1.408-1.851,13.578-18.611,13.077-22.688-.218-1.782-5.492-3.292-6.117-3.4-3.356.45.169,3.339-2.352,5.713,1.639.561,2.606,1.261,2.252,1.722-1.419,1.845-8.952,16.714-9.28,16.906-1.459.855-2.032.458-2.032.458s.336,8.364,1.032,8.1S3128.083,1458.148,3129.115,1456.247Z" transform="translate(-3109.932 -1387.277)" fill="#e5ac7a"/>
        <path id="Trazado_166022" data-name="Trazado 166022" d="M3126.277,1451.43l1.407,8.426c.318,1.091.85,1.079.986.932.281-.3.409-2.55.443-3.829-.635-1.952-.575-5.626-.184-6.041A6.647,6.647,0,0,0,3126.277,1451.43Z" transform="translate(-3109.914 -1387.999)" fill="#c12925"/>
        <path id="Trazado_166023" data-name="Trazado 166023" d="M3131.458,1430.065c1.889-3.131,1.787-2.735,5.073-4.149a47.469,47.469,0,0,1,6.283,3.8l-7.01,5.084C3136.034,1434.233,3133.593,1431.41,3131.458,1430.065Z" transform="translate(-3110.063 -1387.278)" fill="#f9c38a"/>
        <path id="Trazado_166024" data-name="Trazado 166024" d="M3121.909,1396.047s-.435,4.169-.972,5.1c-.192.332,2.2,3.129,4.36,3.776s-.66-2.2-.571-3.267.483-6.112.483-6.112Z" transform="translate(-3109.76 -1386.403)" fill="#f9c38a"/>
        <path id="Trazado_166025" data-name="Trazado 166025" d="M3125.123,1396.99c.063-.834.109-1.447.109-1.447l-3.3.5s-.083.482-.175,1.163A2.7,2.7,0,0,0,3125.123,1396.99Z" transform="translate(-3109.784 -1386.403)" fill="#e5ac7a"/>
        <path id="Trazado_166026" data-name="Trazado 166026" d="M3122.921,1388.346a3.748,3.748,0,0,0-2.1,1.524c-.8,1.229-1.354,4.849,1.291,6.539s4.7-.7,4.736-3.032S3126.38,1387.935,3122.921,1388.346Z" transform="translate(-3109.738 -1386.194)" fill="#f9c38a"/>
        <path id="Trazado_166027" data-name="Trazado 166027" d="M3127.627,1392.738c-.225.562-.673.912-1,.78s-.408-.694-.183-1.258.674-.911,1-.779S3127.852,1392.176,3127.627,1392.738Z" transform="translate(-3109.915 -1386.285)" fill="#f9c38a"/>
        <path id="Trazado_166028" data-name="Trazado 166028" d="M3120.748,1393.226c.191.606.016,1.2-.392,1.333s-.895-.256-1.086-.862-.017-1.2.391-1.333S3120.555,1392.62,3120.748,1393.226Z" transform="translate(-3109.71 -1386.31)" fill="#f9c38a"/>
        <path id="Trazado_166029" data-name="Trazado 166029" d="M3130.573,1424.559c-1.461-.134-6.293-.625-6.293-.625l-8.573-1.153a21.815,21.815,0,0,0-1.574,5.891c-.1,3.973,2.891,5.469,6.018,5.277,1.861-.115,12.82-.422,15.116.744.424-3.237.913-6.745,3.094-9.074C3134.869,1425.141,3132.555,1424.742,3130.573,1424.559Z" transform="translate(-3109.564 -1387.188)" fill="#35e9d0"/>
        <path id="Trazado_166030" data-name="Trazado 166030" d="M3131.113,1454.728c.235-.243,2.115-13.109,3.25-18.508a4.539,4.539,0,0,1,2.266-3.052l6.116-3.338c2.118,1.938-7.767,23.7-8.673,25.98a29.815,29.815,0,0,0-1.059,5.012c-.509,2.225.154,2.414-.479,2.881s-3.468-7.656-3.468-7.656S3129.872,1456.013,3131.113,1454.728Z" transform="translate(-3109.994 -1387.391)" fill="#f9c38a"/>
        <path id="Trazado_166031" data-name="Trazado 166031" d="M3129.277,1425.172h0a.63.63,0,0,0,.664.588l10.388.025a.98.98,0,0,0,.857-.712l-.188.126a.633.633,0,0,0-.665-.589l-10.387-.024A.63.63,0,0,0,3129.277,1425.172Z" transform="translate(-3110 -1387.24)" fill="#353535"/>
        <g id="Grupo_58131" data-name="Grupo 58131" transform="translate(29.232 23.304)">
          <path id="Trazado_166032" data-name="Trazado 166032" d="M3140.52,1425.155a1.531,1.531,0,0,1-.187-.012c-.537-.068-.89-.411-.787-.766l3.964-13.718a1.045,1.045,0,0,1,1.16-.521c.537.068.89.411.787.766l-3.964,13.718A.973.973,0,0,1,3140.52,1425.155Z" transform="translate(-3139.527 -1410.127)" fill="#353535"/>
        </g>
        <path id="Trazado_166033" data-name="Trazado 166033" d="M3136.8,1423.29c-.594-.3-1.515-.433-1.49-.514.1-.325,2.743,1.359,2.429.83-.175-.294-2.139-1.789-2.657-1.689-.5.1-3.784.623-3.784.623l-8.447-3.053a31.928,31.928,0,0,1-1.324-9.572,11.993,11.993,0,0,0-4.8,1.034c.282,4.2,1.353,11.067,3.248,12.553.8.624,11.182.663,11.182.663a23.284,23.284,0,0,0,2.663,0c.293-.075,1.062-.4,1.467-.464.921-.15,2.431.8,2.456.625A1.8,1.8,0,0,0,3136.8,1423.29Z" transform="translate(-3109.639 -1386.817)" fill="#f9c38a"/>
        <path id="Trazado_166034" data-name="Trazado 166034" d="M3122.1,1405.093c-.119-1.328-.281-2.665-1.634-3.239a2.831,2.831,0,0,0-2.6.12,3.77,3.77,0,0,0-1.377,2.809,40.259,40.259,0,0,0-.228,7.117c1.677-.694,3.958-.327,5.8-.362A24.7,24.7,0,0,0,3122.1,1405.093Z" transform="translate(-3109.623 -1386.577)" fill="#e6e6e6"/>
      </g>
      <path id="Trazado_166035" data-name="Trazado 166035" d="M3136.1,1422.4a9.586,9.586,0,0,1,1.421.379c1.02.642.939.921-.626.25a.31.31,0,0,0-.125-.024l-.743.008a.311.311,0,0,1-.209-.544h0A.311.311,0,0,1,3136.1,1422.4Z" transform="translate(-3110.186 -1387.177)" fill="#f9c38a"/>
      <path id="Trazado_166036" data-name="Trazado 166036" d="M3133.072,1461.087s.138.963.281,1.838a4.905,4.905,0,0,1-.393,2.712c-.316.422-4.051-8.331-4.051-8.331a.664.664,0,0,1,.167-.771,5.4,5.4,0,0,1,2.015-1.052S3130.934,1459.979,3133.072,1461.087Z" transform="translate(-3109.988 -1388.131)" fill="#dc4437"/>
    </g>
    <path id="Trazado_166037" data-name="Trazado 166037" d="M3103.042,1359.582l-1.733,1.055,1.8,8.082a1.044,1.044,0,0,0,1.562.665h0a1.043,1.043,0,0,0,.475-1.128l-.439-1.9,1.82-1.107,1.5,1.259a1.043,1.043,0,0,0,1.213.091l.033-.019a1.045,1.045,0,0,0,.126-1.695Zm1.173,4.869-.332-1.485,1.168.976Z" transform="translate(-5.935 -0.318)" fill="#dc4437"/>
    <path id="Trazado_166038" data-name="Trazado 166038" d="M3135.033,1348.541a24.746,24.746,0,0,1,3.94.828,7.592,7.592,0,0,1,3.687,1.86,2.99,2.99,0,0,1,.849,3.041,3.106,3.106,0,0,1-2.983,2.2l-.01.039a3.438,3.438,0,0,1,1.7,4,3.655,3.655,0,0,1-2.172,2.41c-1.179.49-2.909.462-5.536-.288a23.986,23.986,0,0,1-3.178-1.121Zm1.515,5.9.98.281c1.567.448,2.595.042,2.875-.938.287-1-.327-1.747-1.679-2.134a8.565,8.565,0,0,0-1.3-.286Zm-1.675,5.86a9.7,9.7,0,0,0,1.145.37c1.353.387,2.694.219,3.091-1.173.38-1.332-.664-2.2-2.153-2.629l-1.019-.291Z" transform="translate(-6.8)" fill="#2cffe2"/>
    <path id="Trazado_166039" data-name="Trazado 166039" d="M3159.063,1394.225a1.238,1.238,0,0,1-.911,1.48,11.592,11.592,0,0,1-2.29.293c-4.668.157-7.17-2.666-7.3-6.512-.155-4.608,3.044-7.284,7.13-7.422a10.346,10.346,0,0,1,2.1.134,1.238,1.238,0,0,1,.993,1.488l-.01.044a1.235,1.235,0,0,1-1.418.955,6.862,6.862,0,0,0-1.443-.1c-2.424.082-4.258,1.607-4.157,4.613a4.035,4.035,0,0,0,4.476,4.261,8.009,8.009,0,0,0,1.366-.173,1.238,1.238,0,0,1,1.459.939Z" transform="translate(-7.297 -0.966)" fill="#ffd800"/>
  </g>
</svg>
