<svg xmlns="http://www.w3.org/2000/svg" xmlns:xlink="http://www.w3.org/1999/xlink" width="190" height="160" viewBox="0 0 190 160">
  <defs>
    <clipPath id="clip-path">
      <rect id="Rect치ngulo_35213" data-name="Rect치ngulo 35213" width="190" height="160" transform="translate(285 7468)" fill="none" stroke="#707070" stroke-width="1"/>
    </clipPath>
  </defs>
  <g id="Enmascarar_grupo_59" data-name="Enmascarar grupo 59" transform="translate(-285 -7468)" clip-path="url(#clip-path)">
    <g id="Grupo_62454" data-name="Grupo 62454">
      <path id="Rect치ngulo_35212" data-name="Rect치ngulo 35212" d="M21,0H169a21,21,0,0,1,21,21v88a0,0,0,0,1,0,0H0a0,0,0,0,1,0,0V21A21,21,0,0,1,21,0Z" transform="translate(285 7518.704)" fill="#bbabf5" opacity="0.3"/>
      <g id="Grupo_62455" data-name="Grupo 62455" transform="translate(-2858.126 6976.817)">
        <path id="Trazado_167663" data-name="Trazado 167663" d="M3278.06,620.6c1.074,2.351.744,3.367-1.425,4.808a63.755,63.755,0,0,1-26.016,10.124,61.819,61.819,0,0,1-18.88.029,6.422,6.422,0,0,0-3.941.523,79.62,79.62,0,0,1-24.247,7.4c-7.466.926-14.769.412-21.525-3.3a23.475,23.475,0,0,1-11.487-14.584c-1.909-6.507-1.689-13.066-.493-19.647a83.427,83.427,0,0,1,6.921-20.95,5.635,5.635,0,0,0,.5-3.45,62.945,62.945,0,0,1,1.057-24.65c.468-1.959.677-1.531-1.236-2.093-1.839-.54-3.708-.976-5.552-1.5-2.811-.8-3.432-3.165-1.384-5.231,1.954-1.971,3.945-3.907,5.877-5.9a4.277,4.277,0,0,1,3.808-1.335c2.584.283,5.182.437,7.774.646.8.036,1.618.578,2.386-.194q6.25-6.281,12.537-12.525c.523-.519.416-.805-.111-1.176-.829-.582-1.633-1.2-2.447-1.8l-17.26-13.265c-.3-.234-.623-.453-.917-.7-1.612-1.349-1.8-3.03-.368-4.55,1.786-1.894,3.659-3.707,5.528-5.521a2.95,2.95,0,0,1,3.663-.36q9.794,4.731,19.607,9.423c2,.96,4.017,1.886,5.989,2.9a1.191,1.191,0,0,0,1.641-.273c2.646-2.605,5.1-5.419,7.964-7.789a22.123,22.123,0,0,1,17.03-5.156c1.932.2,2.725,1.148,2.931,3.079a29.156,29.156,0,0,1-.36,7.265,3.032,3.032,0,0,0-.363,1.609,9.24,9.24,0,0,0,2.161-1.23c3.925-1.961,7.854-3.913,11.947-5.511,8.451-3.3,17.107-5.663,26.278-5.346,6.913.238,13.3,2.053,18.57,6.836a25.453,25.453,0,0,1,7.868,15.15c1.452,8.56-.125,16.816-2.616,24.966a62.692,62.692,0,0,1-3.959,10.248,11.115,11.115,0,0,0-1.017,6.871,62.585,62.585,0,0,1-6.927,37.77c-.879,1.685-2.019,2.069-4.089,1.46-1.6-1.751-1.712-2.5-.573-4.668a55,55,0,0,0,4.747-12.509,52.8,52.8,0,0,0,1.729-14.413c.015-.3.05-.594.043-.89a58.292,58.292,0,0,0-9.895-31.679c-.66-.99-1.17-1.806-2.539-1.186a3.677,3.677,0,0,1-1.394.079c-2.6.026-5.208,0-7.81.084a8.861,8.861,0,0,0-5.169,1.991,10.677,10.677,0,0,0-4.052,8.342,7.471,7.471,0,0,1-6.748,7.183,21.108,21.108,0,0,0-2.154.282c-2.905.7-4.314,2.913-4.3,6.661.018,4.091,2.252,6.334,6.335,6.337q10.245.009,20.491,0c2.263,0,3.081.651,3.584,2.812-.508,2.118-1.323,2.79-3.478,2.793q-10.444.013-20.889,0a11.286,11.286,0,0,1-5.325-1.172c-4.8-2.519-6.514-6.638-6.371-11.874a11.383,11.383,0,0,1,10.427-11.3c2.344-.159,2.754-.606,2.888-2.985a15.784,15.784,0,0,1,11.457-14.208c2.771-.781,5.594-.494,8.4-.594.314-.011.754.154.888-.274.1-.317-.257-.5-.453-.708a57.98,57.98,0,0,0-29.615-16.834,1.8,1.8,0,0,0-1.359.134c-6.79,3.756-13.835,7.125-19.138,13.078a1.652,1.652,0,0,0-.344,2.2c4.068,8.367,8.082,16.761,12.105,25.151.882,1.838.714,2.815-.72,4.262-1.624,1.638-3.24,3.284-4.9,4.889s-3.384,1.486-4.817-.332c-1.282-1.628-2.529-3.284-3.788-4.93-3.919-5.121-7.853-10.231-11.739-15.378-.586-.777-.923-.708-1.55-.075q-5.993,6.057-12.053,12.047a2,2,0,0,0-.636,1.811c.3,2.973.53,5.954.822,8.928a3.854,3.854,0,0,1-1.192,3.349c-2.048,2-4.038,4.056-6.084,6.057-2.03,1.985-4.355,1.34-5.136-1.4-.417-1.464-.825-2.93-1.27-4.512a3.308,3.308,0,0,0-.479.443c-2.7,4.2-5.248,8.5-7.56,12.931a1.859,1.859,0,0,0-.139,1.357,54.819,54.819,0,0,0,3.012,9.5c7.108,16.438,19.125,27.6,36.106,33.32a58.086,58.086,0,0,0,22.613,2.737c1.076-.071,1.345-.45,1.291-1.463-.084-1.576-.019-3.16-.02-4.741,0-4.413-2.284-6.688-6.725-6.695q-5.7-.009-11.406,0a11.571,11.571,0,0,1-9.738-4.475,11.358,11.358,0,0,1-2.334-6.128c-.231-2.617-.906-3.219-3.568-3.228-.982,0-1.966.014-2.948-.021-6.571-.233-11.78-4.463-12.957-10.507a12.989,12.989,0,0,1,10.63-15.371c.685-.119,1.32-.119,1.542-1.135a9.287,9.287,0,0,1,9.2-7.438q8.008-.1,16.019,0a12.817,12.817,0,0,1,10.309,5.085,13.516,13.516,0,0,1,2.746,8.61q.049,5.382,0,10.765c-.012,1.2.454,1.753,1.66,1.7.682-.029,1.367-.013,2.05,0,5.968.146,10.41,3.583,11.592,9.11.6,2.818.272,5.707.285,8.564.01,2.1-.68,2.895-2.724,3.407-2.115-.437-2.844-1.324-2.866-3.545-.018-1.707,0-3.415,0-5.123q-.012-6.78-6.759-6.8a14.893,14.893,0,0,1-3.7-.221c-3.155-.809-5.094-3.4-5.135-6.941-.043-3.757.028-7.514-.026-11.271-.066-4.706-3.156-7.737-7.858-7.755q-7.62-.03-15.241,0a3.941,3.941,0,0,0-4.216,3.612c-.5,3.423-1.751,4.594-5.141,4.8a7.4,7.4,0,0,0-.455,14.741,47.465,47.465,0,0,0,4.861.112,8.077,8.077,0,0,1,8.246,7.639c.416,4.37,2.417,6.187,6.823,6.19,3.843,0,7.685.02,11.528,0a11.413,11.413,0,0,1,11.81,10.593c.125,2.042.081,4.094.108,6.141.006.453-.041.865.674.685a39.7,39.7,0,0,0,7.329-2.153c.364-.1.738-.179,1.092-.311a54.491,54.491,0,0,0,12.082-6.241C3275.06,619.65,3276.517,619.414,3278.06,620.6ZM3177.21,548.87c.675.241.981.372,1.3.46,4.154,1.146,8.3,2.313,12.468,3.414a3.449,3.449,0,0,1,2.732,2.709c.362,1.492.806,2.966,1.21,4.448.741,2.714,1.467,5.431,2.236,8.137.076.269-.081.925.6.708a4.639,4.639,0,0,0,2.111-3.346c-.26-2.935-.5-5.871-.79-8.8a4.06,4.06,0,0,1,1.312-3.543c5.264-5.185,10.468-10.43,15.7-15.65,1.866-1.863,3.537-1.763,5.154.331,2.376,3.075,4.731,6.167,7.094,9.253q4.167,5.441,8.338,10.879c.214.278.33.767.819.669a2.5,2.5,0,0,0,1.318-2.917q-6.011-12.52-12.026-25.039c-1.025-2.133-.9-2.973.79-4.666,2.592-2.6,5.2-5.194,7.786-7.8a17.493,17.493,0,0,0,5.112-10.9c.124-1.215-.308-1.331-1.3-1.224a17.389,17.389,0,0,0-10.694,4.984c-2.732,2.7-5.441,5.432-8.17,8.139-1.408,1.4-2.351,1.551-4.145.691q-6.694-3.209-13.381-6.432-6.114-2.938-12.232-5.869c-.786-.376-1.847.152-2.5,1.3-.456.8.443.878.78,1.138q9.736,7.514,19.519,14.966c2.621,2,2.732,3.438.431,5.74-5.073,5.075-10.184,10.113-15.2,15.247a4.638,4.638,0,0,1-4.232,1.489c-2.841-.34-5.7-.55-8.546-.817a1.463,1.463,0,0,0-1.306.308C3178.817,547.523,3178.087,548.11,3177.21,548.87Zm124.5,2.721a.634.634,0,0,0,.468-.505c.993-2.723,2.021-5.434,2.772-8.238,1.761-6.568,2.771-13.2,1.531-19.991-.972-5.321-3.328-9.84-7.888-12.983-4.277-2.948-9.138-3.876-14.214-3.9-7.941-.044-15.422,2.094-22.74,4.941-.1.037-.148.185-.267.344a64.358,64.358,0,0,1,40.339,40.336Zm-121.79,40.9a35.3,35.3,0,0,0-2,5.248c-2.466,7.71-4.058,15.522-2.626,23.666.968,5.5,3.509,10.04,8.241,13.164a24.323,24.323,0,0,0,13.394,3.667c8.122.123,15.768-2.037,23.242-4.973.083-.032.121-.181.174-.266C3200.665,625.759,3187.186,612.38,3179.924,592.486Zm2.476-18.371a3.286,3.286,0,0,0,1.1-1.38,94.974,94.974,0,0,1,5.321-8.136,3.608,3.608,0,0,0,.618-3.622c-.992-3.141-.918-3.138-4.03-3.971-.872-.234-1.188.029-1.369.847a64.02,64.02,0,0,0-1.568,10.1A34.915,34.915,0,0,0,3182.4,574.115Z" transform="translate(0 0)" fill="#12263f"/>
        <path id="Trazado_167664" data-name="Trazado 167664" d="M3341.579,614.224a52.794,52.794,0,0,1-1.729,14.413,55.006,55.006,0,0,1-4.747,12.509c-1.14,2.17-1.027,2.917.573,4.668a50.1,50.1,0,0,1-4.4,6.408,1.871,1.871,0,0,1-.524.339,3.2,3.2,0,0,0-3.164.017c-1.447.958-1.669,2.377-.656,4.373a33.261,33.261,0,0,1-6.194,5.7c-.116.09-.324.062-.488.09-1.542-1.189-3-.952-4.535.113a54.494,54.494,0,0,1-12.082,6.241c-.353.132-.727.209-1.092.311q.009-5.355.018-10.709c2.045-.512,2.734-1.306,2.725-3.407-.013-2.857.318-5.746-.285-8.564-1.182-5.528-5.624-8.964-11.592-9.11-.683-.017-1.368-.033-2.05,0-1.206.051-1.672-.506-1.66-1.7q.056-5.382,0-10.765a13.517,13.517,0,0,0-2.746-8.61,12.817,12.817,0,0,0-10.308-5.085q-8.008-.1-16.019,0a9.287,9.287,0,0,0-9.2,7.438c-.222,1.016-.857,1.016-1.542,1.135a12.99,12.99,0,0,0-10.63,15.371c1.176,6.044,6.385,10.274,12.957,10.507.981.035,1.965.018,2.947.021,2.661.009,3.336.61,3.568,3.228a11.355,11.355,0,0,0,2.334,6.128,11.571,11.571,0,0,0,9.738,4.475q5.7-.013,11.406,0c4.44.007,6.721,2.282,6.724,6.695,0,1.581-.064,3.164.02,4.741.054,1.013-.215,1.392-1.291,1.463a58.087,58.087,0,0,1-22.613-2.737c-16.981-5.723-29-16.883-36.106-33.32a54.819,54.819,0,0,1-3.012-9.5,1.86,1.86,0,0,1,.139-1.357c2.312-4.433,4.855-8.729,7.56-12.931a3.286,3.286,0,0,1,.479-.443c.445,1.582.853,3.048,1.27,4.512.781,2.737,3.106,3.382,5.135,1.4,2.046-2,4.036-4.058,6.084-6.057a3.855,3.855,0,0,0,1.192-3.349c-.292-2.974-.518-5.955-.822-8.928a2,2,0,0,1,.637-1.811q6.057-5.993,12.053-12.047c.627-.634.963-.7,1.55.075,3.886,5.146,7.82,10.256,11.739,15.377,1.26,1.646,2.506,3.3,3.788,4.93,1.432,1.818,3.153,1.943,4.817.332s3.273-3.251,4.9-4.889c1.434-1.447,1.6-2.423.72-4.262-4.023-8.389-8.037-16.783-12.105-25.151a1.652,1.652,0,0,1,.344-2.2c5.3-5.953,12.347-9.322,19.138-13.078a1.8,1.8,0,0,1,1.359-.134,57.982,57.982,0,0,1,29.615,16.834c.2.207.552.392.453.708-.134.428-.573.263-.887.274-2.807.1-5.63-.187-8.4.594a15.783,15.783,0,0,0-11.458,14.207c-.134,2.378-.544,2.826-2.888,2.985a11.383,11.383,0,0,0-10.428,11.3c-.142,5.236,1.572,9.355,6.372,11.874a11.284,11.284,0,0,0,5.325,1.172q10.445.015,20.889,0c2.155,0,2.97-.675,3.478-2.793Z" transform="translate(-42.191 -42.138)" fill="#72d5fb"/>
        <path id="Trazado_167665" data-name="Trazado 167665" d="M3254.388,599.619c.814.6,1.618,1.222,2.447,1.8.527.37.635.657.111,1.176q-6.293,6.238-12.537,12.525c-.768.772-1.584.23-2.386.194,1.464-3.244,3.736-5.943,5.9-8.715a68,68,0,0,1,5.626-5.894C3253.871,600.38,3254.274,600.111,3254.388,599.619Z" transform="translate(-54.207 -73.82)" fill="#72d5fb"/>
        <path id="Trazado_167666" data-name="Trazado 167666" d="M3618.239,932.848c-1.013-2-.791-3.415.656-4.373a3.2,3.2,0,0,1,3.164-.017c1.515,2.008,1.381,3.741-.364,4.781C3620.442,933.986,3619.328,933.537,3618.239,932.848Z" transform="translate(-333.498 -318.036)" fill="#040505"/>
        <path id="Trazado_167667" data-name="Trazado 167667" d="M3468.26,541.7a9.242,9.242,0,0,1-2.161,1.23,3.032,3.032,0,0,1,.363-1.609C3467.074,541.391,3467.727,541.264,3468.26,541.7Z" transform="translate(-220.83 -30.471)" fill="#72d5fb"/>
        <path id="Trazado_167668" data-name="Trazado 167668" d="M3356.974,832.761q-.009,5.355-.018,10.709a39.7,39.7,0,0,1-7.329,2.153c-.715.18-.667-.232-.674-.685-.027-2.047.017-4.1-.108-6.141a11.413,11.413,0,0,0-11.81-10.593c-3.842.025-7.685.008-11.528,0-4.406,0-6.406-1.821-6.823-6.19a8.077,8.077,0,0,0-8.246-7.639,47.448,47.448,0,0,1-4.861-.112,7.4,7.4,0,0,1,.455-14.74c3.39-.21,4.644-1.382,5.141-4.8a3.941,3.941,0,0,1,4.216-3.612q7.621-.025,15.242,0c4.7.018,7.791,3.05,7.858,7.756.053,3.756-.018,7.514.025,11.271.041,3.54,1.98,6.131,5.135,6.941a14.9,14.9,0,0,0,3.7.221q6.747.018,6.759,6.8c0,1.708-.013,3.416,0,5.123C3354.13,831.438,3354.858,832.324,3356.974,832.761Z" transform="translate(-96.605 -216.203)" fill="#9fe257"/>
        <path id="Trazado_167669" data-name="Trazado 167669" d="M3200.657,565.145c.876-.759,1.607-1.347,2.28-1.994a1.464,1.464,0,0,1,1.306-.308c2.849.267,5.705.477,8.546.817a4.639,4.639,0,0,0,4.232-1.489c5.013-5.133,10.124-10.172,15.2-15.247,2.3-2.3,2.19-3.736-.431-5.74q-9.769-7.471-19.519-14.966c-.336-.26-1.235-.338-.78-1.138.656-1.152,1.717-1.68,2.5-1.3q6.119,2.928,12.232,5.869,6.691,3.215,13.381,6.432c1.794.86,2.736.707,4.145-.691,2.729-2.707,5.438-5.435,8.17-8.139a17.389,17.389,0,0,1,10.694-4.984c1-.108,1.428.009,1.3,1.224a17.494,17.494,0,0,1-5.112,10.9c-2.59,2.6-5.194,5.2-7.786,7.8-1.685,1.693-1.815,2.533-.79,4.666q6.016,12.518,12.026,25.039a2.5,2.5,0,0,1-1.318,2.917c-.489.1-.605-.391-.819-.669q-4.18-5.431-8.338-10.879c-2.363-3.086-4.718-6.177-7.094-9.253-1.617-2.093-3.287-2.194-5.154-.331-5.229,5.22-10.434,10.465-15.7,15.65a4.059,4.059,0,0,0-1.313,3.543c.29,2.932.53,5.868.789,8.8a4.64,4.64,0,0,1-2.11,3.346c-.678.217-.52-.439-.6-.708-.769-2.706-1.5-5.423-2.236-8.137-.4-1.482-.848-2.955-1.21-4.448a3.449,3.449,0,0,0-2.732-2.709c-4.166-1.1-8.314-2.268-12.468-3.414C3201.638,565.517,3201.331,565.385,3200.657,565.145Z" transform="translate(-23.447 -16.275)" fill="#fafafa"/>
        <path id="Trazado_167670" data-name="Trazado 167670" d="M3549.522,681.625l-13.6.02c-.5-2.161-1.321-2.811-3.584-2.812q-10.245-.007-20.491,0c-4.083,0-6.317-2.246-6.335-6.337-.017-3.748,1.392-5.959,4.3-6.661a21.1,21.1,0,0,1,2.153-.282,7.472,7.472,0,0,0,6.749-7.183,10.676,10.676,0,0,1,4.052-8.342,8.862,8.862,0,0,1,5.169-1.991c2.6-.086,5.206-.058,7.81-.084a3.677,3.677,0,0,0,1.394-.079c1.369-.62,1.879.2,2.539,1.186a58.292,58.292,0,0,1,9.895,31.679C3549.573,681.031,3549.538,681.328,3549.522,681.625Z" transform="translate(-250.135 -109.539)" fill="#9fe257"/>
        <path id="Trazado_167671" data-name="Trazado 167671" d="M3220.557,738.2a34.891,34.891,0,0,1,.068-6.16,63.991,63.991,0,0,1,1.568-10.1c.181-.818.5-1.081,1.37-.847,3.111.833,3.038.83,4.03,3.971a3.608,3.608,0,0,1-.619,3.622,95.123,95.123,0,0,0-5.32,8.136A3.29,3.29,0,0,1,3220.557,738.2Z" transform="translate(-38.157 -164.089)" fill="#72d5fb"/>
      </g>
    </g>
  </g>
</svg>
