<svg xmlns="http://www.w3.org/2000/svg" width="160" height="160" viewBox="0 0 160 160">
  <g id="Grupo_63742" data-name="Grupo 63742" transform="translate(11554 -3675.679)">
    <g id="Elipse_4181" data-name="Elipse 4181" transform="translate(-11554 3675.679)" fill="#fff" stroke="#472ea6" stroke-width="4">
      <circle cx="80" cy="80" r="80" stroke="none"/>
      <circle cx="80" cy="80" r="78" fill="none"/>
    </g>
    <g id="Grupo_59801" data-name="Grupo 59801" transform="translate(-12243.209 3611.475)">
      <path id="Trazado_166492" data-name="Trazado 166492" d="M806.385,134.922c1.435,2.18,2.859,4.09,4.021,6.149a31.107,31.107,0,0,1-3.967,35.52,30.57,30.57,0,0,1-19.988,10.385,30.128,30.128,0,0,1-22.281-6.218,4.62,4.62,0,0,0-3.029-1.049c-11.552.038-23.1.023-34.656.022-2.323,0-2.776-.462-2.776-2.822q0-35.444,0-70.887c0-2.335.464-2.8,2.8-2.8q6.463,0,12.926,0h1.336c.022-.431.05-.787.057-1.144.038-1.885.58-2.417,2.5-2.426,1.11-.006,2.22,0,3.517,0,0-1.074-.011-2.062,0-3.05.023-1.652.646-2.282,2.31-2.288q5.126-.019,10.252,0c1.65.007,2.267.64,2.3,2.309.018.958,0,1.916,0,3.028h3.2c2.312,0,2.747.415,2.829,2.678.009.255.047.509.085.893h1.224q6.686,0,13.372,0c1.812,0,2.39.581,2.393,2.412q.012,9.028-.008,18.056c0,.72.066,1.154.96,1.229a30.6,30.6,0,0,1,17.578,7.366,3.549,3.549,0,0,0,.4.254c2.013-1.993,4.022-3.961,5.991-5.967a1.228,1.228,0,0,0,.114-.919c-.3-1.682-.618-3.361-.981-5.031a2.487,2.487,0,0,1,.741-2.518c2.991-2.945,5.948-5.925,8.91-8.9a2.037,2.037,0,0,1,2.166-.784,2.072,2.072,0,0,1,1.333,1.885c.281,1.535.641,3.056.885,4.6a1.248,1.248,0,0,0,1.2,1.189c1.609.275,3.21.607,4.807.948,1.87.4,2.381,1.917,1.054,3.269-3.018,3.075-6.087,6.1-9.12,9.161a2.454,2.454,0,0,1-2.444.674c-1.708-.36-3.418-.712-5.138-1a1.6,1.6,0,0,0-1.2.235C810.12,131.21,808.234,133.1,806.385,134.922Zm-47.2,41.192c-.479-.627-.793-1.033-1.1-1.442a30.062,30.062,0,0,1-5.349-11.293,30.979,30.979,0,0,1,1.358-19.026,1.771,1.771,0,0,0,.01-1.3,1.8,1.8,0,0,1,1.3-2.843,2.121,2.121,0,0,0,1.175-.8c5.605-8.484,13.4-13.4,23.541-14.474.886-.094,1.175-.355,1.167-1.267-.043-5.238-.021-10.477-.026-15.715,0-.357-.047-.713-.075-1.118H767.9c-.629,2.555-.721,2.625-3.393,2.625H746.452c-1.226,0-2.453.031-3.677-.017a1.784,1.784,0,0,1-1.941-1.85c-.028-.246-.074-.49-.111-.728h-13.37v69.254Zm40.089-33.851a21.216,21.216,0,1,1-33.508,1.392c6.137-8.726,20.286-12.7,30.8-4.134l4.448-4.432c-9.38-8.688-26.417-9.868-37.583,1.418a27.637,27.637,0,1,0,40.891,37.106c9.717-11.7,7.344-27.654-.682-35.85q-1.915,1.936-3.829,3.874C799.638,141.82,799.484,142.024,799.279,142.264Zm-11.273,6.37c-3.068-2.648-8.557-2.036-11.487,1.11a9.021,9.021,0,0,0,12.687,12.819,8.876,8.876,0,0,0,1.031-11.783,5.18,5.18,0,0,1-.63,1.1c-1.708,1.756-3.43,3.5-5.184,5.207a1.763,1.763,0,0,1-2.59.135,1.806,1.806,0,0,1,.078-2.6c.466-.528.972-1.022,1.476-1.514C784.919,151.62,786.458,150.134,788.006,148.634Zm31.1-34.653-.347-.135c-1.491,1.542-2.881,3.2-4.5,4.59a3.814,3.814,0,0,0-1.381,4.413c.711,2.636.575,2.672,3.222,3.206.545.11,1.1.189,1.633.341a1.515,1.515,0,0,0,1.673-.494c1.672-1.737,3.4-3.418,5.1-5.126.219-.219.4-.474.716-.851-1.309-.262-2.426-.509-3.552-.7a2.094,2.094,0,0,1-1.89-1.883C819.591,116.214,819.336,115.1,819.109,113.981Zm-55-10.688H744.461v2.513h19.647Zm-6.016-5.371h-7.6V99.56h7.6Z" transform="translate(0)" fill="#472ea6"/>
      <path id="Trazado_166493" data-name="Trazado 166493" d="M1005.55,490.453a1.813,1.813,0,0,1-1.891-1.487,1.761,1.761,0,0,1,1.494-2.012c2.2-.536,4.44-.91,6.586-1.6a33.328,33.328,0,0,0,13.5-8.347c.263-.262.512-.54.791-.784a1.794,1.794,0,0,1,2.594-.083,1.74,1.74,0,0,1-.11,2.582,66.034,66.034,0,0,1-5.354,4.683,37.007,37.007,0,0,1-17.25,6.977C1005.767,490.407,1005.622,490.44,1005.55,490.453Z" transform="translate(-217.547 -296.347)" fill="#472ea6"/>
      <path id="Trazado_166494" data-name="Trazado 166494" d="M1128.97,414.532c-.371,1.169-.8,2.785-1.4,4.333s-1.344,3.049-2.084,4.542a1.774,1.774,0,0,1-2.439,1.073c-.974-.47-1.207-1.457-.722-2.673,1.082-2.712,2.135-5.436,3.18-8.162a1.848,1.848,0,0,1,2.084-1.421C1128.467,412.38,1129.029,413.126,1128.97,414.532Z" transform="translate(-309.593 -247.047)" fill="#472ea6"/>
      <path id="Trazado_166495" data-name="Trazado 166495" d="M948.651,523.573c1.986.221,3.977.406,5.956.679a1.608,1.608,0,0,1,1.476,1.787,1.523,1.523,0,0,1-1.6,1.648c-2.208-.15-4.414-.435-6.6-.805a1.552,1.552,0,0,1-1.2-1.966A1.7,1.7,0,0,1,948.651,523.573Z" transform="translate(-173.257 -333.6)" fill="#472ea6"/>
      <path id="Trazado_166496" data-name="Trazado 166496" d="M1149.267,365.378c-.114,1.028-.18,2.065-.357,3.082a1.723,1.723,0,0,1-3.427-.343c.037-1.367.137-2.734.254-4.1a1.713,1.713,0,0,1,1.689-1.715,1.756,1.756,0,0,1,1.8,1.737,13.114,13.114,0,0,1,.007,1.329Z" transform="translate(-327.78 -208.277)" fill="#472ea6"/>
      <path id="Trazado_166497" data-name="Trazado 166497" d="M868.546,212.032c-2.636,0-5.272,0-7.909,0a1.816,1.816,0,0,1-2.033-1.359,1.74,1.74,0,0,1,1.773-2.167c1.184-.069,2.375-.025,3.563-.025q5.959,0,11.919,0c.3,0,.6-.012.891.014a1.854,1.854,0,0,1,1.881,1.812,1.779,1.779,0,0,1-1.953,1.714C873.967,212.049,871.256,212.031,868.546,212.032Z" transform="translate(-104.787 -88.724)" fill="#472ea6"/>
      <path id="Trazado_166498" data-name="Trazado 166498" d="M783.23,185.382c2.352-2.376,4.457-4.509,6.569-6.635,1.29-1.3,2.275-1.5,3.146-.649s.687,1.829-.62,3.137q-3.655,3.658-7.311,7.313c-1.268,1.264-2.116,1.25-3.38-.046-.906-.928-1.824-1.846-2.7-2.8a1.773,1.773,0,0,1-.145-2.586,1.821,1.821,0,0,1,2.67.116,9.849,9.849,0,0,1,.93.955C782.67,184.529,782.9,184.913,783.23,185.382Z" transform="translate(-42.42 -64.723)" fill="#472ea6"/>
      <path id="Trazado_166499" data-name="Trazado 166499" d="M783.41,276.983c2.243-2.285,4.367-4.45,6.495-6.613a7.07,7.07,0,0,1,.73-.681,1.738,1.738,0,0,1,2.422,2.481c-.651.757-1.387,1.443-2.094,2.151q-2.987,2.991-5.983,5.973c-1.174,1.164-2.08,1.152-3.23-.021-.908-.927-1.824-1.848-2.706-2.8s-.935-2.025-.147-2.754a1.812,1.812,0,0,1,2.665.27C782.166,275.586,782.719,276.234,783.41,276.983Z" transform="translate(-42.453 -135.963)" fill="#472ea6"/>
      <path id="Trazado_166500" data-name="Trazado 166500" d="M783.413,368.786c2.21-2.254,4.3-4.4,6.405-6.529,1.274-1.289,2.3-1.5,3.142-.669.878.864.7,1.818-.615,3.139q-3.684,3.705-7.383,7.4c-1.176,1.17-2.051,1.155-3.234-.04-.938-.948-1.878-1.9-2.777-2.881a1.773,1.773,0,1,1,2.517-2.473C782.1,367.341,782.684,368.01,783.413,368.786Z" transform="translate(-42.438 -207.337)" fill="#472ea6"/>
    </g>
  </g>
</svg>
