<svg xmlns="http://www.w3.org/2000/svg" width="302.834" height="339.88" viewBox="0 0 302.834 339.88">
  <g id="Grupo_57879" data-name="Grupo 57879" transform="translate(-14.458 -1.848)">
    <g id="Grupo_57878" data-name="Grupo 57878" transform="translate(16.958 52.414)">
      <g id="Grupo_57877" data-name="Grupo 57877" transform="translate(186.692 124.874)">
        <g id="Grupo_57876" data-name="Grupo 57876" transform="translate(0 0.001)">
          <g id="Grupo_57855" data-name="Grupo 57855">
            <g id="Grupo_57852" data-name="Grupo 57852" transform="translate(0 1.221)">
              <g id="Grupo_57851" data-name="Grupo 57851">
                <path id="Trazado_165581" data-name="Trazado 165581" d="M341.826,87.026v37.939l-4.218-2.109V84.917Z" transform="translate(-293.688 -81.994)" fill="#21599c"/>
                <path id="Trazado_165582" data-name="Trazado 165582" d="M311.171,85.125v31.2l-4.218-2.109V87.234Z" transform="translate(-280.5 -82.083)" fill="#21599c"/>
                <path id="Trazado_165583" data-name="Trazado 165583" d="M357.153,94.689v37.939l-4.218-2.109V92.58Z" transform="translate(-300.282 -85.291)" fill="#9c2121"/>
                <path id="Trazado_165584" data-name="Trazado 165584" d="M447.9,138.86c.623.311.458,1.938-.164,2.25l-2.509,1.255v-3.636Z" transform="translate(-339.987 -105.144)" fill="#9c2121"/>
                <path id="Trazado_165585" data-name="Trazado 165585" d="M388.137,110.182v34.352l-2.46,1.23a2.863,2.863,0,0,1-1.758.168V108.073Z" transform="translate(-313.611 -91.956)" fill="#9c2121"/>
                <path id="Trazado_165586" data-name="Trazado 165586" d="M323.381,80.021a2.832,2.832,0,0,1,2.254,0l.864.431v37.939l-4.218-2.109V80.571Z" transform="translate(-287.094 -79.787)" fill="#9c2121"/>
                <path id="Trazado_165587" data-name="Trazado 165587" d="M403.465,117.845v25.619l-4.218,2.109V115.736Z" transform="translate(-320.206 -95.253)" fill="#21599c"/>
                <path id="Trazado_165588" data-name="Trazado 165588" d="M434.12,133.173v8.152l-4.218,2.109v-12.37Z" transform="translate(-333.394 -101.847)" fill="#21599c"/>
                <path id="Trazado_165589" data-name="Trazado 165589" d="M264.81,113.089l-3.681-1.84c-.622-.311-.859-1.884-.236-2.2l3.917-.772Z" transform="translate(-260.527 -92.045)" fill="#9c2121"/>
                <path id="Trazado_165590" data-name="Trazado 165590" d="M280.186,100.617v13.541l-4.218-2.109v-9.323Z" transform="translate(-267.17 -88.748)" fill="#21599c"/>
                <path id="Trazado_165591" data-name="Trazado 165591" d="M295.7,92.789v22.462l-4.406-2.2V94.992Z" transform="translate(-273.764 -85.38)" fill="#9c2121"/>
                <path id="Trazado_165592" data-name="Trazado 165592" d="M418.792,125.509v16.885l-4.218,2.109V123.4Z" transform="translate(-326.8 -98.55)" fill="#9c2121"/>
                <path id="Trazado_165593" data-name="Trazado 165593" d="M372.668,102.447v37.939l-4.406-2.2V100.244Z" transform="translate(-306.876 -88.588)" fill="#21599c"/>
                <path id="Trazado_165594" data-name="Trazado 165594" d="M441.82,137.023v3.636l-4.515,2.258v-8.152Z" transform="translate(-336.578 -103.439)" fill="#d4d4d4"/>
                <path id="Trazado_165595" data-name="Trazado 165595" d="M426.492,129.359v12.37l-4.515,2.258V127.1Z" transform="translate(-329.984 -100.142)" fill="#d4d4d4"/>
                <path id="Trazado_165596" data-name="Trazado 165596" d="M411.165,121.7v21.1l-4.515,2.258V119.438Z" transform="translate(-323.39 -96.845)" fill="#d4d4d4"/>
                <path id="Trazado_165597" data-name="Trazado 165597" d="M395.838,114.032v29.837l-4.515,2.258V111.774Z" transform="translate(-316.796 -93.548)" fill="#d4d4d4"/>
                <path id="Trazado_165598" data-name="Trazado 165598" d="M380.51,106.368v37.859a2.087,2.087,0,0,1-.5-.168l-4.019-2.01V104.11Z" transform="translate(-310.202 -90.251)" fill="#d4d4d4"/>
                <path id="Trazado_165599" data-name="Trazado 165599" d="M364.853,98.539v37.939l-4.515-2.258V96.282Z" transform="translate(-303.466 -86.883)" fill="#d4d4d4"/>
                <path id="Trazado_165600" data-name="Trazado 165600" d="M349.526,90.876v37.939l-4.515-2.258V88.618Z" transform="translate(-296.872 -83.586)" fill="#d4d4d4"/>
                <path id="Trazado_165601" data-name="Trazado 165601" d="M334.2,83.212v37.939l-4.515-2.258V80.954Z" transform="translate(-290.279 -80.289)" fill="#d4d4d4"/>
                <path id="Trazado_165602" data-name="Trazado 165602" d="M318.871,81.163v35.711l-4.515-2.258V83.42Z" transform="translate(-283.685 -80.379)" fill="#d4d4d4"/>
                <path id="Trazado_165603" data-name="Trazado 165603" d="M303.543,88.826V115.8l-4.515-2.258V91.084Z" transform="translate(-277.091 -83.676)" fill="#d4d4d4"/>
                <path id="Trazado_165604" data-name="Trazado 165604" d="M287.886,96.655v18.057l-4.515-2.258V98.913Z" transform="translate(-270.355 -87.044)" fill="#d4d4d4"/>
                <path id="Trazado_165605" data-name="Trazado 165605" d="M272.559,104.319v9.323l-4.515-2.258v-4.808Z" transform="translate(-263.761 -90.341)" fill="#d4d4d4"/>
              </g>
              <path id="Trazado_165606" data-name="Trazado 165606" d="M271.12,101.117,334.7,132.9a2.839,2.839,0,0,0,2.254,0L367,117.879c.623-.311.623-.815,0-1.126L303.424,84.965a2.837,2.837,0,0,0-2.254,0L271.12,99.99C270.5,100.3,270.5,100.806,271.12,101.117Z" transform="translate(-264.883 -81.914)" fill="#fff"/>
            </g>
            <g id="Grupo_57854" data-name="Grupo 57854" transform="translate(0.135)">
              <g id="Grupo_57853" data-name="Grupo 57853">
                <path id="Trazado_165607" data-name="Trazado 165607" d="M341.826,84.883v37.939l-4.218-2.109V82.774Z" transform="translate(-293.823 -79.851)" fill="#3082e3"/>
                <path id="Trazado_165608" data-name="Trazado 165608" d="M311.171,82.982v31.2l-4.218-2.109V85.091Z" transform="translate(-280.635 -79.941)" fill="#3082e3"/>
                <path id="Trazado_165609" data-name="Trazado 165609" d="M357.153,92.547v37.939l-4.218-2.109V90.438Z" transform="translate(-300.417 -83.148)" fill="#e33030"/>
                <path id="Trazado_165610" data-name="Trazado 165610" d="M447.738,137.84c.622.311.622.816,0,1.127l-2.509,1.255v-3.636Z" transform="translate(-340.122 -103.001)" fill="#e33030"/>
                <path id="Trazado_165611" data-name="Trazado 165611" d="M388.137,108.039v34.352l-2.46,1.23a2.867,2.867,0,0,1-1.758.168V105.93Z" transform="translate(-313.746 -89.813)" fill="#e33030"/>
                <path id="Trazado_165612" data-name="Trazado 165612" d="M323.381,77.878a2.837,2.837,0,0,1,2.254,0l.864.432v37.939l-4.218-2.109V78.428Z" transform="translate(-287.229 -77.645)" fill="#e33030"/>
                <path id="Trazado_165613" data-name="Trazado 165613" d="M403.465,115.7v25.619l-4.218,2.109V113.594Z" transform="translate(-320.34 -93.11)" fill="#3082e3"/>
                <path id="Trazado_165614" data-name="Trazado 165614" d="M434.12,131.03v8.152l-4.218,2.109v-12.37Z" transform="translate(-333.529 -99.704)" fill="#3082e3"/>
                <path id="Trazado_165615" data-name="Trazado 165615" d="M264.912,110.946l-3.681-1.84c-.622-.311-.622-.816,0-1.127l3.681-1.84Z" transform="translate(-260.764 -89.903)" fill="#e33030"/>
                <path id="Trazado_165616" data-name="Trazado 165616" d="M280.186,98.475v13.541l-4.218-2.109v-9.323Z" transform="translate(-267.305 -86.606)" fill="#3082e3"/>
                <path id="Trazado_165617" data-name="Trazado 165617" d="M295.7,90.646v22.462l-4.406-2.2V92.849Z" transform="translate(-273.899 -83.238)" fill="#e33030"/>
                <path id="Trazado_165618" data-name="Trazado 165618" d="M418.792,123.367v16.885l-4.218,2.109v-21.1Z" transform="translate(-326.935 -96.407)" fill="#e33030"/>
                <path id="Trazado_165619" data-name="Trazado 165619" d="M372.668,100.3v37.939l-4.406-2.2V98.1Z" transform="translate(-307.011 -86.445)" fill="#3082e3"/>
                <path id="Trazado_165620" data-name="Trazado 165620" d="M441.82,134.88v3.636l-4.515,2.258v-8.152Z" transform="translate(-336.713 -101.297)" fill="#fff"/>
                <path id="Trazado_165621" data-name="Trazado 165621" d="M426.492,127.217v12.37l-4.515,2.258V124.959Z" transform="translate(-330.119 -98)" fill="#fff"/>
                <path id="Trazado_165622" data-name="Trazado 165622" d="M411.165,119.553v21.1l-4.515,2.258V117.3Z" transform="translate(-323.525 -94.703)" fill="#fff"/>
                <path id="Trazado_165623" data-name="Trazado 165623" d="M395.838,111.889v29.837l-4.515,2.258V109.632Z" transform="translate(-316.931 -91.406)" fill="#fff"/>
                <path id="Trazado_165624" data-name="Trazado 165624" d="M380.51,104.226v37.859a2.113,2.113,0,0,1-.5-.168l-4.019-2.01V101.968Z" transform="translate(-310.337 -88.109)" fill="#fff"/>
                <path id="Trazado_165625" data-name="Trazado 165625" d="M364.853,96.4v37.939l-4.515-2.258V94.139Z" transform="translate(-303.601 -84.741)" fill="#fff"/>
                <path id="Trazado_165626" data-name="Trazado 165626" d="M349.526,88.733v37.939l-4.515-2.258V86.476Z" transform="translate(-297.007 -81.444)" fill="#fff"/>
                <path id="Trazado_165627" data-name="Trazado 165627" d="M334.2,81.069v37.939l-4.515-2.258V78.812Z" transform="translate(-290.413 -78.147)" fill="#fff"/>
                <path id="Trazado_165628" data-name="Trazado 165628" d="M318.871,79.02v35.711l-4.515-2.258v-31.2Z" transform="translate(-283.819 -78.236)" fill="#fff"/>
                <path id="Trazado_165629" data-name="Trazado 165629" d="M303.543,86.684v26.978l-4.515-2.258V88.941Z" transform="translate(-277.225 -81.533)" fill="#fff"/>
                <path id="Trazado_165630" data-name="Trazado 165630" d="M287.886,94.512v18.057l-4.515-2.258V96.77Z" transform="translate(-270.49 -84.901)" fill="#fff"/>
                <path id="Trazado_165631" data-name="Trazado 165631" d="M272.559,102.176V111.5l-4.515-2.258v-4.808Z" transform="translate(-263.896 -88.198)" fill="#fff"/>
              </g>
              <path id="Trazado_165632" data-name="Trazado 165632" d="M271.12,98.974,334.7,130.762a2.839,2.839,0,0,0,2.254,0L367,115.737c.623-.311.623-.816,0-1.127L303.424,82.822a2.837,2.837,0,0,0-2.254,0L271.12,97.847C270.5,98.158,270.5,98.663,271.12,98.974Z" transform="translate(-265.018 -79.771)" fill="#fff"/>
            </g>
          </g>
          <g id="Grupo_57857" data-name="Grupo 57857" transform="translate(81.289 31.632)">
            <path id="Trazado_165633" data-name="Trazado 165633" d="M409.066,140.053l7.915-3.957-5.873-2.937-7.915,3.957Z" transform="translate(-403.192 -133.159)" fill="#21599c"/>
            <path id="Trazado_165634" data-name="Trazado 165634" d="M403.585,137.2l5.649,2.825,7.691-3.846-5.649-2.825Z" transform="translate(-403.361 -133.244)" fill="#80cdff"/>
            <path id="Trazado_165635" data-name="Trazado 165635" d="M415.335,139.127s-3.79-.44-4.922-1.147-1.252-1.415-1.252-1.415l-1.993,1,5.649,2.825Z" transform="translate(-404.903 -134.624)" fill="#2085c7"/>
            <path id="Trazado_165636" data-name="Trazado 165636" d="M411.584,140.166s-3.594-1.713-3.79-3.755l-4.209,2.1,5.649,2.824Z" transform="translate(-403.361 -134.558)" fill="#3899d9"/>
            <g id="Grupo_57856" data-name="Grupo 57856" transform="translate(6.451 1.1)">
              <path id="Trazado_165637" data-name="Trazado 165637" d="M420.788,137.508a1.2,1.2,0,0,1,.866.03c.224.113.254.285.089.414a.845.845,0,0,1,.343.122.211.211,0,0,1,.013.381l-.005,0a.7.7,0,0,1-.618.023l-.359-.179-.214-.108-.443-.221-.136-.068-.278-.139c-.137-.068-.146-.182-.009-.251h0A.965.965,0,0,1,420.788,137.508Z" transform="translate(-416.847 -136.099)" fill="#fff"/>
              <path id="Trazado_165638" data-name="Trazado 165638" d="M415.446,137.847a.575.575,0,0,1,.416.015c.108.054.122.137.042.2a.409.409,0,0,1,.165.059.1.1,0,0,1,.006.183l0,0a.335.335,0,0,1-.3.011l-.172-.086-.1-.051-.213-.107-.065-.032-.133-.067c-.066-.033-.07-.087,0-.121h0A.463.463,0,0,1,415.446,137.847Z" transform="translate(-414.739 -136.261)" fill="#fff"/>
              <path id="Trazado_165639" data-name="Trazado 165639" d="M415.151,135.144a.9.9,0,0,1,.65.023c.169.084.191.214.067.311a.64.64,0,0,1,.258.092.158.158,0,0,1,.01.286l0,0a.526.526,0,0,1-.464.018l-.27-.134-.161-.081-.332-.166-.1-.051-.209-.1c-.1-.052-.109-.137-.007-.189h0A.722.722,0,0,1,415.151,135.144Z" transform="translate(-414.513 -135.09)" fill="#fff"/>
            </g>
          </g>
          <g id="Grupo_57872" data-name="Grupo 57872" transform="translate(60.692 24.97)">
            <g id="Grupo_57858" data-name="Grupo 57858">
              <path id="Trazado_165640" data-name="Trazado 165640" d="M398.143,131.054a18.256,18.256,0,0,0-5.841-1.892.234.234,0,0,0,.213-.052c.03-.044-.017-.091-.1-.107a18.31,18.31,0,0,1,6.177,2.051Q398.365,131.051,398.143,131.054Z" transform="translate(-377.91 -124.709)" fill="#21599c"/>
              <path id="Trazado_165641" data-name="Trazado 165641" d="M385.634,125.813c-.022.031,0,.064.04.087a.232.232,0,0,0,.064.02,19.592,19.592,0,0,1-5.5-1.684,10.683,10.683,0,0,1-1.576-.952,5.035,5.035,0,0,1-1.614-1.715c-.021-.045.036-.089.126-.1s.18.018.2.063a4.99,4.99,0,0,0,1.565,1.658,16,16,0,0,0,6.905,2.571A.236.236,0,0,0,385.634,125.813Z" transform="translate(-371.346 -121.467)" fill="#21599c"/>
              <path id="Trazado_165642" data-name="Trazado 165642" d="M392.429,129.106a.27.27,0,0,1-.277.032c-.043-.022-.062-.055-.04-.087a.236.236,0,0,1,.213-.052C392.412,129.015,392.459,129.062,392.429,129.106Z" transform="translate(-377.824 -124.706)" fill="#21599c"/>
              <path id="Trazado_165643" data-name="Trazado 165643" d="M388.968,130.829a.234.234,0,0,0,.213-.052c.03-.044-.017-.091-.1-.106A20.6,20.6,0,0,1,394,132.082q-.168.038-.331.079A20.307,20.307,0,0,0,388.968,130.829Z" transform="translate(-376.475 -125.427)" fill="#21599c"/>
              <path id="Trazado_165644" data-name="Trazado 165644" d="M382.3,127.48c-.021.031,0,.065.04.087a.233.233,0,0,0,.064.02,19.587,19.587,0,0,1-5.5-1.684,10.684,10.684,0,0,1-1.575-.952,5.043,5.043,0,0,1-1.614-1.714c-.021-.046.036-.09.127-.1s.18.018.2.063a4.983,4.983,0,0,0,1.565,1.658,16.01,16.01,0,0,0,6.9,2.571A.237.237,0,0,0,382.3,127.48Z" transform="translate(-369.912 -122.184)" fill="#21599c"/>
              <path id="Trazado_165645" data-name="Trazado 165645" d="M389.095,130.774a.234.234,0,0,1-.213.052.232.232,0,0,1-.064-.02c-.044-.022-.062-.055-.04-.087a.237.237,0,0,1,.213-.052C389.078,130.682,389.125,130.73,389.095,130.774Z" transform="translate(-376.389 -125.423)" fill="#21599c"/>
              <path id="Trazado_165646" data-name="Trazado 165646" d="M385.634,132.5a.234.234,0,0,0,.213-.052c.03-.044-.017-.091-.1-.106A21.225,21.225,0,0,1,390.3,133.6q-.117.061-.227.124A20.772,20.772,0,0,0,385.634,132.5Z" transform="translate(-375.041 -126.144)" fill="#21599c"/>
              <path id="Trazado_165647" data-name="Trazado 165647" d="M378.966,129.148c-.021.031,0,.064.04.086a.231.231,0,0,0,.064.02,19.608,19.608,0,0,1-5.5-1.683,10.732,10.732,0,0,1-1.575-.953,5.041,5.041,0,0,1-1.614-1.714c-.021-.046.036-.09.126-.1s.18.018.2.063a4.991,4.991,0,0,0,1.565,1.658,16.011,16.011,0,0,0,6.9,2.571A.235.235,0,0,0,378.966,129.148Z" transform="translate(-368.478 -122.902)" fill="#21599c"/>
              <path id="Trazado_165648" data-name="Trazado 165648" d="M385.761,132.441a.27.27,0,0,1-.277.032c-.044-.022-.062-.055-.04-.086a.234.234,0,0,1,.213-.052C385.744,132.349,385.79,132.4,385.761,132.441Z" transform="translate(-374.955 -126.141)" fill="#21599c"/>
              <path id="Trazado_165649" data-name="Trazado 165649" d="M382.513,134.111c.03-.044-.017-.091-.1-.106a20.5,20.5,0,0,1,4.987,1.441q-.068.085-.128.169a19.842,19.842,0,0,0-4.966-1.452A.234.234,0,0,0,382.513,134.111Z" transform="translate(-373.607 -126.861)" fill="#21599c"/>
              <path id="Trazado_165650" data-name="Trazado 165650" d="M367.174,126.47c.09-.01.18.018.2.063a5,5,0,0,0,1.565,1.658,16.019,16.019,0,0,0,6.9,2.571.234.234,0,0,0-.213.052c-.021.031,0,.064.04.086a.215.215,0,0,0,.064.02,19.613,19.613,0,0,1-5.5-1.683,10.672,10.672,0,0,1-1.575-.953,5.056,5.056,0,0,1-1.615-1.715C367.027,126.526,367.083,126.481,367.174,126.47Z" transform="translate(-367.043 -123.619)" fill="#21599c"/>
              <path id="Trazado_165651" data-name="Trazado 165651" d="M382.109,134.054a.234.234,0,0,1,.213-.052c.088.015.134.062.1.106a.234.234,0,0,1-.213.052.214.214,0,0,1-.064-.02C382.106,134.118,382.088,134.085,382.109,134.054Z" transform="translate(-373.521 -126.858)" fill="#21599c"/>
            </g>
            <g id="Grupo_57871" data-name="Grupo 57871" transform="translate(13.257 6.342)">
              <g id="Grupo_57859" data-name="Grupo 57859">
                <path id="Trazado_165652" data-name="Trazado 165652" d="M392.419,133.653c-2.814,1.407-2.814,3.688,0,5.1a12.829,12.829,0,0,0,10.19,0c2.814-1.407,2.814-3.688,0-5.1A12.825,12.825,0,0,0,392.419,133.653Zm.3.15a12.068,12.068,0,0,1,9.588,0c2.648,1.324,2.648,3.471,0,4.794a12.068,12.068,0,0,1-9.588,0C390.072,137.274,390.072,135.127,392.72,133.8Z" transform="translate(-390.309 -132.598)" fill="#21599c"/>
              </g>
              <g id="Grupo_57860" data-name="Grupo 57860" transform="translate(2.513 1.257)">
                <path id="Trazado_165653" data-name="Trazado 165653" d="M396.094,135.491c-1.832.916-1.832,2.4,0,3.318a8.358,8.358,0,0,0,6.636,0c1.832-.916,1.832-2.4,0-3.318A8.349,8.349,0,0,0,396.094,135.491Zm.323.161a7.54,7.54,0,0,1,5.991,0c1.654.827,1.654,2.168,0,2.995a7.54,7.54,0,0,1-5.991,0C394.763,137.82,394.763,136.479,396.417,135.652Z" transform="translate(-394.72 -134.803)" fill="#21599c"/>
              </g>
              <g id="Grupo_57861" data-name="Grupo 57861" transform="translate(10.81 5.405)">
                <path id="Trazado_165654" data-name="Trazado 165654" d="M409.4,142.143c-.158.079-.158.207,0,.286a.723.723,0,0,0,.572,0c.158-.079.158-.207,0-.286A.718.718,0,0,0,409.4,142.143Z" transform="translate(-409.281 -142.084)" fill="#21599c"/>
              </g>
              <g id="Grupo_57862" data-name="Grupo 57862" transform="translate(2.792 1.397)">
                <path id="Trazado_165655" data-name="Trazado 165655" d="M395.328,135.107c-.158.079-.158.207,0,.286a.718.718,0,0,0,.572,0c.158-.079.158-.207,0-.286A.723.723,0,0,0,395.328,135.107Z" transform="translate(-395.209 -135.049)" fill="#21599c"/>
              </g>
              <g id="Grupo_57866" data-name="Grupo 57866" transform="translate(6.085 2.11)">
                <g id="Grupo_57863" data-name="Grupo 57863" transform="translate(3.298 1.649)">
                  <path id="Trazado_165656" data-name="Trazado 165656" d="M406.895,139.253c-.158.079-.158.207,0,.286a.72.72,0,0,0,.573,0c.158-.079.158-.207,0-.286A.72.72,0,0,0,406.895,139.253Z" transform="translate(-406.776 -139.194)" fill="#21599c"/>
                </g>
                <g id="Grupo_57864" data-name="Grupo 57864" transform="translate(1.649 0.824)">
                  <path id="Trazado_165657" data-name="Trazado 165657" d="M404,137.806c-.158.079-.158.207,0,.286a.718.718,0,0,0,.572,0c.158-.079.158-.207,0-.286A.718.718,0,0,0,404,137.806Z" transform="translate(-403.883 -137.747)" fill="#21599c"/>
                </g>
                <g id="Grupo_57865" data-name="Grupo 57865">
                  <path id="Trazado_165658" data-name="Trazado 165658" d="M401.107,136.359c-.158.079-.158.207,0,.286a.718.718,0,0,0,.572,0c.158-.079.158-.207,0-.286A.723.723,0,0,0,401.107,136.359Z" transform="translate(-400.988 -136.301)" fill="#21599c"/>
                </g>
              </g>
              <g id="Grupo_57870" data-name="Grupo 57870" transform="translate(4.031 3.137)">
                <g id="Grupo_57867" data-name="Grupo 57867" transform="translate(3.298 1.649)">
                  <path id="Trazado_165659" data-name="Trazado 165659" d="M403.29,141.056c-.158.079-.158.207,0,.286a.718.718,0,0,0,.572,0c.158-.079.158-.207,0-.286A.718.718,0,0,0,403.29,141.056Z" transform="translate(-403.171 -140.997)" fill="#21599c"/>
                </g>
                <g id="Grupo_57868" data-name="Grupo 57868" transform="translate(1.649 0.824)">
                  <path id="Trazado_165660" data-name="Trazado 165660" d="M400.4,139.609c-.158.079-.158.207,0,.286a.723.723,0,0,0,.572,0c.158-.079.158-.207,0-.286A.718.718,0,0,0,400.4,139.609Z" transform="translate(-400.277 -139.55)" fill="#21599c"/>
                </g>
                <g id="Grupo_57869" data-name="Grupo 57869">
                  <path id="Trazado_165661" data-name="Trazado 165661" d="M397.5,138.162c-.158.079-.158.207,0,.286a.718.718,0,0,0,.572,0c.158-.079.158-.207,0-.286A.718.718,0,0,0,397.5,138.162Z" transform="translate(-397.383 -138.103)" fill="#21599c"/>
                </g>
              </g>
            </g>
          </g>
          <g id="Grupo_57873" data-name="Grupo 57873" transform="translate(30.671 5.843)">
            <path id="Trazado_165662" data-name="Trazado 165662" d="M323.419,88.172l17.542,8.771.546-.273L323.965,87.9Z" transform="translate(-318.255 -87.899)" fill="#21599c"/>
            <path id="Trazado_165663" data-name="Trazado 165663" d="M320.4,89.683l17.542,8.771.546-.273L320.944,89.41Z" transform="translate(-316.955 -88.549)" fill="#21599c"/>
            <path id="Trazado_165664" data-name="Trazado 165664" d="M317.377,91.193l17.542,8.771.546-.273-17.542-8.771Z" transform="translate(-315.655 -89.199)" fill="#21599c"/>
            <path id="Trazado_165665" data-name="Trazado 165665" d="M314.355,92.7l17.542,8.771.546-.273L314.9,92.431Z" transform="translate(-314.355 -89.849)" fill="#21599c"/>
          </g>
          <g id="Grupo_57874" data-name="Grupo 57874" transform="translate(53.279 35.774)">
            <path id="Trazado_165666" data-name="Trazado 165666" d="M363.1,140.7l17.542,8.771.546-.273-17.542-8.771Z" transform="translate(-357.933 -140.428)" fill="#21599c"/>
            <path id="Trazado_165667" data-name="Trazado 165667" d="M360.076,142.212l17.542,8.771.546-.273-17.542-8.771Z" transform="translate(-356.633 -141.078)" fill="#21599c"/>
            <path id="Trazado_165668" data-name="Trazado 165668" d="M357.055,143.722l17.542,8.771.546-.273L357.6,143.449Z" transform="translate(-355.334 -141.728)" fill="#21599c"/>
            <path id="Trazado_165669" data-name="Trazado 165669" d="M354.034,145.233,371.576,154l.546-.273L354.58,144.96Z" transform="translate(-354.034 -142.378)" fill="#21599c"/>
          </g>
          <g id="Grupo_57875" data-name="Grupo 57875" transform="translate(14.452 18.709)">
            <path id="Trazado_165670" data-name="Trazado 165670" d="M331.924,134.9l.4.2,2.816-1.408-.4-.2Z" transform="translate(-305.694 -120.381)" fill="#21599c"/>
            <path id="Trazado_165671" data-name="Trazado 165671" d="M329.923,133.9l.4.2,2.816-1.408-.4-.2Z" transform="translate(-304.833 -119.95)" fill="#21599c"/>
            <path id="Trazado_165672" data-name="Trazado 165672" d="M327.921,133.568l.4.2,1.053-.526-.4-.2Z" transform="translate(-303.972 -120.186)" fill="#21599c"/>
            <path id="Trazado_165673" data-name="Trazado 165673" d="M325.92,132.567l.4.2,1.053-.526-.4-.2Z" transform="translate(-303.111 -119.755)" fill="#21599c"/>
            <path id="Trazado_165674" data-name="Trazado 165674" d="M323.918,131.567l.4.2,1.053-.526-.4-.2Z" transform="translate(-302.25 -119.324)" fill="#21599c"/>
            <path id="Trazado_165675" data-name="Trazado 165675" d="M321.917,130.566l.4.2,1.053-.526-.4-.2Z" transform="translate(-301.389 -118.894)" fill="#21599c"/>
            <path id="Trazado_165676" data-name="Trazado 165676" d="M319.915,129.565l.4.2,1.053-.526-.4-.2Z" transform="translate(-300.528 -118.463)" fill="#21599c"/>
            <path id="Trazado_165677" data-name="Trazado 165677" d="M317.914,128.564l.4.2,1.053-.526-.4-.2Z" transform="translate(-299.667 -118.033)" fill="#21599c"/>
            <path id="Trazado_165678" data-name="Trazado 165678" d="M315.912,126.9l.4.2,2.816-1.408-.4-.2Z" transform="translate(-298.806 -116.937)" fill="#21599c"/>
            <path id="Trazado_165679" data-name="Trazado 165679" d="M313.911,125.9l.4.2,2.816-1.408-.4-.2Z" transform="translate(-297.945 -116.506)" fill="#21599c"/>
            <path id="Trazado_165680" data-name="Trazado 165680" d="M311.909,125.562l.4.2,1.053-.526-.4-.2Z" transform="translate(-297.084 -116.741)" fill="#21599c"/>
            <path id="Trazado_165681" data-name="Trazado 165681" d="M309.908,124.561l.4.2,1.053-.526-.4-.2Z" transform="translate(-296.223 -116.311)" fill="#21599c"/>
            <path id="Trazado_165682" data-name="Trazado 165682" d="M307.906,122.895l.4.2,2.816-1.408-.4-.2Z" transform="translate(-295.362 -115.214)" fill="#21599c"/>
            <path id="Trazado_165683" data-name="Trazado 165683" d="M305.9,122.56l.4.2,1.053-.526-.4-.2Z" transform="translate(-294.501 -115.45)" fill="#21599c"/>
            <path id="Trazado_165684" data-name="Trazado 165684" d="M303.9,120.893l.4.2,2.816-1.408-.4-.2Z" transform="translate(-293.64 -114.353)" fill="#21599c"/>
            <path id="Trazado_165685" data-name="Trazado 165685" d="M301.9,119.893l.4.2,2.816-1.408-.4-.2Z" transform="translate(-292.779 -113.923)" fill="#21599c"/>
            <path id="Trazado_165686" data-name="Trazado 165686" d="M299.9,118.892l.4.2,2.816-1.408-.4-.2Z" transform="translate(-291.918 -113.492)" fill="#21599c"/>
            <path id="Trazado_165687" data-name="Trazado 165687" d="M297.9,117.891l.4.2,2.816-1.408-.4-.2Z" transform="translate(-291.056 -113.062)" fill="#21599c"/>
            <path id="Trazado_165688" data-name="Trazado 165688" d="M295.9,117.556l.4.2,1.053-.526-.4-.2Z" transform="translate(-290.195 -113.297)" fill="#21599c"/>
            <path id="Trazado_165689" data-name="Trazado 165689" d="M293.9,116.556l.4.2,1.053-.526-.4-.2Z" transform="translate(-289.334 -112.867)" fill="#21599c"/>
            <path id="Trazado_165690" data-name="Trazado 165690" d="M291.895,115.555l.4.2,1.053-.526-.4-.2Z" transform="translate(-288.473 -112.436)" fill="#21599c"/>
            <path id="Trazado_165691" data-name="Trazado 165691" d="M289.893,114.554l.4.2,1.053-.526-.4-.2Z" transform="translate(-287.612 -112.006)" fill="#21599c"/>
            <path id="Trazado_165692" data-name="Trazado 165692" d="M287.892,113.553l.4.2,1.053-.526-.4-.2Z" transform="translate(-286.751 -111.575)" fill="#21599c"/>
            <path id="Trazado_165693" data-name="Trazado 165693" d="M285.89,111.887l.4.2,2.816-1.408-.4-.2Z" transform="translate(-285.89 -110.479)" fill="#21599c"/>
          </g>
        </g>
      </g>
      <path id="Sustracción_5" data-name="Sustracción 5" d="M8503.715,11824.521h0l-38.631-19.327c15.3-14.187,37.465-34.7,64.1-59.33,12.336-5.564,25.556-11,25.687-11.057l12.153,6.078,5.772-2.614,51.531,25.782v.725l-7.652,3.464-6.036,13.844-30.934,16.849c-3.982,2.169-8.077,4.234-12.171,6.138l-41.146,19.137-20.925-.564-1.744.877Z" transform="translate(-8336.024 -11535.766)" stroke="rgba(0,0,0,0)" stroke-miterlimit="10" stroke-width="1" opacity="0.1"/>
      <g id="Grupo_57850" data-name="Grupo 57850" transform="translate(80.333 176.536)">
        <g id="Grupo_57838" data-name="Grupo 57838">
          <g id="Grupo_57837" data-name="Grupo 57837">
            <path id="Trazado_165522" data-name="Trazado 165522" d="M524.856,278.221l-38.3,19.152L463.414,285.8l-98.656,45.74L426.2,359.718,474.38,337.31q7.239-3.367,14.254-7.188l36.222-19.732,10.932-23.737V285.8Z" transform="translate(-343.171 -247.5)" fill="#f3c456"/>
            <path id="Trazado_165523" data-name="Trazado 165523" d="M442.74,399.925l11.715,12.666L429.8,402.809Z" transform="translate(-371.426 -300.373)" fill="#dea24e"/>
            <path id="Trazado_165524" data-name="Trazado 165524" d="M464.4,405.331l3.065-22.117-14.78,9.451Z" transform="translate(-381.368 -293.113)" fill="#edb654"/>
            <path id="Trazado_165525" data-name="Trazado 165525" d="M644.88,316.867l-3.848-18.507,14.78-5.23Z" transform="translate(-463.195 -253.977)" fill="#edb654"/>
            <g id="Grupo_57835" data-name="Grupo 57835" transform="translate(132.271 4.058)">
              <path id="Trazado_165526" data-name="Trazado 165526" d="M560.465,236.634l60.345,30.189,8.964-4.057v-.849l-60.345-29.34-8.964,3.208Z" transform="translate(-560.465 -231.728)" fill="#bf8b43"/>
              <path id="Trazado_165527" data-name="Trazado 165527" d="M560.465,235.133l60.345,30.189,8.964-4.057-60.345-30.189Z" transform="translate(-560.465 -231.075)" fill="#ffe092"/>
            </g>
            <path id="Trazado_165528" data-name="Trazado 165528" d="M452.682,346.2v.849l14.78-9.451,91.744-45.718,14.78-5.23V285.8l-10.932-7.583-92.546,33.542Z" transform="translate(-381.368 -247.5)" fill="#bf8b43"/>
            <g id="Grupo_57836" data-name="Grupo 57836" transform="translate(0 68.514)">
              <path id="Trazado_165529" data-name="Trazado 165529" d="M326.588,352.047l60.345,30.189,10.968-5.5v-.849l-60.345-29.34L326.588,351.2Z" transform="translate(-326.588 -345.696)" fill="#bf8b43"/>
              <path id="Trazado_165530" data-name="Trazado 165530" d="M326.588,350.546l60.345,30.189,10.968-5.5-60.345-30.189Z" transform="translate(-326.588 -345.044)" fill="#ffe092"/>
            </g>
            <path id="Trazado_165531" data-name="Trazado 165531" d="M364.758,273.229,426.2,303.95l30.324-17.28a368.515,368.515,0,0,1,35.445-17.743l32.887-14.305L463.414,223.9s-30.311,12.453-46.385,20.683C399.342,253.64,364.758,273.229,364.758,273.229Z" transform="translate(-343.171 -223.901)" fill="#ffcf5a"/>
            <path id="Trazado_165532" data-name="Trazado 165532" d="M345.982,330.307,356.6,311.121l61.442,30.721L406.327,360.5Z" transform="translate(-335.014 -261.793)" fill="#f3b63d"/>
          </g>
          <path id="Trazado_165533" data-name="Trazado 165533" d="M405.893,365.827l5.16-3.156a5.325,5.325,0,0,0,1.9-2.009l9.381-17.368a2.79,2.79,0,0,1,1.006-1.059l7.735-4.706,6.014,2.759-7.97,5.071a2.8,2.8,0,0,0-.934.986l-9.713,17.24a5.326,5.326,0,0,1-1.709,1.831l-4.969,3.272Z" transform="translate(-361.041 -273.266)" fill="#50994b"/>
        </g>
        <g id="Grupo_57842" data-name="Grupo 57842" transform="translate(81.444 50.22)">
          <path id="Trazado_165534" data-name="Trazado 165534" d="M482.144,330.1l-11.264-5.632c-.381-.191-.381-.5,0-.691l21.874-10.937a1.738,1.738,0,0,1,1.381,0l11.264,5.632c.381.191.381.5,0,.691L483.525,330.1A1.738,1.738,0,0,1,482.144,330.1Z" transform="translate(-470.594 -312.697)" fill="#2c323d"/>
          <path id="Trazado_165535" data-name="Trazado 165535" d="M505.146,319.581l-20.784,10.392a1.737,1.737,0,0,1-1.381,0l-10.174-5.087c-.381-.191-.381-.5,0-.691L493.591,313.8a1.738,1.738,0,0,1,1.381,0l10.174,5.087C505.527,319.082,505.527,319.391,505.146,319.581Z" transform="translate(-471.432 -313.116)" fill="#fff"/>
          <g id="Grupo_57841" data-name="Grupo 57841" transform="translate(3.629 1.824)">
            <g id="Grupo_57839" data-name="Grupo 57839" transform="translate(0 4.751)">
              <path id="Trazado_165536" data-name="Trazado 165536" d="M486.893,336.38l-.8.4-9.084-4.542.8-.4Z" transform="translate(-477.01 -327.587)" fill="#2c323d"/>
              <path id="Trazado_165537" data-name="Trazado 165537" d="M495.31,332.172l-.8.4-9.084-4.542.8-.4Z" transform="translate(-480.667 -325.759)" fill="#2c323d"/>
              <path id="Trazado_165538" data-name="Trazado 165538" d="M496.724,331.674l-.254.127-9.084-4.542.254-.127Z" transform="translate(-481.518 -325.543)" fill="#2c323d"/>
              <path id="Trazado_165539" data-name="Trazado 165539" d="M497.656,331.209l-.254.127-9.084-4.542.254-.127Z" transform="translate(-481.923 -325.341)" fill="#2c323d"/>
              <path id="Trazado_165540" data-name="Trazado 165540" d="M502.346,328.864l-.254.127-9.084-4.542.254-.127Z" transform="translate(-483.96 -324.322)" fill="#2c323d"/>
              <path id="Trazado_165541" data-name="Trazado 165541" d="M488.742,335.609l-.4.2-9.084-4.542.4-.2Z" transform="translate(-477.987 -327.252)" fill="#2c323d"/>
              <path id="Trazado_165542" data-name="Trazado 165542" d="M499.325,330.165l-.8.4-9.084-4.542.8-.4Z" transform="translate(-482.411 -324.887)" fill="#2c323d"/>
              <path id="Trazado_165543" data-name="Trazado 165543" d="M501.174,329.394l-.4.2-9.084-4.542.4-.2Z" transform="translate(-483.388 -324.552)" fill="#2c323d"/>
              <path id="Trazado_165544" data-name="Trazado 165544" d="M490.284,334.838l-.4.2L480.8,330.5l.4-.2Z" transform="translate(-478.657 -326.918)" fill="#2c323d"/>
              <path id="Trazado_165545" data-name="Trazado 165545" d="M491.826,334.068l-.4.2-9.084-4.542.4-.2Z" transform="translate(-479.327 -326.583)" fill="#2c323d"/>
              <path id="Trazado_165546" data-name="Trazado 165546" d="M493.368,333.3l-.4.2-9.084-4.542.4-.2Z" transform="translate(-479.997 -326.248)" fill="#2c323d"/>
            </g>
            <g id="Grupo_57840" data-name="Grupo 57840" transform="translate(9.502)">
              <path id="Trazado_165547" data-name="Trazado 165547" d="M508.844,316.321l.8-.4,9.084,4.542-.8.4Z" transform="translate(-500.342 -315.922)" fill="#2c323d"/>
              <path id="Trazado_165548" data-name="Trazado 165548" d="M500.428,320.529l.8-.4,9.084,4.542-.8.4Z" transform="translate(-496.685 -317.75)" fill="#2c323d"/>
              <path id="Trazado_165549" data-name="Trazado 165549" d="M499.432,321.237l.254-.127,9.084,4.542-.254.127Z" transform="translate(-496.253 -318.175)" fill="#2c323d"/>
              <path id="Trazado_165550" data-name="Trazado 165550" d="M498.5,321.7l.254-.127,9.084,4.542-.254.127Z" transform="translate(-495.848 -318.378)" fill="#2c323d"/>
              <path id="Trazado_165551" data-name="Trazado 165551" d="M493.811,324.047l.254-.127,9.084,4.542-.254.127Z" transform="translate(-493.811 -319.397)" fill="#2c323d"/>
              <path id="Trazado_165552" data-name="Trazado 165552" d="M507.3,317.246l.4-.2,9.084,4.542-.4.2Z" transform="translate(-499.672 -316.41)" fill="#2c323d"/>
              <path id="Trazado_165553" data-name="Trazado 165553" d="M496.413,322.537l.8-.4,9.084,4.542-.8.4Z" transform="translate(-494.941 -318.622)" fill="#2c323d"/>
              <path id="Trazado_165554" data-name="Trazado 165554" d="M494.871,323.462l.4-.2,9.084,4.542-.4.2Z" transform="translate(-494.271 -319.11)" fill="#2c323d"/>
              <path id="Trazado_165555" data-name="Trazado 165555" d="M505.76,318.017l.4-.2,9.084,4.542-.4.2Z" transform="translate(-499.002 -316.745)" fill="#2c323d"/>
              <path id="Trazado_165556" data-name="Trazado 165556" d="M504.218,318.788l.4-.2,9.084,4.542-.4.2Z" transform="translate(-498.332 -317.08)" fill="#2c323d"/>
              <path id="Trazado_165557" data-name="Trazado 165557" d="M502.677,319.559l.4-.2,9.084,4.542-.4.2Z" transform="translate(-497.662 -317.415)" fill="#2c323d"/>
            </g>
          </g>
        </g>
        <g id="Grupo_57845" data-name="Grupo 57845" transform="translate(92.311 5.636)">
          <path id="Trazado_165558" data-name="Trazado 165558" d="M505.78,253.514,490.1,245.637c-.382-.191-.382-.5,0-.691l21.873-10.937a1.74,1.74,0,0,1,1.381,0l15.685,7.877c.381.191.381.5,0,.691l-21.874,10.937A1.74,1.74,0,0,1,505.78,253.514Z" transform="translate(-489.809 -233.866)" fill="#961010"/>
          <path id="Trazado_165559" data-name="Trazado 165559" d="M528.782,243,508,253.387a1.738,1.738,0,0,1-1.381,0l-14.6-7.332c-.381-.191-.381-.5,0-.691l20.783-10.392a1.739,1.739,0,0,1,1.381,0l14.595,7.332C529.163,242.5,529.163,242.805,528.782,243Z" transform="translate(-490.646 -234.285)" fill="#fff"/>
          <g id="Grupo_57843" data-name="Grupo 57843" transform="translate(3.185 2.541)">
            <path id="Trazado_165560" data-name="Trazado 165560" d="M513.8,238.6l-17.87,8.935-.493-.246,17.87-8.935Z" transform="translate(-495.44 -238.359)" fill="#2c323d"/>
            <path id="Trazado_165561" data-name="Trazado 165561" d="M515.861,239.634l-17.87,8.935-.493-.246,17.87-8.935Z" transform="translate(-496.334 -238.806)" fill="#2c323d"/>
            <path id="Trazado_165562" data-name="Trazado 165562" d="M517.92,240.664,500.05,249.6l-.493-.246,17.87-8.935Z" transform="translate(-497.229 -239.253)" fill="#2c323d"/>
            <path id="Trazado_165563" data-name="Trazado 165563" d="M519.979,241.693l-17.87,8.935-.493-.246,17.87-8.935Z" transform="translate(-498.123 -239.7)" fill="#2c323d"/>
            <path id="Trazado_165564" data-name="Trazado 165564" d="M522.038,242.723l-17.87,8.935-.493-.246,17.87-8.935Z" transform="translate(-499.018 -240.148)" fill="#2c323d"/>
          </g>
          <g id="Grupo_57844" data-name="Grupo 57844" transform="translate(9.986 5.117)">
            <path id="Trazado_165565" data-name="Trazado 165565" d="M540.341,245.383l-11.264,5.632-.493-.246,11.264-5.632Z" transform="translate(-516.641 -243.879)" fill="#2c323d"/>
            <path id="Trazado_165566" data-name="Trazado 165566" d="M542.4,246.412l-11.264,5.632-.493-.246,11.264-5.632Z" transform="translate(-517.535 -244.326)" fill="#2c323d"/>
            <path id="Trazado_165567" data-name="Trazado 165567" d="M544.459,247.442,533.2,253.073l-.493-.246,11.264-5.632Z" transform="translate(-518.43 -244.774)" fill="#2c323d"/>
            <path id="Trazado_165568" data-name="Trazado 165568" d="M527.815,242.913l-20.348,10.174.264.132,20.348-10.174Z" transform="translate(-507.466 -242.913)" fill="#961010"/>
          </g>
        </g>
        <g id="Grupo_57849" data-name="Grupo 57849" transform="translate(27.984 41.955)">
          <path id="Trazado_165569" data-name="Trazado 165569" d="M389.459,298.265l.018-.009-.905-.167c-.145-.027-.286.042-.235.115l.323.46-.906-.167c-.145-.027-.286.042-.235.115l.324.46-.906-.167c-.145-.027-.286.042-.235.116l.323.46-.906-.167c-.146-.027-.287.042-.235.115l.323.46-.905-.167c-.146-.027-.286.042-.235.115l.323.46-.906-.167c-.145-.027-.286.042-.235.115l.324.46-.906-.167c-.145-.027-.286.042-.235.115l.323.46-.905-.167c-.146-.027-.287.042-.235.116l.323.46-.905-.167c-.146-.027-.286.042-.235.115l.323.46-.905-.167c-.145-.027-.286.042-.235.115l.323.46-.906-.167c-.145-.027-.286.042-.235.116l.324.46-.906-.167c-.145-.027-.286.042-.235.115l.323.46-.905-.167c-.146-.027-.287.042-.235.116l.324.46-.905-.167c-.146-.027-.286.042-.235.115l.323.46-.906-.167c-.145-.027-.286.042-.235.115l.324.46-.906-.167c-.145-.027-.286.042-.235.116l.323.46,22.5,11.251.906.167c.146.027.287-.042.235-.115l-.323-.46.905.167c.145.027.286-.042.235-.116l-.323-.46.906.167c.145.027.286-.042.235-.115l-.323-.46.906.167c.145.027.286-.042.235-.116l-.323-.46.906.167c.146.027.287-.042.235-.115l-.323-.46.905.167c.146.027.286-.042.235-.115l-.324-.46.906.167c.145.027.286-.042.235-.116l-.323-.46.906.167c.145.027.286-.042.235-.115l-.324-.46.906.167c.145.027.286-.042.235-.115l-.323-.46.905.167c.146.027.287-.042.235-.116l-.324-.46.906.167c.145.027.286-.042.235-.115l-.324-.46.906.167c.145.027.286-.042.235-.116l-.323-.46.906.167c.145.027.286-.042.235-.115l-.323-.46.905.167c.146.027.287-.042.235-.115l-.324-.46.905.167c.146.027.286-.042.235-.115l-.323-.46.906.167c.145.027.286-.042.235-.115l-.324-.46-.018.009Z" transform="translate(-376.069 -298.083)" fill="#fff"/>
          <g id="Grupo_57847" data-name="Grupo 57847" transform="translate(15.882 7.947)">
            <path id="Trazado_165570" data-name="Trazado 165570" d="M406.09,313.1c-2.586,1.293-2.586,3.389,0,4.682a11.788,11.788,0,0,0,9.364,0c2.586-1.293,2.586-3.389,0-4.682A11.788,11.788,0,0,0,406.09,313.1ZM415,317.561a10.656,10.656,0,0,1-8.464,0c-2.338-1.168-2.338-3.063,0-4.232a10.656,10.656,0,0,1,8.464,0C417.342,314.5,417.342,316.393,415,317.561Z" transform="translate(-404.151 -312.134)" fill="#259940"/>
            <g id="Grupo_57846" data-name="Grupo 57846" transform="translate(1.588 0.794)">
              <path id="Trazado_165571" data-name="Trazado 165571" d="M407.456,316.75l-.5-.249,5.925-2.962.5.249Z" transform="translate(-406.958 -313.538)" fill="#259940"/>
              <path id="Trazado_165572" data-name="Trazado 165572" d="M409.727,317.885l-.5-.249,5.925-2.962.5.249Z" transform="translate(-407.945 -314.032)" fill="#259940"/>
              <path id="Trazado_165573" data-name="Trazado 165573" d="M412,319.021l-.5-.249,5.925-2.962.5.249Z" transform="translate(-408.931 -314.525)" fill="#259940"/>
              <path id="Trazado_165574" data-name="Trazado 165574" d="M414.269,320.156l-.5-.249,5.925-2.962.5.249Z" transform="translate(-409.918 -315.018)" fill="#259940"/>
            </g>
          </g>
          <g id="Grupo_57848" data-name="Grupo 57848" transform="translate(7.185 1.797)">
            <path id="Trazado_165575" data-name="Trazado 165575" d="M389.27,305.013l-.5-.249,7.005-3.5.5.249Z" transform="translate(-388.772 -301.261)" fill="#259940"/>
            <path id="Trazado_165576" data-name="Trazado 165576" d="M391.541,306.148l-.5-.249,7.005-3.5.5.249Z" transform="translate(-389.759 -301.754)" fill="#259940"/>
            <path id="Trazado_165577" data-name="Trazado 165577" d="M393.812,307.284l-.5-.249,7.005-3.5.5.249Z" transform="translate(-390.745 -302.248)" fill="#259940"/>
            <path id="Trazado_165578" data-name="Trazado 165578" d="M396.083,308.419l-.5-.249,7.005-3.5.5.249Z" transform="translate(-391.732 -302.741)" fill="#259940"/>
          </g>
        </g>
      </g>
      <g id="Grupo_57834" data-name="Grupo 57834" transform="translate(0 111.802)">
        <g id="Grupo_57833" data-name="Grupo 57833">
          <g id="Grupo_57825" data-name="Grupo 57825">
            <g id="Grupo_57821" data-name="Grupo 57821" transform="translate(0 0.267)">
              <g id="Grupo_57820" data-name="Grupo 57820">
                <path id="Trazado_165481" data-name="Trazado 165481" d="M17.394,298.65l50.991-25.5a2.65,2.65,0,0,1,2.1,0l106.7,53.349a1.259,1.259,0,0,1,.124.076l-.195-.289.5-.068V327c.016.2-.124.4-.43.556l-50.992,25.5a2.648,2.648,0,0,1-2.1,0L17.394,299.7C16.813,299.411,16.813,298.94,17.394,298.65Z" transform="translate(-16.958 -272.129)" fill="#bf8b43"/>
                <path id="Trazado_165482" data-name="Trazado 165482" d="M177.2,326.09l-50.992,25.5a2.648,2.648,0,0,1-2.1,0L17.4,298.236c-.581-.291-.55-.776,0-1.052l50.991-25.5a2.65,2.65,0,0,1,2.1,0l106.7,53.349C177.779,325.328,177.779,325.8,177.2,326.09Z" transform="translate(-16.967 -271.47)" fill="#ffcf5a"/>
              </g>
              <path id="Trazado_165483" data-name="Trazado 165483" d="M97.251,308.915,189.218,354.9l.421-.211L97.672,308.7Z" transform="translate(-53.054 -288.209)" fill="#f29c00"/>
            </g>
            <g id="Grupo_57824" data-name="Grupo 57824">
              <g id="Grupo_57822" data-name="Grupo 57822">
                <path id="Trazado_165484" data-name="Trazado 165484" d="M88.191,284.179,70.61,272.6a2.038,2.038,0,0,0-2.1,0L43.018,285.347,17.53,298.091s-.282-.326-.446-.159l-.114-.094-.012,1.069h0c.008.153.163.031.572.236l24.462,8.736a5.368,5.368,0,0,0,3.826-.158l20.974-10.487,20.974-10.487A1.561,1.561,0,0,0,88.191,284.179Z" transform="translate(-16.958 -271.586)" fill="#bf8b43"/>
                <path id="Trazado_165485" data-name="Trazado 165485" d="M68.515,271.265,43.027,284.009,17.539,296.753s-1.262.421,0,1.052L42,306.541a5.368,5.368,0,0,0,3.826-.158L66.8,295.9l20.974-10.487c1.027-.514,1.16-1.322.317-1.913L70.619,271.265A2.038,2.038,0,0,0,68.515,271.265Z" transform="translate(-16.967 -270.984)" fill="#ffe092"/>
              </g>
              <g id="Grupo_57823" data-name="Grupo 57823" transform="translate(47.168 20.396)">
                <path id="Trazado_165486" data-name="Trazado 165486" d="M106.74,308.388a1.2,1.2,0,0,1,0,2.18,4.27,4.27,0,0,1-3.39,0,1.2,1.2,0,0,1,0-2.18A4.27,4.27,0,0,1,106.74,308.388Z" transform="translate(-102.648 -308.037)" fill="#b3b3b3"/>
                <ellipse id="Elipse_4161" data-name="Elipse 4161" cx="2.397" cy="1.199" rx="2.397" ry="1.199" fill="#fff"/>
              </g>
            </g>
          </g>
          <g id="Grupo_57828" data-name="Grupo 57828" transform="translate(14.514 18.178)">
            <path id="Trazado_165487" data-name="Trazado 165487" d="M54.364,317.588l-10.842-5.444c-.264-.132-.264-.346,0-.477l15.119-7.559a1.2,1.2,0,0,1,.954,0l10.842,5.444c.264.132.264.346,0,.477l-15.119,7.559A1.2,1.2,0,0,1,54.364,317.588Z" transform="translate(-43.325 -304.008)" fill="#962823"/>
            <path id="Trazado_165488" data-name="Trazado 165488" d="M70.3,310.337l-14.365,7.183a1.2,1.2,0,0,1-.954,0l-10.089-5.068c-.263-.132-.263-.346,0-.477l14.366-7.183a1.2,1.2,0,0,1,.954,0L70.3,309.859C70.563,309.991,70.563,310.205,70.3,310.337Z" transform="translate(-43.94 -304.316)" fill="#fff"/>
            <g id="Grupo_57826" data-name="Grupo 57826" transform="translate(2.201 1.756)">
              <path id="Trazado_165489" data-name="Trazado 165489" d="M60.016,307.368l-12.352,6.176-.341-.17L59.675,307.2Z" transform="translate(-47.323 -307.198)" fill="#2c323d"/>
              <path id="Trazado_165490" data-name="Trazado 165490" d="M61.478,308.1l-12.352,6.176-.341-.17,12.352-6.176Z" transform="translate(-47.981 -307.527)" fill="#2c323d"/>
              <path id="Trazado_165491" data-name="Trazado 165491" d="M62.94,308.831l-12.352,6.176-.341-.17L62.6,308.66Z" transform="translate(-48.638 -307.856)" fill="#2c323d"/>
              <path id="Trazado_165492" data-name="Trazado 165492" d="M64.4,309.562l-12.352,6.176-.341-.17,12.352-6.176Z" transform="translate(-49.295 -308.184)" fill="#2c323d"/>
              <path id="Trazado_165493" data-name="Trazado 165493" d="M65.864,310.293l-12.352,6.176-.341-.17,12.352-6.176Z" transform="translate(-49.953 -308.513)" fill="#2c323d"/>
            </g>
            <g id="Grupo_57827" data-name="Grupo 57827" transform="translate(6.902 3.537)">
              <path id="Trazado_165494" data-name="Trazado 165494" d="M78.988,312.182,71.2,316.075l-.341-.17,7.786-3.893Z" transform="translate(-62.607 -311.143)" fill="#2c323d"/>
              <path id="Trazado_165495" data-name="Trazado 165495" d="M80.451,312.913l-7.786,3.893-.341-.17,7.786-3.893Z" transform="translate(-63.264 -311.471)" fill="#2c323d"/>
              <path id="Trazado_165496" data-name="Trazado 165496" d="M81.913,313.644l-7.786,3.893-.341-.17,7.786-3.893Z" transform="translate(-63.921 -311.8)" fill="#2c323d"/>
              <path id="Trazado_165497" data-name="Trazado 165497" d="M69.929,310.433l-14.065,7.032.183.091,14.065-7.032Z" transform="translate(-55.864 -310.433)" fill="#961010"/>
            </g>
          </g>
          <g id="Grupo_57832" data-name="Grupo 57832" transform="translate(126.957 49.885)">
            <path id="Trazado_165498" data-name="Trazado 165498" d="M255.647,373.733,247.8,369.81c-.266-.133-.266-.348,0-.481l15.238-7.619a1.212,1.212,0,0,1,.962,0l7.847,3.924c.265.133.265.348,0,.481l-15.238,7.619A1.208,1.208,0,0,1,255.647,373.733Z" transform="translate(-247.601 -361.61)" fill="#2c323d"/>
            <path id="Trazado_165499" data-name="Trazado 165499" d="M271.708,366.425l-14.478,7.239a1.208,1.208,0,0,1-.962,0l-7.087-3.544c-.266-.133-.266-.348,0-.481l14.478-7.24a1.212,1.212,0,0,1,.962,0l7.088,3.544C271.974,366.076,271.974,366.291,271.708,366.425Z" transform="translate(-248.221 -361.92)" fill="#fff"/>
            <g id="Grupo_57831" data-name="Grupo 57831" transform="translate(2.528 1.27)">
              <g id="Grupo_57829" data-name="Grupo 57829" transform="translate(0 3.31)">
                <path id="Trazado_165500" data-name="Trazado 165500" d="M259.079,378.475l-.557.278-6.328-3.164.557-.278Z" transform="translate(-252.194 -372.349)" fill="#2c323d"/>
                <path id="Trazado_165501" data-name="Trazado 165501" d="M265.1,375.463l-.557.278-6.328-3.164.557-.278Z" transform="translate(-254.902 -370.995)" fill="#2c323d"/>
                <path id="Trazado_165502" data-name="Trazado 165502" d="M266.126,375.107l-.177.089-6.328-3.164.177-.089Z" transform="translate(-255.532 -370.835)" fill="#2c323d"/>
                <path id="Trazado_165503" data-name="Trazado 165503" d="M266.792,374.773l-.177.089-6.328-3.164.177-.089Z" transform="translate(-255.832 -370.685)" fill="#2c323d"/>
                <path id="Trazado_165504" data-name="Trazado 165504" d="M270.149,373.095l-.177.089-6.328-3.164.177-.089Z" transform="translate(-257.341 -369.931)" fill="#2c323d"/>
                <path id="Trazado_165505" data-name="Trazado 165505" d="M260.41,377.923l-.278.139L253.8,374.9l.278-.139Z" transform="translate(-252.917 -372.101)" fill="#2c323d"/>
                <path id="Trazado_165506" data-name="Trazado 165506" d="M267.977,374.026l-.557.278-6.328-3.164.557-.278Z" transform="translate(-256.194 -370.349)" fill="#2c323d"/>
                <path id="Trazado_165507" data-name="Trazado 165507" d="M269.308,373.474l-.279.139-6.328-3.164.278-.139Z" transform="translate(-256.917 -370.101)" fill="#2c323d"/>
                <path id="Trazado_165508" data-name="Trazado 165508" d="M261.513,377.371l-.278.139-6.328-3.164.278-.139Z" transform="translate(-253.413 -371.853)" fill="#2c323d"/>
                <path id="Trazado_165509" data-name="Trazado 165509" d="M262.617,376.819l-.278.139-6.328-3.164.278-.139Z" transform="translate(-253.91 -371.605)" fill="#2c323d"/>
                <path id="Trazado_165510" data-name="Trazado 165510" d="M263.721,376.268l-.278.139-6.328-3.164.278-.139Z" transform="translate(-254.406 -371.357)" fill="#2c323d"/>
              </g>
              <g id="Grupo_57830" data-name="Grupo 57830" transform="translate(6.619)">
                <path id="Trazado_165511" data-name="Trazado 165511" d="M274.979,364.2l.557-.278,6.328,3.164-.557.278Z" transform="translate(-269.056 -363.918)" fill="#2c323d"/>
                <path id="Trazado_165512" data-name="Trazado 165512" d="M268.955,367.209l.557-.278,6.328,3.164-.557.278Z" transform="translate(-266.348 -365.272)" fill="#2c323d"/>
                <path id="Trazado_165513" data-name="Trazado 165513" d="M268.242,367.72l.177-.089,6.328,3.164-.177.089Z" transform="translate(-266.028 -365.587)" fill="#2c323d"/>
                <path id="Trazado_165514" data-name="Trazado 165514" d="M267.576,368.053l.177-.089,6.328,3.164-.177.089Z" transform="translate(-265.728 -365.737)" fill="#2c323d"/>
                <path id="Trazado_165515" data-name="Trazado 165515" d="M264.219,369.732l.177-.089,6.328,3.164-.177.089Z" transform="translate(-264.219 -366.492)" fill="#2c323d"/>
                <path id="Trazado_165516" data-name="Trazado 165516" d="M273.876,364.862l.278-.139,6.328,3.164-.278.139Z" transform="translate(-268.56 -364.28)" fill="#2c323d"/>
                <path id="Trazado_165517" data-name="Trazado 165517" d="M266.081,368.646l.557-.278,6.328,3.164-.557.278Z" transform="translate(-265.056 -365.918)" fill="#2c323d"/>
                <path id="Trazado_165518" data-name="Trazado 165518" d="M264.977,369.311l.278-.139,6.328,3.164-.279.139Z" transform="translate(-264.56 -366.28)" fill="#2c323d"/>
                <path id="Trazado_165519" data-name="Trazado 165519" d="M272.772,365.414l.278-.139,6.328,3.164-.278.139Z" transform="translate(-268.064 -364.528)" fill="#2c323d"/>
                <path id="Trazado_165520" data-name="Trazado 165520" d="M271.668,365.966l.278-.139,6.328,3.164-.278.139Z" transform="translate(-267.568 -364.776)" fill="#2c323d"/>
                <path id="Trazado_165521" data-name="Trazado 165521" d="M270.565,366.518l.278-.139,6.328,3.164-.278.139Z" transform="translate(-267.072 -365.024)" fill="#2c323d"/>
              </g>
            </g>
          </g>
        </g>
      </g>
      <path id="Trazado_165698" data-name="Trazado 165698" d="M78.958,143.515l-1.867,2.667,102.667,54.4,106.133-54.4-40.534-17.867Z" transform="translate(-16.958 -52.414)" fill="#272727" opacity="0.14"/>
      <path id="Trazado_165699" data-name="Trazado 165699" d="M78.958,143.515l-1.867,2.667,75.1,38.345,41.333-21.067-74.934-40Z" transform="translate(106.807 -0.959)" fill="#272727" opacity="0.14"/>
      <g id="Grupo_57819" data-name="Grupo 57819" transform="translate(64.474 -50.566)">
        <g id="Grupo_57802" data-name="Grupo 57802" transform="translate(0)">
          <g id="Grupo_57801" data-name="Grupo 57801">
            <path id="Trazado_165423" data-name="Trazado 165423" d="M395.534,226.546l-96.193,48.107-.007-96.231,96.2-48.069Z" transform="translate(-203.149 -82.257)" fill="#946f47"/>
            <path id="Trazado_165424" data-name="Trazado 165424" d="M239.659,274.652l-96.193-48.107V130.352l96.193,48.107Z" transform="translate(-143.466 -82.257)" fill="#b19255"/>
            <path id="Trazado_165425" data-name="Trazado 165425" d="M335.852,100.51l-96.192,48.1-96.193-48.145L239.66,52.414Z" transform="translate(-143.466 -52.414)" fill="#bd9c5b"/>
            <g id="Grupo_57798" data-name="Grupo 57798" transform="translate(0 47.986)">
              <path id="Trazado_165426" data-name="Trazado 165426" d="M239.659,178.611,143.466,130.5v-.218l.219-.109,95.974,48Z" transform="translate(-143.466 -130.175)" fill="#e0b96c"/>
            </g>
            <g id="Grupo_57799" data-name="Grupo 57799" transform="translate(96.193 47.985)">
              <path id="Trazado_165427" data-name="Trazado 165427" d="M299.346,178.61,395.539,130.5v-.218l-.219-.109-95.974,48Z" transform="translate(-299.346 -130.174)" fill="#e0cca4"/>
            </g>
            <path id="Trazado_165428" data-name="Trazado 165428" d="M299.346,178.459l96.193-48.107Z" transform="translate(-203.153 -82.257)" fill="#94816c"/>
            <g id="Grupo_57800" data-name="Grupo 57800" transform="translate(93.761 96.203)">
              <path id="Trazado_165429" data-name="Trazado 165429" d="M297.837,220.169V208.31s-5.472,37.729,0,96.192V289.435A484.617,484.617,0,0,1,297.837,220.169Z" transform="translate(-295.405 -208.31)" fill="#946f47"/>
              <path id="Trazado_165430" data-name="Trazado 165430" d="M298.587,300.593v-89.2C297.531,224.816,296.468,268.942,298.587,300.593Z" transform="translate(-296.155 -209.489)" fill="#6b4d2c"/>
            </g>
          </g>
          <path id="Trazado_165431" data-name="Trazado 165431" d="M219.132,218.317l-13.882-6.942v-49.71l13.882,6.942Z" transform="translate(-167.124 -94.247)" fill="#f7eecf"/>
          <path id="Trazado_165432" data-name="Trazado 165432" d="M205.238,131.949l13.881,6.941,97.118-47.9-13.881-6.941Z" transform="translate(-167.119 -64.525)" fill="#fff6d6"/>
        </g>
        <g id="Grupo_57804" data-name="Grupo 57804" transform="translate(5.487 66.65)">
          <path id="Trazado_165433" data-name="Trazado 165433" d="M179.491,182.609l-24.27-7.062-2.864-15.126,24.27,7.062Z" transform="translate(-152.357 -160.42)" fill="#fff"/>
          <g id="Grupo_57803" data-name="Grupo 57803" transform="translate(3.856 3.633)">
            <path id="Trazado_165434" data-name="Trazado 165434" d="M161.053,176.291l-.59-.172-1.858-9.812.59.172Z" transform="translate(-158.606 -166.307)" fill="#2c323d"/>
            <path id="Trazado_165435" data-name="Trazado 165435" d="M162.341,176.665l-.295-.086-1.858-9.812.295.086Z" transform="translate(-159.212 -166.483)" fill="#2c323d"/>
            <path id="Trazado_165436" data-name="Trazado 165436" d="M163.446,176.987l-.295-.086-1.858-9.812.295.086Z" transform="translate(-159.635 -166.606)" fill="#2c323d"/>
            <path id="Trazado_165437" data-name="Trazado 165437" d="M164.551,177.309l-.295-.086-1.858-9.812.295.086Z" transform="translate(-160.058 -166.729)" fill="#2c323d"/>
            <path id="Trazado_165438" data-name="Trazado 165438" d="M165.656,177.63l-.295-.086-1.858-9.812.295.086Z" transform="translate(-160.481 -166.853)" fill="#2c323d"/>
            <path id="Trazado_165439" data-name="Trazado 165439" d="M167.056,178.037l-.59-.172-1.858-9.812.59.172Z" transform="translate(-160.904 -166.976)" fill="#2c323d"/>
            <path id="Trazado_165440" data-name="Trazado 165440" d="M171.51,179.333l-.295-.086-1.858-9.812.295.086Z" transform="translate(-162.723 -167.505)" fill="#2c323d"/>
            <path id="Trazado_165441" data-name="Trazado 165441" d="M172.615,179.655l-.295-.086-1.858-9.812.295.086Z" transform="translate(-163.146 -167.628)" fill="#2c323d"/>
            <path id="Trazado_165442" data-name="Trazado 165442" d="M174.015,180.062l-.59-.172-1.858-9.812.59.172Z" transform="translate(-163.569 -167.751)" fill="#2c323d"/>
            <path id="Trazado_165443" data-name="Trazado 165443" d="M168.639,178.5l-.59-.172-1.858-9.812.59.172Z" transform="translate(-161.511 -167.152)" fill="#2c323d"/>
            <path id="Trazado_165444" data-name="Trazado 165444" d="M170.222,178.959l-.59-.172-1.858-9.812.59.172Z" transform="translate(-162.117 -167.328)" fill="#2c323d"/>
            <path id="Trazado_165445" data-name="Trazado 165445" d="M175.6,180.523l-.59-.172-1.858-9.812.59.172Z" transform="translate(-164.175 -167.927)" fill="#2c323d"/>
            <path id="Trazado_165446" data-name="Trazado 165446" d="M176.886,180.9l-.295-.086L174.733,171l.295.086Z" transform="translate(-164.781 -168.104)" fill="#2c323d"/>
            <path id="Trazado_165447" data-name="Trazado 165447" d="M177.991,181.219l-.295-.086-1.858-9.812.295.086Z" transform="translate(-165.204 -168.227)" fill="#2c323d"/>
            <path id="Trazado_165448" data-name="Trazado 165448" d="M179.1,181.541l-.295-.086-1.858-9.812.295.086Z" transform="translate(-165.627 -168.35)" fill="#2c323d"/>
            <path id="Trazado_165449" data-name="Trazado 165449" d="M180.2,181.862l-.295-.086-1.858-9.812.295.086Z" transform="translate(-166.051 -168.473)" fill="#2c323d"/>
            <path id="Trazado_165450" data-name="Trazado 165450" d="M181.6,182.27l-.59-.172-1.858-9.812.59.172Z" transform="translate(-166.474 -168.596)" fill="#2c323d"/>
            <path id="Trazado_165451" data-name="Trazado 165451" d="M186.055,183.566l-.295-.086-1.858-9.812.295.086Z" transform="translate(-168.292 -169.125)" fill="#2c323d"/>
            <path id="Trazado_165452" data-name="Trazado 165452" d="M187.16,183.887l-.295-.086-1.858-9.812.295.086Z" transform="translate(-168.715 -169.248)" fill="#2c323d"/>
            <path id="Trazado_165453" data-name="Trazado 165453" d="M188.56,184.295l-.59-.172-1.858-9.812.59.172Z" transform="translate(-169.138 -169.372)" fill="#2c323d"/>
            <path id="Trazado_165454" data-name="Trazado 165454" d="M183.184,182.73l-.59-.172-1.858-9.812.59.172Z" transform="translate(-167.08 -168.773)" fill="#2c323d"/>
            <path id="Trazado_165455" data-name="Trazado 165455" d="M184.767,183.191l-.59-.172-1.858-9.812.59.172Z" transform="translate(-167.686 -168.949)" fill="#2c323d"/>
          </g>
        </g>
        <path id="Trazado_165456" data-name="Trazado 165456" d="M269.426,220.219l-30.47-15.238V190.49l30.47,15.238Z" transform="translate(-180.029 -105.284)" fill="#fff"/>
        <g id="Grupo_57816" data-name="Grupo 57816" transform="translate(2.768 129.676)">
          <g id="Grupo_57808" data-name="Grupo 57808">
            <path id="Trazado_165457" data-name="Trazado 165457" d="M159.507,268.055,148.68,262.64c-.4-.2-.728-.038-.728.364v10.828a1.37,1.37,0,0,0,.728,1.092l10.828,5.415c.4.2.728.038.728-.364V269.146A1.368,1.368,0,0,0,159.507,268.055Zm.16,11.048c0,.413-.334.58-.748.374l-9.653-4.828a1.408,1.408,0,0,1-.748-1.122v-9.653c0-.413.335-.581.748-.374l9.653,4.827a1.407,1.407,0,0,1,.748,1.122Z" transform="translate(-147.952 -262.554)" fill="#2c323d"/>
            <g id="Grupo_57807" data-name="Grupo 57807" transform="translate(2.896 3.223)">
              <g id="Grupo_57805" data-name="Grupo 57805">
                <path id="Trazado_165458" data-name="Trazado 165458" d="M154.284,276.85l-.684-.342v-7.433l.684.342Z" transform="translate(-153.01 -268.274)" fill="#2c323d"/>
                <path id="Trazado_165459" data-name="Trazado 165459" d="M153.576,267.777l-.931,1.4.931.466.931.466Z" transform="translate(-152.645 -267.777)" fill="#2c323d"/>
              </g>
              <g id="Grupo_57806" data-name="Grupo 57806" transform="translate(4.628 2.315)">
                <path id="Trazado_165460" data-name="Trazado 165460" d="M161.784,280.6l-.684-.342v-7.433l.684.342Z" transform="translate(-160.511 -272.025)" fill="#2c323d"/>
                <path id="Trazado_165461" data-name="Trazado 165461" d="M161.077,271.528l-.932,1.4.932.466.931.466Z" transform="translate(-160.145 -271.528)" fill="#2c323d"/>
              </g>
            </g>
            <path id="Trazado_165462" data-name="Trazado 165462" d="M151.083,281.085V280.4l8.418,4.21v.684Z" transform="translate(-149.151 -269.388)" fill="#2c323d"/>
          </g>
          <g id="Grupo_57810" data-name="Grupo 57810" transform="translate(14.563 7.283)">
            <path id="Trazado_165463" data-name="Trazado 165463" d="M183.108,279.858l-10.828-5.415c-.4-.2-.728-.038-.728.364v10.828a1.367,1.367,0,0,0,.728,1.091l10.828,5.415c.4.2.728.038.728-.363V280.949A1.37,1.37,0,0,0,183.108,279.858Zm.16,11.048c0,.413-.335.581-.748.374l-9.653-4.827a1.408,1.408,0,0,1-.749-1.122v-9.653c0-.413.335-.58.749-.374l9.653,4.827a1.408,1.408,0,0,1,.748,1.122Z" transform="translate(-171.552 -274.357)" fill="#2c323d"/>
            <g id="Grupo_57809" data-name="Grupo 57809" transform="translate(1.933 2.035)">
              <path id="Trazado_165464" data-name="Trazado 165464" d="M184.614,288.1h0a3.118,3.118,0,0,1-1.656-2.484v-3.825l3.312,1.657v3.824C186.27,288.189,185.529,288.559,184.614,288.1Z" transform="translate(-177.852 -279.239)" fill="#2c323d"/>
              <path id="Trazado_165465" data-name="Trazado 165465" d="M185.715,295.791l-.387-.194v-4l.387.194Z" transform="translate(-178.76 -282.994)" fill="#2c323d"/>
              <path id="Trazado_165466" data-name="Trazado 165466" d="M182.958,297.183h0c0-.214.173-.3.388-.194l2.538,1.269a.731.731,0,0,1,.387.581h0Z" transform="translate(-177.852 -285.041)" fill="#2c323d"/>
              <path id="Trazado_165467" data-name="Trazado 165467" d="M174.684,277.655v3.825a3.117,3.117,0,0,0,1.656,2.484h0c.915.457,1.656.086,1.656-.828v-3.824Zm2.971,5.311c0,.726-.59,1.021-1.316.658a2.48,2.48,0,0,1-1.316-1.973v-3.484l2.631,1.316Z" transform="translate(-174.684 -277.655)" fill="#2c323d"/>
              <path id="Trazado_165468" data-name="Trazado 165468" d="M177.441,291.653l-.387-.194v-4l.387.194Z" transform="translate(-175.591 -281.409)" fill="#2c323d"/>
              <path id="Trazado_165469" data-name="Trazado 165469" d="M174.684,293.045h0c0-.214.173-.3.388-.194l2.537,1.269a.729.729,0,0,1,.388.581h0Z" transform="translate(-174.684 -283.456)" fill="#2c323d"/>
            </g>
          </g>
          <g id="Grupo_57815" data-name="Grupo 57815" transform="translate(29.128 14.567)">
            <path id="Trazado_165470" data-name="Trazado 165470" d="M206.708,291.66l-10.828-5.415c-.4-.2-.728-.038-.728.363v10.828a1.37,1.37,0,0,0,.728,1.092l10.828,5.415c.4.2.728.038.728-.363V292.752A1.368,1.368,0,0,0,206.708,291.66Zm.16,11.048c0,.413-.335.581-.748.374l-9.653-4.828a1.407,1.407,0,0,1-.748-1.122V287.48c0-.413.334-.581.748-.374l9.653,4.828a1.408,1.408,0,0,1,.748,1.122Z" transform="translate(-195.153 -286.159)" fill="#2c323d"/>
            <g id="Grupo_57814" data-name="Grupo 57814" transform="translate(2.563 4.341)">
              <g id="Grupo_57812" data-name="Grupo 57812" transform="translate(0 0.143)">
                <g id="Grupo_57811" data-name="Grupo 57811">
                  <path id="Trazado_165471" data-name="Trazado 165471" d="M200.684,296.54a1.5,1.5,0,0,1,1.173.149,3.379,3.379,0,0,1,1.173,1.024,1.5,1.5,0,0,1,1.174.149,3.373,3.373,0,0,1,1.173,1.024,1.5,1.5,0,0,1,1.173.149,2.76,2.76,0,0,1,.288.167,7.249,7.249,0,0,0-3.767-5.331c-1.972-.986-3.59-.286-3.766,1.552a2.159,2.159,0,0,1,.2.091A3.373,3.373,0,0,1,200.684,296.54Z" transform="translate(-199.306 -293.426)" fill="#2c323d"/>
                </g>
              </g>
              <g id="Grupo_57813" data-name="Grupo 57813" transform="translate(1.957)">
                <path id="Trazado_165472" data-name="Trazado 165472" d="M203.486,302.426a1.9,1.9,0,0,1-1.008-1.512v-.193c0-.114.093-.16.207-.1a.388.388,0,0,1,.207.31v.193a1.119,1.119,0,0,0,.594.891c.327.164.594.03.594-.3v-8.392c0-.115.093-.161.207-.1a.389.389,0,0,1,.207.31v8.393C204.493,302.478,204.041,302.7,203.486,302.426Z" transform="translate(-202.478 -293.194)" fill="#2c323d"/>
              </g>
            </g>
          </g>
        </g>
        <g id="Grupo_57817" data-name="Grupo 57817" transform="translate(74.845 10.234)">
          <path id="Trazado_165473" data-name="Trazado 165473" d="M291.146,69.4l-25.6,12.8-.8-.4L290.35,69Z" transform="translate(-264.752 -68.997)" fill="#2c323d"/>
          <path id="Trazado_165474" data-name="Trazado 165474" d="M295.217,71.431l-25.6,12.8-.8-.4,25.6-12.8Z" transform="translate(-266.311 -69.777)" fill="#2c323d"/>
          <path id="Trazado_165475" data-name="Trazado 165475" d="M299.288,73.466l-25.6,12.8-.8-.4,25.6-12.8Z" transform="translate(-267.869 -70.556)" fill="#2c323d"/>
          <path id="Trazado_165476" data-name="Trazado 165476" d="M303.358,75.5l-25.6,12.8-.8-.4,25.6-12.8Z" transform="translate(-269.428 -71.335)" fill="#2c323d"/>
        </g>
        <g id="Grupo_57818" data-name="Grupo 57818" transform="translate(79.228 67.87)">
          <path id="Trazado_165477" data-name="Trazado 165477" d="M298.249,162.8l-25.6,12.8-.8-.4,25.6-12.8Z" transform="translate(-271.855 -162.397)" fill="#2c323d"/>
          <path id="Trazado_165478" data-name="Trazado 165478" d="M302.32,164.831l-25.6,12.8-.8-.4,25.6-12.8Z" transform="translate(-273.413 -163.176)" fill="#2c323d"/>
          <path id="Trazado_165479" data-name="Trazado 165479" d="M306.39,166.866l-25.6,12.8-.8-.4,25.6-12.8Z" transform="translate(-274.972 -163.956)" fill="#2c323d"/>
          <path id="Trazado_165480" data-name="Trazado 165480" d="M310.461,168.9l-25.6,12.8-.8-.4,25.6-12.8Z" transform="translate(-276.531 -164.735)" fill="#2c323d"/>
        </g>
      </g>
      <path id="Sustracción_6" data-name="Sustracción 6" d="M8108.732,405.625a2.47,2.47,0,0,1-1.081-.225l-107.214-57.836c-.281-.141-.436-.331-.437-.537a.668.668,0,0,1,.437-.544l50.825-24.959a2.73,2.73,0,0,1,2.161,0l47.717,22.861L8071.072,327l.176-.069,91.419,44.609v8.4l-.012.035-1.65-.954L8109.814,405.4A2.477,2.477,0,0,1,8108.732,405.625Z" transform="translate(-8002 -206.001)" stroke="rgba(0,0,0,0)" stroke-miterlimit="10" stroke-width="1" opacity="0.1"/>
    </g>
  </g>
</svg>
