<svg xmlns="http://www.w3.org/2000/svg" width="368.965" height="194.335" viewBox="0 0 368.965 194.335">
  <g id="Grupo_61885" data-name="Grupo 61885" transform="translate(-333.192 -53.893)">
    <path id="Trazado_167284" data-name="Trazado 167284" d="M685.712,91.217c-40.833-56.055-98.339,9.334-119.106-8.357-41.424-35.29-119.166-15.93-128.23,33.084-1.937,10.476-3.332,20.576-.882,28.637-18.132,26.48-5.75,83.409,44.841,99.82H663.353c27.287-9.855,26.833-38.719,20.256-51.365C699.44,172.409,714.918,131.311,685.712,91.217Z" fill="#f3f3fa"/>
    <path id="Trazado_167285" data-name="Trazado 167285" d="M467.991,241.419c.822-1.255,47.417-73.394,47.417-73.394l37.272-6.847,35.441,9.251L615.569,239.3h9.715l-8.059-82.837-14.8,11.637-9.637,59.58-43.351-42.428Z" fill="#fff"/>
    <g id="Grupo_61820" data-name="Grupo 61820">
      <circle id="Elipse_4206" data-name="Elipse 4206" cx="37.094" cy="37.094" r="37.094" transform="translate(569.823 118.032) rotate(-45)" fill="#fff"/>
      <path id="Trazado_167286" data-name="Trazado 167286" d="M622.281,155.828a37.8,37.8,0,1,1,37.8-37.8A37.839,37.839,0,0,1,622.281,155.828Zm0-74.188a36.392,36.392,0,1,0,36.392,36.392A36.433,36.433,0,0,0,622.281,81.64Z" fill="#00001a"/>
    </g>
    <path id="Trazado_167287" data-name="Trazado 167287" d="M636.915,79.509l-15.606,33.662s-17.3-11.712-30.842-20.623a37.118,37.118,0,0,1,46.448-13.039Z" fill="#12263f"/>
    <path id="Trazado_167288" data-name="Trazado 167288" d="M658.107,108.372l-35.826,9.66s-17.3-11.711-30.841-20.623a37.086,37.086,0,1,0,66.667,10.963Z" fill="#f4b55b"/>
    <g id="Grupo_61821" data-name="Grupo 61821">
      <path id="Trazado_167289" data-name="Trazado 167289" d="M622.281,155.828a37.8,37.8,0,1,1,37.8-37.8A37.839,37.839,0,0,1,622.281,155.828Zm0-74.188a36.392,36.392,0,1,0,36.392,36.392A36.433,36.433,0,0,0,622.281,81.64Z" fill="#00001a"/>
    </g>
    <path id="Trazado_167290" data-name="Trazado 167290" d="M660.538,104l-35.826,9.66L640.318,80A37.193,37.193,0,0,1,660.538,104Z" fill="#fd8f25"/>
    <path id="Trazado_167291" data-name="Trazado 167291" d="M581.133,237.29v-1.719l-60.154-.43-55.069,2.9,9.8-27.053,36.243-46.313,21.3-4.821,11.352-1.195,11.554.816,23.249,4.34,37.811,73.473Z" fill="#472ea6"/>
    <g id="Grupo_61822" data-name="Grupo 61822">
      <path id="Trazado_167292" data-name="Trazado 167292" d="M504.179,221.23a.34.34,0,0,1-.124-.023l-9.758-3.8h-4.424a.342.342,0,0,1,0-.684h4.552l9.879,3.849a.342.342,0,0,1-.125.66Z"/>
    </g>
    <path id="Trazado_167293" data-name="Trazado 167293" d="M557.449,162.824c0,4.2-5.637,7.6-12.593,7.6s-12.59-3.4-12.59-7.6a5.163,5.163,0,0,1,.993-2.969l11.352-1.194,11.554.816A5.258,5.258,0,0,1,557.449,162.824Z" fill="#fec6a1"/>
    <path id="Trazado_167294" data-name="Trazado 167294" d="M617.225,237.292l.589-78.629H603.046l-21.913,78.629Z" fill="#472ea6"/>
    <path id="Trazado_167295" data-name="Trazado 167295" d="M552.68,161.178c.381-2.69-.664-16.052-.664-16.052l-13.024,1.28s-3.087,11.246-3.067,14.5c.01,1.665,1.717,4.239,5.062,5.289C545.431,167.588,551.9,166.68,552.68,161.178Z" fill="#fec6a1"/>
    <g id="Grupo_61823" data-name="Grupo 61823">
      <path id="Trazado_167296" data-name="Trazado 167296" d="M552.68,161.52a.342.342,0,0,1-.342-.34c-.022-3.573-.539-13.651-.644-15.679l-12.42,1.221-3.015,14.253a.342.342,0,1,1-.669-.141l3.119-14.744,13.63-1.339.019.357c.006.12.64,12.091.664,16.068a.342.342,0,0,1-.34.344Z"/>
    </g>
    <path id="Trazado_167297" data-name="Trazado 167297" d="M554.776,145.771s-12.37,11.389-22.054,6.639.5-33.106,6.328-37.184,23.2,5.27,21.987,14.72A34.97,34.97,0,0,1,554.776,145.771Z" fill="#fec6a1"/>
    <g id="Grupo_61824" data-name="Grupo 61824">
      <path id="Trazado_167298" data-name="Trazado 167298" d="M537.9,153.979a12.032,12.032,0,0,1-5.358-1.2c-2.456-1.205-3.86-3.857-4.171-7.883-.825-10.682,6.1-26.971,10.445-30.006,3.312-2.316,9.409-.558,13.983,2.211,4.622,2.8,9.321,7.655,8.645,12.9a35.716,35.716,0,0,1-6.346,16.027l-.043.048a37.388,37.388,0,0,1-4.544,3.437.41.41,0,1,1-.447-.687,37.676,37.676,0,0,0,4.411-3.332,34.957,34.957,0,0,0,6.156-15.6c.625-4.851-3.856-9.427-8.257-12.091-5.141-3.112-10.523-4.033-13.088-2.24-4.1,2.867-10.888,19.031-10.1,29.271.287,3.716,1.537,6.141,3.715,7.209a12.57,12.57,0,0,0,8.687.648.41.41,0,0,1,.194.8A16.463,16.463,0,0,1,537.9,153.979Z"/>
    </g>
    <path id="Trazado_167299" data-name="Trazado 167299" d="M551.644,120.461c-.728.41-13.684,7.89-17.622,2.084s1-10.552,6.111-11.1c8.844-.945,18.079,3.364,15.765,5A25.1,25.1,0,0,0,551.644,120.461Z"/>
    <path id="Trazado_167300" data-name="Trazado 167300" d="M553.358,116.237s14.509-2.055,14.01,10.687-12.634,20.3-14.294,20.134,5.454-3.56,5.289-8.479c-.108-3.244-5.262-4.281-6.558-2.006-.791,1.388-2.615-1.2-2.615-1.2s4.312-7.016.9-9.759-1.193-3.743-1.193-3.743Z"/>
    <path id="Trazado_167301" data-name="Trazado 167301" d="M531.088,133.534c-.31.96-.011,1.915.667,2.134s1.478-.383,1.787-1.342.012-1.916-.666-2.134S531.4,132.574,531.088,133.534Z"/>
    <g id="Grupo_61825" data-name="Grupo 61825">
      <path id="Trazado_167302" data-name="Trazado 167302" d="M535.089,130.085a.4.4,0,0,1-.184-.044,5.229,5.229,0,0,0-3.675-.294.41.41,0,1,1-.325-.753,5.923,5.923,0,0,1,4.369.315.41.41,0,0,1-.185.776Z"/>
    </g>
    <g id="Grupo_61826" data-name="Grupo 61826">
      <path id="Trazado_167303" data-name="Trazado 167303" d="M533.486,142.178a2.582,2.582,0,0,1-1.074-.216,1.827,1.827,0,0,1-1-1.129c-.411-1.269.884-2.9,2.255-4.638a17.316,17.316,0,0,0,1.771-2.5.41.41,0,1,1,.731.371,17.512,17.512,0,0,1-1.858,2.639c-1.122,1.418-2.4,3.025-2.119,3.877a1,1,0,0,0,.56.635,2.531,2.531,0,0,0,1.9-.109.41.41,0,0,1,.318.756A3.874,3.874,0,0,1,533.486,142.178Z"/>
    </g>
    <g id="Grupo_61827" data-name="Grupo 61827">
      <path id="Trazado_167304" data-name="Trazado 167304" d="M547.077,132.911a.412.412,0,0,1-.331-.167c-2.21-3.014-6.5-2.291-6.541-2.284a.41.41,0,0,1-.145-.807c.2-.036,4.831-.826,7.348,2.606a.409.409,0,0,1-.331.652Z"/>
    </g>
    <g id="Grupo_61828" data-name="Grupo 61828">
      <path id="Trazado_167305" data-name="Trazado 167305" d="M534.573,146.417a5.211,5.211,0,0,1-3.847-1.61.41.41,0,1,1,.586-.574c2.689,2.747,6.427.566,6.584.472a.41.41,0,1,1,.422.7A8.168,8.168,0,0,1,534.573,146.417Z"/>
    </g>
    <path id="Trazado_167306" data-name="Trazado 167306" d="M541.1,135.251c-.309.96-.011,1.915.667,2.134s1.478-.382,1.788-1.342.011-1.915-.667-2.134S541.413,134.291,541.1,135.251Z"/>
    <g id="Grupo_61829" data-name="Grupo 61829">
      <path id="Trazado_167307" data-name="Trazado 167307" d="M559.541,137.2c-1.176-3.94-6.827-1.836-6.827-1.836l.124,7.788C554.779,144.234,560.945,141.9,559.541,137.2Z" fill="#fec6a1"/>
      <path id="Trazado_167308" data-name="Trazado 167308" d="M554.075,143.83a2.974,2.974,0,0,1-1.437-.316.41.41,0,0,1,.4-.717c.888.493,3.129.1,4.687-1.156a3.846,3.846,0,0,0,1.424-4.32,2.646,2.646,0,0,0-1.388-1.717c-1.905-.949-4.873.137-4.9.148a.41.41,0,0,1-.286-.769c.135-.05,3.335-1.219,5.554-.113a3.47,3.47,0,0,1,1.809,2.216,4.647,4.647,0,0,1-1.7,5.194A7.081,7.081,0,0,1,554.075,143.83Z"/>
    </g>
    <g id="Grupo_61830" data-name="Grupo 61830">
      <path id="Trazado_167309" data-name="Trazado 167309" d="M557.206,140.487a.411.411,0,0,1-.338-.642,1.826,1.826,0,0,0,.228-1.994,1.162,1.162,0,0,0-1.026-.608.41.41,0,0,1-.085-.815,1.96,1.96,0,0,1,1.816,1,2.611,2.611,0,0,1-.255,2.877A.413.413,0,0,1,557.206,140.487Z"/>
    </g>
    <g id="Grupo_61832" data-name="Grupo 61832">
      <path id="Trazado_167310" data-name="Trazado 167310" d="M545.56,135.936c-.885,2.881-3.249,4.711-5.281,4.087s-2.963-3.465-2.079-6.346,3.249-4.711,5.281-4.087S546.444,133.055,545.56,135.936Z" fill="#fff" opacity="0.3"/>
      <g id="Grupo_61831" data-name="Grupo 61831">
        <path id="Trazado_167311" data-name="Trazado 167311" d="M541.1,140.556a3.2,3.2,0,0,1-.945-.141,3.769,3.769,0,0,1-2.4-2.591,7.572,7.572,0,0,1,2.4-7.829A3.523,3.523,0,0,1,546,131.789a7.147,7.147,0,0,1-.052,4.268h0a7.14,7.14,0,0,1-2.351,3.561A4.107,4.107,0,0,1,541.1,140.556Zm1.557-10.678a3.3,3.3,0,0,0-2,.766,6.758,6.758,0,0,0-2.126,6.925,2.713,2.713,0,0,0,4.564,1.4,6.324,6.324,0,0,0,2.069-3.154h0a6.324,6.324,0,0,0,.057-3.771,2.98,2.98,0,0,0-1.864-2.063A2.4,2.4,0,0,0,542.66,129.878Z"/>
      </g>
    </g>
    <g id="Grupo_61834" data-name="Grupo 61834">
      <path id="Trazado_167312" data-name="Trazado 167312" d="M534,134.417c-.885,2.881-3.249,4.711-5.282,4.087s-2.962-3.466-2.078-6.346,3.249-4.711,5.281-4.087S534.888,131.536,534,134.417Z" fill="#fff" opacity="0.3"/>
      <g id="Grupo_61833" data-name="Grupo 61833">
        <path id="Trazado_167313" data-name="Trazado 167313" d="M529.53,139.034a3.167,3.167,0,0,1-.928-.138,3.769,3.769,0,0,1-2.4-2.591,7.572,7.572,0,0,1,2.4-7.829,3.771,3.771,0,0,1,3.443-.8c2.245.689,3.3,3.766,2.35,6.858h0C533.575,137.21,531.522,139.034,529.53,139.034Zm1.574-10.675a3.309,3.309,0,0,0-2,.765,6.76,6.76,0,0,0-2.126,6.925,2.98,2.98,0,0,0,1.864,2.063c1.811.556,3.952-1.155,4.769-3.815s.006-5.277-1.807-5.834A2.371,2.371,0,0,0,531.1,128.359Zm2.9,6.058h0Z"/>
      </g>
    </g>
    <g id="Grupo_61835" data-name="Grupo 61835">
      <path id="Trazado_167314" data-name="Trazado 167314" d="M538.108,132.95a.408.408,0,0,1-.329-.164c-.974-1.3-3.049-.534-3.07-.526a.41.41,0,0,1-.293-.766c.109-.042,2.673-1,4.019.8a.41.41,0,0,1-.082.574A.4.4,0,0,1,538.108,132.95Z"/>
    </g>
    <g id="Grupo_61836" data-name="Grupo 61836">
      <path id="Trazado_167315" data-name="Trazado 167315" d="M545.771,136.057a.41.41,0,0,1-.014-.82l7.33-.247a.41.41,0,1,1,.028.82l-7.33.247Z"/>
    </g>
    <path id="Trazado_167316" data-name="Trazado 167316" d="M532.194,110.588c-2.97,1.68-3.793,7.3-3,9.5,1.839,5.115,8.188,2.738,8.188,2.738l2.1-8.577C535.19,114.879,534.417,109.33,532.194,110.588Z"/>
    <path id="Trazado_167317" data-name="Trazado 167317" d="M555.206,119.014s3.445-5.587-.644-7.261-11.953-.031-13.228,3.505c-.69,1.915,8.067,4.033,8.067,4.033Z"/>
    <g id="Grupo_61837" data-name="Grupo 61837">
      <path id="Trazado_167318" data-name="Trazado 167318" d="M581.134,237.634a.336.336,0,0,1-.076-.009.341.341,0,0,1-.258-.408c.7-3.119,21.051-75.565,21.917-78.647l.07-.25h3.482a.342.342,0,1,1,0,.684H603.3c-1.345,4.789-21.164,75.351-21.838,78.362A.342.342,0,0,1,581.134,237.634Z"/>
    </g>
    <g id="Grupo_61838" data-name="Grupo 61838">
      <path id="Trazado_167319" data-name="Trazado 167319" d="M637.407,155.3l8.428-12.263-6.96,14.921-17.262,4.306h-6.04l-.335,2.233a16.268,16.268,0,0,1-5.227,1.159,11.616,11.616,0,0,1-5.278-1.448l.628-2.4,2.325-9.076,16.573-1.327,9.024-13.691-3.648,14.713,14.4-18.9-9.479,21.021,11.283-15.9Z" fill="#fec6a1"/>
      <path id="Trazado_167320" data-name="Trazado 167320" d="M610.011,165.971a11.694,11.694,0,0,1-5.427-1.485.32.32,0,0,1-.16-.363l.629-2.4,2.324-9.075a.32.32,0,0,1,.284-.239l16.418-1.314,8.938-13.56a.319.319,0,0,1,.576.252L630.316,151l13.461-17.674a.319.319,0,0,1,.545.325l-8.129,18.028,9.382-13.218a.319.319,0,0,1,.545.328l-6.275,12.4,5.728-8.335a.319.319,0,0,1,.552.316l-6.961,14.921a.324.324,0,0,1-.212.175l-17.261,4.3a.3.3,0,0,1-.078.01h-5.765l-.3,1.961a.32.32,0,0,1-.2.25A16.972,16.972,0,0,1,610.011,165.971Zm-4.9-1.933a10.917,10.917,0,0,0,4.9,1.295,15.932,15.932,0,0,0,4.939-1.072l.308-2.049a.318.318,0,0,1,.315-.271h6l17.076-4.259,5.272-11.3-6.252,9.1a.319.319,0,0,1-.548-.325l6.5-12.834-8.806,12.405a.319.319,0,0,1-.551-.316l8.33-18.473-12.7,16.677a.319.319,0,0,1-.563-.27l3.2-12.908-8,12.138a.317.317,0,0,1-.24.143l-16.346,1.308Z"/>
    </g>
    <g id="Grupo_61844" data-name="Grupo 61844">
      <g id="Grupo_61841" data-name="Grupo 61841">
        <g id="Grupo_61839" data-name="Grupo 61839">
          <path id="Trazado_167321" data-name="Trazado 167321" d="M584.349,180.868V226a3.851,3.851,0,0,1-.022.4,5.354,5.354,0,0,1-5.178,4.97,1.331,1.331,0,0,1-.178.008H507.7a1.159,1.159,0,0,1-.17-.008,5.371,5.371,0,0,1-5.207-5.37v-45.13a5.364,5.364,0,0,1,3.9-5.163,5.083,5.083,0,0,1,1.472-.215h71.27A5.378,5.378,0,0,1,584.349,180.868Z" fill="#fff"/>
          <path id="Trazado_167322" data-name="Trazado 167322" d="M578.971,232.614H507.7c-.086,0-.173,0-.254-.01A6.58,6.58,0,0,1,501.086,226v-45.13a6.627,6.627,0,0,1,4.807-6.355,6.3,6.3,0,0,1,1.808-.261h71.27a6.624,6.624,0,0,1,6.616,6.616V226a4.623,4.623,0,0,1-.028.511,6.576,6.576,0,0,1-6.327,6.1C579.145,232.612,579.059,232.614,578.971,232.614Zm-71.3-2.476h71.353l.056-.007h.031a4.109,4.109,0,0,0,3.983-3.82l0-.051a2.3,2.3,0,0,0,.015-.262v-45.13a4.144,4.144,0,0,0-4.14-4.14H507.7a3.88,3.88,0,0,0-1.115.162,4.147,4.147,0,0,0-3.024,3.978V226a4.115,4.115,0,0,0,4.007,4.133Z" fill="#00001a"/>
        </g>
        <g id="Grupo_61840" data-name="Grupo 61840">
          <path id="Trazado_167323" data-name="Trazado 167323" d="M584.349,180.868V222.3a3.817,3.817,0,0,1-.022.4,5.355,5.355,0,0,1-5.178,4.971v.007H511.4a5.389,5.389,0,0,1-5.378-5.377V177.169a5.059,5.059,0,0,1,.207-1.464,5.083,5.083,0,0,1,1.472-.215h71.27A5.378,5.378,0,0,1,584.349,180.868Z" fill="#12263f"/>
          <path id="Trazado_167324" data-name="Trazado 167324" d="M579.149,227.978H511.4a5.691,5.691,0,0,1-5.679-5.678V177.169a5.369,5.369,0,0,1,.22-1.551l.047-.155.154-.047a5.43,5.43,0,0,1,1.559-.227h71.27a5.685,5.685,0,0,1,5.679,5.679V222.3a3.928,3.928,0,0,1-.024.433,5.637,5.637,0,0,1-5.176,5.221v.017Zm-72.675-52.029a4.831,4.831,0,0,0-.15,1.22V222.3a5.087,5.087,0,0,0,5.076,5.076h67.614l.125-.007a5.042,5.042,0,0,0,4.887-4.691,3.344,3.344,0,0,0,.022-.378V180.868a5.082,5.082,0,0,0-5.077-5.076H507.7A4.783,4.783,0,0,0,506.474,175.949Z" fill="#00001a"/>
        </g>
      </g>
      <g id="Grupo_61842" data-name="Grupo 61842">
        <path id="Trazado_167325" data-name="Trazado 167325" d="M584.349,237.291H502.324a1.827,1.827,0,0,1,0-3.654h82.025a1.827,1.827,0,1,1,0,3.654Z" fill="#00001a"/>
      </g>
      <g id="Grupo_61843" data-name="Grupo 61843">
        <rect id="Rectángulo_35124" data-name="Rectángulo 35124" width="13.986" height="3.178" transform="translate(508.415 231.368)" fill="#00001a"/>
        <rect id="Rectángulo_35125" data-name="Rectángulo 35125" width="13.986" height="3.178" transform="translate(564.272 231.368)" fill="#00001a"/>
      </g>
    </g>
    <circle id="Elipse_4207" data-name="Elipse 4207" cx="4.25" cy="4.25" r="4.25" transform="translate(540.935 197.333)" fill="#fff"/>
    <g id="Grupo_61848" data-name="Grupo 61848">
      <g id="Grupo_61845" data-name="Grupo 61845">
        <path id="Trazado_167326" data-name="Trazado 167326" d="M463.831,238.139a.9.9,0,0,1-.282-.045c-1.171-.38-2.344-.788-3.488-1.215a.914.914,0,0,1,.639-1.712c1.119.418,2.267.818,3.413,1.189a.914.914,0,0,1-.282,1.783Z" fill="#ccc"/>
      </g>
      <g id="Grupo_61846" data-name="Grupo 61846">
        <path id="Trazado_167327" data-name="Trazado 167327" d="M453.613,234.061a.914.914,0,0,1-.4-.09c-2.239-1.074-4.44-2.261-6.545-3.527a.913.913,0,1,1,.942-1.565c2.055,1.236,4.206,2.4,6.394,3.445a.914.914,0,0,1-.4,1.737Zm184.812-.694a.913.913,0,0,1-.442-1.713,71.406,71.406,0,0,0,6.172-3.813.913.913,0,1,1,1.041,1.5,73.147,73.147,0,0,1-6.331,3.912A.91.91,0,0,1,638.425,233.367Zm-197.389-6.879a.914.914,0,0,1-.544-.18c-1.986-1.473-3.92-3.06-5.751-4.718a.913.913,0,0,1,1.226-1.354c1.787,1.618,3.676,3.167,5.614,4.605a.914.914,0,0,1-.545,1.647Zm209.418-1.52a.914.914,0,0,1-.609-1.6,49.469,49.469,0,0,0,5.022-5.174.913.913,0,1,1,1.4,1.17,51.349,51.349,0,0,1-5.208,5.367A.913.913,0,0,1,650.454,224.968Zm-220.3-8.336a.913.913,0,0,1-.677-.3c-1.658-1.827-3.247-3.759-4.726-5.745a.914.914,0,0,1,1.466-1.091c1.443,1.938,3,3.825,4.613,5.608a.914.914,0,0,1-.676,1.527Zm229.623-2.95a.914.914,0,0,1-.791-1.369,36.3,36.3,0,0,0,2.954-6.522.914.914,0,1,1,1.732.582,38.164,38.164,0,0,1-3.1,6.851A.913.913,0,0,1,659.778,213.682Zm-238.393-8.826a.914.914,0,0,1-.783-.441c-1.276-2.11-2.468-4.31-3.542-6.54a.913.913,0,1,1,1.645-.793c1.05,2.177,2.214,4.326,3.461,6.387a.914.914,0,0,1-.781,1.387ZM651.8,201.181c-.565,0-1.125-.016-1.665-.047a.914.914,0,1,1,.106-1.824c.505.029,1.029.044,1.559.044l.337,0a9.883,9.883,0,0,0,4.613-1.546.914.914,0,0,1,.911,1.584,11.626,11.626,0,0,1-5.5,1.789Zm12.58-1.353a.8.8,0,0,1-.1-.005.914.914,0,0,1-.813-1,30.444,30.444,0,0,0,.167-3.169q0-.438-.013-.875a.914.914,0,0,1-1.249-1.334q.539-.515,1.078-1.066c-.025-.225-.054-.449-.084-.671a.914.914,0,0,1,1.491-.826q1.192-1.318,2.376-2.795a.913.913,0,0,1,1.426,1.142c-1.092,1.364-2.2,2.639-3.308,3.809.073.865.11,1.74.11,2.616a32.161,32.161,0,0,1-.177,3.359A.913.913,0,0,1,664.381,199.828Zm-21.3-.372a.915.915,0,0,1-.392-.089,12.668,12.668,0,0,1-5.761-5.233.913.913,0,1,1,1.591-.9,10.877,10.877,0,0,0,4.955,4.481.914.914,0,0,1-.393,1.739Zm-228.074-7.829a.915.915,0,0,1-.857-.6c-.86-2.321-1.617-4.706-2.252-7.089a.914.914,0,0,1,1.766-.47c.619,2.328,1.359,4.657,2.2,6.924a.915.915,0,0,1-.539,1.175A.933.933,0,0,1,415.006,191.627ZM636.327,187.5a.8.8,0,0,1-.1,0,.913.913,0,0,1-.812-1,14.586,14.586,0,0,1,2.844-7.211.913.913,0,1,1,1.461,1.1,12.762,12.762,0,0,0-2.488,6.307A.914.914,0,0,1,636.327,187.5Zm25.981-2.067a.913.913,0,0,1-.836-.545,19.2,19.2,0,0,0-3.858-5.819.913.913,0,1,1,1.3-1.285,21,21,0,0,1,4.232,6.368.914.914,0,0,1-.468,1.2A.924.924,0,0,1,662.308,185.432Zm9.942-1.83a.913.913,0,0,1-.764-1.412c1.3-1.99,2.544-4.1,3.709-6.264a.914.914,0,0,1,1.609.866c-1.19,2.211-2.464,4.362-3.788,6.395A.911.911,0,0,1,672.25,183.6Zm-261.018-6.169a.914.914,0,0,1-.9-.766,74.312,74.312,0,0,1-.842-7.4.913.913,0,0,1,1.823-.114,72.455,72.455,0,0,0,.822,7.213.914.914,0,0,1-.753,1.05A.948.948,0,0,1,411.232,177.433Zm233.539-1.079a.914.914,0,0,1-.327-1.767,14.666,14.666,0,0,1,5.693-.944,11.03,11.03,0,0,1,2.052.25.913.913,0,1,1-.389,1.785,9.162,9.162,0,0,0-1.713-.208c-.126,0-.25-.005-.372-.005a12.886,12.886,0,0,0-4.618.828A.888.888,0,0,1,644.771,176.354Zm34.455-5.691a.914.914,0,0,1-.835-1.282c.975-2.21,1.879-4.488,2.686-6.773a.913.913,0,1,1,1.722.609c-.822,2.328-1.743,4.65-2.737,6.9A.912.912,0,0,1,679.226,170.663Zm-268.892-7.886h-.042a.913.913,0,0,1-.871-.954,62.665,62.665,0,0,1,.776-7.419.913.913,0,1,1,1.8.3,60.931,60.931,0,0,0-.753,7.2A.914.914,0,0,1,410.334,162.777ZM684.123,156.8a.9.9,0,0,1-.238-.032.913.913,0,0,1-.644-1.119c.632-2.346,1.178-4.735,1.621-7.1a.914.914,0,0,1,1.8.337c-.452,2.412-1.008,4.847-1.653,7.238A.914.914,0,0,1,684.123,156.8Zm-240.645-3.233a20.8,20.8,0,0,1-3.895-.385l-.359-.071a.913.913,0,1,1,.357-1.791l.346.067a16.936,16.936,0,0,0,6.592.053.914.914,0,0,1,.367,1.79A17.03,17.03,0,0,1,443.478,153.571Zm-11.137-2.438a.914.914,0,0,1-.33-.062,28.421,28.421,0,0,1-6.664-3.589.913.913,0,0,1,1.087-1.468,26.6,26.6,0,0,0,6.236,3.353.914.914,0,0,1-.329,1.766Zm20.851-1.139a.913.913,0,0,1-.611-1.592,14.816,14.816,0,0,0,3.837-5.686.914.914,0,1,1,1.7.657,16.645,16.645,0,0,1-4.32,6.387A.911.911,0,0,1,453.192,149.994Zm-40.409-1.679a.913.913,0,0,1-.872-1.185,47.032,47.032,0,0,1,2.771-6.96.913.913,0,1,1,1.636.813,45.277,45.277,0,0,0-2.663,6.689A.913.913,0,0,1,412.783,148.315Zm8.078-5.954a.917.917,0,0,1-.767-.415,23.447,23.447,0,0,1-3.008-6.993.913.913,0,0,1,1.424-.964.934.934,0,0,1,.121-.212,33.973,33.973,0,0,1,5.2-5.464.913.913,0,1,1,1.172,1.4,32.155,32.155,0,0,0-4.916,5.17.912.912,0,0,1-1.041.3,21.287,21.287,0,0,0,2.583,5.761.914.914,0,0,1-.765,1.412Zm265.965,0c-.032,0-.064,0-.1-.005a.915.915,0,0,1-.813-1c.255-2.417.409-4.86.461-7.261a.926.926,0,0,1,.932-.894.914.914,0,0,1,.894.933c-.052,2.452-.21,4.946-.47,7.413A.913.913,0,0,1,686.826,142.36Zm-228.352-5.609a.914.914,0,0,1-.913-.882,15.65,15.65,0,0,0-1.691-6.678.914.914,0,0,1,1.62-.845,17.493,17.493,0,0,1,1.9,7.461.913.913,0,0,1-.882.944Zm-41.491-8.383a.913.913,0,0,1-.912-.88c-.022-.589-.033-1.2-.033-1.817,0-1.767.086-3.613.264-5.643a.914.914,0,0,1,1.82.16c-.173,1.976-.257,3.77-.257,5.483,0,.594.01,1.182.031,1.749a.913.913,0,0,1-.879.947Zm270.149-.694a.914.914,0,0,1-.911-.855c-.156-2.416-.422-4.848-.788-7.228a.914.914,0,0,1,1.806-.278c.374,2.432.645,4.918.8,7.388a.914.914,0,0,1-.853.971Zm-256.566-1.737a.913.913,0,0,1-.4-1.735c.249-.121.5-.239.754-.354a41.031,41.031,0,0,1,6.284-2.288.914.914,0,0,1,.472,1.765,39.183,39.183,0,0,0-6,2.187q-.359.162-.709.333A.905.905,0,0,1,430.566,125.937Zm21.15-1.544a.911.911,0,0,1-.463-.127,13.936,13.936,0,0,0-6.581-1.819.913.913,0,0,1-.876-.95.9.9,0,0,1,.949-.875,15.72,15.72,0,0,1,7.436,2.07.914.914,0,0,1-.465,1.7Zm-33.585-10.666a1,1,0,0,1-.143-.011.914.914,0,0,1-.761-1.044c.282-1.8.616-3.736,1.053-6.1q.111-.6.234-1.189a.913.913,0,1,1,1.788.374q-.119.571-.226,1.147c-.433,2.345-.765,4.267-1.044,6.049A.914.914,0,0,1,418.131,113.727Zm266.764-.57a.912.912,0,0,1-.886-.695c-.577-2.34-1.268-4.686-2.053-6.974a.913.913,0,0,1,1.728-.593c.8,2.339,1.508,4.738,2.1,7.13a.912.912,0,0,1-.668,1.1A.87.87,0,0,1,684.9,113.157ZM421.418,99.424a.914.914,0,0,1-.859-1.226,53.375,53.375,0,0,1,3.044-6.823.914.914,0,0,1,1.613.858,51.575,51.575,0,0,0-2.94,6.59A.913.913,0,0,1,421.418,99.424Zm258.716-.161a.915.915,0,0,1-.836-.543c-.973-2.193-2.059-4.387-3.228-6.519a.913.913,0,1,1,1.6-.878c1.194,2.177,2.3,4.416,3.3,6.656a.912.912,0,0,1-.464,1.205A.9.9,0,0,1,680.134,99.263ZM428.29,86.486a.912.912,0,0,1-.74-1.446,60.393,60.393,0,0,1,4.725-5.772.914.914,0,1,1,1.341,1.241,58.558,58.558,0,0,0-4.583,5.6A.914.914,0,0,1,428.29,86.486Zm244.791-.109a.912.912,0,0,1-.764-.412c-.837-1.274-1.724-2.554-2.635-3.8-.525-.72-1.061-1.433-1.6-2.118a.914.914,0,0,1,1.442-1.122c.545.7,1.093,1.428,1.63,2.164.928,1.275,1.831,2.579,2.685,3.878a.914.914,0,0,1-.763,1.415ZM561.012,77.159a.913.913,0,0,1-.07-1.824,40.4,40.4,0,0,0,7.067-1.277.913.913,0,0,1,.462,1.767,42.027,42.027,0,0,1-7.388,1.331C561.059,77.158,561.036,77.159,561.012,77.159Zm-7.269-.7a.918.918,0,0,1-.286-.045,13.647,13.647,0,0,1-4.615-2.581c-.595-.507-1.206-1.01-1.818-1.5a.913.913,0,1,1,1.137-1.43c.627.5,1.255,1.015,1.866,1.535a11.655,11.655,0,0,0,4,2.236.913.913,0,0,1-.285,1.781Zm-115.5-.747a.914.914,0,0,1-.6-1.607,72.472,72.472,0,0,1,5.892-4.55.914.914,0,0,1,1.042,1.5,70.228,70.228,0,0,0-5.743,4.435A.91.91,0,0,1,438.242,75.708Zm225.772-.882a.91.91,0,0,1-.66-.282,59.508,59.508,0,0,0-5.3-4.923.913.913,0,1,1,1.156-1.414,61.025,61.025,0,0,1,5.466,5.074.913.913,0,0,1-.66,1.545Zm-88.75-1.154a.913.913,0,0,1-.3-1.776c1.927-.672,4.047-1.456,6.875-2.542a.913.913,0,1,1,.655,1.705c-2.847,1.094-4.983,1.883-6.928,2.562A.907.907,0,0,1,575.264,73.672Zm13.763-5.21A.914.914,0,0,1,588.7,66.7c1.866-.72,4.338-1.666,6.9-2.6a.913.913,0,0,1,.623,1.717c-2.551.925-5.011,1.867-6.869,2.585A.929.929,0,0,1,589.027,68.462Zm-47.421-.195a.909.909,0,0,1-.49-.144c-2.017-1.286-4.139-2.494-6.309-3.591a.913.913,0,1,1,.824-1.63c2.224,1.124,4.4,2.362,6.467,3.681a.914.914,0,0,1-.492,1.684Zm-91.313-.949a.914.914,0,0,1-.448-1.71c2.126-1.194,4.358-2.321,6.635-3.349a.913.913,0,0,1,.752,1.665C455,64.93,452.819,66.033,450.74,67.2A.9.9,0,0,1,450.293,67.318Zm202.338-1.729a.915.915,0,0,1-.47-.131,45.4,45.4,0,0,0-6.44-3.217.913.913,0,1,1,.683-1.694,47.19,47.19,0,0,1,6.7,3.346.914.914,0,0,1-.472,1.7Zm-49.76-2.1a.914.914,0,0,1-.277-1.785c2.512-.8,4.841-1.47,7.121-2.049a.914.914,0,0,1,.45,1.771c-2.245.57-4.54,1.23-7.017,2.019A.89.89,0,0,1,602.871,63.49Zm-74.363-1.858a.907.907,0,0,1-.333-.064c-2.229-.872-4.544-1.66-6.882-2.341a.913.913,0,1,1,.511-1.754c2.39.7,4.758,1.5,7.037,2.394a.914.914,0,0,1-.333,1.765Zm-64.831-.371a.914.914,0,0,1-.306-1.774c2.306-.821,4.69-1.564,7.086-2.209a.913.913,0,0,1,.475,1.764c-2.349.633-4.687,1.362-6.948,2.166A.919.919,0,0,1,463.677,61.261Zm175.374-1.132a.926.926,0,0,1-.2-.023,47.733,47.733,0,0,0-7.13-1.027.914.914,0,1,1,.126-1.823,49.542,49.542,0,0,1,7.4,1.067.914.914,0,0,1-.2,1.806Zm-21.918-.205a.914.914,0,0,1-.151-1.815,70.77,70.77,0,0,1,7.4-.865.913.913,0,1,1,.112,1.823,69.291,69.291,0,0,0-7.206.844A.988.988,0,0,1,617.133,59.924ZM514.409,57.513a.933.933,0,0,1-.181-.018c-2.352-.473-4.77-.856-7.188-1.14a.913.913,0,1,1,.213-1.814c2.467.289,4.935.681,7.335,1.163a.913.913,0,0,1-.179,1.809Zm-36.549-.08a.913.913,0,0,1-.169-1.811c2.417-.458,4.886-.83,7.338-1.107a.914.914,0,0,1,.205,1.816c-2.407.271-4.831.637-7.2,1.086A.908.908,0,0,1,477.86,57.433Zm21.957-1.642h-.036c-2.408-.094-4.862-.1-7.283-.005a.913.913,0,1,1-.068-1.825c2.467-.092,4.967-.091,7.422,0a.913.913,0,0,1-.035,1.826Z" fill="#ccc"/>
      </g>
      <g id="Grupo_61847" data-name="Grupo 61847">
        <path id="Trazado_167328" data-name="Trazado 167328" d="M628.235,238.141a.914.914,0,0,1-.337-1.763c1.136-.452,2.26-.922,3.34-1.4a.913.913,0,1,1,.737,1.671c-1.1.486-2.245.965-3.4,1.425A.913.913,0,0,1,628.235,238.141Z" fill="#ccc"/>
      </g>
    </g>
    <g id="Grupo_61849" data-name="Grupo 61849">
      <rect id="Rectángulo_35126" data-name="Rectángulo 35126" width="289.2" height="9.885" transform="translate(404.322 238.042)" fill="#12263f"/>
      <path id="Trazado_167329" data-name="Trazado 167329" d="M693.823,248.228h-289.8V237.741h289.8Zm-289.2-.6h288.6v-9.282h-288.6Z" fill="#12263f"/>
    </g>
    <g id="Grupo_61866" data-name="Grupo 61866">
      <g id="Grupo_61850" data-name="Grupo 61850">
        <rect id="Rectángulo_35127" data-name="Rectángulo 35127" width="115.921" height="96.681" transform="translate(365.975 102.364)" fill="#fff"/>
        <path id="Trazado_167330" data-name="Trazado 167330" d="M483.468,200.616H364.4V100.792H483.468Zm-115.921-3.143H480.324V103.935H367.547Z" fill="#00001a"/>
      </g>
      <rect id="Rectángulo_35128" data-name="Rectángulo 35128" width="98.932" height="9.357" transform="translate(374.701 119.143)" fill="#5ac1ee"/>
      <rect id="Rectángulo_35129" data-name="Rectángulo 35129" width="115.921" height="11.498" transform="translate(365.975 102.364)" fill="#12263f"/>
      <g id="Grupo_61861" data-name="Grupo 61861">
        <g id="Grupo_61860" data-name="Grupo 61860">
          <rect id="Rectángulo_35130" data-name="Rectángulo 35130" width="58.29" height="41.104" transform="translate(415.342 149.787)" fill="#fff"/>
          <g id="Grupo_61859" data-name="Grupo 61859">
            <g id="Grupo_61851" data-name="Grupo 61851">
              <path id="Trazado_167331" data-name="Trazado 167331" d="M473.937,191.2h-2.131a.3.3,0,1,1,0-.609h1.522v-1.523a.3.3,0,0,1,.609,0Z" fill="#00001a"/>
            </g>
            <g id="Grupo_61852" data-name="Grupo 61852">
              <path id="Trazado_167332" data-name="Trazado 167332" d="M468.163,191.2h-3.642a.3.3,0,0,1,0-.609h3.642a.3.3,0,1,1,0,.609Zm-7.285,0h-3.642a.3.3,0,0,1,0-.609h3.642a.3.3,0,1,1,0,.609Zm-7.284,0h-3.643a.3.3,0,0,1,0-.609h3.643a.3.3,0,0,1,0,.609Zm-7.285,0h-3.643a.3.3,0,0,1,0-.609h3.643a.3.3,0,0,1,0,.609Zm-7.285,0h-3.642a.3.3,0,1,1,0-.609h3.642a.3.3,0,0,1,0,.609Zm-7.285,0H428.1a.3.3,0,1,1,0-.609h3.642a.3.3,0,0,1,0,.609Zm-7.285,0h-3.642a.3.3,0,1,1,0-.609h3.642a.3.3,0,1,1,0,.609Z" fill="#00001a"/>
            </g>
            <g id="Grupo_61853" data-name="Grupo 61853">
              <path id="Trazado_167333" data-name="Trazado 167333" d="M417.169,191.2h-2.131v-2.132a.3.3,0,0,1,.609,0v1.523h1.522a.3.3,0,1,1,0,.609Z" fill="#00001a"/>
            </g>
            <g id="Grupo_61854" data-name="Grupo 61854">
              <path id="Trazado_167334" data-name="Trazado 167334" d="M415.342,185.963a.3.3,0,0,1-.3-.3v-3.4a.3.3,0,0,1,.609,0v3.4A.3.3,0,0,1,415.342,185.963Zm0-6.809a.3.3,0,0,1-.3-.3v-3.4a.3.3,0,0,1,.609,0v3.4A.3.3,0,0,1,415.342,179.154Zm0-6.809a.3.3,0,0,1-.3-.3v-3.4a.3.3,0,0,1,.609,0v3.4A.3.3,0,0,1,415.342,172.345Zm0-6.809a.3.3,0,0,1-.3-.3v-3.4a.3.3,0,0,1,.609,0v3.4A.3.3,0,0,1,415.342,165.536Zm0-6.809a.3.3,0,0,1-.3-.3v-3.4a.3.3,0,0,1,.609,0v3.4A.3.3,0,0,1,415.342,158.727Z" fill="#00001a"/>
            </g>
            <g id="Grupo_61855" data-name="Grupo 61855">
              <path id="Trazado_167335" data-name="Trazado 167335" d="M415.342,151.918a.3.3,0,0,1-.3-.3v-2.132h2.131a.3.3,0,1,1,0,.609h-1.522v1.523A.3.3,0,0,1,415.342,151.918Z" fill="#00001a"/>
            </g>
            <g id="Grupo_61856" data-name="Grupo 61856">
              <path id="Trazado_167336" data-name="Trazado 167336" d="M468.163,150.091h-3.642a.3.3,0,1,1,0-.609h3.642a.3.3,0,0,1,0,.609Zm-7.285,0h-3.642a.3.3,0,1,1,0-.609h3.642a.3.3,0,1,1,0,.609Zm-7.285,0h-3.642a.3.3,0,0,1,0-.609h3.642a.3.3,0,1,1,0,.609Zm-7.285,0h-3.642a.3.3,0,0,1,0-.609h3.642a.3.3,0,1,1,0,.609Zm-7.284,0h-3.643a.3.3,0,0,1,0-.609h3.643a.3.3,0,0,1,0,.609Zm-7.285,0H428.1a.3.3,0,0,1,0-.609h3.643a.3.3,0,0,1,0,.609Zm-7.285,0h-3.642a.3.3,0,1,1,0-.609h3.642a.3.3,0,0,1,0,.609Z" fill="#00001a"/>
            </g>
            <g id="Grupo_61857" data-name="Grupo 61857">
              <path id="Trazado_167337" data-name="Trazado 167337" d="M473.633,151.918a.3.3,0,0,1-.3-.3v-1.523h-1.522a.3.3,0,1,1,0-.609h2.131v2.132A.3.3,0,0,1,473.633,151.918Z" fill="#00001a"/>
            </g>
            <g id="Grupo_61858" data-name="Grupo 61858">
              <path id="Trazado_167338" data-name="Trazado 167338" d="M473.633,185.963a.3.3,0,0,1-.3-.3v-3.4a.3.3,0,0,1,.609,0v3.4A.3.3,0,0,1,473.633,185.963Zm0-6.809a.3.3,0,0,1-.3-.3v-3.4a.3.3,0,0,1,.609,0v3.4A.3.3,0,0,1,473.633,179.154Zm0-6.809a.3.3,0,0,1-.3-.3v-3.4a.3.3,0,0,1,.609,0v3.4A.3.3,0,0,1,473.633,172.345Zm0-6.809a.3.3,0,0,1-.3-.3v-3.4a.3.3,0,0,1,.609,0v3.4A.3.3,0,0,1,473.633,165.536Zm0-6.809a.3.3,0,0,1-.3-.3v-3.4a.3.3,0,0,1,.609,0v3.4A.3.3,0,0,1,473.633,158.727Z" fill="#00001a"/>
            </g>
          </g>
        </g>
        <rect id="Rectángulo_35131" data-name="Rectángulo 35131" width="4.748" height="4.748" transform="translate(412.968 188.516)"/>
        <rect id="Rectángulo_35132" data-name="Rectángulo 35132" width="4.748" height="4.748" transform="translate(471.258 188.516)"/>
        <rect id="Rectángulo_35133" data-name="Rectángulo 35133" width="4.748" height="4.748" transform="translate(471.258 147.413)"/>
        <rect id="Rectángulo_35134" data-name="Rectángulo 35134" width="4.748" height="4.748" transform="translate(412.968 147.413)"/>
      </g>
      <g id="Grupo_61862" data-name="Grupo 61862">
        <rect id="Rectángulo_35135" data-name="Rectángulo 35135" width="31.505" height="61.323" transform="translate(351.565 151.132)" fill="#fff"/>
        <path id="Trazado_167339" data-name="Trazado 167339" d="M383.678,213.063H350.956V150.522h32.722Zm-31.5-1.218H382.46v-60.1H352.174Z" fill="#00001a"/>
      </g>
      <rect id="Rectángulo_35136" data-name="Rectángulo 35136" width="31.505" height="10.313" transform="translate(351.565 151.132)" fill="#00001a"/>
      <rect id="Rectángulo_35137" data-name="Rectángulo 35137" width="8.17" height="8.17" transform="translate(389.839 152.586)" fill="#00001a"/>
      <rect id="Rectángulo_35138" data-name="Rectángulo 35138" width="8.17" height="8.17" transform="translate(402.729 152.586)" fill="#fe735c"/>
      <rect id="Rectángulo_35139" data-name="Rectángulo 35139" width="8.17" height="8.17" transform="translate(389.839 165.476)" fill="#ffc711"/>
      <rect id="Rectángulo_35140" data-name="Rectángulo 35140" width="8.17" height="8.17" transform="translate(402.729 165.476)" fill="#ffe387"/>
      <rect id="Rectángulo_35141" data-name="Rectángulo 35141" width="8.17" height="8.17" transform="translate(389.839 178.366)" fill="#5ac1ee"/>
      <rect id="Rectángulo_35142" data-name="Rectángulo 35142" width="8.17" height="8.17" transform="translate(402.729 178.366)" fill="#00001a"/>
      <g id="Grupo_61864" data-name="Grupo 61864">
        <path id="Trazado_167340" data-name="Trazado 167340" d="M427.929,128.218l.85,5.315,3.721-3.1Z"/>
        <g id="Grupo_61863" data-name="Grupo 61863">
          <path id="Trazado_167341" data-name="Trazado 167341" d="M432.8,134.636a.308.308,0,0,1-.23-.1l-3.217-3.665a.3.3,0,1,1,.458-.4l3.217,3.665a.3.3,0,0,1-.228.505Z"/>
        </g>
      </g>
      <g id="Grupo_61865" data-name="Grupo 61865">
        <path id="Trazado_167342" data-name="Trazado 167342" d="M474.242,144.017H374.092V118.533h100.15ZM375.31,142.8h97.713V119.752H375.31Z" fill="#00001a"/>
      </g>
      <path id="Trazado_167343" data-name="Trazado 167343" d="M436.918,180.321V160.356l18.576,9.983Z" fill="#fe735c"/>
    </g>
    <g id="Grupo_61877" data-name="Grupo 61877">
      <g id="Grupo_61867" data-name="Grupo 61867">
        <rect id="Rectángulo_35143" data-name="Rectángulo 35143" width="18.659" height="11.418" transform="translate(400.834 69.563)" fill="#fffcf4"/>
        <path id="Trazado_167344" data-name="Trazado 167344" d="M419.875,81.364H400.451V69.181h19.424ZM401.216,80.6H419.11V69.946H401.216Z" fill="#00001a"/>
      </g>
      <g id="Grupo_61868" data-name="Grupo 61868">
        <rect id="Rectángulo_35144" data-name="Rectángulo 35144" width="18.659" height="11.418" transform="translate(418.457 69.563)" fill="#fff6db"/>
        <path id="Trazado_167345" data-name="Trazado 167345" d="M437.5,81.364H418.075V69.181H437.5ZM418.84,80.6h17.893V69.946H418.84Z" fill="#00001a"/>
      </g>
      <g id="Grupo_61869" data-name="Grupo 61869">
        <rect id="Rectángulo_35145" data-name="Rectángulo 35145" width="18.659" height="11.418" transform="translate(524.197 69.563)" fill="#ffd54d"/>
        <path id="Trazado_167346" data-name="Trazado 167346" d="M543.238,81.364H523.814V69.181h19.424ZM524.579,80.6h17.894V69.946H524.579Z" fill="#00001a"/>
      </g>
      <g id="Grupo_61870" data-name="Grupo 61870">
        <rect id="Rectángulo_35146" data-name="Rectángulo 35146" width="18.659" height="11.418" transform="translate(506.573 69.563)" fill="#ffda63"/>
        <path id="Trazado_167347" data-name="Trazado 167347" d="M525.615,81.364H506.191V69.181h19.424ZM506.956,80.6H524.85V69.946H506.956Z" fill="#00001a"/>
      </g>
      <g id="Grupo_61871" data-name="Grupo 61871">
        <rect id="Rectángulo_35147" data-name="Rectángulo 35147" width="18.659" height="11.418" transform="translate(488.95 69.563)" fill="#ffe07c"/>
        <path id="Trazado_167348" data-name="Trazado 167348" d="M507.991,81.364H488.568V69.181h19.423ZM489.333,80.6h17.893V69.946H489.333Z" fill="#00001a"/>
      </g>
      <g id="Grupo_61872" data-name="Grupo 61872">
        <rect id="Rectángulo_35148" data-name="Rectángulo 35148" width="18.659" height="11.418" transform="translate(471.327 69.563)" fill="#ffe694"/>
        <path id="Trazado_167349" data-name="Trazado 167349" d="M490.368,81.364H470.945V69.181h19.423ZM471.709,80.6H489.6V69.946H471.709Z" fill="#00001a"/>
      </g>
      <g id="Grupo_61873" data-name="Grupo 61873">
        <rect id="Rectángulo_35149" data-name="Rectángulo 35149" width="18.659" height="11.418" transform="translate(453.704 69.563)" fill="#ffebaa"/>
        <path id="Trazado_167350" data-name="Trazado 167350" d="M472.745,81.364H453.321V69.181h19.424ZM454.086,80.6H471.98V69.946H454.086Z" fill="#00001a"/>
      </g>
      <g id="Grupo_61874" data-name="Grupo 61874">
        <rect id="Rectángulo_35150" data-name="Rectángulo 35150" width="18.659" height="11.418" transform="translate(436.08 69.563)" fill="#fff1c5"/>
        <path id="Trazado_167351" data-name="Trazado 167351" d="M455.122,81.364H435.7V69.181h19.424ZM436.463,80.6h17.894V69.946H436.463Z" fill="#00001a"/>
      </g>
      <g id="Grupo_61875" data-name="Grupo 61875">
        <rect id="Rectángulo_35151" data-name="Rectángulo 35151" width="18.659" height="11.418" transform="translate(541.82 69.563)" fill="#ffd036"/>
        <path id="Trazado_167352" data-name="Trazado 167352" d="M560.861,81.364H541.438V69.181h19.423ZM542.2,80.6H560.1V69.946H542.2Z" fill="#00001a"/>
      </g>
      <g id="Grupo_61876" data-name="Grupo 61876">
        <rect id="Rectángulo_35152" data-name="Rectángulo 35152" width="18.659" height="11.418" transform="translate(559.443 69.563)" fill="#ffc711"/>
        <path id="Trazado_167353" data-name="Trazado 167353" d="M578.485,81.364H559.061V69.181h19.424ZM559.826,80.6h17.893V69.946H559.826Z" fill="#00001a"/>
      </g>
    </g>
    <ellipse id="Elipse_4208" data-name="Elipse 4208" cx="9.205" cy="9.041" rx="9.205" ry="9.041" transform="translate(462.906 66.232)" fill="#00001a"/>
    <g id="Grupo_61878" data-name="Grupo 61878">
      <path id="Trazado_167354" data-name="Trazado 167354" d="M343.442,180.626h-3.654a.3.3,0,0,1,0-.609h3.654a.3.3,0,1,1,0,.609Zm-7.307,0h-2.943V179.3a.3.3,0,0,1,.609,0v.712h2.334a.3.3,0,0,1,0,.609Zm-2.638-4.67a.3.3,0,0,1-.305-.3V172a.3.3,0,1,1,.609,0v3.653A.3.3,0,0,1,333.5,175.956Zm0-7.308a.3.3,0,0,1-.305-.3V164.69a.3.3,0,1,1,.609,0v3.654A.3.3,0,0,1,333.5,168.648Zm0-7.308a.3.3,0,0,1-.305-.3v-3.654a.3.3,0,0,1,.609,0v3.654A.3.3,0,0,1,333.5,161.34Zm0-7.307a.3.3,0,0,1-.305-.305v-3.654a.3.3,0,0,1,.609,0v3.654A.3.3,0,0,1,333.5,154.033Zm0-7.308a.3.3,0,0,1-.305-.3v-3.654a.3.3,0,1,1,.609,0v3.654A.3.3,0,0,1,333.5,146.725Zm0-7.308a.3.3,0,0,1-.305-.3v-3.654a.3.3,0,1,1,.609,0v3.654A.3.3,0,0,1,333.5,139.417Zm21.864-3.713h-3.654a.3.3,0,1,1,0-.609h3.654a.3.3,0,0,1,0,.609Zm-7.308,0H344.4a.3.3,0,0,1,0-.609h3.654a.3.3,0,0,1,0,.609Zm-7.308,0h-3.654a.3.3,0,0,1,0-.609h3.654a.3.3,0,1,1,0,.609Z" fill="#00001a"/>
    </g>
    <g id="Grupo_61879" data-name="Grupo 61879">
      <circle id="Elipse_4209" data-name="Elipse 4209" cx="3.053" cy="3.053" r="3.053" transform="matrix(1, -0.01, 0.01, 1, 352.276, 132.377)" fill="#5ac1ee"/>
      <path id="Trazado_167355" data-name="Trazado 167355" d="M355.361,138.757a3.357,3.357,0,1,1,3.357-3.357A3.361,3.361,0,0,1,355.361,138.757Zm0-6.107a2.75,2.75,0,1,0,2.749,2.75A2.753,2.753,0,0,0,355.361,132.65Z" fill="#00001a"/>
    </g>
    <g id="Grupo_61880" data-name="Grupo 61880">
      <path id="Trazado_167356" data-name="Trazado 167356" d="M347.482,180.321a3.053,3.053,0,1,1-3.053-3.053A3.054,3.054,0,0,1,347.482,180.321Z" fill="#fe735c"/>
      <path id="Trazado_167357" data-name="Trazado 167357" d="M344.429,183.679a3.358,3.358,0,1,1,3.358-3.358A3.361,3.361,0,0,1,344.429,183.679Zm0-6.107a2.749,2.749,0,1,0,2.749,2.749A2.752,2.752,0,0,0,344.429,177.572Z" fill="#00001a"/>
    </g>
    <g id="Grupo_61881" data-name="Grupo 61881">
      <path id="Trazado_167358" data-name="Trazado 167358" d="M508.038,111.425h-3.654a.3.3,0,0,1,0-.609h3.654a.3.3,0,0,1,0,.609Zm-7.308,0h-3.654a.3.3,0,0,1,0-.609h3.654a.3.3,0,1,1,0,.609Zm-7.308,0h-3.653a.3.3,0,1,1,0-.609h3.653a.3.3,0,1,1,0,.609Zm17.448-.822a.3.3,0,0,1-.3-.3v-3.654a.3.3,0,0,1,.609,0V110.3A.3.3,0,0,1,510.87,110.6Zm0-7.307a.3.3,0,0,1-.3-.305V99.337a.3.3,0,0,1,.609,0v3.654A.306.306,0,0,1,510.87,103.3Zm0-7.308a.3.3,0,0,1-.3-.305V92.029a.3.3,0,0,1,.609,0v3.654A.306.306,0,0,1,510.87,95.988Zm0-7.308a.3.3,0,0,1-.3-.305V87.321a.3.3,0,1,1,.609,0v1.054A.3.3,0,0,1,510.87,88.68Z" fill="#00001a"/>
    </g>
    <g id="Grupo_61882" data-name="Grupo 61882">
      <path id="Trazado_167359" data-name="Trazado 167359" d="M513.924,109.965a3.054,3.054,0,1,1-3.054-3.053A3.054,3.054,0,0,1,513.924,109.965Z" fill="#5ac1ee"/>
      <path id="Trazado_167360" data-name="Trazado 167360" d="M510.87,113.323a3.357,3.357,0,1,1,3.358-3.358A3.362,3.362,0,0,1,510.87,113.323Zm0-6.107a2.749,2.749,0,1,0,2.749,2.749A2.752,2.752,0,0,0,510.87,107.216Z" fill="#00001a"/>
    </g>
    <g id="Grupo_61883" data-name="Grupo 61883">
      <circle id="Elipse_4210" data-name="Elipse 4210" cx="2.462" cy="2.462" r="2.462" transform="translate(508.409 84.859)" fill="#fe735c"/>
      <path id="Trazado_167361" data-name="Trazado 167361" d="M510.87,90.087a2.766,2.766,0,1,1,2.766-2.766A2.769,2.769,0,0,1,510.87,90.087Zm0-4.923a2.157,2.157,0,1,0,2.158,2.157A2.159,2.159,0,0,0,510.87,85.164Z" fill="#00001a"/>
    </g>
    <g id="Grupo_61884" data-name="Grupo 61884">
      <path id="Trazado_167362" data-name="Trazado 167362" d="M492.322,111.12a2.553,2.553,0,1,1-2.553-2.553A2.553,2.553,0,0,1,492.322,111.12Z" fill="#fe735c"/>
      <path id="Trazado_167363" data-name="Trazado 167363" d="M489.769,113.978a2.857,2.857,0,1,1,2.858-2.858A2.861,2.861,0,0,1,489.769,113.978Zm0-5.107a2.249,2.249,0,1,0,2.249,2.249A2.252,2.252,0,0,0,489.769,108.871Z" fill="#00001a"/>
    </g>
  </g>
</svg>
