<svg xmlns="http://www.w3.org/2000/svg" xmlns:xlink="http://www.w3.org/1999/xlink" width="190" height="160" viewBox="0 0 190 160">
  <defs>
    <clipPath id="clip-path">
      <rect id="Rect치ngulo_35217" data-name="Rect치ngulo 35217" width="190" height="160" transform="translate(285 7468)" fill="none" stroke="#707070" stroke-width="1"/>
    </clipPath>
  </defs>
  <g id="Enmascarar_grupo_61" data-name="Enmascarar grupo 61" transform="translate(-285 -7468)" clip-path="url(#clip-path)">
    <g id="Grupo_62460" data-name="Grupo 62460">
      <path id="Rect치ngulo_35216" data-name="Rect치ngulo 35216" d="M21,0H169a21,21,0,0,1,21,21v88a0,0,0,0,1,0,0H0a0,0,0,0,1,0,0V21A21,21,0,0,1,21,0Z" transform="translate(285 7518.704)" fill="#bbabf5" opacity="0.3"/>
      <g id="Grupo_62461" data-name="Grupo 62461" transform="translate(-3253.858 7604.795)">
        <path id="Trazado_167726" data-name="Trazado 167726" d="M3692.671-23.309c1.732.506,2.093.989,2.1,2.888q.009,10.328,0,20.655a2.968,2.968,0,0,0,.467,1.8,14.393,14.393,0,0,1,2.435,8.425c0,2.337.011,4.675,0,7.013-.021,3.625-2.044,5.67-5.7,5.712-3.017.034-6.035.009-9.053.009q-13.323,0-26.647,0a6.155,6.155,0,0,1-3.675-.785.86.86,0,0,0-1.052.016,6.145,6.145,0,0,1-3.556.767q-17.659-.008-35.318,0a6.125,6.125,0,0,1-3.557-.755.982.982,0,0,0-1.184.028,5.392,5.392,0,0,1-3.179.724q-17.977,0-35.956-.005c-3.85-.006-5.894-2.081-5.85-5.952.035-3.1-.311-6.218.187-9.291a14.6,14.6,0,0,1,14.362-12.524c1.285-.035,1.736-.3,1.68-1.656a3.572,3.572,0,0,0-1.359-3,12.467,12.467,0,0,1-4.685-9.289c-.173-4.115-.115-8.242-.081-12.363a9.742,9.742,0,0,1,1.587-5.305c.425-.652.321-.846-.466-.845a17.107,17.107,0,0,1-5.314-.393,8.325,8.325,0,0,1-5.885-7.407c-.039-.507-.037-1.019-.037-1.529q0-30.919,0-61.839c0-5.995,3.413-9.411,9.4-9.414.978,0,1.955.008,2.932,0a2.291,2.291,0,0,1,2.568,1.953c-.3,1.706-.913,2.24-2.638,2.262-.977.012-1.953,0-2.93,0-3.661,0-5.162,1.509-5.163,5.194q0,29.236,0,58.472c0,.464.052.927.08,1.391-.029.676-.083,1.352-.083,2.027,0,3.559,1.564,5.124,5.129,5.124q38.5,0,76.995,0c3.627,0,5.161-1.558,5.164-5.228,0-4.462-.006-8.923.011-13.385.006-1.717.481-2.268,2.132-2.616,1.571.449,2.015,1.025,2.02,2.757.011,4.588.026,9.175,0,13.763-.035,5.33-3.552,8.827-8.891,8.876-2.209.02-4.418.023-6.626-.005-.776-.01-1.044.112-.538.886a9.543,9.543,0,0,1,1.537,5.181c.046,3.992.11,7.988-.022,11.977A13.184,13.184,0,0,1,3638.688-8.7,5.353,5.353,0,0,0,3638-4.839c.207.332.528.191.8.217,1.14.108,2.3.1,3.419.317a14.65,14.65,0,0,1,9.792,6.713c.106-.073.195-.1.238-.168a14.962,14.962,0,0,1,13.181-6.863c.244,0,.509.055.689-.2.378-.542-.033-3.378-.568-3.788a13.488,13.488,0,0,1-5.45-11c-.063-3.652-.083-7.308.006-10.958a10.315,10.315,0,0,1,6.263-9.694,1.252,1.252,0,0,0,.775-1.388c-.018-3.568-.008-7.136-.008-10.7q0-7.582-.006-15.164c0-.55.222-1.223-.794-1.2-3.267.061-6.535.062-9.8.087-.251-.026-.5-.073-.752-.073q-10.724-.007-21.448,0-6.413-1.378-6.451-7.872c-.008-1.189-.04-2.38.012-3.568a1.6,1.6,0,0,0-.825-1.561c-1.887-1.277-2.956-3.194-2.417-5.35.487-1.952-.3-3-1.532-4.093a3.766,3.766,0,0,1-.606-.653,2.384,2.384,0,0,0-3.1-1.114,2.879,2.879,0,0,1-1.763-.059,1.111,1.111,0,0,0-1.3.5c-1.158,1.466-2.336,2.917-3.552,4.336a1.729,1.729,0,0,0-.37,2.034,5.781,5.781,0,0,1-3.742,7.534c-3.153,1-6.911-.776-7.33-4.007-.312-2.407-1.64-3.251-3.43-4.06a12.264,12.264,0,0,1-1.565-.854,1.16,1.16,0,0,0-1.488.037,5.406,5.406,0,0,1-4.982.669,1.358,1.358,0,0,0-1.576.392c-.968.954-1.927,1.925-2.975,2.787-1.345,1.108-2.61,2.18-1.8,4.194a1.486,1.486,0,0,1-.009.632,5.871,5.871,0,0,1-6.781,5.315,5.873,5.873,0,0,1-4.875-7.1,5.869,5.869,0,0,1,7.331-4.353,1.639,1.639,0,0,0,1.9-.431c1.387-1.374,2.824-2.7,4.282-4a1.539,1.539,0,0,0,.556-1.748,5.8,5.8,0,0,1,4.358-7c3.244-.738,6.611,1.112,7.014,4.389.258,2.094,1.374,2.826,2.9,3.56.649.312,1.29.65,1.907,1.022a1.309,1.309,0,0,0,1.617-.016,5.221,5.221,0,0,1,4.133-.837,1.414,1.414,0,0,0,1.6-.658c1.126-1.437,2.271-2.862,3.471-4.238a1.635,1.635,0,0,0,.333-1.925,5.694,5.694,0,0,1,1.61-6.37,5.87,5.87,0,0,1,6.54-.841,5.258,5.258,0,0,1,3.133,5.72c-.469,2.032.318,3.164,1.629,4.321.476.42.878.923,1.324,1.378.518.529,4.768.385,5.234-.19,2.167-2.671,4.321-5.354,6.49-8.024a1.126,1.126,0,0,0,.26-1.251c-1.312-3.689.021-6.5,3.749-8.044,2.656-.528,4.909.128,6.467,2.421a5.525,5.525,0,0,1,.215,6.246c-1.436,2.454-3.715,3.18-6.422,2.875-.445-.3-.707,0-.954.3-2.212,2.743-4.415,5.493-6.637,8.228a.976.976,0,0,0-.172,1.157,5.362,5.362,0,0,1,.022,4.678c-.239.53-.14.789.489.776,1.992-.041,3.985-.064,5.977-.094,3.01.032,6.021.076,9.031.092,3.122.016,3.12,0,3.12-3.092q0-11.083,0-22.165c0-2.7-1.58-4.6-4-4.68-2.118-.074-4.241.012-6.363.027-.508-.018-1.015-.052-1.523-.052q-28.518,0-57.037,0c-1.966,0-2.472-.394-2.939-2.255.647-1.617,1.117-1.957,2.847-1.958q32.126,0,64.252.007c5.393,0,8.9,3.551,8.921,8.989q.04,11.92-.014,23.84c0,1.017.2,1.384,1.3,1.369,4.8-.064,9.6-.055,14.405-.005,1.02.011,1.364-.213,1.388-1.311a3.493,3.493,0,0,0-1.36-3.016,12.058,12.058,0,0,1-4.236-9.207c-.059-4.206-.05-8.414-.019-12.621a7.715,7.715,0,0,1,7.8-8.023q5.159-.142,10.325,0a7.747,7.747,0,0,1,7.809,7.916q.134,6.244-.005,12.493a12.833,12.833,0,0,1-5.15,10.225,4.35,4.35,0,0,0-.619,3.283c.225.393.605.223.918.23,2.117.047,4.26-.17,6.334.4a10.71,10.71,0,0,1,8.282,10.475q.139,12.492,0,24.986a10.443,10.443,0,0,1-9.621,10.391c-1.139.122-1.4.527-1.333,1.573.088,1.439.042,2.889.012,4.333a2.149,2.149,0,0,1-1.967,2.394c-1.578-.211-2.117-.806-2.136-2.4-.016-1.356-.031-2.712,0-4.067.022-.972-.171-1.608-1.365-1.636-.8-.018-1.6-.1-2.4-.036-.841-.075-1.306.033-.685,1.017a8.512,8.512,0,0,1,1.188,3.327c.493,3.334.118,6.687.228,10.029a21.389,21.389,0,0,1-1,8.51l-.308.954a.536.536,0,0,0-.466.573c-.019.145-.037.29-.055.434a.893.893,0,0,0-.743.82l-.232.261a12.113,12.113,0,0,1-1.943,1.8c-1.371.812-1.411,1.995-1.4,3.36.008,1.02.315,1.409,1.308,1.237a19.281,19.281,0,0,1,6.159,1.313c1.606.732,1.665.66,1.712-1.128.008-.3,0-.593,0-.889,0-5.163-.008-10.327.009-15.49C3690.666-22.479,3691.154-23.022,3692.671-23.309ZM3654.04-79.236h-19.5c-2.5,0-2.5,0-2.487,2.477.011,2.633,1.049,3.734,3.647,3.854.509.023,1.02.016,1.529.016h29.7c3.548,0,4.381.822,4.382,4.327,0,8.668.018,17.336-.021,26,0,1.049.271,1.37,1.344,1.36q8.285-.078,16.571,0c1.1.011,1.444-.245,1.435-1.4-.054-7.308-.028-14.617-.023-21.925a7.753,7.753,0,0,1,.083-1.523,1.889,1.889,0,0,1,1.87-1.613,1.909,1.909,0,0,1,1.989,1.294,4.432,4.432,0,0,1,.214,1.758c0,7.351.029,14.7-.028,22.052-.01,1.245.383,1.4,1.473,1.182,3.255-.652,5.344-3.251,5.355-6.926.024-7.818.009-15.636,0-23.455a12.148,12.148,0,0,0-.125-1.777,6.632,6.632,0,0,0-6.037-5.637c-1.481-.1-2.975-.007-4.458-.091a1.515,1.515,0,0,0-1.639,1.028,6.894,6.894,0,0,1-6.558,4.057,6.911,6.911,0,0,1-6.418-4.088,1.535,1.535,0,0,0-1.646-.994C3667.807-79.225,3660.923-79.236,3654.04-79.236ZM3608.5-37.018c-3.015,0-6.031.02-9.046-.013-.85-.009-.97.188-.5.9a9.622,9.622,0,0,1,1.577,5.3c.036,3.949.072,7.9-.043,11.847A12.514,12.514,0,0,1,3596-9.478a4,4,0,0,0-1.589,3.668c.049.9.194,1.215,1.181,1.22A14.531,14.531,0,0,1,3608,1.743c.4.554.611.694,1.064.053a14.752,14.752,0,0,1,12.758-6.419c.27,0,.595.128.789-.224A5.215,5.215,0,0,0,3621.8-8.8a13.031,13.031,0,0,1-5.1-9.208,126.236,126.236,0,0,1-.111-13.114,8.974,8.974,0,0,1,1.5-4.932c.525-.783.347-.98-.539-.972C3614.534-37,3611.519-37.02,3608.5-37.018Zm-21.676,56.007c2.294,0,4.589-.039,6.882.019.914.023,1.189-.3,1.149-1.173a29.372,29.372,0,0,1,.034-3.438,2.044,2.044,0,1,1,4.087-.023c.1,1.224.075,2.46.065,3.691,0,.622.175.943.864.932,1.741-.028,3.483-.009,5.225-.013.967,0,1.343-.512,1.333-1.455-.024-2.251.009-4.5,0-6.754-.043-6.895-4.7-11.373-11.586-11.188a1.41,1.41,0,0,0-1.341.736,4.679,4.679,0,0,1-3.214,2.305,24.212,24.212,0,0,1-6.349.128A5,5,0,0,1,3580.013.3a1.171,1.171,0,0,0-.965-.71c-5.234-.3-9.625,2.174-11.289,7.079-1.246,3.671-.541,7.5-.619,11.262-.018.851.682,1.068,1.45,1.061,1.7-.015,3.4-.041,5.1.01.805.024,1.024-.283,1-1.039a32.849,32.849,0,0,1,.021-3.566,2.057,2.057,0,1,1,4.111.1c.033.933.012,1.869.015,2.8.006,1.686.006,1.688,1.628,1.69Q3583.642,18.994,3586.828,18.989Zm43.543.005c2.21,0,4.423-.068,6.628.028,1.177.051,1.483-.375,1.4-1.461a23.445,23.445,0,0,1,0-3.057,2.07,2.07,0,1,1,4.134.022c.053,1.145.053,2.3.012,3.441-.028.766.233,1.059,1.021,1.037,1.614-.046,3.23-.048,4.844,0,1.176.036,1.575-.5,1.552-1.619-.046-2.209-.007-4.419-.017-6.629-.032-6.918-4.659-11.372-11.566-11.172a1.4,1.4,0,0,0-1.323.747,4.926,4.926,0,0,1-3.72,2.387,31.317,31.317,0,0,1-5.469.085,5.213,5.213,0,0,1-4.411-2.611,1.054,1.054,0,0,0-.889-.6c-6.432-.42-11.057,3.649-11.761,9.061a80.978,80.978,0,0,0-.159,9.168c-.014.869.563,1.17,1.347,1.171,1.742,0,3.485-.032,5.226.018.82.023,1.02-.329,1-1.064-.035-1.146-.043-2.3.015-3.441a2.067,2.067,0,1,1,4.126.023c.04,1.1.061,2.212,0,3.313-.048.867.205,1.2,1.13,1.173C3625.781,18.952,3628.077,18.993,3630.371,18.994Zm43.585-.007c2.209,0,4.421-.057,6.627.024,1.1.041,1.4-.362,1.33-1.388a21.9,21.9,0,0,1,.017-3.056c.1-1.479.857-2.248,2.08-2.244s1.991.789,2.069,2.261c.06,1.144.045,2.295.012,3.44-.021.71.243.987.963.972,1.656-.034,3.314-.029,4.97-.008,1.082.014,1.511-.468,1.488-1.555-.048-2.208-.012-4.418-.014-6.628-.007-6.845-4.535-11.287-11.4-11.226a1.622,1.622,0,0,0-1.553.823,4.886,4.886,0,0,1-3.635,2.3,32.289,32.289,0,0,1-5.6.082,5.189,5.189,0,0,1-4.318-2.546c-.206-.322-.391-.618-.858-.651-6.247-.442-10.879,3.444-11.727,8.65-.515,3.158-.148,6.362-.208,9.545-.016.861.5,1.2,1.308,1.2,1.742,0,3.485-.035,5.225.017.837.025,1-.363.983-1.076-.027-1.146-.049-2.3.025-3.44a2.087,2.087,0,1,1,4.168.054c.051,1.145.056,2.3.006,3.44-.035.787.256,1.031,1.029,1.018C3669.282,18.959,3671.619,18.984,3673.956,18.988ZM3620.8-29.3c0,.416-.017.8,0,1.18a9.233,9.233,0,0,0,4.9,8.1,9.031,9.031,0,0,0,9.972-.463c3.683-2.5,4.527-6.266,4.166-10.416a6.3,6.3,0,0,0-6.969-6.021c-1.987.127-3.989.012-5.984.029a5.725,5.725,0,0,0-3.548,1.189C3621.207-34.066,3620.641-31.812,3620.8-29.3Zm-34.078-7.6v.006c-1.146,0-2.292-.021-3.437,0a6.1,6.1,0,0,0-5.89,5.3,18.663,18.663,0,0,0,.01,4.42,9.443,9.443,0,0,0,14.038,7.13c4.175-2.52,5.376-6.271,4.736-11.028-.553-4.112-2.743-5.821-6.912-5.835C3588.422-36.907,3587.574-36.9,3586.725-36.9Zm87.237,0v.007c-1.273,0-2.547-.029-3.819.006a6.115,6.115,0,0,0-5.737,5.6c-.055,1.185-.031,2.376,0,3.563a9.354,9.354,0,0,0,7.306,8.677,9.628,9.628,0,0,0,10.277-4.368c1.309-2.241,1.384-4.662,1.341-7.136a6.106,6.106,0,0,0-6.316-6.345C3676-36.911,3674.98-36.9,3673.962-36.9Zm9.1-66.345v.021c-1.827,0-3.656-.068-5.479.019a3.547,3.547,0,0,0-3.39,3.48,25.534,25.534,0,0,0,.068,3.309,8.7,8.7,0,0,0,6.152,7.523,8.77,8.77,0,0,0,9.311-2.814c1.9-2.25,2.106-4.922,2.021-7.686a3.662,3.662,0,0,0-3.84-3.845C3686.294-103.277,3684.679-103.246,3683.064-103.246Zm-.036,85.322a14.4,14.4,0,0,1-9.331,3.333,14.059,14.059,0,0,1-9.266-3.614,8.85,8.85,0,0,0,4.1,6.547,3.491,3.491,0,0,1,1.849,3.436,38.34,38.34,0,0,0,.076,5.6,1.243,1.243,0,0,0,1.414,1.262c1.274.018,2.549-.009,3.824.01,1.122.017,1.623-.5,1.6-1.63-.035-1.656.071-3.319-.031-4.969a3.77,3.77,0,0,1,1.886-3.721A8.248,8.248,0,0,0,3683.028-17.924ZM3621-18.085a6.131,6.131,0,0,0,.067.7,8.6,8.6,0,0,0,3.754,5.534,3.894,3.894,0,0,1,2.051,4.007c-.129,1.559-.036,3.137-.022,4.706.013,1.423.327,1.755,1.7,1.778,1.188.02,2.376-.016,3.563.006,1.162.021,1.725-.48,1.691-1.681-.039-1.4.108-2.811-.036-4.2a4.731,4.731,0,0,1,2.448-4.957,8.08,8.08,0,0,0,3.462-5.941C3633.4-13.424,3627.286-13.379,3621-18.085Zm-43.514.01a3.012,3.012,0,0,0,0,.515,8.958,8.958,0,0,0,3.964,5.83,3.563,3.563,0,0,1,1.893,3.567c-.126,1.731-.012,3.478-.034,5.217-.013,1.049.442,1.592,1.511,1.589,1.315,0,2.631,0,3.946,0a1.3,1.3,0,0,0,1.476-1.485c-.014-1.358.115-2.728-.027-4.071a4.92,4.92,0,0,1,2.612-5.368c1.8-1.045,3.478-4.14,3.11-5.69C3590.616-13.593,3583.393-13.3,3577.486-18.074Zm105.552-95.3c-1.4,0-2.805.085-4.2-.016-4.056-.295-5.01,2.721-4.612,5.857.032.256,0,.618.394.718a5.871,5.871,0,0,0,3.281-1.6,2.084,2.084,0,0,1,2.042-1.252,1.789,1.789,0,0,1,1.809,1.343c.2.744.664.844,1.327.852,1.99.026,3.982-.1,5.973.08.874.08,1.948.9,2.479.4.589-.556.18-1.771.176-2.7a3.613,3.613,0,0,0-3.709-3.682C3686.347-113.385,3684.692-113.369,3683.038-113.373Zm2.919,30.785-.052,0c0-.467,0-.933,0-1.4,0-.411-.15-.623-.616-.535a12.5,12.5,0,0,1-4.929-.046c-.455-.095-.617.146-.61.56a28.269,28.269,0,0,0,.08,3.048,3.019,3.019,0,0,0,2.989,2.608,3,3,0,0,0,2.976-2.464A15.424,15.424,0,0,0,3685.958-82.588Zm-65.447-16.2a1.751,1.751,0,0,0-1.71-1.708,1.8,1.8,0,0,0-1.75,1.814,1.784,1.784,0,0,0,1.788,1.637A1.75,1.75,0,0,0,3620.511-98.791Zm-42.9,17.8a1.692,1.692,0,0,0-1.667,1.724,1.741,1.741,0,0,0,1.678,1.737,1.8,1.8,0,0,0,1.75-1.81A1.745,1.745,0,0,0,3577.61-80.994Zm68.968-23.43a1.8,1.8,0,0,0-1.706-1.721,1.757,1.757,0,0,0-1.725,1.817,1.719,1.719,0,0,0,1.76,1.638A1.733,1.733,0,0,0,3646.578-104.424Zm-54.935,13.739a1.681,1.681,0,0,0,1.729-1.651,1.785,1.785,0,0,0-1.615-1.8,1.777,1.777,0,0,0-1.792,1.749A1.682,1.682,0,0,0,3591.643-90.685Zm40.444,4.186a1.717,1.717,0,0,0-1.638-1.761,1.717,1.717,0,0,0-1.75,1.768,1.7,1.7,0,0,0,1.7,1.681A1.683,1.683,0,0,0,3632.087-86.5Zm-25.221,4a1.7,1.7,0,0,0,1.745-1.634,1.685,1.685,0,0,0-1.6-1.769,1.651,1.651,0,0,0-1.8,1.683A1.688,1.688,0,0,0,3606.866-82.494Z" fill="#12263f"/>
        <path id="Trazado_167727" data-name="Trazado 167727" d="M3594.911-109.82c.467,1.861.973,2.255,2.939,2.255q28.518,0,57.037,0c.508,0,1.015.034,1.523.052-.087,1.117.4,2.37-.769,3.229-3.727,1.539-5.061,4.355-3.749,8.044a1.126,1.126,0,0,1-.26,1.251c-2.169,2.67-4.322,5.353-6.49,8.024-.467.575-4.716.719-5.234.19-.446-.455-.848-.958-1.324-1.378-1.312-1.158-2.1-2.289-1.629-4.321a5.258,5.258,0,0,0-3.133-5.72,5.87,5.87,0,0,0-6.541.841,5.693,5.693,0,0,0-1.61,6.37,1.635,1.635,0,0,1-.333,1.925c-1.2,1.375-2.344,2.8-3.471,4.238a1.413,1.413,0,0,1-1.6.658,5.221,5.221,0,0,0-4.133.837,1.309,1.309,0,0,1-1.617.016c-.617-.372-1.258-.709-1.907-1.022-1.525-.733-2.642-1.466-2.9-3.56-.4-3.277-3.77-5.127-7.014-4.389a5.8,5.8,0,0,0-4.357,7,1.54,1.54,0,0,1-.556,1.748c-1.458,1.3-2.9,2.626-4.283,4a1.638,1.638,0,0,1-1.9.431,5.869,5.869,0,0,0-7.331,4.353,5.873,5.873,0,0,0,4.875,7.1,5.871,5.871,0,0,0,6.781-5.315,1.486,1.486,0,0,0,.009-.632c-.809-2.014.457-3.086,1.8-4.194,1.047-.862,2.007-1.833,2.975-2.787a1.358,1.358,0,0,1,1.576-.392,5.406,5.406,0,0,0,4.982-.669,1.159,1.159,0,0,1,1.487-.037,12.249,12.249,0,0,0,1.565.854c1.79.809,3.117,1.653,3.429,4.06.419,3.231,4.177,5.011,7.33,4.007a5.781,5.781,0,0,0,3.742-7.534,1.729,1.729,0,0,1,.37-2.034c1.216-1.419,2.394-2.87,3.552-4.336a1.111,1.111,0,0,1,1.3-.5,2.879,2.879,0,0,0,1.763.059,2.384,2.384,0,0,1,3.1,1.114,3.767,3.767,0,0,0,.606.653c1.236,1.092,2.019,2.14,1.532,4.093-.538,2.155.531,4.073,2.417,5.35a1.6,1.6,0,0,1,.825,1.561c-.052,1.187-.02,2.378-.012,3.568q.042,6.5,6.451,7.872a12.928,12.928,0,0,1-2.089,2.972,65.484,65.484,0,0,1-5.392,5.539c-.129.106-.117.384-.171.582-.635.018-1.271.051-1.906.051q-24.576,0-49.153,0a2.39,2.39,0,0,0-2.53,1.313,2.13,2.13,0,0,0,.8,2.587c.054.325.141.58.505.234.763.009,1.526.026,2.289.026q20.612,0,41.224,0c.465,0,.93.033,1.395.051-.025.676-.564.927-1.05,1.119-2.014.8-3.9,1.852-5.843,2.791q-18.468-.013-36.935-.021c-2.031,0-2.78,1-2.39,3.049-1.963.441-3.939-.075-5.906.08-.028-.463-.08-.927-.08-1.391q-.006-29.236,0-58.472c0-3.685,1.5-5.191,5.163-5.194.977,0,1.953.01,2.93,0,1.725-.022,2.34-.557,2.638-2.262A9.278,9.278,0,0,0,3594.911-109.82Z" transform="translate(-12.387 -5.835)" fill="#d6deeb"/>
        <path id="Trazado_167728" data-name="Trazado 167728" d="M4037.01,198.339c.8-.061,1.6.018,2.4.036,1.194.028,1.387.663,1.366,1.636-.03,1.355-.014,2.712,0,4.067.019,1.6.558,2.192,2.136,2.4q-.062,2.793-.123,5.585c-1.517.287-2,.83-2.01,2.4-.017,5.163-.009,10.326-.01,15.49,0,.3.008.593,0,.889-.047,1.789-.106,1.86-1.712,1.128a19.282,19.282,0,0,0-6.159-1.313,6.579,6.579,0,0,1,1.831-5.565.979.979,0,0,0,.2-.834l.233-.261c.546,0,.812-.26.742-.821l.055-.434a.438.438,0,0,0,.465-.573l.308-.954c.691-.121.809-.752.931-1.237a15.588,15.588,0,0,0,.595-3.864c-.011-3.858-.024-7.717.007-11.575a10.785,10.785,0,0,0-.756-4.815C4037.315,199.3,4036.858,198.914,4037.01,198.339Z" transform="translate(-350.121 -235.375)" fill="#344966"/>
        <path id="Trazado_167729" data-name="Trazado 167729" d="M3856.093,32.912c6.883,0,13.767.011,20.65-.015a1.535,1.535,0,0,1,1.646.994,7.2,7.2,0,0,0,12.976.031A1.514,1.514,0,0,1,3893,32.894c1.483.084,2.977-.012,4.457.091a6.632,6.632,0,0,1,6.037,5.637,12.115,12.115,0,0,1,.125,1.777c.009,7.818.024,15.637,0,23.455-.011,3.675-2.1,6.274-5.356,6.926-1.09.218-1.483.064-1.473-1.182.057-7.35.027-14.7.029-22.052a4.432,4.432,0,0,0-.214-1.758,1.909,1.909,0,0,0-1.989-1.294,1.89,1.89,0,0,0-1.87,1.613,7.772,7.772,0,0,0-.083,1.523c0,7.308-.032,14.617.023,21.925.009,1.154-.337,1.409-1.435,1.4q-8.285-.083-16.571,0c-1.073.01-1.349-.311-1.344-1.36.039-8.668.023-17.336.021-26,0-3.505-.833-4.327-4.382-4.327h-29.7c-.51,0-1.02.008-1.529-.016-2.6-.12-3.636-1.221-3.647-3.854-.01-2.477-.01-2.477,2.487-2.477Z" transform="translate(-202.053 -112.147)" fill="#472ea6"/>
        <path id="Trazado_167730" data-name="Trazado 167730" d="M3624.8,91.482c1.943-.939,3.829-2,5.843-2.791.487-.192,1.026-.443,1.05-1.119.422-.019.844-.055,1.265-.055q12.407-.005,24.815,0c2.156,0,3.179-.669,3.171-2.072s-1.037-2.073-3.177-2.079q-9.351-.025-18.7-.055c.053-.2.042-.477.171-.582a65.484,65.484,0,0,0,5.392-5.539,12.928,12.928,0,0,0,2.089-2.972q10.724,0,21.448,0c.251,0,.5.048.752.073l0,6.219c-1.651.349-2.126.9-2.132,2.616-.017,4.461-.008,8.923-.011,13.385,0,3.671-1.537,5.228-5.164,5.228q-38.5,0-76.994,0c-3.566,0-5.133-1.565-5.129-5.124,0-.676.054-1.352.083-2.027,1.967-.155,3.943.361,5.906-.08a3,3,0,0,0,2.555,1.126q17.763-.035,35.525-.011c1.138,0,2.14-.218,2.543-1.445C3626.525,92.887,3625.822,92.1,3624.8,91.482Z" transform="translate(-12.386 -142.932)" fill="#cad1e0"/>
        <path id="Trazado_167731" data-name="Trazado 167731" d="M3598.956,361.334q-3.186,0-6.372,0c-1.622,0-1.622,0-1.628-1.69,0-.934.019-1.87-.015-2.8a2.057,2.057,0,1,0-4.111-.1,33.036,33.036,0,0,0-.021,3.566c.03.756-.189,1.063-.995,1.039-1.7-.051-3.4-.025-5.1-.01-.768.007-1.468-.21-1.45-1.061.079-3.761-.626-7.591.619-11.262,1.665-4.905,6.055-7.376,11.29-7.079a1.171,1.171,0,0,1,.965.71,5,5,0,0,0,3.961,2.452,24.212,24.212,0,0,0,6.348-.128,4.68,4.68,0,0,0,3.214-2.305,1.41,1.41,0,0,1,1.341-.736c6.886-.185,11.542,4.293,11.586,11.188.014,2.251-.019,4.5,0,6.754.01.942-.366,1.452-1.333,1.455-1.742,0-3.484-.016-5.225.013-.689.011-.869-.31-.864-.932.01-1.231.035-2.467-.066-3.691a2.044,2.044,0,1,0-4.087.023,29.372,29.372,0,0,0-.034,3.438c.039.874-.236,1.2-1.15,1.173C3603.545,361.294,3601.25,361.333,3598.956,361.334Z" transform="translate(-12.128 -342.344)" fill="#bbabf5"/>
        <path id="Trazado_167732" data-name="Trazado 167732" d="M3769.766,361.308c-2.295,0-4.591-.042-6.884.02-.925.025-1.177-.306-1.13-1.173.061-1.1.041-2.21,0-3.313a2.067,2.067,0,1,0-4.126-.023c-.059,1.145-.05,2.3-.015,3.441.023.735-.177,1.087-1,1.064-1.741-.05-3.484-.015-5.227-.018-.784,0-1.361-.3-1.347-1.171a80.978,80.978,0,0,1,.159-9.168c.7-5.412,5.33-9.481,11.761-9.061a1.054,1.054,0,0,1,.889.6,5.213,5.213,0,0,0,4.411,2.611,31.32,31.32,0,0,0,5.469-.085,4.926,4.926,0,0,0,3.72-2.387,1.4,1.4,0,0,1,1.323-.747c6.906-.2,11.534,4.254,11.566,11.172.01,2.21-.029,4.42.017,6.629.024,1.123-.375,1.655-1.551,1.619-1.613-.049-3.23-.047-4.844,0-.789.022-1.05-.271-1.022-1.037.042-1.146.042-2.3-.011-3.441a2.07,2.07,0,1,0-4.134-.022,23.488,23.488,0,0,0,0,3.057c.086,1.086-.22,1.512-1.4,1.461C3774.189,361.241,3771.976,361.309,3769.766,361.308Z" transform="translate(-139.395 -342.315)" fill="#fd8f25"/>
        <path id="Trazado_167733" data-name="Trazado 167733" d="M3940.49,361.294c-2.336,0-4.674-.027-7.01.013-.773.013-1.063-.23-1.029-1.018.05-1.145.045-2.3-.006-3.44a2.041,2.041,0,0,0-1.987-2.211,2.061,2.061,0,0,0-2.182,2.157c-.074,1.143-.052,2.294-.025,3.44.017.712-.147,1.1-.983,1.076-1.74-.052-3.483-.021-5.225-.017-.81,0-1.323-.336-1.307-1.2.059-3.183-.307-6.387.207-9.545.848-5.207,5.481-9.092,11.727-8.65.467.033.652.329.858.651a5.189,5.189,0,0,0,4.318,2.546,32.294,32.294,0,0,0,5.6-.082,4.886,4.886,0,0,0,3.635-2.3,1.622,1.622,0,0,1,1.553-.823c6.866-.06,11.394,4.381,11.4,11.226,0,2.209-.034,4.419.014,6.628.023,1.086-.406,1.569-1.488,1.555-1.657-.021-3.314-.026-4.97.008-.72.015-.983-.263-.963-.972.033-1.146.048-2.3-.012-3.44-.078-1.472-.836-2.257-2.068-2.261s-1.978.764-2.08,2.244a21.9,21.9,0,0,0-.017,3.056c.073,1.026-.228,1.429-1.33,1.388C3944.911,361.239,3942.7,361.3,3940.49,361.294Z" transform="translate(-266.534 -342.308)" fill="#bbabf5"/>
        <path id="Trazado_167734" data-name="Trazado 167734" d="M3789.938,206.411c-.162-2.508.4-4.762,2.536-6.406a5.723,5.723,0,0,1,3.548-1.189c2-.016,4,.1,5.984-.029a6.3,6.3,0,0,1,6.97,6.021c.361,4.15-.483,7.921-4.166,10.416a9.031,9.031,0,0,1-9.972.463,9.233,9.233,0,0,1-4.9-8.1C3789.921,207.21,3789.938,206.827,3789.938,206.411Z" transform="translate(-169.135 -235.715)" fill="#344966"/>
        <path id="Trazado_167735" data-name="Trazado 167735" d="M3628.807,198.918c.849,0,1.7,0,2.546,0,4.169.014,6.359,1.723,6.912,5.835.64,4.757-.561,8.508-4.736,11.028a9.443,9.443,0,0,1-14.038-7.13,18.663,18.663,0,0,1-.01-4.42,6.1,6.1,0,0,1,5.89-5.3c1.145-.025,2.292,0,3.437,0Z" transform="translate(-42.082 -235.823)" fill="#344966"/>
        <path id="Trazado_167736" data-name="Trazado 167736" d="M3970.408,198.927c1.018,0,2.037-.01,3.055,0a6.106,6.106,0,0,1,6.316,6.345c.043,2.474-.032,4.9-1.341,7.136a9.628,9.628,0,0,1-10.277,4.368,9.354,9.354,0,0,1-7.306-8.677c-.034-1.187-.058-2.378,0-3.563a6.115,6.115,0,0,1,5.737-5.6c1.272-.035,2.546-.006,3.819-.006Z" transform="translate(-296.446 -235.827)" fill="#344966"/>
        <path id="Trazado_167737" data-name="Trazado 167737" d="M3875.062-97.674c1.169-.859.682-2.112.769-3.229,2.121-.015,4.245-.1,6.363-.027,2.422.085,4,1.975,4,4.68q.015,11.083,0,22.165c0,3.1,0,3.107-3.12,3.092-3.01-.015-6.021-.06-9.031-.092.482-3.613,1.584-7.131,1.677-10.8.036-1.423.615-2.918-.4-4.248,2.707.306,4.986-.421,6.422-2.875a5.524,5.524,0,0,0-.215-6.246C3879.97-97.546,3877.717-98.2,3875.062-97.674Z" transform="translate(-231.808 -12.442)" fill="#cad1e0"/>
        <path id="Trazado_167738" data-name="Trazado 167738" d="M4008.126-61.182c1.614,0,3.229-.031,4.843.007a3.662,3.662,0,0,1,3.84,3.845c.084,2.764-.122,5.436-2.021,7.686a8.77,8.77,0,0,1-9.311,2.814,8.7,8.7,0,0,1-6.152-7.523,25.534,25.534,0,0,1-.068-3.309,3.547,3.547,0,0,1,3.39-3.48c1.822-.087,3.652-.019,5.479-.019Z" transform="translate(-325.062 -42.063)" fill="#f7beb7"/>
        <path id="Trazado_167739" data-name="Trazado 167739" d="M3979.647,272.509a8.248,8.248,0,0,1-3.881,6.251,3.77,3.77,0,0,0-1.886,3.721c.1,1.651,0,3.313.031,4.969.024,1.131-.477,1.647-1.6,1.63-1.274-.019-2.549.008-3.824-.01a1.243,1.243,0,0,1-1.414-1.262,38.34,38.34,0,0,1-.076-5.6,3.492,3.492,0,0,0-1.849-3.436,8.849,8.849,0,0,1-4.1-6.547,14.058,14.058,0,0,0,9.265,3.614A14.405,14.405,0,0,0,3979.647,272.509Z" transform="translate(-296.619 -290.434)" fill="#f4bcb5"/>
        <path id="Trazado_167740" data-name="Trazado 167740" d="M3790.785,272.574c6.286,4.706,12.4,4.661,18.674-.043a8.08,8.08,0,0,1-3.461,5.941,4.731,4.731,0,0,0-2.448,4.957c.144,1.385,0,2.8.036,4.2.034,1.2-.53,1.7-1.691,1.681-1.187-.022-2.375.014-3.563-.006-1.37-.023-1.684-.356-1.7-1.778-.014-1.569-.106-3.148.022-4.706a3.894,3.894,0,0,0-2.051-4.007,8.6,8.6,0,0,1-3.754-5.534A6.131,6.131,0,0,1,3790.785,272.574Z" transform="translate(-169.786 -290.659)" fill="#f4bcb5"/>
        <path id="Trazado_167741" data-name="Trazado 167741" d="M3620.175,272.742c5.907,4.779,13.13,4.481,18.454.1.368,1.551-1.314,4.646-3.11,5.69a4.92,4.92,0,0,0-2.612,5.368c.143,1.343.013,2.713.027,4.071a1.3,1.3,0,0,1-1.476,1.485c-1.315,0-2.63,0-3.946,0-1.069,0-1.525-.54-1.511-1.589.022-1.739-.091-3.486.034-5.217a3.563,3.563,0,0,0-1.893-3.567,8.958,8.958,0,0,1-3.964-5.83A3,3,0,0,1,3620.175,272.742Z" transform="translate(-42.689 -290.816)" fill="#f4bcb5"/>
        <path id="Trazado_167742" data-name="Trazado 167742" d="M4008.022-100.951c1.654,0,3.309-.014,4.962.005a3.612,3.612,0,0,1,3.709,3.682c0,.925.413,2.139-.176,2.7-.531.5-1.605-.318-2.479-.4-1.991-.183-3.983-.055-5.973-.08-.663-.008-1.125-.108-1.327-.852a1.789,1.789,0,0,0-1.809-1.343,2.085,2.085,0,0,0-2.042,1.252,5.87,5.87,0,0,1-3.281,1.6c-.39-.1-.362-.462-.394-.718-.4-3.136.556-6.151,4.612-5.857C4005.216-100.867,4006.622-100.952,4008.022-100.951Z" transform="translate(-324.984 -12.42)" fill="#344966" stroke="#344966" stroke-width="1"/>
        <path id="Trazado_167743" data-name="Trazado 167743" d="M3856.031-43.2c1.016,1.331.438,2.825.4,4.248-.093,3.668-1.2,7.187-1.677,10.8-1.992.03-3.984.053-5.977.094-.63.013-.729-.246-.49-.776a5.362,5.362,0,0,0-.022-4.678.977.977,0,0,1,.172-1.157c2.222-2.735,4.425-5.485,6.637-8.228C3855.324-43.2,3855.587-43.5,3856.031-43.2Z" transform="translate(-212.518 -55.377)" fill="#d6deeb"/>
        <path id="Trazado_167744" data-name="Trazado 167744" d="M4027.306,13.981a15.48,15.48,0,0,1-.162,1.767,3.023,3.023,0,0,1-5.965-.143,28.144,28.144,0,0,1-.08-3.048c-.007-.414.154-.655.61-.56a12.5,12.5,0,0,0,4.929.046c.466-.089.615.123.617.535,0,.467,0,.933,0,1.4Z" transform="translate(-341.349 -96.569)" fill="#f4bcb5"/>
        <path id="Trazado_167745" data-name="Trazado 167745" d="M4046.249,198.349c-.152.575.306.958.508,1.391a10.788,10.788,0,0,1,.756,4.815c-.031,3.858-.019,7.717-.007,11.575a15.6,15.6,0,0,1-.6,3.864c-.122.485-.24,1.116-.931,1.237a21.385,21.385,0,0,0,1-8.51c-.11-3.342.266-6.7-.228-10.029a8.512,8.512,0,0,0-1.188-3.327C4044.943,198.382,4045.408,198.274,4046.249,198.349Z" transform="translate(-359.361 -235.386)" fill="#2a384b"/>
        <path id="Trazado_167746" data-name="Trazado 167746" d="M3778.76-48.671a1.75,1.75,0,0,1-1.672,1.743,1.784,1.784,0,0,1-1.789-1.637,1.8,1.8,0,0,1,1.75-1.814A1.751,1.751,0,0,1,3778.76-48.671Z" transform="translate(-158.249 -50.12)" fill="#2cffe2"/>
        <path id="Trazado_167747" data-name="Trazado 167747" d="M3615.824,26.083a1.745,1.745,0,0,1,1.761,1.652,1.8,1.8,0,0,1-1.75,1.81,1.741,1.741,0,0,1-1.678-1.737A1.692,1.692,0,0,1,3615.824,26.083Z" transform="translate(-38.214 -107.077)" fill="#2cffe2"/>
        <path id="Trazado_167748" data-name="Trazado 167748" d="M3881.036-70.792a1.734,1.734,0,0,1-1.671,1.734,1.719,1.719,0,0,1-1.76-1.638,1.757,1.757,0,0,1,1.725-1.817A1.8,1.8,0,0,1,3881.036-70.792Z" transform="translate(-234.457 -33.632)" fill="#2cffe2"/>
        <path id="Trazado_167749" data-name="Trazado 167749" d="M3670.8-22a1.683,1.683,0,0,1-1.677-1.7,1.777,1.777,0,0,1,1.792-1.749,1.785,1.785,0,0,1,1.615,1.8A1.681,1.681,0,0,1,3670.8-22Z" transform="translate(-79.161 -68.688)" fill="#2cffe2"/>
        <path id="Trazado_167750" data-name="Trazado 167750" d="M3824.356-.642a1.683,1.683,0,0,1-1.692,1.688,1.7,1.7,0,0,1-1.7-1.681,1.717,1.717,0,0,1,1.75-1.768A1.717,1.717,0,0,1,3824.356-.642Z" transform="translate(-192.269 -85.857)" fill="#2cffe2"/>
        <path id="Trazado_167751" data-name="Trazado 167751" d="M3730.555,10.259A1.688,1.688,0,0,1,3728.9,8.54a1.651,1.651,0,0,1,1.8-1.683,1.7,1.7,0,0,1-.145,3.4Z" transform="translate(-123.689 -92.753)" fill="#2cffe2"/>
        <path id="Trazado_167752" data-name="Trazado 167752" d="M4031.19,300.036a.978.978,0,0,1-.2.834,6.579,6.579,0,0,0-1.831,5.565c-.992.172-1.3-.217-1.308-1.237-.011-1.365.029-2.548,1.4-3.36A12.113,12.113,0,0,0,4031.19,300.036Z" transform="translate(-346.376 -311.148)" fill="#2a384b"/>
        <path id="Trazado_167753" data-name="Trazado 167753" d="M4042.61,295.8c.07.56-.2.817-.742.821A.893.893,0,0,1,4042.61,295.8Z" transform="translate(-356.821 -307.99)" fill="#2a384b"/>
        <path id="Trazado_167754" data-name="Trazado 167754" d="M4045.461,291.85a.438.438,0,0,1-.466.573A.536.536,0,0,1,4045.461,291.85Z" transform="translate(-359.15 -305.05)" fill="#2a384b"/>
        <path id="Trazado_167755" data-name="Trazado 167755" d="M3656.036,109.861q9.351.028,18.7.055c2.139.006,3.169.676,3.177,2.079s-1.015,2.072-3.171,2.072q-12.408,0-24.815,0c-.422,0-.843.035-1.265.055-.465-.018-.929-.051-1.395-.051q-20.612,0-41.224,0c-.763,0-1.526-.017-2.289-.026l-.505-.234a2.13,2.13,0,0,1-.8-2.587,2.39,2.39,0,0,1,2.53-1.313q24.576.014,49.153,0C3654.765,109.912,3655.4,109.879,3656.036,109.861Z" transform="translate(-29.356 -169.484)" fill="#010102"/>
        <path id="Trazado_167756" data-name="Trazado 167756" d="M3642,141.84c1.022.616,1.725,1.405,1.3,2.7-.4,1.227-1.406,1.445-2.543,1.445q-17.763-.01-35.525.011a3,3,0,0,1-2.555-1.126c-.39-2.053.359-3.049,2.39-3.049Q3623.533,141.814,3642,141.84Z" transform="translate(-29.587 -193.29)" fill="#010102"/>
        <path id="Trazado_167757" data-name="Trazado 167757" d="M3606.122,125.334l.505.234C3606.263,125.914,3606.176,125.659,3606.122,125.334Z" transform="translate(-32.228 -181.01)" fill="#cad1e0"/>
      </g>
    </g>
  </g>
</svg>
