<svg xmlns="http://www.w3.org/2000/svg" xmlns:xlink="http://www.w3.org/1999/xlink" width="190" height="160" viewBox="0 0 190 160">
  <defs>
    <clipPath id="clip-path">
      <rect id="Rect치ngulo_35211" data-name="Rect치ngulo 35211" width="190" height="160" transform="translate(285 7468)" fill="none" stroke="#707070" stroke-width="1"/>
    </clipPath>
  </defs>
  <g id="Enmascarar_grupo_58" data-name="Enmascarar grupo 58" transform="translate(-285 -7468)" clip-path="url(#clip-path)">
    <g id="Grupo_62452" data-name="Grupo 62452">
      <path id="Rect치ngulo_35209" data-name="Rect치ngulo 35209" d="M21,0H169a21,21,0,0,1,21,21v94a0,0,0,0,1,0,0H0a0,0,0,0,1,0,0V21A21,21,0,0,1,21,0Z" transform="translate(285 7512.704)" fill="#bbabf5" opacity="0.3"/>
      <g id="Grupo_62450" data-name="Grupo 62450" transform="translate(-2258.108 6962.632)">
        <path id="Trazado_167651" data-name="Trazado 167651" d="M2580.771,662.647c-.052.212-.093.427-.16.634a2.3,2.3,0,0,1-2.569,1.764,2.266,2.266,0,0,1-1.92-2.572c.254-2.708.588-5.409.907-8.112.738-6.234,1.551-12.46,2.216-18.7a19.743,19.743,0,0,1,14.375-17.023c9.206-2.579,18.4-5.2,27.607-7.773.686-.192,1.015-.44,1-1.233q-.077-4.544,0-9.09a1.953,1.953,0,0,0-.867-1.641,33.407,33.407,0,0,1-8.474-10.472,17.8,17.8,0,0,1-1.832-5.332c-.139-.96-.549-1.066-1.36-1.052-2.5.046-5.007.029-7.51.013a7.323,7.323,0,0,1-7.646-7.613c-.016-2.723-.033-5.446.01-8.168a6.9,6.9,0,0,1,3.271-5.971,1.564,1.564,0,0,0,.777-1.709,46.19,46.19,0,0,1,2.689-19.807c3.757-9.758,10.763-16.089,20.728-19.029a56.9,56.9,0,0,1,31.715-.269c13.216,3.642,20.768,12.607,23.523,25.843a48.264,48.264,0,0,1,.795,13.369,1.471,1.471,0,0,0,.773,1.582,7,7,0,0,1,3.293,6.1c.032,2.81.047,5.622,0,8.432a7.285,7.285,0,0,1-7.221,7.233c-2.722.048-5.446.01-8.168.016-.461,0-.9-.112-1.037.63-1.208,6.381-4.855,11.3-9.588,15.481a4.256,4.256,0,0,0-1.674,3.808,55.923,55.923,0,0,1,0,6.715c-.086,1.432.366,2.017,1.769,2.4,9.009,2.462,17.988,5.031,26.978,7.56a19.69,19.69,0,0,1,14.219,16.731c1.013,8.765,2.067,17.524,3.1,26.287a5.822,5.822,0,0,1,.059,1.312,2.274,2.274,0,0,1-4.358.676,8.238,8.238,0,0,1-.313-.994c-.009-.26,0-.522-.029-.78-1-8.5-2.038-16.994-2.982-25.5a15.2,15.2,0,0,0-11.178-13.381c-4.384-1.251-8.785-2.443-13.156-3.739a1.584,1.584,0,0,0-2.1.835c-3.977,6.052-8.006,12.069-12.027,18.092-1.212,1.816-2.5,2-4.153.617q-2.628-2.194-5.253-4.392c-1.364-1.137-2.732-2.269-4.13-3.43a2.165,2.165,0,0,0-.2,1.387c-.012,4.522,0,9.045-.01,13.568,0,1.793-.9,2.922-2.305,2.944s-2.342-1.12-2.344-2.9c-.005-4.523.006-9.045-.012-13.568,0-.444.194-.948-.234-1.394q-4.579,3.807-9.117,7.581c-2.014,1.676-3.1,1.509-4.575-.7q-5.952-8.929-11.9-17.864c-.482-.729-.883-1.106-1.882-.808-4.5,1.34-9.031,2.542-13.534,3.858a15.091,15.091,0,0,0-10.942,13.14c-.385,3.577-.833,7.147-1.245,10.721Q2581.665,654.8,2580.771,662.647Zm50.653-56.995-4.63-2.562c0,2.57.014,4.932-.01,7.294a1.638,1.638,0,0,0,.593,1.248c3.413,3.4,6.839,6.787,10.213,10.226.73.744,1.126.607,1.532-.214q5.2-5.131,10.387-10.268a.949.949,0,0,0,.32-.551c.021-2.514.014-5.029.014-7.56a1.5,1.5,0,0,0-.3.037c-.606.352-1.193.74-1.817,1.057-3.987,2.023-8.013,3.881-12.668,2.446C2633.839,606.431,2632.633,606.037,2631.424,605.652Zm-16.134-35.86c0,3.424.054,6.147-.013,8.868a16.653,16.653,0,0,0,3.136,10.134,38.321,38.321,0,0,0,16.314,13.1,8.829,8.829,0,0,0,7.611-.114,40.012,40.012,0,0,0,11.5-7.776,25.138,25.138,0,0,0,6.468-9.174c.139-.37.4-.785.065-1.093-.264-.245-.662,0-.982.115-2.015.742-4.015,1.528-6.047,2.223a1.628,1.628,0,0,0-1.266,1.549,6.853,6.853,0,0,1-6.511,5.98,6.956,6.956,0,0,1-6.78-4.679,6.827,6.827,0,0,1,2.529-7.815,6.646,6.646,0,0,1,8.294.3,1.851,1.851,0,0,0,2.2.376c2.853-1.128,5.733-2.189,8.624-3.219a1.28,1.28,0,0,0,.978-1.44c-.031-5.268.016-10.537-.034-15.8a12.2,12.2,0,0,0-1.705-6.413,5.9,5.9,0,0,0-5.758-2.966,16.823,16.823,0,0,0-6.574,1.738,18.994,18.994,0,0,1-17.953.027,16.581,16.581,0,0,0-6.308-1.731,6.165,6.165,0,0,0-6.607,3.936,11.738,11.738,0,0,0-.876,2.887C2614.961,562.68,2615.477,566.6,2615.29,569.792Zm49.362-15.993a34.053,34.053,0,0,0-2.11-9.975c-2.789-7.024-7.733-11.732-15.117-13.589a38.723,38.723,0,0,0-20.5.27,20.354,20.354,0,0,0-12.465,9.827,32.817,32.817,0,0,0-3.765,11.683,40.683,40.683,0,0,0-.558,6.139c0,.286-.061.684.407.667.341-.012.345-.324.39-.586.1-.56.182-1.124.323-1.673,1.577-6.189,6.015-9.661,11.967-9.246a22.944,22.944,0,0,1,8.683,2.409,13.8,13.8,0,0,0,12.667.087,25.445,25.445,0,0,1,8-2.441c4.324-.513,7.969.762,10.646,4.335C2663.727,552.382,2664.176,553.1,2664.651,553.8Zm-26.382-31.684a52.733,52.733,0,0,0-11.64,1.184c-6.83,1.522-12.836,4.5-17.152,10.215-5.549,7.341-6.72,15.832-6.278,24.719.052,1.048.781.676,1.322.76.793.123.924-.28.95-.979a53.635,53.635,0,0,1,2.025-13.24c2.547-8.63,7.584-15.078,16.271-18.178a43.325,43.325,0,0,1,21.71-1.575c8.2,1.309,14.912,5.051,19.219,12.419,3.479,5.951,4.68,12.517,5.057,19.287.127,2.281.1,2.226,2.381,2.293,1.028.03,1.335-.294,1.383-1.3a46.54,46.54,0,0,0-.912-12.048c-1.839-8.563-6.229-15.286-14.163-19.394C2652.114,523,2645.264,522.191,2638.27,522.115Zm14.644,92.855c-.3-.122-.589.267-.893.57-3.2,3.192-6.389,6.4-9.606,9.576-.475.468-.427.724.052,1.121q4.259,3.526,8.481,7.1c.546.463.843.383,1.223-.188q4.922-7.4,9.883-14.77c.321-.477.333-.743-.3-.918C2658.883,616.667,2656.019,615.847,2652.914,614.97Zm-38.567,2.663a1.468,1.468,0,0,0,.076.387q5.072,7.615,10.142,15.231c.395.6.686.459,1.13.086q4.232-3.56,8.5-7.081c.472-.389.563-.645.078-1.124-3.249-3.208-6.47-6.444-9.7-9.673-.287-.287-.553-.536-1.025-.4Q2618.945,616.359,2614.347,617.633Zm51.666-47.036c0,1.929.035,3.859-.017,5.787-.021.775.146,1.079,1,1.06,2.5-.058,5,0,7.5-.029a2.835,2.835,0,0,0,3.053-3.042q.043-3.879-.006-7.76a2.794,2.794,0,0,0-3.073-3c-2.455-.019-4.911.037-7.365-.01-.835-.016-1.14.184-1.108,1.076C2666.063,566.65,2666.015,568.624,2666.013,570.6Zm-55.365,0c0-2.017-.036-4.034.018-6.05.021-.774-.246-.954-.971-.944-2.542.035-5.086-.017-7.628.013a2.757,2.757,0,0,0-2.942,2.989q-.049,3.879-.006,7.76a2.838,2.838,0,0,0,3.045,3.049c2.5.028,5-.031,7.5.025.849.019,1.026-.276,1.005-1.057C2610.615,574.46,2610.649,572.53,2610.649,570.6Zm36.88,16.114a2.286,2.286,0,0,0-2.2-2.3,2.255,2.255,0,1,0-.089,4.508A2.282,2.282,0,0,0,2647.529,586.714Z" transform="translate(0)" fill="#12263f"/>
        <path id="Trazado_167652" data-name="Trazado 167652" d="M2593.794,946.919q.9-7.845,1.8-15.69c.412-3.574.86-7.144,1.245-10.721a15.091,15.091,0,0,1,10.942-13.14c4.5-1.316,9.039-2.518,13.534-3.858,1-.3,1.4.079,1.883.808q5.924,8.947,11.9,17.864c1.475,2.213,2.561,2.38,4.575.7q4.547-3.784,9.117-7.581c.428.446.232.95.234,1.394.019,4.522.007,9.045.013,13.568,0,1.78.936,2.923,2.344,2.9s2.3-1.152,2.305-2.944c.006-4.523,0-9.045.01-13.568a2.166,2.166,0,0,1,.2-1.387c1.4,1.161,2.767,2.293,4.13,3.43q2.629,2.193,5.253,4.392c1.654,1.381,2.941,1.2,4.153-.617,4.021-6.023,8.051-12.039,12.027-18.092a1.584,1.584,0,0,1,2.1-.835c4.371,1.3,8.772,2.487,13.156,3.739a15.2,15.2,0,0,1,11.178,13.381c.944,8.506,1.986,17,2.982,25.5.03.257.02.52.029.78l-46.859.026q-4.146,0-8.292,0c-.022-2.138-.039-4.275-.066-6.413-.021-1.671-.94-2.754-2.326-2.757-1.368,0-2.3,1.1-2.323,2.758-.026,2.137-.042,4.275-.062,6.412q-26.8,0-53.6,0C2594.846,946.968,2594.32,946.937,2593.794,946.919Z" transform="translate(-13.023 -284.273)" fill="#dbdfea"/>
        <path id="Trazado_167653" data-name="Trazado 167653" d="M2803.089,1043.041c.02-2.137.036-4.275.062-6.412.02-1.657.956-2.761,2.323-2.758,1.386,0,2.305,1.086,2.326,2.757.027,2.137.044,4.275.066,6.413-.439,1.651-1.215,2.4-2.456,2.368C2804.224,1045.379,2803.5,1044.637,2803.089,1043.041Z" transform="translate(-167.144 -380.343)" fill="#060505"/>
        <path id="Trazado_167654" data-name="Trazado 167654" d="M2724.669,666.311c.188-3.2-.329-7.112.3-11a11.727,11.727,0,0,1,.876-2.887,6.166,6.166,0,0,1,6.607-3.936,16.582,16.582,0,0,1,6.308,1.731,18.994,18.994,0,0,0,17.953-.027,16.823,16.823,0,0,1,6.574-1.738,5.9,5.9,0,0,1,5.759,2.966,12.2,12.2,0,0,1,1.7,6.413c.05,5.268,0,10.536.033,15.8a1.279,1.279,0,0,1-.977,1.44c-2.89,1.03-5.771,2.091-8.624,3.219a1.851,1.851,0,0,1-2.2-.376,6.646,6.646,0,0,0-8.294-.3,6.827,6.827,0,0,0-2.529,7.815,6.956,6.956,0,0,0,6.78,4.679,6.854,6.854,0,0,0,6.511-5.98,1.628,1.628,0,0,1,1.266-1.549c2.032-.694,4.032-1.481,6.047-2.223.319-.118.718-.36.982-.115.333.308.074.723-.065,1.093a25.137,25.137,0,0,1-6.468,9.174,40.014,40.014,0,0,1-11.5,7.776,8.829,8.829,0,0,1-7.611.114,38.321,38.321,0,0,1-16.314-13.1,16.658,16.658,0,0,1-3.136-10.134C2724.723,672.458,2724.669,669.735,2724.669,666.311Z" transform="translate(-109.38 -96.519)" fill="#fcdccd"/>
        <path id="Trazado_167655" data-name="Trazado 167655" d="M2759.689,586.25c-.476-.7-.925-1.417-1.431-2.093-2.677-3.573-6.323-4.848-10.646-4.335a25.448,25.448,0,0,0-8,2.441,13.8,13.8,0,0,1-12.667-.087,22.944,22.944,0,0,0-8.683-2.409c-5.952-.415-10.39,3.057-11.967,9.246-.14.55-.226,1.114-.323,1.673-.045.262-.05.574-.39.586-.468.016-.4-.381-.407-.667a40.715,40.715,0,0,1,.558-6.139,32.812,32.812,0,0,1,3.765-11.683,20.355,20.355,0,0,1,12.465-9.827,38.723,38.723,0,0,1,20.5-.27c7.384,1.857,12.328,6.565,15.117,13.589A34.053,34.053,0,0,1,2759.689,586.25Z" transform="translate(-95.037 -32.451)" fill="#48494e"/>
        <path id="Trazado_167656" data-name="Trazado 167656" d="M2785.94,845.592c1.209.385,2.416.779,3.628,1.153,4.655,1.435,8.681-.423,12.668-2.446.624-.316,1.211-.7,1.817-1.057a1.492,1.492,0,0,1,.3-.037c0,2.531.007,5.046-.014,7.56a.949.949,0,0,1-.32.551q-5.187,5.141-10.387,10.267c-.86-1.76-2.533-2.762-3.847-4.1a11.593,11.593,0,0,1-3.584-5.9C2785.813,849.588,2786.187,847.582,2785.94,845.592Z" transform="translate(-154.516 -239.94)" fill="#fcdccd"/>
        <path id="Trazado_167657" data-name="Trazado 167657" d="M2837.2,887.541c3.1.877,5.969,1.7,8.841,2.49.632.175.62.441.3.918q-4.956,7.375-9.883,14.77c-.38.572-.677.652-1.223.188q-4.217-3.578-8.481-7.1c-.479-.4-.527-.653-.052-1.121,3.218-3.176,6.4-6.384,9.606-9.576C2836.614,887.808,2836.9,887.419,2837.2,887.541Z" transform="translate(-184.288 -272.571)" fill="#dbdfea"/>
        <path id="Trazado_167658" data-name="Trazado 167658" d="M2721.161,890.4q4.589-1.283,9.2-2.578c.472-.134.739.116,1.025.4,3.227,3.23,6.449,6.465,9.7,9.673.486.479.395.735-.078,1.124q-4.267,3.519-8.5,7.081c-.444.373-.735.51-1.13-.086q-5.053-7.627-10.142-15.231A1.468,1.468,0,0,1,2721.161,890.4Z" transform="translate(-106.814 -272.769)" fill="#dbdfea"/>
        <path id="Trazado_167659" data-name="Trazado 167659" d="M2917.091,699.746c0-1.973.049-3.947-.021-5.918-.031-.892.273-1.091,1.108-1.076,2.454.047,4.91-.009,7.365.01a2.794,2.794,0,0,1,3.073,3q.05,3.88.006,7.76a2.836,2.836,0,0,1-3.053,3.042c-2.5.032-5-.029-7.5.029-.854.02-1.02-.285-1-1.059C2917.125,703.6,2917.09,701.675,2917.091,699.746Z" transform="translate(-251.077 -129.149)" fill="#fd8f25"/>
        <path id="Trazado_167660" data-name="Trazado 167660" d="M2674.872,699.759c0,1.929-.035,3.859.017,5.787.021.781-.156,1.076-1.005,1.057-2.5-.056-5,0-7.5-.025a2.837,2.837,0,0,1-3.045-3.049q-.044-3.88.005-7.76a2.757,2.757,0,0,1,2.942-2.989c2.542-.03,5.086.022,7.628-.013.725-.01.992.17.971.944C2674.836,695.725,2674.872,697.742,2674.872,699.759Z" transform="translate(-64.223 -129.159)" fill="#fd8f25"/>
        <path id="Trazado_167661" data-name="Trazado 167661" d="M2772.976,845.1c.247,1.99-.127,4,.266,6a11.593,11.593,0,0,0,3.584,5.9c1.313,1.334,2.987,2.336,3.847,4.1-.407.821-.8.958-1.533.214-3.374-3.439-6.8-6.826-10.213-10.226a1.638,1.638,0,0,1-.593-1.248c.025-2.362.01-4.724.01-7.294Z" transform="translate(-141.552 -239.451)" fill="#fcdccd"/>
        <path id="Trazado_167662" data-name="Trazado 167662" d="M2834.339,773.993a2.282,2.282,0,0,1-2.288,2.208,2.255,2.255,0,1,1,.089-4.508A2.286,2.286,0,0,1,2834.339,773.993Z" transform="translate(-186.81 -187.279)" fill="#f7cd69"/>
      </g>
    </g>
  </g>
</svg>
