<svg xmlns="http://www.w3.org/2000/svg" width="280.159" height="386.95" viewBox="0 0 280.159 386.95">
  <g id="Grupo_63738" data-name="Grupo 63738" transform="translate(-406.429 -153.504)">
    <g id="Grupo_63606" data-name="Grupo 63606" transform="translate(473.266 217.603)">
      <g id="Grupo_63605" data-name="Grupo 63605" transform="translate(0 0)">
        <path id="Trazado_169833" data-name="Trazado 169833" d="M1332.229,467.618h-3.322a1.39,1.39,0,0,1-1.389-1.389v-4.194a10.59,10.59,0,0,1-2-.83l-2.966,2.966a1.391,1.391,0,0,1-1.964,0l-2.349-2.349a1.391,1.391,0,0,1,0-1.964l2.966-2.966a10.6,10.6,0,0,1-.83-2h-4.194a1.391,1.391,0,0,1-1.389-1.389v-3.322a1.39,1.39,0,0,1,1.389-1.389h4.194a10.6,10.6,0,0,1,.83-2l-2.966-2.966a1.39,1.39,0,0,1,0-1.964l2.349-2.349a1.391,1.391,0,0,1,1.964,0l2.966,2.966a10.574,10.574,0,0,1,2-.83v-4.194a1.391,1.391,0,0,1,1.389-1.389h3.322a1.391,1.391,0,0,1,1.389,1.389v4.194a10.58,10.58,0,0,1,2,.83l2.966-2.966a1.391,1.391,0,0,1,1.964,0l2.349,2.349a1.391,1.391,0,0,1,0,1.964l-2.966,2.966a10.593,10.593,0,0,1,.83,2h4.194a1.391,1.391,0,0,1,1.389,1.389V453.5a1.391,1.391,0,0,1-1.389,1.389h-4.194a10.6,10.6,0,0,1-.83,2l2.966,2.966a1.391,1.391,0,0,1,0,1.964l-2.349,2.349a1.39,1.39,0,0,1-1.964,0l-2.966-2.966a10.6,10.6,0,0,1-2,.83v4.194A1.391,1.391,0,0,1,1332.229,467.618Zm-6.821-7.194.208.119a9.959,9.959,0,0,0,2.3.952l.231.063v4.671a.762.762,0,0,0,.761.761h3.322a.762.762,0,0,0,.761-.761v-4.671l.231-.063a9.956,9.956,0,0,0,2.3-.952l.208-.119,3.3,3.3a.762.762,0,0,0,1.076,0l2.349-2.349a.761.761,0,0,0,0-1.076l-3.3-3.3.119-.208a9.956,9.956,0,0,0,.952-2.3l.063-.231h4.671a.762.762,0,0,0,.761-.761v-3.322a.762.762,0,0,0-.761-.761h-4.671l-.063-.231a9.953,9.953,0,0,0-.952-2.3l-.119-.208,3.3-3.3a.762.762,0,0,0,0-1.076l-2.349-2.349a.762.762,0,0,0-1.076,0l-3.3,3.3-.208-.119a9.956,9.956,0,0,0-2.3-.952l-.231-.063v-4.671a.762.762,0,0,0-.761-.761h-3.322a.762.762,0,0,0-.761.761v4.671l-.231.063a9.959,9.959,0,0,0-2.3.952l-.208.119-3.3-3.3a.762.762,0,0,0-1.076,0l-2.349,2.349a.762.762,0,0,0,0,1.076l3.3,3.3-.119.208a9.959,9.959,0,0,0-.953,2.3l-.063.231h-4.671a.762.762,0,0,0-.761.761V453.5a.762.762,0,0,0,.761.761h4.671l.063.231a9.961,9.961,0,0,0,.953,2.3l.119.208-3.3,3.3a.762.762,0,0,0,0,1.076l2.349,2.349a.762.762,0,0,0,1.076,0Zm5.16-2.757a5.828,5.828,0,1,1,5.828-5.828A5.835,5.835,0,0,1,1330.568,457.667Zm0-11.028a5.2,5.2,0,1,0,5.2,5.2A5.206,5.206,0,0,0,1330.568,446.639Z" transform="translate(-1314.789 -436.06)" fill="#83a1e6"/>
      </g>
    </g>
    <g id="Grupo_63661" data-name="Grupo 63661" transform="translate(406.429 316.121)">
      <g id="Grupo_63607" data-name="Grupo 63607" transform="translate(147.82)">
        <path id="Trazado_169835" data-name="Trazado 169835" d="M1852.606,842.822c-2.985-6.962-8.359-12.342-9.744-20.418-2.438-14.2,12.011-27.724,11.389-45.686a31.75,31.75,0,0,0-9.746-21.9c5.609,3.876,8.754,8.438,11.392,15.443,4.365,11.59-1.577,24.087-1.638,24.212a.464.464,0,1,0,.836.406c.063-.128,6.18-12.975,1.671-24.945-3.546-9.416-7.965-14.525-17.748-19.366a35.3,35.3,0,0,0-20.657-5.027c-9.48.529-14.227,5.086-16.535,8.8-.311.5-.575.985-.808,1.444a14.447,14.447,0,0,0-1.254,3.451l5.931,120.582s19.94,7.06,26.368,5.118c8.37-.963,22.166-15.754,22.6-31.356a34.078,34.078,0,0,1-1.252,16.076.7.7,0,1,0,1.322.441,35.537,35.537,0,0,0-.086-22.385A36.546,36.546,0,0,0,1852.606,842.822Z" transform="translate(-1799.763 -745.482)" fill="#1d3c80"/>
      </g>
      <g id="Grupo_63608" data-name="Grupo 63608" transform="translate(130.93 104.776)">
        <path id="Trazado_169836" data-name="Trazado 169836" d="M1719.638,1445.77h-32.3l-.46,11.13h32.312Z" transform="translate(-1686.876 -1445.77)" fill="#d6dae6"/>
      </g>
      <g id="Grupo_63609" data-name="Grupo 63609" transform="translate(75.724 110.304)">
        <path id="Trazado_169837" data-name="Trazado 169837" d="M1465.573,1574.089l-.06-.148-29.7-74.024a14.077,14.077,0,0,0-7.268-7.582,128.468,128.468,0,0,0-13.072-5.116l-7.311-3.044q-.248.4-.5.805a67.2,67.2,0,0,0-16.92-2.25c-3.573.067,2.856,6.22,9.856,12.767-3.287,4.045-7.019,7.036-10.174,11.452-3.618-4.652-6.286-9.064-9.238-13.315,6.127-4.52,11.135-8.5,8.086-9.523-2.149-.721-7.858,0-14.562,1.4-.566-.6-1.153-1.2-1.769-1.791l-23.779,8.708a14.064,14.064,0,0,0-8.628,9.141l-22.035,72.981-.068.194a10.652,10.652,0,0,0-.537,3.289,10.835,10.835,0,0,0,10.841,10.72l40.107,3.948c5.832,0,10.719-8.559,10.837-14.39a10.617,10.617,0,0,0-1.137-5.015l29.255-.66a10.606,10.606,0,0,0-1.5,5.562c.058,5.872,24.05,14.5,29.922,14.5,0,0,22.173-4.2,23.473-4.727A10.66,10.66,0,0,0,1465.573,1574.089Zm-120.91-6.663h-.811l.752-2.038Zm91.555-7.136,3.139,7.136h-2.873Z" transform="translate(-1317.895 -1482.722)" fill="#bbabf5"/>
      </g>
      <g id="Grupo_63611" data-name="Grupo 63611" transform="translate(160.866 9.715)">
        <g id="Grupo_63610" data-name="Grupo 63610">
          <path id="Trazado_169838" data-name="Trazado 169838" d="M1900.436,817.91c-.859,2.738-4.532,4.023-8.2,2.871s-5.951-4.306-5.091-7.044,3.28-4.1,8.2-2.871C1901.5,812.4,1901.3,815.171,1900.436,817.91Z" transform="translate(-1886.96 -810.412)" fill="#ff6f61"/>
        </g>
      </g>
      <g id="Grupo_63616" data-name="Grupo 63616" transform="translate(116.101 25.947)">
        <g id="Grupo_63612" data-name="Grupo 63612" transform="translate(14.67 74.314)">
          <path id="Trazado_169839" data-name="Trazado 169839" d="M1714.183,1424.242a47.151,47.151,0,0,1-1.2-8.644,22.615,22.615,0,0,1-10.9,3.483,17.965,17.965,0,0,1-8.743-2.035,31.852,31.852,0,0,1-1,7.2h0l-6.532,2.392c7.546,7.277,10.976,14.866,17.484,23.234,3.949-5.528,8.8-8.82,12.554-14.743,1.773-2.728,3.542-5.362,5.185-8.031Z" transform="translate(-1685.808 -1415.598)" fill="#ffc3ad"/>
        </g>
        <g id="Grupo_63613" data-name="Grupo 63613">
          <path id="Trazado_169840" data-name="Trazado 169840" d="M1622.576,922.929c18.87-.467,23.75,5.228,25.4,15.987.546,3.541.742,7.634.973,12.235.011.225.02.448.028.671.057-1.519.052-3.075-.028-4.669-.23-4.6-.427-8.693-.973-12.235-1.654-10.76-6.534-16.454-25.4-15.987-24.1.6-35.562,4.321-34.778,26.3C1588.533,926.787,1600.021,923.486,1622.576,922.929Z" transform="translate(-1587.76 -918.905)" fill="#ffc3ad"/>
        </g>
        <g id="Grupo_63614" data-name="Grupo 63614" transform="translate(22.053 70.281)">
          <path id="Trazado_169841" data-name="Trazado 169841" d="M1755,1388.64a22.631,22.631,0,0,1-10.959,3.519,18.064,18.064,0,0,1-8.892-2.109,32.425,32.425,0,0,1,.149,4.072,17.954,17.954,0,0,0,8.743,2.035,22.614,22.614,0,0,0,10.9-3.483A34.841,34.841,0,0,1,1755,1388.64Z" transform="translate(-1735.153 -1388.64)" fill="#f0a68c"/>
        </g>
        <g id="Grupo_63615" data-name="Grupo 63615" transform="translate(0.038 3.998)">
          <path id="Trazado_169842" data-name="Trazado 169842" d="M1649.167,973.874c-.231-4.6-.427-8.694-.973-12.235-1.655-10.76-6.535-16.454-25.4-15.988-22.555.557-34.044,3.858-34.778,22.306.032.9.082,1.825.155,2.786a94.143,94.143,0,0,0,1.628,11.664.007.007,0,0,1,0,.006c1.951,9.517,5.209,17.616,8.788,21.7a41.436,41.436,0,0,0,9.7,8.257q.855.5,1.738.945a18.062,18.062,0,0,0,8.891,2.109,22.634,22.634,0,0,0,10.959-3.519q.925-.572,1.8-1.2a45.152,45.152,0,0,0,5.009-4.276c4.063-3.94,11.9-15.7,12.51-31.882C1649.187,974.322,1649.178,974.1,1649.167,973.874Z" transform="translate(-1588.012 -945.625)" fill="#ffc3ad"/>
        </g>
      </g>
      <g id="Grupo_63618" data-name="Grupo 63618" transform="translate(116.974 21.33)">
        <g id="Grupo_63617" data-name="Grupo 63617">
          <path id="Trazado_169843" data-name="Trazado 169843" d="M1661.788,907.559c-.757,7.371-4.649,18.532-9.006,27.283l-.056,0c-1.286-14.57-5.8-15.939-8.639-18.933-3.716-3.925-4.886-12.386-4.886-12.386s-4.54,6.344-11.507,8.515c-6.6,2.058-16.681.149-25.7,3.872-6,2.476-7.074,18.927-7.074,18.927l-1.324-30.386,47.246-16.41Z" transform="translate(-1593.599 -888.046)" fill="#f0a68c"/>
        </g>
      </g>
      <g id="Grupo_63620" data-name="Grupo 63620" transform="translate(169.664 66.807)">
        <g id="Grupo_63619" data-name="Grupo 63619" transform="translate(0 0)">
          <ellipse id="Elipse_4675" data-name="Elipse 4675" cx="5.922" cy="3.893" rx="5.922" ry="3.893" transform="matrix(0.339, -0.941, 0.941, 0.339, 0, 11.143)" fill="#ffc3ad"/>
        </g>
      </g>
      <g id="Grupo_63622" data-name="Grupo 63622" transform="translate(113.707 66.807)">
        <g id="Grupo_63621" data-name="Grupo 63621" transform="translate(0 0)">
          <ellipse id="Elipse_4676" data-name="Elipse 4676" cx="3.893" cy="5.922" rx="3.893" ry="5.922" transform="translate(0 2.639) rotate(-19.812)" fill="#ffc3ad"/>
        </g>
      </g>
      <g id="Grupo_63624" data-name="Grupo 63624" transform="translate(128.123 61.254)">
        <g id="Grupo_63623" data-name="Grupo 63623">
          <ellipse id="Elipse_4677" data-name="Elipse 4677" cx="2.647" cy="3.842" rx="2.647" ry="3.842" fill="#1e1f35"/>
        </g>
      </g>
      <g id="Grupo_63626" data-name="Grupo 63626" transform="translate(161.169 61.254)">
        <g id="Grupo_63625" data-name="Grupo 63625">
          <ellipse id="Elipse_4678" data-name="Elipse 4678" cx="2.647" cy="3.842" rx="2.647" ry="3.842" fill="#1e1f35"/>
        </g>
      </g>
      <g id="Grupo_63627" data-name="Grupo 63627" transform="translate(114.792 10.305)">
        <path id="Trazado_169844" data-name="Trazado 169844" d="M1649.4,840.63c-.822-5.885-4.134-22.039-19.276-21.867a5.41,5.41,0,0,0-1.147.232h0c-.028-.023-.26-.209-.692-.5a27.747,27.747,0,0,0-19.28-3.8c-12.541,1.858-29.15,7.594-29.94,32.667-.543,17.246,3.456,24.812,3.456,24.812s-2.16-15.29,5.583-19.856c5.661-3.338,13.623-3.1,23.53-4.645,7.761-1.212,13.126-7.241,15.165-10.362v0c.316-.478.548-.869.706-1.138.042.269.107.641.2,1.1.7,3.716,3.056,11.584,7.817,15.978,6.038,5.574,5.833,12.155,4.863,18.927,4.357-8.751,8.249-19.912,9.006-27.283A17.918,17.918,0,0,0,1649.4,840.63Z" transform="translate(-1579.011 -814.357)" fill="#1d3c80"/>
      </g>
      <g id="Grupo_63629" data-name="Grupo 63629" transform="translate(139.905 80.713)">
        <g id="Grupo_63628" data-name="Grupo 63628">
          <path id="Trazado_169845" data-name="Trazado 169845" d="M1749.316,1285.988l.038.032c.018.009.045.013.074.025l.144.087c.061.034.131.076.2.122s.163.1.251.149.193.107.3.166.219.113.333.172.239.114.365.169.256.11.392.158.27.1.413.141.281.089.43.119c.074.015.15.028.223.047a1.363,1.363,0,0,0,.223.049l.231.033a1.623,1.623,0,0,0,.231.038c.162.01.319.029.481.044.168,0,.334.007.5.018.173-.006.35-.017.524-.015h.119l-.113.009h.011l.185-.017.371-.033.092-.007a.41.41,0,0,0,.045-.01c.027-.006.053-.012.08-.017q.081-.012.164-.016c.144-.038.3-.054.439-.091s.287-.069.424-.117c.069-.023.142-.038.21-.064s.133-.057.2-.079c.143-.04.267-.117.4-.167a8.07,8.07,0,0,0,.763-.407c.125-.068.241-.145.353-.22s.219-.15.325-.219c.207-.143.389-.281.544-.4s.285-.21.367-.279.136-.1.136-.1l.157-.107a1.481,1.481,0,0,1,2.3,1.371s-.008.075-.031.214a5.874,5.874,0,0,1-.132.6,6.86,6.86,0,0,1-.324.908,7.217,7.217,0,0,1-.619,1.126c-.13.2-.288.4-.452.606s-.363.4-.561.607a7.71,7.71,0,0,1-1.466,1.095,8.212,8.212,0,0,1-1.831.77q-.277.065-.559.124l-.283.054-.137.024-.092.011-.369.042-.185.02h-.011l-.124.01h-.219c-.322,0-.643,0-.964-.011-.326-.035-.65-.074-.969-.122s-.636-.151-.946-.229a8.864,8.864,0,0,1-.9-.327,8.039,8.039,0,0,1-1.563-.9c-.229-.17-.438-.351-.636-.526s-.369-.366-.532-.546-.3-.367-.432-.542-.24-.353-.339-.519-.183-.328-.257-.478-.135-.293-.186-.423a6.648,6.648,0,0,1-.21-.632c-.029-.089-.047-.162-.058-.206l-.005-.049a1.489,1.489,0,0,1,2.436-1.3Z" transform="translate(-1746.858 -1284.945)" fill="#fff"/>
        </g>
      </g>
      <g id="Grupo_63631" data-name="Grupo 63631" transform="translate(124.447 52.995)">
        <g id="Grupo_63630" data-name="Grupo 63630">
          <path id="Trazado_169846" data-name="Trazado 169846" d="M1653.8,1102.933l-.077-.032c-.056-.023-.146-.057-.262-.1-.234-.083-.581-.2-1.007-.31a12.462,12.462,0,0,0-3.172-.428c-.287,0-.575.014-.853.044a7.444,7.444,0,0,0-.809.12,6.8,6.8,0,0,0-.733.188c-.117.032-.223.076-.329.114s-.206.079-.3.122c-.194.078-.359.172-.511.247l-.375.224-.315.217-.062.042a.927.927,0,0,1-1.121-1.475l.385-.322c.127-.1.284-.211.467-.34s.4-.26.641-.387c.12-.067.246-.135.38-.2s.271-.132.417-.188a8.934,8.934,0,0,1,.924-.33,9.61,9.61,0,0,1,1.011-.246c.347-.069.7-.115,1.054-.152a14.928,14.928,0,0,1,3.85.162c.517.087.945.186,1.25.263.153.04.273.073.36.1l.141.044a1.4,1.4,0,1,1-.823,2.666c-.042-.013-.084-.028-.124-.045Z" transform="translate(-1643.543 -1099.687)" fill="#1d3c80"/>
        </g>
      </g>
      <g id="Grupo_63633" data-name="Grupo 63633" transform="translate(157.763 52.995)">
        <g id="Grupo_63632" data-name="Grupo 63632">
          <path id="Trazado_169847" data-name="Trazado 169847" d="M1868.155,1102.933l.077-.032c.056-.023.146-.057.262-.1.234-.083.581-.2,1.007-.31a12.464,12.464,0,0,1,3.173-.428c.287,0,.574.014.852.044a7.417,7.417,0,0,1,.809.12,6.822,6.822,0,0,1,.733.188c.117.032.223.076.329.114s.206.079.3.122c.194.078.359.172.51.247l.376.224.315.217.061.042a.928.928,0,0,0,1.122-1.475l-.385-.322c-.127-.1-.284-.211-.467-.34s-.4-.26-.641-.387c-.12-.067-.246-.135-.38-.2s-.271-.132-.416-.188a8.955,8.955,0,0,0-.924-.33,9.6,9.6,0,0,0-1.011-.246c-.346-.069-.7-.115-1.054-.152a14.927,14.927,0,0,0-3.85.162c-.518.087-.946.186-1.25.263-.153.04-.273.073-.36.1l-.141.044a1.4,1.4,0,0,0,.823,2.666c.042-.013.084-.028.124-.045Z" transform="translate(-1866.218 -1099.687)" fill="#1d3c80"/>
        </g>
      </g>
      <g id="Grupo_63635" data-name="Grupo 63635" transform="translate(162.577 14.447)">
        <g id="Grupo_63634" data-name="Grupo 63634">
          <path id="Trazado_169848" data-name="Trazado 169848" d="M1901.719,842.3l-2.429,18.509c-.088-.46-.153-.831-.2-1.1-.158.269-.39.659-.706,1.138l1.486-18.811c.432.288.664.474.692.5h0C1900.962,842.442,1901.343,842.363,1901.719,842.3Z" transform="translate(-1898.389 -842.038)" fill="#122a61"/>
        </g>
      </g>
      <g id="Grupo_63637" data-name="Grupo 63637" transform="translate(142.305 67.605)">
        <g id="Grupo_63636" data-name="Grupo 63636">
          <path id="Trazado_169849" data-name="Trazado 169849" d="M1766.06,1206.349a3.746,3.746,0,0,1-2.257-.615,2.373,2.373,0,0,1-.9-2.024,5.876,5.876,0,0,1,1.247-3.088c.095-.146.189-.292.281-.439a13.152,13.152,0,0,0,.88-2.459.525.525,0,1,1,1.015.27,13.947,13.947,0,0,1-1,2.746c-.094.151-.191.3-.289.451a5.048,5.048,0,0,0-1.079,2.526,1.357,1.357,0,0,0,.487,1.178c.915.692,2.923.317,3.62.114a.525.525,0,1,1,.294,1.008A8.925,8.925,0,0,1,1766.06,1206.349Z" transform="translate(-1762.898 -1197.334)" fill="#f0a68c"/>
        </g>
      </g>
      <g id="Grupo_63643" data-name="Grupo 63643" transform="translate(88.024 135.874)">
        <g id="Grupo_63639" data-name="Grupo 63639" transform="translate(0 77.133)">
          <g id="Grupo_63638" data-name="Grupo 63638">
            <path id="Trazado_169850" data-name="Trazado 169850" d="M1521.945,2172.63h-121.84l.069-3.47h121.771Z" transform="translate(-1400.105 -2169.159)" fill="#d8ecf2"/>
          </g>
        </g>
        <g id="Grupo_63640" data-name="Grupo 63640">
          <path id="Rectángulo_35754" data-name="Rectángulo 35754" d="M27.865,0H93.974A27.866,27.866,0,0,1,121.84,27.866V77.133a0,0,0,0,1,0,0H0a0,0,0,0,1,0,0V27.865A27.865,27.865,0,0,1,27.865,0Z" fill="#d8e4e8"/>
        </g>
        <g id="Grupo_63642" data-name="Grupo 63642" transform="translate(53.651 14.611)">
          <g id="Grupo_63641" data-name="Grupo 63641">
            <circle id="Elipse_4679" data-name="Elipse 4679" cx="8.849" cy="8.849" r="8.849" fill="#abbade"/>
          </g>
        </g>
      </g>
      <g id="Grupo_63646" data-name="Grupo 63646" transform="translate(148.254 104.776)">
        <g id="Grupo_63644" data-name="Grupo 63644" transform="translate(0 10.077)">
          <path id="Trazado_169851" data-name="Trazado 169851" d="M1802.663,1532.8l2.36-12.57a2.25,2.25,0,0,1,.7-1.25l2.931-2.666,4.328-3.194,5.682,3.178Z" transform="translate(-1802.663 -1513.12)" fill="#d6dae6"/>
        </g>
        <g id="Grupo_63645" data-name="Grupo 63645" transform="translate(5.988)">
          <path id="Trazado_169852" data-name="Trazado 169852" d="M1842.684,1459.041a73.428,73.428,0,0,1,14.129,16.485c.537-3.225,1.666-21.769,1.666-21.769l-6.345-7.987Z" transform="translate(-1842.684 -1445.77)" fill="#fff"/>
        </g>
      </g>
      <g id="Grupo_63649" data-name="Grupo 63649" transform="translate(126.409 104.776)">
        <g id="Grupo_63647" data-name="Grupo 63647" transform="translate(2.366 6.647)">
          <path id="Trazado_169853" data-name="Trazado 169853" d="M1691.888,1513.3l-2.359-12.57a2.25,2.25,0,0,0-.7-1.25l-2.931-2.666-6.618-6.624-6.811,2.344Z" transform="translate(-1672.471 -1490.194)" fill="#d6dae6"/>
        </g>
        <g id="Grupo_63648" data-name="Grupo 63648">
          <path id="Trazado_169854" data-name="Trazado 169854" d="M1672.451,1459.041s-10.165,8.729-14.13,16.485c-.655-6.779-1.666-21.769-1.666-21.769l4.982-7.987Z" transform="translate(-1656.656 -1445.77)" fill="#fff"/>
        </g>
      </g>
      <g id="Grupo_63650" data-name="Grupo 63650" transform="translate(0 216.226)">
        <rect id="Rectángulo_35755" data-name="Rectángulo 35755" width="280.159" height="8.107" rx="4.054" fill="#472ea6"/>
      </g>
      <g id="Grupo_63652" data-name="Grupo 63652" transform="translate(149.885 80.103)">
        <g id="Grupo_63651" data-name="Grupo 63651">
          <path id="Trazado_169855" data-name="Trazado 169855" d="M1820.152,1297.163a51.856,51.856,0,0,1-5.534-.313,1.185,1.185,0,1,1,.253-2.355c8.029.863,14.239-.134,18.458-2.963a15.273,15.273,0,0,0,6.343-9.754,1.185,1.185,0,1,1,2.307.539,17.76,17.76,0,0,1-7.33,11.182C1831.014,1295.937,1826.152,1297.163,1820.152,1297.163Z" transform="translate(-1813.56 -1280.863)" fill="#abbade"/>
        </g>
      </g>
      <g id="Grupo_63653" data-name="Grupo 63653" transform="translate(111.858 17.535)">
        <path id="Trazado_169856" data-name="Trazado 169856" d="M1631.317,898.982a44.606,44.606,0,0,0-.821-7.389,41.893,41.893,0,0,0-2.223-7.391c-.117-.3-.26-.61-.39-.915l-.2-.458c-.067-.151-.134-.312-.2-.443l-.4-.826-.2-.412-.048-.094-.029-.054-.057-.108-.114-.217a35.079,35.079,0,0,0-2-3.348,33.467,33.467,0,0,0-4.951-5.768,34.471,34.471,0,0,0-2.814-2.321l-.722-.52-.732-.488c-.24-.165-.489-.313-.734-.464s-.486-.305-.735-.441l-.736-.416c-.245-.136-.494-.259-.738-.388-.486-.261-.983-.48-1.464-.712-.974-.434-1.931-.819-2.865-1.136a34.619,34.619,0,0,0-5.19-1.358,37.773,37.773,0,0,0-4.077-.522c-.285-.02-.547-.047-.808-.057l-.728-.029-.625-.022-.479,0-.867,0h-.012l-.867,0-.479,0-.625.022-.728.029c-.26.01-.522.037-.808.057a37.781,37.781,0,0,0-4.077.522,34.642,34.642,0,0,0-5.19,1.358c-.935.317-1.891.7-2.865,1.136-.481.232-.978.451-1.463.712-.244.129-.493.252-.738.388l-.737.416c-.249.136-.489.293-.735.441s-.494.3-.734.464l-.732.488-.722.52a34.51,34.51,0,0,0-2.813,2.321,33.478,33.478,0,0,0-4.951,5.768,35.18,35.18,0,0,0-2,3.348l-.114.217-.057.108-.029.054-.048.094-.2.412-.4.826c-.066.131-.133.292-.2.443l-.2.458c-.13.3-.273.613-.39.915a41.893,41.893,0,0,0-2.223,7.391,44.579,44.579,0,0,0-.821,7.389,50.987,50.987,0,0,0,.3,6.886c.24,2.169.6,4.193.99,6.039s.837,3.512,1.255,4.976.823,2.723,1.161,3.756.628,1.833.822,2.38l.3.836,3.161-1.051s-.086-.29-.249-.834-.39-1.343-.678-2.357-.615-2.249-.955-3.669-.68-3.026-.989-4.781-.56-3.664-.72-5.681a47.679,47.679,0,0,1-.076-6.323,40.209,40.209,0,0,1,.914-6.628,37.965,37.965,0,0,1,2.117-6.528c.11-.266.231-.51.346-.766l.173-.38c.059-.128.11-.249.184-.389l.414-.817.206-.408.183-.333a30.434,30.434,0,0,1,1.77-2.863,30.075,30.075,0,0,1,4.3-4.891,29.618,29.618,0,0,1,2.411-1.957,29.05,29.05,0,0,1,2.491-1.62l.627-.354c.208-.116.421-.219.629-.329.413-.224.839-.408,1.249-.606.834-.366,1.647-.707,2.45-.981a33.519,33.519,0,0,1,8.048-1.722c.249-.021.49-.05.706-.061l.609-.037.527-.034.479-.014.794-.023.794.023.479.014.527.034.609.037c.216.011.458.04.706.061a33.519,33.519,0,0,1,8.048,1.722c.8.274,1.616.615,2.45.981.409.2.835.383,1.249.606.208.109.421.213.629.329l.627.354a29.046,29.046,0,0,1,2.491,1.62,29.576,29.576,0,0,1,2.411,1.957,30.05,30.05,0,0,1,4.3,4.891,30.385,30.385,0,0,1,1.77,2.863l.183.333.207.408.414.817c.074.141.125.261.184.389l.174.38c.114.256.236.5.345.766a37.945,37.945,0,0,1,2.117,6.528,40.157,40.157,0,0,1,.914,6.628,47.722,47.722,0,0,1-.076,6.323c-.16,2.017-.413,3.925-.72,5.681s-.647,3.362-.989,4.781-.672,2.654-.954,3.669-.516,1.814-.678,2.357l-.249.834,3.161,1.051.3-.836c.193-.546.479-1.349.822-2.38s.74-2.293,1.161-3.756.865-3.129,1.255-4.976.75-3.87.99-6.039A51.026,51.026,0,0,0,1631.317,898.982Z" transform="translate(-1559.405 -862.679)" fill="#abbade"/>
      </g>
      <g id="Grupo_63656" data-name="Grupo 63656" transform="translate(169.95 62.4)">
        <g id="Grupo_63654" data-name="Grupo 63654" transform="translate(3.287 1.314)">
          <path id="Trazado_169857" data-name="Trazado 169857" d="M1977.681,1171.332c.917,2.536.075,7.357-1.6,12.643-1.793,5.651-4.061,10.319-6.44,11.534,4.707,1.1,8.273-2.141,10.757-9.972C1982.818,1177.9,1981.886,1173.241,1977.681,1171.332Z" transform="translate(-1969.64 -1171.332)" fill="#abbade"/>
        </g>
        <g id="Grupo_63655" data-name="Grupo 63655">
          <path id="Trazado_169858" data-name="Trazado 169858" d="M1958.016,1176.667c-1.793,5.651-4.061,10.319-6.44,11.534a2.233,2.233,0,0,1-1.817-.126,2.312,2.312,0,0,1-1.778-1.607c-.812-2.582.03-7.3,1.666-12.456,1.522-4.8,3.383-8.883,5.368-10.753a2.25,2.25,0,0,1,2.674-.482c.789.25,1.608.361,1.928,1.247C1960.534,1166.56,1959.693,1171.381,1958.016,1176.667Z" transform="translate(-1947.668 -1162.546)" fill="#83a1e6"/>
        </g>
      </g>
      <g id="Grupo_63659" data-name="Grupo 63659" transform="translate(110.287 62.4)">
        <g id="Grupo_63657" data-name="Grupo 63657" transform="translate(0 1.314)">
          <path id="Trazado_169859" data-name="Trazado 169859" d="M1552.933,1171.332c-.917,2.536-.075,7.357,1.6,12.643,1.792,5.651,4.06,10.319,6.44,11.534-4.707,1.1-8.273-2.141-10.757-9.972C1547.8,1177.9,1548.729,1173.241,1552.933,1171.332Z" transform="translate(-1548.903 -1171.332)" fill="#abbade"/>
        </g>
        <g id="Grupo_63658" data-name="Grupo 63658" transform="translate(3.033)">
          <path id="Trazado_169860" data-name="Trazado 169860" d="M1571.152,1176.667c1.793,5.651,4.061,10.319,6.44,11.534a2.233,2.233,0,0,0,1.817-.126,2.311,2.311,0,0,0,1.778-1.607c.813-2.582-.03-7.3-1.666-12.456-1.522-4.8-3.383-8.883-5.368-10.753a2.249,2.249,0,0,0-2.673-.482c-.789.25-1.609.361-1.929,1.247C1568.633,1166.56,1569.475,1171.381,1571.152,1176.667Z" transform="translate(-1569.173 -1162.546)" fill="#83a1e6"/>
        </g>
      </g>
      <g id="Grupo_63660" data-name="Grupo 63660" transform="translate(144.962 93.059)">
        <rect id="Rectángulo_35756" data-name="Rectángulo 35756" width="10.168" height="4.095" rx="2.048" fill="#83a1e6"/>
      </g>
    </g>
    <g id="Grupo_63662" data-name="Grupo 63662" transform="translate(614.374 447.877)">
      <path id="Trazado_169861" data-name="Trazado 169861" d="M2360.615,1495.984c-.077,0-.153,0-.23,0a1.135,1.135,0,0,1-.85-1.855,11.514,11.514,0,0,0,2.66-7.914h-4.072a8.041,8.041,0,0,1-8.032-8.032V1457.42a8.041,8.041,0,0,1,8.032-8.032h51.5a8.041,8.041,0,0,1,8.032,8.032v20.761a8.041,8.041,0,0,1-8.032,8.032h-36.776C2371.249,1489.322,2367.061,1495.984,2360.615,1495.984Zm-2.493-45.889a7.333,7.333,0,0,0-7.324,7.325v20.761a7.332,7.332,0,0,0,7.324,7.324h4.7l.047.3a11.879,11.879,0,0,1-2.782,8.771.427.427,0,0,0,.32.7l.212,0c6.193,0,10.241-6.68,11.7-9.578l.1-.194h37.21a7.333,7.333,0,0,0,7.325-7.324V1457.42a7.333,7.333,0,0,0-7.325-7.325Z" transform="translate(-2350.09 -1449.388)" fill="#83a1e6"/>
    </g>
    <g id="Grupo_63673" data-name="Grupo 63673" transform="translate(591.438 163.85)">
      <g id="Grupo_63667" data-name="Grupo 63667" transform="translate(0 0)">
        <g id="Grupo_63664" data-name="Grupo 63664" transform="translate(0 3.637)">
          <g id="Grupo_63663" data-name="Grupo 63663">
            <path id="Trazado_169862" data-name="Trazado 169862" d="M2129.407,394.146a32.957,32.957,0,0,1-1.117-65.9.775.775,0,0,1,.052,1.549,31.408,31.408,0,1,0,32.473,31.39.775.775,0,0,1,1.55,0A32.994,32.994,0,0,1,2129.407,394.146Z" transform="translate(-2096.45 -328.251)" fill="#83a1e6"/>
          </g>
        </g>
        <g id="Grupo_63666" data-name="Grupo 63666" transform="translate(25.486)">
          <g id="Grupo_63665" data-name="Grupo 63665">
            <path id="Trazado_169863" data-name="Trazado 169863" d="M2229.16,309.543a.454.454,0,0,0,.155.623l5.952,3.583-5.762,3.879a.454.454,0,1,0,.506.754l6.355-4.277a.455.455,0,0,0-.02-.766l-6.562-3.95a.455.455,0,0,0-.624.155Z" transform="translate(-2229.095 -309.323)" fill="#83a1e6"/>
          </g>
        </g>
      </g>
      <g id="Grupo_63672" data-name="Grupo 63672" transform="translate(10.652 24.977)">
        <g id="Grupo_63668" data-name="Grupo 63668" transform="translate(0 1.257)">
          <path id="Trazado_169864" data-name="Trazado 169864" d="M2151.953,460.53a4.589,4.589,0,0,1-.062-.762c0-5.315,6.49-7.169,6.49-10.259a2.081,2.081,0,0,0-2.287-2,4.177,4.177,0,0,0-2.9,1.257l-1.031-1.257a5.907,5.907,0,0,1,4.141-1.648c2.431,0,4.038,1.545,4.038,3.523,0,3.976-5.914,5.81-6.366,9.456h6.346v1.689Z" transform="translate(-2151.891 -445.862)" fill="#83a1e6"/>
        </g>
        <g id="Grupo_63669" data-name="Grupo 63669" transform="translate(11.928 1.36)">
          <path id="Trazado_169865" data-name="Trazado 169865" d="M2221.986,457.893v3.07h-1.854v-3.07h-6.16V456.41l4.306-10.012,1.607.68-3.894,9.126h4.14v-4.1h1.854v4.1h1.71v1.689Z" transform="translate(-2213.972 -446.398)" fill="#83a1e6"/>
        </g>
        <g id="Grupo_63670" data-name="Grupo 63670" transform="translate(23.938)">
          <path id="Trazado_169866" data-name="Trazado 169866" d="M2276.482,456.194l5.81-16.872,1.524.515-5.81,16.872Z" transform="translate(-2276.482 -439.322)" fill="#83a1e6"/>
        </g>
        <g id="Grupo_63671" data-name="Grupo 63671" transform="translate(34.156 1.504)">
          <path id="Trazado_169867" data-name="Trazado 169867" d="M2331.764,461.569c0-6.3,1.709-9.559,4.841-12.731h-6.942v-1.689h9.147v1.484c-3.77,3.667-4.965,6.551-4.965,12.937Z" transform="translate(-2329.663 -447.148)" fill="#83a1e6"/>
        </g>
      </g>
    </g>
    <g id="Grupo_63678" data-name="Grupo 63678" transform="translate(441.424 373.421)">
      <g id="Grupo_63675" data-name="Grupo 63675" transform="translate(0)">
        <g id="Grupo_63674" data-name="Grupo 63674">
          <circle id="Elipse_4680" data-name="Elipse 4680" cx="19.666" cy="19.666" r="19.666" fill="none" stroke="#83a1e6" stroke-miterlimit="10" stroke-width="5.416"/>
        </g>
      </g>
      <g id="Grupo_63677" data-name="Grupo 63677" transform="translate(19.13 6.708)">
        <g id="Grupo_63676" data-name="Grupo 63676">
          <path id="Trazado_169868" data-name="Trazado 169868" d="M609.969,1795.626H601.14a.536.536,0,0,1-.536-.536v-12.421a.536.536,0,1,1,1.072,0v11.885h8.293a.536.536,0,0,1,0,1.072Z" transform="translate(-600.604 -1782.133)" fill="#83a1e6"/>
        </g>
      </g>
    </g>
    <g id="Grupo_63684" data-name="Grupo 63684" transform="translate(423.782 153.504)">
      <g id="Grupo_63679" data-name="Grupo 63679" transform="translate(0 0)">
        <path id="Trazado_169869" data-name="Trazado 169869" d="M979.468,568.292H936.213a6.448,6.448,0,0,0-6.448,6.448v17.435a6.448,6.448,0,0,0,6.448,6.448H967.28c1.336,2.646,4.848,8.337,10.28,8.2a.655.655,0,0,0,.491-1.072,9.761,9.761,0,0,1-2.273-7.132h3.688a6.448,6.448,0,0,0,6.448-6.448V574.74A6.448,6.448,0,0,0,979.468,568.292Z" transform="translate(-929.765 -568.292)" fill="#dfe7f4"/>
      </g>
      <g id="Grupo_63683" data-name="Grupo 63683" transform="translate(14.796 9.859)">
        <g id="Grupo_63680" data-name="Grupo 63680" transform="translate(0 0.532)">
          <circle id="Elipse_4681" data-name="Elipse 4681" cx="3.173" cy="3.173" r="3.173" transform="translate(0 1.478) rotate(-13.467)" fill="#83a1e6"/>
        </g>
        <g id="Grupo_63681" data-name="Grupo 63681" transform="translate(8.426 0)">
          <circle id="Elipse_4682" data-name="Elipse 4682" cx="3.173" cy="3.173" r="3.173" transform="matrix(0.856, -0.517, 0.517, 0.856, 0, 3.283)" fill="#1d3c80"/>
        </g>
        <g id="Grupo_63682" data-name="Grupo 63682" transform="translate(17.762 0.378)">
          <circle id="Elipse_4683" data-name="Elipse 4683" cx="3.173" cy="3.173" r="3.173" transform="matrix(0.3, -0.954, 0.954, 0.3, 0, 6.052)" fill="#83a1e6"/>
        </g>
      </g>
    </g>
    <g id="Grupo_63690" data-name="Grupo 63690" transform="translate(641.159 322.136)">
      <g id="Grupo_63685" data-name="Grupo 63685" transform="translate(0 0)">
        <path id="Trazado_169870" data-name="Trazado 169870" d="M2818.279,1092.116h28.873a4.3,4.3,0,0,1,4.3,4.3v11.638a4.3,4.3,0,0,1-4.3,4.3h-20.738c-.892,1.766-3.236,5.565-6.862,5.476a.438.438,0,0,1-.328-.716,6.515,6.515,0,0,0,1.517-4.76h-2.462a4.3,4.3,0,0,1-4.3-4.3V1096.42A4.3,4.3,0,0,1,2818.279,1092.116Z" transform="translate(-2813.975 -1092.116)" fill="#dfe7f4"/>
      </g>
      <g id="Grupo_63689" data-name="Grupo 63689" transform="translate(10.546 6.942)">
        <g id="Grupo_63686" data-name="Grupo 63686" transform="translate(11.959 0)">
          <circle id="Elipse_4684" data-name="Elipse 4684" cx="2.118" cy="2.118" r="2.118" transform="translate(0 4.122) rotate(-76.718)" fill="#1d3c80"/>
        </g>
        <g id="Grupo_63687" data-name="Grupo 63687" transform="translate(5.98 0)">
          <circle id="Elipse_4685" data-name="Elipse 4685" cx="2.118" cy="2.118" r="2.118" transform="translate(0 4.122) rotate(-76.718)" fill="#83a1e6"/>
        </g>
        <g id="Grupo_63688" data-name="Grupo 63688" transform="translate(0 0)">
          <circle id="Elipse_4686" data-name="Elipse 4686" cx="2.118" cy="2.118" r="2.118" transform="translate(0 4.122) rotate(-76.718)" fill="#83a1e6"/>
        </g>
      </g>
    </g>
    <g id="Grupo_63704" data-name="Grupo 63704" transform="translate(444.252 286.101)">
      <g id="Grupo_63692" data-name="Grupo 63692" transform="translate(0)">
        <g id="Grupo_63691" data-name="Grupo 63691">
          <path id="Trazado_169871" data-name="Trazado 169871" d="M615.681,1155.335c-3.248,0-6.335-1.452-9.182-4.32a28.689,28.689,0,0,1-4.927-6.977H559.022a9.241,9.241,0,0,1-9.231-9.231v-24a9.241,9.241,0,0,1,9.231-9.231h59.545a9.241,9.241,0,0,1,9.231,9.231v24a9.241,9.241,0,0,1-9.231,9.231h-4.758a13.394,13.394,0,0,0,3.083,9.24,1.256,1.256,0,0,1-.941,2.054C615.86,1155.334,615.77,1155.335,615.681,1155.335Zm-56.659-53.052a8.533,8.533,0,0,0-8.523,8.523v24a8.533,8.533,0,0,0,8.523,8.523h42.767a.354.354,0,0,1,.316.194c1.716,3.4,6.5,11.284,13.828,11.1a.548.548,0,0,0,.411-.9,13.674,13.674,0,0,1-3.2-10.1.354.354,0,0,1,.35-.3h5.078a8.533,8.533,0,0,0,8.523-8.523v-24a8.533,8.533,0,0,0-8.523-8.523Z" transform="translate(-549.791 -1101.575)" fill="#83a1e6"/>
        </g>
      </g>
      <g id="Grupo_63694" data-name="Grupo 63694" transform="translate(7.401 6.446)">
        <g id="Grupo_63693" data-name="Grupo 63693">
          <path id="Trazado_169872" data-name="Trazado 169872" d="M685.261,1166.545H623.607a.607.607,0,0,1,0-1.213h61.654a.607.607,0,1,1,0,1.213Z" transform="translate(-623 -1165.332)" fill="#83a1e6"/>
        </g>
      </g>
      <g id="Grupo_63696" data-name="Grupo 63696" transform="translate(7.704 13.191)">
        <g id="Grupo_63695" data-name="Grupo 63695">
          <path id="Trazado_169873" data-name="Trazado 169873" d="M667.146,1233.269H626.607a.607.607,0,0,1,0-1.213h40.539a.607.607,0,1,1,0,1.213Z" transform="translate(-626 -1232.056)" fill="#83a1e6"/>
        </g>
      </g>
      <g id="Grupo_63697" data-name="Grupo 63697" transform="translate(55.725 13.191)">
        <path id="Trazado_169874" data-name="Trazado 169874" d="M1114.937,1233.269h-13.33a.607.607,0,0,1,0-1.213h13.33a.607.607,0,1,1,0,1.213Z" transform="translate(-1101 -1232.056)" fill="#83a1e6"/>
      </g>
      <g id="Grupo_63699" data-name="Grupo 63699" transform="translate(7.401 18.645)">
        <g id="Grupo_63698" data-name="Grupo 63698">
          <path id="Trazado_169875" data-name="Trazado 169875" d="M639.074,1287.213H623.607a.607.607,0,0,1,0-1.213h15.468a.607.607,0,1,1,0,1.213Z" transform="translate(-623 -1286)" fill="#83a1e6"/>
        </g>
      </g>
      <g id="Grupo_63701" data-name="Grupo 63701" transform="translate(29.036 18.645)">
        <g id="Grupo_63700" data-name="Grupo 63700">
          <path id="Trazado_169876" data-name="Trazado 169876" d="M877.626,1287.213h-40.02a.607.607,0,0,1,0-1.213h40.02a.607.607,0,0,1,0,1.213Z" transform="translate(-837 -1286)" fill="#83a1e6"/>
        </g>
      </g>
      <g id="Grupo_63703" data-name="Grupo 63703" transform="translate(7.401 24.104)">
        <g id="Grupo_63702" data-name="Grupo 63702">
          <path id="Trazado_169877" data-name="Trazado 169877" d="M654.434,1341.213H623.607a.607.607,0,0,1,0-1.213h30.827a.607.607,0,0,1,0,1.213Z" transform="translate(-623 -1340)" fill="#83a1e6"/>
        </g>
      </g>
    </g>
    <g id="Grupo_63710" data-name="Grupo 63710" transform="translate(567.031 253.243)">
      <g id="Grupo_63706" data-name="Grupo 63706" transform="translate(0 0)">
        <g id="Grupo_63705" data-name="Grupo 63705">
          <path id="Trazado_169878" data-name="Trazado 169878" d="M2569.734,627.058l-.187,0a.919.919,0,0,1-.689-1.5,9.36,9.36,0,0,0,2.155-6.412h-3.3a6.516,6.516,0,0,1-6.508-6.508V595.811a6.516,6.516,0,0,1,6.508-6.508h16.339a6.515,6.515,0,0,1,6.508,6.508v16.821a6.515,6.515,0,0,1-6.508,6.508h-4.405C2578.35,621.659,2574.957,627.057,2569.734,627.058Zm-2.02-37.181a5.941,5.941,0,0,0-5.935,5.935v16.821a5.941,5.941,0,0,0,5.935,5.935h3.8l.038.243a9.623,9.623,0,0,1-2.254,7.106.346.346,0,0,0,.259.566c5.117.125,8.456-5.383,9.655-7.758l.08-.158h4.757a5.941,5.941,0,0,0,5.934-5.935V595.811a5.941,5.941,0,0,0-5.934-5.935Z" transform="translate(-2561.206 -589.303)" fill="#1d3c80"/>
        </g>
      </g>
      <g id="Grupo_63709" data-name="Grupo 63709" transform="translate(11.993 4.88)">
        <g id="Grupo_63708" data-name="Grupo 63708">
          <g id="Grupo_63707" data-name="Grupo 63707">
            <path id="Trazado_169879" data-name="Trazado 169879" d="M2684.281,655.986h-2.167a.758.758,0,0,1-.758-.758V646.9a.758.758,0,0,0-.758-.758h0a.758.758,0,0,1-.758-.758v-.939a.758.758,0,0,1,.758-.758h3.683a.758.758,0,0,1,.758.758v10.785A.758.758,0,0,1,2684.281,655.986Zm-1.264-13.938a2.032,2.032,0,0,1-1.625-.626,2.34,2.34,0,0,1-.542-1.589,2.435,2.435,0,0,1,.542-1.613,1.994,1.994,0,0,1,1.625-.65,2.03,2.03,0,0,1,1.637.65,2.4,2.4,0,0,1,.554,1.613,2.308,2.308,0,0,1-.554,1.589A2.069,2.069,0,0,1,2683.017,642.048Z" transform="translate(-2679.839 -637.57)" fill="#83a1e6"/>
          </g>
        </g>
      </g>
    </g>
    <path id="Trazado_169880" data-name="Trazado 169880" d="M846.512,1575.836h-2.773a6.907,6.907,0,0,0-.549-1.323l1.961-1.961a.918.918,0,0,0,0-1.3L843.6,1569.7a.92.92,0,0,0-1.3,0l-1.961,1.961a7.005,7.005,0,0,0-1.323-.549v-2.773a.92.92,0,0,0-.919-.919h-2.2a.92.92,0,0,0-.919.919v2.773a7,7,0,0,0-1.323.549L831.7,1569.7a.92.92,0,0,0-1.3,0l-1.553,1.553a.918.918,0,0,0,0,1.3l1.961,1.961a6.915,6.915,0,0,0-.549,1.323h-2.773a.92.92,0,0,0-.919.919v2.2a.92.92,0,0,0,.919.918h2.773a6.89,6.89,0,0,0,.549,1.323l-1.961,1.961a.918.918,0,0,0,0,1.3l1.553,1.553a.918.918,0,0,0,1.3,0l1.961-1.96a6.944,6.944,0,0,0,1.323.548v2.773a.92.92,0,0,0,.919.919h2.2a.92.92,0,0,0,.919-.919v-2.773a6.945,6.945,0,0,0,1.323-.548l1.961,1.96a.918.918,0,0,0,1.3,0l1.553-1.553a.918.918,0,0,0,0-1.3l-1.961-1.961a6.882,6.882,0,0,0,.549-1.323h2.773a.92.92,0,0,0,.919-.918v-2.2A.92.92,0,0,0,846.512,1575.836Zm-6.076,2.017a3.438,3.438,0,1,1-3.438-3.438A3.443,3.443,0,0,1,840.436,1577.853Z" transform="translate(-395.573 -1117.111)" fill="#1d3c80"/>
    <path id="Trazado_169881" data-name="Trazado 169881" d="M2340.712,972.336h-2.773a6.922,6.922,0,0,0-.549-1.323l1.961-1.961a.918.918,0,0,0,0-1.3L2337.8,966.2a.92.92,0,0,0-1.3,0l-1.961,1.961a7.012,7.012,0,0,0-1.323-.549v-2.773a.92.92,0,0,0-.919-.919h-2.2a.92.92,0,0,0-.919.919v2.773a7.025,7.025,0,0,0-1.323.549L2325.9,966.2a.92.92,0,0,0-1.3,0l-1.553,1.553a.918.918,0,0,0,0,1.3l1.961,1.961a6.907,6.907,0,0,0-.549,1.323h-2.773a.92.92,0,0,0-.919.919v2.2a.92.92,0,0,0,.919.918h2.773a6.88,6.88,0,0,0,.549,1.323l-1.961,1.961a.918.918,0,0,0,0,1.3l1.553,1.553a.918.918,0,0,0,1.3,0l1.961-1.96a6.953,6.953,0,0,0,1.323.548v2.773a.92.92,0,0,0,.919.919h2.2a.92.92,0,0,0,.919-.919v-2.773a6.94,6.94,0,0,0,1.323-.548l1.961,1.96a.918.918,0,0,0,1.3,0l1.553-1.553a.918.918,0,0,0,0-1.3l-1.961-1.961a6.9,6.9,0,0,0,.549-1.323h2.773a.92.92,0,0,0,.919-.918v-2.2A.92.92,0,0,0,2340.712,972.336Zm-6.076,2.017a3.438,3.438,0,1,1-3.438-3.438A3.443,3.443,0,0,1,2334.636,974.353Z" transform="translate(-1679.606 -572.034)" fill="#83a1e6"/>
  </g>
</svg>
