<svg xmlns="http://www.w3.org/2000/svg" width="293.034" height="306.74" viewBox="0 0 293.034 306.74">
  <g id="Grupo_59746" data-name="Grupo 59746" transform="translate(-3775.97 -1319.09)">
    <path id="Trazado_166353" data-name="Trazado 166353" d="M4114.76,1363.92l-8.838-.581a6.522,6.522,0,0,1-6.08-6.936l.567-8.626a6.522,6.522,0,0,0-6.08-6.936l-198.059-13.025a6.522,6.522,0,0,0-6.935,6.08l-18.2,276.706a6.522,6.522,0,0,0,6.08,6.936l198.06,13.024a6.522,6.522,0,0,0,6.936-6.08l10.843-164.892a6.522,6.522,0,0,1,6.937-6.08l8.837.581a6.522,6.522,0,0,0,6.936-6.08l5.074-77.154A6.522,6.522,0,0,0,4114.76,1363.92Z" transform="translate(-51.85 -4.747)" fill="#3d3d3d" opacity="0.2" style="mix-blend-mode: multiply;isolation: isolate"/>
    <path id="Trazado_166354" data-name="Trazado 166354" d="M4108.1,1355.208l-8.838-.581a6.522,6.522,0,0,1-6.08-6.936l.568-8.627a6.524,6.524,0,0,0-6.081-6.936L3889.612,1319.1a6.522,6.522,0,0,0-6.936,6.08l-18.2,276.706a6.522,6.522,0,0,0,6.08,6.936l198.059,13.024a6.522,6.522,0,0,0,6.936-6.08l10.843-164.892a6.522,6.522,0,0,1,6.936-6.08l8.837.581a6.522,6.522,0,0,0,6.936-6.08l5.074-77.154A6.521,6.521,0,0,0,4108.1,1355.208Z" transform="translate(-48.222 0)" fill="#f4b55b"/>
    <path id="Trazado_166355" data-name="Trazado 166355" d="M4076.179,1371.4l-187.666-17.383a7.624,7.624,0,0,0-8.3,6.9l-22,237.534a7.631,7.631,0,0,0,6.9,8.3l187.666,17.384a7.64,7.64,0,0,0,8.314-6.9l22-237.534A7.633,7.633,0,0,0,4076.179,1371.4Z" transform="translate(-44.794 -19.016)" fill="#3d3d3d" opacity="0.2" style="mix-blend-mode: multiply;isolation: isolate"/>
    <g id="Grupo_59736" data-name="Grupo 59736" transform="translate(3811.741 1332.146)">
      <path id="Trazado_166356" data-name="Trazado 166356" d="M4076.961,1371.265l-19.285,237.77a7.64,7.64,0,0,1-8.235,6.99l-187.853-15.236a7.632,7.632,0,0,1-6.991-8.224l19.284-237.77a7.624,7.624,0,0,1,8.224-6.99l187.853,15.235A7.635,7.635,0,0,1,4076.961,1371.265Z" transform="translate(-3854.572 -1347.779)" fill="#ededed"/>
      <path id="Trazado_166357" data-name="Trazado 166357" d="M3943.944,1693.779l-11.539-.935a2.574,2.574,0,0,1-2.354-2.769l.936-11.539a2.573,2.573,0,0,1,2.769-2.354l11.539.936a2.574,2.574,0,0,1,2.354,2.77l-.936,11.539A2.572,2.572,0,0,1,3943.944,1693.779Zm-10.362-15.445a.411.411,0,0,0-.443.376l-.936,11.539a.411.411,0,0,0,.377.442l11.538.936a.41.41,0,0,0,.442-.376l.936-11.538a.412.412,0,0,0-.376-.443Z" transform="translate(-3895.696 -1526.722)" fill="#d4e8e8"/>
      <path id="Trazado_166358" data-name="Trazado 166358" d="M3938.706,1758.373l-11.538-.935a2.574,2.574,0,0,1-2.355-2.769l.936-11.539a2.574,2.574,0,0,1,2.77-2.354l11.539.935a2.573,2.573,0,0,1,2.353,2.77l-.936,11.539A2.572,2.572,0,0,1,3938.706,1758.373Zm-10.362-15.445a.411.411,0,0,0-.443.377l-.936,11.539a.411.411,0,0,0,.376.442l11.54.936a.411.411,0,0,0,.442-.376l.936-11.539a.41.41,0,0,0-.375-.443Z" transform="translate(-3892.842 -1561.92)" fill="#d4e8e8"/>
      <path id="Trazado_166359" data-name="Trazado 166359" d="M3933.467,1822.967l-11.539-.936a2.573,2.573,0,0,1-2.354-2.769l.936-11.539a2.574,2.574,0,0,1,2.77-2.354l11.539.936a2.573,2.573,0,0,1,2.353,2.77l-.936,11.539A2.573,2.573,0,0,1,3933.467,1822.967Zm-10.361-15.446a.411.411,0,0,0-.444.376l-.936,11.539a.411.411,0,0,0,.376.442l11.539.936a.412.412,0,0,0,.443-.376l.935-11.539a.411.411,0,0,0-.376-.443Z" transform="translate(-3889.988 -1597.117)" fill="#d4e8e8"/>
      <path id="Trazado_166360" data-name="Trazado 166360" d="M3950.159,1745.267l-.059.014a14.566,14.566,0,0,0-2,.647l-.945.39-.9.44a27.01,27.01,0,0,0-3.393,2.014,29.029,29.029,0,0,0-3.091,2.37c-.553.472-1.083.971-1.6,1.484q-.5-.4-1.042-.769c-.483-.361-1.022-.675-1.548-1a14.844,14.844,0,0,0-1.712-.859l-.056-.023a.125.125,0,0,0-.144.193c1.471,1.835,2.981,3.636,4.492,5.437a.23.23,0,0,0,.323.026c1.995-1.657,3.978-3.328,5.931-5.034l2.943-2.542c.989-.84,1.944-1.718,2.917-2.575a.126.126,0,0,0,.039-.122A.124.124,0,0,0,3950.159,1745.267Z" transform="translate(-3897.654 -1564.37)" fill="#ea6c6c"/>
      <path id="Trazado_166361" data-name="Trazado 166361" d="M3944.921,1809.86l-.059.014a14.5,14.5,0,0,0-2,.647l-.946.39-.9.44a26.781,26.781,0,0,0-3.394,2.014,29.044,29.044,0,0,0-3.092,2.369c-.552.472-1.082.971-1.6,1.484q-.506-.4-1.043-.769c-.482-.361-1.021-.675-1.547-1a14.966,14.966,0,0,0-1.713-.858l-.057-.023a.125.125,0,0,0-.125.018.126.126,0,0,0-.019.175c1.472,1.834,2.982,3.636,4.492,5.437a.231.231,0,0,0,.324.026c2-1.657,3.978-3.328,5.931-5.034l2.944-2.542c.988-.84,1.943-1.718,2.916-2.575a.124.124,0,0,0-.111-.214Z" transform="translate(-3894.8 -1599.567)" fill="#ea6c6c"/>
      <path id="Trazado_166362" data-name="Trazado 166362" d="M4008.248,1413.827l-51-4.136a3.6,3.6,0,0,1-3.3-3.882h0a3.6,3.6,0,0,1,3.883-3.3l51,4.136a3.6,3.6,0,0,1,3.3,3.882h0A3.6,3.6,0,0,1,4008.248,1413.827Z" transform="translate(-3908.715 -1377.595)" fill="#9bcdce"/>
      <g id="Grupo_59733" data-name="Grupo 59733" transform="translate(36.73 120.055)">
        <path id="Trazado_166363" data-name="Trazado 166363" d="M3949.183,1629.187l-11.539-.936a2.574,2.574,0,0,1-2.354-2.769l.936-11.539a2.573,2.573,0,0,1,2.77-2.354l11.538.936a2.573,2.573,0,0,1,2.353,2.77l-.936,11.538A2.572,2.572,0,0,1,3949.183,1629.187Zm-10.362-15.446a.411.411,0,0,0-.443.376l-.935,11.539a.412.412,0,0,0,.376.442l11.539.935a.411.411,0,0,0,.443-.376l.935-11.539a.41.41,0,0,0-.375-.443Z" transform="translate(-3935.282 -1611.58)" fill="#d4e8e8"/>
        <path id="Trazado_166364" data-name="Trazado 166364" d="M3960.563,1616.982l-.059.014a14.591,14.591,0,0,0-2,.647l-.946.39-.9.441a26.96,26.96,0,0,0-3.394,2.013,29.036,29.036,0,0,0-3.09,2.37c-.553.472-1.083.971-1.6,1.484-.337-.266-.684-.523-1.043-.769-.483-.361-1.021-.675-1.547-1a14.914,14.914,0,0,0-1.712-.858l-.057-.023a.123.123,0,0,0-.125.018.125.125,0,0,0-.02.175c1.471,1.834,2.982,3.636,4.492,5.437a.231.231,0,0,0,.324.026c2-1.657,3.978-3.328,5.931-5.034l2.944-2.542c.987-.84,1.943-1.718,2.916-2.575a.125.125,0,0,0-.112-.215Z" transform="translate(-3940.054 -1614.522)" fill="#ea6c6c"/>
        <path id="Trazado_166365" data-name="Trazado 166365" d="M4123.96,1631.929l-119-9.651a3.6,3.6,0,0,1-3.3-3.883h0a3.6,3.6,0,0,1,3.882-3.3l119,9.651a3.6,3.6,0,0,1,3.3,3.882h0A3.6,3.6,0,0,1,4123.96,1631.929Z" transform="translate(-3971.444 -1613.489)" fill="#d4e8e8"/>
        <path id="Trazado_166366" data-name="Trazado 166366" d="M4121.963,1656.542l-119-9.651a3.6,3.6,0,0,1-3.3-3.883h0a3.6,3.6,0,0,1,3.882-3.3l119,9.651a3.6,3.6,0,0,1,3.3,3.883h0A3.6,3.6,0,0,1,4121.963,1656.542Z" transform="translate(-3970.357 -1626.901)" fill="#d4e8e8"/>
      </g>
      <g id="Grupo_59734" data-name="Grupo 59734" transform="translate(39.091 90.657)">
        <path id="Trazado_166367" data-name="Trazado 166367" d="M3954.371,1564.588l-11.539-.935a2.573,2.573,0,0,1-2.354-2.769l.936-11.539a2.573,2.573,0,0,1,2.77-2.354l11.539.936a2.574,2.574,0,0,1,2.354,2.77l-.936,11.539A2.572,2.572,0,0,1,3954.371,1564.588Zm-10.362-15.445a.412.412,0,0,0-.443.376l-.936,11.539a.411.411,0,0,0,.376.443l11.539.936a.411.411,0,0,0,.442-.376l.936-11.538a.411.411,0,0,0-.376-.443Z" transform="translate(-3940.47 -1546.982)" fill="#d4e8e8"/>
        <path id="Trazado_166368" data-name="Trazado 166368" d="M4129.148,1567.331l-119-9.651a3.6,3.6,0,0,1-3.3-3.883h0a3.6,3.6,0,0,1,3.882-3.3l119,9.652a3.6,3.6,0,0,1,3.3,3.882h0A3.6,3.6,0,0,1,4129.148,1567.331Z" transform="translate(-3976.632 -1548.891)" fill="#d4e8e8"/>
        <path id="Trazado_166369" data-name="Trazado 166369" d="M4127.15,1591.944l-119-9.651a3.6,3.6,0,0,1-3.3-3.882h0a3.6,3.6,0,0,1,3.883-3.3l119,9.652a3.6,3.6,0,0,1,3.3,3.882h0A3.6,3.6,0,0,1,4127.15,1591.944Z" transform="translate(-3975.544 -1562.302)" fill="#d4e8e8"/>
      </g>
      <g id="Grupo_59735" data-name="Grupo 59735" transform="translate(41.452 61.258)">
        <path id="Trazado_166370" data-name="Trazado 166370" d="M3959.559,1499.991l-11.538-.936a2.572,2.572,0,0,1-2.354-2.769l.936-11.539a2.575,2.575,0,0,1,2.77-2.354l11.539.936a2.572,2.572,0,0,1,2.353,2.77l-.936,11.539A2.573,2.573,0,0,1,3959.559,1499.991Zm-10.362-15.446a.411.411,0,0,0-.443.377l-.936,11.539a.41.41,0,0,0,.376.442l11.539.936a.411.411,0,0,0,.442-.376l.936-11.539a.412.412,0,0,0-.376-.443Z" transform="translate(-3945.658 -1482.385)" fill="#d4e8e8"/>
        <path id="Trazado_166371" data-name="Trazado 166371" d="M3970.939,1487.787l-.059.014a14.545,14.545,0,0,0-2,.647l-.945.389-.9.441a26.976,26.976,0,0,0-3.394,2.014,29.167,29.167,0,0,0-3.091,2.369c-.552.472-1.082.971-1.6,1.484-.336-.266-.683-.523-1.043-.769-.482-.361-1.021-.675-1.546-1a14.863,14.863,0,0,0-1.712-.858l-.057-.023a.124.124,0,0,0-.144.193c1.471,1.835,2.981,3.636,4.492,5.438a.232.232,0,0,0,.324.026c1.994-1.657,3.978-3.328,5.931-5.034l2.944-2.542c.988-.84,1.943-1.718,2.916-2.575a.126.126,0,0,0,.039-.122A.124.124,0,0,0,3970.939,1487.787Z" transform="translate(-3950.429 -1485.326)" fill="#ea6c6c"/>
        <path id="Trazado_166372" data-name="Trazado 166372" d="M4134.335,1502.734l-119-9.652a3.6,3.6,0,0,1-3.3-3.882h0a3.6,3.6,0,0,1,3.883-3.3l119,9.651a3.6,3.6,0,0,1,3.3,3.882h0A3.6,3.6,0,0,1,4134.335,1502.734Z" transform="translate(-3981.819 -1484.293)" fill="#d4e8e8"/>
        <path id="Trazado_166373" data-name="Trazado 166373" d="M4132.339,1527.347l-119-9.652a3.6,3.6,0,0,1-3.3-3.882h0a3.6,3.6,0,0,1,3.883-3.3l119,9.651a3.6,3.6,0,0,1,3.3,3.882h0A3.6,3.6,0,0,1,4132.339,1527.347Z" transform="translate(-3980.732 -1497.705)" fill="#d4e8e8"/>
      </g>
      <path id="Trazado_166374" data-name="Trazado 166374" d="M4118.721,1696.522l-119-9.651a3.6,3.6,0,0,1-3.3-3.882h0a3.6,3.6,0,0,1,3.883-3.3l119,9.652a3.6,3.6,0,0,1,3.3,3.882h0A3.6,3.6,0,0,1,4118.721,1696.522Z" transform="translate(-3931.858 -1528.631)" fill="#d4e8e8"/>
      <path id="Trazado_166375" data-name="Trazado 166375" d="M4102.775,1454.418,3954.561,1442.4a3.6,3.6,0,0,1-3.3-3.882h0a3.6,3.6,0,0,1,3.883-3.3l148.215,12.021a3.6,3.6,0,0,1,3.3,3.883h0A3.6,3.6,0,0,1,4102.775,1454.418Z" transform="translate(-3907.252 -1395.416)" fill="#d4e8e8"/>
      <path id="Trazado_166376" data-name="Trazado 166376" d="M4116.725,1721.135l-119-9.652a3.6,3.6,0,0,1-3.3-3.882h0a3.6,3.6,0,0,1,3.883-3.3l119,9.652a3.6,3.6,0,0,1,3.3,3.883h0A3.6,3.6,0,0,1,4116.725,1721.135Z" transform="translate(-3930.771 -1542.043)" fill="#d4e8e8"/>
      <path id="Trazado_166377" data-name="Trazado 166377" d="M4113.482,1761.116l-119-9.652a3.6,3.6,0,0,1-3.3-3.882h0a3.6,3.6,0,0,1,3.883-3.3l119,9.651a3.6,3.6,0,0,1,3.3,3.883h0A3.6,3.6,0,0,1,4113.482,1761.116Z" transform="translate(-3929.004 -1563.828)" fill="#d4e8e8"/>
      <path id="Trazado_166378" data-name="Trazado 166378" d="M4111.486,1785.729l-119-9.651a3.6,3.6,0,0,1-3.3-3.883h0a3.6,3.6,0,0,1,3.882-3.3l119,9.651a3.6,3.6,0,0,1,3.3,3.883h0A3.6,3.6,0,0,1,4111.486,1785.729Z" transform="translate(-3927.917 -1577.24)" fill="#d4e8e8"/>
      <path id="Trazado_166379" data-name="Trazado 166379" d="M4108.244,1825.709l-119-9.651a3.6,3.6,0,0,1-3.3-3.883h0a3.6,3.6,0,0,1,3.883-3.3l119,9.652a3.6,3.6,0,0,1,3.3,3.882h0A3.6,3.6,0,0,1,4108.244,1825.709Z" transform="translate(-3926.15 -1599.025)" fill="#d4e8e8"/>
      <path id="Trazado_166380" data-name="Trazado 166380" d="M4106.247,1850.323l-119-9.652a3.6,3.6,0,0,1-3.3-3.882h0a3.6,3.6,0,0,1,3.883-3.3l119,9.651a3.6,3.6,0,0,1,3.3,3.882h0A3.6,3.6,0,0,1,4106.247,1850.323Z" transform="translate(-3925.061 -1612.438)" fill="#d4e8e8"/>
    </g>
    <path id="Trazado_166381" data-name="Trazado 166381" d="M4067.132,1367.629a7.634,7.634,0,0,0-7.694-7.581l-188.466,1.265a7.625,7.625,0,0,0-7.581,7.683l1.6,238.545a7.631,7.631,0,0,0,7.683,7.581l188.465-1.265a7.641,7.641,0,0,0,7.592-7.684Z" transform="translate(-47.636 -22.318)" fill="#3d3d3d" opacity="0.2" style="mix-blend-mode: multiply;isolation: isolate"/>
    <g id="Grupo_59740" data-name="Grupo 59740" transform="translate(3811.431 1333.815)">
      <path id="Trazado_166382" data-name="Trazado 166382" d="M4057.593,1358.916l5.077,238.5a7.64,7.64,0,0,1-7.479,7.793l-188.426,4.012a7.633,7.633,0,0,1-7.794-7.469l-5.078-238.5a7.626,7.626,0,0,1,7.468-7.794l188.427-4.011A7.634,7.634,0,0,1,4057.593,1358.916Z" transform="translate(-3853.892 -1351.446)" fill="#f7f7f7"/>
      <path id="Trazado_166383" data-name="Trazado 166383" d="M3935.738,1700.719l-11.574.247a2.573,2.573,0,0,1-2.624-2.514l-.246-11.574a2.573,2.573,0,0,1,2.514-2.625l11.574-.247a2.573,2.573,0,0,1,2.624,2.515l.247,11.574A2.572,2.572,0,0,1,3935.738,1700.719Zm-11.884-14.308a.411.411,0,0,0-.4.42l.246,11.574a.411.411,0,0,0,.42.4l11.574-.246a.412.412,0,0,0,.4-.419l-.247-11.574a.412.412,0,0,0-.419-.4Z" transform="translate(-3890.619 -1532.659)" fill="#d4e8e8"/>
      <path id="Trazado_166384" data-name="Trazado 166384" d="M3937.117,1765.51l-11.574.247a2.573,2.573,0,0,1-2.624-2.514l-.247-11.574a2.574,2.574,0,0,1,2.515-2.624l11.574-.247a2.574,2.574,0,0,1,2.624,2.515l.246,11.574A2.573,2.573,0,0,1,3937.117,1765.51Zm-11.885-14.308a.412.412,0,0,0-.4.42l.247,11.574a.41.41,0,0,0,.419.4l11.575-.246a.411.411,0,0,0,.4-.419l-.246-11.574a.411.411,0,0,0-.419-.4Z" transform="translate(-3891.37 -1567.964)" fill="#d4e8e8"/>
      <path id="Trazado_166385" data-name="Trazado 166385" d="M3938.5,1830.3l-11.575.246a2.572,2.572,0,0,1-2.624-2.514l-.247-11.574a2.574,2.574,0,0,1,2.515-2.624l11.574-.247a2.573,2.573,0,0,1,2.624,2.515l.247,11.574A2.573,2.573,0,0,1,3938.5,1830.3Zm-11.884-14.308a.411.411,0,0,0-.4.42l.246,11.574a.412.412,0,0,0,.42.4l11.574-.247a.411.411,0,0,0,.4-.418l-.247-11.574a.413.413,0,0,0-.42-.4Z" transform="translate(-3892.121 -1603.269)" fill="#d4e8e8"/>
      <path id="Trazado_166386" data-name="Trazado 166386" d="M3946.349,1750.02l-.057.02a14.559,14.559,0,0,0-1.926.848l-.9.484-.851.53a26.921,26.921,0,0,0-3.171,2.35,29.059,29.059,0,0,0-2.833,2.672c-.5.526-.978,1.076-1.441,1.639-.363-.23-.733-.45-1.116-.658-.517-.31-1.085-.567-1.642-.836a14.941,14.941,0,0,0-1.791-.679l-.059-.017a.124.124,0,0,0-.123.207c1.65,1.675,3.337,3.313,5.024,4.951a.231.231,0,0,0,.324-.007c1.816-1.852,3.618-3.717,5.387-5.613l2.669-2.829c.9-.936,1.758-1.907,2.638-2.859a.123.123,0,0,0,.026-.125A.125.125,0,0,0,3946.349,1750.02Z" transform="translate(-3895.583 -1568.627)" fill="#ea6c6c"/>
      <path id="Trazado_166387" data-name="Trazado 166387" d="M3947.728,1814.811l-.057.02a14.579,14.579,0,0,0-1.927.848l-.9.484-.852.53a26.873,26.873,0,0,0-3.17,2.35,29.038,29.038,0,0,0-2.833,2.672c-.5.526-.978,1.076-1.442,1.64-.362-.23-.733-.451-1.116-.659-.517-.31-1.085-.567-1.641-.836a14.964,14.964,0,0,0-1.791-.679l-.058-.017a.124.124,0,0,0-.124.207c1.65,1.675,3.336,3.313,5.023,4.95a.231.231,0,0,0,.325-.007c1.815-1.852,3.618-3.717,5.386-5.613l2.67-2.829c.9-.937,1.757-1.907,2.638-2.859a.122.122,0,0,0,.026-.125A.124.124,0,0,0,3947.728,1814.811Z" transform="translate(-3896.334 -1603.931)" fill="#ea6c6c"/>
      <path id="Trazado_166388" data-name="Trazado 166388" d="M3970.144,1414.64l-51.156,1.089a3.6,3.6,0,0,1-3.679-3.526h0a3.6,3.6,0,0,1,3.526-3.679l51.156-1.089a3.6,3.6,0,0,1,3.679,3.525h0A3.6,3.6,0,0,1,3970.144,1414.64Z" transform="translate(-3887.357 -1381.955)" fill="#9bcdce"/>
      <g id="Grupo_59737" data-name="Grupo 59737" transform="translate(30.046 118.054)">
        <path id="Trazado_166389" data-name="Trazado 166389" d="M3934.358,1635.928l-11.575.247a2.573,2.573,0,0,1-2.624-2.514l-.247-11.574a2.574,2.574,0,0,1,2.515-2.625l11.574-.247a2.573,2.573,0,0,1,2.624,2.515l.247,11.574A2.572,2.572,0,0,1,3934.358,1635.928Zm-11.884-14.307a.411.411,0,0,0-.4.42l.246,11.574a.412.412,0,0,0,.42.4l11.574-.246a.411.411,0,0,0,.4-.419l-.246-11.574a.411.411,0,0,0-.419-.4Z" transform="translate(-3919.912 -1615.408)" fill="#d4e8e8"/>
        <path id="Trazado_166390" data-name="Trazado 166390" d="M3943.609,1621.343l-.057.021a14.537,14.537,0,0,0-1.926.848l-.9.484-.852.53a26.967,26.967,0,0,0-3.17,2.35,29.029,29.029,0,0,0-2.833,2.672c-.5.526-.978,1.076-1.441,1.64-.362-.23-.733-.45-1.116-.659-.516-.31-1.084-.567-1.641-.836a14.906,14.906,0,0,0-1.79-.679l-.058-.017a.124.124,0,0,0-.124.206c1.651,1.675,3.336,3.313,5.023,4.951a.231.231,0,0,0,.325-.007c1.815-1.852,3.618-3.716,5.386-5.613l2.669-2.829c.9-.936,1.759-1.907,2.639-2.859a.124.124,0,0,0-.132-.2Z" transform="translate(-3924.136 -1616.564)" fill="#ea6c6c"/>
        <path id="Trazado_166391" data-name="Trazado 166391" d="M4107.506,1618.057l-119.365,2.542a3.6,3.6,0,0,1-3.679-3.525h0a3.6,3.6,0,0,1,3.526-3.679l119.365-2.542a3.6,3.6,0,0,1,3.679,3.526h0A3.6,3.6,0,0,1,4107.506,1618.057Z" transform="translate(-3955.086 -1610.851)" fill="#d4e8e8"/>
        <path id="Trazado_166392" data-name="Trazado 166392" d="M4108.033,1642.745l-119.366,2.542a3.6,3.6,0,0,1-3.679-3.526h0a3.6,3.6,0,0,1,3.525-3.679l119.365-2.541a3.6,3.6,0,0,1,3.679,3.525h0A3.6,3.6,0,0,1,4108.033,1642.745Z" transform="translate(-3955.372 -1624.304)" fill="#d4e8e8"/>
      </g>
      <g id="Grupo_59738" data-name="Grupo 59738" transform="translate(29.394 88.569)">
        <path id="Trazado_166393" data-name="Trazado 166393" d="M3932.927,1571.139l-11.573.246a2.573,2.573,0,0,1-2.625-2.514l-.247-11.574a2.574,2.574,0,0,1,2.516-2.625l11.573-.246a2.573,2.573,0,0,1,2.624,2.515l.247,11.574A2.572,2.572,0,0,1,3932.927,1571.139Zm-11.884-14.308a.411.411,0,0,0-.4.42l.246,11.574a.411.411,0,0,0,.42.4l11.574-.247a.411.411,0,0,0,.4-.419l-.247-11.574a.41.41,0,0,0-.419-.4Z" transform="translate(-3918.481 -1550.619)" fill="#d4e8e8"/>
        <path id="Trazado_166394" data-name="Trazado 166394" d="M4106.076,1553.267l-119.365,2.542a3.6,3.6,0,0,1-3.679-3.526h0a3.6,3.6,0,0,1,3.526-3.679l119.365-2.542a3.6,3.6,0,0,1,3.679,3.526h0A3.6,3.6,0,0,1,4106.076,1553.267Z" transform="translate(-3953.655 -1546.061)" fill="#d4e8e8"/>
        <path id="Trazado_166395" data-name="Trazado 166395" d="M4106.6,1577.956l-119.365,2.541a3.6,3.6,0,0,1-3.679-3.526h0a3.6,3.6,0,0,1,3.526-3.679l119.365-2.541a3.6,3.6,0,0,1,3.679,3.526h0A3.6,3.6,0,0,1,4106.6,1577.956Z" transform="translate(-3953.941 -1559.515)" fill="#d4e8e8"/>
      </g>
      <g id="Grupo_59739" data-name="Grupo 59739" transform="translate(28.744 59.083)">
        <path id="Trazado_166396" data-name="Trazado 166396" d="M3931.5,1506.349l-11.574.246a2.573,2.573,0,0,1-2.625-2.514l-.246-11.574a2.574,2.574,0,0,1,2.514-2.625l11.575-.246a2.573,2.573,0,0,1,2.624,2.515l.246,11.574A2.573,2.573,0,0,1,3931.5,1506.349Zm-11.884-14.308a.411.411,0,0,0-.4.42l.247,11.574a.411.411,0,0,0,.42.4l11.573-.247a.412.412,0,0,0,.4-.419l-.247-11.574a.41.41,0,0,0-.419-.4Z" transform="translate(-3917.051 -1485.829)" fill="#d4e8e8"/>
        <path id="Trazado_166397" data-name="Trazado 166397" d="M3940.748,1491.764l-.057.02a14.6,14.6,0,0,0-1.927.848l-.9.484-.852.531a26.929,26.929,0,0,0-3.17,2.349,28.968,28.968,0,0,0-2.832,2.673c-.5.526-.979,1.076-1.441,1.64q-.544-.345-1.116-.659c-.517-.31-1.085-.567-1.641-.835a14.855,14.855,0,0,0-1.791-.679l-.058-.017a.125.125,0,0,0-.124.207c1.65,1.675,3.337,3.313,5.024,4.95a.232.232,0,0,0,.325-.007c1.815-1.852,3.617-3.717,5.386-5.613l2.669-2.829c.9-.936,1.758-1.907,2.638-2.859a.123.123,0,0,0,.026-.125A.125.125,0,0,0,3940.748,1491.764Z" transform="translate(-3921.274 -1486.985)" fill="#ea6c6c"/>
        <path id="Trazado_166398" data-name="Trazado 166398" d="M4104.646,1488.477l-119.365,2.542a3.6,3.6,0,0,1-3.679-3.526h0a3.6,3.6,0,0,1,3.526-3.679l119.365-2.541a3.6,3.6,0,0,1,3.679,3.525h0A3.6,3.6,0,0,1,4104.646,1488.477Z" transform="translate(-3952.224 -1481.272)" fill="#d4e8e8"/>
        <path id="Trazado_166399" data-name="Trazado 166399" d="M4105.171,1513.166l-119.366,2.542a3.6,3.6,0,0,1-3.678-3.526h0a3.6,3.6,0,0,1,3.525-3.679l119.366-2.541a3.6,3.6,0,0,1,3.678,3.526h0A3.6,3.6,0,0,1,4105.171,1513.166Z" transform="translate(-3952.511 -1494.725)" fill="#d4e8e8"/>
      </g>
      <path id="Trazado_166400" data-name="Trazado 166400" d="M4108.886,1682.848l-119.366,2.541a3.6,3.6,0,0,1-3.678-3.525h0a3.6,3.6,0,0,1,3.525-3.679l119.366-2.542a3.6,3.6,0,0,1,3.679,3.525h0A3.6,3.6,0,0,1,4108.886,1682.848Z" transform="translate(-3925.791 -1528.102)" fill="#d4e8e8"/>
      <path id="Trazado_166401" data-name="Trazado 166401" d="M4068.32,1442.888l-148.667,3.165a3.6,3.6,0,0,1-3.679-3.526h0a3.6,3.6,0,0,1,3.526-3.679l148.667-3.165a3.6,3.6,0,0,1,3.679,3.525h0A3.6,3.6,0,0,1,4068.32,1442.888Z" transform="translate(-3887.72 -1397.347)" fill="#d4e8e8"/>
      <path id="Trazado_166402" data-name="Trazado 166402" d="M4109.411,1707.536l-119.365,2.541a3.6,3.6,0,0,1-3.679-3.526h0a3.6,3.6,0,0,1,3.525-3.679l119.366-2.541a3.6,3.6,0,0,1,3.678,3.525h0A3.6,3.6,0,0,1,4109.411,1707.536Z" transform="translate(-3926.078 -1541.555)" fill="#d4e8e8"/>
      <path id="Trazado_166403" data-name="Trazado 166403" d="M4110.266,1747.639,3990.9,1750.18a3.6,3.6,0,0,1-3.679-3.526h0a3.6,3.6,0,0,1,3.526-3.678l119.364-2.542a3.6,3.6,0,0,1,3.68,3.526h0A3.6,3.6,0,0,1,4110.266,1747.639Z" transform="translate(-3926.543 -1563.407)" fill="#d4e8e8"/>
      <path id="Trazado_166404" data-name="Trazado 166404" d="M4110.792,1772.327l-119.365,2.542a3.6,3.6,0,0,1-3.679-3.526h0a3.6,3.6,0,0,1,3.525-3.679l119.366-2.542a3.6,3.6,0,0,1,3.679,3.526h0A3.6,3.6,0,0,1,4110.792,1772.327Z" transform="translate(-3926.83 -1576.859)" fill="#d4e8e8"/>
      <path id="Trazado_166405" data-name="Trazado 166405" d="M4111.646,1812.43l-119.366,2.541a3.6,3.6,0,0,1-3.679-3.526h0a3.6,3.6,0,0,1,3.526-3.679l119.365-2.541a3.6,3.6,0,0,1,3.679,3.526h0A3.6,3.6,0,0,1,4111.646,1812.43Z" transform="translate(-3927.295 -1598.712)" fill="#d4e8e8"/>
      <path id="Trazado_166406" data-name="Trazado 166406" d="M4112.171,1837.118l-119.366,2.542a3.6,3.6,0,0,1-3.679-3.526h0a3.6,3.6,0,0,1,3.526-3.679l119.365-2.542a3.6,3.6,0,0,1,3.679,3.526h0A3.6,3.6,0,0,1,4112.171,1837.118Z" transform="translate(-3927.581 -1612.164)" fill="#d4e8e8"/>
    </g>
    <path id="Trazado_166407" data-name="Trazado 166407" d="M4056.066,1590.234l-21.9-237.543a7.633,7.633,0,0,0-8.311-6.9l-187.674,17.3a7.625,7.625,0,0,0-6.9,8.3l21.9,237.543a7.631,7.631,0,0,0,8.3,6.9l187.674-17.3A7.641,7.641,0,0,0,4056.066,1590.234Z" transform="translate(-30.123 -14.532)" fill="#3d3d3d" opacity="0.2" style="mix-blend-mode: multiply;isolation: isolate"/>
    <g id="Grupo_59744" data-name="Grupo 59744" transform="translate(3796.04 1326.622)">
      <path id="Trazado_166408" data-name="Trazado 166408" d="M4022.6,1342.424l26.549,237.068a7.64,7.64,0,0,1-6.746,8.436L3855.1,1608.9a7.632,7.632,0,0,1-8.435-6.736L3820.119,1365.1a7.625,7.625,0,0,1,6.736-8.434l187.3-20.976A7.634,7.634,0,0,1,4022.6,1342.424Z" transform="translate(-3820.071 -1335.641)" fill="#fff"/>
      <path id="Trazado_166409" data-name="Trazado 166409" d="M3931.114,1713.471l-11.5,1.288a2.573,2.573,0,0,1-2.84-2.268l-1.289-11.5a2.574,2.574,0,0,1,2.268-2.841l11.5-1.288a2.574,2.574,0,0,1,2.84,2.269l1.288,11.5A2.573,2.573,0,0,1,3931.114,1713.471Zm-13.125-13.179a.411.411,0,0,0-.363.454l1.289,11.5a.41.41,0,0,0,.454.362l11.5-1.288a.411.411,0,0,0,.362-.453l-1.288-11.505a.412.412,0,0,0-.454-.363Z" transform="translate(-3872.051 -1532.461)" fill="#d4e8e8"/>
      <path id="Trazado_166410" data-name="Trazado 166410" d="M3938.326,1777.874l-11.5,1.288a2.573,2.573,0,0,1-2.84-2.268l-1.288-11.5a2.574,2.574,0,0,1,2.268-2.841l11.5-1.288a2.574,2.574,0,0,1,2.84,2.269l1.288,11.5A2.572,2.572,0,0,1,3938.326,1777.874ZM3925.2,1764.7a.412.412,0,0,0-.363.454l1.288,11.5a.411.411,0,0,0,.455.362l11.5-1.288a.41.41,0,0,0,.363-.453l-1.288-11.505a.412.412,0,0,0-.454-.363Z" transform="translate(-3875.981 -1567.554)" fill="#d4e8e8"/>
      <path id="Trazado_166411" data-name="Trazado 166411" d="M3945.538,1842.277l-11.5,1.288a2.575,2.575,0,0,1-2.841-2.267l-1.287-11.505a2.573,2.573,0,0,1,2.268-2.841l11.5-1.288a2.572,2.572,0,0,1,2.839,2.269l1.288,11.5A2.572,2.572,0,0,1,3945.538,1842.277Zm-13.125-13.179a.412.412,0,0,0-.363.455l1.289,11.5a.412.412,0,0,0,.455.362l11.505-1.288a.412.412,0,0,0,.362-.453l-1.289-11.5a.411.411,0,0,0-.454-.363Z" transform="translate(-3879.911 -1602.648)" fill="#d4e8e8"/>
      <path id="Trazado_166412" data-name="Trazado 166412" d="M3946.532,1761.427l-.056.025a14.661,14.661,0,0,0-1.842,1.018l-.853.563-.8.605a26.905,26.905,0,0,0-2.945,2.625,28.928,28.928,0,0,0-2.581,2.917c-.452.569-.877,1.16-1.287,1.762-.381-.2-.771-.382-1.171-.555-.543-.262-1.132-.467-1.71-.685a14.952,14.952,0,0,0-1.845-.515l-.06-.012a.124.124,0,0,0-.1.217c1.795,1.52,3.622,3,5.449,4.478a.231.231,0,0,0,.323-.036c1.641-2.008,3.267-4.028,4.858-6.076l2.4-3.058c.809-1.013,1.578-2.058,2.369-3.086a.124.124,0,0,0-.15-.189Z" transform="translate(-3880.644 -1567.648)" fill="#fd8f25"/>
      <path id="Trazado_166413" data-name="Trazado 166413" d="M3953.744,1825.831l-.055.025a14.571,14.571,0,0,0-1.843,1.018l-.852.563-.8.6a26.884,26.884,0,0,0-2.946,2.626,28.936,28.936,0,0,0-2.581,2.917c-.453.569-.877,1.161-1.288,1.763-.381-.2-.771-.382-1.171-.555-.542-.263-1.132-.467-1.71-.685a14.84,14.84,0,0,0-1.845-.515l-.059-.012a.123.123,0,0,0-.119.042.126.126,0,0,0,.014.176c1.8,1.52,3.622,3,5.45,4.478a.23.23,0,0,0,.323-.036c1.641-2.008,3.268-4.028,4.859-6.076l2.4-3.058c.809-1.013,1.579-2.058,2.37-3.085a.124.124,0,0,0-.15-.189Z" transform="translate(-3884.574 -1602.741)" fill="#fd8f25"/>
      <path id="Trazado_166414" data-name="Trazado 166414" d="M3939.8,1421.067l-50.85,5.695a3.6,3.6,0,0,1-3.982-3.18h0a3.6,3.6,0,0,1,3.179-3.981l50.851-5.695a3.6,3.6,0,0,1,3.981,3.18h0A3.6,3.6,0,0,1,3939.8,1421.067Z" transform="translate(-3855.419 -1378.276)" fill="#9bcdce"/>
      <g id="Grupo_59741" data-name="Grupo 59741" transform="translate(40.131 118.823)">
        <path id="Trazado_166415" data-name="Trazado 166415" d="M3923.9,1649.068l-11.5,1.288a2.573,2.573,0,0,1-2.84-2.267l-1.288-11.505a2.573,2.573,0,0,1,2.268-2.841l11.5-1.288a2.572,2.572,0,0,1,2.839,2.269l1.289,11.5A2.572,2.572,0,0,1,3923.9,1649.068Zm-13.125-13.179a.412.412,0,0,0-.363.455l1.288,11.5a.411.411,0,0,0,.455.362l11.5-1.288a.411.411,0,0,0,.363-.454l-1.289-11.5a.41.41,0,0,0-.453-.363Z" transform="translate(-3908.251 -1616.19)" fill="#d4e8e8"/>
        <path id="Trazado_166416" data-name="Trazado 166416" d="M3932.207,1633.522l-.055.025a14.518,14.518,0,0,0-1.842,1.018l-.854.563-.8.6a26.816,26.816,0,0,0-2.946,2.626,28.957,28.957,0,0,0-2.581,2.917c-.453.569-.877,1.16-1.287,1.763-.382-.2-.771-.383-1.172-.556-.542-.262-1.131-.467-1.709-.684a14.8,14.8,0,0,0-1.845-.515l-.06-.012a.124.124,0,0,0-.1.217c1.795,1.52,3.622,3,5.449,4.478a.231.231,0,0,0,.323-.036c1.642-2.009,3.268-4.028,4.859-6.076l2.4-3.058c.808-1.013,1.578-2.057,2.37-3.085a.127.127,0,0,0,.015-.127A.125.125,0,0,0,3932.207,1633.522Z" transform="translate(-3912.969 -1616.774)" fill="#fd8f25"/>
        <path id="Trazado_166417" data-name="Trazado 166417" d="M4095.088,1603.919l-118.651,13.287a3.6,3.6,0,0,1-3.981-3.18h0a3.6,3.6,0,0,1,3.18-3.982l118.651-13.288a3.6,3.6,0,0,1,3.981,3.18h0A3.6,3.6,0,0,1,4095.088,1603.919Z" transform="translate(-3943.225 -1596.735)" fill="#d4e8e8"/>
        <path id="Trazado_166418" data-name="Trazado 166418" d="M4097.837,1628.459l-118.651,13.287a3.6,3.6,0,0,1-3.982-3.18h0a3.6,3.6,0,0,1,3.18-3.982l118.651-13.288a3.6,3.6,0,0,1,3.982,3.18h0A3.6,3.6,0,0,1,4097.837,1628.459Z" transform="translate(-3944.721 -1610.107)" fill="#d4e8e8"/>
      </g>
      <g id="Grupo_59742" data-name="Grupo 59742" transform="translate(36.825 89.516)">
        <path id="Trazado_166419" data-name="Trazado 166419" d="M3916.637,1584.671l-11.5,1.288a2.573,2.573,0,0,1-2.84-2.268l-1.288-11.5a2.573,2.573,0,0,1,2.268-2.84l11.5-1.288a2.573,2.573,0,0,1,2.84,2.268l1.288,11.5A2.573,2.573,0,0,1,3916.637,1584.671Zm-13.125-13.179a.411.411,0,0,0-.363.454l1.288,11.505a.411.411,0,0,0,.454.362l11.5-1.288a.411.411,0,0,0,.362-.454l-1.288-11.5a.411.411,0,0,0-.454-.363Z" transform="translate(-3900.988 -1551.793)" fill="#d4e8e8"/>
        <path id="Trazado_166420" data-name="Trazado 166420" d="M4087.826,1539.521l-118.651,13.287a3.6,3.6,0,0,1-3.981-3.18h0a3.6,3.6,0,0,1,3.18-3.982l118.65-13.288a3.6,3.6,0,0,1,3.982,3.18h0A3.6,3.6,0,0,1,4087.826,1539.521Z" transform="translate(-3935.961 -1532.337)" fill="#d4e8e8"/>
        <path id="Trazado_166421" data-name="Trazado 166421" d="M4090.574,1564.062l-118.651,13.287a3.6,3.6,0,0,1-3.981-3.179h0a3.6,3.6,0,0,1,3.18-3.982l118.651-13.288a3.6,3.6,0,0,1,3.981,3.18h0A3.6,3.6,0,0,1,4090.574,1564.062Z" transform="translate(-3937.459 -1545.71)" fill="#d4e8e8"/>
      </g>
      <g id="Grupo_59743" data-name="Grupo 59743" transform="translate(33.52 60.209)">
        <path id="Trazado_166422" data-name="Trazado 166422" d="M3909.374,1520.274l-11.505,1.289a2.573,2.573,0,0,1-2.84-2.268l-1.288-11.505a2.572,2.572,0,0,1,2.268-2.84l11.5-1.288a2.573,2.573,0,0,1,2.84,2.268l1.289,11.505A2.573,2.573,0,0,1,3909.374,1520.274Zm-13.125-13.179a.41.41,0,0,0-.362.454l1.288,11.505a.412.412,0,0,0,.454.362l11.505-1.288a.411.411,0,0,0,.362-.454l-1.288-11.505a.411.411,0,0,0-.454-.363Z" transform="translate(-3893.725 -1487.396)" fill="#d4e8e8"/>
        <path id="Trazado_166423" data-name="Trazado 166423" d="M3917.681,1504.727l-.055.025a14.542,14.542,0,0,0-1.842,1.018l-.853.563-.8.605a26.873,26.873,0,0,0-2.946,2.625,28.98,28.98,0,0,0-2.58,2.917c-.453.569-.877,1.16-1.287,1.763q-.573-.294-1.172-.555c-.542-.262-1.131-.467-1.71-.685a14.878,14.878,0,0,0-1.844-.515l-.06-.012a.124.124,0,0,0-.119.042.126.126,0,0,0,.014.176c1.8,1.52,3.622,3,5.449,4.478a.231.231,0,0,0,.323-.036c1.641-2.008,3.268-4.028,4.859-6.076l2.4-3.058c.809-1.014,1.579-2.058,2.37-3.086a.124.124,0,0,0-.15-.189Z" transform="translate(-3898.442 -1487.979)" fill="#fd8f25"/>
        <path id="Trazado_166424" data-name="Trazado 166424" d="M4080.563,1475.124l-118.651,13.287a3.6,3.6,0,0,1-3.981-3.18h0a3.6,3.6,0,0,1,3.18-3.982l118.651-13.288a3.6,3.6,0,0,1,3.982,3.18h0A3.6,3.6,0,0,1,4080.563,1475.124Z" transform="translate(-3928.698 -1467.94)" fill="#d4e8e8"/>
        <path id="Trazado_166425" data-name="Trazado 166425" d="M4083.311,1499.664l-118.651,13.288a3.6,3.6,0,0,1-3.981-3.18h0a3.6,3.6,0,0,1,3.179-3.982l118.651-13.288a3.6,3.6,0,0,1,3.981,3.18h0A3.6,3.6,0,0,1,4083.311,1499.664Z" transform="translate(-3930.196 -1481.312)" fill="#d4e8e8"/>
      </g>
      <path id="Trazado_166426" data-name="Trazado 166426" d="M4102.3,1668.322l-118.651,13.288a3.6,3.6,0,0,1-3.982-3.18h0a3.6,3.6,0,0,1,3.179-3.981l118.651-13.288a3.6,3.6,0,0,1,3.982,3.179h0A3.6,3.6,0,0,1,4102.3,1668.322Z" transform="translate(-3907.024 -1513.006)" fill="#d4e8e8"/>
      <path id="Trazado_166427" data-name="Trazado 166427" d="M4040.344,1429.832l-147.778,16.549a3.6,3.6,0,0,1-3.981-3.18h0a3.6,3.6,0,0,1,3.18-3.982l147.777-16.549a3.6,3.6,0,0,1,3.982,3.18h0A3.6,3.6,0,0,1,4040.344,1429.832Z" transform="translate(-3857.393 -1383.052)" fill="#d4e8e8"/>
      <path id="Trazado_166428" data-name="Trazado 166428" d="M4105.05,1692.862,3986.4,1706.15a3.6,3.6,0,0,1-3.982-3.18h0a3.6,3.6,0,0,1,3.18-3.982l118.65-13.288a3.6,3.6,0,0,1,3.982,3.18h0A3.6,3.6,0,0,1,4105.05,1692.862Z" transform="translate(-3908.521 -1526.378)" fill="#d4e8e8"/>
      <path id="Trazado_166429" data-name="Trazado 166429" d="M4109.514,1732.725l-118.651,13.287a3.6,3.6,0,0,1-3.981-3.18h0a3.6,3.6,0,0,1,3.18-3.982l118.651-13.287a3.6,3.6,0,0,1,3.981,3.179h0A3.6,3.6,0,0,1,4109.514,1732.725Z" transform="translate(-3910.954 -1548.099)" fill="#d4e8e8"/>
      <path id="Trazado_166430" data-name="Trazado 166430" d="M4112.262,1757.265l-118.651,13.287a3.6,3.6,0,0,1-3.982-3.18h0a3.6,3.6,0,0,1,3.18-3.982L4111.46,1750.1a3.6,3.6,0,0,1,3.982,3.18h0A3.6,3.6,0,0,1,4112.262,1757.265Z" transform="translate(-3912.451 -1561.471)" fill="#d4e8e8"/>
      <path id="Trazado_166431" data-name="Trazado 166431" d="M4116.726,1797.128l-118.651,13.288a3.6,3.6,0,0,1-3.981-3.18h0a3.6,3.6,0,0,1,3.179-3.982l118.651-13.287a3.6,3.6,0,0,1,3.982,3.179h0A3.6,3.6,0,0,1,4116.726,1797.128Z" transform="translate(-3914.884 -1583.193)" fill="#d4e8e8"/>
      <path id="Trazado_166432" data-name="Trazado 166432" d="M4119.474,1821.669l-118.65,13.287a3.6,3.6,0,0,1-3.982-3.18h0a3.6,3.6,0,0,1,3.18-3.982l118.65-13.287a3.6,3.6,0,0,1,3.982,3.18h0A3.6,3.6,0,0,1,4119.474,1821.669Z" transform="translate(-3916.381 -1596.565)" fill="#d4e8e8"/>
    </g>
    <path id="Trazado_166433" data-name="Trazado 166433" d="M3840.316,1657.587l-1.034-5.926a2.906,2.906,0,0,0-4.134-2.114l-5.4,2.626a2.141,2.141,0,0,0-2.3,1.107l-3.43,6.72-39.471,77.179-1.938,3.8a2.122,2.122,0,0,0,.607,2.655l-1.777,3.475-.309-.158a1.4,1.4,0,0,0-1.877.62l-.075.129-1.64,3.232a1.41,1.41,0,0,0,.585,1.865l.366.188a5.7,5.7,0,0,0,10.1,5.18l.358.183a1.418,1.418,0,0,0,1.875-.62l1.738-3.372a1.419,1.419,0,0,0-.62-1.876l-.306-.156,1.781-3.486a2.107,2.107,0,0,0,2.49-1.038l44.861-87.714A2.13,2.13,0,0,0,3840.316,1657.587Z" transform="translate(-0.774 -179.907)" fill="#3d3d3d" opacity="0.2" style="mix-blend-mode: multiply;isolation: isolate"/>
    <g id="Grupo_59745" data-name="Grupo 59745" transform="translate(3775.969 1465.304)">
      <path id="Trazado_166434" data-name="Trazado 166434" d="M3884.541,1640.728l-6.631,3.61,12.494,5.682-1.637-7.37A2.906,2.906,0,0,0,3884.541,1640.728Z" transform="translate(-3831.518 -1640.372)" fill="#472ea6"/>
      <rect id="Rectángulo_34825" data-name="Rectángulo 34825" width="11.455" height="7.919" rx="2.945" transform="translate(13.309 107.129) rotate(-155.546)" fill="#434444"/>
      <path id="Trazado_166435" data-name="Trazado 166435" d="M3786.523,1862.754h0a5.744,5.744,0,0,1,2.843,7.584l-.679,1.494a5.745,5.745,0,0,1-7.585,2.843h0a5.745,5.745,0,0,1-2.842-7.585l.679-1.494A5.744,5.744,0,0,1,3786.523,1862.754Z" transform="translate(-3776.939 -1761.271)" fill="#434444"/>
      <path id="Trazado_166436" data-name="Trazado 166436" d="M3829.74,1647.533l9.7,4.419a2.162,2.162,0,0,1,1.075,2.847l-40.8,89.677a2.137,2.137,0,0,1-2.825,1.063l-9.719-4.405a2.151,2.151,0,0,1-1.055-2.86l1.762-3.888,35.894-78.906,3.118-6.871A2.167,2.167,0,0,1,3829.74,1647.533Z" transform="translate(-3781.39 -1644.172)" fill="#bbabf5"/>
      <path id="Trazado_166437" data-name="Trazado 166437" d="M3826.124,1665.219l5.832,2.643a1.954,1.954,0,0,1,.965,2.615l-34.243,75.326a1.989,1.989,0,0,1-2.637.978l-5.811-2.657Z" transform="translate(-3783.74 -1653.911)" fill="#9f8ce4"/>
      <rect id="Rectángulo_34826" data-name="Rectángulo 34826" width="36.457" height="5.224" rx="2.612" transform="translate(12.491 88.777) rotate(-65.546)" fill="#472ea6"/>
      <rect id="Rectángulo_34827" data-name="Rectángulo 34827" width="2.391" height="5.224" transform="translate(14.223 84.969) rotate(-65.546)" fill="#383838"/>
      <path id="Trazado_166438" data-name="Trazado 166438" d="M3779.494,1860.254l11.058,5.027a1.42,1.42,0,0,1,.705,1.846l-1.581,3.448a1.418,1.418,0,0,1-1.846.705l-11.071-5.049a1.321,1.321,0,0,1-.789-1.2,1.308,1.308,0,0,1,.119-.641l1.49-3.3.069-.132A1.4,1.4,0,0,1,3779.494,1860.254Z" transform="translate(-3775.97 -1760.119)" fill="#bbabf5"/>
      <path id="Trazado_166439" data-name="Trazado 166439" d="M3777.579,1862.242l7.037,3.2a1.242,1.242,0,0,1,.621,1.658l-.7,1.6a1.274,1.274,0,0,1-1.692.612l-6.87-3.119a1.307,1.307,0,0,1,.119-.641Z" transform="translate(-3775.97 -1761.27)" fill="#ad9fe1"/>
    </g>
  </g>
</svg>
