<svg xmlns="http://www.w3.org/2000/svg" xmlns:xlink="http://www.w3.org/1999/xlink" width="295" height="275" viewBox="0 0 295 275">
  <defs>
    <clipPath id="clip-path">
      <rect id="Rectángulo_34703" data-name="Rectángulo 34703" width="295" height="275" transform="translate(664 3202)" fill="#fff" stroke="#707070" stroke-width="1"/>
    </clipPath>
  </defs>
  <g id="Enmascarar_grupo_55" data-name="Enmascarar grupo 55" transform="translate(-664 -3202)" clip-path="url(#clip-path)">
    <g id="Grupo_58062" data-name="Grupo 58062" transform="translate(663.873 3201.839)">
      <g id="Grupo_58023" data-name="Grupo 58023" transform="translate(0)">
        <g id="Grupo_57917" data-name="Grupo 57917" transform="translate(26.319 39.124)">
          <rect id="Rectángulo_34597" data-name="Rectángulo 34597" width="108" height="55.317" transform="translate(0 0)" fill="#ce323d"/>
          <rect id="Rectángulo_34598" data-name="Rectángulo 34598" width="102.213" height="49.53" transform="translate(2.894 2.894)" fill="#e35454"/>
          <g id="Grupo_57890" data-name="Grupo 57890" transform="translate(99.931 4.131)">
            <rect id="Rectángulo_34599" data-name="Rectángulo 34599" width="2.28" height="47.195" fill="#ce323d"/>
            <path id="Trazado_165708" data-name="Trazado 165708" d="M334.976,615.166v.442h-1.61v46.753h-.67v-47.2Z" transform="translate(-332.695 -615.166)" fill="#c02930" style="mix-blend-mode: multiply;isolation: isolate"/>
          </g>
          <g id="Grupo_57891" data-name="Grupo 57891" transform="translate(94.943 4.131)">
            <rect id="Rectángulo_34600" data-name="Rectángulo 34600" width="2.28" height="47.195" fill="#ce323d"/>
            <path id="Trazado_165709" data-name="Trazado 165709" d="M321.639,615.166v.442h-1.61v46.753h-.67v-47.2Z" transform="translate(-319.359 -615.166)" fill="#c02930" style="mix-blend-mode: multiply;isolation: isolate"/>
          </g>
          <g id="Grupo_57892" data-name="Grupo 57892" transform="translate(89.956 4.131)">
            <rect id="Rectángulo_34601" data-name="Rectángulo 34601" width="2.28" height="47.195" fill="#ce323d"/>
            <path id="Trazado_165710" data-name="Trazado 165710" d="M308.3,615.166v.442h-1.61v46.753h-.67v-47.2Z" transform="translate(-306.022 -615.166)" fill="#c02930" style="mix-blend-mode: multiply;isolation: isolate"/>
          </g>
          <g id="Grupo_57893" data-name="Grupo 57893" transform="translate(84.968 4.131)">
            <rect id="Rectángulo_34602" data-name="Rectángulo 34602" width="2.28" height="47.195" fill="#ce323d"/>
            <path id="Trazado_165711" data-name="Trazado 165711" d="M294.967,615.166v.442h-1.61v46.753h-.67v-47.2Z" transform="translate(-292.686 -615.166)" fill="#c02930" style="mix-blend-mode: multiply;isolation: isolate"/>
          </g>
          <g id="Grupo_57894" data-name="Grupo 57894" transform="translate(79.981 4.131)">
            <rect id="Rectángulo_34603" data-name="Rectángulo 34603" width="2.28" height="47.195" fill="#ce323d"/>
            <path id="Trazado_165712" data-name="Trazado 165712" d="M281.63,615.166v.442h-1.61v46.753h-.67v-47.2Z" transform="translate(-279.35 -615.166)" fill="#c02930" style="mix-blend-mode: multiply;isolation: isolate"/>
          </g>
          <g id="Grupo_57895" data-name="Grupo 57895" transform="translate(74.993 4.131)">
            <rect id="Rectángulo_34604" data-name="Rectángulo 34604" width="2.28" height="47.195" fill="#ce323d"/>
            <path id="Trazado_165713" data-name="Trazado 165713" d="M268.294,615.166v.442h-1.61v46.753h-.67v-47.2Z" transform="translate(-266.013 -615.166)" fill="#c02930" style="mix-blend-mode: multiply;isolation: isolate"/>
          </g>
          <g id="Grupo_57896" data-name="Grupo 57896" transform="translate(70.006 4.131)">
            <rect id="Rectángulo_34605" data-name="Rectángulo 34605" width="2.28" height="47.195" fill="#ce323d"/>
            <path id="Trazado_165714" data-name="Trazado 165714" d="M254.958,615.166v.442h-1.61v46.753h-.67v-47.2Z" transform="translate(-252.677 -615.166)" fill="#c02930" style="mix-blend-mode: multiply;isolation: isolate"/>
          </g>
          <g id="Grupo_57897" data-name="Grupo 57897" transform="translate(65.018 4.131)">
            <rect id="Rectángulo_34606" data-name="Rectángulo 34606" width="2.28" height="47.195" fill="#ce323d"/>
            <path id="Trazado_165715" data-name="Trazado 165715" d="M241.621,615.166v.442h-1.61v46.753h-.67v-47.2Z" transform="translate(-239.341 -615.166)" fill="#c02930" style="mix-blend-mode: multiply;isolation: isolate"/>
          </g>
          <g id="Grupo_57898" data-name="Grupo 57898" transform="translate(60.03 4.131)">
            <rect id="Rectángulo_34607" data-name="Rectángulo 34607" width="2.28" height="47.195" fill="#ce323d"/>
            <path id="Trazado_165716" data-name="Trazado 165716" d="M228.285,615.166v.442h-1.61v46.753H226v-47.2Z" transform="translate(-226.004 -615.166)" fill="#c02930" style="mix-blend-mode: multiply;isolation: isolate"/>
          </g>
          <g id="Grupo_57899" data-name="Grupo 57899" transform="translate(55.043 4.131)">
            <rect id="Rectángulo_34608" data-name="Rectángulo 34608" width="2.28" height="47.195" fill="#ce323d"/>
            <path id="Trazado_165717" data-name="Trazado 165717" d="M214.948,615.166v.442h-1.61v46.753h-.67v-47.2Z" transform="translate(-212.668 -615.166)" fill="#c02930" style="mix-blend-mode: multiply;isolation: isolate"/>
          </g>
          <g id="Grupo_57900" data-name="Grupo 57900" transform="translate(50.055 4.131)">
            <rect id="Rectángulo_34609" data-name="Rectángulo 34609" width="2.28" height="47.195" fill="#ce323d"/>
            <path id="Trazado_165718" data-name="Trazado 165718" d="M201.612,615.166v.442H200v46.753h-.67v-47.2Z" transform="translate(-199.332 -615.166)" fill="#c02930" style="mix-blend-mode: multiply;isolation: isolate"/>
          </g>
          <g id="Grupo_57901" data-name="Grupo 57901" transform="translate(45.068 4.131)">
            <rect id="Rectángulo_34610" data-name="Rectángulo 34610" width="2.28" height="47.195" fill="#ce323d"/>
            <path id="Trazado_165719" data-name="Trazado 165719" d="M188.276,615.166v.442h-1.61v46.753H186v-47.2Z" transform="translate(-185.995 -615.166)" fill="#c02930" style="mix-blend-mode: multiply;isolation: isolate"/>
          </g>
          <g id="Grupo_57902" data-name="Grupo 57902" transform="translate(40.08 4.131)">
            <rect id="Rectángulo_34611" data-name="Rectángulo 34611" width="2.28" height="47.195" fill="#ce323d"/>
            <path id="Trazado_165720" data-name="Trazado 165720" d="M174.939,615.166v.442h-1.61v46.753h-.67v-47.2Z" transform="translate(-172.659 -615.166)" fill="#c02930" style="mix-blend-mode: multiply;isolation: isolate"/>
          </g>
          <g id="Grupo_57903" data-name="Grupo 57903" transform="translate(35.093 4.131)">
            <rect id="Rectángulo_34612" data-name="Rectángulo 34612" width="2.28" height="47.195" transform="translate(0)" fill="#ce323d"/>
            <path id="Trazado_165721" data-name="Trazado 165721" d="M161.6,615.166v.442h-1.61v46.753h-.67v-47.2Z" transform="translate(-159.323 -615.166)" fill="#c02930" style="mix-blend-mode: multiply;isolation: isolate"/>
          </g>
          <g id="Grupo_57904" data-name="Grupo 57904" transform="translate(30.105 4.131)">
            <rect id="Rectángulo_34613" data-name="Rectángulo 34613" width="2.28" height="47.195" fill="#ce323d"/>
            <path id="Trazado_165722" data-name="Trazado 165722" d="M148.267,615.166v.442h-1.61v46.753h-.67v-47.2Z" transform="translate(-145.986 -615.166)" fill="#c02930" style="mix-blend-mode: multiply;isolation: isolate"/>
          </g>
          <g id="Grupo_57905" data-name="Grupo 57905" transform="translate(25.118 4.131)">
            <rect id="Rectángulo_34614" data-name="Rectángulo 34614" width="2.28" height="47.195" fill="#ce323d"/>
            <path id="Trazado_165723" data-name="Trazado 165723" d="M134.93,615.166v.442h-1.61v46.753h-.67v-47.2Z" transform="translate(-132.65 -615.166)" fill="#c02930" style="mix-blend-mode: multiply;isolation: isolate"/>
          </g>
          <g id="Grupo_57906" data-name="Grupo 57906" transform="translate(20.13 4.131)">
            <rect id="Rectángulo_34615" data-name="Rectángulo 34615" width="2.28" height="47.195" fill="#ce323d"/>
            <path id="Trazado_165724" data-name="Trazado 165724" d="M121.594,615.166v.442h-1.61v46.753h-.67v-47.2Z" transform="translate(-119.314 -615.166)" fill="#c02930" style="mix-blend-mode: multiply;isolation: isolate"/>
          </g>
          <g id="Grupo_57907" data-name="Grupo 57907" transform="translate(15.143 4.131)">
            <rect id="Rectángulo_34616" data-name="Rectángulo 34616" width="2.28" height="47.195" fill="#ce323d"/>
            <path id="Trazado_165725" data-name="Trazado 165725" d="M108.258,615.166v.442h-1.61v46.753h-.67v-47.2Z" transform="translate(-105.977 -615.166)" fill="#c02930" style="mix-blend-mode: multiply;isolation: isolate"/>
          </g>
          <g id="Grupo_57908" data-name="Grupo 57908" transform="translate(10.155 4.131)">
            <rect id="Rectángulo_34617" data-name="Rectángulo 34617" width="2.28" height="47.195" fill="#ce323d"/>
            <path id="Trazado_165726" data-name="Trazado 165726" d="M94.921,615.166v.442h-1.61v46.753h-.67v-47.2Z" transform="translate(-92.641 -615.166)" fill="#c02930" style="mix-blend-mode: multiply;isolation: isolate"/>
          </g>
          <g id="Grupo_57909" data-name="Grupo 57909" transform="translate(5.168 4.131)">
            <rect id="Rectángulo_34618" data-name="Rectángulo 34618" width="2.28" height="47.195" fill="#ce323d"/>
            <path id="Trazado_165727" data-name="Trazado 165727" d="M81.585,615.166v.442h-1.61v46.753H79.3v-47.2Z" transform="translate(-79.304 -615.166)" fill="#c02930" style="mix-blend-mode: multiply;isolation: isolate"/>
          </g>
          <g id="Grupo_57912" data-name="Grupo 57912" transform="translate(0 0)">
            <g id="Grupo_57910" data-name="Grupo 57910" transform="translate(104.724)">
              <rect id="Rectángulo_34619" data-name="Rectángulo 34619" width="3.276" height="1.589" fill="#a3071a"/>
              <path id="Trazado_165728" data-name="Trazado 165728" d="M348.789,605.253v.454h-3.275v-1.589h.469v1.134Z" transform="translate(-345.513 -604.119)" fill="#a3071a" style="mix-blend-mode: multiply;isolation: isolate"/>
            </g>
            <g id="Grupo_57911" data-name="Grupo 57911">
              <rect id="Rectángulo_34620" data-name="Rectángulo 34620" width="3.264" height="1.589" fill="#a3071a"/>
              <path id="Trazado_165729" data-name="Trazado 165729" d="M68.751,604.119v1.589H65.487v-.454h2.8v-1.134Z" transform="translate(-65.487 -604.119)" fill="#a3071a" style="mix-blend-mode: multiply;isolation: isolate"/>
            </g>
          </g>
          <g id="Grupo_57915" data-name="Grupo 57915" transform="translate(0 53.727)">
            <g id="Grupo_57913" data-name="Grupo 57913" transform="translate(104.724)">
              <rect id="Rectángulo_34621" data-name="Rectángulo 34621" width="3.276" height="1.589" fill="#a3071a"/>
              <path id="Trazado_165730" data-name="Trazado 165730" d="M348.789,748.237v-.454h-3.275v1.589h.469v-1.134Z" transform="translate(-345.513 -747.782)" fill="#a3071a" style="mix-blend-mode: multiply;isolation: isolate"/>
            </g>
            <g id="Grupo_57914" data-name="Grupo 57914">
              <rect id="Rectángulo_34622" data-name="Rectángulo 34622" width="3.264" height="1.589" fill="#a3071a"/>
              <path id="Trazado_165731" data-name="Trazado 165731" d="M68.751,749.371v-1.589H65.487v.454h2.8v1.134Z" transform="translate(-65.487 -747.782)" fill="#a3071a" style="mix-blend-mode: multiply;isolation: isolate"/>
            </g>
          </g>
          <g id="Grupo_57916" data-name="Grupo 57916" transform="translate(9.942 54.026)">
            <rect id="Rectángulo_34623" data-name="Rectángulo 34623" width="9.76" height="1.291" fill="#a3071a" style="mix-blend-mode: multiply;isolation: isolate"/>
            <rect id="Rectángulo_34624" data-name="Rectángulo 34624" width="9.76" height="1.291" transform="translate(13.171)" fill="#a3071a" style="mix-blend-mode: multiply;isolation: isolate"/>
            <rect id="Rectángulo_34625" data-name="Rectángulo 34625" width="9.76" height="1.291" transform="translate(26.342)" fill="#a3071a" style="mix-blend-mode: multiply;isolation: isolate"/>
            <rect id="Rectángulo_34626" data-name="Rectángulo 34626" width="9.76" height="1.291" transform="translate(39.512)" fill="#a3071a" style="mix-blend-mode: multiply;isolation: isolate"/>
            <rect id="Rectángulo_34627" data-name="Rectángulo 34627" width="9.76" height="1.291" transform="translate(52.683)" fill="#a3071a" style="mix-blend-mode: multiply;isolation: isolate"/>
            <rect id="Rectángulo_34628" data-name="Rectángulo 34628" width="9.76" height="1.291" transform="translate(65.854)" fill="#a3071a" style="mix-blend-mode: multiply;isolation: isolate"/>
            <rect id="Rectángulo_34629" data-name="Rectángulo 34629" width="9.76" height="1.291" transform="translate(79.025)" fill="#a3071a" style="mix-blend-mode: multiply;isolation: isolate"/>
          </g>
        </g>
        <g id="Grupo_57957" data-name="Grupo 57957" transform="translate(35.17 121.985)">
          <ellipse id="Elipse_4162" data-name="Elipse 4162" cx="22.119" cy="4.869" rx="22.119" ry="4.869" transform="translate(0 21.771)" fill="#666" style="mix-blend-mode: overlay;isolation: isolate"/>
          <g id="Grupo_57956" data-name="Grupo 57956" transform="translate(0.602 0)">
            <path id="Trazado_165751" data-name="Trazado 165751" d="M156.73,825.683l.076,29.369,17.986-4.382.152-24.8Z" transform="translate(-135.529 -825.683)" fill="#fed351"/>
            <path id="Trazado_165752" data-name="Trazado 165752" d="M109.246,825.963l17.758-.28.076,29.369L109.4,850.764Z" transform="translate(-105.803 -825.683)" fill="#ffc001"/>
            <path id="Trazado_165753" data-name="Trazado 165753" d="M121.25,825.709l-2.488,8.2-18.722-1.024,3.443-6.953Z" transform="translate(-100.039 -825.699)" fill="#e9ac02"/>
            <path id="Trazado_165754" data-name="Trazado 165754" d="M156.7,825.81l2.488,8.2,18.723-1.025-2.988-7.067Z" transform="translate(-135.512 -825.763)" fill="#ffc001"/>
          </g>
        </g>
        <g id="Grupo_57962" data-name="Grupo 57962" transform="translate(12.985 81.901)">
          <path id="Trazado_165755" data-name="Trazado 165755" d="M124.2,787.529c0,1.028-8.881,1.861-19.837,1.861s-19.837-.833-19.837-1.861,8.881-1.861,19.837-1.861S124.2,786.5,124.2,787.529Z" transform="translate(-84.531 -760.549)" fill="#666" style="mix-blend-mode: overlay;isolation: isolate"/>
          <g id="Grupo_57961" data-name="Grupo 57961" transform="translate(2.649 0)">
            <g id="Grupo_57958" data-name="Grupo 57958" transform="translate(0 13.297)">
              <rect id="Rectángulo_34659" data-name="Rectángulo 34659" width="16.653" height="13.302" fill="#fbb03b"/>
              <rect id="Rectángulo_34660" data-name="Rectángulo 34660" width="2.113" height="4.593" transform="translate(7.233)" fill="#666" style="mix-blend-mode: screen;isolation: isolate"/>
            </g>
            <g id="Grupo_57959" data-name="Grupo 57959" transform="translate(17.412 13.297)">
              <rect id="Rectángulo_34661" data-name="Rectángulo 34661" width="16.653" height="13.302" fill="#fbb03b"/>
              <rect id="Rectángulo_34662" data-name="Rectángulo 34662" width="2.113" height="4.593" transform="translate(7.233)" fill="#666" style="mix-blend-mode: screen;isolation: isolate"/>
            </g>
            <g id="Grupo_57960" data-name="Grupo 57960" transform="translate(11.223)">
              <rect id="Rectángulo_34663" data-name="Rectángulo 34663" width="16.653" height="13.302" fill="#fbb03b"/>
              <rect id="Rectángulo_34664" data-name="Rectángulo 34664" width="2.113" height="4.593" transform="translate(7.233)" fill="#666" style="mix-blend-mode: screen;isolation: isolate"/>
            </g>
          </g>
        </g>
        <g id="Grupo_57973" data-name="Grupo 57973" transform="translate(113.862 80.053)">
          <ellipse id="Elipse_4163" data-name="Elipse 4163" cx="28.889" cy="2.256" rx="28.889" ry="2.256" transform="translate(0 26.689)" fill="#666" style="mix-blend-mode: overlay;isolation: isolate"/>
          <g id="Grupo_57972" data-name="Grupo 57972" transform="translate(5.021)">
            <g id="Grupo_57963" data-name="Grupo 57963" transform="translate(0 19)">
              <rect id="Rectángulo_34665" data-name="Rectángulo 34665" width="11.871" height="9.482" fill="#fbb03b"/>
              <rect id="Rectángulo_34666" data-name="Rectángulo 34666" width="1.507" height="3.274" transform="translate(5.156)" fill="#666" style="mix-blend-mode: screen;isolation: isolate"/>
            </g>
            <g id="Grupo_57964" data-name="Grupo 57964" transform="translate(12.412 19)">
              <rect id="Rectángulo_34667" data-name="Rectángulo 34667" width="11.871" height="9.482" fill="#fbb03b"/>
              <rect id="Rectángulo_34668" data-name="Rectángulo 34668" width="1.506" height="3.274" transform="translate(5.156)" fill="#666" style="mix-blend-mode: screen;isolation: isolate"/>
            </g>
            <g id="Grupo_57965" data-name="Grupo 57965" transform="translate(8 9.522)">
              <rect id="Rectángulo_34669" data-name="Rectángulo 34669" width="11.871" height="9.482" fill="#fbb03b"/>
              <rect id="Rectángulo_34670" data-name="Rectángulo 34670" width="1.506" height="3.274" transform="translate(5.156)" fill="#666" style="mix-blend-mode: screen;isolation: isolate"/>
            </g>
            <g id="Grupo_57966" data-name="Grupo 57966" transform="translate(21.124 9.522)">
              <rect id="Rectángulo_34671" data-name="Rectángulo 34671" width="11.871" height="9.482" fill="#fbb03b"/>
              <rect id="Rectángulo_34672" data-name="Rectángulo 34672" width="1.507" height="3.274" transform="translate(5.156)" fill="#666" style="mix-blend-mode: screen;isolation: isolate"/>
            </g>
            <g id="Grupo_57967" data-name="Grupo 57967" transform="translate(34.42 9.522)">
              <rect id="Rectángulo_34673" data-name="Rectángulo 34673" width="11.871" height="9.482" fill="#fbb03b"/>
              <rect id="Rectángulo_34674" data-name="Rectángulo 34674" width="1.506" height="3.274" transform="translate(5.156)" fill="#666" style="mix-blend-mode: screen;isolation: isolate"/>
            </g>
            <g id="Grupo_57968" data-name="Grupo 57968" transform="translate(27.729)">
              <rect id="Rectángulo_34675" data-name="Rectángulo 34675" width="11.871" height="9.482" fill="#fbb03b"/>
              <rect id="Rectángulo_34676" data-name="Rectángulo 34676" width="1.506" height="3.274" transform="translate(5.156)" fill="#666" style="mix-blend-mode: screen;isolation: isolate"/>
            </g>
            <g id="Grupo_57969" data-name="Grupo 57969" transform="translate(14.09)">
              <rect id="Rectángulo_34677" data-name="Rectángulo 34677" width="11.871" height="9.482" fill="#fbb03b"/>
              <rect id="Rectángulo_34678" data-name="Rectángulo 34678" width="1.506" height="3.274" transform="translate(5.156)" fill="#666" style="mix-blend-mode: screen;isolation: isolate"/>
            </g>
            <g id="Grupo_57970" data-name="Grupo 57970" transform="translate(24.254 19.043)">
              <rect id="Rectángulo_34679" data-name="Rectángulo 34679" width="11.871" height="9.482" fill="#fbb03b"/>
              <rect id="Rectángulo_34680" data-name="Rectángulo 34680" width="1.507" height="3.274" transform="translate(5.156)" fill="#666" style="mix-blend-mode: screen;isolation: isolate"/>
            </g>
            <g id="Grupo_57971" data-name="Grupo 57971" transform="translate(36.666 19.043)">
              <rect id="Rectángulo_34681" data-name="Rectángulo 34681" width="11.871" height="9.482" fill="#fbb03b"/>
              <rect id="Rectángulo_34682" data-name="Rectángulo 34682" width="1.506" height="3.274" transform="translate(5.156)" fill="#666" style="mix-blend-mode: screen;isolation: isolate"/>
            </g>
          </g>
        </g>
        <g id="Grupo_57984" data-name="Grupo 57984" transform="translate(216.701 80.053)">
          <ellipse id="Elipse_4164" data-name="Elipse 4164" cx="28.889" cy="2.256" rx="28.889" ry="2.256" transform="translate(0 26.689)" fill="#666" style="mix-blend-mode: overlay;isolation: isolate"/>
          <g id="Grupo_57983" data-name="Grupo 57983" transform="translate(5.021)">
            <g id="Grupo_57974" data-name="Grupo 57974" transform="translate(0 19)">
              <rect id="Rectángulo_34683" data-name="Rectángulo 34683" width="11.871" height="9.482" fill="#fbb03b"/>
              <rect id="Rectángulo_34684" data-name="Rectángulo 34684" width="1.507" height="3.274" transform="translate(5.156)" fill="#666" style="mix-blend-mode: screen;isolation: isolate"/>
            </g>
            <g id="Grupo_57975" data-name="Grupo 57975" transform="translate(12.412 19)">
              <rect id="Rectángulo_34685" data-name="Rectángulo 34685" width="11.871" height="9.482" fill="#fbb03b"/>
              <rect id="Rectángulo_34686" data-name="Rectángulo 34686" width="1.507" height="3.274" transform="translate(5.156)" fill="#666" style="mix-blend-mode: screen;isolation: isolate"/>
            </g>
            <g id="Grupo_57976" data-name="Grupo 57976" transform="translate(8 9.522)">
              <rect id="Rectángulo_34687" data-name="Rectángulo 34687" width="11.871" height="9.482" fill="#fbb03b"/>
              <rect id="Rectángulo_34688" data-name="Rectángulo 34688" width="1.506" height="3.274" transform="translate(5.156)" fill="#666" style="mix-blend-mode: screen;isolation: isolate"/>
            </g>
            <g id="Grupo_57977" data-name="Grupo 57977" transform="translate(21.124 9.522)">
              <rect id="Rectángulo_34689" data-name="Rectángulo 34689" width="11.871" height="9.482" fill="#fbb03b"/>
              <rect id="Rectángulo_34690" data-name="Rectángulo 34690" width="1.506" height="3.274" transform="translate(5.156)" fill="#666" style="mix-blend-mode: screen;isolation: isolate"/>
            </g>
            <g id="Grupo_57978" data-name="Grupo 57978" transform="translate(34.42 9.522)">
              <rect id="Rectángulo_34691" data-name="Rectángulo 34691" width="11.871" height="9.482" fill="#fbb03b"/>
              <rect id="Rectángulo_34692" data-name="Rectángulo 34692" width="1.507" height="3.274" transform="translate(5.156)" fill="#666" style="mix-blend-mode: screen;isolation: isolate"/>
            </g>
            <g id="Grupo_57979" data-name="Grupo 57979" transform="translate(27.729)">
              <rect id="Rectángulo_34693" data-name="Rectángulo 34693" width="11.871" height="9.482" fill="#fbb03b"/>
              <rect id="Rectángulo_34694" data-name="Rectángulo 34694" width="1.506" height="3.274" transform="translate(5.156)" fill="#666" style="mix-blend-mode: screen;isolation: isolate"/>
            </g>
            <g id="Grupo_57980" data-name="Grupo 57980" transform="translate(14.09)">
              <rect id="Rectángulo_34695" data-name="Rectángulo 34695" width="11.871" height="9.482" fill="#fbb03b"/>
              <rect id="Rectángulo_34696" data-name="Rectángulo 34696" width="1.507" height="3.274" transform="translate(5.156)" fill="#666" style="mix-blend-mode: screen;isolation: isolate"/>
            </g>
            <g id="Grupo_57981" data-name="Grupo 57981" transform="translate(24.254 19.043)">
              <rect id="Rectángulo_34697" data-name="Rectángulo 34697" width="11.871" height="9.482" fill="#fbb03b"/>
              <rect id="Rectángulo_34698" data-name="Rectángulo 34698" width="1.507" height="3.274" transform="translate(5.156)" fill="#666" style="mix-blend-mode: screen;isolation: isolate"/>
            </g>
            <g id="Grupo_57982" data-name="Grupo 57982" transform="translate(36.666 19.043)">
              <rect id="Rectángulo_34699" data-name="Rectángulo 34699" width="11.871" height="9.482" fill="#fbb03b"/>
              <rect id="Rectángulo_34700" data-name="Rectángulo 34700" width="1.507" height="3.274" transform="translate(5.156)" fill="#666" style="mix-blend-mode: screen;isolation: isolate"/>
            </g>
          </g>
        </g>
        <g id="Grupo_57987" data-name="Grupo 57987" transform="translate(57.289 66.782)">
          <path id="Trazado_165756" data-name="Trazado 165756" d="M228.259,667.539a3.356,3.356,0,0,0,.925-2.081,2.807,2.807,0,0,1-1.615-.212c-.721-.386-2.195-1.108-2.83.429a1.091,1.091,0,0,0-.883.606c-.424.676-.708,2.264,1.438,3.311Z" transform="translate(-216.569 -664.735)" fill="#333"/>
          <path id="Trazado_165757" data-name="Trazado 165757" d="M239.459,691.336a16.6,16.6,0,0,0,4.069,2.2,4.973,4.973,0,0,0,1.25.246c2.486.119,7.189-3.9,7.189-3.9,1.485.284,2.882-.692,2.88-1.751,0-.622-1.7.654-2.35.4,0,0,.156-1.143-.33-1.25-.278-.061-.683.7-.877,1.537a36.072,36.072,0,0,0-6.214,1.713c-.136-.1-.332-.229-.573-.376-.961-.6-2.561-1.508-3.325-2.02Z" transform="translate(-227.064 -679.617)" fill="#fdc5ae"/>
          <path id="Trazado_165758" data-name="Trazado 165758" d="M239.459,692.462a8.915,8.915,0,0,0,3.546,2.574l1.574-3.853c-.961-.6-2.721-1.684-3.484-2.2Z" transform="translate(-227.064 -680.742)" fill="#2d60a1"/>
          <path id="Trazado_165759" data-name="Trazado 165759" d="M227.755,692.892c.018,1.769-.419,7.064-.419,7.064h-6.07s-2.534-7.7-2.191-10.319a4.935,4.935,0,0,1,3.238-3.391l2.276.013a5.058,5.058,0,0,1,3.416,1.569S227.739,691.336,227.755,692.892Z" transform="translate(-213.589 -678.934)" fill="#3e3279"/>
          <path id="Trazado_165760" data-name="Trazado 165760" d="M227.755,692.892c.018,1.769-.419,7.064-.419,7.064h-6.07s-2.534-7.7-2.191-10.319a4.935,4.935,0,0,1,3.238-3.391l2.276.013a5.058,5.058,0,0,1,3.416,1.569S227.739,691.336,227.755,692.892Z" transform="translate(-213.589 -678.934)" fill="#3e3279"/>
          <path id="Trazado_165761" data-name="Trazado 165761" d="M228.664,681.929c.816.816,1.586.973,2.275.015l-.194-1.574-.081-.663h-1.806l-.035.411Z" transform="translate(-219.939 -674.617)" fill="#fdc5ae"/>
          <g id="Grupo_57985" data-name="Grupo 57985" transform="translate(0 20.966)">
            <path id="Trazado_165762" data-name="Trazado 165762" d="M231.156,740.889a21.575,21.575,0,0,0-.171,3.4,37.257,37.257,0,0,0,1.546,9.048l-.417,2.04H238.6l-4.764-2.356s.923-7.065,1.323-10.668c.1-.915.171-1.728.18-2.336.061-3.47-3.264-12.812-3.479-13.417l-.009-.023,0-.008h-5.441C224.517,733.715,228.117,734.942,231.156,740.889Z" transform="translate(-218.104 -726.517)" fill="#fdc5ae"/>
            <path id="Trazado_165763" data-name="Trazado 165763" d="M227.864,735.7a45.87,45.87,0,0,1,3.291,5.192c-.142,1.141-.319,2.33-.521,3.716h4.706c.1-.915-.009-3.977,0-4.585.061-3.47-3.264-12.812-3.479-13.417l-.009-.023,0-.008h-5.441C225.213,731.078,226.206,733.229,227.864,735.7Z" transform="translate(-218.102 -726.517)" fill="#333"/>
            <path id="Trazado_165764" data-name="Trazado 165764" d="M231.56,748.233a45.852,45.852,0,0,1,3.291,5.192c-.142,1.14-.319,2.33-.521,3.716h.868c-.038-1.338.824-3.667,1.224-3.653-.358-.037-4.4-5.806-4.94-7.924Z" transform="translate(-221.799 -739.053)" fill="#ccc" style="mix-blend-mode: multiply;isolation: isolate"/>
            <path id="Trazado_165765" data-name="Trazado 165765" d="M209.352,754.867l-3.283-3.805s2.411-3.765,4.361-6.269a19.056,19.056,0,0,1,1.273-1.511c2.671-2.767,4.066-16.71,4.066-16.71h-4.417c-3.462,3.183-2.59,7.565-2.692,11.894a8.17,8.17,0,0,1-1.328,4.211c-.164.254-.317.512-.462.776a22.352,22.352,0,0,0-2.162,7.556l-.684,2.3Z" transform="translate(-203.676 -726.517)" fill="#fdc5ae"/>
            <path id="Trazado_165766" data-name="Trazado 165766" d="M211.74,743.271l1.276.584,2.593,1.187c.463-.6.813-1.479,1.187-1.867,2.671-2.767,4.4-16.766,4.4-16.766l-4.558.052-.188,0c-3.346,3.076-2.644,7.273-2.685,11.46a7.874,7.874,0,0,1-1.611,4.73A4.754,4.754,0,0,0,211.74,743.271Z" transform="translate(-208.768 -726.41)" fill="#333"/>
            <path id="Trazado_165767" data-name="Trazado 165767" d="M211.74,743.372l1.276.584a19.366,19.366,0,0,0,1.365-2.711c.868-2.2.335-5.183.543-9.379a5.961,5.961,0,0,1,2.767-4.594l-1.056-.709-.188,0c-3.346,3.076-2.644,7.273-2.685,11.46a7.874,7.874,0,0,1-1.611,4.73A4.75,4.75,0,0,0,211.74,743.372Z" transform="translate(-208.768 -726.511)" fill="#ccc" style="mix-blend-mode: multiply;isolation: isolate"/>
            <path id="Trazado_165768" data-name="Trazado 165768" d="M245.859,804.387c2.088.719,4.557.5,4.764,2.356h-6.488a4.651,4.651,0,0,1,.311-2.356Z" transform="translate(-230.124 -777.879)" fill="#333"/>
            <path id="Trazado_165769" data-name="Trazado 165769" d="M205.39,798.015c1.65,1.467,4.118,2.5,3.6,4.292l-5.988-2a6.427,6.427,0,0,1,1.073-2.6Z" transform="translate(-202.997 -773.471)" fill="#333"/>
          </g>
          <path id="Trazado_165770" data-name="Trazado 165770" d="M229.057,680.41a2.079,2.079,0,0,0,2.009.462l-.143-1.166h-1.806Z" transform="translate(-220.198 -674.617)" fill="#ccc" style="mix-blend-mode: multiply;isolation: isolate"/>
          <path id="Trazado_165771" data-name="Trazado 165771" d="M229.379,671.215c-.037.988-.255,2.029-.859,2.317-1.543.737-2.37-.984-2.622-1.784-.306,0-1.065-.7-.728-1.217.288-.441.787.1.787.1a1.346,1.346,0,0,1,1.115-1.183c.9-.109,1.036.061,1.844-.1a.3.3,0,0,1,.358.229A7.8,7.8,0,0,1,229.379,671.215Z" transform="translate(-217.577 -667.775)" fill="#fdc5ae"/>
          <path id="Trazado_165772" data-name="Trazado 165772" d="M218.853,690.953a88.02,88.02,0,0,0,.989,9.348.893.893,0,0,0,.375.6.878.878,0,0,0,.372.148,24.733,24.733,0,0,0,3.674.284,18.437,18.437,0,0,0,3.145-.257.9.9,0,0,0,.747-.787c.142-1.314.445-4.385.512-7.189a20.365,20.365,0,0,0-.25-4.492c-.381-1.626-2.209-2.353-3.974-2.353l-2.285-.015a4.185,4.185,0,0,0-3.253,3.392A9.3,9.3,0,0,0,218.853,690.953Z" transform="translate(-213.461 -678.932)" fill="#326ab3"/>
          <path id="Trazado_165773" data-name="Trazado 165773" d="M234.828,714.654a18.281,18.281,0,0,0,3.131-.257.9.9,0,0,0,.744-.787c.142-1.314.443-4.385.51-7.189C236.538,708.632,237.787,712.743,234.828,714.654Z" transform="translate(-224.007 -692.25)" fill="#ccc" style="mix-blend-mode: multiply;isolation: isolate"/>
          <g id="Grupo_57986" data-name="Grupo 57986" transform="translate(16.522 7.604)">
            <rect id="Rectángulo_34701" data-name="Rectángulo 34701" width="13.959" height="11.15" fill="#fbb03b"/>
            <rect id="Rectángulo_34702" data-name="Rectángulo 34702" width="1.772" height="3.85" transform="translate(6.063)" fill="#666" style="mix-blend-mode: screen;isolation: isolate"/>
          </g>
          <path id="Trazado_165774" data-name="Trazado 165774" d="M225.063,698.148A23.118,23.118,0,0,0,228,701.734a4.908,4.908,0,0,0,1,.732c2.185,1.12,7.638.807,7.638.807,1.016,1.406,3.745,1.444,4.228.865.857-1.036-2.119-.749-2.307-1.447,0,0,1.325-.541,1.03-1.077s-2.619.55-2.619.55a21.05,21.05,0,0,0-6.344-2.274c-.142-.255-.284-.51-.431-.761a13.822,13.822,0,0,0-4.228-4.72A3.743,3.743,0,0,0,225.063,698.148Z" transform="translate(-217.461 -684.322)" fill="#fdc5ae"/>
          <path id="Trazado_165775" data-name="Trazado 165775" d="M227.081,701.49l3.062-2.74c-1.071-1.809-3.07-5.735-4.911-4.462C222.781,695.983,225.642,700.173,227.081,701.49Z" transform="translate(-217.041 -684.077)" fill="#2d60a1"/>
        </g>
        <ellipse id="Elipse_4165" data-name="Elipse 4165" cx="40.355" cy="5.631" rx="40.355" ry="5.631" transform="translate(93.401 123.585)" fill="#666" style="mix-blend-mode: overlay;isolation: isolate"/>
        <ellipse id="Elipse_4166" data-name="Elipse 4166" cx="15.963" cy="4.104" rx="15.963" ry="4.104" transform="translate(53.232 111.532)" fill="#666" style="mix-blend-mode: overlay;isolation: isolate"/>
        <g id="Grupo_58019" data-name="Grupo 58019" transform="translate(98.757 70.747)">
          <g id="Grupo_57991" data-name="Grupo 57991" transform="translate(0 53.848)">
            <g id="Grupo_57988" data-name="Grupo 57988">
              <path id="Trazado_165776" data-name="Trazado 165776" d="M366.189,863.968c0-.854-.411-1.548-.919-1.555h-.706c-.5.022-.9.709-.9,1.555s.411,1.547.919,1.555h.706C365.786,865.5,366.189,864.814,366.189,863.968Z" transform="translate(-363.661 -862.413)"/>
            </g>
            <g id="Grupo_57989" data-name="Grupo 57989" transform="translate(0.854 0.197)">
              <path id="Trazado_165777" data-name="Trazado 165777" d="M367.8,864.416c0,.75-.3,1.358-.673,1.358s-.673-.608-.673-1.358.3-1.358.673-1.358S367.8,863.666,367.8,864.416Z" transform="translate(-366.452 -863.058)" fill="#666"/>
            </g>
            <g id="Grupo_57990" data-name="Grupo 57990" transform="translate(1.387 1.172)">
              <path id="Trazado_165778" data-name="Trazado 165778" d="M368.578,866.629c0,.212-.085.383-.19.383s-.19-.171-.19-.383.085-.383.19-.383S368.578,866.418,368.578,866.629Z" transform="translate(-368.198 -866.246)"/>
            </g>
          </g>
          <g id="Grupo_57995" data-name="Grupo 57995" transform="translate(10.027 57.231)">
            <g id="Grupo_57992" data-name="Grupo 57992">
              <path id="Trazado_165779" data-name="Trazado 165779" d="M398.977,875.029c0-.854-.411-1.548-.919-1.555h-.706c-.5.022-.9.709-.9,1.555s.411,1.548.919,1.555h.706C398.574,876.562,398.977,875.875,398.977,875.029Z" transform="translate(-396.449 -873.474)"/>
            </g>
            <g id="Grupo_57993" data-name="Grupo 57993" transform="translate(0.854 0.197)">
              <path id="Trazado_165780" data-name="Trazado 165780" d="M400.587,875.477c0,.75-.3,1.358-.673,1.358s-.673-.608-.673-1.358.3-1.358.673-1.358S400.587,874.727,400.587,875.477Z" transform="translate(-399.24 -874.119)" fill="#666"/>
            </g>
            <g id="Grupo_57994" data-name="Grupo 57994" transform="translate(1.387 1.172)">
              <path id="Trazado_165781" data-name="Trazado 165781" d="M401.366,877.69c0,.212-.085.383-.19.383s-.19-.171-.19-.383.085-.383.19-.383S401.366,877.479,401.366,877.69Z" transform="translate(-400.986 -877.307)"/>
            </g>
          </g>
          <g id="Grupo_57999" data-name="Grupo 57999" transform="translate(33.585 53.184)">
            <g id="Grupo_57996" data-name="Grupo 57996">
              <path id="Trazado_165782" data-name="Trazado 165782" d="M476.009,861.8c0-.854-.411-1.548-.919-1.555h-.706c-.5.022-.9.709-.9,1.555s.411,1.548.919,1.555h.706C475.607,863.328,476.009,862.641,476.009,861.8Z" transform="translate(-473.481 -860.24)"/>
            </g>
            <g id="Grupo_57997" data-name="Grupo 57997" transform="translate(0.854 0.197)">
              <path id="Trazado_165783" data-name="Trazado 165783" d="M477.62,862.243c0,.75-.3,1.358-.673,1.358s-.673-.608-.673-1.358.3-1.358.673-1.358S477.62,861.493,477.62,862.243Z" transform="translate(-476.273 -860.885)" fill="#666"/>
            </g>
            <g id="Grupo_57998" data-name="Grupo 57998" transform="translate(1.388 1.173)">
              <path id="Trazado_165784" data-name="Trazado 165784" d="M478.4,864.457c0,.212-.085.383-.19.383s-.19-.172-.19-.383.085-.383.19-.383S478.4,864.245,478.4,864.457Z" transform="translate(-478.019 -864.074)"/>
            </g>
          </g>
          <path id="Trazado_165785" data-name="Trazado 165785" d="M364.131,850.411l27.688-4.14,11.345,2.743-27.66,5.441Z" transform="translate(-363.987 -797.359)" fill="#d9ab7c"/>
          <path id="Trazado_165786" data-name="Trazado 165786" d="M364.131,859.809l.019,1.367,11.326,4.137.028-1.46Z" transform="translate(-363.988 -806.757)" fill="#333"/>
          <path id="Trazado_165787" data-name="Trazado 165787" d="M401.121,860.681l27.72-5.442V856.4l-27.689,5.741Z" transform="translate(-389.665 -803.585)" fill="#333"/>
          <path id="Trazado_165788" data-name="Trazado 165788" d="M468.769,768.879l-11.247-1.354v-.02s-.812.227-1.077.309a5.917,5.917,0,0,0-1.762.906l-.571,6.19-.635,16.74.771.038.055-1.514,10.183,2.715-.066,1.807.771.038.672-18.516h0c.081-2.283.2-5.406.984-5.72a6.657,6.657,0,0,1,.749-.237c.157-.039.29-.065.384-.082l.584-.091v-.061l.071.008Zm-4.255,23.231-10.189-2.538.5-13.911,10.233,1.32ZM465.7,770.1l-.557,6.036-10.3-1.149c.081-2.294.188-5.554.99-5.875a6.643,6.643,0,0,1,.749-.236c.157-.039.29-.065.384-.082l.583-.091v0l8.691,1.046C466.064,769.851,465.885,769.968,465.7,770.1Z" transform="translate(-426.01 -742.681)" fill="#333"/>
          <g id="Grupo_58000" data-name="Grupo 58000" transform="translate(0.144 48.969)" style="mix-blend-mode: screen;isolation: isolate">
            <path id="Trazado_165789" data-name="Trazado 165789" d="M364.131,850.542l27.324-4.083.771.038,1.248.288a28.223,28.223,0,0,1-15.2,6.175,27.869,27.869,0,0,1-12.519-1.832Z" transform="translate(-364.131 -846.459)" fill="#333"/>
          </g>
          <g id="Grupo_58001" data-name="Grupo 58001" transform="translate(46.717 0)">
            <path id="Trazado_165790" data-name="Trazado 165790" d="M516.833,687.75a1.758,1.758,0,0,0,.271-.347c.054-.13.014-.226.073-.352a1.269,1.269,0,0,1,.986-.585c.939-.2,1.178.284,1.891.016a.981.981,0,0,1,.68-.121c.195.065.245.2.382.331.512.489,1.306-.083,1.785.419a1.514,1.514,0,0,1,.379.757c.063.305-.075.442.018.785.194.716,1.031,1.154.414,2.008a3.447,3.447,0,0,1-2.595,1.529c-1.346.122-2.609-1.118-3.5-2.074a1.554,1.554,0,0,1-1.13-.951A1.466,1.466,0,0,1,516.833,687.75Z" transform="translate(-516.422 -686.333)" fill="#333"/>
          </g>
          <g id="Grupo_58002" data-name="Grupo 58002" transform="translate(35.76 19.702)">
            <path id="Trazado_165791" data-name="Trazado 165791" d="M489.585,753.131q-.657-1.186-1.317-2.373c-1.139.692-2.264,1.431-3.363,2.171a4.349,4.349,0,0,0-4.1,1.17c-1.013,1.06,1.9.924,2.718,1.021-.249.564-.3,1.352.469,1.03a3.539,3.539,0,0,0,1.628-1.667C486.923,753.987,488.253,753.556,489.585,753.131Z" transform="translate(-480.593 -750.758)" fill="#fdc5ae"/>
          </g>
          <g id="Grupo_58003" data-name="Grupo 58003" transform="translate(43.31 8.034)">
            <path id="Trazado_165792" data-name="Trazado 165792" d="M505.282,724.094c.408.935.792,1.857,1.215,2.8,1.98-.795,4.358-1.347,5.971-2.833a32.648,32.648,0,0,0,5.264-6.13c1.978-3.3-1.5-5.827-4.437-5.243-2.368,2.622-1.812,5.892-3.271,8.908A30.8,30.8,0,0,0,505.282,724.094Z" transform="translate(-505.282 -712.604)" fill="#56a585"/>
          </g>
          <g id="Grupo_58004" data-name="Grupo 58004" transform="translate(46.135 25.406)">
            <path id="Trazado_165793" data-name="Trazado 165793" d="M516,788.7a104.836,104.836,0,0,0,4.972,11.507c-1.9,1.24-3.832,2.482-5.747,3.714,2.7.07,5.418.015,8.116.163-.125-2.027-.429-1.661-.513-4.251s-.235-8.014-1.017-11.1a22.35,22.35,0,0,0-2.076-5.595c5.347-2.625,8.211-6.4,8.795-12.692.029-.313-.034-.716-.032-1.039-2.312.151-4.593.311-6.919.442-2.795,3.757-6.133,7.6-6.992,12.488C514.238,784.324,515.35,786.827,516,788.7Z" transform="translate(-514.521 -769.409)" fill="#fdc5ae"/>
          </g>
          <g id="Grupo_58005" data-name="Grupo 58005" transform="translate(46.139 25.408)">
            <path id="Trazado_165794" data-name="Trazado 165794" d="M516.444,789.937c1-.178,2.272-.519,3.169-.725s1.385-.329,2.205-.519a22.453,22.453,0,0,0-2.075-5.539,15.482,15.482,0,0,0,6.206-4.767,14.032,14.032,0,0,0,2.589-7.931c.01-.3-.02-.734-.034-1.042-2.309.143-4.594.321-6.917.432-2.815,3.88-6.108,7.437-7,12.569C514.225,784.5,515.705,787.868,516.444,789.937Z" transform="translate(-514.531 -769.414)" fill="#4f5b5e"/>
          </g>
          <g id="Grupo_58006" data-name="Grupo 58006" transform="translate(49.182 30.811)">
            <path id="Trazado_165795" data-name="Trazado 165795" d="M524.609,795.067a13.423,13.423,0,0,1,1.953,6.4c.721-.171,1.438-.338,2.157-.509a22.39,22.39,0,0,0-2.066-5.552c2.525-.995,4.836-2.116,6.193-4.692a.037.037,0,0,0,0-.026c-.682-1.188-1.313-2.4-1.969-3.609a12.347,12.347,0,0,1-6.041,6.955A.7.7,0,0,0,524.609,795.067Z" transform="translate(-524.482 -787.082)" fill="#3a4345"/>
          </g>
          <g id="Grupo_58007" data-name="Grupo 58007" transform="translate(55.198 25.321)">
            <path id="Trazado_165796" data-name="Trazado 165796" d="M547.879,789.579c1.127,1.62,2.218,1.685,3.279,2.326,2.955,1.786,5.7,2.459,8.7,3.791.356-.578.727-1.1,1.093-1.658a39.345,39.345,0,0,0-6.6-6.57,32.082,32.082,0,0,0-2.766-1.777c.51-5.89.634-10.926-1.369-16.558-1,.061-2.22.159-3.169.221s-1.627.112-2.524.152a3.1,3.1,0,0,0-.264,1.047C543.832,776.38,544.674,784.968,547.879,789.579Z" transform="translate(-544.156 -769.131)" fill="#fdc5ae"/>
          </g>
          <g id="Grupo_58008" data-name="Grupo 58008" transform="translate(54.721 25.321)">
            <path id="Trazado_165797" data-name="Trazado 165797" d="M546.8,789.606c1.2,1.773,2.049,1.232,3.324,2.418.606-.979,1.651-2.429,2.18-3.193s.546-.762.978-1.381c-.917-.614-1.831-1.215-2.785-1.762.519-5.892.627-10.926-1.36-16.56-.6.038-1.13.079-1.74.118s-.759.066-1.536.109-2.292.063-3.2.138C542.3,775.837,543.4,784.561,546.8,789.606Z" transform="translate(-542.596 -769.129)" fill="#4f5b5e"/>
          </g>
          <g id="Grupo_58009" data-name="Grupo 58009" transform="translate(59.048 25.321)">
            <path id="Trazado_165798" data-name="Trazado 165798" d="M559.034,779.517a39.732,39.732,0,0,1-.342,7.222c1.154.655,2.32,1.361,3.49,2.014q.459-.643.916-1.29c-.9-.643-1.828-1.22-2.776-1.775.517-5.891.629-10.925-1.362-16.559-.579.038-1.158.08-1.737.118-.158.089-.324.159-.478.258A27.766,27.766,0,0,1,559.034,779.517Z" transform="translate(-556.744 -769.129)" fill="#3a4345"/>
          </g>
          <g id="Grupo_58010" data-name="Grupo 58010" transform="translate(49.094 6.853)">
            <path id="Trazado_165799" data-name="Trazado 165799" d="M524.214,714.844c-.273,4.621,2.405,8.049,2.746,12.612a.963.963,0,0,0,.706.717,14.861,14.861,0,0,0,5.835.307,12.041,12.041,0,0,0,2.967-.78c.47-.209.81-.4.667-1.188-.444-2.446-1.2-5.618-1.841-8.085a41.393,41.393,0,0,0-1.573-4.753c-1.266-2.6-2.425-4.5-5.089-4.935a4.032,4.032,0,0,1-2.289,1.313C525.509,711.467,524.311,713.2,524.214,714.844Z" transform="translate(-524.194 -708.74)" fill="#62c0a6"/>
          </g>
          <g id="Grupo_58011" data-name="Grupo 58011" transform="translate(58.406 16.521)">
            <path id="Trazado_165800" data-name="Trazado 165800" d="M554.644,750.446a14.733,14.733,0,0,0,2.962-.8c.464-.231.815-.38.667-1.188-.464-2.519-1.168-5.508-1.844-8.1C556.808,743.826,557.358,747.785,554.644,750.446Z" transform="translate(-554.644 -740.354)" fill="#5eb59a"/>
          </g>
          <g id="Grupo_58012" data-name="Grupo 58012" transform="translate(46.843 56.134)">
            <path id="Trazado_165801" data-name="Trazado 165801" d="M524.413,869.887a6.52,6.52,0,0,1,.539,3.9c-2.707-.037-5.409.161-8.117.124.583-2.864,3.2-2.855,5.44-3.783a.751.751,0,0,1,.627,0A1.157,1.157,0,0,0,524.413,869.887Z" transform="translate(-516.835 -869.887)" fill="#3a4345"/>
          </g>
          <g id="Grupo_58013" data-name="Grupo 58013" transform="translate(68.087 49.914)">
            <path id="Trazado_165802" data-name="Trazado 165802" d="M589.887,849.549a4.214,4.214,0,0,1,2.5,2.192q-2.876,3.4-5.729,6.813c-1.182-2.6.862-4.691,1.86-7.06a1.029,1.029,0,0,1,.438-.524A1.619,1.619,0,0,0,589.887,849.549Z" transform="translate(-586.302 -849.549)" fill="#3a4345"/>
          </g>
          <g id="Grupo_58015" data-name="Grupo 58015" transform="translate(47.652 2.205)">
            <g id="Grupo_58014" data-name="Grupo 58014">
              <path id="Trazado_165803" data-name="Trazado 165803" d="M519.479,694.541c.494,1.331.69,3.177,2.384,3.617,1.073.279,2.34-1.364,2.044-2.527.218-.6.245-1.432-.463-1.631-.5-.142-.449.921-1.054.879-.23-.016-.342-1.46-1.031-1.327S520.219,694.419,519.479,694.541Z" transform="translate(-519.479 -693.545)" fill="#fdc5ae"/>
            </g>
          </g>
          <g id="Grupo_58016" data-name="Grupo 58016" transform="translate(50.744 5.092)">
            <path id="Trazado_165804" data-name="Trazado 165804" d="M530.1,706.05q-.255-.893-.511-1.785c.317-.426.63-.855.946-1.282q.923.89,1.847,1.778A3.211,3.211,0,0,1,530.1,706.05Z" transform="translate(-529.591 -702.984)" fill="#fdc5ae"/>
          </g>
          <g id="Grupo_58017" data-name="Grupo 58017" transform="translate(37.087 21.138)">
            <path id="Trazado_165805" data-name="Trazado 165805" d="M493.8,757.724q-.742-1.135-1.488-2.27c-1.085.773-2.153,1.593-3.195,2.411a4.351,4.351,0,0,0-4,1.468c-.932,1.131,1.966.782,2.786.819-.206.581-.2,1.37.543.993a3.541,3.541,0,0,0,1.5-1.781C491.209,758.772,492.5,758.245,493.8,757.724Z" transform="translate(-484.932 -755.454)" fill="#fdc5ae"/>
          </g>
          <g id="Grupo_58018" data-name="Grupo 58018" transform="translate(44.201 8.166)">
            <path id="Trazado_165806" data-name="Trazado 165806" d="M519.986,719.315c-.764,1.688-2.094,4.606-4.053,6.1a23.921,23.921,0,0,1-6.593,3.24c-.408-.928-.763-1.887-1.144-2.83a31.27,31.27,0,0,1,4.586-2.961c2.262-3.026.857-4.875,3.7-8.693C518.92,710.893,521.77,715.374,519.986,719.315Z" transform="translate(-508.197 -713.035)" fill="#5eb59a"/>
          </g>
        </g>
      </g>
      <g id="Grupo_58061" data-name="Grupo 58061" transform="translate(185.956 19.715)">
        <g id="Grupo_58025" data-name="Grupo 58025" transform="translate(22.628 237.732)">
          <g id="Grupo_58024" data-name="Grupo 58024" transform="translate(0)">
            <path id="Trazado_165810" data-name="Trazado 165810" d="M2882.121,1487.053h-23.209a3.571,3.571,0,0,1,.653-2.175,3.675,3.675,0,0,1,2.326-1.238,22.281,22.281,0,0,1,2.694-.156,14.258,14.258,0,0,0,6.3-1.824,21.292,21.292,0,0,1,3.024-1.65l6.326.166a7.251,7.251,0,0,1,1.689,3.411A12.742,12.742,0,0,1,2882.121,1487.053Z" transform="translate(-2858.912 -1480.01)" fill="#050f64"/>
          </g>
        </g>
        <g id="Grupo_58027" data-name="Grupo 58027" transform="translate(67.82 237.732)">
          <g id="Grupo_58026" data-name="Grupo 58026" transform="translate(0)">
            <path id="Trazado_165811" data-name="Trazado 165811" d="M3063.2,1487.053h-23.209a3.574,3.574,0,0,1,.653-2.175,3.675,3.675,0,0,1,2.326-1.238,22.272,22.272,0,0,1,2.694-.156,14.258,14.258,0,0,0,6.3-1.824,21.292,21.292,0,0,1,3.024-1.65l6.326.166a7.252,7.252,0,0,1,1.69,3.411A12.791,12.791,0,0,1,3063.2,1487.053Z" transform="translate(-3039.989 -1480.01)" fill="#050f64"/>
          </g>
        </g>
        <g id="Grupo_58029" data-name="Grupo 58029" transform="translate(36.388 113.084)">
          <g id="Grupo_58028" data-name="Grupo 58028">
            <path id="Trazado_165812" data-name="Trazado 165812" d="M2914.046,1105.274l2.521-71.523s.086-1.283.118-1.477l6.183-49.642c.423-6.228,49.918,3.65,49.918,3.65l-5.545,119.2-8.185-.261-11.545-97.334-13.867,27.456-11.222,70.14Z" transform="translate(-2914.046 -980.571)" fill="#050f64"/>
          </g>
        </g>
        <g id="Grupo_58035" data-name="Grupo 58035" transform="translate(20.205 39.545)">
          <g id="Grupo_58032" data-name="Grupo 58032" transform="translate(0 0.327)">
            <g id="Grupo_58031" data-name="Grupo 58031">
              <g id="Grupo_58030" data-name="Grupo 58030">
                <path id="Trazado_165813" data-name="Trazado 165813" d="M2851.86,711.768a2.392,2.392,0,0,1,2.566,1.729,47.065,47.065,0,0,0,1.616,8.252c.2.643.416,1.267.652,1.866a3.889,3.889,0,0,0,.164.381l.157.335c.106.207.209.389.316.577a6.166,6.166,0,0,0,1.576,1.844,2.989,2.989,0,0,0,2.156.608,4.091,4.091,0,0,0,1.989-.9,6.5,6.5,0,0,0,.749-.694c.11-.124.216-.238.322-.37l.155-.19.286-.319a29.706,29.706,0,0,0,2.307-2.93c.739-1.058,1.444-2.181,2.12-3.338s1.313-2.367,1.93-3.589c1.223-2.46,2.348-5.007,3.376-7.619a154.154,154.154,0,0,0,5.288-16.144,5.638,5.638,0,0,1,3.9-3.589,10.871,10.871,0,0,1,6.733.176h0a10.142,10.142,0,0,1,5.4,4.05,5.929,5.929,0,0,1,.592,5.589,169.8,169.8,0,0,1-8.916,16.538c-1.659,2.688-3.438,5.332-5.361,7.914a67.438,67.438,0,0,1-6.421,7.48,40,40,0,0,1-3.92,3.437l-.552.416-.711.51c-.469.34-.979.637-1.468.948-.242.162-.5.284-.755.425s-.5.282-.761.4c-.521.23-1.03.481-1.561.661a15.755,15.755,0,0,1-1.588.493,13.77,13.77,0,0,1-1.609.286,11.055,11.055,0,0,1-3.21-.081,9.968,9.968,0,0,1-5.489-3.019,15.213,15.213,0,0,1-3.192-5.438c-.167-.5-.326-1.012-.471-1.5l-.183-.725c-.059-.241-.121-.493-.154-.686-.165-.832-.293-1.653-.39-2.466a52.913,52.913,0,0,1-.165-9.463,2.315,2.315,0,0,1,2.522-1.846Z" transform="translate(-2849.205 -687.223)" fill="#ea8096"/>
              </g>
            </g>
          </g>
          <g id="Grupo_58034" data-name="Grupo 58034" transform="translate(18.253)">
            <g id="Grupo_58033" data-name="Grupo 58033">
              <path id="Trazado_165814" data-name="Trazado 165814" d="M2944.426,721.955l7.46-20.163c2.256-6.1-.371-12.889-6.469-15.145h0a12.327,12.327,0,0,0-15.616,6.974l-7.46,20.163Z" transform="translate(-2922.34 -685.914)" fill="#fff"/>
            </g>
          </g>
        </g>
        <g id="Grupo_58037" data-name="Grupo 58037" transform="translate(45.211 34.103)">
          <g id="Grupo_58036" data-name="Grupo 58036">
            <path id="Trazado_165815" data-name="Trazado 165815" d="M2978.746,664.358h0a21.73,21.73,0,0,0-24.952,20.037l-4.4,60.754c19.591,11.057,31.754,8.393,49.917,3.65l2.054-57.139A26.649,26.649,0,0,0,2978.746,664.358Z" transform="translate(-2949.396 -664.107)" fill="#fff"/>
          </g>
        </g>
        <g id="Grupo_58039" data-name="Grupo 58039" transform="translate(44.504 33.427)">
          <g id="Grupo_58038" data-name="Grupo 58038" transform="translate(0 0)">
            <path id="Trazado_165816" data-name="Trazado 165816" d="M2998.038,723.124h.68l.995-27.753h-.677ZM2946.566,743.5l.376.21c9.608,5.425,17.8,7.843,26.559,7.843,6.646,0,13.018-1.353,20.854-3.352l.024-.7c-16.65,4.258-28.545,6.1-47.106-4.377l1.407-19.42-.676-.051Zm30.057-81.17c.132.02.263.041.392.064l-.051-.7-.24-.037A22.394,22.394,0,0,0,2951,682.319l-1.349,18.646h.677l1.346-18.6a21.736,21.736,0,0,1,21.649-20.286A21.989,21.989,0,0,1,2976.623,662.328Z" transform="translate(-2946.566 -661.401)" fill="#472ea6"/>
          </g>
        </g>
        <g id="Grupo_58041" data-name="Grupo 58041" transform="translate(0 57.057)">
          <g id="Grupo_58040" data-name="Grupo 58040" transform="translate(0 0)">
            <path id="Trazado_165817" data-name="Trazado 165817" d="M2819.545,803.163H2783.2l-14.951-47.081h36.347Z" transform="translate(-2768.247 -756.082)" fill="#472ea6"/>
          </g>
        </g>
        <g id="Grupo_58048" data-name="Grupo 58048" transform="translate(7.004 45.087)">
          <g id="Grupo_58043" data-name="Grupo 58043" transform="translate(0 1.568)">
            <g id="Grupo_58042" data-name="Grupo 58042">
              <path id="Trazado_165818" data-name="Trazado 165818" d="M2798.73,752.943c3.633.064,7.257.1,10.853.052s7.166-.162,10.65-.464a59.593,59.593,0,0,0,10.044-1.644,36.276,36.276,0,0,0,8.822-3.565,43.509,43.509,0,0,0,7.614-5.754,86.552,86.552,0,0,0,6.927-7.343c.555-.666,1.118-1.306,1.666-1.991l1.647-2.034c1.085-1.39,2.174-2.761,3.244-4.185,2.15-2.815,4.268-5.713,6.38-8.623,2.759-3.63,8.315-4.023,12.222-.794h0c3.9,3.223,4.552,8.791,1.359,12.231-2.58,2.647-5.175,5.291-7.858,7.912-1.324,1.314-2.7,2.614-4.066,3.914l-2.1,1.934c-.692.646-1.431,1.277-2.143,1.914a99.6,99.6,0,0,1-9.241,7.288,55.451,55.451,0,0,1-10.8,5.87,47.059,47.059,0,0,1-11.949,2.912,68.741,68.741,0,0,1-11.673.214c-3.791-.222-7.492-.644-11.157-1.131s-7.29-1.052-10.9-1.643a2.457,2.457,0,0,1-1.952-2.731h0A2.47,2.47,0,0,1,2798.73,752.943Z" transform="translate(-2796.311 -714.402)" fill="#f5bdc8"/>
            </g>
          </g>
          <g id="Grupo_58045" data-name="Grupo 58045" transform="translate(51.615 0.679)">
            <g id="Grupo_58044" data-name="Grupo 58044">
              <path id="Trazado_165819" data-name="Trazado 165819" d="M3020.833,746.457,3035,730.286c4.285-4.891,4.256-12.172-.636-16.457h0a12.327,12.327,0,0,0-17.077.939l-14.167,16.171Z" transform="translate(-3003.12 -710.842)" fill="#fff"/>
            </g>
          </g>
          <g id="Grupo_58047" data-name="Grupo 58047" transform="translate(50.66 0)">
            <g id="Grupo_58046" data-name="Grupo 58046">
              <path id="Trazado_165820" data-name="Trazado 165820" d="M3013.479,712.772l.566.377.371-.423a12.326,12.326,0,0,1,17.078-.937,10.889,10.889,0,0,1,3.633,6.6l.743.5a11.564,11.564,0,0,0-3.929-7.606,12.451,12.451,0,0,0-1.293-.987,12.991,12.991,0,0,0-16.74,1.992ZM2999.3,728.961l7.721,6.764.379-.568-7.147-6.259,7.967-9.094-.566-.377Zm18.667,15.453-2.62-2.295-.377.566,3.061,2.682,12.881-14.7-.565-.377Z" transform="translate(-2999.296 -708.12)" fill="#472ea6"/>
            </g>
          </g>
        </g>
        <g id="Grupo_58060" data-name="Grupo 58060" transform="translate(54.89 0)">
          <g id="Grupo_58055" data-name="Grupo 58055" transform="translate(5.429 9.168)">
            <g id="Grupo_58050" data-name="Grupo 58050" transform="translate(5.848 17.574)">
              <g id="Grupo_58049" data-name="Grupo 58049">
                <path id="Trazado_165821" data-name="Trazado 165821" d="M3033.364,635.886l1.949,15.34a8.573,8.573,0,0,0,9.995-1.269l-1.948-15.34Z" transform="translate(-3033.364 -634.617)" fill="#f5bdc8"/>
              </g>
            </g>
            <g id="Grupo_58052" data-name="Grupo 58052" transform="translate(5.848 17.574)">
              <g id="Grupo_58051" data-name="Grupo 58051">
                <path id="Trazado_165822" data-name="Trazado 165822" d="M3033.364,635.886l.882,6.938a8.147,8.147,0,0,0,2.3.229c.254-.012.507-.034.759-.066a9.061,9.061,0,0,0,6.574-4.255l-.523-4.117Z" transform="translate(-3033.364 -634.617)" fill="#ea8096"/>
              </g>
            </g>
            <g id="Grupo_58054" data-name="Grupo 58054">
              <g id="Grupo_58053" data-name="Grupo 58053">
                <path id="Trazado_165823" data-name="Trazado 165823" d="M3010.046,574.239l1.058,6.379.428,2.581a7.177,7.177,0,0,0,7.388,6,8.021,8.021,0,0,0,4.058-1.3c.139-.089.274-.181.406-.28a7.886,7.886,0,0,0,2.778-3.821c.443-1.317.833-2.757,1.191-4.271.206-.865.4-1.754.585-2.656a10.915,10.915,0,0,0-3.7-10.7c-2.686-2.182-5.766-2.572-9.264-1.043A8.435,8.435,0,0,0,3010.046,574.239Z" transform="translate(-3009.931 -564.201)" fill="#f5bdc8"/>
              </g>
            </g>
          </g>
          <g id="Grupo_58057" data-name="Grupo 58057" transform="translate(0)">
            <g id="Grupo_58056" data-name="Grupo 58056">
              <path id="Trazado_165824" data-name="Trazado 165824" d="M2991.713,548.618a3.512,3.512,0,0,1-.888-2.8,6.522,6.522,0,0,0-.32-3.015c-.573-1.164-1.911-1.714-2.251-2.983-.333-1.241.486-2.344,1.239-3.164l6.017-6.544a9.508,9.508,0,0,1,2.707-2.3,3.1,3.1,0,0,1,3.34.3c.521.429.923,1.054,1.459,1.453,1.213.9,2.686.407,3.993.032a6.85,6.85,0,0,1,5,.116,4.966,4.966,0,0,1,2.659,4.849,10.225,10.225,0,0,1-.979,2.514,3.718,3.718,0,0,0-.265,2.733c.453,1.217,1.684,1.664,2.642,2.358a6.677,6.677,0,0,1,2.537,4.545,6,6,0,0,1-1.46,4.795,2.348,2.348,0,0,1-3.557.113c-1.077-1.368-.7-3.988-2.1-4.81-1.678-.987-3.334,2.2-5,1.171-.889-.55-1.128-1.993-1.914-2.75-1.037-1-2.4-.428-3.44-.031a18.682,18.682,0,0,1-3.371.882,5.692,5.692,0,0,0-2.747,1.424C2994.133,548.264,2992.938,549.517,2991.713,548.618Z" transform="translate(-2988.178 -527.465)" fill="#050f64"/>
            </g>
          </g>
          <g id="Grupo_58059" data-name="Grupo 58059" transform="translate(18.067 18.017)">
            <g id="Grupo_58058" data-name="Grupo 58058" transform="translate(0 0)">
              <ellipse id="Elipse_4167" data-name="Elipse 4167" cx="3.775" cy="3.359" rx="3.775" ry="3.359" transform="translate(0 0.951) rotate(-7.239)" fill="#f5bdc8"/>
            </g>
          </g>
        </g>
      </g>
      <path id="Trazado_165825" data-name="Trazado 165825" d="M1547.2,2188.221c4.881,1.267,7.933,4.777,10.9,8.69l29.514-26.762.137.122L1557.5,2206.75Z" transform="translate(-1357.587 -2137.065)" fill="#00ff08" stroke="#006532" stroke-width="1"/>
    </g>
  </g>
</svg>
