<svg xmlns="http://www.w3.org/2000/svg" width="85" height="83.806" viewBox="0 0 85 83.806">
  <g id="Grupo_57737" data-name="Grupo 57737" transform="translate(-1830.299 -669.782)">
    <path id="Trazado_165216" data-name="Trazado 165216" d="M1892.68,693.9a1.482,1.482,0,0,1-1.695,1.2c-1.15-.033-2.3.007-3.452-.01-1.106-.016-1.531-.41-1.539-1.486q-.028-3.939,0-7.878c.007-1.053.461-1.483,1.54-1.494,1.623-.017,3.246,0,4.869-.01.262,0,.631.134.631-.362,0-2.293,0-4.586,0-6.987-2.7,1.091-5.286,2.141-7.877,3.186-3.855,1.554-7.707,3.117-11.574,4.643a1.027,1.027,0,0,0-.8,1.132q.043,10.8.005,21.6c0,.613.08.866.793.853,2.6-.05,5.193-.035,7.79-.008.564.006.762-.128.75-.728-.038-2.006-.021-4.013-.013-6.019,0-1.2.407-1.609,1.588-1.61q13.766-.008,27.531,0c1.214,0,1.609.418,1.61,1.67,0,4.721.018,9.443-.015,14.164-.005.7.177.939.873.865a1.323,1.323,0,0,1,1.508.827c.278.7-.119,1.17-.594,1.616a47,47,0,0,0-8.685,10.442,26.055,26.055,0,0,0-3.123,7.762c-.089.421-.018.577.388.665a12.3,12.3,0,0,1,4.9,2.542,9.165,9.165,0,0,0,5.706,2.091,1.3,1.3,0,0,1,1.457,1.018c.169.813-.332,1.256-1.036,1.518a11.767,11.767,0,0,1-7.617-2.633c-.3-.237-.627-.44-.944-.656a9.084,9.084,0,0,0-10.68-.043c-.587.395-1.162.808-1.744,1.211a11.588,11.588,0,0,1-13.13.167c-.714-.47-1.406-.973-2.113-1.453a9.13,9.13,0,0,0-8.024-1.185,11.728,11.728,0,0,0-3.884,2.247,11.78,11.78,0,0,1-14.019.033c-.484-.384-1.013-.711-1.524-1.062a9.186,9.186,0,0,0-5.581-1.635,9.481,9.481,0,0,0-5.536,2.073,12.742,12.742,0,0,1-8.064,2.935c-.708-.26-1.2-.707-1.033-1.519s.8-1.01,1.546-1.022a8.547,8.547,0,0,0,4.749-1.473c.4-.269.564-.5.376-1a7.508,7.508,0,0,1-.392-2.7c.008-2.066-.04-4.133.019-6.2a8.911,8.911,0,0,0-.689-3.609c-1.824-4.6-3.609-9.223-5.4-13.838-.535-1.374-.038-2.09,1.454-2.1.885-.006,1.773-.038,2.655.011.594.033.842-.1.794-.755-.06-.822.01-1.653-.021-2.478a1.295,1.295,0,1,1,2.5,0c-.027.825.023,1.653-.016,2.478-.025.54.081.782.7.76,1.414-.049,2.833-.043,4.247,0,.575.017.685-.2.672-.714-.031-1.238-.034-2.479.005-3.717a1.93,1.93,0,0,1,2-2.036c1.532-.052,3.069-.057,4.6,0a1.94,1.94,0,0,1,1.979,2.059c.032.884.006,1.77.013,2.655a3.635,3.635,0,0,0,.089,1.559c.158.293.82.308,1.252.462.333.119.658.259.987.391l3.19,1.279a1.717,1.717,0,0,0,.063-.27c0-5.251-.005-10.5.021-15.754,0-.665-.323-.686-.819-.686q-9.116.01-18.233-.014c-.651,0-.781.225-.769.816.035,1.681-.007,3.363.02,5.045a1.3,1.3,0,1,1-2.506.011c.03-1.859,0-3.718.012-5.577a2.644,2.644,0,0,1,2.781-2.783c.059,0,.118,0,.177,0,1.988-.018,1.988-.018,1.988-2.048,0-3.393.087-6.79-.03-10.179-.082-2.375,1.267-3.634,3.5-3.441.7.061,1.416-.011,2.123.016.431.016.649-.073.622-.572-.04-.736-.03-1.476,0-2.212.016-.442-.1-.682-.585-.614a2.411,2.411,0,0,1-.442,0c-.879-.043-1.417-.524-1.41-1.257a1.207,1.207,0,0,1,1.424-1.217c.918.076,1.13-.289,1.012-1.092a3.167,3.167,0,0,1,.01-.883,1.138,1.138,0,0,1,1.165-1.1,1.185,1.185,0,0,1,1.293,1.072,1.343,1.343,0,0,1,.015.265,3.954,3.954,0,0,0,.058,1.486c.243.524.9.123,1.354.256a1.2,1.2,0,0,1,1,1.276,1.189,1.189,0,0,1-1.111,1.179c-1.3.191-1.3.2-1.3,1.5,0,1.912,0,1.911,1.912,1.912.5,0,1-.008,1.5,0a2.633,2.633,0,0,1,2.765,2.8c.016,3.983.026,7.967-.012,11.95-.007.75.211.978.937.916,2.979-.253,4.147.787,4.068,4.094-.123,5.131-.024,10.268-.045,15.4,0,.578.11.922.718,1.1a12.539,12.539,0,0,1,1.967.792c.67.328.98.315.923-.574-.067-1.058-.015-2.123-.015-3.186q0-11.109,0-22.219V688.7c-.89.353-1.674.669-2.462.974-.942.365-1.67.148-1.949-.571-.286-.737.068-1.346,1.036-1.746.817-.338,1.629-.7,2.466-.976a1.166,1.166,0,0,0,.932-1.326c-.054-2.92-.024-5.842-.02-8.763a2.38,2.38,0,0,1,1.453-2.491,2.415,2.415,0,0,1,2.779.8q1.639,1.738,3.348,3.411a4.164,4.164,0,0,1,1.42,3.473c-.08.867.256.794.875.542q10.359-4.216,20.731-8.4c1.094-.442,2.188-.885,3.288-1.31a1.3,1.3,0,0,1,1.807.555c.314.7,0,1.369-.873,1.747-.811.353-1.627.7-2.459.994a.811.811,0,0,0-.633.9q.035,3.541,0,7.081c0,.5.145.662.646.653,1.593-.027,3.186-.019,4.78-.008,1.237.008,1.648.418,1.653,1.654q.012,3.806,0,7.613c-.005,1.192-.406,1.587-1.606,1.6-1.416.012-2.833-.025-4.249.012a1.5,1.5,0,0,1-1.7-1.205,1.428,1.428,0,0,1,1.654-1.329c.912.018,1.826-.032,2.737,0,.505.018.65-.149.64-.648q-.044-2.252,0-4.5c.009-.491-.123-.663-.638-.661q-5.123.024-10.246-.013c-.54,0-.718.149-.7.7.037,1.324.067,2.653-.006,3.974-.049.886.156,1.312,1.126,1.162a8.1,8.1,0,0,1,1.411-.01C1892.1,692.6,1892.41,692.848,1892.68,693.9Zm10.163,35.922a1.177,1.177,0,0,0,.352-.666c.138-.2.338-.423-.093-.491a5.132,5.132,0,0,0-.8-.018l-62.29-.008c-.177,0-.354.01-.531,0-.391-.024-.483.124-.449.526a14.224,14.224,0,0,1,.054,2.471c-.079.876.226,1.051,1.066,1.049q20.129-.042,40.258-.017c1.18,0,1.448.211,1.645,1.247-.185,1.029-.482,1.245-1.744,1.245h-38.5c-3.046,0-3.036,0-2.677,3.111.081.7.233.883.97.528a11.527,11.527,0,0,1,10.322-.047,25.293,25.293,0,0,1,3.4,2.224,9.229,9.229,0,0,0,7.437,1.339c1.884-.4,3.32-1.611,4.855-2.649a11.536,11.536,0,0,1,11.446-1.081,18.619,18.619,0,0,1,3.583,2.265,9.216,9.216,0,0,0,6.53,1.656,10.233,10.233,0,0,0,5.108-2.256,11.363,11.363,0,0,1,6.809-2.627.618.618,0,0,0,.7-.613c.042-.29.132-.574.2-.86.232-.958.213-.984-.786-.984q-6.726-.005-13.452-.01c-1.109,0-1.407-.24-1.688-1.277.173-.917.748-1.227,1.65-1.224,4.87.019,9.74.006,14.609,0,.367,0,.743.092.938-.413C1902.093,731.423,1902.483,730.629,1902.843,729.824Zm8.086-10.715h-1.221q-21.952,0-43.9,0a6.769,6.769,0,0,1-2.665-.52c-3.292-1.375-6.6-2.715-9.895-4.083a4.756,4.756,0,0,0-1.882-.388c-5.635.017-11.271.01-16.907.01-1.073,0-1.078,0-.705.965,1.333,3.436,2.683,6.866,3.99,10.312a.969.969,0,0,0,1.073.758c21.126-.02,42.252-.05,63.378.027,2.046.008,3.449-.385,4.554-2.224A30.553,30.553,0,0,1,1910.929,719.108Zm-44.649-22.393h-.014c0,6.315.011,12.631-.015,18.946,0,.722.177,1.012.93.949a15.176,15.176,0,0,1,2.3-.017c.686.047.834-.225.833-.864q-.026-17.175-.007-34.35a1.88,1.88,0,0,0-.579-1.423c-.839-.83-1.661-1.678-2.5-2.5-.219-.215-.41-.638-.761-.484s-.178.585-.178.891Q1866.274,687.287,1866.28,696.715Zm-13.532-8.859h0c0-1.945-.013-3.89.008-5.835.006-.53-.085-.806-.714-.8-2.829.026-5.659.019-8.488-.005-.55,0-.7.184-.694.715q.027,5.879,0,11.759c0,.54.158.71.7.7,2.829-.025,5.659-.033,8.488-.006.625.006.718-.248.711-.786C1852.731,691.688,1852.747,689.772,1852.747,687.856Zm51.834,28.733v-.009c1.711,0,3.423-.013,5.135.009.446.006.624-.1.615-.583-.027-1.534-.024-3.069,0-4.6.006-.449-.116-.619-.593-.617q-5.179.02-10.357-.012c-.5,0-.672.148-.662.653.026,1.475.032,2.951,0,4.426-.014.57.137.764.735.75C1901.158,716.563,1902.87,716.589,1904.582,716.589Zm-.059-8.328v-.018c1.679,0,3.358-.018,5.036.01.553.009.792-.122.776-.73-.039-1.442-.031-2.887,0-4.329.011-.585-.221-.767-.782-.766q-5.037.014-10.073-.022c-.636-.006-.813.245-.8.838.028,1.443.031,2.887,0,4.33-.011.556.2.7.724.7C1901.105,708.247,1902.814,708.262,1904.522,708.262Zm-14.113.006v-.007c1.708,0,3.417-.013,5.125.008.481.006.685-.125.675-.642q-.04-2.253,0-4.506c.01-.547-.192-.709-.721-.706q-5.081.023-10.162-.006c-.536,0-.723.172-.712.711.027,1.472.034,2.946,0,4.418-.015.591.193.753.761.742C1887.051,708.248,1888.73,708.268,1890.41,708.268Zm.094,2.483v-.007c-1.741,0-3.482,0-5.223,0-.391,0-.689.024-.683.548.019,1.593.016,3.187,0,4.78,0,.425.167.562.576.56q5.223-.018,10.446-.006c.474,0,.6-.174.6-.623-.02-1.5-.031-3.01.006-4.514.015-.594-.2-.757-.765-.746C1893.809,710.771,1892.156,710.751,1890.5,710.751Zm-13.089.045v-.014c-1.328,0-2.656.013-3.983-.008-.437-.007-.636.1-.627.586.028,1.563.025,3.128,0,4.691-.006.432.144.552.561.549q4.072-.028,8.143-.012c.418,0,.568-.125.563-.552q-.026-2.3.005-4.6c.008-.511-.2-.656-.683-.647C1880.071,710.813,1878.743,710.8,1877.415,710.8Zm-27.814-1.125v-.352c0-1.633,0-1.633-1.606-1.632-1.963,0-1.963,0-1.963,2.234,0,1.7,0,1.7,1.685,1.7C1849.6,711.621,1849.6,711.621,1849.6,709.672Z" transform="translate(0 0)" fill="#12263f"/>
    <path id="Trazado_165217" data-name="Trazado 165217" d="M1919.175,1083.509c-.172,2.526-.2,5.056-.169,7.587.007.529-.224.762-.745.733-.176-.01-.354,0-.531,0h-79.885c-1.361,0-1.39,0-1.356-1.352.059-2.326-.1-4.646-.177-6.968.638.3.306.873.33,1.316.055,1.007.159,1.068,1.146.947a12.029,12.029,0,0,0,6-2.744,10.054,10.054,0,0,1,6.36-2.178,10.549,10.549,0,0,1,6.482,2.113,17.469,17.469,0,0,0,2.316,1.571,10.342,10.342,0,0,0,11.365-.822c1.881-1.3,3.72-2.561,6.074-2.8a10.766,10.766,0,0,1,4.946.52,18.476,18.476,0,0,1,4.229,2.537,9.272,9.272,0,0,0,2.988,1.475c3.9,1.085,7.275-.074,10.352-2.466a8.687,8.687,0,0,1,3.055-1.657,10.578,10.578,0,0,1,9.9,1.823,11.245,11.245,0,0,0,5.932,2.645c.885.089.989.009,1.063-.878C1918.886,1084.444,1918.5,1083.838,1919.175,1083.509Zm-41.455,1.551a4.149,4.149,0,0,0-2.7.843,3.674,3.674,0,0,1-1.848.775,1.134,1.134,0,0,0-1.146,1.294,1.161,1.161,0,0,0,1.292,1.164,3.652,3.652,0,0,0,2.413-.722,2.833,2.833,0,0,1,3.99-.016,3.622,3.622,0,0,0,2.584.726,1.141,1.141,0,0,0,1.152-1.125,1.055,1.055,0,0,0-.866-1.256,6.169,6.169,0,0,1-2.637-1.152A3.917,3.917,0,0,0,1877.719,1085.06Zm-26.705,0a4.141,4.141,0,0,0-2.663.838,3.734,3.734,0,0,1-1.847.778,1.156,1.156,0,0,0-1.161,1.288,1.218,1.218,0,0,0,1.381,1.173,3.7,3.7,0,0,0,2.327-.719,2.832,2.832,0,0,1,3.991-.023,3.716,3.716,0,0,0,2.5.739,1.192,1.192,0,0,0,1.256-1.129,1.06,1.06,0,0,0-.869-1.259,6.332,6.332,0,0,1-2.638-1.153A3.918,3.918,0,0,0,1851.014,1085.061Zm52.292,0a4.151,4.151,0,0,0-2.713.841,3.583,3.583,0,0,1-1.846.775,1.155,1.155,0,0,0-1.156,1.293,1.221,1.221,0,0,0,1.383,1.17,3.821,3.821,0,0,0,2.4-.77,2.789,2.789,0,0,1,3.911.024,3.7,3.7,0,0,0,2.581.733,1.146,1.146,0,0,0,1.153-1.125,1.054,1.054,0,0,0-.861-1.26,6.289,6.289,0,0,1-2.635-1.151A3.817,3.817,0,0,0,1903.307,1085.062Z" transform="translate(-4.948 -338.242)" fill="#d2edf9"/>
    <path id="Trazado_165218" data-name="Trazado 165218" d="M1866.273,830.213a1.427,1.427,0,0,0,1.249-1.64c-.027-1.681.015-3.364-.02-5.045-.012-.591.118-.819.769-.816q9.116.039,18.233.014c.5,0,.822.021.819.686-.026,5.251-.017,10.5-.021,15.754a1.726,1.726,0,0,1-.063.27l-3.19-1.279c-.328-.132-.653-.272-.986-.391-.432-.154-1.094-.169-1.252-.462a3.635,3.635,0,0,1-.089-1.559c-.007-.885.018-1.771-.013-2.655a1.94,1.94,0,0,0-1.979-2.059c-1.531-.059-3.068-.055-4.6,0a1.93,1.93,0,0,0-2,2.036c-.039,1.238-.037,2.478-.005,3.717.013.517-.1.731-.672.714-1.415-.042-2.833-.048-4.247,0-.623.022-.729-.22-.7-.76.039-.824-.011-1.652.016-2.477a1.387,1.387,0,0,0-1.251-1.626Q1866.271,831.423,1866.273,830.213Zm3.5-3.431c-.005,1.181.212,1.659.843,1.834a1.2,1.2,0,0,0,1.407-.454,3.1,3.1,0,0,0,0-2.465,1.164,1.164,0,0,0-1.4-.462A1.3,1.3,0,0,0,1869.774,826.782Zm15.285.066a1.47,1.47,0,0,0-.453-1.386,1.185,1.185,0,0,0-1.677.077,2.538,2.538,0,0,0,.017,2.793,1.2,1.2,0,0,0,1.682.04C1885.1,828,1885.074,827.446,1885.059,826.848Zm-8.883,0c-.006,1.334.474,1.945,1.425,1.813.749-.1,1.066-.623,1.063-1.744s-.326-1.632-1.082-1.729C1876.69,825.072,1876.181,825.674,1876.176,826.846Z" transform="translate(-29.599 -125.84)" fill="#bbabf5"/>
    <path id="Trazado_165219" data-name="Trazado 165219" d="M1919.129,1071.7c-.673.329-.289.935-.328,1.4-.074.887-.178.968-1.063.878a11.245,11.245,0,0,1-5.932-2.645,10.578,10.578,0,0,0-9.9-1.823,8.683,8.683,0,0,0-3.055,1.657c-3.078,2.392-6.456,3.551-10.352,2.466a9.267,9.267,0,0,1-2.988-1.475,18.485,18.485,0,0,0-4.229-2.537,10.767,10.767,0,0,0-4.946-.52c-2.353.235-4.193,1.5-6.073,2.8a10.343,10.343,0,0,1-11.365.822,17.431,17.431,0,0,1-2.316-1.571,10.549,10.549,0,0,0-6.482-2.112,10.054,10.054,0,0,0-6.36,2.178,12.029,12.029,0,0,1-6,2.744c-.987.121-1.091.06-1.146-.947-.024-.443.308-1.015-.33-1.316a.344.344,0,0,1,0-.165,12.743,12.743,0,0,0,8.064-2.935,9.478,9.478,0,0,1,5.536-2.073,9.186,9.186,0,0,1,5.581,1.635c.51.351,1.039.678,1.523,1.062a11.779,11.779,0,0,0,14.019-.033,11.734,11.734,0,0,1,3.884-2.247,9.13,9.13,0,0,1,8.024,1.184c.707.48,1.4.983,2.113,1.453a11.588,11.588,0,0,0,13.13-.167c.582-.4,1.157-.816,1.744-1.211a9.084,9.084,0,0,1,10.68.042c.316.216.643.42.944.656a11.767,11.767,0,0,0,7.617,2.633A.336.336,0,0,1,1919.129,1071.7Z" transform="translate(-4.903 -326.434)" fill="#afdff2"/>
    <path id="Trazado_165220" data-name="Trazado 165220" d="M2162.968,772.7c-.271-1.053-.579-1.306-1.651-1.331a8.1,8.1,0,0,0-1.411.01c-.971.15-1.175-.276-1.126-1.162.073-1.321.043-2.65.006-3.974-.015-.549.163-.7.7-.7q5.123.038,10.247.013c.515,0,.647.17.638.661q-.043,2.252,0,4.5c.01.5-.135.666-.64.648-.911-.033-1.825.017-2.737,0a1.428,1.428,0,0,0-1.654,1.329Z" transform="translate(-270.288 -78.798)" fill="#afdff2"/>
    <path id="Trazado_165221" data-name="Trazado 165221" d="M1925.921,925.058a30.558,30.558,0,0,0-4.184,4.858c-1.105,1.839-2.508,2.232-4.554,2.224-21.126-.077-42.252-.047-63.378-.027a.969.969,0,0,1-1.073-.758c-1.307-3.446-2.657-6.876-3.99-10.312-.373-.962-.368-.965.7-.965,5.636,0,11.271.006,16.907-.01a4.755,4.755,0,0,1,1.882.388c3.3,1.368,6.6,2.708,9.895,4.083a6.764,6.764,0,0,0,2.665.521q21.952-.012,43.9,0Zm-13.713,4.93c.411,0,.825.03,1.233-.006a1.142,1.142,0,0,0,1.141-1.215,1.117,1.117,0,0,0-1.039-1.22,14.717,14.717,0,0,0-2.638,0,1.223,1.223,0,0,0,.071,2.432C1911.384,930.017,1911.8,929.986,1912.208,929.989Z" transform="translate(-14.992 -205.95)" fill="#fd8f25"/>
    <path id="Trazado_165222" data-name="Trazado 165222" d="M1924.91,1031.628c.281,1.037.58,1.275,1.688,1.277q6.726.011,13.452.01c1,0,1.018.027.786.984-.069.286-.16.57-.2.86a.617.617,0,0,1-.7.613,11.363,11.363,0,0,0-6.809,2.627,10.233,10.233,0,0,1-5.108,2.256,9.215,9.215,0,0,1-6.53-1.656,18.611,18.611,0,0,0-3.583-2.265,11.535,11.535,0,0,0-11.446,1.081c-1.535,1.038-2.97,2.246-4.855,2.649a9.229,9.229,0,0,1-7.437-1.339,25.294,25.294,0,0,0-3.4-2.224,11.527,11.527,0,0,0-10.322.047c-.738.355-.889.176-.97-.528-.359-3.113-.369-3.111,2.677-3.111h38.5c1.262,0,1.559-.216,1.743-1.245Z" transform="translate(-40.333 -297.749)" fill="#fd8f25"/>
    <path id="Trazado_165223" data-name="Trazado 165223" d="M1925.143,1007.276l-2.516.036c-.2-1.036-.466-1.247-1.645-1.247q-20.129,0-40.258.017c-.84,0-1.145-.173-1.066-1.049a14.235,14.235,0,0,0-.054-2.471c-.034-.4.058-.55.449-.526.176.011.354,0,.531,0l62.29.008a5.146,5.146,0,0,1,.795.018c.431.068.231.294.093.491-.392.077-.523.292-.353.666-.36.806-.75,1.6-1.068,2.422-.2.5-.571.412-.938.413-4.87,0-9.739.017-14.609,0C1925.891,1006.049,1925.316,1006.359,1925.143,1007.276Z" transform="translate(-40.565 -273.397)" fill="#d2edf9"/>
    <path id="Trazado_165224" data-name="Trazado 165224" d="M2033.263,729.938q0-9.428.006-18.857c0-.307-.167-.74.178-.891s.542.269.761.484c.843.827,1.664,1.675,2.5,2.5a1.879,1.879,0,0,1,.579,1.423q-.012,17.175.006,34.35c0,.639-.147.911-.833.864a15.176,15.176,0,0,0-2.3.017c-.754.063-.933-.227-.93-.949.026-6.315.015-12.63.015-18.946Z" transform="translate(-166.984 -33.223)" fill="#bbabf5"/>
    <path id="Trazado_165225" data-name="Trazado 165225" d="M1911.1,740.966c0,1.916-.016,3.832.01,5.747.007.538-.087.792-.711.786-2.829-.027-5.659-.019-8.488.006-.541,0-.7-.165-.7-.705q.032-5.879,0-11.759c0-.531.145-.72.694-.715,2.829.025,5.659.031,8.488.005.63-.006.72.27.715.8-.021,1.945-.009,3.89-.009,5.835Zm-6.165,1.951c-.057.817.027,1.571.992,1.811a1.148,1.148,0,0,0,1.241-.487,3,3,0,0,0,.026-2.463,1.14,1.14,0,0,0-1.218-.537C1905.067,741.429,1904.866,742.1,1904.936,742.917Zm0-4.9c-.047.674-.016,1.332.7,1.665a1.167,1.167,0,0,0,1.506-.345,2.786,2.786,0,0,0-.019-2.6,1.177,1.177,0,0,0-1.516-.311C1904.943,736.754,1904.886,737.372,1904.936,738.016Z" transform="translate(-58.354 -53.11)" fill="#bbabf5"/>
    <path id="Trazado_165226" data-name="Trazado 165226" d="M2222.374,907.01c-1.712,0-3.423-.026-5.134.015-.6.014-.75-.18-.735-.75.036-1.475.029-2.951,0-4.426-.009-.506.165-.656.663-.653q5.178.032,10.357.011c.477,0,.6.168.593.617-.021,1.534-.024,3.069,0,4.6.009.481-.17.589-.615.583-1.711-.022-3.423-.009-5.134-.009Z" transform="translate(-317.792 -190.421)" fill="#afdff2"/>
    <path id="Trazado_165227" data-name="Trazado 165227" d="M2222.14,859.812c-1.708,0-3.417-.015-5.125.009-.522.007-.735-.14-.724-.7.031-1.443.028-2.887,0-4.33-.012-.593.166-.844.8-.838q5.036.044,10.073.023c.561,0,.793.181.782.766-.028,1.443-.035,2.887,0,4.329.016.608-.223.739-.776.73-1.678-.029-3.357-.01-5.036-.01Z" transform="translate(-317.618 -151.551)" fill="#bbabf5"/>
    <path id="Trazado_165228" data-name="Trazado 165228" d="M2142.7,859.821c-1.679,0-3.358-.02-5.037.011-.569.011-.776-.151-.761-.742.037-1.472.031-2.945,0-4.418-.01-.539.176-.715.713-.711q5.081.03,10.162.006c.528,0,.731.16.721.706q-.041,2.252,0,4.506c.009.517-.195.648-.675.642-1.708-.021-3.417-.008-5.125-.008Z" transform="translate(-252.293 -151.553)" fill="#2cffe2"/>
    <path id="Trazado_165229" data-name="Trazado 165229" d="M2142.738,901.01c1.652,0,3.3.02,4.957-.011.569-.011.779.153.764.746-.037,1.5-.026,3.01-.006,4.514.006.448-.125.624-.6.622q-5.223-.018-10.446.006c-.409,0-.58-.135-.576-.56.015-1.593.019-3.187,0-4.78-.006-.524.292-.55.683-.548,1.741.008,3.482,0,5.223,0Z" transform="translate(-252.234 -190.259)" fill="#2cffe2"/>
    <path id="Trazado_165230" data-name="Trazado 165230" d="M2074.865,901.218c1.328,0,2.656.017,3.983-.009.488-.009.691.136.683.647q-.034,2.3-.006,4.6c0,.426-.145.553-.563.552q-4.072-.016-8.143.012c-.417,0-.566-.117-.561-.549.021-1.564.023-3.128,0-4.691-.009-.49.19-.592.626-.585,1.328.02,2.656.008,3.984.008Z" transform="translate(-197.45 -190.422)" fill="#afdff2"/>
    <path id="Trazado_165231" data-name="Trazado 165231" d="M1922.683,885.751c0,1.95,0,1.95-1.885,1.95-1.685,0-1.685,0-1.685-1.7,0-2.233,0-2.233,1.963-2.234,1.606,0,1.606,0,1.606,1.632Z" transform="translate(-73.083 -176.08)" fill="#afdff2"/>
    <path id="Trazado_165232" data-name="Trazado 165232" d="M2239.488,1005.636c-.171-.374-.04-.59.352-.666A1.176,1.176,0,0,1,2239.488,1005.636Z" transform="translate(-336.645 -275.813)" fill="#afdff2"/>
    <path id="Trazado_165233" data-name="Trazado 165233" d="M2043.633,1104.634a3.915,3.915,0,0,1,2.24.532,6.171,6.171,0,0,0,2.637,1.152,1.055,1.055,0,0,1,.865,1.257,1.141,1.141,0,0,1-1.152,1.124,3.623,3.623,0,0,1-2.584-.726,2.832,2.832,0,0,0-3.99.015,3.652,3.652,0,0,1-2.413.722,1.161,1.161,0,0,1-1.292-1.164,1.134,1.134,0,0,1,1.146-1.294,3.672,3.672,0,0,0,1.848-.775A4.149,4.149,0,0,1,2043.633,1104.634Z" transform="translate(-170.862 -357.817)" fill="#12263f"/>
    <path id="Trazado_165234" data-name="Trazado 165234" d="M1892.966,1104.639a3.917,3.917,0,0,1,2.274.533,6.328,6.328,0,0,0,2.638,1.153,1.061,1.061,0,0,1,.869,1.259,1.192,1.192,0,0,1-1.256,1.129,3.717,3.717,0,0,1-2.5-.739A2.832,2.832,0,0,0,1891,1108a3.7,3.7,0,0,1-2.327.719,1.217,1.217,0,0,1-1.381-1.173,1.156,1.156,0,0,1,1.161-1.288,3.731,3.731,0,0,0,1.847-.778A4.143,4.143,0,0,1,1892.966,1104.639Z" transform="translate(-46.9 -357.82)" fill="#12263f"/>
    <path id="Trazado_165235" data-name="Trazado 165235" d="M2187.964,1104.651a3.817,3.817,0,0,1,2.217.531,6.292,6.292,0,0,0,2.635,1.151,1.054,1.054,0,0,1,.861,1.26,1.146,1.146,0,0,1-1.153,1.126,3.7,3.7,0,0,1-2.581-.733,2.788,2.788,0,0,0-3.911-.024,3.819,3.819,0,0,1-2.4.77,1.221,1.221,0,0,1-1.383-1.17,1.155,1.155,0,0,1,1.156-1.293,3.584,3.584,0,0,0,1.846-.775A4.151,4.151,0,0,1,2187.964,1104.651Z" transform="translate(-289.606 -357.832)" fill="#12263f"/>
    <path id="Trazado_165236" data-name="Trazado 165236" d="M1886.006,838.172a1.3,1.3,0,0,1,.854-1.546,1.164,1.164,0,0,1,1.4.462,3.1,3.1,0,0,1,0,2.465,1.2,1.2,0,0,1-1.407.454C1886.218,839.831,1886,839.353,1886.006,838.172Z" transform="translate(-45.831 -137.23)" fill="#12263f"/>
    <path id="Trazado_165237" data-name="Trazado 165237" d="M1960.546,838.186c.015.6.046,1.151-.43,1.525a1.2,1.2,0,0,1-1.683-.04,2.538,2.538,0,0,1-.017-2.793,1.185,1.185,0,0,1,1.677-.077A1.471,1.471,0,0,1,1960.546,838.186Z" transform="translate(-105.086 -137.178)" fill="#12263f"/>
    <path id="Trazado_165238" data-name="Trazado 165238" d="M1922.193,838.278c.005-1.173.515-1.775,1.406-1.66.756.1,1.08.615,1.082,1.729s-.315,1.64-1.063,1.744C1922.667,840.222,1922.187,839.612,1922.193,838.278Z" transform="translate(-75.616 -137.271)" fill="#12263f"/>
    <path id="Trazado_165239" data-name="Trazado 165239" d="M2197.1,964.457c-.411,0-.825.029-1.233-.008a1.224,1.224,0,0,1-.071-2.432,14.734,14.734,0,0,1,2.638,0,1.117,1.117,0,0,1,1.039,1.22,1.143,1.143,0,0,1-1.141,1.215C2197.924,964.489,2197.51,964.458,2197.1,964.457Z" transform="translate(-299.883 -240.42)" fill="#12263f"/>
    <path id="Trazado_165240" data-name="Trazado 165240" d="M1922.161,774.922c-.071-.816.131-1.488,1.041-1.676a1.139,1.139,0,0,1,1.218.537,3,3,0,0,1-.026,2.463,1.148,1.148,0,0,1-1.241.487C1922.188,776.493,1922.1,775.739,1922.161,774.922Z" transform="translate(-75.578 -85.115)" fill="#12263f"/>
    <path id="Trazado_165241" data-name="Trazado 165241" d="M1922.155,747.066c-.05-.644.007-1.261.67-1.59a1.177,1.177,0,0,1,1.516.311,2.786,2.786,0,0,1,.019,2.6,1.168,1.168,0,0,1-1.506.345C1922.138,748.4,1922.107,747.74,1922.155,747.066Z" transform="translate(-75.573 -62.16)" fill="#12263f"/>
  </g>
</svg>
