<svg xmlns="http://www.w3.org/2000/svg" width="317.732" height="330.187" viewBox="0 0 317.732 330.187">
  <g id="Grupo_59799" data-name="Grupo 59799" transform="translate(-76.25 -64.997)">
    <circle id="Elipse_4178" data-name="Elipse 4178" cx="153.483" cy="153.483" r="153.483" transform="translate(76.25 74.799)" fill="#d6ffff" opacity="0.23"/>
    <ellipse id="Elipse_4179" data-name="Elipse 4179" cx="144.814" cy="8.689" rx="144.814" ry="8.689" transform="translate(83.447 377.807)" fill="#afafaf" opacity="0.46"/>
    <g id="Grupo_59765" data-name="Grupo 59765" transform="translate(110.144 135.034)">
      <g id="Grupo_59757" data-name="Grupo 59757" transform="translate(10.116 59.043)">
        <path id="Trazado_166458" data-name="Trazado 166458" d="M195.127,205.115l-58.5.686a8.7,8.7,0,0,0-8.514,9.887l15.933,115.359a8.7,8.7,0,0,0,8.718,7.507l180.444-2.118a8.7,8.7,0,0,0,8.539-7.71L352.776,229a5.806,5.806,0,0,0-5.837-6.466l-137.516,1.613-4.939-13.64A10.6,10.6,0,0,0,195.127,205.115Z" transform="translate(-128.032 -205.114)" fill="#ffcb00"/>
        <path id="Trazado_166459" data-name="Trazado 166459" d="M195.162,208.149l-58.5.687a8.7,8.7,0,0,0-8.514,9.886l12.683,115.4,204.2-2.4,7.777-99.685a5.807,5.807,0,0,0-5.836-6.466L209.46,227.186l-4.94-13.64A10.6,10.6,0,0,0,195.162,208.149Z" transform="translate(-128.035 -205.361)" fill="#ffba00"/>
        <path id="Trazado_166460" data-name="Trazado 166460" d="M130.74,242.921l10.311,93.811,204.2-2.4,7.335-94.018Z" transform="translate(-128.252 -207.973)" fill="#e79a15"/>
      </g>
      <g id="Grupo_59764" data-name="Grupo 59764" transform="translate(12.382 -70.037)">
        <g id="Grupo_59760" data-name="Grupo 59760" transform="translate(0 1.299)">
          <path id="Trazado_166485" data-name="Trazado 166485" d="M0,0,108.177-9.124,96.733,184.02l-108.177,9.124Z" transform="matrix(0.982, -0.188, 0.188, 0.982, 0, 29.339)" fill="#fff"/>
          <path id="Trazado_166461" data-name="Trazado 166461" d="M242.652,142.267l-1.6.467L224.495,340.869l28.1,5.445,15.2-4.44Z" transform="translate(-138.131 -142.267)" fill="#d3e2ec" opacity="0.42" style="mix-blend-mode: multiply;isolation: isolate"/>
          <path id="Trazado_166487" data-name="Trazado 166487" d="M0,0,69.1-5.828l-.5,8.452L-.5,8.452Z" transform="translate(20.748 38.29) rotate(-10.858)" fill="#d1d2d3"/>
          <path id="Trazado_166488" data-name="Trazado 166488" d="M0,0,69.1-5.828l-.5,8.452L-.5,8.452Z" transform="translate(35.569 151.363) rotate(-10.858)" fill="#d1d2d3"/>
          <path id="Trazado_166489" data-name="Trazado 166489" d="M0,0,69.1-5.828l-.5,8.452L-.5,8.452Z" transform="translate(37.782 168.244) rotate(-10.858)" fill="#d1d2d3"/>
          <path id="Trazado_166490" data-name="Trazado 166490" d="M0,0,69.1-5.828l-.5,8.452L-.5,8.452Z" transform="translate(39.995 185.125) rotate(-10.858)" fill="#d1d2d3"/>
          <path id="Trazado_166491" data-name="Trazado 166491" d="M0,0,34.536-2.913l-.25,4.224L-.25,4.224Z" transform="translate(39.102 46.253) rotate(-10.858)" fill="#d1d2d3"/>
          <g id="Grupo_59758" data-name="Grupo 59758" transform="translate(18.918 74.374)">
            <rect id="Rectángulo_34835" data-name="Rectángulo 34835" width="37.606" height="2.92" transform="matrix(0.982, -0.188, 0.188, 0.982, 0, 7.084)" fill="#d1d2d3"/>
            <rect id="Rectángulo_34836" data-name="Rectángulo 34836" width="37.606" height="2.92" transform="translate(1.632 15.591) rotate(-10.858)" fill="#d1d2d3"/>
            <rect id="Rectángulo_34837" data-name="Rectángulo 34837" width="37.606" height="2.92" transform="matrix(0.982, -0.188, 0.188, 0.982, 3.264, 24.098)" fill="#d1d2d3"/>
            <rect id="Rectángulo_34838" data-name="Rectángulo 34838" width="37.606" height="2.92" transform="matrix(0.982, -0.188, 0.188, 0.982, 4.895, 32.605)" fill="#d1d2d3"/>
            <rect id="Rectángulo_34839" data-name="Rectángulo 34839" width="37.606" height="2.92" transform="translate(6.527 41.113) rotate(-10.858)" fill="#d1d2d3"/>
            <rect id="Rectángulo_34840" data-name="Rectángulo 34840" width="37.606" height="2.92" transform="matrix(0.982, -0.188, 0.188, 0.982, 8.159, 49.62)" fill="#d1d2d3"/>
          </g>
          <g id="Grupo_59759" data-name="Grupo 59759" transform="translate(63.488 59.756)">
            <rect id="Rectángulo_34841" data-name="Rectángulo 34841" width="37.606" height="2.92" transform="matrix(0.982, -0.188, 0.188, 0.982, 0, 7.084)" fill="#d1d2d3"/>
            <rect id="Rectángulo_34842" data-name="Rectángulo 34842" width="37.606" height="2.92" transform="translate(1.632 15.591) rotate(-10.858)" fill="#d1d2d3"/>
            <rect id="Rectángulo_34843" data-name="Rectángulo 34843" width="37.606" height="2.92" transform="matrix(0.982, -0.188, 0.188, 0.982, 3.264, 24.098)" fill="#d1d2d3"/>
            <rect id="Rectángulo_34844" data-name="Rectángulo 34844" width="37.606" height="2.92" transform="matrix(0.982, -0.188, 0.188, 0.982, 4.895, 32.605)" fill="#d1d2d3"/>
            <rect id="Rectángulo_34845" data-name="Rectángulo 34845" width="37.606" height="2.92" transform="translate(6.527 41.113) rotate(-10.858)" fill="#d1d2d3"/>
            <rect id="Rectángulo_34846" data-name="Rectángulo 34846" width="37.606" height="2.92" transform="matrix(0.982, -0.188, 0.188, 0.982, 8.159, 49.62)" fill="#d1d2d3"/>
          </g>
        </g>
        <g id="Grupo_59763" data-name="Grupo 59763" transform="translate(91.584 0)">
          <path id="Trazado_166486" data-name="Trazado 166486" d="M0,0,107.241,6.4l8.026,196.562-107.241-6.4Z" transform="translate(16.85 0) rotate(7.252)" fill="#fff"/>
          <rect id="Rectángulo_34848" data-name="Rectángulo 34848" width="67.978" height="5.841" transform="matrix(0.992, 0.126, -0.126, 0.992, 34.669, 12.263)" fill="#d1d2d3"/>
          <rect id="Rectángulo_34849" data-name="Rectángulo 34849" width="67.978" height="5.841" transform="matrix(0.992, 0.126, -0.126, 0.992, 24.737, 138.419)" fill="#d1d2d3"/>
          <rect id="Rectángulo_34850" data-name="Rectángulo 34850" width="67.978" height="5.841" transform="matrix(0.992, 0.126, -0.126, 0.992, 23.255, 156.278)" fill="#d1d2d3"/>
          <rect id="Rectángulo_34851" data-name="Rectángulo 34851" width="67.978" height="5.841" transform="matrix(0.992, 0.126, -0.126, 0.992, 21.772, 183.652)" fill="#d1d2d3"/>
          <rect id="Rectángulo_34852" data-name="Rectángulo 34852" width="33.978" height="2.92" transform="translate(50.422 34.828) rotate(7.252)" fill="#d1d2d3"/>
          <g id="Grupo_59761" data-name="Grupo 59761" transform="translate(19.504 60.563)">
            <rect id="Rectángulo_34853" data-name="Rectángulo 34853" width="37.606" height="2.92" transform="translate(5.836 0) rotate(7.252)" fill="#d1d2d3"/>
            <rect id="Rectángulo_34854" data-name="Rectángulo 34854" width="37.606" height="2.92" transform="translate(4.742 8.593) rotate(7.252)" fill="#d1d2d3"/>
            <rect id="Rectángulo_34855" data-name="Rectángulo 34855" width="37.606" height="2.92" transform="translate(3.649 17.186) rotate(7.252)" fill="#d1d2d3"/>
            <rect id="Rectángulo_34856" data-name="Rectángulo 34856" width="37.606" height="2.92" transform="translate(2.555 25.779) rotate(7.252)" fill="#d1d2d3"/>
            <rect id="Rectángulo_34857" data-name="Rectángulo 34857" width="37.606" height="2.92" transform="translate(1.462 34.372) rotate(7.252)" fill="#d1d2d3"/>
            <rect id="Rectángulo_34858" data-name="Rectángulo 34858" width="37.606" height="2.92" transform="translate(0.369 42.964) rotate(7.252)" fill="#d1d2d3"/>
          </g>
          <g id="Grupo_59762" data-name="Grupo 59762" transform="translate(64.524 70.504)">
            <rect id="Rectángulo_34859" data-name="Rectángulo 34859" width="37.606" height="2.92" transform="translate(5.836 0) rotate(7.252)" fill="#d1d2d3"/>
            <rect id="Rectángulo_34860" data-name="Rectángulo 34860" width="37.606" height="2.92" transform="translate(4.742 8.593) rotate(7.252)" fill="#d1d2d3"/>
            <rect id="Rectángulo_34861" data-name="Rectángulo 34861" width="37.606" height="2.92" transform="translate(3.649 17.186) rotate(7.252)" fill="#d1d2d3"/>
            <rect id="Rectángulo_34862" data-name="Rectángulo 34862" width="37.606" height="2.92" transform="translate(2.555 25.779) rotate(7.252)" fill="#d1d2d3"/>
            <rect id="Rectángulo_34863" data-name="Rectángulo 34863" width="37.606" height="2.92" transform="translate(1.462 34.372) rotate(7.252)" fill="#d1d2d3"/>
            <rect id="Rectángulo_34864" data-name="Rectángulo 34864" width="37.606" height="2.92" transform="translate(0.369 42.964) rotate(7.252)" fill="#d1d2d3"/>
          </g>
        </g>
      </g>
      <path id="Trazado_166462" data-name="Trazado 166462" d="M341.011,392.792,144.025,395.1a9.5,9.5,0,0,1-9.518-8.195L117.113,260.974a9.495,9.495,0,0,1,9.295-10.793l228.815-2.686a9.5,9.5,0,0,1,9.545,10.573L350.333,384.376A9.494,9.494,0,0,1,341.011,392.792Z" transform="translate(-117.022 -149.512)" fill="#ffff5f"/>
      <path id="Trazado_166463" data-name="Trazado 166463" d="M341.047,395.826,144.06,398.138a9.495,9.495,0,0,1-9.517-8.2L117.149,264.008a9.495,9.495,0,0,1,9.294-10.793l228.816-2.686A9.494,9.494,0,0,1,364.8,261.1L350.369,387.41A9.494,9.494,0,0,1,341.047,395.826Z" transform="translate(-117.025 -149.759)" fill="#ffd600"/>
    </g>
    <g id="Grupo_59770" data-name="Grupo 59770" transform="translate(157.042 166.122)">
      <circle id="Elipse_4180" data-name="Elipse 4180" cx="58.34" cy="58.34" r="58.34" transform="translate(0 35.81) rotate(-17.873)" fill="#fffad2" opacity="0.34"/>
      <rect id="Rectángulo_34865" data-name="Rectángulo 34865" width="32.769" height="14.044" transform="translate(129.494 113.113) rotate(42.054)" fill="#472ea6"/>
      <rect id="Rectángulo_34866" data-name="Rectángulo 34866" width="13.844" height="14.044" transform="matrix(0.743, 0.67, -0.67, 0.743, 136.52, 119.452)" fill="#a490ec"/>
      <g id="Grupo_59766" data-name="Grupo 59766" transform="translate(137.011 125.906)">
        <path id="Trazado_166464" data-name="Trazado 166464" d="M319.566,342.278a7.217,7.217,0,0,1-.524-10.192L335.264,314.1a7.217,7.217,0,0,1,10.192-.525L404.833,367.6l-26.268,28.357Z" transform="translate(-317.184 -311.722)" fill="#a490ec"/>
        <path id="Trazado_166465" data-name="Trazado 166465" d="M394.267,410.164l-10.277-9.271,26.268-28.357,9.9,8.929a7.217,7.217,0,0,1,.525,10.192l-16.222,17.983A7.217,7.217,0,0,1,394.267,410.164Z" transform="translate(-322.609 -316.66)" fill="#a490ec"/>
      </g>
      <g id="Grupo_59767" data-name="Grupo 59767" transform="translate(147.812 125.906)">
        <path id="Trazado_166466" data-name="Trazado 166466" d="M336.219,314.1l-7.28,8.07L393.561,380.8l12.226-13.2L346.411,313.58A7.217,7.217,0,0,0,336.219,314.1Z" transform="translate(-328.939 -311.722)" fill="#bbabf5"/>
        <path id="Trazado_166467" data-name="Trazado 166467" d="M414.665,399.7l7.257-8.042a7.218,7.218,0,0,0-.525-10.193l-9.9-8.929-12.226,13.2Z" transform="translate(-334.65 -316.66)" fill="#a490ec"/>
      </g>
      <g id="Grupo_59768" data-name="Grupo 59768" transform="translate(0.674 0.675)">
        <path id="Trazado_166468" data-name="Trazado 166468" d="M168.9,251.917a72.754,72.754,0,1,0,68.92-76.4A72.754,72.754,0,0,0,168.9,251.917Zm130.921-6.737a58.34,58.34,0,1,1-61.261-55.266A58.341,58.341,0,0,1,299.817,245.18Z" transform="translate(-168.798 -175.423)" fill="#a490ec"/>
      </g>
      <path id="Trazado_166469" data-name="Trazado 166469" d="M198.534,247.249c-1.318-18.416,20.413-48.739,52.793-44.491" transform="translate(-170.534 -176.935)" fill="none" stroke="#c4ffff" stroke-linecap="round" stroke-miterlimit="10" stroke-width="12.352"/>
      <g id="Grupo_59769" data-name="Grupo 59769" transform="translate(39.687 4.066)">
        <path id="Trazado_166470" data-name="Trazado 166470" d="M278.233,201.2c14.534,43.854-9.606,85.958-45.99,105.609A58.342,58.342,0,0,0,278.233,201.2Z" transform="translate(-212.962 -180.907)" fill="#472ea6" opacity="0.12"/>
        <path id="Trazado_166471" data-name="Trazado 166471" d="M303.265,245.48a58.385,58.385,0,0,1-72.726,59.534,97.891,97.891,0,0,1-19.281,7.915,72.756,72.756,0,1,0,55.721-133.815,96.451,96.451,0,0,1,9.551,20.29A58.25,58.25,0,0,1,303.265,245.48Z" transform="translate(-211.258 -179.114)" fill="#472ea6"/>
      </g>
      <path id="Trazado_166472" data-name="Trazado 166472" d="M179.237,252.2a63.237,63.237,0,1,0,59.9-66.4A63.237,63.237,0,0,0,179.237,252.2Zm121.417-6.248a58.341,58.341,0,1,1-61.262-55.266A58.341,58.341,0,0,1,300.655,245.957Z" transform="translate(-168.964 -175.584)" fill="#bbabf5"/>
    </g>
  </g>
</svg>
